<svg width="428" height="888" viewBox="0 0 428 888" fill="none" xmlns="http://www.w3.org/2000/svg">
<path d="M50.4252 68.0165L55.2013 77.9648C57.1066 81.9355 57.2082 86.3231 55.8194 89.842C55.54 90.5457 55.5654 91.3364 55.8872 92.0141L57.6825 95.7501C58.5462 97.5486 60.9004 97.6181 61.8997 95.9065C65.1769 90.2764 65.6934 83.0041 62.6533 76.6702L55.7432 62.2734C52.7031 55.9482 46.8854 52.1514 40.6951 51.7343C38.8152 51.604 37.5026 53.6979 38.3579 55.4964L40.1531 59.2325C40.4749 59.9102 41.0677 60.3967 41.7621 60.5618C45.251 61.4046 48.5198 64.0459 50.4252 68.0165ZM35.5125 88.7994L30.7364 78.851C28.8311 74.8804 28.7295 70.5014 30.1183 66.9739C30.3977 66.2701 30.3723 65.4795 30.042 64.8018L28.2468 61.0657C27.383 59.2672 25.0288 59.1977 24.0296 60.9093C20.7523 66.5395 20.2358 73.8117 23.2759 80.1456L30.186 94.5424C33.2261 100.868 39.0438 104.665 45.2341 105.082C47.1141 105.212 48.4266 103.118 47.5714 101.319L45.7761 97.5834C45.4543 96.9057 44.8615 96.4191 44.1671 96.2541C40.6782 95.4113 37.4094 92.77 35.5041 88.7994H35.5125Z" fill="#2D6076"/>
<path d="M75.1271 120.433L79.9032 130.382C81.8085 134.352 81.9102 138.74 80.5214 142.259C80.2419 142.963 80.2673 143.753 80.5891 144.431L82.3844 148.167C83.2481 149.966 85.6023 150.035 86.6016 148.324C89.8788 142.693 90.3953 135.421 87.3552 129.087L80.4451 114.69C77.405 108.365 71.5873 104.568 65.397 104.151C63.5171 104.021 62.2045 106.115 63.0598 107.913L64.8551 111.649C65.1769 112.327 65.7696 112.814 66.464 112.979C69.953 113.822 73.2217 116.463 75.1271 120.433ZM60.2144 141.216L55.4383 131.268C53.533 127.297 53.4314 122.918 54.8202 119.391C55.0996 118.687 55.0742 117.896 54.7439 117.219L52.9487 113.483C52.0849 111.684 49.7307 111.615 48.7315 113.326C45.4543 118.956 44.9377 126.229 47.9778 132.563L54.8879 146.959C57.928 153.285 63.7457 157.081 69.936 157.499C71.816 157.629 73.1286 155.535 72.2733 153.736L70.478 150C70.1562 149.323 69.5634 148.836 68.869 148.671C65.3801 147.828 62.1113 145.187 60.206 141.216H60.2144Z" fill="#2D6076"/>
<path d="M20.9557 45.0185C20.8964 44.8881 20.8794 44.8881 20.8625 44.8881C16.4082 45.088 12.8854 42.6986 10.4804 37.6854L5.70431 27.7371C2.52871 21.1165 4.35785 13.3229 9.79448 10.3341C15.2311 7.33655 22.2174 10.2819 25.4015 16.9026L30.1776 26.8509C32.481 31.6469 33.3193 35.8521 30.8889 39.6056C30.8805 39.6229 30.8805 39.6316 30.8889 39.649C30.9905 39.8662 31.9051 41.769 32.8197 43.6804C33.8274 45.7744 36.5881 45.9568 37.8075 43.9932C41.3049 38.311 40.7375 32.0466 37.6297 25.565L30.7196 11.1595C26.0281 1.39363 14.6891 -2.32504 5.62809 3.06182C-3.04341 8.22277 -6.04118 20.0391 -1.51912 29.4661L4.70505 42.9072C7.84678 49.4496 13.3766 53.2812 19.804 53.4724C22.1836 53.5419 23.7417 50.7876 22.6493 48.5286L20.9641 45.0272L20.9557 45.0185Z" fill="#2D6076"/>
<path d="M34.5303 70.8224L18.0256 36.4334C17.0602 34.4177 17.8054 31.9415 19.6854 30.9075L20.71 30.3428C22.5985 29.3089 24.9103 30.0995 25.8757 32.1152L42.3803 66.5042C43.3457 68.5199 42.6005 70.9962 40.7206 72.0301L39.6959 72.5948C37.8075 73.6288 35.4956 72.8381 34.5303 70.8224Z" fill="#2D6076"/>
<path d="M59.0543 121.929L42.5496 87.5398C41.5843 85.5241 42.3295 83.0479 44.2094 82.014L45.2341 81.4492C47.1225 80.4153 49.4343 81.2059 50.3997 83.2217L66.9044 117.611C67.8698 119.626 67.1246 122.103 65.2446 123.137L64.2199 123.701C62.3315 124.735 60.0197 123.945 59.0543 121.929Z" fill="#2D6076"/>
<path d="M84.6963 176.675L68.1916 142.286C67.2262 140.27 67.9714 137.794 69.8514 136.76L70.8761 136.195C72.7645 135.161 75.0763 135.952 76.0417 137.968L92.5464 172.357C93.5117 174.372 92.7665 176.849 90.8866 177.883L89.8619 178.447C87.9735 179.481 85.6616 178.691 84.6963 176.675Z" fill="#2D6076"/>
<path d="M99.4903 171.774L104.266 181.723C106.172 185.693 106.273 190.081 104.885 193.6C104.605 194.304 104.631 195.094 104.952 195.772L106.748 199.508C107.611 201.306 109.966 201.376 110.965 199.664C114.242 194.034 114.759 186.762 111.719 180.428L104.808 166.031C101.768 159.706 95.9506 155.909 89.7603 155.492C87.8803 155.362 86.5678 157.456 87.4231 159.254L89.2183 162.99C89.5401 163.668 90.1329 164.155 90.8273 164.32C94.3162 165.162 97.585 167.804 99.4903 171.774ZM84.5777 192.557L79.8016 182.609C77.8963 178.638 77.7946 174.259 79.1834 170.732C79.4629 170.028 79.4375 169.237 79.1072 168.56L77.3119 164.824C76.4482 163.025 74.094 162.956 73.0948 164.667C69.8175 170.297 69.301 177.57 72.3411 183.903L79.2512 198.3C82.2913 204.625 88.109 208.422 94.2993 208.839C96.1792 208.97 97.4918 206.876 96.6365 205.077L94.8413 201.341C94.5195 200.664 93.9267 200.177 93.2323 200.012C89.7434 199.169 86.4746 196.528 84.5693 192.557H84.5777Z" fill="#2D6076"/>
<path d="M124.192 224.192L128.968 234.141C130.874 238.111 130.975 242.499 129.587 246.018C129.307 246.722 129.332 247.512 129.654 248.19L131.45 251.926C132.313 253.724 134.667 253.794 135.667 252.082C138.944 246.452 139.461 239.18 136.42 232.846L129.51 218.449C126.47 212.124 120.653 208.327 114.462 207.91C112.582 207.78 111.27 209.874 112.125 211.672L113.92 215.408C114.242 216.086 114.835 216.573 115.529 216.738C119.018 217.58 122.287 220.222 124.192 224.192ZM109.28 244.975L104.504 235.027C102.598 231.056 102.497 226.677 103.885 223.15C104.165 222.446 104.139 221.655 103.809 220.978L102.014 217.242C101.15 215.443 98.7959 215.373 97.7967 217.085C94.5194 222.715 94.0029 229.988 97.043 236.321L103.953 250.718C106.993 257.043 112.811 260.84 119.001 261.257C120.881 261.388 122.194 259.294 121.338 257.495L119.543 253.759C119.221 253.081 118.629 252.595 117.934 252.43C114.445 251.587 111.177 248.946 109.271 244.975H109.28Z" fill="#2D6076"/>
<path d="M108.119 225.678L91.6148 191.289C90.6495 189.273 91.3947 186.797 93.2746 185.763L94.2993 185.198C96.1877 184.164 98.4995 184.955 99.4649 186.971L115.97 221.36C116.935 223.375 116.19 225.852 114.31 226.886L113.285 227.45C111.397 228.484 109.085 227.694 108.119 225.678Z" fill="#2D6076"/>
<path d="M133.761 280.432L117.257 246.043C116.291 244.027 117.037 241.551 118.917 240.517L119.941 239.952C121.83 238.918 124.142 239.709 125.107 241.725L141.612 276.114C142.577 278.129 141.832 280.606 139.952 281.639L138.927 282.204C137.039 283.238 134.727 282.447 133.761 280.432Z" fill="#2D6076"/>
<path d="M147.277 272.752L152.053 282.7C153.958 286.671 154.06 291.059 152.671 294.577C152.392 295.281 152.417 296.072 152.739 296.749L154.534 300.485C155.398 302.284 157.752 302.354 158.751 300.642C162.028 295.012 162.545 287.739 159.505 281.406L152.595 267.009C149.555 260.684 143.737 256.887 137.547 256.47C135.667 256.339 134.354 258.433 135.209 260.232L137.005 263.968C137.327 264.646 137.919 265.132 138.614 265.297C142.103 266.14 145.371 268.781 147.277 272.752ZM132.364 293.535L127.588 283.586C125.683 279.616 125.581 275.237 126.97 271.709C127.249 271.005 127.224 270.215 126.894 269.537L125.098 265.801C124.235 264.003 121.88 263.933 120.881 265.645C117.604 271.275 117.087 278.547 120.127 284.881L127.038 299.278C130.078 305.603 135.895 309.4 142.086 309.817C143.966 309.947 145.278 307.853 144.423 306.055L142.628 302.319C142.306 301.641 141.713 301.155 141.019 300.989C137.53 300.147 134.261 297.505 132.356 293.535H132.364Z" fill="#2D6076"/>
<path d="M156.846 328.992L140.341 294.603C139.376 292.588 140.121 290.111 142.001 289.077L143.026 288.513C144.914 287.479 147.226 288.269 148.191 290.285L164.696 324.674C165.661 326.69 164.916 329.166 163.036 330.2L162.012 330.765C160.123 331.799 157.811 331.008 156.846 328.992Z" fill="#2D6076"/>
<path d="M171.64 324.092L176.416 334.04C178.321 338.011 178.423 342.398 177.034 345.917C176.755 346.621 176.78 347.412 177.102 348.089L178.897 351.825C179.761 353.624 182.115 353.693 183.115 351.982C186.392 346.352 186.908 339.079 183.868 332.745L176.958 318.349C173.918 312.023 168.1 308.227 161.91 307.81C160.03 307.679 158.717 309.773 159.573 311.572L161.368 315.308C161.69 315.985 162.283 316.472 162.977 316.637C166.466 317.48 169.735 320.121 171.64 324.092ZM156.727 344.875L151.951 334.926C150.046 330.956 149.944 326.577 151.333 323.049C151.613 322.345 151.587 321.555 151.257 320.877L149.462 317.141C148.598 315.342 146.244 315.273 145.244 316.985C141.967 322.615 141.451 329.887 144.491 336.221L151.401 350.618C154.441 356.943 160.259 360.74 166.449 361.157C168.329 361.287 169.641 359.193 168.786 357.395L166.991 353.659C166.669 352.981 166.076 352.494 165.382 352.329C161.893 351.486 158.624 348.845 156.719 344.875H156.727Z" fill="#2D6076"/>
<path d="M196.342 376.51L201.118 386.458C203.023 390.429 203.125 394.816 201.736 398.335C201.457 399.039 201.482 399.83 201.804 400.507L203.599 404.243C204.463 406.042 206.817 406.111 207.816 404.4C211.094 398.77 211.61 391.497 208.57 385.163L201.66 370.767C198.62 364.441 192.802 360.645 186.612 360.227C184.732 360.097 183.419 362.191 184.275 363.99L186.07 367.726C186.392 368.403 186.984 368.89 187.679 369.055C191.168 369.898 194.437 372.539 196.342 376.51ZM181.429 397.292L176.653 387.344C174.748 383.374 174.646 378.995 176.035 375.467C176.314 374.763 176.289 373.973 175.959 373.295L174.164 369.559C173.3 367.76 170.946 367.691 169.946 369.403C166.669 375.033 166.153 382.305 169.193 388.639L176.103 403.036C179.143 409.361 184.961 413.158 191.151 413.575C193.031 413.705 194.343 411.611 193.488 409.813L191.693 406.077C191.371 405.399 190.778 404.912 190.084 404.747C186.595 403.904 183.326 401.263 181.421 397.292H181.429Z" fill="#2D6076"/>
<path d="M180.278 377.995L163.773 343.606C162.808 341.591 163.553 339.114 165.433 338.08L166.457 337.516C168.346 336.482 170.658 337.272 171.623 339.288L188.128 373.677C189.093 375.693 188.348 378.169 186.468 379.203L185.443 379.768C183.555 380.802 181.243 380.011 180.278 377.995Z" fill="#2D6076"/>
<path d="M205.911 432.75L189.406 398.361C188.441 396.345 189.186 393.869 191.066 392.835L192.091 392.271C193.979 391.237 196.291 392.027 197.256 394.043L213.761 428.432C214.726 430.448 213.981 432.924 212.101 433.958L211.077 434.523C209.188 435.557 206.876 434.766 205.911 432.75Z" fill="#2D6076"/>
<path d="M407.879 79.1292L403.145 89.121C401.257 93.109 397.997 95.7763 394.516 96.6452C393.822 96.819 393.229 97.3055 392.907 97.9832L391.129 101.728C390.274 103.526 391.595 105.612 393.475 105.473C399.656 105.003 405.466 101.163 408.48 94.8119L415.331 80.363C418.346 74.0117 417.804 66.7395 414.501 61.1354C413.494 59.4324 411.139 59.528 410.284 61.3265L408.506 65.0713C408.184 65.749 408.159 66.5483 408.438 67.2434C409.844 70.7622 409.759 75.1412 407.871 79.1292H407.879ZM383.406 78.4428L388.14 68.4511C390.028 64.4631 393.288 61.7957 396.777 60.9269C397.472 60.7531 398.056 60.2665 398.378 59.5888L400.156 55.8441C401.011 54.0456 399.69 51.9604 397.81 52.0994C391.629 52.5685 385.819 56.4089 382.805 62.7601L375.954 77.2091C372.939 83.5603 373.481 90.8326 376.784 96.4367C377.791 98.1396 380.146 98.044 381.001 96.2455L382.779 92.5008C383.101 91.8231 383.126 91.0237 382.838 90.32C381.433 86.8098 381.517 82.4222 383.406 78.4341V78.4428Z" fill="#2D6076"/>
<path d="M382.661 131.356L377.927 141.348C376.038 145.336 372.778 148.003 369.298 148.872C368.603 149.046 368.011 149.532 367.689 150.21L365.91 153.955C365.055 155.753 366.376 157.838 368.256 157.699C374.438 157.23 380.247 153.39 383.262 147.038L390.113 132.59C393.127 126.238 392.585 118.966 389.283 113.362C388.275 111.659 385.921 111.755 385.066 113.553L383.287 117.298C382.965 117.976 382.94 118.775 383.22 119.47C384.625 122.989 384.541 127.368 382.652 131.356H382.661ZM358.187 130.669L362.921 120.678C364.81 116.69 368.07 114.022 371.559 113.153C372.253 112.98 372.837 112.493 373.159 111.815L374.938 108.071C375.793 106.272 374.472 104.187 372.592 104.326C366.41 104.795 360.601 108.635 357.586 114.987L350.735 129.436C347.721 135.787 348.263 143.059 351.565 148.663C352.573 150.366 354.927 150.271 355.782 148.472L357.561 144.727C357.882 144.05 357.908 143.25 357.62 142.547C356.214 139.036 356.299 134.649 358.187 130.661V130.669Z" fill="#2D6076"/>
<path d="M408.04 40.083C408.099 39.9527 408.099 39.944 408.083 39.9266C405.322 36.1906 405.068 31.7334 407.456 26.7027L412.19 16.711C415.34 10.0643 422.318 7.06678 427.763 10.0122C433.216 12.9576 435.079 20.7424 431.929 27.3891L427.195 37.3809C424.909 42.1943 422.224 45.4003 417.956 45.5046C417.94 45.5046 417.931 45.5046 417.923 45.522C417.821 45.7392 416.915 47.6507 416.009 49.5621C415.01 51.6647 416.491 54.167 418.693 54.0628C425.044 53.75 429.456 49.5708 432.539 43.0718L439.398 28.6142C444.047 18.8136 440.22 6.79744 430.837 2.13173C421.852 -2.34283 411.148 2.01878 406.66 11.4805L400.131 24.7739C397.014 31.3424 397.362 38.3801 400.978 44.0623C402.316 46.1649 405.313 45.8956 406.389 43.6192L408.057 40.1004L408.04 40.083Z" fill="#2D6076"/>
<path d="M396.447 67.0173L412.816 32.498C413.773 30.4736 416.085 29.6655 417.973 30.6821L418.998 31.2382C420.886 32.2634 421.64 34.7309 420.683 36.7553L404.314 71.2747C403.357 73.2991 401.045 74.1071 399.157 73.0906L398.132 72.5345C396.244 71.5092 395.49 69.0417 396.447 67.0173Z" fill="#2D6076"/>
<path d="M372.126 118.323L388.495 83.8037C389.452 81.7792 391.764 80.9712 393.653 81.9878L394.677 82.5438C396.566 83.5691 397.319 86.0366 396.362 88.061L379.993 122.58C379.036 124.605 376.724 125.413 374.836 124.396L373.811 123.84C371.923 122.815 371.169 120.347 372.126 118.323Z" fill="#2D6076"/>
<path d="M345.688 172.721L362.057 138.202C363.014 136.178 365.326 135.37 367.215 136.386L368.239 136.942C370.128 137.967 370.881 140.435 369.924 142.459L353.555 176.979C352.598 179.003 350.287 179.811 348.398 178.795L347.373 178.239C345.485 177.213 344.731 174.746 345.688 172.721Z" fill="#2D6076"/>
<path d="M358.06 182.652L353.327 192.643C351.438 196.631 348.178 199.299 344.697 200.168C344.003 200.341 343.41 200.828 343.089 201.506L341.31 205.25C340.455 207.049 341.776 209.134 343.656 208.995C349.838 208.526 355.647 204.686 358.662 198.334L365.513 183.885C368.527 177.534 367.985 170.262 364.683 164.658C363.675 162.955 361.321 163.05 360.465 164.849L358.687 168.594C358.365 169.271 358.34 170.071 358.619 170.766C360.025 174.285 359.94 178.664 358.052 182.652H358.06ZM333.587 181.965L338.321 171.974C340.209 167.986 343.47 165.318 346.959 164.449C347.653 164.276 348.237 163.789 348.559 163.111L350.337 159.367C351.193 157.568 349.872 155.483 347.992 155.622C341.81 156.091 336.001 159.931 332.986 166.283L326.135 180.732C323.12 187.083 323.662 194.355 326.965 199.959C327.973 201.662 330.327 201.567 331.182 199.768L332.96 196.023C333.282 195.346 333.308 194.546 333.02 193.842C331.614 190.332 331.699 185.945 333.587 181.957V181.965Z" fill="#2D6076"/>
<path d="M332.842 234.878L328.108 244.87C326.22 248.858 322.959 251.525 319.479 252.394C318.785 252.568 318.192 253.055 317.87 253.732L316.092 257.477C315.236 259.275 316.557 261.361 318.437 261.222C324.619 260.753 330.428 256.912 333.443 250.561L340.294 236.112C343.309 229.761 342.767 222.488 339.464 216.884C338.456 215.181 336.102 215.277 335.247 217.076L333.469 220.82C333.147 221.498 333.121 222.297 333.401 222.992C334.807 226.511 334.722 230.89 332.833 234.878H332.842ZM308.369 234.192L313.102 224.2C314.991 220.212 318.251 217.545 321.74 216.676C322.434 216.502 323.019 216.016 323.341 215.338L325.119 211.593C325.974 209.795 324.653 207.709 322.773 207.848C316.591 208.318 310.782 212.158 307.767 218.509L300.917 232.958C297.902 239.309 298.444 246.582 301.746 252.186C302.754 253.889 305.108 253.793 305.964 251.995L307.742 248.25C308.064 247.572 308.089 246.773 307.801 246.069C306.396 242.559 306.48 238.171 308.369 234.183V234.192Z" fill="#2D6076"/>
<path d="M322.307 221.838L338.677 187.318C339.633 185.294 341.945 184.486 343.834 185.502L344.858 186.058C346.747 187.084 347.5 189.551 346.544 191.576L330.174 226.095C329.218 228.119 326.906 228.927 325.017 227.911L323.993 227.355C322.104 226.33 321.35 223.862 322.307 221.838Z" fill="#2D6076"/>
<path d="M295.869 276.245L312.239 241.726C313.195 239.701 315.507 238.893 317.396 239.91L318.42 240.466C320.309 241.491 321.062 243.958 320.106 245.983L303.736 280.502C302.78 282.527 300.468 283.335 298.579 282.318L297.555 281.762C295.666 280.737 294.912 278.269 295.869 276.245Z" fill="#2D6076"/>
<path d="M309.596 283.43L304.863 293.422C302.974 297.41 299.714 300.077 296.233 300.946C295.539 301.12 294.946 301.606 294.625 302.284L292.846 306.029C291.991 307.827 293.312 309.912 295.192 309.773C301.374 309.304 307.183 305.464 310.198 299.113L317.049 284.664C320.063 278.312 319.521 271.04 316.219 265.436C315.211 263.733 312.857 263.829 312.001 265.627L310.223 269.372C309.901 270.05 309.876 270.849 310.155 271.544C311.561 275.063 311.476 279.442 309.588 283.43H309.596ZM285.123 282.744L289.857 272.752C291.745 268.764 295.006 266.096 298.495 265.228C299.189 265.054 299.773 264.567 300.095 263.89L301.873 260.145C302.729 258.346 301.408 256.261 299.528 256.4C293.346 256.869 287.537 260.71 284.522 267.061L277.671 281.51C274.656 287.861 275.198 295.133 278.501 300.737C279.509 302.44 281.863 302.345 282.718 300.546L284.496 296.802C284.818 296.124 284.844 295.325 284.556 294.621C283.15 291.111 283.235 286.723 285.123 282.735V282.744Z" fill="#2D6076"/>
<path d="M272.624 324.796L288.993 290.276C289.95 288.252 292.262 287.444 294.15 288.46L295.175 289.016C297.063 290.042 297.817 292.509 296.86 294.534L280.491 329.053C279.534 331.077 277.222 331.885 275.334 330.869L274.309 330.313C272.421 329.288 271.667 326.82 272.624 324.796Z" fill="#2D6076"/>
<path d="M284.996 334.727L280.262 344.719C278.374 348.707 275.114 351.374 271.633 352.243C270.939 352.417 270.346 352.903 270.024 353.581L268.246 357.326C267.391 359.124 268.712 361.209 270.592 361.07C276.774 360.601 282.583 356.761 285.597 350.41L292.448 335.961C295.463 329.609 294.921 322.337 291.618 316.733C290.611 315.03 288.256 315.126 287.401 316.924L285.623 320.669C285.301 321.347 285.276 322.146 285.555 322.841C286.961 326.36 286.876 330.739 284.988 334.727H284.996ZM260.523 334.04L265.257 324.049C267.145 320.061 270.405 317.393 273.894 316.525C274.589 316.351 275.173 315.864 275.495 315.186L277.273 311.442C278.128 309.643 276.807 307.558 274.927 307.697C268.746 308.166 262.936 312.006 259.922 318.358L253.071 332.807C250.056 339.158 250.598 346.43 253.901 352.034C254.908 353.737 257.263 353.642 258.118 351.843L259.896 348.098C260.218 347.421 260.243 346.621 259.956 345.918C258.55 342.407 258.634 338.02 260.523 334.032V334.04Z" fill="#2D6076"/>
<path d="M259.778 386.953L255.044 396.945C253.155 400.933 249.895 403.601 246.415 404.469C245.72 404.643 245.127 405.13 244.806 405.807L243.027 409.552C242.172 411.351 243.493 413.436 245.373 413.297C251.555 412.828 257.364 408.987 260.379 402.636L267.23 388.187C270.244 381.836 269.702 374.564 266.4 368.96C265.392 367.257 263.038 367.352 262.183 369.151L260.404 372.895C260.082 373.573 260.057 374.373 260.337 375.068C261.742 378.586 261.658 382.965 259.769 386.953H259.778ZM235.304 386.267L240.038 376.275C241.926 372.287 245.187 369.62 248.676 368.751C249.37 368.577 249.954 368.091 250.276 367.413L252.055 363.668C252.91 361.87 251.589 359.785 249.709 359.924C243.527 360.393 237.718 364.233 234.703 370.584L227.852 385.033C224.838 391.385 225.379 398.657 228.682 404.261C229.69 405.964 232.044 405.868 232.899 404.07L234.678 400.325C234.999 399.647 235.025 398.848 234.737 398.144C233.331 394.634 233.416 390.246 235.304 386.258V386.267Z" fill="#2D6076"/>
<path d="M249.243 373.921L265.612 339.401C266.569 337.377 268.881 336.569 270.77 337.585L271.794 338.141C273.683 339.167 274.436 341.634 273.479 343.659L257.11 378.178C256.153 380.202 253.841 381.01 251.953 379.994L250.928 379.438C249.04 378.413 248.286 375.945 249.243 373.921Z" fill="#2D6076"/>
<path d="M222.805 428.319L239.174 393.8C240.131 391.775 242.443 390.967 244.332 391.984L245.356 392.54C247.245 393.565 247.998 396.033 247.041 398.057L230.672 432.576C229.715 434.601 227.403 435.409 225.515 434.392L224.49 433.836C222.602 432.811 221.848 430.343 222.805 428.319Z" fill="#2D6076"/>
<path d="M390.587 824.73L385.667 814.86C383.702 810.924 383.533 806.537 384.879 802.992C385.15 802.288 385.108 801.489 384.778 800.82L382.932 797.118C382.042 795.337 379.688 795.302 378.714 797.031C375.513 802.714 375.107 810.003 378.24 816.276L385.362 830.56C388.487 836.833 394.372 840.535 400.563 840.848C402.451 840.943 403.73 838.832 402.841 837.051L400.994 833.349C400.656 832.68 400.063 832.202 399.369 832.046C395.871 831.264 392.56 828.675 390.595 824.739L390.587 824.73ZM405.195 803.704L410.115 813.574C412.079 817.51 412.24 821.889 410.902 825.443C410.64 826.147 410.674 826.946 411.004 827.615L412.85 831.316C413.739 833.097 416.093 833.132 417.067 831.403C420.268 825.721 420.675 818.431 417.541 812.158L410.42 797.874C407.295 791.601 401.409 787.9 395.219 787.587C393.331 787.492 392.052 789.603 392.941 791.384L394.787 795.085C395.126 795.754 395.719 796.232 396.413 796.389C399.911 797.171 403.222 799.76 405.186 803.696L405.195 803.704Z" fill="#2D6076"/>
<path d="M365.131 772.73L360.211 762.86C358.247 758.924 358.077 754.537 359.424 750.992C359.695 750.288 359.652 749.489 359.322 748.82L357.476 745.118C356.587 743.337 354.233 743.302 353.259 745.031C350.058 750.714 349.651 758.003 352.785 764.276L359.906 778.56C363.031 784.833 368.917 788.535 375.107 788.847C376.995 788.943 378.274 786.832 377.385 785.051L375.539 781.349C375.2 780.68 374.607 780.202 373.913 780.046C370.416 779.264 367.105 776.675 365.14 772.739L365.131 772.73ZM379.739 751.704L384.659 761.574C386.624 765.51 386.785 769.889 385.447 773.443C385.184 774.147 385.218 774.946 385.548 775.615L387.394 779.316C388.284 781.097 390.638 781.132 391.612 779.403C394.813 773.721 395.219 766.431 392.086 760.158L384.964 745.874C381.839 739.601 375.954 735.9 369.764 735.587C367.875 735.492 366.596 737.603 367.486 739.384L369.332 743.085C369.67 743.754 370.263 744.232 370.958 744.389C374.455 745.171 377.766 747.76 379.731 751.696L379.739 751.704Z" fill="#2D6076"/>
<path d="M420.387 847.242C420.446 847.364 420.463 847.372 420.48 847.372C424.926 847.094 428.483 849.432 430.964 854.401L435.884 864.271C439.153 870.84 437.442 878.66 432.048 881.744C426.653 884.828 419.625 881.996 416.348 875.436L411.427 865.566C409.056 860.805 408.15 856.617 410.53 852.829C410.538 852.811 410.538 852.803 410.53 852.785C410.42 852.568 409.48 850.683 408.54 848.789C407.507 846.712 404.738 846.573 403.552 848.563C400.139 854.306 400.791 860.553 404.001 866.982L411.123 881.266C415.95 890.954 427.348 894.481 436.324 888.947C444.919 883.647 447.748 871.778 443.09 862.421L436.671 849.084C433.436 842.594 427.847 838.858 421.42 838.771C419.04 838.736 417.525 841.516 418.642 843.767L420.378 847.242H420.387Z" fill="#2D6076"/>
<path d="M406.44 821.664L423.444 855.766C424.443 857.765 423.732 860.249 421.86 861.318L420.844 861.9C418.973 862.969 416.652 862.213 415.653 860.215L398.649 826.112C397.65 824.114 398.361 821.629 400.232 820.56L401.249 819.978C403.12 818.91 405.44 819.666 406.44 821.664Z" fill="#2D6076"/>
<path d="M381.17 770.975L398.175 805.078C399.174 807.076 398.462 809.561 396.591 810.63L395.575 811.212C393.703 812.28 391.383 811.525 390.384 809.526L373.379 775.424C372.38 773.426 373.092 770.941 374.963 769.872L375.979 769.29C377.851 768.221 380.171 768.977 381.17 770.975Z" fill="#2D6076"/>
<path d="M354.749 716.663L371.754 750.765C372.753 752.764 372.041 755.248 370.17 756.317L369.154 756.899C367.282 757.968 364.962 757.212 363.963 755.214L346.958 721.111C345.959 719.113 346.671 716.628 348.542 715.56L349.558 714.977C351.43 713.909 353.75 714.665 354.749 716.663Z" fill="#2D6076"/>
<path d="M340.023 721.807L335.103 711.936C333.138 708.001 332.969 703.613 334.315 700.068C334.586 699.364 334.544 698.565 334.214 697.896L332.368 694.195C331.479 692.413 329.124 692.379 328.151 694.108C324.95 699.79 324.543 707.08 327.676 713.353L334.798 727.637C337.923 733.91 343.808 737.611 349.999 737.924C351.887 738.019 353.166 735.908 352.277 734.127L350.431 730.426C350.092 729.757 349.499 729.279 348.805 729.122C345.307 728.34 341.996 725.751 340.031 721.815L340.023 721.807ZM354.631 700.78L359.551 710.651C361.516 714.586 361.676 718.965 360.338 722.519C360.076 723.223 360.11 724.022 360.44 724.691L362.286 728.392C363.175 730.174 365.529 730.208 366.503 728.479C369.704 722.797 370.111 715.507 366.978 709.234L359.856 694.95C356.731 688.677 350.845 684.976 344.655 684.663C342.767 684.568 341.488 686.679 342.377 688.46L344.223 692.161C344.562 692.83 345.155 693.308 345.849 693.465C349.347 694.247 352.658 696.836 354.622 700.772L354.631 700.78Z" fill="#2D6076"/>
<path d="M314.567 669.807L309.647 659.936C307.683 656.001 307.513 651.613 308.86 648.068C309.131 647.364 309.088 646.565 308.758 645.896L306.912 642.195C306.023 640.413 303.669 640.379 302.695 642.108C299.494 647.79 299.087 655.08 302.221 661.353L309.342 675.637C312.467 681.91 318.353 685.611 324.543 685.924C326.431 686.019 327.71 683.908 326.821 682.127L324.975 678.425C324.636 677.756 324.043 677.279 323.349 677.122C319.852 676.34 316.54 673.751 314.576 669.815L314.567 669.807ZM329.175 648.78L334.095 658.65C336.06 662.586 336.221 666.965 334.883 670.519C334.62 671.223 334.654 672.022 334.984 672.691L336.83 676.392C337.72 678.174 340.074 678.208 341.048 676.479C344.249 670.797 344.655 663.507 341.522 657.234L334.4 642.95C331.275 636.677 325.39 632.976 319.2 632.663C317.311 632.568 316.032 634.679 316.922 636.46L318.768 640.161C319.106 640.83 319.699 641.308 320.394 641.465C323.891 642.247 327.202 644.836 329.167 648.772L329.175 648.78Z" fill="#2D6076"/>
<path d="M330.606 668.052L347.61 702.154C348.61 704.152 347.898 706.637 346.027 707.706L345.011 708.288C343.139 709.357 340.819 708.601 339.82 706.602L322.815 672.5C321.816 670.502 322.527 668.017 324.399 666.948L325.415 666.366C327.287 665.297 329.607 666.053 330.606 668.052Z" fill="#2D6076"/>
<path d="M304.185 613.731L321.19 647.834C322.189 649.832 321.477 652.317 319.606 653.385L318.59 653.968C316.718 655.036 314.398 654.28 313.399 652.282L296.394 618.18C295.395 616.181 296.107 613.697 297.978 612.628L298.994 612.046C300.866 610.977 303.186 611.733 304.185 613.731Z" fill="#2D6076"/>
<path d="M290.78 621.638L285.86 611.767C283.895 607.832 283.726 603.444 285.072 599.899C285.343 599.195 285.301 598.396 284.971 597.727L283.125 594.026C282.236 592.244 279.881 592.21 278.907 593.939C275.706 599.621 275.3 606.911 278.433 613.184L285.555 627.468C288.68 633.741 294.565 637.442 300.756 637.755C302.644 637.85 303.923 635.739 303.034 633.958L301.187 630.257C300.849 629.588 300.256 629.11 299.562 628.953C296.064 628.171 292.753 625.582 290.788 621.646L290.78 621.638ZM305.388 600.611L310.308 610.482C312.272 614.417 312.433 618.796 311.095 622.35C310.833 623.054 310.867 623.853 311.197 624.522L313.043 628.223C313.932 630.005 316.286 630.039 317.26 628.31C320.461 622.628 320.868 615.338 317.734 609.065L310.613 594.782C307.488 588.508 301.602 584.807 295.412 584.494C293.524 584.399 292.245 586.51 293.134 588.291L294.98 591.993C295.319 592.662 295.912 593.139 296.606 593.296C300.104 594.078 303.415 596.667 305.379 600.603L305.388 600.611Z" fill="#2D6076"/>
<path d="M280.398 565.562L297.402 599.665C298.401 601.663 297.69 604.148 295.819 605.217L294.802 605.799C292.931 606.867 290.611 606.111 289.611 604.113L272.607 570.011C271.608 568.013 272.319 565.528 274.191 564.459L275.207 563.877C277.078 562.808 279.399 563.564 280.398 565.562Z" fill="#2D6076"/>
<path d="M265.672 570.706L260.752 560.836C258.787 556.9 258.618 552.512 259.964 548.967C260.235 548.264 260.193 547.464 259.862 546.795L258.016 543.094C257.127 541.313 254.773 541.278 253.799 543.007C250.598 548.689 250.192 555.979 253.325 562.252L260.447 576.536C263.571 582.809 269.457 586.51 275.647 586.823C277.536 586.919 278.814 584.807 277.925 583.026L276.079 579.325C275.74 578.656 275.148 578.178 274.453 578.022C270.956 577.24 267.645 574.651 265.68 570.715L265.672 570.706ZM280.279 549.68L285.199 559.55C287.164 563.486 287.325 567.865 285.987 571.418C285.724 572.122 285.758 572.922 286.089 573.591L287.935 577.292C288.824 579.073 291.178 579.108 292.152 577.379C295.353 571.696 295.759 564.407 292.626 558.134L285.504 543.85C282.379 537.577 276.494 533.875 270.304 533.563C268.415 533.467 267.137 535.578 268.026 537.36L269.872 541.061C270.211 541.73 270.803 542.208 271.498 542.364C274.995 543.146 278.306 545.735 280.271 549.671L280.279 549.68Z" fill="#2D6076"/>
<path d="M240.207 518.705L235.287 508.835C233.323 504.899 233.153 500.511 234.5 496.966C234.771 496.263 234.729 495.463 234.398 494.794L232.552 491.093C231.663 489.312 229.309 489.277 228.335 491.006C225.134 496.688 224.727 503.978 227.861 510.251L234.983 524.535C238.107 530.808 243.993 534.509 250.183 534.822C252.072 534.918 253.35 532.806 252.461 531.025L250.615 527.324C250.276 526.655 249.683 526.177 248.989 526.021C245.492 525.239 242.181 522.649 240.216 518.714L240.207 518.705ZM254.815 497.679L259.735 507.549C261.7 511.485 261.861 515.864 260.523 519.417C260.26 520.121 260.294 520.92 260.624 521.589L262.471 525.291C263.36 527.072 265.714 527.107 266.688 525.378C269.889 519.695 270.295 512.406 267.162 506.133L260.04 491.849C256.915 485.576 251.03 481.875 244.84 481.562C242.951 481.466 241.673 483.577 242.562 485.359L244.408 489.06C244.746 489.729 245.339 490.207 246.034 490.363C249.531 491.145 252.842 493.734 254.807 497.67L254.815 497.679Z" fill="#2D6076"/>
<path d="M256.255 516.95L273.259 551.052C274.258 553.051 273.547 555.536 271.676 556.604L270.659 557.186C268.788 558.255 266.468 557.499 265.468 555.501L248.464 521.399C247.465 519.4 248.176 516.915 250.048 515.847L251.064 515.265C252.935 514.196 255.256 514.952 256.255 516.95Z" fill="#2D6076"/>
<path d="M229.825 462.639L246.83 496.741C247.829 498.739 247.118 501.224 245.246 502.293L244.23 502.875C242.358 503.944 240.038 503.188 239.039 501.189L222.035 467.087C221.035 465.089 221.747 462.604 223.618 461.535L224.634 460.953C226.506 459.884 228.826 460.64 229.825 462.639Z" fill="#2D6076"/>
<path d="M27.0189 815.894L31.7527 805.902C33.6411 801.914 36.9014 799.247 40.3818 798.378C41.0762 798.204 41.669 797.718 41.9908 797.04L43.7691 793.295C44.6244 791.497 43.3034 789.412 41.4234 789.551C35.2416 790.02 29.4323 793.86 26.4176 800.211L19.5668 814.66C16.5521 821.012 17.0941 828.284 20.3967 833.888C21.4044 835.591 23.7586 835.495 24.6139 833.697L26.3922 829.952C26.714 829.274 26.7394 828.475 26.46 827.78C25.0543 824.261 25.1389 819.882 27.0274 815.894H27.0189ZM51.4922 816.58L46.7584 826.572C44.87 830.56 41.6097 833.228 38.1208 834.096C37.4264 834.27 36.8421 834.757 36.5203 835.434L34.742 839.179C33.8867 840.978 35.2077 843.063 37.0877 842.924C43.2695 842.455 49.0787 838.614 52.0934 832.263L58.9443 817.814C61.959 811.463 61.417 804.191 58.1144 798.587C57.1066 796.884 54.7525 796.979 53.8972 798.778L52.1188 802.522C51.797 803.2 51.7716 803.999 52.0596 804.703C53.4653 808.213 53.3806 812.601 51.4922 816.589V816.58Z" fill="#2D6076"/>
<path d="M52.2374 763.668L56.9712 753.677C58.8596 749.689 62.1199 747.021 65.6003 746.152C66.2947 745.979 66.8875 745.492 67.2093 744.814L68.9876 741.07C69.8429 739.271 68.5219 737.186 66.6419 737.325C60.4601 737.794 54.6508 741.634 51.6361 747.986L44.7853 762.435C41.7706 768.786 42.3126 776.058 45.6152 781.662C46.6229 783.365 48.9771 783.27 49.8324 781.471L51.6107 777.726C51.9325 777.049 51.9579 776.249 51.6785 775.554C50.2728 772.035 50.3574 767.656 52.2459 763.668H52.2374ZM76.7107 764.355L71.9769 774.347C70.0885 778.335 66.8282 781.002 63.3393 781.871C62.6449 782.045 62.0606 782.531 61.7388 783.209L59.9605 786.954C59.1052 788.752 60.4262 790.837 62.3062 790.698C68.488 790.229 74.2972 786.389 77.3119 780.037L84.1628 765.589C87.1775 759.237 86.6355 751.965 83.3329 746.361C82.3251 744.658 79.971 744.754 79.1157 746.552L77.3373 750.297C77.0155 750.975 76.9901 751.774 77.2781 752.478C78.6838 755.988 78.5991 760.375 76.7107 764.363V764.355Z" fill="#2D6076"/>
<path d="M26.858 854.94C26.7987 855.07 26.7987 855.079 26.8157 855.096C29.5763 858.832 29.8304 863.29 27.4423 868.32L22.7086 878.312C19.5584 884.959 12.5805 887.956 7.13542 885.011C1.69033 882.065 -0.181161 874.28 2.96903 867.634L7.7028 857.642C9.98923 852.829 12.6737 849.623 16.9417 849.518C16.9586 849.518 16.9671 849.518 16.9755 849.501C17.0772 849.284 17.9833 847.372 18.8894 845.461C19.8886 843.358 18.4067 840.856 16.2049 840.96C9.85374 841.273 5.44177 845.452 2.35932 851.951L-4.49998 866.409C-9.14906 876.209 -5.3214 888.225 4.06144 892.891C13.0463 897.366 23.7502 893.004 28.2383 883.542L34.7674 870.249C37.8837 863.681 37.5365 856.643 33.9206 850.961C32.5826 848.858 29.5848 849.127 28.5093 851.404L26.8411 854.923L26.858 854.94Z" fill="#2D6076"/>
<path d="M38.451 828.006L22.0819 862.526C21.125 864.55 18.8131 865.358 16.9247 864.341L15.9001 863.785C14.0116 862.76 13.258 860.293 14.2149 858.268L30.584 823.749C31.5409 821.725 33.8528 820.917 35.7412 821.933L36.7659 822.489C38.6543 823.514 39.408 825.982 38.451 828.006Z" fill="#2D6076"/>
<path d="M62.7718 776.701L46.4027 811.22C45.4458 813.244 43.1339 814.052 41.2455 813.036L40.2209 812.48C38.3324 811.455 37.5788 808.987 38.5357 806.963L54.9048 772.443C55.8617 770.419 58.1736 769.611 60.062 770.627L61.0867 771.183C62.9751 772.209 63.7288 774.676 62.7718 776.701Z" fill="#2D6076"/>
<path d="M89.2098 722.302L72.8407 756.822C71.8838 758.846 69.5719 759.654 67.6835 758.637L66.6588 758.081C64.7704 757.056 64.0167 754.589 64.9737 752.564L81.3428 718.045C82.2997 716.02 84.6116 715.212 86.5 716.229L87.5246 716.785C89.4131 717.81 90.1667 720.278 89.2098 722.302Z" fill="#2D6076"/>
<path d="M76.8377 712.372L81.5715 702.38C83.4599 698.392 86.7202 695.724 90.2007 694.856C90.8951 694.682 91.4878 694.195 91.8096 693.518L93.588 689.773C94.4433 687.974 93.1222 685.889 91.2423 686.028C85.0604 686.497 79.2512 690.338 76.2365 696.689L69.3857 711.138C66.371 717.489 66.9129 724.761 70.2156 730.365C71.2233 732.068 73.5775 731.973 74.4328 730.174L76.2111 726.429C76.5329 725.752 76.5583 724.952 76.2788 724.257C74.8731 720.739 74.9578 716.36 76.8462 712.372H76.8377ZM101.311 713.058L96.5773 723.05C94.6888 727.038 91.4286 729.705 87.9396 730.574C87.2452 730.748 86.6609 731.234 86.3391 731.912L84.5608 735.657C83.7055 737.455 85.0266 739.54 86.9065 739.401C93.0883 738.932 98.8976 735.092 101.912 728.741L108.763 714.292C111.778 707.94 111.236 700.668 107.933 695.064C106.925 693.361 104.571 693.457 103.716 695.255L101.938 699C101.616 699.678 101.59 700.477 101.878 701.181C103.284 704.691 103.199 709.079 101.311 713.067V713.058Z" fill="#2D6076"/>
<path d="M102.056 660.145L106.79 650.153C108.678 646.165 111.939 643.498 115.419 642.629C116.114 642.455 116.706 641.969 117.028 641.291L118.806 637.546C119.662 635.748 118.341 633.663 116.461 633.802C110.279 634.271 104.47 638.111 101.455 644.462L94.6042 658.911C91.5895 665.263 92.1314 672.535 95.4341 678.139C96.4418 679.842 98.796 679.746 99.6513 677.948L101.43 674.203C101.751 673.525 101.777 672.726 101.497 672.031C100.092 668.512 100.176 664.133 102.065 660.145H102.056ZM126.53 660.831L121.796 670.823C119.907 674.811 116.647 677.479 113.158 678.347C112.464 678.521 111.879 679.008 111.558 679.685L109.779 683.43C108.924 685.229 110.245 687.314 112.125 687.175C118.307 686.706 124.116 682.865 127.131 676.514L133.982 662.065C136.996 655.714 136.454 648.442 133.152 642.838C132.144 641.135 129.79 641.23 128.935 643.029L127.156 646.773C126.834 647.451 126.809 648.25 127.097 648.954C128.503 652.464 128.418 656.852 126.53 660.84V660.831Z" fill="#2D6076"/>
<path d="M112.591 673.186L96.2215 707.705C95.2646 709.73 92.9528 710.538 91.0644 709.521L90.0397 708.965C88.1513 707.94 87.3976 705.472 88.3545 703.448L104.724 668.929C105.681 666.904 107.992 666.096 109.881 667.113L110.906 667.669C112.794 668.694 113.548 671.162 112.591 673.186Z" fill="#2D6076"/>
<path d="M139.029 618.779L122.66 653.298C121.703 655.322 119.391 656.131 117.502 655.114L116.478 654.558C114.589 653.533 113.836 651.065 114.793 649.041L131.162 614.521C132.119 612.497 134.43 611.689 136.319 612.706L137.343 613.262C139.232 614.287 139.986 616.754 139.029 618.779Z" fill="#2D6076"/>
<path d="M125.302 611.593L130.035 601.601C131.924 597.613 135.184 594.946 138.665 594.077C139.359 593.904 139.952 593.417 140.273 592.739L142.052 588.994C142.907 587.196 141.586 585.111 139.706 585.25C133.524 585.719 127.715 589.559 124.7 595.911L117.85 610.359C114.835 616.711 115.377 623.983 118.679 629.587C119.687 631.29 122.041 631.194 122.897 629.396L124.675 625.651C124.997 624.973 125.022 624.174 124.743 623.479C123.337 619.96 123.422 615.581 125.31 611.593H125.302ZM149.775 612.28L145.041 622.271C143.153 626.259 139.892 628.927 136.403 629.796C135.709 629.969 135.125 630.456 134.803 631.134L133.025 634.878C132.169 636.677 133.49 638.762 135.37 638.623C141.552 638.154 147.361 634.314 150.376 627.962L157.227 613.513C160.242 607.162 159.7 599.89 156.397 594.286C155.389 592.583 153.035 592.678 152.18 594.477L150.402 598.222C150.08 598.899 150.054 599.699 150.342 600.402C151.748 603.913 151.663 608.3 149.775 612.288V612.28Z" fill="#2D6076"/>
<path d="M162.274 570.228L145.905 604.747C144.948 606.772 142.636 607.58 140.748 606.563L139.723 606.007C137.835 604.982 137.081 602.514 138.038 600.49L154.407 565.971C155.364 563.946 157.676 563.138 159.564 564.155L160.589 564.711C162.477 565.736 163.231 568.204 162.274 570.228Z" fill="#2D6076"/>
<path d="M149.902 560.297L154.636 550.306C156.524 546.318 159.784 543.65 163.265 542.781C163.959 542.608 164.552 542.121 164.874 541.443L166.652 537.699C167.507 535.9 166.186 533.815 164.306 533.954C158.125 534.423 152.315 538.263 149.301 544.615L142.45 559.064C139.435 565.415 139.977 572.687 143.28 578.291C144.287 579.994 146.642 579.899 147.497 578.1L149.275 574.355C149.597 573.678 149.622 572.878 149.343 572.183C147.937 568.664 148.022 564.285 149.91 560.297H149.902ZM174.375 560.984L169.641 570.975C167.753 574.963 164.493 577.631 161.004 578.5C160.309 578.673 159.725 579.16 159.403 579.838L157.625 583.582C156.77 585.381 158.091 587.466 159.971 587.327C166.153 586.858 171.962 583.018 174.977 576.666L181.827 562.217C184.842 555.866 184.3 548.594 180.997 542.99C179.99 541.287 177.636 541.383 176.78 543.181L175.002 546.926C174.68 547.603 174.655 548.403 174.943 549.107C176.348 552.617 176.264 557.004 174.375 560.992V560.984Z" fill="#2D6076"/>
<path d="M175.12 508.071L179.854 498.079C181.743 494.091 185.003 491.424 188.483 490.555C189.178 490.381 189.771 489.894 190.092 489.217L191.871 485.472C192.726 483.674 191.405 481.588 189.525 481.727C183.343 482.196 177.534 486.037 174.519 492.388L167.668 506.837C164.654 513.188 165.196 520.461 168.498 526.065C169.506 527.768 171.86 527.672 172.715 525.873L174.494 522.129C174.816 521.451 174.841 520.652 174.562 519.957C173.156 516.438 173.241 512.059 175.129 508.071H175.12ZM199.594 508.757L194.86 518.749C192.972 522.737 189.711 525.404 186.222 526.273C185.528 526.447 184.944 526.933 184.622 527.611L182.844 531.356C181.988 533.154 183.309 535.24 185.189 535.101C191.371 534.631 197.18 530.791 200.195 524.44L207.046 509.991C210.061 503.64 209.519 496.367 206.216 490.763C205.208 489.06 202.854 489.156 201.999 490.954L200.22 494.699C199.899 495.377 199.873 496.176 200.161 496.88C201.567 500.39 201.482 504.778 199.594 508.766V508.757Z" fill="#2D6076"/>
<path d="M185.655 521.103L169.286 555.622C168.329 557.647 166.017 558.455 164.129 557.438L163.104 556.882C161.215 555.857 160.462 553.389 161.419 551.365L177.788 516.846C178.745 514.821 181.057 514.013 182.945 515.03L183.97 515.586C185.858 516.611 186.612 519.079 185.655 521.103Z" fill="#2D6076"/>
<path d="M212.093 466.705L195.724 501.224C194.767 503.248 192.455 504.056 190.567 503.04L189.542 502.484C187.653 501.458 186.9 498.991 187.857 496.967L204.226 462.447C205.183 460.423 207.495 459.615 209.383 460.631L210.408 461.187C212.296 462.213 213.05 464.68 212.093 466.705Z" fill="#2D6076"/>
<path d="M212.423 465.115C212.423 464.976 212.423 464.958 212.398 464.949C208.375 462.908 206.301 459.033 206.36 453.394L206.47 442.203C206.546 434.757 211.559 428.771 217.665 428.823C223.779 428.884 228.674 434.974 228.598 442.412L228.487 453.602C228.437 458.998 227.344 463.142 223.559 465.254C223.542 465.254 223.534 465.271 223.534 465.288C223.534 465.532 223.508 467.669 223.491 469.815C223.466 472.17 225.828 473.716 227.768 472.569C233.34 469.276 235.567 463.455 235.635 456.165L235.796 439.961C235.906 428.979 227.505 420.03 217.14 420.291C207.232 420.543 199.424 429.509 199.314 440.118L198.959 455.123C198.882 462.482 202.109 468.625 207.698 471.996C209.773 473.247 212.347 471.579 212.372 469.033L212.415 465.088L212.423 465.115Z" fill="#2D6076"/>
<path d="M223.051 430.96C223.051 431.099 223.051 431.116 223.076 431.125C227.099 433.167 229.173 437.042 229.114 442.68L229.004 453.871C228.928 461.317 223.915 467.304 217.809 467.251C211.695 467.191 206.8 461.1 206.876 453.663L206.987 442.472C207.037 437.076 208.13 432.932 211.915 430.821C211.932 430.821 211.94 430.803 211.94 430.786C211.94 430.543 211.966 428.405 211.983 426.259C212.008 423.905 209.646 422.358 207.706 423.505C202.134 426.798 199.907 432.619 199.839 439.909L199.678 456.113C199.568 467.095 207.969 476.044 218.334 475.784C228.242 475.532 236.05 466.565 236.16 455.956L236.515 440.951C236.592 433.592 233.365 427.45 227.776 424.078C225.701 422.827 223.127 424.496 223.102 427.041L223.059 430.986L223.051 430.96Z" fill="#2D6076"/>
</svg>
