<?xml version="1.0" encoding="UTF-8"?><svg id="Layer_7" xmlns="http://www.w3.org/2000/svg" viewBox="0 0 696.18 1185"><defs><style>.cls-1{fill:#2d6076;}</style></defs><path class="cls-1" d="m348.81,634.2c0-.16-.01-.17-.03-.18-4.8-2.16-7.33-6.39-7.39-12.62l-.12-12.36c-.08-8.22,5.7-14.95,12.91-15.02,7.22-.07,13.14,6.54,13.22,14.76l.12,12.36c.06,5.96-1.13,10.55-5.55,12.97-.02,0-.03.02-.03.04,0,.27.03,2.63.05,5,.03,2.6,2.85,4.25,5.11,2.95,6.5-3.76,8.99-10.24,8.91-18.29l-.18-17.89c-.12-12.13-10.25-21.81-22.48-21.29-11.7.5-20.7,10.58-20.59,22.29l-.07,16.57c.08,8.13,4.03,14.84,10.71,18.43,2.48,1.33,5.48-.56,5.45-3.38l-.04-4.35Z"/><path class="cls-1" d="m570.68,203.66l-5.36,11.14c-2.14,4.44-5.93,7.47-10.02,8.5-.82.21-1.5.76-1.86,1.52l-2.01,4.18c-.97,2.01.64,4.28,2.86,4.08,7.29-.66,14.06-5.03,17.47-12.11l7.76-16.11c3.41-7.08,2.6-15.1-1.42-21.21-1.23-1.86-4-1.7-4.97.31l-2.01,4.18c-.36.76-.37,1.64-.03,2.4,1.74,3.85,1.74,8.69-.4,13.13Zm-28.91-.2l5.36-11.14c2.14-4.44,5.93-7.46,10.02-8.5.82-.21,1.5-.76,1.86-1.52l2.01-4.18c.97-2.01-.64-4.28-2.86-4.08-7.29.66-14.06,5.03-17.47,12.11l-7.76,16.11c-3.41,7.08-2.6,15.1,1.42,21.21,1.23,1.86,4,1.7,4.97-.31l2.01-4.18c.37-.76.37-1.64.02-2.4-1.74-3.85-1.74-8.69.4-13.13Z"/><path class="cls-1" d="m542.11,261.89l-5.36,11.14c-2.14,4.44-5.93,7.47-10.02,8.5-.82.21-1.5.76-1.86,1.52l-2.01,4.18c-.97,2.01.64,4.28,2.86,4.08,7.29-.66,14.06-5.03,17.47-12.11l7.76-16.11c3.41-7.08,2.6-15.1-1.42-21.21-1.23-1.86-4-1.7-4.97.31l-2.01,4.18c-.36.76-.37,1.64-.03,2.4,1.74,3.85,1.74,8.69-.4,13.13Zm-28.91-.2l5.36-11.14c2.14-4.44,5.93-7.46,10.02-8.5.82-.21,1.5-.76,1.86-1.52l2.01-4.18c.97-2.01-.64-4.28-2.86-4.08-7.29.66-14.06,5.03-17.47,12.11l-7.76,16.11c-3.41,7.08-2.6,15.1,1.42,21.21,1.23,1.86,4,1.7,4.97-.31l2.01-4.18c.37-.76.37-1.64.02-2.4-1.74-3.85-1.74-8.69.4-13.13Z"/><path class="cls-1" d="m569.97,160.55c.07-.14.06-.16.05-.17-3.34-4.06-3.74-8.98-1.04-14.59l5.36-11.14c3.57-7.41,11.73-10.88,18.23-7.75,6.51,3.13,8.88,11.68,5.32,19.09l-5.36,11.14c-2.58,5.37-5.68,8.96-10.72,9.18-.02,0-.03,0-.04.02-.12.24-1.14,2.37-2.17,4.51-1.13,2.35.68,5.08,3.27,4.9,7.49-.49,12.6-5.2,16.09-12.45l7.76-16.12c5.26-10.93.47-24.1-10.72-29.05-10.71-4.73-23.25.32-28.33,10.87l-7.41,14.83c-3.53,7.32-2.96,15.09,1.44,21.27,1.63,2.29,5.16,1.92,6.38-.61l1.89-3.92Z"/><rect class="cls-1" x="544.98" y="168.36" width="51.77" height="10.42" rx="4.53" ry="4.53" transform="translate(974.93 -265.46) rotate(115.71)"/><rect class="cls-1" x="517.45" y="225.55" width="51.77" height="10.42" rx="4.53" ry="4.53" transform="translate(986.97 -158.66) rotate(115.71)"/><rect class="cls-1" x="487.49" y="286.2" width="51.77" height="10.42" rx="4.53" ry="4.53" transform="translate(998.67 -44.69) rotate(115.71)"/><path class="cls-1" d="m514.25,319.07l-5.36,11.14c-2.14,4.44-5.93,7.47-10.02,8.5-.82.21-1.5.76-1.86,1.52l-2.01,4.18c-.97,2.01.64,4.28,2.86,4.08,7.29-.66,14.06-5.03,17.47-12.11l7.76-16.11c3.41-7.08,2.6-15.1-1.42-21.21-1.23-1.86-4-1.7-4.97.31l-2.01,4.18c-.36.76-.37,1.64-.03,2.4,1.74,3.85,1.74,8.69-.4,13.13Zm-28.91-.2l5.36-11.14c2.14-4.44,5.93-7.46,10.02-8.5.82-.21,1.5-.76,1.86-1.52l2.01-4.18c.97-2.01-.64-4.28-2.86-4.08-7.29.66-14.06,5.03-17.47,12.11l-7.76,16.11c-3.41,7.08-2.6,15.1,1.42,21.21,1.23,1.86,4,1.7,4.97-.31l2.01-4.18c.37-.76.37-1.64.02-2.4-1.74-3.85-1.74-8.69.4-13.13Z"/><path class="cls-1" d="m485.68,377.3l-5.36,11.14c-2.14,4.44-5.93,7.47-10.02,8.5-.82.21-1.5.76-1.86,1.52l-2.01,4.18c-.97,2.01.64,4.28,2.86,4.08,7.29-.66,14.06-5.03,17.47-12.11l7.76-16.11c3.41-7.08,2.6-15.1-1.42-21.21-1.23-1.86-4-1.7-4.97.31l-2.01,4.18c-.36.76-.37,1.64-.03,2.4,1.74,3.85,1.74,8.69-.4,13.13Zm-28.91-.2l5.36-11.14c2.14-4.44,5.93-7.46,10.02-8.5.82-.21,1.5-.76,1.86-1.52l2.01-4.18c.97-2.01-.64-4.28-2.86-4.08-7.29.66-14.06,5.03-17.47,12.11l-7.76,16.11c-3.41,7.08-2.6,15.1,1.42,21.21,1.23,1.86,4,1.7,4.97-.31l2.01-4.18c.37-.76.37-1.64.02-2.4-1.74-3.85-1.74-8.69.4-13.13Z"/><rect class="cls-1" x="461.01" y="340.96" width="51.77" height="10.42" rx="4.53" ry="4.53" transform="translate(1010.04 57.67) rotate(115.71)"/><rect class="cls-1" x="431.06" y="401.61" width="51.77" height="10.42" rx="4.53" ry="4.53" transform="translate(1021.73 171.64) rotate(115.71)"/><path class="cls-1" d="m459.36,431.43l-5.36,11.14c-2.14,4.44-5.93,7.47-10.02,8.5-.82.21-1.5.76-1.86,1.52l-2.01,4.18c-.97,2.01.64,4.28,2.86,4.08,7.29-.66,14.06-5.03,17.47-12.11l7.76-16.11c3.41-7.08,2.6-15.1-1.42-21.21-1.23-1.86-4-1.7-4.97.31l-2.01,4.18c-.36.76-.37,1.64-.03,2.4,1.74,3.85,1.74,8.69-.4,13.13Zm-28.91-.2l5.36-11.14c2.14-4.44,5.93-7.46,10.02-8.5.82-.21,1.5-.76,1.86-1.52l2.01-4.18c.97-2.01-.64-4.28-2.86-4.08-7.29.66-14.06,5.03-17.47,12.11l-7.76,16.11c-3.41,7.08-2.6,15.1,1.42,21.21,1.23,1.86,4,1.7,4.97-.31l2.01-4.18c.37-.76.37-1.64.02-2.4-1.74-3.85-1.74-8.69.4-13.13Z"/><rect class="cls-1" x="404.73" y="455.75" width="51.77" height="10.42" rx="4.53" ry="4.53" transform="translate(1032.76 272.97) rotate(115.71)"/><path class="cls-1" d="m431.5,488.61l-5.36,11.14c-2.14,4.44-5.93,7.47-10.02,8.5-.82.21-1.5.76-1.86,1.52l-2.01,4.18c-.97,2.01.64,4.28,2.86,4.08,7.29-.66,14.06-5.03,17.47-12.11l7.76-16.11c3.41-7.08,2.6-15.1-1.42-21.21-1.23-1.86-4-1.7-4.97.31l-2.01,4.18c-.36.76-.37,1.64-.03,2.4,1.74,3.85,1.74,8.69-.4,13.13Zm-28.91-.2l5.36-11.14c2.14-4.44,5.93-7.46,10.02-8.5.82-.21,1.5-.76,1.86-1.52l2.01-4.18c.97-2.01-.64-4.28-2.86-4.08-7.29.66-14.06,5.03-17.47,12.11l-7.76,16.11c-3.41,7.08-2.6,15.1,1.42,21.21,1.23,1.86,4,1.7,4.97-.31l2.01-4.18c.37-.76.37-1.64.02-2.4-1.74-3.85-1.74-8.69.4-13.13Z"/><path class="cls-1" d="m402.92,546.84l-5.36,11.14c-2.14,4.44-5.93,7.47-10.02,8.5-.82.21-1.5.76-1.86,1.52l-2.01,4.18c-.97,2.01.64,4.28,2.86,4.08,7.29-.66,14.06-5.03,17.47-12.11l7.76-16.11c3.41-7.08,2.6-15.1-1.42-21.21-1.23-1.86-4-1.7-4.97.31l-2.01,4.18c-.36.76-.37,1.64-.03,2.4,1.74,3.85,1.74,8.69-.4,13.13Zm-28.91-.2l5.36-11.14c2.14-4.44,5.93-7.46,10.02-8.5.82-.21,1.5-.76,1.86-1.52l2.01-4.18c.97-2.01-.64-4.28-2.86-4.08-7.29.66-14.06,5.03-17.47,12.11l-7.76,16.11c-3.41,7.08-2.6,15.1,1.42,21.21,1.23,1.86,4,1.7,4.97-.31l2.01-4.18c.37-.76.37-1.64.02-2.4-1.74-3.85-1.74-8.69.4-13.13Z"/><rect class="cls-1" x="378.26" y="510.5" width="51.77" height="10.42" rx="4.53" ry="4.53" transform="translate(1044.13 375.33) rotate(115.71)"/><rect class="cls-1" x="348.3" y="571.16" width="51.77" height="10.42" rx="4.53" ry="4.53" transform="translate(1055.82 489.3) rotate(115.71)"/><path class="cls-1" d="m138.01,1025.65l5.36-11.14c2.14-4.44,5.93-7.47,10.02-8.5.82-.21,1.5-.76,1.86-1.52l2.01-4.18c.97-2.01-.64-4.28-2.86-4.08-7.29.66-14.06,5.03-17.47,12.11l-7.76,16.11c-3.41,7.08-2.6,15.1,1.42,21.21,1.23,1.86,4,1.7,4.97-.31l2.01-4.18c.36-.76.37-1.64.03-2.4-1.74-3.85-1.74-8.69.4-13.13Zm28.91.2l-5.36,11.14c-2.14,4.44-5.93,7.46-10.02,8.5-.82.21-1.5.76-1.86,1.52l-2.01,4.18c-.97,2.01.64,4.28,2.86,4.08,7.29-.66,14.06-5.03,17.47-12.11l7.76-16.11c3.41-7.08,2.6-15.1-1.42-21.21-1.23-1.86-4-1.7-4.97.31l-2.01,4.18c-.37.76-.37,1.64-.02,2.4,1.74,3.85,1.74,8.69-.4,13.13Z"/><path class="cls-1" d="m166.58,967.42l5.36-11.14c2.14-4.44,5.93-7.47,10.02-8.5.82-.21,1.5-.76,1.86-1.52l2.01-4.18c.97-2.01-.64-4.28-2.86-4.08-7.29.66-14.06,5.03-17.47,12.11l-7.76,16.11c-3.41,7.08-2.6,15.1,1.42,21.21,1.23,1.86,4,1.7,4.97-.31l2.01-4.18c.36-.76.37-1.64.03-2.4-1.74-3.85-1.74-8.69.4-13.13Zm28.91.2l-5.36,11.14c-2.14,4.44-5.93,7.46-10.02,8.5-.82.21-1.5.76-1.86,1.52l-2.01,4.18c-.97,2.01.64,4.28,2.86,4.08,7.29-.66,14.06-5.03,17.47-12.11l7.76-16.11c3.41-7.08,2.6-15.1-1.42-21.21-1.23-1.86-4-1.7-4.97.31l-2.01,4.18c-.37.76-.37,1.64-.02,2.4,1.74,3.85,1.74,8.69-.4,13.13Z"/><path class="cls-1" d="m138.72,1068.75c-.07.14-.06.16-.05.17,3.34,4.06,3.74,8.98,1.04,14.59l-5.36,11.14c-3.57,7.41-11.73,10.88-18.23,7.75-6.51-3.13-8.88-11.68-5.32-19.09l5.36-11.14c2.58-5.37,5.68-8.96,10.72-9.18.02,0,.03,0,.04-.02.12-.24,1.14-2.37,2.17-4.51,1.13-2.35-.68-5.08-3.27-4.9-7.49.49-12.6,5.2-16.09,12.45l-7.76,16.12c-5.26,10.93-.47,24.1,10.72,29.05,10.71,4.73,23.25-.32,28.33-10.87l7.41-14.83c3.53-7.32,2.96-15.09-1.44-21.27-1.63-2.29-5.16-1.92-6.38.61l-1.89,3.92Z"/><rect class="cls-1" x="111.94" y="1050.52" width="51.77" height="10.42" rx="4.53" ry="4.53" transform="translate(-873.16 721.86) rotate(-64.29)"/><rect class="cls-1" x="139.48" y="993.34" width="51.77" height="10.42" rx="4.53" ry="4.53" transform="translate(-806.05 714.3) rotate(-64.29)"/><rect class="cls-1" x="169.44" y="932.68" width="51.77" height="10.42" rx="4.53" ry="4.53" transform="translate(-734.44 706.95) rotate(-64.29)"/><path class="cls-1" d="m194.44,910.24l5.36-11.14c2.14-4.44,5.93-7.47,10.02-8.5.82-.21,1.5-.76,1.86-1.52l2.01-4.18c.97-2.01-.64-4.28-2.86-4.08-7.29.66-14.06,5.03-17.47,12.11l-7.76,16.11c-3.41,7.08-2.6,15.1,1.42,21.21,1.23,1.86,4,1.7,4.97-.31l2.01-4.18c.36-.76.37-1.64.03-2.4-1.74-3.85-1.74-8.69.4-13.13Zm28.91.2l-5.36,11.14c-2.14,4.44-5.93,7.46-10.02,8.5-.82.21-1.5.76-1.86,1.52l-2.01,4.18c-.97,2.01.64,4.28,2.86,4.08,7.29-.66,14.06-5.03,17.47-12.11l7.76-16.11c3.41-7.08,2.6-15.1-1.42-21.21-1.23-1.86-4-1.7-4.97.31l-2.01,4.18c-.37.76-.37,1.64-.02,2.4,1.74,3.85,1.74,8.69-.4,13.13Z"/><path class="cls-1" d="m223.01,852.01l5.36-11.14c2.14-4.44,5.93-7.47,10.02-8.5.82-.21,1.5-.76,1.86-1.52l2.01-4.18c.97-2.01-.64-4.28-2.86-4.08-7.29.66-14.06,5.03-17.47,12.11l-7.76,16.11c-3.41,7.08-2.6,15.1,1.42,21.21,1.23,1.86,4,1.7,4.97-.31l2.01-4.18c.36-.76.37-1.64.03-2.4-1.74-3.85-1.74-8.69.4-13.13Zm28.91.2l-5.36,11.14c-2.14,4.44-5.93,7.46-10.02,8.5-.82.21-1.5.76-1.86,1.52l-2.01,4.18c-.97,2.01.64,4.28,2.86,4.08,7.29-.66,14.06-5.03,17.47-12.11l7.76-16.11c3.41-7.08,2.6-15.1-1.42-21.21-1.23-1.86-4-1.7-4.97.31l-2.01,4.18c-.37.76-.37,1.64-.02,2.4,1.74,3.85,1.74,8.69-.4,13.13Z"/><rect class="cls-1" x="195.91" y="877.93" width="51.77" height="10.42" rx="4.53" ry="4.53" transform="translate(-670.12 699.8) rotate(-64.29)"/><rect class="cls-1" x="225.87" y="817.27" width="51.77" height="10.42" rx="4.53" ry="4.53" transform="translate(-598.51 692.46) rotate(-64.29)"/><path class="cls-1" d="m249.34,797.88l5.36-11.14c2.14-4.44,5.93-7.47,10.02-8.5.82-.21,1.5-.76,1.86-1.52l2.01-4.18c.97-2.01-.64-4.28-2.86-4.08-7.29.66-14.06,5.03-17.47,12.11l-7.76,16.11c-3.41,7.08-2.6,15.1,1.42,21.21,1.23,1.86,4,1.7,4.97-.31l2.01-4.18c.36-.76.37-1.64.03-2.4-1.74-3.85-1.74-8.69.4-13.13Zm28.91.2l-5.36,11.14c-2.14,4.44-5.93,7.46-10.02,8.5-.82.21-1.5.76-1.86,1.52l-2.01,4.18c-.97,2.01.64,4.28,2.86,4.08,7.29-.66,14.06-5.03,17.47-12.11l7.76-16.11c3.41-7.08,2.6-15.1-1.42-21.21-1.23-1.86-4-1.7-4.97.31l-2.01,4.18c-.37.76-.37,1.64-.02,2.4,1.74,3.85,1.74,8.69-.4,13.13Z"/><rect class="cls-1" x="252.19" y="763.14" width="51.77" height="10.42" rx="4.53" ry="4.53" transform="translate(-534.84 685.53) rotate(-64.29)"/><path class="cls-1" d="m277.2,740.69l5.36-11.14c2.14-4.44,5.93-7.47,10.02-8.5.82-.21,1.5-.76,1.86-1.52l2.01-4.18c.97-2.01-.64-4.28-2.86-4.08-7.29.66-14.06,5.03-17.47,12.11l-7.76,16.11c-3.41,7.08-2.6,15.1,1.42,21.21,1.23,1.86,4,1.7,4.97-.31l2.01-4.18c.36-.76.37-1.64.03-2.4-1.74-3.85-1.74-8.69.4-13.13Zm28.91.2l-5.36,11.14c-2.14,4.44-5.93,7.46-10.02,8.5-.82.21-1.5.76-1.86,1.52l-2.01,4.18c-.97,2.01.64,4.28,2.86,4.08,7.29-.66,14.06-5.03,17.47-12.11l7.76-16.11c3.41-7.08,2.6-15.1-1.42-21.21-1.23-1.86-4-1.7-4.97.31l-2.01,4.18c-.37.76-.37,1.64-.02,2.4,1.74,3.85,1.74,8.69-.4,13.13Z"/><path class="cls-1" d="m305.77,682.47l5.36-11.14c2.14-4.44,5.93-7.47,10.02-8.5.82-.21,1.5-.76,1.86-1.52l2.01-4.18c.97-2.01-.64-4.28-2.86-4.08-7.29.66-14.06,5.03-17.47,12.11l-7.76,16.11c-3.41,7.08-2.6,15.1,1.42,21.21,1.23,1.86,4,1.7,4.97-.31l2.01-4.18c.36-.76.37-1.64.03-2.4-1.74-3.85-1.74-8.69.4-13.13Zm28.91.2l-5.36,11.14c-2.14,4.44-5.93,7.46-10.02,8.5-.82.21-1.5.76-1.86,1.52l-2.01,4.18c-.97,2.01.64,4.28,2.86,4.08,7.29-.66,14.06-5.03,17.47-12.11l7.76-16.11c3.41-7.08,2.6-15.1-1.42-21.21-1.23-1.86-4-1.7-4.97.31l-2.01,4.18c-.37.76-.37,1.64-.02,2.4,1.74,3.85,1.74,8.69-.4,13.13Z"/><rect class="cls-1" x="278.67" y="708.39" width="51.77" height="10.42" rx="4.53" ry="4.53" transform="translate(-470.52 678.38) rotate(-64.29)"/><rect class="cls-1" x="308.62" y="647.73" width="51.77" height="10.42" rx="4.53" ry="4.53" transform="translate(-398.91 671.04) rotate(-64.29)"/><path class="cls-1" d="m360.58,596.26c0,.16.01.17.03.18,4.8,2.16,7.33,6.39,7.39,12.62l.12,12.36c.08,8.22-5.7,14.95-12.91,15.02-7.22.07-13.14-6.54-13.22-14.76l-.12-12.36c-.06-5.96,1.13-10.55,5.55-12.97.02,0,.03-.02.03-.04,0-.27-.03-2.63-.05-5-.03-2.6-2.85-4.25-5.11-2.95-6.5,3.76-8.99,10.24-8.91,18.29l.18,17.89c.12,12.13,10.25,21.81,22.48,21.29,11.7-.5,20.7-10.58,20.59-22.29l.07-16.57c-.08-8.13-4.03-14.84-10.71-18.43-2.48-1.33-5.48.56-5.45,3.38l.04,4.35Z"/></svg>