<svg id="Layer_1" data-name="Layer 1" xmlns="http://www.w3.org/2000/svg" viewBox="0 0 54.82 149.09"><defs><style>.cls-1{fill:#608e61;}.cls-2{fill:none;}.cls-2,.cls-4{stroke:#000;stroke-linecap:round;stroke-linejoin:round;stroke-width:2px;}.cls-3{fill:#d2d4d4;}.cls-4,.cls-5{fill:#f3f1dd;}</style></defs><path class="cls-1" d="M53.83,77.82v64.76a3.7,3.7,0,0,1-3.71,3.71A139.86,139.86,0,0,1,5,145.84c-2.24-.75-4-1.2-4-3.26V77.82c0-28.2,18.77-31.3,18.77-48.28V10.14H35.05v19.4C35.05,46.52,53.83,49.62,53.83,77.82Z"/><path class="cls-2" d="M35.05,29.54V10.14H19.77v19.4C19.77,46.52,1,49.63,1,77.82v63.85a4.16,4.16,0,0,0,1.17,3,8,8,0,0,0,4.1,1.88A144.21,144.21,0,0,0,48,146.6a8.6,8.6,0,0,0,4.64-1.94,4.09,4.09,0,0,0,1.17-3V77.82C53.82,49.63,35.05,46.52,35.05,29.54Z"/><path class="cls-1" d="M35.92,19.12h-17a1.79,1.79,0,0,1,0-3.57h17a1.79,1.79,0,0,1,0,3.57"/><path class="cls-2" d="M35.92,19.12h-17a1.79,1.79,0,0,1,0-3.57h17a1.79,1.79,0,0,1,0,3.57Z"/><path class="cls-3" d="M37.25,11.83H17.58V3.41a1.63,1.63,0,0,1,1.63-1.63h16.4a1.64,1.64,0,0,1,1.64,1.63Z"/><path class="cls-2" d="M37.25,11.83H17.58V3.41a1.63,1.63,0,0,1,1.63-1.63h16.4a1.64,1.64,0,0,1,1.64,1.63Z"/><rect class="cls-2" x="17.58" y="6.11" width="19.67" height="5.72"/><path class="cls-3" d="M7.15,74.27c.11-8.14,2.44-15.14,7.11-21,2.33-2.33,5.83-5.83,12.83-1.17-9,5.63-14.74,15.59-14.09,25.7,0,.38-3.41,0-5.74-.23A20.37,20.37,0,0,0,7.15,74.27Z"/><path class="cls-4" d="M53.51,133.67a166.35,166.35,0,0,1-52.51,0V80.84a208.77,208.77,0,0,0,52.51,0Z"/><path class="cls-5" d="M32.35,1H22.47V27.82h0v.73a1.29,1.29,0,0,0,.62.09,3.58,3.58,0,0,0,1.34-.34c.19-.1.37-.24.56-.36h.07a3.36,3.36,0,0,0,.71.27,3.76,3.76,0,0,0,.82,0h.27s.73.21,1.06.26a3.2,3.2,0,0,0,1.79-.18c.06,0,.09-.05.14-.08l.31.19,1.07.64a1.62,1.62,0,0,0,1.11.14V27.82h0Z"/><path class="cls-2" d="M32.35,1H22.47V27.82h0v.73a1.29,1.29,0,0,0,.62.09,3.58,3.58,0,0,0,1.34-.34c.19-.1.37-.24.56-.36h.07a3.36,3.36,0,0,0,.71.27,3.76,3.76,0,0,0,.82,0h.27s.73.21,1.06.26a3.2,3.2,0,0,0,1.79-.18c.06,0,.09-.05.14-.08l.31.19,1.07.64a1.62,1.62,0,0,0,1.11.14V27.82h0Z"/></svg>