<svg id="Layer_1" data-name="Layer 1" xmlns="http://www.w3.org/2000/svg" xmlns:xlink="http://www.w3.org/1999/xlink" viewBox="0 0 334.32 377.37"><defs><style>.cls-1{fill:none;}.cls-2{fill:#d1d3d3;}.cls-3{fill:#f3af49;}.cls-4{fill:#d2d4d4;}.cls-5{fill:#f3f1dd;}.cls-6{fill:#f2efde;}.cls-7{fill:#f7cc50;}.cls-8{fill:#f1b0b0;}.cls-9{fill:#262526;}.cls-10{opacity:0.7;}.cls-11{clip-path:url(#clip-path);}.cls-12{opacity:0;}.cls-13{clip-path:url(#clip-path-2);}.cls-14{fill:#ea3223;}</style><clipPath id="clip-path"><rect class="cls-1" x="169.72" y="207.18" width="13.14" height="30.91"/></clipPath><clipPath id="clip-path-2"><rect class="cls-1" x="173.4" y="238.46" width="2.79" height="1.75"/></clipPath></defs><path class="cls-2" d="M285.27,249.68c0-.47,0-.94-.08-1.42v0c0-.41-.07-.82-.12-1.22l-.09-.7c0-.15,0-.32-.07-.48a1.84,1.84,0,0,0-.53-1.17,1.59,1.59,0,0,0-.27-.18,1.19,1.19,0,0,0-.58-.1,1.15,1.15,0,0,0-1,.64,4.76,4.76,0,0,0-.08,1.92,12.57,12.57,0,0,1,.1,1.49,1.52,1.52,0,0,0-.89,1.18,17.18,17.18,0,0,1-2.59,3c-.75.79-1.48,1.58-2.22,2.39h0a1.07,1.07,0,0,1,.4,0l.14.05.14.08h0l0,0,.07.05,0,0a.9.9,0,0,1,.15.18l0,0a.16.16,0,0,1,0,.07l.09.18a1.55,1.55,0,0,1,0,.21c0,.22.1.44.13.67s.07.44.09.67a5.06,5.06,0,0,1,.05.68,24.57,24.57,0,0,1-.29,4.37c-.07.39-.14.87-.26,1.36,0,.16-.08.32-.13.48a3.25,3.25,0,0,1-.57,1.18l-.18.19,0,0a1.15,1.15,0,0,1-.67.28h-.27l-.23,0-.26-.08a2.21,2.21,0,0,1-.34-.18,2.15,2.15,0,0,1-.28-.23,4,4,0,0,1-.11.44c0,.1-.06.2-.1.3a1.43,1.43,0,0,1-.13.28,1,1,0,0,1-.16.24l0,0a.1.1,0,0,1,0,.06h0l0,0-.13.12c1.4-.47,2.8-.91,4.21-1.32h.05c.52-.16,1.05-.31,1.57-.45a4.51,4.51,0,0,0,.94-.38,2.21,2.21,0,0,0,.66.31,2.54,2.54,0,0,0,3.08-1.75,46.18,46.18,0,0,0,.6-8.71l0-.58c0-.1,0-.19,0-.29a.11.11,0,0,1,0,0c0-.11,0-.22,0-.34C285.29,252.08,285.31,250.88,285.27,249.68Z"/><path class="cls-3" d="M235.16,230.41c0,.05,0,.09,0,.13-1.56,1.23-1.38,3.36-1.51,5.14-.19.82-.1,1.69-.32,2.5a1,1,0,0,1,.06-.16,1.16,1.16,0,0,0,0,.93,1.14,1.14,0,0,0,.5.56L231,242.12l-.45.33-.44.34-.42.32-.41.32-.41.31-.4.31-.39.29-.38.3-.38.29-.36.28-.36.28-.36.28-.35.28-.35.28-.35.28-.34.26-.35.28-.36.28-.35.28-.35.28-.35.29-.34.28-.35.28-.34.28-.35.26-.34.26-.33.25-.33.23-.31.23-.31.21-.3.21-.29.18-.29.19-.28.17-.29.16-.28.17-.28.16-.28.15-.27.15-.27.15-.26.15-.26.15-.25.13-.25.13-.24.12-.24.11-.24.1-.24.08-.23.07-.22.06-.21,0-.21,0-.19,0h-.48l-.13,0-.13,0-.12,0-.11,0-.11,0-.09,0-.09-.05-.09,0-.08-.05-.08,0-.07-.05-.07-.05-.06,0-.05-.05-.05,0h0l0-.06,0-.05,0,0,0-.05,0,0,0-.05,0,0v-.68l0-.06,0-.05v-.06l0-.06,0-.06,0-.06,0-.06,0-.07,0-.06,0-.08,0-.07,0-.07,0-.08,0-.08,0-.08.05-.08,0-.08.05-.08,0-.08,0-.07.05-.08.05-.07.06-.08,0-.07.05-.07.06-.08,0-.07.06-.08.06-.08.06-.07.06-.08.06-.08.06-.08.07-.09.06-.08.06-.08.06-.08.07-.08.06-.08.07-.08.07-.08.07-.08.08-.08.08-.09.08-.08.08-.08.09-.08.08-.08.09-.08.09-.08.09-.08.09-.08.1-.09.09-.09.1-.09.11-.1.11-.1.11-.11.11-.1.11-.11h0L216,247l.12-.12h0l.12-.12.12-.13.13-.12.13-.12.13-.13.13-.13.15-.14.15-.14.16-.14.16-.15.18-.16.19-.16.2-.17.21-.18.22-.18.21-.17.22-.18.23-.18.23-.19.23-.18.22-.18.23-.19.21-.18.22-.19.21-.18.2-.18.2-.18.2-.18.2-.18.21-.18.2-.18.21-.18.2-.17.22-.17.22-.17.22-.17.23-.18.23-.17.22-.17.22-.17.22-.17.22-.17.22-.16.21-.17.21-.15.22-.16.22-.16.22-.17.23-.16.23-.17.22-.17.23-.17.23-.18.23-.19.24-.19.22-.2.23-.2.23-.2.22-.21.23-.2.23-.21.22-.21.23-.2.23-.2.23-.2.23-.21.23-.21.23-.2.23-.2.22-.21.22-.21.22-.21.22-.21.22-.21.21-.2.21-.2.22-.2.21-.19.21-.19.21-.18.2-.18.2-.17.2-.17.19-.17.18-.15.17-.16.17-.15.15-.14.16-.16.15-.15.14-.14h0l.14-.15.13-.13.12-.13Z"/><path class="cls-3" d="M266.91,94.35v.94l0,.19v.2l0,.2,0,.2,0,.22,0,.21,0,.21,0,.23,0,.22,0,.23,0,.22,0,.22,0,.22,0,.24,0,.24,0,.24,0,.25-.05.25,0,.25-.05.26-.05.27-.06.26-.06.27-.05.26-.06.27-.06.27-.06.27-.07.28-.07.28-.08.29-.08.28-.07.28-.08.29-.08.29-.08.28-.08.29-.08.3-.08.29-.09.3-.09.3-.1.29-.09.3-.09.29-.08.29-.09.3-.09.3-.09.3-.09.31-.09.31-.09.31-.08.31-.08.32-.08.32-.07.32-.08.33-.07.34-.08.33-.06.34-.07.34-.07.33-.06.33-.06.33-.06.33L263,113l-.05.31-.06.32-.05.3-.05.29,0,.29-.05.28-.05.27,0,.27,0,.27,0,.26,0,.25,0,.25,0,.23,0,.23,0,.22v1.84l0,.15v.14l0,.15,0,.14,0,.13,0,.12,0,.12,0,.12,0,.11,0,.1,0,.11.05.09.05.1,0,.1.06.09.05.09.06.09.06.08.06.08.05.07.06.07.06.06.05,0,.06.05,0,0,.06,0,.06.05.06,0,.06,0,.06,0,.07,0,.06,0h.9a19,19,0,0,0-1.49,2c-2,3.15-3.31,6.72-5.46,9.8-4.37,6.59-9.58,12.62-13.53,19.48-6.06,9.72-2.4,17.47.06,27.46,1,4.85-.5,9.86-2.73,14.16a1,1,0,0,0,.2,1.46l-.05,0-.37.19-.37.18-.35.2-.34.19-.33.19-.31.19-.3.18-.29.18-.29.19-.28.19-.28.2-.29.2-.28.22-.28.22-.3.24-.29.24-.31.26-.32.26-.33.27-.35.28-.36.28-.36.29-.36.29-.37.29-.38.3-.38.3-.38.3-.39.3-.4.31-.4.3-.41.31-.42.31-.42.31-.42.32-.42.32-.43.32-.43.33-.44.33-.43.33-.44.34-.43.33-.42.34-.41.34-.41.33-.39.33-.39.32-.37.31-.36.3-.33.29-.32.28-.3.26-.27.25-.27.24-.25.22-.24.22-.23.21-.22.2-.21.21-.2.2-.2.21-.19.21-.19.22-.19.23-.18.23-.19.24-.21.27-.23.28-.25.3-.26.31-.28.32-.3.33-.32.36-.35.36-.36.36-.36.37-.36.35-.34.34-.36.34-.35.33-.34.32-.3.29-.26.25-.17.16-.05,0-.22.23-.24.26-.27.27-.28.28h0l-.29.28-.29.29-.31.29-.32.29-.32.29-.32.29-.33.29-.34.29-.34.28-.35.28-.36.28-.36.28-.38.27-.38.28-.15.11h0l.43-1.5-10.26,7.87h0l-.15.08-.47.26-.48.26-.48.27-.48.26-.49.26-.5.27-.5.26-.5.25-.5.26-.5.24-.5.24-.5.23-.49.23-.49.21-.49.2-.49.2-.48.18-.49.18-.48.17-.47.16-.47.16-.47.15-.47.13-.47.14-.46.13-.46.12-.45.11-.45.11-.44.1-.43.11-.43.09-.42.08-.42.08-.4.07-.4.07-.38.07-.19,0h0l-7.67-21v0l0,0v0l0,0,0,0v0l0,0,0-.05,0,0,0-.05,0,0,0,0,0,0v0l0,0,0,0,0,0v0l0,0v0l0,0v0l0,0v-.06l0,0v0l0,0v0l0,0v0l0,0v0l0,0v0l0,0v-.06l0,0v0h0V214h0l0,0v0l0,0v0l0,0v0l0,0,0,0,0,0,0,0,0,0,0,0,0,0,0,0,0,0,0-.05,0,0,0-.05,0,0,0-.05,0-.06,0-.06,0-.06,0-.06,0-.06,0-.06,0-.06,0-.07,0-.07,0-.06,0-.08,0-.07,0-.09,0-.08,0-.09,0-.08,0-.09,0-.1,0-.1,0-.1,0-.09,0-.09,0-.1,0-.1,0-.1,0-.09,0-.09,0-.09,0-.1,0-.1,0-.1,0-.1,0-.1,0-.1,0-.11,0-.11,0-.1,0-.11,0-.1,0-.1,0-.1,0-.11,0-.1,0-.11,0-.11,0-.12,0-.12,0-.11,0-.13,0-.13,0-.12,0-.14,0-.14,0-.14,0-.14,0-.15,0-.15,0-.14,0-.14,0-.15,0-.15,0-.16v-1.57l0-.21,0-.23,0-.22,0-.22.06-.23.06-.24.07-.25.09-.24.1-.24.1-.25.13-.26.15-.27.17-.29.19-.31.21-.34.23-.36.27-.4.3-.43.34-.49.37-.53.39-.57.42-.6.4-.59.32-.46.12-.19h0l.1-.11.11-.12.11-.12.12-.12.12-.12.12-.12.13-.11.13-.12.13-.13.14-.12.14-.13.14-.14.14-.13.15-.14.14-.14.15-.13.13-.14.14-.12.14-.14.14-.13.14-.14.15-.14.15-.14.15-.14.14-.14.15-.14.15-.13.15-.12.15-.13.15-.12L180,193l.17-.12.17-.12.17-.12.17-.12.16-.1.15-.11.16-.1.16-.11.16-.11.16-.1.17-.11.16-.11.18-.11.18-.12.18-.12.18-.11.17-.11L183,191l.19-.11.19-.12.19-.12.2-.12.2-.12.19-.12.2-.12.2-.11.2-.11.2-.12.2-.11.21-.11.21-.11.2-.12.21-.11.2-.11.2-.11.2-.1.2-.11.21-.11.21-.1.2-.11.21-.1.21-.11.21-.1.21-.1.21-.1.21-.1.2-.1.22-.1.22-.1.21-.1.21-.1.2-.09.2-.09.21-.09.22-.09.21-.09.21-.09.2-.09.2-.08.21-.09.2-.08.21-.08.2-.08.2-.08.2-.07.22-.08.22-.08.21-.07.22-.08.21-.07.2-.06.22-.08.22-.07.23-.07.22-.08.22-.07.23-.08.22-.07.22-.08.23-.08.21-.07.22-.08.21-.08.23-.08.23-.07.22-.08.22-.07.21-.05.21-.06.22-.06.22,0,.22-.06.23-.05.21-.05.22,0,.22,0,.23-.05.22-.05.22,0,.21-.05.21,0,.23-.06.23-.05.22-.06.22,0,.22-.05.21,0,.21-.05.22-.05.21,0,.21,0,.2-.05.21,0,.22,0,.21,0,.2,0,.2,0,.19,0,.18,0,.19,0,.18,0,.19,0,.18,0,.19,0,.18,0,.2,0,.18,0,.19,0,.17,0,.17,0,.16,0,.17,0,.17,0,.16,0,.17,0,.16,0,.16,0,.17,0,.16,0h.15l.15,0,.14,0h.15l.13,0,.14,0,.13,0h.12l.12,0,.12,0,.13,0,.12,0h.12l.11,0,.11,0,.11,0,.1,0,.1,0,.1,0,.09,0,.09,0,.08,0,.08,0,.08,0,.07,0,.07,0,.06,0,.07-.05.06,0,.05,0,.06-.05,0-.05.06,0,.06-.05.05-.06,0-.06.06-.06.05-.06,0-.07.06-.07.05-.07.05-.07,0-.08,0-.07,0-.07,0-.08,0-.08,0-.08,0-.08,0-.08,0-.09,0-.08,0-.09,0-.1,0-.09.05-.09.05-.1,0-.1.05-.1,0-.11.05-.11.05-.1.06-.11,0-.11.05-.11,0-.1.05-.11.05-.11,0-.11.05-.11,0-.12.05-.11.05-.12,0-.12.06-.13.05-.12.06-.14,0-.13.06-.15.06-.15.06-.14.05-.15,0-.16.05-.15,0-.15,0-.15,0-.15,0-.16,0-.16,0-.16.05-.16,0-.16,0-.18,0-.18.05-.2,0-.2.05-.22,0-.21.06-.23.05-.23,0-.24.06-.26.05-.24.06-.26.07-.26.07-.28.07-.27.07-.28.07-.27L215,171l.07-.29.07-.28.07-.29.08-.28.08-.29.08-.29.08-.3.08-.29.08-.3.08-.31.08-.3.08-.31.08-.32.09-.32.09-.33.09-.33.09-.34.09-.33.09-.34.09-.34.09-.34.09-.35.1-.34.09-.35.09-.35.09-.34.09-.36.08-.36.1-.36.09-.36.1-.36.09-.37.09-.37.09-.37.1-.38.09-.39.1-.38.09-.39.1-.4.09-.39.09-.39.1-.38.08-.39.1-.38.09-.37.09-.36.08-.35.09-.34.08-.33.08-.32.08-.32.08-.3.07-.3.08-.28.07-.27.07-.26.07-.26.07-.24.07-.23.06-.23.07-.21.06-.21.06-.2.05-.17,0-.16.05-.15,0-.12,0-.12,0-.09,0-.06v-.07h0l3.55-12.93,0-.15.05-.16.05-.18.06-.2.07-.21.07-.23.07-.23.08-.24.07-.24.09-.27.09-.27.1-.28.11-.28.11-.29.11-.29.12-.3.12-.29.12-.31.13-.29.14-.3.13-.3.14-.29.15-.29.14-.29.14-.29.15-.28.14-.28.15-.29.15-.29.15-.29.15-.29.15-.29.14-.29.15-.3.14-.31.15-.31.15-.32.15-.32.14-.32.15-.32.15-.33.14-.34.16-.33.15-.34.14-.34.15-.34.15-.34.16-.33.15-.35.16-.33.16-.34.15-.33.16-.32.15-.32.15-.32.16-.31.15-.32.16-.3.15-.3.16-.3.15-.3.16-.3.16-.29.16-.29.15-.29.16-.29.16-.29.16-.29.16-.29.16-.28.16-.29.16-.28.16-.29.17-.28.16-.27.16-.28.16-.28.16-.28.16-.27.16-.27.15-.27.16-.27.16-.27.17-.27.16-.27.16-.26.16-.26.16-.26.16-.27.17-.26.16-.26.16-.26.16-.26.17-.26.16-.26.16-.26.17-.25.16-.26.17-.25.17-.25.17-.25.17-.25.17-.25.17-.24.17-.25.18-.26.17-.24.18-.25.17-.25.18-.25.18-.25.18-.24.19-.26.18-.24.19-.25.18-.24.19-.25.2-.24.19-.26.2-.25.2-.25.2-.25.19-.26.21-.25.2-.27.21-.26.21-.27.2-.27.21-.27.22-.28.21-.27.22-.28.22-.27.21-.27.22-.28.22-.27.22-.27.22-.27.22-.27.22-.27.22-.26.22-.26.21-.26.22-.26.21-.26.22-.25.21-.24.21-.25.21-.25.22-.23.21-.25.21-.23.21-.23.21-.22.21-.22.21-.22.2-.21.21-.21.2-.2.21-.2.2-.19.19-.19.2-.19.19-.18.2-.18.19-.19.19-.17.19-.18.19-.17.18-.17.19-.17.19-.17.19-.17.18-.17.18-.16.18-.16.19-.16.18-.16L254,90l.17-.16.18-.15.18-.15.18-.15.18-.14.17-.14.17-.12.17-.13.18-.12.18-.12.19-.11.17-.11.16-.09.16-.09.16-.08.16-.08.15-.07.15-.07.15-.07.15-.06.16-.06.16-.06.16-.06.15,0,.14,0,.15,0,.14,0,.15,0,.14,0,.15,0,.14,0,.15,0,.15,0,.16,0,.16,0,.16,0,.16,0,.16,0,.16,0,.16,0,.16,0,.16,0,.17,0,.17,0h.18l.18,0,.18,0h.73l.16,0,.17,0,.15,0,.16,0,.15,0,.16,0,.15,0,.16.05.14,0,.15,0,.14.06.15.07.13.07.13.07.13.08.11.08.12.1.11.09.1.11.1.11.1.11.08.12.09.13.08.13.08.15.07.14.07.15.07.15.07.17.07.17.06.17.07.17.06.18.05.18.06.19.06.18.05.17.05.18.05.16,0,.17,0,.17,0,.16,0,.17,0,.17,0,.17,0,.16,0,.17,0,.17,0,.17,0,.17,0,.17,0,.18v.18l0,.18,0,.18v.55Z"/><path class="cls-3" d="M332.84,69.68v-.19l0-.1,0-.09,0-.1,0-.1,0-.1,0-.09,0-.1,0-.1-.05-.1,0-.1,0-.11-.05-.1-.05-.11-.05-.11-.05-.12-.06-.12-.05-.12-.06-.11-.06-.12-.06-.13-.06-.12-.06-.11L331.8,67l-.07-.12-.07-.11-.07-.1-.08-.11-.08-.1-.09-.1-.09-.1-.08-.09L331,66l-.1-.1-.11-.1-.1-.1-.11-.09-.11-.1-.11-.1-.1-.1-.11-.1-.11-.1L329.9,65l-.22-.18-.12-.08-.13-.08-.12-.07-.13-.07-.14-.06-.15-.06-.15,0-.17,0-.16,0-.17,0-.17,0-.17,0-.17,0-.17,0-.34,0H327l-.19,0-.57,0h-.76l-.57,0-.2,0-.21,0-.22,0-.2,0-.2,0-.2,0-.21,0-.2,0-.21,0-.2,0-.2,0-.21,0-.22,0-.22,0-.22,0-.21,0-.2,0-.22,0-.23.05-.22,0-.22,0-.23.05-.22.06-.24.06-.23.07-.24.07-.24.07-.24.07-.24.08-.24.09-.25.08-.25.09-.24.1-.25.09-.24.1-.25.1-.25.11-.25.1-.25.11-.24.11-.25.1-.25.11-.24.11-.5.22-.26.12-.24.11-.26.12-.5.24-.26.13-.26.13-.25.13-.26.14-.26.14-.25.15-.26.14-.26.16-.26.15-.26.16-.26.16-.26.16-.26.16-.26.17-.26.17-.26.17-.26.17-.27.18-.26.18-.26.18-.27.19-.27.2-.26.2-.27.2-.27.2-.27.22-.27.22-.27.23-.27.23-.27.23-.27.23-.26.24-.27.24-.26.24-.26.23-.26.24-.5.48-.26.23-.25.25-.26.24-.5.48-.25.25-.26.25-.26.26-.26.26-.25.27-.26.26-.26.28-.26.3-.26.29-.26.29-.26.31-.26.31-.26.32-.27.32-.26.32-.26.33-.26.32-.26.34-.26.33-.26.33-.26.34-.25.33-.26.34-.25.34-.25.33-.5.66-.24.33-.24.33-.23.33-.24.32-.22.33-.22.32-.22.32-.22.31-.21.31-.21.32-.21.31-.2.3-.19.31-.2.3L292,89l-.19.3-.18.3-.19.29-.18.28-.17.28-.17.28-.18.27-.17.27-.34.52-.16.26-.17.25-.16.26-.16.25-.16.26-.16.26-.16.26-.16.25-.16.26-.16.26-.15.27-.16.26-.15.26-.16.27-.16.26-.16.26-.16.26-.16.25-.16.25-.16.26-.16.25-.17.26-.18.25-.17.25-.17.24-.17.24-.18.23-.17.24-.18.23-.18.23-.19.23-.18.23-.18.23-.17.22-.18.23-.17.23-.34.46-.17.23-.17.23-.17.23-.16.23-.17.23-.17.23-.17.24-.17.23-.17.24-.17.23-.17.24-.16.23-.34.46-.17.24-.17.23-.17.21-.16.21-.17.22-.16.21-.17.21-.16.21-.17.21-.16.21-.17.2-.16.22-.16.2-.16.21-.15.2-.15.2-.15.2-.15.2-.15.21-.16.2-.14.19-.14.19-.14.19-.15.19-.14.2-.13.18-.26.36-.14.18-.13.17-.13.17-.12.16-.12.15-.11.16-.11.15-.11.14-.11.15-.11.14-.11.15-.11.14-.11.15-.12.14-.11.15-.11.14-.11.13-.09.13-.1.13-.1.13-.1.13-.09.12-.09.11-.09.12-.09.13-.1.12-.1.12-.11.13-.09.12-.1.12-.1.12-.1.11-.09.11-.1.12-.08.11-.09.1-.1.11-.09.12-.1.11-.1.11,0,0c.37-.17.74-.34,1.11-.49s.74-.31,1.12-.45l.76-.29c.42-.15.84-.29,1.27-.42l1.28-.4c4.13-1.26,10.6-1,10.61,4.66-.1,2.39-1.35,4.53-2.33,6.65-.14.29-.28.59-.44.88-.24.47-.49.94-.76,1.4-.13.24-.27.47-.41.7-.27.47-.56.94-.85,1.39s-.55.85-.82,1.26l-.83,1.21q-1.43,2-2.93,4-1,1.32-2,2.64l-1.41,1.84-.44.57c-.75,1-1.51,2-2.26,3l0,.06a81,81,0,0,0-5.12,7.79q-.45.78-.87,1.59l-.06.12c-.27.51-.53,1-.77,1.56l-.06.13c-.26.55-.51,1.1-.74,1.66a26.1,26.1,0,0,0-2.38,15.25c.29,1.77,1.26,3.3,1.92,4.95a13.26,13.26,0,0,1,.64,8.37c-.6,2.53-1.84,4.86-2.67,7.33a16.91,16.91,0,0,0-.58,8.94c1,3.76,2.51,7.52,1.83,11.48a20.46,20.46,0,0,1-.49,2.21c0,.06,0,.12-.05.18l-.15.62c-.07.27-.13.53-.18.79h0l.33-.12.32-.12.31-.11.31-.11.31-.1.29-.1.27-.1.26-.08.26-.09.25-.08.23-.08.23-.07.22-.07.21-.06.21-.06.21-.05.38-.1.17,0,.16,0,.16,0,.16,0,.15,0,.14,0,.14,0h1.2l.13,0,.12,0,.24,0,.12,0,.12,0,.13,0,.13,0,.13,0,.14,0,.14.05.14,0,.14.05.13,0,.13.06.12.05.12.06.12,0,.11.06.1.07.1.06.1.07.09.07.1.08.1.07.09.09.1.09.1.09.11.11.1.1.1.11.09.11.1.11.09.12.08.12.09.12.07.13.07.13.07.12.06.14.12.28.05.14.05.13.05.13,0,.13.05.14.05.13.05.13.1.24.06.12.05.12.06.12.05.11.1.22.05.12.05.1,0,.12,0,.1,0,.11,0,.11,0,.11,0,.11,0,.11,0,.1,0,.11,0,.12,0,.12,0,.13,0,.24,0,.12,0,.12v.12l0,.12v1.51l0,.18v.1l0,.05v0l0,.05v0l0,0v0l0,0,0,.05v0l0,0v0l0,.05V226l0,.1v.1l0,.11,0,.1,0,.1,0,.1,0,.1,0,.1,0,.09v.1l0,.09v.09l0,.09v.09l0,.09v.18l0,.18v1.9l0,.18V231l0,0v.14l0,0v0l0,.05,0,0v0l0,0,0,0,0,0,0,0,0,0,0,0,0,0,0,0,0,0,0,0,0,0,0,0,0,0,0,0,0,0,0,0,0,0,0,0,0,0,0,0,0,0,0,0,0,0h0l0,0,0,0h0l.08,0h2.16l.11,0h.1l.11,0,.11,0h0l0-.05,0-.09,0-.1,0-.11,0-.13,0-.14,0-.16,0-.18,0-.19,0-.2v0l0-.2,0-.24,0-.26v-.28l0-.3v-.66l0-.36v-4.65l0-.56,0-.59,0-.61,0-.63,0-.64-.05-.65-.06-.67-.06-.69-.06-.7-.14-1.42-.08-.72-.07-.72-.08-.72-.08-.73-.08-.73-.1-.72-.09-.72-.1-.72-.11-.73-.12-.72-.13-.71-.13-.71-.15-.7-.14-.69-.15-.7-.16-.68-.16-.68-.17-.66-.17-.65-.17-.64-.13-.49,0-.13c-.07-.2-.14-.41-.2-.61s0-.1,0-.15l-.06-.17c0-.1-.08-.2-.11-.3-.12-.31-.24-.62-.35-.93s-.24-.67-.37-1l-.21-.64c-.11-.24-.22-.49-.32-.74s-.23-.63-.34-1-.21-.6-.3-.9-.24-.7-.34-1.06-.27-1-.41-1.43a.08.08,0,0,0,0,0v0h0c-.09-.33-.16-.67-.24-1l-.21-.9c-.16-.67-.29-1.34-.43-2-.27-1.3-.46-2.61-.64-3.93-.05-.35-.07-.71-.1-1.07,0-.15,0-.29,0-.44l0-.82c0-.13,0-.26,0-.4V182c0-.48,0-1,0-1.44l.06-1.41c0-.67.06-1.34.12-2,0-.41.07-.81.1-1.22s.07-.61.11-.92c.08-.7.17-1.39.27-2.08s.2-1.34.31-2c.22-1.33.51-2.64.8-4,.56-2.51,1.27-5,1.84-7.5.26-1.15.52-2.3.76-3.45.24-1.31.46-2.62.67-3.93.09-.6.18-1.19.25-1.79s.15-1.43.21-2.15c0-.22,0-.45.05-.67,0-.92.07-1.84,0-2.77a8.51,8.51,0,0,0-.14-1.13,7.35,7.35,0,0,0-.3-1.14.16.16,0,0,0,0-.09l-.12-.35s0-.09-.05-.13a3.55,3.55,0,0,1-.2-.63.81.81,0,0,1,0-.16.28.28,0,0,1,.17-.22l.06,0h.05a.3.3,0,0,1,.33.47l.06.16,0,0,0-.05.1-.12.06-.07.06-.06.06-.06.06-.06.07,0,.07-.06.07-.05.07,0,.16-.1.09,0,.1,0,.09,0,.1,0,.11-.05.22-.12.12-.06.12-.07.11-.06.12-.07.12-.08.13-.07.12-.08.13-.08.24-.16.12-.07.12-.07.24-.14.24-.12.12-.05.1,0,.67-.84.75-.93v0l.07-.12.11-.17.11-.19.12-.19,0-.06.08-.12.11-.18.1-.17.11-.17.1-.17.11-.19.12-.19.12-.2.12-.21.13-.21.12-.22.13-.23.13-.24.12-.25.14-.26.13-.28.15-.28.14-.3.15-.31.14-.32.15-.32.16-.34.16-.35.16-.36.17-.36.17-.35.17-.37.17-.36.17-.37.18-.37.19-.37.18-.36.18-.37.19-.36.19-.37.2-.37.21-.37.2-.38.22-.37.22-.39.23-.39.24-.41.24-.41.26-.43.27-.43.27-.45.29-.44.29-.46.3-.46.31-.45.3-.46.32-.45.33-.45.33-.46.33-.45.35-.46.35-.45.36-.47.36-.45,10.45-10.77v0l.09-.08.15-.13.15-.14.15-.13.15-.13.15-.14.15-.13.16-.15.16-.16.17-.16.56-.56.2-.21.21-.23.22-.23.23-.25.24-.27.25-.28.25-.29.27-.31.27-.31.27-.33.28-.33.3-.35.3-.36.31-.36.31-.36.31-.37.33-.38.33-.38.33-.39.34-.39.34-.39.35-.39.35-.4.35-.39.35-.4.35-.39.35-.4.35-.38.35-.4.34-.38.35-.39.33-.38.34-.38.33-.37.33-.37.32-.37.32-.36.32-.36L320,90l.31-.35.3-.35.31-.33.29-.35.3-.33.29-.33.28-.32.27-.33.27-.32.26-.31.26-.31.25-.3.24-.3.24-.28.23-.29.23-.28.22-.27.22-.27.21-.26.21-.25.21-.25.2-.24.19-.25.2-.23.19-.23.19-.23.18-.23.19-.22.18-.23.18-.22.18-.22.17-.23.18-.22.17-.22.17-.22.17-.22.16-.21.15-.22.15-.22.15-.21.15-.21L329,79l.15-.2.14-.21.14-.21.14-.21.15-.2.13-.21.14-.2.13-.19.13-.2.12-.19.13-.19.11-.19,1.91-4.25h0l0,0,0-.06,0-.08,0-.08,0-.08,0-.08,0-.07,0-.07,0-.16V71l0-.22V69.68Zm-2.31,3.2a8.94,8.94,0,0,1-2.42,3.94c-3.6,3.81-8.6,5.73-13.12,8.17a24.67,24.67,0,0,0-8.58,6.85c-1.5,2-2.48,4.31-4.78,5.56-.93.56-1.94,1.29-3.09,1.14a3.18,3.18,0,0,1-2.47-3.77c.52-2.69,2.23-5,3.5-7.42,3.47-6,7.88-12.6,14.87-14.64,2.31-.7,4.77.24,7-.61,2.4-.7,4.45-2.68,7.09-2.44A2.55,2.55,0,0,1,330.53,72.88Z"/><polyline class="cls-1" points="274.35 193.11 274.36 193.12 274.35 193.11"/><path class="cls-1" d="M274.35,193.08v0"/><path class="cls-1" d="M274.34,193.07h0"/><path class="cls-3" d="M278.24,147.49v0"/><path class="cls-3" d="M278.26,144.65v0"/><path class="cls-3" d="M182.26,236c-.87.15-1.75.28-2.62.36-3-7.63-5.85-15.31-8.37-23.09a8.56,8.56,0,0,0,3.7,2.92c.62,1.79,1.24,3.57,1.91,5.34,1.72,4.85,3.65,9.63,5.38,14.47"/><path class="cls-4" d="M222.58,142.43l-2,7.21h0v.07l0,.06,0,.09,0,.12,0,.12-.05.15,0,.16-.05.17-.06.2-.06.21-.07.21-.06.23-.07.23-.07.24-.07.26-.07.26-.07.27-.07.28-.08.3-.08.3-.08.32-.08.32-.08.33-.09.34-.08.35-.09.36-.09.37-.1.38-.08.39-.1.38-.09.39-.09.4-.1.39-.09.39-.1.38-.09.39-.1.38-.09.37-.09.37-.09.37-.1.36-.09.36-.1.36-.08.36-.09.36-.09.34-.09.35-.09.35-.1.34-.09.35-.09.34-.09.34-.09.34-.09.33-.09.34-.09.33-.09.33-.09.32-.08.32-.08.31-.08.3-.08.31-.08.3-.08.29-.08.3-.08.29-.08.29-.08.28-.07.29-.07.28L215,171l-.07.28-.07.27-.07.28-.07.27-.07.28-.07.26-.06.26-.05.24-.06.26,0,.24-.05.24,0,.22-.05.21-.05.22,0,.2-.05.2,0,.18,0,.18,0,.16-.05.17,0,.15,0,.16,0,.16,0,.15,0,.15,0,.15-.05.15,0,.16-.05.15-.06.14-.06.15-.06.15,0,.13-.06.14-.05.12-.06.13,0,.12-.05.12-.05.11,0,.12-.05.11,0,.11-.05.11-.05.11,0,.1-.05.11,0,.11-.06.11-.05.1-.05.11,0,.11-.05.1,0,.1-.05.1-.05.09,0,.09,0,.1,0,.09,0,.08,0,.09,0,.08,0,.08,0,.08,0,.08,0,.08,0,.07,0,.07,0,.08-.05.07-.05.07-.06.07,0,.07-.05.06-.06.06,0,.06-.05.06-.06.05-.06,0,0,.05-.06.05-.05,0-.06,0-.07.05-.06,0-.07,0-.07,0-.08,0-.08,0-.08,0-.09,0-.09,0-.1,0-.1,0-.1,0-.11,0-.11,0-.11,0h-.12l-.12,0-.13,0-.12,0-.12,0h-.12l-.13,0-.14,0-.13,0h-.15l-.14,0-.15,0h-.15l-.16,0-.17,0-.16,0-.16,0-.17,0-.16,0-.17,0-.17,0-.16,0-.17,0-.17,0-.19,0-.18,0-.2,0-.18,0-.19,0-.18,0-.19,0-.18,0-.19,0-.18,0-.19,0-.2,0-.2,0-.21,0-.22,0-.21,0-.2.05-.21,0-.21,0-.22.05-.21.05-.21,0-.22.05-.22,0-.22.06-.23.05-.23.06-.21,0-.21.05-.22,0-.22.05-.22.05-.23,0-.22,0-.21.05-.23.05-.22.06-.22,0-.22.06-.21.06-.21.05-.22.07-.22.08-.23.07-.23.08-.21.08-.22.08-.21.07-.23.08-.22.08-.22.07-.23.08-.22.07-.22.08-.23.07-.22.07-.22.08-.2.06-.21.07-.21.08-.22.07-.22.08-.22.08-.2.07-.2.08-.2.08-.21.08-.2.08-.21.09-.2.08-.2.09-.21.09-.21.09-.22.09-.21.09-.2.09-.2.09-.21.1-.21.1-.22.1-.22.1-.2.1-.21.1-.21.1-.21.1-.21.11-.21.1-.21.11-.2.1-.21.11-.21.1-.2.11-.2.1-.2.11-.2.11-.21.11-.09,0c.36-.65,0-1.63,0-2.41a17.56,17.56,0,0,0-1.57-5.92c-.78-2.71.36-5.39,1.05-8,2.6-11.18-5.83-8.68-13.32-7.95-2.34.32-4.61,1-7,1.31-.9.14-2-.12-2.68.61-.68.91-.42,2.2-.48,3.27a15.75,15.75,0,0,0,2.14,8.63c1.19,2.21,4.1,3.61,3.89,6.41-.42,6.51-1.25,9,2.23,15.06a9.53,9.53,0,0,1,.58,2.17c.09.69,0,1.68.63,2l0,.11,0,.22,0,.23,0,.21v1.57l0,.16,0,.15,0,.15,0,.14,0,.14,0,.15,0,.15,0,.14,0,.14,0,.14,0,.14,0,.12,0,.13,0,.13,0,.11,0,.12,0,.12,0,.11,0,.11,0,.1,0,.11,0,.1,0,.1,0,.1,0,.11,0,.1,0,.11,0,.11,0,.1,0,.1,0,.1,0,.1,0,.1,0,.1,0,.09,0,.09,0,.09,0,.1,0,.1,0,.1,0,.09,0,.09,0,.1,0,.1,0,.1,0,.09,0,.08,0,.09,0,.08,0,.09,0,.07,0,.08,0,.06,0,.07,0,.07,0,.06,0,.06,0,.06,0,.06,0,.06,0,.06,0,.06,0,.05,0,0,0,.05,0,0,0,.05,0,0,0,0,0,0,0,0,0,0,0,0,0,0,0,0,0,0v0l0,0v0l0,0v0l0,0h0v.05h0v0l0,0v.06l0,0v0l0,0v0l0,0v0l0,0v0l0,0v0l0,0v.06l0,0v0l0,0v0l0,0v0l0,0,0,0,0,0v0l0,0,0,0,0,0,0,.05,0,0,0,.05,0,0v.05l0,0,0,0v0l0,0v0l.21.57a8.71,8.71,0,0,1-3.32-2.76c2.52,7.78,5.41,15.46,8.37,23.09.75-.07,1.5-.17,2.26-.3l.15.42-.19,0-.38.06-.35.05-.35,0-.35.05-.33.05-.32,0-.31,0-.3,0-.29,0-.28,0-.27,0-.25,0-.24,0-.24,0-.23,0-.21,0-.2,0-.19,0h-.58l-.2,0h-.3l-2.43-.68L167.78,220l-4.12-15.12-12.23-43.09h0l0-.08-.06-.13-.07-.15-.07-.15-.06-.14-.06-.15-.06-.14-.05-.14,0-.13,0-.13,0-.13,0-.12,0-.12,0-.12,0-.11,0-.11,0-.11v-.1l0-.1V159l0-.09,0-.09,0-.1.05-.1,0-.09.06-.1.07-.11.09-.1.1-.11.1-.12.11-.11.13-.12.14-.12.16-.13L192,147.82Z"/><path class="cls-5" d="M185.73,187c0,.78.33,1.76,0,2.41a1.18,1.18,0,0,1-.68.55,1.39,1.39,0,0,1-.44.07h0l-.2.11-.2.12-.19.12-.2.12-.2.12-.19.12-.19.12L183,191l-.17.11-.17.11-.18.11-.18.12-.18.12-.18.11-.16.11-.17.11-.16.1-.16.11-.16.11-.16.1-.15.11-.16.1-.17.12-.17.12-.17.12L180,193l-.15.11-.15.12-.15.13-.15.12-.15.13-.15.14-.14.14-.15.14-.15.14-.15.14-.14.14-.14.13-.14.14-.14.12-.13.14-.15.13-.14.14-.15.14-.14.13-.14.14-.14.12-.14.13-.13.13-.13.12-.13.11-.12.12-.12.12-.12.12-.11.12-.11.12-.1.11h0l-.12.19-.32.46-.4.59-.42.6-.39.57-.37.53-.34.49-.3.43-.27.4-.14.22,0,.22c.06,1,.47,3-1.06,3.06a1,1,0,0,1-.41-.11c-.64-.34-.54-1.33-.63-2a9.53,9.53,0,0,0-.58-2.17c-3.48-6-2.65-8.55-2.23-15.06.21-2.8-2.7-4.2-3.89-6.41a15.75,15.75,0,0,1-2.14-8.63c.06-1.08-.2-2.36.48-3.27.69-.73,1.78-.47,2.68-.61,2.36-.26,4.63-1,7-1.31,7.49-.73,15.92-3.24,13.32,7.95-.69,2.59-1.83,5.27-1.05,8a17.5,17.5,0,0,1,1.57,5.92"/><path class="cls-5" d="M284.2,141.7l.72,92.35-.81.58,0,0-.06-.08-.06-.08-.06-.07-.06-.08-.06-.08-.06-.07-.06-.08-.06-.06-.06-.07-.06-.07-.06-.07-.06-.07-.07-.06-.06-.07-.07-.06-.07-.06-.07-.07-.08-.06-.08-.07-.09-.06-.08-.06-.1-.06-.09-.05-.1-.06-.1-.05-.1,0-.1-.05-.11,0-.1-.05-.11,0-.1,0-.1,0-.1,0-.1,0-.1,0-.1,0-.09,0-.1,0-.1,0-.11,0-.1,0-.11,0-.11,0-.11,0-.1,0-.11,0-.09,0,0-.05,0-.09,0-.1,0-.11,0-.13,0-.14,0-.16,0-.18,0-.19,0-.2,0-.22,0-.24,0-.26v-.28l0-.3v-.66l0-.36v-4.65l0-.56,0-.59,0-.61,0-.63,0-.64-.05-.65-.06-.67-.06-.69-.06-.7-.07-.71-.07-.71-.08-.72-.07-.72-.08-.72-.08-.73-.09-.73-.09-.72-.09-.72-.11-.72-.1-.73-.12-.72-.13-.71-.13-.71-.15-.7-.14-.69-.15-.7-.16-.68-.16-.68-.17-.66-.17-.65-.17-.64-.13-.49,0-.13c-.07-.2-.14-.41-.2-.61a3,3,0,0,0-.1-.32c0-.1-.08-.2-.11-.3-.12-.31-.24-.62-.35-.93s-.24-.67-.37-1l-.21-.64c-.11-.24-.22-.49-.32-.74s-.23-.63-.34-1-.21-.6-.3-.9-.24-.7-.34-1.06-.27-1-.41-1.43h0l0,0v0a0,0,0,0,1,0,0h0c-.09-.33-.16-.67-.24-1l-.21-.9c-.16-.67-.29-1.34-.43-2-.27-1.3-.46-2.61-.64-3.93-.05-.35-.07-.71-.1-1.07,0-.15,0-.29,0-.44l0-.82c0-1.24,0-2.49.07-3.74,0-.67.06-1.34.12-2,0-.41.07-.81.1-1.22s.07-.61.11-.92c.08-.7.17-1.39.27-2.08s.2-1.34.31-2c.22-1.33.51-2.64.8-4,.56-2.51,1.27-5,1.84-7.5.26-1.15.52-2.3.76-3.45.24-1.31.46-2.62.67-3.93.09-.6.18-1.19.25-1.79s.15-1.43.21-2.15c0-.22,0-.45.05-.67,0-.92.07-1.84,0-2.77a8.51,8.51,0,0,0-.14-1.13h0a7.35,7.35,0,0,0-.3-1.14h0l-.16-.45s0-.09-.05-.13l.74-.26v0l0,0,0,0,0,0v0l0,0,0,0,0,0,0,0,0,0,0,0,0,0,0,0,0,0,0,0,0,0,0,0,0,0,0,0,0,0,0,0,.05,0,0,0,.05,0,.05,0,.05,0,.05,0,.06,0,0,0,.06,0,.06,0,.06,0,.05,0,.06,0,.06,0,.07,0,.06,0,.06,0,.06,0,.07,0,.07,0,.07,0,.07,0,.07,0,.07,0,.08,0,.07,0,.08,0,.07,0,.07,0,.08,0,.07,0,.07,0,.07,0,.06,0,.06,0,.06,0,.06,0,.06,0,.05,0,.05,0,.05,0,0,0,.05,0,0,0,0,0,.05,0,0,0,0,0,0,0,0,0,.05,0,0,0,0,0,0,0,0,0h0l0,0,0,0,0,0,0,0,0,0,0,0h0l0,0,0,0h0l0,0,0,0h0l0,0h.51l0,0h0l0,0,0,0,0,0,0,0,0,0,0,0,0,0,0,0v0l0,0,0,0,0,0,0,0,0,.06,0,0,0,.05,0,.06,0,.07,0,.07,0,.07,0,.08,0,.09,0,.09,0,.09,0,.09,0,.11,0,.1,0,.1.05.11,0,.12.05.12,0,.13.05.13.05.13.05.12,0,.08Z"/><path class="cls-6" d="M278,255.77a17.44,17.44,0,0,1,0,6.6c-.25,1.38-.57,4.15-2.61,3.4a1.92,1.92,0,0,1-.62-.41,2.39,2.39,0,0,1-.74,1.5l-.56.19-.3.1a97.13,97.13,0,0,0-9.34,3.8c-1.11.69-2.15,1.46-3.21,2.22l-.05,0c-.82.64-2.09,1.5-2.89.36s.24-1.88,1.28-2.57a17.33,17.33,0,0,0,1.82-1.21c2.52-1.8,4.89-3.8,7.22-5.83l.18-.16h0c.95-.8,1.87-1.64,2.76-2.51h0l.61-.6c.49-.49,1-1,1.45-1.48l1.62-1.75.09-.09.81-.89.2-.22,1.11-1.22a1.11,1.11,0,0,1,1.13.76Z"/><path class="cls-3" d="M278,255.77a1.16,1.16,0,0,0-2.23.63,1.25,1.25,0,0,0-1,1.06,1,1,0,0,0-1.12.15c-.77.74-.48,1.93-.65,2.89a1.07,1.07,0,0,0-.36.1,1.33,1.33,0,0,0-1.75,1.15,6.7,6.7,0,0,1-.21,1c-1.6.14-2.83,1.36-4.05,2.3a40.44,40.44,0,0,1-4.76,3.6,19.83,19.83,0,0,0-2.52,1.4,1.31,1.31,0,0,0,.33,2,1.46,1.46,0,0,0,.21.57c.81,1.17,2.15.23,3.08-.27q2.2-1.16,4.34-2.43a12.58,12.58,0,0,1,2.31-1.11,1.65,1.65,0,0,0,2.08-1,1.3,1.3,0,0,0,1.22-.28,1.55,1.55,0,0,0,.38-.5c1,.12,1.36-.84,1.54-1.69a1.7,1.7,0,0,0,.62.42c2,.75,2.36-2,2.61-3.4A17.44,17.44,0,0,0,278,255.77Z"/><path class="cls-3" d="M264.44,12.9A63.43,63.43,0,0,1,275.63,42C268.7,34.2,258.86,29.67,249,26.76c-2.93-.93-5.87-1.81-8.72-3-2.2-.9-4.5-1.88-6.11-3.68-2.33-2.81-3.56-7-1.9-10.46a11.85,11.85,0,0,1,6.63-6.1C248.33.65,259,4.84,264.44,12.9"/><path class="cls-3" d="M185.63,16.53c6.55,4,2.88,14.15-4.33,14.45a6,6,0,0,1-5.44-3c-1.26-2-2.26-4.65-1.54-7.08a11,11,0,0,1,3.46-4.85,3.15,3.15,0,0,1,3-1.26,9.06,9.06,0,0,1,4.83,1.74"/><path class="cls-5" d="M250.62,13.31A43.4,43.4,0,0,0,243,12.9c-1.72.09-3.66.18-5-1.05-3.12-3,1.22-5.62,3.91-6.6,4.29-1.75,11.62-.78,13.43,4.05.64,2.69-2.38,4.21-4.67,4"/><path class="cls-5" d="M256.1,15.41c-1.36-.86-.69-3.42,1.11-2.83a1.56,1.56,0,1,1-1.11,2.83"/><path class="cls-5" d="M183.38,21.55c-2.14-1.35-1.08-5.37,1.74-4.44,4,1.26,1.67,6.13-1.74,4.44"/><path class="cls-7" d="M289.17,118.11c-.1,2.39-1.35,4.53-2.33,6.65a50.53,50.53,0,0,1-4.1,6.84c-5.76,8.19-12.82,15.67-16.72,25a26.1,26.1,0,0,0-2.38,15.25c.29,1.77,1.26,3.3,1.92,4.95a13.26,13.26,0,0,1,.64,8.37c-.6,2.53-1.84,4.86-2.67,7.33a16.91,16.91,0,0,0-.58,8.94c1,3.76,2.51,7.52,1.83,11.48-.17,1.25-.64,2.57-.87,3.8,0,.22-.07.42-.09.63s0,.39,0,.54a1.32,1.32,0,0,1-2.11,1,1.83,1.83,0,0,1-.51-1.18l-.22.08-.64.26-.31.13-.31.13-.31.13-.3.14-.29.15-.29.15-.28.16-.28.16-.27.17-.26.16-.26.16-.24.15-.23.16-.21.15-.2.15-.18.15-.17.13-.15.13-.28.24-.12.13-.11.12-.1.11-.07.11-.06.1,0,.06h0l-5.43,4.56-.19.12-.2.13-.21.14-.23.15-.22.16-.23.17-.23.17-.23.17-.5.36-.25.19-.25.18-.78.57-.26.19-.26.19-.25.2-.26.2-.25.19-.24.2-.25.19-.24.19-.24.19-.24.18-.24.19-.24.18-.23.18-.23.17-.22.17-.21.17-.2.17-.2.17-.19.17-.18.16-.17.16-.16.15-.16.15-.17.16-.16.16-.17.17-.16.15-.16.16-.15.16-.1.11,0,0-4.07,3.8c0,.18-.05.36-.07.54a1.55,1.55,0,0,1-.84,1.36,1.22,1.22,0,0,1-1-.07,1.1,1.1,0,0,1-.5-.56,1.2,1.2,0,0,1,0-.93,1,1,0,0,0-.06.16c.22-.81.13-1.68.32-2.5.13-1.78,0-3.91,1.51-5.14,0,0,0-.08,0-.13a2.48,2.48,0,0,1,.88-1.36.94.94,0,0,1,.71-.12l14.68-13.34.15-.2.16-.22.17-.24.38-.5.18-.26.18-.24.16-.25.16-.24.15-.24.13-.23.14-.24.12-.24.12-.23.1-.23.1-.23.1-.23.09-.23.08-.23.07-.21.07-.21.07-.22.06-.21.07-.21.06-.21.05-.2.06-.2.06-.21.06-.22.06-.22.06-.23.06-.22.06-.22.05-.24.06-.23,0-.24.05-.23,0-.22,0-.23,0-.22,0-.23,0-.22,0-.21,0-.21,0-.2,0-.22,0-.22,0-.22,0-.23,0-.21,0-.23,0-.24,0-.23,0-.22,0-.23,0-.21v-1.44l0-.18,0-.18,0-.17,0-.18,0-.17,0-.17,0-.18,0-.17,0-.17,0-.16-.05-.16-.05-.15-.06-.15-.06-.14-.06-.14-.06-.13-.07-.13-.06-.13-.14-.26-.06-.13-.07-.13-.07-.12-.07-.12-.06-.11-.07-.11-.07-.11-.07-.1-.08-.11-.07-.1-.09-.1-.08-.09L254,197l-.08-.09-.09-.09-.1-.09-.09-.09-.1-.09-.09-.09-.1-.09-.09-.08-.1-.09-.09-.08L253,196l-.09-.07-.09-.08-.08-.08-.09-.07-.1-.07-.09-.07-.1-.07-.09-.07-.1-.07-.1-.06-.11-.07-.1-.06-.11-.06-.1-.07-.11-.05-.11-.06-.11-.06-.1-.06-.11-.05-.1-.05-.11,0-.1,0-.11,0-.1,0-.11,0-.11,0-.12,0-.12,0-.12,0-.13,0-.14,0-.14,0-.15,0-.15,0-.16,0-.17,0-.17,0h-1.52l-.22,0-.24,0-.23,0-.25,0-.24,0-.25.05-.26.06-.28.08-.29.08-.31.1-.32.11-.34.13-.11,0a1.94,1.94,0,0,1-1.53,1.07l-.28,0a.85.85,0,0,1-.26-.11,1,1,0,0,1-.45-.84.88.88,0,0,1,.25-.62c2.23-4.3,3.74-9.31,2.73-14.16-2.46-10-6.11-17.74-.05-27.46,3.94-6.86,9.15-12.89,13.52-19.48,2.15-3.08,3.42-6.65,5.46-9.8.11-.17.22-.34.34-.51a19.09,19.09,0,0,1,1.15-1.53,18.14,18.14,0,0,1,1.61-1.67,14.45,14.45,0,0,0,3.42-2.6,27.39,27.39,0,0,1,3.2-1.73,30.48,30.48,0,0,1,3-1.21c.85-.31,1.71-.59,2.56-.84C282.69,112.19,289.16,112.45,289.17,118.11Z"/><path class="cls-8" d="M289.91,272.78c-.1.3-.21.6-.32.9l-.1.27-.88,1.78-.14.3-.07.16h0l-.08,0h-.08l-.08,0-.24,0h-.76l-.09,0-.1,0-.1,0-.1,0-.1,0-.11,0-.11.05-.11.05-.11.06-.12.07-.11.07-.12.08-.11.08-.12.1-.12.09-.24.22-.12.11-.12.13-.13.13-.13.14-.13.14-.14.16-.15.15-.14.17-.16.16-.16.17-.16.17-.16.17-.17.16-.16.16-.16.16-.16.16-.17.16-.17.16-.16.16-.18.16-.18.17-.2.18-.2.18-.21.18-.22.19-.21.18-.22.19-.22.19-.22.18-.22.19-.42.36-.21.18-.22.18L279,283l-.23.18-.22.18-.21.17-.21.17-.22.16-.2.16-.21.16-.2.16-.19.15-.2.15-.21.15-.2.16-.21.15-.21.15-.2.15-.21.14-.21.15-.2.14-.2.13-.19.14-.19.13-.19.13-.19.13-.2.13-.21.14-.2.13-.21.13-.22.12-.21.13-.22.13-.22.12-.21.12-.21.11-.22.13-.22.12-.23.13-.23.13-.23.13-.25.14-.25.13-.24.14-.24.13-.22.12-.23.12-.23.13-.24.13-.24.13-.25.13-.25.12-.24.12-.52.24-.25.11-.26.12-.25.1-.25.11-.26.11-.27.11-.28.12-.27.12-.27.11-.26.11-.27.11-.26.12-.26.11-.25.12-.24.11-.25.11-.25.12-.26.12-.25.11-.24.11-.24.1-.23.11-.22.1-.23.1-.21.1-.22.09-.21.1-.21.09-.22.09-.22.1-.21.09-.22.09-.21.08-.2.09-.2.08-.2.08-.2.09-.19.08-.19.08-.38.16-.2.08-.19.09-.4.16-.19.09-.4.16-.19.08-.19.09-.18.07-.18.08-.19.08-.18.08-.2.08-.19.09-.2.08-.2.07-.2.08-.2.08-.21.07-.2.07-.2.06-.19.07-.2.06-.21.07-.2.06-.42.14-.21.06-.21.07-.22.07-.42.14-.19.06-.2.06L251,297l-.19,0-.36.12-.18.05-.18.05-.57.15-.18.05-.38.1-.18,0-.18.05-.17,0-.17.05-.17,0-.16.05-.17,0-.16,0-.16.05-.16.05-.16,0-.16,0-.17.05-.16.05-.16.06-.15.05-.15.05-.15,0-.15.06-.14,0-.14.05-.26.1-.13.05-.13.05-.14.05-.26.1-.13.06-.26.1-.14.06-.14.05-.13.06-.14,0-.14.06-.13.05-.13.06-.13.05-.13.06-.13.05-.12.06-.13,0-.12.06-.13.07-.24.12-.13.06-.26.14-.14.07-.13.07-.14.07-.14.07-.14.08-.14.07-.15.07-.13.07-.14.06-.13.07-.36.18-.11.06-.1,0-.1.05-.09.05-18.37,10.22L178,330.64l-22.52,7.82h0l-22.67,10.46-25.45,9.23-29.11,7.07-31.14,7.56L33,376.22l-12.28-.08-.07-.06-.32-.21-.5-.31-.4-.25-.1-.06-.46-.29-.43-.28-.39-.26-.36-.25-.34-.24-.31-.24-.29-.22-.3-.24-.29-.24-.29-.23L15,372l-.31-.27-.33-.28-.34-.3-.35-.32-.35-.33-.36-.35-.37-.38-.36-.41-.37-.42-.35-.45-.37-.47-.35-.49-.36-.52-.36-.55-.36-.57-.35-.6L9,364.68,8.64,364l-.35-.68-.35-.7-.35-.74-.35-.77-.34-.81-.35-.84-.35-.88-.34-.92-.34-1-.34-1-.32-1-.32-1.06-.3-1.08-.3-1.12-.29-1.13-.28-1.16L3.11,348l-.26-1.2-.23-1.21-.22-1.21-.2-1.23L2,341.89l-.18-1.25-.17-1.26-.16-1.27-.15-1.27-.14-1.29-.14-1.32-.13-1.34-.13-1.35-.12-1.37-.22-2.76L.37,326l-.09-1.39L.2,323.27.13,321.9l0-1.34,0-1.33,0-1.33V314l0-1.26,0-1.24,0-1.22,0-1.19,0-1.19,0-1.17.05-1.15.1-2.26.06-1.12.06-1.11L.56,300,.64,299l.1-1,.11-1,.11-1,.13-1,.14-.95.14-.92.13-.89.14-.86.14-.84.13-.81.13-.78.13-.75.13-.73.13-.72.13-.7.14-.68.14-.67L3,284l.17-.64.17-.63.18-.62.2-.61.19-.59.2-.57.2-.56.19-.52.18-.5.18-.48.18-.45.16-.42.16-.4.15-.35.15-.34.15-.32.15-.31.15-.3.15-.3.16-.28.16-.27.17-.26.17-.26.34-.5.18-.24.17-.24.18-.24.34-.46.17-.22.15-.21.15-.2.15-.19.14-.17.14-.17.12-.15.13-.14.11-.13.12-.12.12-.11.11-.1.12-.1.11-.09.12-.08.12-.09.26-.16.13-.08.14-.08.14-.08.15-.07.14-.08.14-.07.14-.08.14-.06.26-.12.12-.06.13-.05.12,0,.12,0,.12,0,.13,0,.12,0h.7l.15,0h.16l.17,0h.17l.18,0h.2l.21,0h.23l.24,0,.25,0,.26,0,.28,0,.29,0,.28,0,.29.05.29.06.29.08.28.08.26.08.26.09,13.2,2.09,17.24-.23,26.49-1.25,31.79-4.86,24.41-11.26,8.48-9.47h0l.05-.09.08-.16.11-.21.13-.26.15-.3.17-.33.18-.37.2-.4.21-.42.22-.45.24-.49.24-.49.23-.47.23-.46.22-.45.22-.44.21-.41.19-.4.38-.72.19-.37.2-.36.2-.35.21-.36.2-.36.22-.38.24-.39.25-.41.27-.42.28-.43.28-.43.29-.42.31-.45.64-.92.33-.46.31-.44.3-.44.31-.45.3-.46.3-.45.3-.45.27-.43.28-.44.27-.43.27-.44.27-.43.26-.41.25-.4.24-.4.25-.39.5-.76.24-.37.24-.35.23-.35.24-.35.24-.36.23-.34.23-.35.22-.32.21-.33.22-.34.22-.34.21-.33.22-.33.2-.31.2-.32.21-.31.21-.32.21-.32.2-.32.21-.3.2-.29.21-.31.22-.29.22-.29.21-.28.21-.27.42-.52.21-.25.42-.48.19-.23.19-.22.2-.21.18-.22.18-.2.17-.2.16-.18.16-.18.15-.17.3-.32.14-.16.14-.15.13-.14.14-.15.42-.42.13-.12.12-.12.13-.11.11-.1.11-.09.11-.09.09-.08.09-.07.08-.07.08-.06.14-.12.07-.05.06,0,0-.05.06,0,0,0,0,0,.05,0,0,0,0,0,0,0,0,0h.39l.1,0h.09l0,0,.06,0,.05,0,.06,0,8.95,27.08,2.43.68h.3l.2,0h.58l.19,0,.2,0,.21,0,.23,0,.24,0,.24,0,.25,0,.27,0,.28,0,.29,0,.3,0,.31,0,.32,0,.33-.05.35-.05.35,0,.35-.05.38-.06.19,0,.19,0,.38-.07.8-.14.42-.08.42-.09.43-.09.43-.1.44-.1.45-.11.45-.11.46-.12.46-.13.47-.14.47-.14.47-.14.47-.16.47-.16.48-.17.49-.18.48-.18,1-.4.49-.21.49-.23.5-.23.5-.24,1.5-.75.5-.26.5-.27.49-.26.48-.26.48-.27.48-.26.47-.26.16-.09.3-.17.46-.27.45-.27.46-.26.45-.28.46-.27.44-.29.45-.28.46-.29.45-.29.46-.3.45-.29.46-.31.45-.3.45-.3.88-.6.44-.29.42-.29.41-.29.4-.28.39-.28.24-.17.15-.11.38-.28.38-.27.36-.28.36-.28.35-.28.34-.29.34-.28.33-.29.32-.29.32-.29.32-.29.31-.29.29-.29.29-.28.28-.28.27-.27.24-.26.22-.23.05,0,.17-.16.26-.25.3-.29.34-.32.35-.33.36-.34.34-.34.36-.35.36-.37.36-.36.35-.37.32-.35.3-.33.28-.32.26-.31.25-.3.23-.28.21-.27.19-.24.18-.23.19-.23.19-.22.19-.21.2-.21.2-.2.21-.21.22-.2.23-.21.24-.22.25-.23.27-.23.27-.25.3-.27.32-.28.33-.29.36-.29.37-.31.39-.32.39-.33.41-.33.41-.34.42-.34.43-.33.44-.34.43-.33.44-.33.43-.33.43-.32.84-.64.42-.31.42-.31.41-.31.4-.3.4-.31.39-.3.38-.3.38-.3.38-.3.37-.29.36-.29.36-.29.36-.28.35-.28.33-.27.32-.26.31-.26.29-.24.3-.24.28-.22.28-.22.29-.2.28-.2.28-.19.29-.19.29-.18.3-.19.31-.18.33-.19.34-.19.35-.2.37-.19.37-.18.05,0a.85.85,0,0,0,.26.11c.76.16,1.34-.33,1.81-1l.11,0,.34-.13.32-.11.31-.1.29-.08.27-.08.27-.06.25-.05.24,0,.25,0,.23,0,.24,0,.22,0h1.52l.17,0,.17,0,.16,0,.15,0,.15,0,.14,0,.13,0H250l.12,0,.12,0,.12,0,.11,0,.11,0,.1,0,.11,0,.1,0,.11,0,.1.05.11.05.1.06.11.06.11.06.11.05.1.07.11.06.1.06.11.07.1.06.1.07.09.07.1.07.09.07.09.07.1.07.08.08.09.07.09.08.09.08.09.08.1.09.09.08.09.09.1.09.1.09.09.09.1.09.09.09.08.09.09.1.08.09.09.1.07.1.08.1.07.11.07.1.07.12.06.11.07.12.07.12.07.13.06.13.14.26.06.13.07.13.06.13.06.14.06.14.06.15.05.15.05.16,0,.16,0,.17,0,.17,0,.18,0,.17,0,.17,0,.18,0,.17,0,.18,0,.18V203l0,.21,0,.23,0,.22,0,.23,0,.24,0,.23,0,.21,0,.23,0,.22,0,.22,0,.22,0,.2,0,.21,0,.21,0,.22,0,.23,0,.22-.05.23,0,.22-.05.23,0,.24-.06.23-.05.24-.06.22-.06.22-.06.23-.06.22-.06.22-.06.21-.06.2-.05.2-.07.21-.06.21-.06.21-.07.22-.07.21-.07.21-.08.23-.09.23-.1.23-.1.23-.1.23-.12.23-.12.24-.14.24-.14.23-.14.24-.16.24-.16.25-.18.24-.18.26-.38.5-.17.24-.16.22-.15.2-14.68,13.34a.94.94,0,0,0-.71.12,2.48,2.48,0,0,0-.88,1.36l0,.05-.12.13-.13.13-.14.15-.29.29-.16.15-.15.15-.17.15-.17.16-.18.15-.19.17-.2.17-.2.17-.2.18-.21.18-.21.19-.21.19-.22.2-.21.2-.21.2-.22.21-.22.21-.22.21-.22.21-.22.21-.23.2-.23.2-.23.21-.23.2-.23.21-.23.2-.23.2-.22.21-.23.21-.23.2-.22.21-.23.2-.23.2-.22.2-.24.19-.23.19-.23.18-.23.17-.22.17-.23.16-.23.17-.22.17-.22.16-.22.16-.21.16-.21.16-.22.16-.22.17-.22.17-.22.17-.22.17-.23.17-.23.17-.22.18-.22.17-.22.17-.2.17-.21.18-.2.18-.21.18-.4.36-.2.18-.2.18-.21.18-.22.19-.21.18-.23.19-.22.18-.23.18-.23.19-.23.18-.22.17-.21.18-.22.18-.21.18-.2.17-.19.16-.18.16-.16.15-.16.14-.15.14-.15.14-.13.13-.13.12h0l-.26.24-.12.13-.12.12L216,247l-.33.33-.11.11-.11.1-.11.1-.1.09-.09.09-.1.09-.09.08-.09.08-.09.08-.09.08-.08.08-.09.08-.16.16h0l-.16.16-.07.08-.07.08-.07.08-.06.08-.07.08-.06.08-.12.16-.07.09-.12.16-.06.08-.06.07-.06.08,0,.08-.06.07-.06.08-.1.14-.06.08-.05.07-.05.08,0,.07,0,.08-.05.08,0,.08-.05.08,0,.08,0,.08,0,.08,0,.07,0,.08,0,.07,0,.06,0,.07,0,.06,0,.12,0,.06v.06l0,.05,0,.06v.48l0,.1v.1l0,0,0,.05,0,0,0,.05,0,0,0,0,0,.06.05,0,.05.05.06,0,.07.05.07.05.16.1.09,0,.18.08.11,0,.11,0,.12,0,.26,0h.48l.19,0,.21,0,.21,0,.22-.06.23-.07.24-.09.24-.09.24-.11.24-.12.25-.13.25-.14.26-.14.26-.15.27-.15.27-.15.28-.15.28-.16.28-.17.29-.16.28-.18.29-.18.29-.19.3-.2.31-.21.31-.23.33-.23.33-.25.34-.26.35-.27.34-.27.35-.28.34-.28.35-.29.35-.28.35-.28.36-.28.35-.28.34-.27.35-.27.35-.28.35-.28.36-.28.36-.28.36-.28.38-.29.38-.3.39-.29.4-.31.4-.31.42-.32.42-.32.44-.34.45-.34,2.79-2.6a1.22,1.22,0,0,0,.82.13l.22-.07.13-.06a.94.94,0,0,0,.23-.16.47.47,0,0,0,.13-.15l0-.06a2.14,2.14,0,0,0,.31-.92c0-.18,0-.36.07-.54l4.07-3.8,0,0,.1-.11.15-.16.16-.16.16-.15h0l.17-.16.16-.16.17-.16.16-.15.16-.15.17-.16.18-.16.19-.17.19-.17.21-.17.21-.17.22-.17.23-.17.23-.18.24-.18.24-.19.24-.18.24-.19.24-.19.25-.19.24-.2.25-.19.26-.2.25-.2.26-.19.26-.19.78-.57.25-.18.25-.19.5-.36.23-.17.22-.17.24-.17.22-.16.23-.15.21-.14.2-.13.19-.12,5.43-4.56h0l0-.06.05-.1.08-.11.1-.11.11-.12.12-.13.28-.24.15-.13.17-.13.18-.15.2-.15.21-.15.23-.16.24-.15.25-.16.27-.16.27-.17.28-.16.28-.16.29-.15.29-.15.3-.14.31-.13.31-.13.31-.13.64-.26.22-.09h0a1.81,1.81,0,0,0,.51,1.18,1.14,1.14,0,0,0,.32.18l.46-.23.63-.32.65-.34h0a.29.29,0,0,0,0-.09.85.85,0,0,0,0-.23c0-.15,0-.33,0-.54s.05-.41.09-.63h0l.33-.12.32-.12.31-.11.62-.22.29-.09.27-.1.26-.08.26-.09.25-.08.23-.08.23-.07.22-.07.21-.06.21-.06.21-.05.38-.1.17,0,.16,0,.16,0,.16,0,.15,0,.14,0,.14,0h.14l.15,0h.91l.13,0,.12,0,.24,0,.12,0,.12,0,.13,0,.13,0,.13,0,.14,0,.14.05.14,0,.14.05.13,0,.13.05.24.12.12,0,.11.06.1.07.1.06.1.07.09.07.1.07.1.08.09.09.1.09.1.09.11.11.1.1.1.11.09.11.1.11.09.12.08.12.09.12.07.13.07.13.07.12.06.14.12.28.05.14.05.13.05.13,0,.13.05.14.05.13.05.13.1.24.06.12.05.12.06.12.05.11.1.22.05.12.05.1,0,.12,0,.1,0,.11,0,.11,0,.11,0,.11,0,.11,0,.1,0,.11,0,.12,0,.12,0,.13,0,.24,0,.12,0,.12v.12l0,.12v1.51l0,.18v.1l0,.05v0l0,.05v0l0,0v0l0,0,0,.05v0l0,0v0l0,.05V226l0,.1v.1l0,.11,0,.1,0,.1,0,.1,0,.1,0,.1,0,.09v.1l0,.09v.09l0,.09v.09l0,.09v.18l0,.18v1.9l0,.18V231l0,0v.14l0,0v0l0,.05,0,0v0l0,0,0,0,0,0,0,0,0,0,0,0,0,0,0,0,0,0,0,0,0,0,0,0,0,0,0,0,0,0,0,0,0,0,0,0,0,0,0,0,0,0,0,0,0,0h0l0,0h0l0,0,.08,0h2.16l.11,0h.1l.11,0,.11,0h0l.09,0,.11,0,.1,0,.11,0,.11,0,.11,0,.1,0,.11,0,.1,0,.1,0,.09,0,.1,0,.1,0,.1,0,.1,0,.1,0,.1,0,.11,0,.1,0,.11,0,.2.1.1.05.1.06.09.05.1.06.08.06.09.06.08.07.08.06.07.07.14.12.06.07.07.06.06.07.12.14.06.06.06.07.06.08.06.07.06.08.06.07.12.16.06.08,0,0,0,0,.06.09.05.09.06.09,0,.09.05.09,0,.09.05.09,0,.1,0,.09,0,.1,0,.12,0,.12,0,.12,0,.13,0,.13,0,.28v.15l0,.15v.87l0,.52,0,.12v.23l0,.11v.11l0,.1-.18,2.17h0l-.21,2.52,0,0-.05.1-.07.14-.08.16-.09.17-.09.16-.09.18-.11.19-.11.19-.12.2-.13.2-.12.2,0,0-.15.22-.15.22-.16.23-.17.24-.17.24-.18.25,0,.06-.14.19-.38.5-.19.26-.4.5-.19.26-.21.25-.2.26-.21.25-.2.24-.21.24-.21.25-.22.24-.21.25-.21.24-.42.5-.2.24-.2.25-.2.24-.19.24-.19.23-.19.24-.38.48-.19.23-.18.23-.19.23-.18.23-.19.22-.19.23-.19.21-.17.21-.18.21-.17.2-.17.2-.17.2-.17.2-.15.19-.15.18-.14.18-.14.18-.13.17-.26.34,0,.06-.07.09-.12.16-.13.17-.24.32-.11.15-.11.15-.08.11,0,0-.11.15-.1.14-.1.14-.1.12-.09.13-.1.12-.09.12-.09.13-.09.12-.09.12L272,260l-.1.12-.1.13-.1.13-.1.12-.1.13-.11.13,0,0h0l-.08.1-.11.14-.12.14-.11.13h0l-.12.15-.12.14-.12.15-.13.15-.12.15-.13.16-.12.14-.13.15-.12.15-.14.14-.14.16-.08.1-.06.06-.15.16-.14.16-.16.17-.16.17-.16.18-.17.17-.16.17-.17.17-.17.17-.17.17-.19.18-.35.35-.18.17-.36.36-.19.18-.18.18-.18.17-.18.17-.18.17-.19.17-.19.17-.19.17-.18.16-.18.15-.19.15-.18.16-.19.15-.18.15-.18.15-.18.15-.18.15-.17.15-.17.14-.17.14-.16.14-.16.14-.17.14-.18.13-.17.14-.17.12-.36.26-.19.12-.18.12-.18.12-.18.11-.18.11-.17.11-.18.11-.19.12-.18.12-.18.11-.18.12-.36.24-.14.1,0,0-.17.11-.17.11-.17.1-.16.09-.16.09-.16.09-.15.08-.13.08-.14.07-.12.07-.12.07-.08.05,0,0-.11.06-.1.06-.09.06-.08.06-.08.05-.07,0-.06,0-.05,0-.05,0-.05,0,0,0-.09.09,0,0v.12l0,0,0,0,.05,0,.07,0h.42l.16,0,.17,0,.19,0h0l.15,0,.21-.06.22-.06.23-.08.24-.08.26-.09.27-.1.28-.1.29-.11.12-.05.18-.07.3-.12.3-.13.32-.13.32-.14.33-.14.34-.14.35-.15.34-.16.19-.09h0l.15-.07.72-.34.37-.18.38-.19.38-.18.76-.38.38-.2.39-.2.34-.17,0,0,.39-.19.76-.36.37-.17.36-.17.36-.16.35-.16.35-.14.35-.14.34-.14.34-.12.33-.12.32-.12.32-.11.32-.11.32-.11.32-.1.31-.11.31-.1.31-.1.3-.1.21-.07h0l.06,0,.3-.1.29-.1.28-.09.28-.09.54-.16.26-.08.26-.07.24-.07.23-.07.22-.06.23-.06.22-.06.22-.05.21-.05.2,0h.05l.14,0,.19,0,.19,0,.18,0,.17,0,.16,0,.16,0,.15,0,.15,0,.14,0,.15,0,.13,0h.13l.13,0h2.24l0,0V265h0v-.21l0,0v-.05l0,0v-.05l0,0,0-.06,0-.05,0-.06,0-.07,0-.06,0-.07,0-.06,0-.08,0-.08,0-.08,0-.08,0-.08,0-.09,0-.09,0-.09,1.74-.13c.78,0,1.54,0,2.29.07C290.94,264.3,291.22,268.7,289.91,272.78Z"/><path class="cls-5" d="M247.72,110.61c-2-2.24,1.79-8.3,3.88-9.65,1.48-1.08,3.48.21,3.93,1.77.41,2.75-2,5-3.8,6.78-1.06,1-2.65,2.49-4,1.1"/><path class="cls-5" d="M328.56,69.66a2.55,2.55,0,0,1,2,3.22,8.94,8.94,0,0,1-2.42,3.94c-3.6,3.81-8.6,5.73-13.12,8.17a24.67,24.67,0,0,0-8.58,6.85c-1.5,2-2.48,4.31-4.77,5.56-.94.56-1.95,1.29-3.1,1.14a3.19,3.19,0,0,1-2.47-3.77c.52-2.69,2.23-5,3.5-7.42,3.47-6,7.88-12.6,14.87-14.64,2.31-.7,4.77.24,7-.61,2.4-.7,4.45-2.68,7.09-2.44"/><path class="cls-9" d="M286.86,235.79a13.77,13.77,0,0,1,.11,2.28C286.19,237.56,286.74,236.52,286.86,235.79Z"/><g class="cls-10"><g class="cls-11"><path class="cls-9" d="M180.3,238.08c-3.81-9.78-7.54-19.63-10.56-29.68h0a1,1,0,0,1,1.71-1,2.92,2.92,0,0,1,.69,1.13c1.74,4.27,3.12,8.68,4.74,13,1.92,5.41,4.11,10.73,6,16.16a.19.19,0,0,1,0,.08,4.1,4.1,0,0,0-.49.06c-.38.06-.74.15-1.11.24a6.16,6.16,0,0,0-1,0"/></g></g><g class="cls-12"><g class="cls-13"><path class="cls-14" d="M176.19,239a1.24,1.24,0,0,1-2.3.63c-.17-.38-.33-.76-.49-1.14l.19,0,.19.05.09,0,.17,0,.09,0,.66.14.34.06.18,0,.18,0,.35,0,.35,0"/></g></g><path class="cls-9" d="M281.43,263.5a31.2,31.2,0,0,0-3.8.71c-5.95,1.46-12.21,4.51-18.15,7.74h0l-.17.09.16-.1h0c6.59-4.81,13.22-9.77,18.57-16,.58-.66,1.14-1.33,1.68-2,1-1.43,2.43-3.35,3.73-5.49.51-.85,1-1.73,1.46-2.63.28-.53.53-1.06.77-1.59.05.28.1.55.17.83s.18.75.29,1.13c0-.44,0-.89,0-1.33h0c0-.73,0-1.45,0-2.18a18.43,18.43,0,0,0,.79-4.62,13.77,13.77,0,0,0-.11-2.28v0h0a5.78,5.78,0,0,0-.69-1.44,6,6,0,0,0-1.27-1.4,6.55,6.55,0,0,0-.93-.68c-.14-.09-.29-.17-.44-.25a11.13,11.13,0,0,0-3.16-1.14,8.92,8.92,0,0,0-2.52-.16,28.35,28.35,0,0,0,.95-3.3c2-7.31-2.79-14.74-10.81-13.34a21.38,21.38,0,0,0-3.71,1.09c-4.79,1.85-9,5.15-13.11,8.14a201.06,201.06,0,0,0-17.94,15.29L230.7,241c-3.87,3.54-11.92,11.52-17.21,11.49,1.72-3,4.73-5.17,7.25-7.55q4.31-3.74,8.66-7.44c1.41-1.23,2.85-2.44,4.3-3.64,7.3-6,14.92-11.95,19.85-20.1,2.12-3.84,3.86-8.24,3.41-12.69-.46-5.57-5.2-9.37-10.72-8a18.67,18.67,0,0,0-4.82,1.75,44.5,44.5,0,0,0-4.83,2.91c-3.17,2.17-6.2,4.53-9.14,7-6.13,5.09-12,10.47-17.82,15.91-5.47,5.21-11.53,9.9-18.58,12.76-3.52,1.5-10.72,3.69-15.72,2.9-.79-2.14-1.62-4.26-2.35-6.41-1.86-5.69-3.62-11.69-5.52-17.41-.28-.87-.56-1.74-.83-2.62h0l-.35-1.17,0-.07h0l-.32-1.05c-3-9.64-5.61-19.37-8.4-29.07-1.69-6-2.93-12.18-4.9-18.12l.24,0a32.48,32.48,0,0,0,4.3.31c18.29,0,36.28-2.44,54.42-4.88l6.4-.92,2.91-.43c8.35-1.25,16.69-2.6,25-4.21q4.68-.89,9.33-1.91c6.17-1.42,12.4-2.74,18.45-4.63,1.4-.44,2.78-.9,4.15-1.4l.16-.06a15.34,15.34,0,0,0,4.73-2.5,6.82,6.82,0,0,0,.53-.55l.18-.21a2.07,2.07,0,0,0,.28-2.44,1.87,1.87,0,0,0-.83-.71,2.17,2.17,0,0,0-.74-.18c-.76,0-1.52-.07-2.29-.08h0c-8.35-.17-16.68,1.05-25,2.08-1.51.19-3,.37-4.52.53-8.62,1.08-17.28,2.13-25.9,3.31l-3,.41-2.52.36a586.61,586.61,0,0,0-59.53,11.23c-2.13.54-4.28,1.07-6.4,1.68-1.1.4-2.52.53-3.26,1.52a1.27,1.27,0,0,0-.31.34,2.46,2.46,0,0,0,0,2c.4,1.32.89,2.61,1.28,3.94,3,11.29,5.93,22.6,9.29,33.8,1,3.77,2.15,7.52,3.3,11.26a33.83,33.83,0,0,0-3.65,3.39c-8.64,8.93-13.79,20.39-20.37,30.78C128.23,259,111.34,263.93,92.51,267a272.25,272.25,0,0,1-43.7,3.86c-11.5-.23-23.16-.24-34.34-3.28a1.12,1.12,0,0,0-1.36.76.88.88,0,0,0,0,.56c.67,1.84,6.88,2.55,8.71,2.95,8.33,1.39,16.82,1.37,25.25,1.62a256.41,256.41,0,0,0,39.11-2.85c12.8-1.93,26-4,37.43-10.33a51,51,0,0,0,17.29-15.84c4.1-6.05,7.28-12.64,11.19-18.8A79,79,0,0,1,164,210.36q1.09,3.49,2.23,7c1.93,5.93,3.63,11.94,5.82,17.78a5.08,5.08,0,0,1-.51-.41,1.11,1.11,0,0,0-1.74.2c-.7,1.6,1.31,2.79,2.61,3.26.32.11.64.22,1,.31l.19,0,.19.05.09,0,.17,0,.09,0c.22.05.43.1.66.13s.23,0,.35.06l.17,0,.18,0,.35.05c.12,0,.23,0,.35,0a29.31,29.31,0,0,0,8.75-.79,51.38,51.38,0,0,0,17.29-7.92c4.7-3.28,8.78-7.32,13-11.19,8-7.24,15.93-14.67,25-20.53,3-1.77,6.63-3.77,10.22-2.79,3.74,1.29,4.45,5.95,3.68,9.37-1.24,5.9-4.85,10.93-9,15.18-10.14,10-22.08,18.13-32.08,28.31-1.94,1.88-3.75,5.42-.07,6.48,3.93.59,8.35-3,11.47-5.08,7.73-6.17,14.31-13.66,22.11-19.76,4.54-3.48,9.91-8.17,15.46-11.14a4.92,4.92,0,0,1,.45-.24l.63-.32.63-.3a22.89,22.89,0,0,1,4.48-1.59c6.34-1.21,9.49,4.47,8,10.08-1.87,8.25-7.67,14.87-13.6,20.61a162.61,162.61,0,0,1-20.37,16c-3.31,2.24-6.76,4.2-10.18,6.29a1.34,1.34,0,0,0-.68,1.67c.73,1.56,2.18.54,3.18-.11,1.37-.85,2.79-1.65,4.17-2.49a151.6,151.6,0,0,0,29.09-22.9,49.22,49.22,0,0,0,8.83-12.35,8,8,0,0,1,5.29.63c4.14,1.79,2.49,6.5,1,9.6a47.89,47.89,0,0,1-4.53,7.61A66.54,66.54,0,0,1,268,262.08c-5.86,4.86-12.15,9.18-18.33,13.62-1.57,1.14-3.13,2.29-4.77,3.32a5.1,5.1,0,0,0-1.57,1.19h0c-.64.36-1.25.91-1.74,1.25a1.36,1.36,0,0,0,.87,2.32c1.6-.12,2.93-1.29,4.37-1.92,3-1.52,5.89-3.14,8.79-4.79,8-4.35,16.05-9.05,25.07-10.85,2.13-.23,4.82-1,6.64.47,1.94,4.05-1.15,8.63-3.79,11.63-7.17,7.4-16.94,11.66-26.45,15.23-4.31,1.59-8.72,2.79-13,4.33-1.56.59-3.14,1.15-4.67,1.8a1.32,1.32,0,0,0-.81,1.39,25.79,25.79,0,0,0-2.35,1.18c-2.46,1.39-4.89,2.85-7.42,4.12-11.31,5.79-22.9,11-34.53,16.14-14,6.22-28.68,10.8-43,16.18-5.83,2.16-11.31,5.15-17,7.7-4.66,2.14-9.46,4-14.28,5.7q-20.61,7.31-41.69,13.13-9.4,2.59-18.91,4.91c-4,1-8.12,1.89-12.23,2.65a106.76,106.76,0,0,1-15.53,1.9c-3.68.14-7.37,0-11.06,0a1.14,1.14,0,0,0-1.09.65,1,1,0,0,0-.12.42,1.15,1.15,0,0,0,1.07,1.21c2.66.22,5.32.37,8,.43h.35c8.58,0,17.08-1.49,25.44-3.35,10.75-2.35,21.32-5.26,31.94-8.28,14.59-4.27,29.12-8.86,43.29-14.39,7.86-3.11,15.23-7.35,23.14-10.35,8.18-3.11,16.5-5.81,24.71-8.85q13.88-5.14,27.31-11.36c11.09-5.09,22.27-10.07,32.69-16.44l.41-.27c1.19-.66,2.36-1.34,3.53-2,.33-.25.87-.5,1.33-.81l.09,0c2.11-.83,4.26-1.57,6.43-2.25h0c13-4.07,28.62-9.68,37.59-20.28a14.29,14.29,0,0,0,1.58-2.21l.14-.3h0l.07-.16.14-.3.88-1.78.1-.27c.11-.3.22-.6.32-.9,1.31-4.08,1-8.48-3.69-9.4-.75-.06-1.51-.08-2.29-.07l-1.74.13ZM220.64,144.7c1-.15,2-.28,3-.41q7.49-1,15-2c4.71-.52,9.42-1.15,14.13-1.77a229.6,229.6,0,0,1,25.08-2.31c.86,0,1.73,0,2.59,0h0a29.92,29.92,0,0,1-4,1.87c-3.71,1.42-7.69,2.26-11.51,3.32q-8.44,2.08-17,3.78-10,2-20.09,3.57l-6.23.93-2.92.44c-20,3-40.1,5.71-60.33,6h0a34.7,34.7,0,0,1-5.39-.36A621.82,621.82,0,0,1,220.64,144.7Z"/><path class="cls-9" d="M249,26.76c9.82,2.91,19.66,7.44,26.59,15.19a63.33,63.33,0,0,0-11.2-29.05C259,4.83,248.33.65,238.94,3.56a11.87,11.87,0,0,0-6.63,6.09c-1.66,3.45-.43,7.66,1.9,10.47,1.61,1.8,3.91,2.78,6.11,3.68,2.85,1.15,5.8,2,8.72,3m28.24,22.13a5.33,5.33,0,0,1-.59-1.68,32.6,32.6,0,0,0-4.18-4.9,52.22,52.22,0,0,0-14.76-9.63c-5.91-2.71-12.35-4-18.37-6.41-5.2-1.88-9-5-10.21-10.6s2.41-11.54,7.49-14c6.31-2.64,13.92-2,20,1.08A28.65,28.65,0,0,1,268.29,14a75.56,75.56,0,0,1,6.59,13.23c2.08,5.49,2.87,11.31,3.81,17.06.22,1,.47,2,.74,3a2,2,0,0,1,.07,1.28,1.3,1.3,0,0,1-2.22.36"/><path class="cls-9" d="M181.3,31c7.21-.3,10.89-10.45,4.33-14.45a9.06,9.06,0,0,0-4.83-1.74,3.15,3.15,0,0,0-3,1.26,11,11,0,0,0-3.46,4.85c-.72,2.43.28,5,1.54,7.08a6,6,0,0,0,5.44,3m-4.6,1.48c-3.36-2.07-5.08-6.17-5.27-10A9.33,9.33,0,0,1,172.72,18a7.79,7.79,0,0,1,1.8-3.17c6.61-7.15,19.83,1.33,16.82,10.36-1.41,6.27-8.76,10.61-14.64,7.25"/><path class="cls-9" d="M289.59,273.68l-.1.27-.88,1.78.12-.26Z"/><path class="cls-9" d="M327.1,62.21c-10.31-2.22-24,10.29-30.32,17.66a216.77,216.77,0,0,0-13,18.49c-2.16,3.14-8.47,13.59-13.91,18.87a14.45,14.45,0,0,1-3.42,2.6,3.59,3.59,0,0,1-2.45.44s-.06-.08-.12-.12c-.87-1.2-.18-3,0-4.33,1.3-6.86,4.89-13.27,4.9-20.35.36-5.33-2.63-11.63-8.87-10.17-7.32,2.52-12.57,8.75-17.59,14.35-6.95,8.12-11.79,17.73-15.8,27.57-1.93,4.82-3.57,9.74-5,14.71-.27.92-.54,1.85-.79,2.77-.7,2.47-1.35,4.94-2,7.42l-.45,1.8c-.09.33-.17.66-.25,1-2.26,8.8-3.87,17.72-7.15,26.22-11.53,1.59-23.85,4-32.81,12-3.73,3.85-8.7,9.38-8.47,15a8.73,8.73,0,0,0,7.82,8.66,19.1,19.1,0,0,0,2.12.12c15.11,0,26.46-18.9,32.46-31.57,0-.09.07-.17.11-.26s.22-.47.33-.71.22-.47.34-.71c0,0,0,0,0,0l.06-.12c.16-.43.31-.85.48-1.27s.42-1.11.65-1.67c0-.11.09-.21.13-.32,2.76-7.79,4.34-15.95,6.37-23.95l.45-1.8c.24-.93.47-1.87.71-2.8.64-2.47,1.3-4.93,2-7.39.26-.92.52-1.85.8-2.77.64-2.18,1.32-4.36,2-6.52,4.47-12.31,9.81-24.34,18.51-34.34,4-4.45,8.16-9.07,13.54-11.89,6.25-3.48,8,3.28,7.47,8.23-.25,3.81-1.85,7.64-2.92,11.3-.87,4-5.13,13.09.61,14.73l.29.08c4.31.34,8.69-4.46,12.07-8.82,0,0,0,0,0,0,1.36-1.75,2.55-3.44,3.52-4.69,6.71-9.7,12.73-20.16,20.39-29.21A61.82,61.82,0,0,1,317,66.74c3-1.38,6.79-2.87,10.17-1.69,6.44,2.45,4.67,8.53,1.47,13-10.48,14-23.76,25.54-34.52,39.28-4.46,5.71-8.78,11.73-11.29,18.58-.19.49-.36,1-.52,1.48-.05.17-.11.37-.17.61l.17.11a.85.85,0,0,1,.14.19h0a.29.29,0,0,1,.12.1l0,0a.29.29,0,0,1,0,.22c0,.18,0,.35,0,.53s0,.2,0,.3,0,.21,0,.32,0,.38,0,.57c0,.56.09,1.12.13,1.69,0,.12,0,.24,0,.37h0c1.65,29.23.26,58.54.63,87.8,0,.59,0,1.18,0,1.76s0,1.15,0,1.73l.16.1a2.43,2.43,0,0,1,.45.4,2.69,2.69,0,0,1,.2.27l0,0A4.44,4.44,0,0,1,285,236a8.66,8.66,0,0,1,.12.87c0,.24,0,.48.05.72,0,0,0,.1,0,.14a3.49,3.49,0,0,1,.17,1.36,6.37,6.37,0,0,1-.55,1.9h0a8.76,8.76,0,0,1-.39.82,8.21,8.21,0,0,1-.48.81l-.39.49c0,.41,0,.83,0,1.24s0,.72,0,1.08c0,1,0,2-.07,3s-.06,2-.11,3-.13,2.23-.18,3.35c0,.34,0,.69,0,1a72.3,72.3,0,0,1-.62,8.49,26,26,0,0,0,2.68-.79s.55-6.48.67-10c0-.35,0-.7.06-1,.12-2.09.18-4.19.22-6.28,0-.44,0-.89,0-1.33h0c0-.73,0-1.45,0-2.18,0-2.81,0-5.61,0-8.4,0-.75,0-1.49,0-2.23-.11-16.27,0-32.53.13-48.8.05-14.2.23-28.44-1.06-42.6-.12-.64-.07-1.79-.25-2.75a.14.14,0,0,0,0-.06c2.76-8.17,8.16-15.06,13.54-21.72,6.46-7.71,13.46-14.95,20.28-22.35,5-5.86,14.73-14.73,15.46-22.41C334.69,67,331.26,63.1,327.1,62.21Zm-146.3,152c-5.51.54-9.25-2.19-8.44-8,1.75-5.35,6-10.28,10.57-13.5,7.84-5.27,17.41-7.28,26.64-8.62C204.3,195,194.16,212.79,180.8,214.17Z"/></svg>