<svg id="Layer_1" data-name="Layer 1" xmlns="http://www.w3.org/2000/svg" viewBox="0 0 368.3 267.69"><defs><style>.cls-1{fill:#f3af49;}.cls-2{fill:none;stroke:#000;stroke-miterlimit:10;stroke-width:2px;}.cls-3{fill:#f7cc50;}</style></defs><path class="cls-1" d="M91.56,69c22.66-11.31-22.39-52.14,22.66-66.83,38.08-12.43,46.56,80.19,96.62,38s96-35.55,109.89,5.14c15.2,44.48-53.9,88.37-28.69,80.19,76.55-24.83,101.72,58.61,42.48,74s-61.29,12.34-62.32,31.87S238.61,287,200.4,252s-79.67,28.76-109.83-34-77.92,1-88.48-36,59.54-26.6,51.27-53.47S16.29,97.53,21.19,75.18C28.34,42.65,68.9,80.29,91.56,69"/><path class="cls-2" d="M91.56,69c22.66-11.31-22.39-52.14,22.66-66.83,38.08-12.43,46.56,80.19,96.62,38s96-35.55,109.89,5.14c15.2,44.48-53.9,88.37-28.69,80.19,76.55-24.83,101.72,58.61,42.48,74s-61.29,12.34-62.32,31.87S238.61,287,200.4,252s-79.67,28.76-109.83-34-77.92,1-88.48-36,59.54-26.6,51.27-53.47S16.29,97.53,21.19,75.18C28.34,42.65,68.9,80.29,91.56,69Z"/><path class="cls-3" d="M120.27,97.2A6,6,0,0,0,125.06,94c2-8-3-15-3-23,1-11,12-16,21-12,14,7,16,27,32,28,10,1,15-10,22.84-15.17,1.9-1.39,3.78-2.67,5.65-3.82,16.31-10.14,31.23-11.66,41.95-6a26.41,26.41,0,0,1,5.9,4.22c23.66,24.81-30,49.69-25.34,67.81s57-13,62.12,15.69a21.76,21.76,0,0,1-.78,7.61c-2.13,7.43-8.37,14-19.29,16.87-3,.79-5.81,1.5-8.38,2.15s-4.92,1.21-7.14,1.7c-2.76,1-6.39,1-9.71,1.6s-6.31,1.89-7.81,5.46c-.75,5.23-1.5,11-2.66,16.5a79.82,79.82,0,0,1-2.09,8.06C227.06,222,214.06,234,202.06,225c-10-8-16-24-30-23-15,1-32,10-46-2-4-3-8-9-7.39-14.64a28.84,28.84,0,0,0-2.22-6.47,12.11,12.11,0,0,0-4.39-4.89c-13-8-28,2-41-3-5-3-6-11-2-15,10-9,27-2,35-12,11-16-17-25-26-37-3-5-2-11,1.43-15.93a9.65,9.65,0,0,1,6.3-1.59,36.06,36.06,0,0,1,8,1.54,39.82,39.82,0,0,1,8.84,2.9,28.7,28.7,0,0,0,9.1,2.52,23.34,23.34,0,0,0,8.57.74"/></svg>