<svg id="Layer_1" data-name="Layer 1" xmlns="http://www.w3.org/2000/svg" viewBox="0 0 54.83 147.88"><defs><style>.cls-1{stroke:#000;stroke-linecap:round;stroke-linejoin:round;stroke-width:2px;}</style></defs><path class="cls-1" d="M41.36,43.9c-3.47-4.7-6.31-9.21-6.31-15.81V14.64h.87a1.79,1.79,0,1,0,0-3.57l1.33,0V2.63A1.63,1.63,0,0,0,35.61,1H19.21a1.63,1.63,0,0,0-1.63,1.63v2.7h0v5.72h0l1.32,0a1.79,1.79,0,0,0,0,3.57h.87V28.09C19.77,45.07,1,48.18,1,76.37v64.16a3.76,3.76,0,0,0,1.32,3.09,12.31,12.31,0,0,0,4,1.47c8.38,1.83,24.24,2.55,37.59.74a36,36,0,0,0,6.84-1.6c2.32-1,3.13-2.12,3.13-4.18V76.37C53.83,59.14,46.82,51.28,41.36,43.9Z"/></svg>