<svg id="Layer_1" data-name="Layer 1" xmlns="http://www.w3.org/2000/svg" xmlns:xlink="http://www.w3.org/1999/xlink" viewBox="0 0 303.51 420.31"><defs><style>.cls-1{fill:none;}.cls-2{fill:#4b773a;}.cls-3{fill:#f3af49;}.cls-4{fill:#608e61;}.cls-5{fill:#7bab5a;}.cls-6{fill:#f3f1dd;}.cls-7{opacity:0.57;}.cls-8{clip-path:url(#clip-path);}.cls-9{fill:#ea3223;}.cls-10{clip-path:url(#clip-path-2);}.cls-11{clip-path:url(#clip-path-3);}.cls-12{fill:#f7cc50;}.cls-13{fill:#f1b0b0;}.cls-14{fill:#262526;}</style><clipPath id="clip-path"><rect class="cls-1" x="132.56" y="97.99" width="2.91" height="2.79"/></clipPath><clipPath id="clip-path-2"><rect class="cls-1" x="165.99" y="59.47" width="3.12" height="0.75"/></clipPath><clipPath id="clip-path-3"><rect class="cls-1" x="103.11" y="90.7" width="2.56" height="2.92"/></clipPath></defs><path class="cls-2" d="M16.42,302.15v.13l0,0v0l0,0,0,0,0,0,0,0h-.05l-.05,0h-.06l-.07,0h-.66l-.11,0h-.11l-.13,0-.13,0-.14,0-.14,0-.14,0-.13,0-.14,0-.15,0-.15-.05-.14,0-.15,0-.15-.05-.14,0-.14,0-.14,0-.13,0-.13,0-.12,0-.11,0-.12,0h-.12l-.11,0h-.12l-.12,0-.11,0-.12,0-.11,0h-.1l-.1,0-.09,0-.09,0-.08,0-.08,0-.07,0-.06,0-.06,0c0-.22,0-.44.05-.67a44.4,44.4,0,0,0-.06-5h0l.06-.32.05-.32.06-.3.05-.29,0-.28.05-.27,0-.24,0-.21,0-.2,0-.17,0-.16,0-.14,0-.13.07-.11.11-.1.12-.07.12-.06.11-.05.56-.07v0l0,.1,0,.14,0,.18.05.17,0,.17.05.16.06.16.07.15.08.16.07.15.09.16.08.17.09.17.08.18.09.19.09.2.08.2.08.21.09.23.08.23.08.23.09.25.09.24.09.25.09.25.09.25.09.24.09.24.09.24.08.22.09.22.08.21.08.21.09.2.08.2.08.19.07.17.08.17.07.16.08.15.07.14.07.14.07.12.06.11.06.11.05.11.05.1,0,.08,0,.09,0,.07,0,.08,0,.06,0,.06,0,.06,0,.05,0,.05,0,0,0,0,0,.05v0l0,0v.39Z"/><polyline class="cls-3" points="0.01 240.68 0.01 240.68 0.01 240.68"/><path class="cls-3" d="M0,240.65v0"/><path class="cls-3" d="M0,240.63v0"/><path class="cls-3" d="M3.9,195.06v0"/><path class="cls-3" d="M3.92,192.21v0"/><polygon class="cls-2" points="19.77 279.49 19.77 279.54 19.77 279.6 19.76 279.64 19.75 279.69 19.74 279.74 19.72 279.78 19.71 279.82 19.68 279.87 19.66 279.91 19.63 279.95 19.59 279.99 19.55 280.02 19.5 280.06 19.45 280.09 19.39 280.12 19.33 280.14 19.26 280.16 19.19 280.17 19.11 280.18 19.03 280.19 18.95 280.19 18.86 280.19 18.77 280.2 18.67 280.2 18.57 280.2 18.46 280.21 18.35 280.21 18.24 280.22 18.13 280.24 18.02 280.25 17.92 280.27 17.82 280.29 17.72 280.31 17.62 280.34 17.52 280.36 17.43 280.39 17.34 280.42 17.25 280.45 17.15 280.48 17.06 280.52 16.96 280.55 16.86 280.6 16.76 280.64 16.66 280.69 16.55 280.75 16.45 280.81 16.35 280.87 16.26 280.93 16.17 280.99 16.08 281.06 16 281.13 15.93 281.19 15.85 281.25 15.79 281.31 15.73 281.37 15.67 281.42 15.61 281.48 15.56 281.53 15.51 281.57 15.47 281.62 15.43 281.66 15.39 281.7 15.35 281.74 15.3 281.77 15.27 281.81 15.23 281.84 15.19 281.87 15.15 281.9 15.11 281.93 15.07 281.95 15.03 281.98 14.99 282 14.96 282.02 14.92 282.04 14.89 282.06 14.86 282.07 14.82 282.09 14.8 282.1 14.77 282.11 14.74 282.13 14.71 282.13 14.69 282.14 14.65 282.15 14.62 282.15 14.58 282.14 14.55 282.13 14.51 282.11 14.48 282.09 14.44 282.05 14.41 282 14.37 281.94 14.34 281.88 14.31 281.8 14.28 281.72 14.26 281.63 14.23 281.53 14.21 281.42 14.19 281.29 14.17 281.17 14.16 281.02 14.15 280.86 14.15 280.69 14.16 280.51 14.17 280.31 14.19 280.11 14.22 279.89 14.26 279.66 14.3 279.42 14.35 279.17 14.41 278.91 14.47 278.64 14.54 278.36 14.61 278.08 14.69 277.79 14.76 277.51 14.84 277.23 14.92 276.95 15 276.68 15.08 276.4 15.16 276.14 15.24 275.88 15.32 275.62 15.4 275.36 15.48 275.11 15.56 274.86 15.63 274.61 15.7 274.37 15.77 274.13 15.82 273.91 15.88 273.69 15.93 273.48 15.97 273.29 16.02 273.1 16.05 272.94 16.09 272.79 16.11 272.64 16.14 272.51 16.16 272.38 16.19 272.25 16.21 272.13 16.23 272.01 16.25 271.9 16.28 271.79 17.55 270.21 17.55 270.22 17.54 270.31 17.54 270.44 17.54 270.58 17.55 270.73 17.55 270.88 17.57 271.02 17.58 271.17 17.6 271.33 17.62 271.5 17.64 271.67 17.67 271.84 17.7 272.02 17.73 272.21 17.77 272.41 17.81 272.61 17.85 272.82 17.9 273.03 17.95 273.25 17.99 273.47 18.05 273.69 18.1 273.93 18.15 274.16 18.2 274.39 18.26 274.62 18.31 274.85 18.36 275.08 18.42 275.31 18.48 275.54 18.53 275.76 18.59 275.97 18.64 276.18 18.7 276.38 18.76 276.58 18.82 276.78 18.89 276.97 18.95 277.15 19.01 277.32 19.07 277.48 19.13 277.63 19.18 277.77 19.24 277.9 19.29 278.02 19.34 278.14 19.38 278.25 19.43 278.35 19.47 278.45 19.5 278.55 19.54 278.64 19.57 278.72 19.61 278.81 19.63 278.88 19.66 278.96 19.68 279.03 19.7 279.1 19.72 279.16 19.73 279.22 19.75 279.28 19.75 279.33 19.76 279.39 19.77 279.44 19.77 279.49"/><path class="cls-4" d="M140,102.94v-.26l0-.12,0-.12,0-.12,0-.12,0-.12-.06-.12-.06-.12-.07-.11-.05-.08h0L127.74,98l-7.43-2.44a4.86,4.86,0,0,1-.81.15,1.31,1.31,0,0,1,.68,1,1.44,1.44,0,0,1-.12.77,1.26,1.26,0,0,1,0,.38,19.83,19.83,0,0,1-2.07,6.19,18.09,18.09,0,0,0-2,4c0,1.56.51,3.11.37,4.69-.25,4.25-3,6.28-7.15,5.47-2.21-.5-7.88-.88-6.67-4.31.65-1.25,1.67-2.28,2.3-3.53-.64-.81-1.74-1.12-2.43-1.9-1.35-1.37-1.28-3.45-.94-5.22a35.31,35.31,0,0,1,2.8-8.4,7,7,0,0,1,1.5-2.4,1,1,0,0,1,1.58.77c0,.06,0,.12,0,.18a2.13,2.13,0,0,1,.42.1c1,.28,2,.54,3,.75s2.3.41,3.45.62a6.73,6.73,0,0,1-2.15-2l-2.44-.8-.32-.07L109,92l-.33-.06-.33,0-.33,0-.33,0-.32,0-.31,0-.31,0-.3,0-.3,0-.29,0-.29,0-.28,0h-3.17l-.19,0h-.54l-.16,0h-.15l-.15,0-.15,0-.14,0-.13,0-.12,0-.13,0-.12,0-.11.05-.1,0-.1,0-.09,0-.1.06-.09.06-.09.07-.09.07-.09.07-.08.07-.08.07-.07.08-.07.08-.06.08-.06.08,0,.08,0,.08,0,.08,0,.09,0,.08,0,.09,0,.09,0,.1,0,.1,0,.1-.05.11,0,.11,0,.11,0,.12-.05.13,0,.13,0,.14,0,.14-.06.15-.06.17-.07.17-.07.17-.07.18-.06.17-.07.18-.07.19-.07.2-.07.19-.06.2-.07.2-.06.21-.06.2-.06.21-.06.21L97,97.9l-.06.21-.05.2,0,.21,0,.21,0,.21,0,.21,0,.2,0,.2,0,.2,0,.2,0,.2,0,.18,0,.19,0,.18v1.61l0,.14,0,.13,0,.13,0,.12,0,.11,0,.11,0,.1,0,.11,0,.1,0,.1,0,.1,0,.09,0,.08,0,.08.05.08,0,.08,0,.06,0,.07,0,.06.05.06,0,0,.06.06,0,.06.06,0,.06,0,.06.05.05.06.07.05.06.06.06.06.06.06.06.06.06.06.06.06,0,.07.05.07,0,.06,0,.07,0,.07,0,.07,0,.07,0,.07,0,.07,0,.08,0,.08,0,.08V106l0,.08v1l0,.1v.11l0,.1v.11l0,.11,0,.1v.11l0,.09,0,.1v.1l0,.09,0,.09v.09l0,.08,0,.08,0,.08,0,.09,0,.08,0,.08,0,.08,0,.08,0,.08,0,.08,0,.08,0,.08,0,.08-.06.07-.06.08-.07.08-.08.07-.07.08-.08.07-.09.08-.09.08-.1.08-.1.08-.1.08-.1.09-.1.08-.1.09-.1.09-.09.09-.09.09-.09.09-.09.1-.1.1-.09.11-.1.11-.09.11-.09.12-.09.13-.09.13-.09.13-.09.13-.07.13-.08.13-.07.13-.07.13-.07.13-.07.14-.06.13-.07.13-.06.14-.06.14-.06.14-.06.14,0,.14,0,.13-.05.14,0,.14,0,.14,0,.13,0,.13,0,.12,0,.13,0,.12,0,.13,0,.12v1.49l0,.12v.23l0,.11,0,.1,0,.1,0,.09,0,.09,0,.08,0,.08,0,.08,0,.07,0,.07,0,.06,0,.06,0,.07,0,.06,0,.06,0,0,0,.06,0,0,0,.06,0,.06,0,0,0,.06,0,0,0,.06,0,0,0,0,0,.06,0,0v0l0,.06v.82l0,.08V120l0,.09,0,.09,0,.09,0,.1,0,.11,0,.1,0,.11,0,.11,0,.12,0,.12,0,.11v.08h0l-6.29,19.28,0,.18,0,.18,0,.19,0,.19-.05.21,0,.2,0,.2-.06.21-.06.21-.06.21-.07.22-.07.22-.07.22-.08.21-.07.22-.08.22-.09.22-.08.22-.09.22-.08.22-.09.21-.09.23-.08.21-.08.22-.08.22-.08.21-.08.2-.08.21-.08.21-.07.2-.08.19-.08.19-.07.19-.08.2-.08.19-.07.18-.08.19-.07.18-.07.18-.08.18-.07.18-.07.17-.07.17-.06.17-.07.16-.07.16-.08.15-.07.15-.08.15-.07.14-.08.14-.08.14-.08.14-.08.13-.08.12-.08.12-.08.12-.09.11-.08.11-.09.11-.08.1-.09.1-.09.1-.08.1-.09.09-.09.09-.09.08-.08.09-.1.07-.09.08-.09.07-.09.08-.1.07-.1.07-.1.07-.11.07-.1.06-.11.07-.11.07-.11.06-.11.06-.11.06-.11.06-.11.05-.1,0-.11,0-.11,0-.11,0-.1,0-.11,0-.11,0-.1,0-.11,0-.11,0-.11,0-.1,0-.11,0-.1,0L80,154l-.11,0-.12,0-.11,0-.11,0-.12,0-.13,0-.13,0-.13,0-.13,0-.13,0-.12,0-.13,0-.13,0-.13,0-.12,0-.13,0-.13,0-.13.05-.14,0-.14,0-.14.05-.14,0-.14.05-.15,0-.15.05-.15,0-.15.05-.16.05-.16.06-.17.05-.18.06-.18.06-.18,0-.19.06-.18.06-.19.06-.19.05-.19.06-.19,0-.19.05-.2.06-.2,0-.2.06-.2.05-.19.06-.2.05-.2.06-.21.06-.21.05-.21.07-.22.06-.21.06-.21.06-.22.07-.22.06-.23.06-.23.07-.23.06-.22.06-.23.06-.22.06-.23.06-.23,0-.22.06-.23.05-.23.05-.22,0-.21.05-.22,0-.22.05-.23.05-.23.06-.22,0-.22.05-.22,0-.21.05-.23.06-.22,0-.23.05-.23.05-.21.06-.22,0-.22.05-.22,0-.23.05-.22.05-.21,0-.2.05-.21,0-.21.05-.2.05-.2.06-.2.05-.19.06-.2.06-.19.06-.19.06-.19.07-.19.06-.2.07-.19.08-.2.08-.19.08-.19.08-.19.08-.18.09-.2.1-.19.09-.19.1-.2.11-.18.1-.18.11-.19.1-.19.12-.19.11-.19.12-.18.12-.19.12-.19.13-.19.12-.18.11-.18.12-.19.12-.18.11-.18.12-.18.11-.17.11-.17.1-.16.09-.15.1-.16.09-.16.1-.15.09-.15.1-.14.09-.14.09-.14.09-.14.09-.13.1-.14.09-.13.09-.13.1-.14.1-.14.1-.13.1-.13.1-.13.1-.12.1-.12.1-.12.1-.13.1-.12.1-.12.1-.11.11-.13.11-.11.1-.12.11-.11.11-.1.09-.09.1-.1.1-.09.09-.1.1-.08.09-.08.09-.07.08-.07.09-.07.08-.06.08-.05.08,0,.07,0,.07,0,.07,0,.06,0,.06,0,0,0,0v0h0l-3.28,3.18-4.79,9.61h0L19.5,258.88l0,.16,0,.15V260l0,.12,0,.11,0,.11,0,.12,0,.12,0,.11,0,.11,0,.1,0,.09.05.08.05.06,0,.06.05,0,.05,0,.05,0h.34l0,0h.09l0,0h0l0,0,0,0h.05l0,0,0,0,0,0,.05,0,0,0,0,0,0,0,0,0,0,0,0,0,.05,0,0,0,.05,0,.05,0,.05,0,.06,0,.06,0,.06,0,.07,0,.07,0,.06,0,.07,0,.08,0,.08,0,.08,0,.08,0,.08,0h.09l.09,0,.1,0h.09l.1,0h1.59l.1,0h.11l.11,0,.12,0,.11,0,.12,0,.13,0,.12,0,.13,0,.12,0,.12.05.12,0,.12.05.12.05.11.05.11,0,.1.05h.12l.18,0,.18,0,.18,0,.18,0,.19,0,.18.05.19.05.2.05.18,0,.19.06.18.06.19.07.19.07.2.07.19.07.19.08.19.08.19.08.19.08.19.08.19.09.19.1.19.09.19.1.19.1.18.1.18.11.18.11.18.12.18.13.16.13.17.13.15.14.16.14.15.15.15.15.15.16.15.15.14.15.15.15.14.16.14.15.15.15.14.16.15.15.14.15.15.16.14.15.15.15.14.16.14.15.15.16.15.16.14.16.15.16.14.15.14.16.15.16.14.16.15.15.14.16.15.15.14.15.15.15.14.15.15.15.15.15.15.15.15.15.15.15.15.15.15.14.16.15.15.15.16.15.16.15.16.14.16.15.16.14.16.15.16.14.17.14.17.15.17.14.17.14.16.14.17.14.17.15.17.14.17.14.17.15.18.14.17.14.17.15.17.15.18.14.17.15.18.14.17.14.18.14.18.13.18.14.18.13.18.14.18.13.17.13.17.13.18.14.17.13.18.13.18.13.17.14.18.13.17.14.18.13.17.14.18.13.18.14.18.14.17.14.18.14.18.14.17.14.18.15.18.15.18.15.17.15.17.15.18.16.17.16.17.16.18.17.17.16.17.16.18.16.17.15.17.16.18.15.17.16.17.15.17.15.17.15.17.15.17.15.16.15.17.14.17.14.16.15.17.14.16.13.17.14.16.13.17.13.16.13.16.12.16.12.16.12.15.12L53,282l.15.11.15.11.15.11.14.1.14.1.15.09.14.1.15.09.15.09.14.08.14.09.14.08.13.08.13.08.12.07.11.08.11.07.11.07.1.08.1.08.1.07.1.07.08.06L56,284l8.25,6.54h0l0,0,0,0,0,0,0,0,0,0,.06,0,.06,0,.07,0,.08,0,.08,0,.09,0,.1,0,.11,0,.11,0,.13,0,.14,0,.14.05.16.06.16.05.16.07.17.07.17.07.18.08.18.09.2.09.19.09.21.1.21.09.22.1.22.1.22.11.21.1.21.1.22.11.22.11.23.12.23.11.19.09.14.05.17.06.16,0,.16.06.15.06.14.06.14.05.14.07.13.06.14.06.13.06.13.06.13.07.14.06.13.07.13.06.13.06.13.06.13.06.12.05.06,0h0l.24.09.24.08.24.09.24.08.24.08.22.07.22.07.22.07.23.07L75,295l.22,0,.22.06.23.05.23,0,.21.05.22,0,.21,0,.21,0,.22,0,.21,0,.21,0,.21,0,.19,0,.19,0,.18,0,.18,0,.18,0,.18,0,.17,0,.16,0,.17,0,.17,0,.16,0,.15,0h.28l.13,0h.13l.12,0h.11l.1,0h.19l.09,0h.08l.08,0H81l.06,0h.06l.06,0h1.74l0,0h.16l0,0h1v0h0v-.29l0,0v0l0,0,0,0,0,0,0,0,0,0,0-.05,0,0,0-.05,0-.05,0-.06,0-.07,0-.06,0-.06,0-.07,0-.07-.05-.08,0-.08,0-.08,0-.08-.07-.09-.07-.09-.07-.1-.08-.1-.08-.1-.09-.1-.09-.11-.09-.1-.1-.11-.1-.11-.1-.12-.1-.11-.11-.12-.12-.13-.12-.14-.14-.13-.13-.13-.13-.13-.14-.13-.14-.13-.14-.13-.15-.12-.15-.13-.16-.13-.17-.13-.18-.13-.18-.13-.19-.13-.18-.12-.2-.12-.2-.12-.21-.12-.21-.11-.21-.12-.21-.12-.21-.12-.22-.12-.22-.12-.21-.12-.2-.12-.2-.12-.2-.13L77,289.3l-.2-.13-.21-.14-.2-.12-.2-.13-.2-.13-.2-.13-.21-.13-.2-.13-.2-.12L75,288l-.21-.13-.2-.12-.21-.13-.21-.13-.2-.11-.19-.12-.2-.13-.2-.12-.2-.13-.21-.13-.19-.12-.2-.12-.2-.13-.2-.13-.2-.13-.2-.13-.2-.13-.2-.13-.21-.14-.2-.13-.21-.14-.2-.13-.2-.13-.2-.13-.2-.14-.2-.14-.2-.14-.21-.15-.2-.14-.2-.13-.21-.15-.2-.15-.21-.14-.2-.15-.2-.15-.21-.15-.2-.15-.21-.15-.2-.14-.2-.15-.19-.14-.19-.14-.19-.15-.19-.15-.2-.15-.2-.15-.19-.14-.18-.15-.19-.14-.19-.16-.19-.15-.19-.15-.19-.15-.19-.14-.19-.15-.19-.16-.19-.15-.19-.14-.18-.15-.18-.14-.18-.15-.18-.15-.19-.15-.19-.15-.18-.15-.17-.15-.18-.15-.19-.16-.18-.15-.17-.14-.17-.15-.17-.15-.18-.16-.18-.15-.19-.16-.17-.14-.16-.15L59.9,277l-.17-.14-.17-.15-.16-.14-.17-.15-.16-.14-.17-.15-.18-.15-.16-.15-.17-.14-.15-.15-.16-.14-.15-.15-.16-.16-.16-.16-.15-.16-.15-.15-.15-.16-.15-.16-.14-.16-.14-.15-.14-.15-.14-.14-.13-.15-.13-.15-.15-.15-.14-.15-.15-.16-.14-.15-.14-.14-.14-.15-.14-.14-.15-.14L54.9,272l-.13-.14-.13-.14-.14-.14-.14-.15-.14-.15-.14-.15-.14-.15-.13-.14-.14-.13-.14-.14-.13-.14-.13-.13-.12-.13-.13-.13-.12-.13-.13-.14-.13-.13-.13-.14-.12-.14-.13-.13-.13-.14L52,269l-.13-.13-.13-.13-.12-.13-.12-.13-.12-.12-.12-.13-.12-.12L51,268l-.12-.12-.13-.13-.13-.12-.13-.13-.13-.12-.12-.12-.12-.11L50,267l-.12-.11-.12-.11-.11-.11-.12-.11-.11-.11-.12-.11-.12-.12-.12-.11L49,266l-.12-.11-.11-.11-.11-.1-.11-.1-.11-.1-.11-.1-.1-.1-.1-.09-.1-.1-.1-.1-.11-.09-.11-.1-.11-.11-.1-.1-.12-.1-.11-.11-.11-.11-.11-.1-.11-.1-.1-.1-.1-.09-.1-.11-.1-.09-.1-.1-.1-.1-.09-.09-.11-.1-.1-.1-.11-.11-.11-.1-.1-.1-.11-.11-.12-.11-.11-.11-.11-.11-.11-.1-.1-.11-.11-.11-.1-.11-.11-.11-.11-.12-.11-.12-.11-.12-.11-.12-.12-.13-.12-.13-.13-.14-.12-.13-.12-.13-.12-.13-.12-.13-.11-.14-.12-.13-.12-.14-.11-.14-.11-.13-.12-.15-.12-.15-.13-.16-.12-.15-.12-.15-.12-.14-.12-.15-.11-.15-.12-.15-.11-.14-.11-.14-.1-.15-.11-.15-.11-.15-.11-.16-.11-.15-.11-.15-.1-.14-.11-.15-.1-.15-.1-.15-.1-.14-.09-.14-.09-.14-.09-.14L40,256l-.08-.14-.09-.14-.08-.14-.09-.14-.09-.14-.08-.14-.09-.15-.09-.14-.09-.14-.08-.13-.09-.14-.08-.14-.08-.13-.08-.13-.07-.13-.07-.13-.07-.12-.07-.13-.07-.13-.06-.13-.07-.12-.06-.12-.07-.13-.06-.13-.06-.13-.07-.13-.06-.12-.07-.13-.06-.13-.07-.13-.06-.13-.06-.13-.06-.13-.06-.13-.06-.13-.05-.13-.06-.14,0-.13-.05-.13,0-.13-.05-.14,0-.14,0-.14,0-.13,0-.13,0-.14,0-.14,0-.14,0-.14,0-.14,0-.14,0-.15,0-.15,0-.15,0-.14,0-.15,0-.15,0-.15,0-.15,0-.15,0-.15,0-.15,0-.14,0-.15,0-.15,0-.14,0-.15,0-.14,0-.14,0-.14,0-.15,0-.14,0-.15,0-.14v-.14l0-.16V243l0-.14v-.15l0-.16,0-.15,0-.15,0-.15,0-.16,0-.15,0-.16,0-.16,0-.17.06-.16.06-.15.08-.16.07-.17.08-.16.09-.16.09-.15L37,240l.1-.15.1-.15.1-.14.1-.13.1-.13.09-.12.11-.13.1-.11.1-.12.11-.11.1-.11.1-.1.11-.11.11-.1.11-.1.11-.09.12-.09.12-.09.12-.09.12-.09.13-.08.11-.08.13-.07.11-.08.12-.07.12-.07.11-.06.11-.06.11-.06.1-.06.1-.06.1-.05.09,0,.09-.05.08,0,.08,0,.08,0,.08,0,.07,0,.07,0,.07,0,.06,0,.07,0,.07,0,.07,0h1.26l.08,0h.25l.08,0h2.53l.1,0H46l.11,0,.11,0h.11l.1,0,.11,0h.1l.11,0,.1,0,.11,0,.1,0,.1,0,.11,0,.11,0,.12,0,.11,0,.11,0,.12,0,.11,0,.11,0,.12,0,.11,0,.11,0,.11,0,.1,0,.11,0,.1,0,.1,0,.11,0,.1,0,.1,0,.11,0,.11,0,.11,0,.1,0,.11,0,.11,0,.11,0,.11,0,.1,0,.1,0,.11,0,.1,0,.1,0,.09,0,.1.05.09,0,.1,0,.1,0,.1,0,.1,0,.11,0,.1,0,.12,0,.11.05.11,0,.11,0,.11,0,.11,0,.11,0,.11,0,.1,0,.11,0,.1,0,.1,0,.1,0,.11,0,.11,0,.11.05.11.06.12.05.11.06.12.06.12.06.12.06.11.06.12.06.11.06.12.06.11.07.12.06.12.07.12.06.13.08.13.07.13.08.14.08.13.08.13.08.14.09.13.09.13.09.13.09.13.09.12.09.12.1.14.11.13.11L57,241l.14.11.13.11.14.12.15.11.14.12.14.11.13.12.14.11.14.12.14.13.15.13.15.13.16.14.15.13.15.14.16.15.15.14.14.14.14.14.14.15.15.15.15.16.16.17.15.16.15.16.16.16.16.17.15.16.16.17.14.16.15.15.15.17.16.17.16.18.16.17.16.17.16.17.16.18.16.18.16.17.16.18.16.18.15.18.17.18.16.18.17.18.16.18.16.18.16.17.15.17.16.18.16.18.16.17.15.17.16.17.16.17.17.18.16.17.16.17.15.16.15.16.15.16.16.18.16.17.16.17.16.17.15.16.16.17.15.17.15.17.16.16.14.17.15.16.15.17.16.18.15.17.16.17.15.17.15.16.14.16.15.16.15.17.14.16.15.17.15.16.16.18.16.17.16.17.16.18.15.17.15.17.16.18.15.18.16.18.16.18.15.18.16.18.16.18.17.19.15.19.16.19.14.18.15.17.14.18.15.18.16.18.15.17.15.16.15.15.16.14.15.14,10.91,9.79,10,7.72,11.3,4.76h0l.09.05.15.06.14.07.15.06.14.06.14.06.13,0,.14,0,.14,0,.15,0,.15,0,.16,0,.17,0h.17l.17,0h2.81l.09,0h0l5.43-13.19.06-.27.07-.27,0-.27.06-.28.06-.27.06-.27.06-.26.06-.27,0-.27.06-.26.07-.27.06-.26.06-.27.07-.27.06-.27.07-.26.06-.27.07-.28.07-.27.07-.27.07-.27.07-.27.07-.28.07-.27.07-.28.08-.27.07-.27.07-.28.08-.27.08-.27.08-.28.08-.27.08-.28.08-.27.09-.27.08-.28.09-.27.09-.27.09-.27.08-.27.09-.27.09-.26.09-.27.09-.26.09-.25.1-.26.09-.25.09-.25.09-.24.09-.23.09-.23.08-.22.09-.21.08-.21.09-.2.08-.2.08-.19.09-.18.08-.16.09-.16.09-.15.09-.14.09-.14.1-.12.09-.12.1-.1.1-.1.1-.1.09-.08.1-.08.09-.06.09-.06.08,0,.08-.05.08,0,.08,0,.07,0,.07,0H123l0-.1,0-.14,0-.14,0-.14,0-.12,0-.12,0-.12,0-.13,0-.12,0-.12,0-.13,0-.12,0-.13,0-.14,0-.13,0-.15,0-.14,0-.15,0-.16,0-.16,0-.17,0-.17,0-.17,0-.17.06-.18,0-.19.06-.18.06-.19.07-.19.07-.2.08-.19.08-.21.09-.21.1-.22.1-.21.1-.21.08-.18.05-.09h0L131,224l.25-.76.24-.78.25-.78.24-.77.23-.76.23-.76.23-.75.23-.75.23-.73.23-.72.22-.72.23-.71.23-.71.23-.71.22-.69.21-.67.2-.64.19-.64.18-.61.17-.6.16-.59.14-.57.14-.55.13-.55.13-.54.12-.51.11-.5.12-.47.1-.47.1-.45.1-.44.09-.41.09-.4.09-.4.09-.39.09-.36.09-.34.08-.32.09-.32.09-.31.09-.3.1-.3.09-.3.1-.29.08-.28.09-.24,0-.13v0l-.29-1.94a37,37,0,0,0,1-11.27,26,26,0,0,0-5.21-13,.91.91,0,0,0-1.11-.19l0,0-.12-.13-.13-.12-.13-.11-.13-.1-.13-.1-.14-.1-.14-.1-.15-.09-.14-.1-.12-.08-.08,0h0l-8.29-8.82-.08-.1-.08-.11-.09-.1-.08-.11-.07-.1-.07-.1-.07-.1-.06-.09-.06-.08,0-.08,0-.07-.05-.06,0-.06,0-.05,0,0,0,0,0,0,0,0v-3.08l0-.05v0l0-.05v-.06l0-.05v0l0-.05,0,0,0-.05,0-.05,0,0,0-.05,0,0,0-.06,0-.06,0-.07,0-.07,0-.07,0-.08,0-.08,0-.1,0-.1,0-.12,0-.12.06-.14.06-.15.06-.16.06-.17.07-.18.06-.18.07-.19.06-.19.06-.19.06-.2.07-.2,0-.2.06-.19.05-.2.06-.19.05-.2,0-.19.06-.2.06-.2.06-.21.06-.22.08-.22.07-.24.09-.25.09-.25.1-.25.1-.26.11-.26.12-.28.13-.29.13-.29.15-.29.12-.23,0-.12h0l5.72-20.29,0-.08.05-.1,0-.1.05-.11.06-.12,0-.12.06-.12.06-.12.05-.13.06-.12.06-.11.06-.11,0-.11.07-.1.06-.11.06-.09.06-.08.07-.09.06-.07.07-.06.06-.06.06,0,.06,0,.07,0,.06,0,.07-.05.06,0,.06,0,.07,0,.06,0,.07,0,.07,0,.07,0,.07,0,.07,0,.08,0,.08-.05.08,0,.08,0,.08,0,.09-.05.08,0,.09,0,.09-.06.09,0,.09-.06.09-.06.1-.07.1-.07.09-.07.1-.07.09-.07.09-.07.09-.08.08-.08.07-.08.07-.08.06-.08.06-.08.06-.09,0-.1.05-.09,0-.09,0-.1,0-.1,0-.09,0-.1,0-.1,0-.1,0-.1,0-.09v-1l0-.08v-.09l0-.09v-.08l0-.08,0-.07,0-.08,0-.07,0-.08,0-.07,0-.07,0-.07,0-.06,0-.07-.05-.06,0-.07,0,0-.05-.06,0,0,0,0,0,0,0,0-.05-.05-.05,0,0,0-.05,0,0,0-.05-.06,0,0-.05-.05,0-.06,0,0,0-.06,0-.06,0-.07,0-.06,0-.07,0-.07,0-.08,0-.08,0-.09v-.89l0-.1v-.09l0-.1v-.1l0-.1,0-.11,0-.1,0-.1,0-.11,0-.1,0-.09,0-.1,0-.09,0-.08,0-.07,0-.08,0-.07,0-.06,0-.06,0,0,0,0,0-.05,0,0,0,0,0-.05,0,0,0,0,0-.05,0,0,0,0,0,0,0,0,0-.06,0,0,0,0,0,0,0,0,0-.06,0,0,0-.05,0,0,0,0,0-.05,0,0,0,0,0,0,0,0,0,0,0,0,0-.06.05,0,0-.06.05-.06,0-.06.05-.07.05-.07,0-.07.06-.08.06-.09.06-.09.06-.1.07-.1L136,115l.07-.11.07-.12.08-.12.08-.12.07-.12.08-.13.08-.12.08-.13.08-.13.07-.12.07-.12.07-.12.08-.13.07-.12.07-.13.07-.14.08-.13.07-.13.07-.15.07-.15.08-.14.07-.15.06-.15.07-.14.07-.15.06-.15.06-.15.06-.15.06-.14,0-.14.05-.15,0-.15.05-.15.05-.14,0-.15,0-.16.05-.16.05-.17,0-.17.05-.17,0-.18.05-.18.06-.2.05-.2,0-.2.05-.2.06-.2,0-.2.05-.2,0-.21,0-.2,0-.2.05-.21.05-.2,0-.2,0-.2.05-.2,0-.19,0-.2,0-.19,0-.2,0-.2,0-.2,0-.2,0-.19,0-.19,0-.19,0-.19,0-.18,0-.17v-.61Zm-37.72,58.22c-1,4-3.57,7.64-7.58,9-5.44,2.07-11.92.89-17,4-3.2,1.67-3.6,5-4.59,8.08-1.73,4.39-6.06,6.85-9.11,10.24a18.91,18.91,0,0,0-4.71,7.31c-1.56,4.6-2.65,9.36-4.62,13.82a7.56,7.56,0,0,1-.73,1.61,1.33,1.33,0,0,1-2.18-.21,1.37,1.37,0,0,1-.15-.69,16.21,16.21,0,0,0-3.86-1.28c-1-.19-2.24-.71-2-1.93.64-2.32,1.07-4.7,1.85-7a1.22,1.22,0,0,1,.66-.74c2-5,.25-10.44,2.23-15.38A19.66,19.66,0,0,1,54,182.31c1.68-2.11,4.7-3.7,4.93-6.62A9,9,0,0,1,60.18,171c4.89-6.6,16.23-5.8,22.81-9.78A16.07,16.07,0,0,0,89.15,154c.47-1.24.9-2.48,1.35-3.72.2-.64.45-1.39,1.19-1.54a1.82,1.82,0,0,1,1.47.44,24.77,24.77,0,0,0,3.14,1.66,35,35,0,0,0,3.45,1.31c1.42.5,3.36.86,3.82,2.53.34,2.23-.86,4.39-1.34,6.53"/><path class="cls-5" d="M103.57,154.63c.34,2.23-.86,4.39-1.34,6.53-1,4-3.57,7.64-7.58,9-5.44,2.07-11.92.89-17,4-3.2,1.67-3.6,5-4.59,8.08-1.73,4.39-6.06,6.85-9.11,10.23a19,19,0,0,0-4.71,7.32c-1.56,4.6-2.65,9.36-4.62,13.82a7.56,7.56,0,0,1-.73,1.61,1.34,1.34,0,0,1-2.18-.21,1.37,1.37,0,0,1-.15-.69,16.69,16.69,0,0,0-3.86-1.29c-1-.18-2.24-.7-2-1.92.64-2.32,1.07-4.7,1.85-7a1.22,1.22,0,0,1,.66-.73c2-5,.25-10.44,2.23-15.38A19.66,19.66,0,0,1,54,182.31c1.68-2.11,4.7-3.7,4.93-6.62A8.93,8.93,0,0,1,60.18,171c4.89-6.6,16.23-5.8,22.81-9.78A16.07,16.07,0,0,0,89.15,154c.47-1.24.9-2.48,1.35-3.72.2-.64.45-1.39,1.19-1.54a1.78,1.78,0,0,1,1.47.44,24.77,24.77,0,0,0,3.14,1.66c1.13.48,2.27.94,3.45,1.31,1.42.5,3.36.86,3.82,2.53"/><path class="cls-5" d="M51.58,217c-2.15-.82-4.23-1.87-6.3-2.89C42.74,213,44,210,45,208.18a92.45,92.45,0,0,0,5.41-16.75c.35-1.33,2-1.8,2.39-.24.13,2.37-.83,4.68-1.42,6.94a93.5,93.5,0,0,1-3.35,9.8,23.48,23.48,0,0,0-1.66,3.82c1.93,1,3.94,1.89,5.92,2.82h0c.89-1.44.91-3.28,1.47-4.86s1.08-3.26,1.52-4.93c.85-2.5,1-5.51,2.79-7.56h0c1-.57,1.64.5,1.11,1.37-.88,2.83-1.28,5.79-2.21,8.62-.61,2-1.33,3.92-1.79,5.95-.32,1.83-1.28,4.58-3.64,3.87"/><path class="cls-5" d="M50.13,222.39a36.18,36.18,0,0,1-5.58-2.21A7.85,7.85,0,0,1,42,218.83a1.2,1.2,0,0,1,.76-2.13,16.38,16.38,0,0,1,3.85,1.37c1.5.6,3,1.14,4.56,1.69,1.6.78.54,2.92-1,2.63"/><path class="cls-5" d="M120.18,96.71a1.44,1.44,0,0,1-.12.77,1.26,1.26,0,0,1,0,.38,19.83,19.83,0,0,1-2.07,6.19,18.09,18.09,0,0,0-2,4c0,1.56.51,3.11.37,4.69-.25,4.25-3,6.28-7.15,5.47-2.21-.5-7.88-.89-6.67-4.31.65-1.25,1.67-2.28,2.3-3.53-.64-.81-1.74-1.12-2.43-1.9-1.35-1.37-1.28-3.45-.94-5.22a35.31,35.31,0,0,1,2.8-8.4l.15-.3c.15-.31.29-.62.45-.93a4.36,4.36,0,0,1,.57-.85l.09-.11.12-.11.12-.1a1,1,0,0,1,1.58.77c0,.06,0,.12,0,.18a2.13,2.13,0,0,1,.42.1c1,.28,2,.54,3,.75s2.3.41,3.45.62a6.88,6.88,0,0,0,3.5.85,9,9,0,0,0,1.78,0,1.34,1.34,0,0,1,.68,1"/><path class="cls-3" d="M103.12,90.7l-2-.32H101a8.31,8.31,0,0,0-.67-1.66C98.94,86,96.41,84.29,93.77,83c-5.34-2.8-11.15-4.54-16.86-6.41-5.92-1.93-11.83-3.89-17.8-5.65C46.9,67.3,33.88,59.62,26.76,48.81,21.37,39.76,21.11,30,32,25.32a41.56,41.56,0,0,1,24.52-2.63A5.39,5.39,0,0,0,57.34,24a31.72,31.72,0,0,1,2.53,4.34l.06.13c0,.1,0,.19,0,.28s.05.35.07.52v0l.06.42.15,1,.09.52a27.39,27.39,0,0,0,2.08,7.11l.1.2c0,.09.09.18.14.27l.1.21.13.23.12.22a16.82,16.82,0,0,0,1.38,2.06l.14.17a1,1,0,0,0,.13.16l.17.21.18.21.19.2a1.8,1.8,0,0,0,.19.2,1.29,1.29,0,0,0,.16.17c.14.15.28.29.43.43l.34.31.08.08a6.81,6.81,0,0,0-3.27,1.71C57.23,50.83,61,59.56,67.19,63A48,48,0,0,0,80.4,68.75c5.19,1.46,10.47,2.78,15.06,5.77,6.58,4.24,6.92,12,7.66,16.18"/><path class="cls-3" d="M174,37.82c20.46-9.29,50.32,7.18,28.77,28.89-6.63,7-15.59,11.34-24.53,14.75s-18.06,6.33-26.77,10.31c-3.72,1.72-7.35,3.64-10.89,5.71-.78.6-2.43,1.11-2.89,2-.72-.27-1.44-.52-2.17-.75a5.56,5.56,0,0,1,.4-1.07c3.08-5,8.49-8,13.74-10.37,8.69-3.81,18.34-5.25,26.62-10,7.6-4.77,6.55-10.18-.59-14.64a19.22,19.22,0,0,0-6.53-2.84,2.52,2.52,0,0,1-3.12-.4,20.47,20.47,0,0,0-12.89,4.47c-3.68,2.5-6.68,5.83-10.27,8.43C137,76.75,129.67,73.7,126,68c-2.76-4.68-5.3-9.52-9-13.52a24.73,24.73,0,0,0-6.29-5.19l0-.06L110.6,49c0-.11-.08-.22-.13-.33s-.07-.17-.11-.26,0-.07,0-.11l-.14-.29-.17-.34-.17-.34c0-.07-.09-.15-.14-.23s-.17-.29-.26-.44c-2.17-3.8-5.67-6.48-9.36-8.69-5.57-3.57-11.67-6.19-17.2-9.79q.3,0,.6-.12c2.42-.61,5.48-2.27,5.21-5.17C88.13,19,84.48,16.69,83,13.29c-1.68-3.26.39-6.87,3.31-8.56C90.85,2,96.53,2.34,101.51,3.54a43.64,43.64,0,0,1,22.18,14.65c3.82,4.69,6.46,10.15,8.77,15.7,1.13,2.71,2.1,5.47,3,8.26,1.33,4.1,2.14,8.45,4.36,12.19,1.7,3.08,5.44,5,8.86,3.67,5-1.91,8.16-6.64,11.93-10.21a45.43,45.43,0,0,1,13.34-10"/><path class="cls-6" d="M111.92,18.63c.37,2.17-1.38,4.75-3.75,4.23-2.15-.69-3.57-2.67-5-4.32a16,16,0,0,0-2.52-2.1c-1-.53-2.22-.39-3.17-1a2.37,2.37,0,0,1-.14-4.33c.26-1.54,2.38-1.38,3.57-1.25a16.44,16.44,0,0,1,8.5,4.6,8.19,8.19,0,0,1,2.49,4.2"/><path class="cls-6" d="M119.5,33.35a3.27,3.27,0,0,1-1.9-1.59,1.54,1.54,0,0,1,1.46-2.1,1.36,1.36,0,0,1,1,.51,2.11,2.11,0,0,1,1.22,2,1.47,1.47,0,0,1-1.81,1.21"/><path class="cls-6" d="M165.93,59.41c-2-2.5.88-6,2.83-7.69a9.51,9.51,0,0,1,4.9-3.88c2.91-1.22,8.25-1.11,10.23,1.67a2.48,2.48,0,0,1-.4,3c-1.68,1.5-4.15,1.32-6.18,2.06a17.46,17.46,0,0,0-3.23,1.53c-2.27,1.28-5.47,6-8.15,3.32"/><g class="cls-7"><g class="cls-8"><path class="cls-9" d="M135.47,98.77a4.9,4.9,0,0,1-.58,1.46,1.26,1.26,0,0,1-1.23.54,1.28,1.28,0,0,1-1.1-1.26,1.81,1.81,0,0,1,.2-.92q.08-.3.18-.6c.85.25,1.69.5,2.53.78"/></g></g><g class="cls-7"><g class="cls-10"><path class="cls-6" d="M169.11,59.87a2.52,2.52,0,0,1-3.12-.4,17.54,17.54,0,0,1,3.12.4"/></g></g><g class="cls-7"><g class="cls-11"><path class="cls-9" d="M105.65,92.55a.9.9,0,0,1-.78,1.07h-.07c-.83,0-1.24-.79-1.53-2.13-.06-.25-.11-.51-.15-.79q1.09.18,2.19.39c0,.15,0,.29,0,.43s0,.41.07.62a.68.68,0,0,1,.23.41"/></g></g><path class="cls-12" d="M175.64,62.71c7.14,4.46,8.19,9.87.59,14.64-8.28,4.73-17.93,6.17-26.62,10-5.25,2.36-10.66,5.32-13.74,10.37a5.56,5.56,0,0,0-.4,1.07c-.84-.28-1.68-.53-2.53-.78l-.77-.23c-3.53-.88-7.06-1.84-10.59-2.79.94-.79,1.26-2.17,1.07-4.18a23.81,23.81,0,0,0-1.74-8.67c-2.09-5.25-6.2-9.29-8.9-14.2,0-.07-.07-.13-.1-.19l-.19-.38c-.07-.13-.12-.25-.18-.38l-.12-.26c0-.06,0-.1-.06-.15a1.21,1.21,0,0,1,0-.14c0-.07,0-.13-.07-.19s-.09-.25-.13-.37-.08-.24-.11-.37-.07-.24-.1-.36-.09-.37-.12-.55c-.07-.36-.13-.72-.17-1.09l0-.35a19.11,19.11,0,0,1,.12-3.55l.06-.51c0-.27.07-.54.11-.81s0-.34.07-.5,0-.21,0-.31l.18-1.32v-.07c0-.22.06-.45.08-.67s0-.39.05-.58v-.09a1.94,1.94,0,0,0,0-.24c0-.14,0-.28,0-.43,0-.31,0-.62,0-.94s0-.51,0-.76l.51.4.49.42-.49-.42-.51-.4,0-.43c0-.23,0-.47-.09-.71s0-.26-.07-.39-.05-.25-.08-.38a4.21,4.21,0,0,0-.12-.48q-.09-.34-.21-.69A24.73,24.73,0,0,1,117,54.47c3.74,4,6.28,8.84,9,13.52,3.63,5.71,10.92,8.76,16.79,4.38,3.59-2.6,6.59-5.93,10.27-8.43A20.47,20.47,0,0,1,166,59.47a2.52,2.52,0,0,0,3.12.4,19.42,19.42,0,0,1,6.53,2.84"/><path class="cls-6" d="M122.65,90.79c.19,2-.13,3.39-1.07,4.18a3.1,3.1,0,0,1-1.27.63,4.86,4.86,0,0,1-.81.15,9,9,0,0,1-1.78,0,6.88,6.88,0,0,1-3.5-.85,6.73,6.73,0,0,1-2.15-2,4,4,0,0,1-.28-.43c-.09-.14-.18-.29-.26-.44a20.91,20.91,0,0,1-3.21-5.76c-2-6.64,1-14.82-4.42-20.22l-.39-.4-.28-.27-.09-.1L103,65.1l0,0-.31-.3,0,0-.11-.1-.45-.4c-.28-.25-.57-.5-.87-.74,0,0,0,0,0,0l-.35-.28,0,0-.31-.24-.3-.23-.06-.05-.6-.44-.51-.36-.38-.26-.31-.22c-.69-.46-1.39-.9-2.11-1.33l-.51-.31-.56-.33c-.83-.47-1.66-.93-2.5-1.38l-.45-.24-2.41-1.27h0l-.79-.41-2.52-1.32C84,53.5,81.54,52.38,79.1,51.23h0l-.73-.34-.85-.41-.87-.42L76,49.74c-.32-.15-.63-.32-1-.48l0,0L74.62,49h0l-.36-.2-.48-.25-.45-.25L72.74,48l-.68-.39-.36-.22-.36-.21-.12-.08-.38-.24-.07,0-.72-.47-.24-.15L69.58,46h0c-.88-.6-1.74-1.23-2.57-1.92l-.34-.28-.25-.22h0l-.08-.08L66,43.22c-.15-.14-.29-.28-.43-.43a1.29,1.29,0,0,1-.16-.17,1.8,1.8,0,0,1-.19-.2l-.19-.2L64.83,42l-.17-.21a1,1,0,0,1-.13-.16l-.14-.17A16.82,16.82,0,0,1,63,39.41l-.12-.22L62.76,39l-.1-.21c0-.09-.1-.18-.14-.27l-.1-.2a27.39,27.39,0,0,1-2.08-7.11l-.09-.52-.15-1c0-.14,0-.28-.06-.42v0c0-.17,0-.35-.07-.52s0-.18,0-.28l-.06-.13A31.72,31.72,0,0,0,57.34,24a5.39,5.39,0,0,1-.83-1.26,1.55,1.55,0,0,1,0-.21,1.35,1.35,0,0,1,.64-1.31c.65-.44,1.43,0,2.08.22a143,143,0,0,0,16.39,5c1.09.2,2.18.47,3.27.66a1.33,1.33,0,0,1,2.45,0l.34.24a1,1,0,0,1,1,.66l.27.17c5.53,3.6,11.63,6.22,17.2,9.79,3.69,2.21,7.19,4.89,9.36,8.69.09.15.18.29.26.44l.14.24c.06.11.12.22.17.33l.17.34.14.29s0,.07,0,.11.08.17.11.26.09.22.13.33l.09.27a.14.14,0,0,1,0,.06q.12.34.21.69c0,.16.08.32.12.48s.06.26.08.38,0,.26.07.39.07.48.09.71l0,.43c0,.25,0,.51,0,.76s0,.63,0,.94c0,.15,0,.29,0,.43a1.94,1.94,0,0,1,0,.24v.09c0,.19,0,.39-.05.58s0,.45-.08.67v.07L111,57.46c0,.1,0,.21,0,.31s0,.33-.07.5-.07.54-.11.81l-.06.51a19.11,19.11,0,0,0-.12,3.55l0,.35c0,.37.1.73.17,1.09,0,.18.07.36.12.55s.06.24.1.36.07.25.11.37.08.25.13.37l.12.33.06.15.12.26c.06.13.11.25.18.38l.19.38c0,.06.07.12.1.19,2.7,4.91,6.81,9,8.9,14.2a23.81,23.81,0,0,1,1.74,8.67"/><path class="cls-12" d="M111.53,92c.08.15.17.3.26.44-2.15-.5-4.31-1-6.48-1.38q-1.09-.21-2.19-.39c-.74-4.21-1.08-11.94-7.66-16.18-4.59-3-9.87-4.31-15.06-5.77A48,48,0,0,1,67.19,63c-6.19-3.48-10-12.21-4.06-17.72a6.81,6.81,0,0,1,3.27-1.71h0l.25.22.34.28c.83.69,1.69,1.32,2.57,1.92h0l.23.16.24.15.72.47.07,0,.38.24.12.07.36.22.36.22.67.38.57.32.45.25.48.25.36.2h0l.41.21,0,0c.32.16.63.33,1,.48l.61.3.87.43.85.41.73.34h0c2.44,1.15,4.89,2.27,7.27,3.52l2.52,1.32.79.41h0l2.41,1.27.45.24c.84.45,1.67.91,2.5,1.38l.56.33.51.31c.72.43,1.42.87,2.11,1.33l.31.22.38.26.51.36.6.44.06.05.3.23.31.24,0,0,.35.28,0,0c.3.24.59.49.87.74l.45.4.11.1,0,0,.32.3,0,0,.19.18.09.1.28.27.39.4c5.44,5.39,2.42,13.58,4.42,20.22A20.91,20.91,0,0,0,111.53,92m-29-38.57-.4-.24.4.24m-1.95-1.22.26.17-.52-.34.26.17"/><path class="cls-13" d="M303.51,371.6v1l0,1,0,1,0,1-.06,1-.06,1-.08,1-.09,1-.09,1-.11,1-.11,1-.12,1-.12.95-.13.93-.14.91-.14.9-.15.88-.16.87-.15.86-.17.85-.16.83-.17.82-.18.79-.17.79-.18.77-.36,1.5-.18.71-.19.71-.19.69-.19.68-.2.65-.19.64-.19.61-.19.57-.19.58-.19.56-.19.53-.18.52-.18.47-.16.46-.18.45-.17.45-.16.43-.17.42-.15.4-.16.38-.15.38-.16.38-.16.37-.17.37-.16.35-.17.34-.18.35-.18.34-.18.33-.19.32-.18.31-.17.29-.17.28-.18.27-.16.26-.16.23-.15.22-.15.21-.28.38-.14.17-.12.16-.13.15-.12.15-.12.15-.12.15-.12.14-.12.15-.11.14-.12.14-.24.28-.12.15-.39.42-.28.26-.15.13-.14.12-.15.11-.14.1-.14.09-.14.09-.15.09-.14.08-.14.07-.14.08-.14.07-.15.08-.14.08-.15.08-.15.08-.14.08-.15.09-.14.09-.15.09-.15.09-.15.09-.15.08-.15.09-.16.08-.16.08-.16.08-.16.07-.16.07-.16.06-.17.07-.16.05-.15.06-.16.05-.15.05-.15,0-.15.05-.14,0-.14.05-.13.05-.14,0-.12.05-.13,0-.12,0-.11.05-.11,0-.11,0-.11,0-.1,0-.1,0-.11,0-.09,0-.1,0-.1,0-.1,0h-.1l-.1,0-.09,0h-.8l-.11,0-.12,0-25.49-2.83-36.49-7.87L181.8,398l-17.12-5.39-31.81-12.43h0l-.1,0-.18,0-.21-.06-.21-.05L132,380l-.21-.05-.19-.06-.19-.05-.18-.06-.16,0-.16,0-.16-.05-.15-.05-.14,0-.14,0-.28-.08-.13-.05-.14,0-.13-.05-.14,0-.13,0-.28-.1-.15-.05-.14-.05-.15,0-.14-.06-.16-.05-.15-.06-.16-.05-.16-.06-.15-.05-.15-.05-.15,0-.15-.05-.14,0-.14-.05-.14,0-.14,0-.13,0-.13,0-.14,0-.12-.05-.13,0-.13,0-.13,0-.13-.05-.14-.05-.13,0-.13-.05-.13,0-.14,0-.13-.05-.14,0-.14-.05-.14,0-.15,0-.14-.05-.16-.05-.16,0-.16-.06-.16,0-.15-.05-.17-.05L123,377l-.17,0-.16-.05-.16-.05-.16-.06-.16-.05-.15,0-.15-.05-.15-.06-.15-.05-.14-.05-.15-.05-.14,0-.15-.05-.15-.05-.15-.05-.14-.05-.15-.06-.16,0-.16-.05L120,376l-.17-.06-.17-.05-.18-.07-.72-.24-.19-.07-.19-.06-.18-.07-.19-.06-.17-.06-.34-.12-.17-.05-.17-.06-.16,0-.16-.05-.16-.06-.16-.05-.16-.05-.17-.05-.16-.06-.16-.06-.15-.07L97.6,368,71.32,353.32,55.85,343.8l-7.34-2.17h0l0,0h0l0,0h0l0,0,0,0,0,0,0,0,0,0-.05,0,0,0,0,0-.05,0,0,0-.06,0-.06,0-.07,0-.07,0-.08,0-.08,0-.08-.05-.1-.05-.1,0-.11-.06-.12-.06-.13-.06-.13-.05-.14-.07-.15-.06-.15-.06-.16-.06-.16-.06-.16-.06-.18-.07-.17-.06-.19-.07-.2-.06L45,340l-.21-.07-.22-.07-.22-.07-.23-.08-.22-.07-.22-.08-.23-.07-.22-.08-.24-.08-.24-.09-.24-.09-.24-.09-.24-.1-.25-.09-.24-.1-.25-.1-.24-.1-.23-.1-.23-.1-.48-.22-.24-.11-.25-.12-.48-.24-.25-.11-.23-.12-.24-.12-.24-.11-.22-.12L37.7,337l-.23-.11-.24-.11-.26-.12-.25-.11-.25-.11-.24-.1L36,336.2l-.24-.1-.24-.1-.24-.1-.23-.1-.24-.1-.24-.1-.25-.11-.25-.1-.24-.09-.24-.1-.23-.09-.23-.09-.23-.09-.23-.09-.22-.09-.22-.09-.23-.09-.23-.1-.24-.09-.24-.1-.24-.1-.22-.09-.23-.09-.22-.09-.22-.1-.23-.1-.22-.1-.21-.1-.22-.1L29,333.3l-.46-.24-.21-.12-.22-.12-.21-.12-.2-.12-.21-.13-.19-.12-.18-.13-.18-.13L26.8,332l-.17-.14-.18-.13-.17-.13-.17-.14-.17-.13-.17-.14L25.6,331l-.18-.14-.17-.14-.17-.13-.16-.12-.17-.13-.16-.13-.16-.12-.16-.13-.16-.12-.15-.12-.16-.12-.16-.12-.17-.12-.16-.12-.17-.12L23,329l-.16-.12-.17-.12-.17-.11-.17-.12-.16-.11-.16-.11-.17-.12-.16-.11-.16-.12-.17-.12-.16-.11-.16-.11-.17-.12-.17-.12-.18-.12-.18-.11-.17-.12-.17-.11-.18-.12-.17-.11-.17-.11-.17-.11-.16-.11-.16-.1-.16-.11-.16-.11-.16-.1-.16-.11-.16-.1-.16-.1-.16-.1-.17-.1-.16-.1-.16-.09-.16-.09-.15-.08-.15-.09-.15-.08-.14-.08-.15-.08-.14-.07-.13-.07-.14-.07-.13-.07-.13-.07-.26-.12-.12-.06-.12-.05-.13-.05-.12-.05-.11-.05-.11,0h0c-.36-.3-6.18-5.17-6.49-11.28h.12v-.3l0,0v-.05l0,0v0l0-.05,0-.06,0-.05,0-.06,0-.07,0-.06,0-.07,0-.07,0-.07,0-.08,0-.08,0-.08,0-.08,0-.09,0-.09,0-.09,0-.1,0-.1,0-.1,0-.1,0-.1v-.1l0-.1,0-.1v-.29l0-.1V308l0-.12,0-.14,0-.13,0-.13,0-.13,0-.13,0-.14,0-.14,0-.13,0-.14,0-.12,0-.14,0-.13,0-.13,0-.14.05-.13.05-.13,0-.14.06-.13.07-.13.06-.14.07-.12.08-.13.08-.13.09-.13.2-.26.11-.12.12-.13.13-.12.15-.12.15-.12.15-.11.16-.11.17-.1.36-.2.19-.09.17-.08L11,303l.19-.08.19-.07.2-.07.21-.05.19-.05.2,0,.21,0,.2,0,.21,0h1.5l.17,0h.18l.17,0H15l.15,0,.15,0h.14l.13,0h.13l.12,0H16l.11,0h.1l.09,0h.17l.08,0h.14l.12,0h.37l0,0h0v-.17l0,0,0,0,0-.05,0-.05,0-.06,0-.06,0-.07-.05-.07-.08-.16-.05-.1-.05-.1-.06-.1-.06-.11-.12-.24-.08-.13-.08-.13-.08-.14-.08-.13-.08-.14-.09-.14-.09-.14-.09-.15-.09-.14-.08-.15-.08-.14-.09-.15-.08-.15-.08-.16-.08-.15-.07-.15-.08-.16-.08-.17-.07-.17-.08-.17-.07-.16-.07-.16-.06-.17-.07-.16-.06-.17-.06-.16,0-.15-.05-.15-.1-.3-.05-.15,0-.15,0-.14,0-.15,0-.15,0-.15,0-.14,0-.15,0-.15,0-.14-.05-.16,0-.14,0-.15,0-.14,0-.14,0-.13,0-.13,0-.13,0-.13,0-.13,0-.12,0-.12,0-.12,0-.12,0-.11,0-.13,0-.11,0-.12,0-.12,0-.13,0-.12,0-.12,0-.13,0-.12,0-.12,0-.13V292l0-.12v-.13l0-.12v-2.16l0-.16v-.17l0-.16,0-.17.06-.36,0-.18,0-.17,0-.17,0-.18,0-.18.15-.54.06-.18.06-.18.06-.19.07-.18.07-.18.08-.17.07-.17.09-.17.09-.17.1-.17.1-.17.11-.17.24-.34.13-.17.14-.17.12-.16.14-.15.15-.16.14-.16.15-.16.15-.16.14-.14L16,283l.15-.14.14-.14.14-.14.15-.12.26-.24.13-.11.13-.11.14-.1.13-.09.13-.09.13-.08.14-.09.15-.07.15-.08.3-.14.15-.06.16-.06.14-.05L19,281l.14,0,.13,0,.12,0,.11,0,.11,0,.11,0,.09,0h.09l.09,0h.43l-.76-4.39-.06-.06-.06-.07-.07-.08-.07-.08-.05-.08-.06-.08-.05-.08,0-.07-.05-.08,0-.08,0-.08,0-.08,0-.09-.05-.09-.05-.09,0-.1-.05-.09-.05-.11-.06-.12-.05-.11-.12-.26-.05-.13-.05-.14-.05-.15-.05-.15,0-.16,0-.16,0-.16,0-.18,0-.17,0-.18,0-.19,0-.19,0-.19,0-.19,0-.2,0-.2,0-.21,0-.2,0-.2,0-.21,0-.21,0-.21,0-.22,0-.22,0-.21,0-.22v-1.38l0-.23,0-.48,0-.23,0-.24,0-.23,0-.23.05-.22,0-.23.05-.22.06-.22.07-.21.07-.22.09-.21.09-.21.09-.21.11-.2.11-.2.12-.21.12-.2.13-.2.13-.19.14-.19.15-.18.15-.18.15-.17.16-.17.17-.16.17-.14.17-.14.17-.13.18-.12.17-.11.16-.1.16-.09.16-.08.16-.08.17-.08.16-.06.15-.06.16-.05.15,0,.16-.05.15,0,.15,0,.14,0,.15,0,.15,0h.16l.32,0h.95l.17,0h.35l.17,0h.18l.18,0,.17,0,.18,0,.18,0,.18,0,.18,0,.19,0,.18,0,.17,0,.19,0,.57.15.18.06.19,0,.18.06.19.07.2.07.38.14.19.08.2.08.18.08.19.08.19.09.19.09.2.09.18.09.19.1.19.1.18.1.18.11.18.12.18.11.18.13.17.13.16.13.16.14.15.14.15.15.15.16.15.15.15.15.14.15.15.16.14.15.14.15.15.16.14.15.15.15.15.16.14.15.14.15.15.16.14.15.15.16.14.15.15.16.15.16.14.16.14.16.15.15.14.16.14.16.15.15.15.16.28.3.15.15.14.16.15.15.15.15.15.14.15.15.15.15.16.15.15.14.3.3.16.15.16.15.16.15.16.14.16.14.16.15.16.14.17.15.17.14.17.14.17.14.16.14.17.15.17.14.34.28.17.15.18.14.17.15.17.14.17.15.18.14.17.15.36.28.17.14.18.14.18.13.18.14.36.26.17.13.18.14.17.13.18.13.17.13.18.14.17.13.18.14.17.13.18.13.17.14.18.14.18.13.18.14.18.14.17.14.18.14.18.15.17.14.36.3.17.15.18.16.17.15.17.16.18.17.17.16.17.16.17.16.18.16.17.16.17.15.18.16.17.15.17.15.17.15.17.15.17.15.17.15.17.15.16.14.17.15.16.14.17.14.16.14.17.13.16.14.17.13.16.12.17.13.15.12.16.11.15.12L53,282l.15.12.15.1.15.11.14.1.14.1.15.09.14.1.15.09.15.09.14.09.14.08.14.08.14.08.12.08.12.07.11.08.11.07.11.08.1.07.11.08.09.07.1.07.08.07L56,284l8.25,6.54h0l0,0,0,0,0,0,0,0,.06,0,0,0,.07,0,.06,0,.08,0,.08,0,.09,0,.1,0,.11,0,.11,0,.13,0,.14,0,.14,0,.16.06.16.06.17.06.16.07.17.07.18.08.18.09.2.09.2.09.2.1.21.1.22.09.22.11.22.1.21.1.21.1.22.11.23.11.22.12.23.11.22.11.22.11.22.1.23.11.24.11.23.1.23.1.48.2.24.1.24.09.24.1.23.08.24.09.24.08.24.09.24.08.24.08.22.07.22.07.22.07.24.07L75,295l.22.06.23.05.22.05.23.05.21,0,.22,0,.21,0,.21,0,.22,0,.21,0,.21,0,.21,0,.19,0,.19,0,.19,0,.18,0,.17,0,.18,0,.17,0,.17,0,.16,0,.17,0,.16,0,.15,0h.15l.13,0,.26,0,.12,0h.11l.1,0h.1l.09,0h.09l.08,0H81l.07,0h.06l.07,0h1.54l.1,0h0l.1,0h0l.06,0h.15l.06,0h.52l.06,0h.29l0,0h0v0h0l0,0v0h0v-.24l0,0v0l0,0,0,0,0,0,0,0,0,0,0-.05,0,0,0-.05,0-.05,0-.06,0-.06,0-.07,0-.06,0-.07,0-.07,0-.08-.06-.07,0-.08,0-.09-.07-.09-.06-.09-.08-.1-.08-.1-.08-.1-.09-.1-.09-.1-.09-.11-.1-.11-.1-.11-.1-.11-.1-.12-.11-.12-.24-.26-.14-.14-.13-.13-.13-.13-.28-.26-.14-.13-.14-.12-.16-.13-.16-.13-.17-.13-.17-.13-.19-.13-.18-.12-.19-.13-.2-.12-.2-.12-.21-.11-.21-.12-.42-.24-.21-.11-.22-.13-.22-.12-.21-.12-.4-.24-.2-.12L77,289.3l-.2-.13-.21-.13-.6-.39-.2-.13-.2-.13-.2-.13-.21-.12L75,288l-.2-.12-.21-.13-.21-.13-.21-.12-.19-.12-.2-.12-.19-.12-.21-.13-.2-.13-.2-.12-.2-.13-.2-.12-.4-.26-.2-.13-.6-.39-.2-.14-.21-.13-.21-.13-.2-.14-.2-.13-.2-.13L70,284.8l-.21-.14-.2-.14-.21-.14-.4-.28-.21-.15-.2-.14-.2-.15-.21-.15-.2-.15-.21-.15-.2-.14-.21-.15-.2-.15-.2-.15-.38-.28-.19-.15-.19-.15-.2-.15-.19-.15-.19-.14-.19-.14-.38-.3-.19-.15-.19-.15-.19-.15-.38-.3-.19-.15-.19-.15-.19-.15-.18-.15-.17-.14-.19-.15-.18-.14-.19-.16-.18-.15-.19-.15-.17-.15-.18-.15-.19-.15-.17-.16-.18-.14-.16-.15-.36-.3-.18-.16-.18-.15-.18-.15-.16-.14L59.9,277l-.17-.15-.17-.15-.16-.14-.17-.15-.16-.14-.17-.15-.17-.15-.17-.14-.17-.15-.15-.14-.16-.15-.15-.15-.16-.15-.15-.16-.16-.16-.15-.16-.14-.16-.15-.16-.15-.15-.14-.16-.14-.15-.13-.14-.14-.15-.13-.14-.15-.16-.14-.15-.15-.16-.14-.14-.14-.15-.14-.14-.14-.15-.15-.14L54.9,272l-.13-.14-.13-.14-.14-.14-.14-.15-.14-.15-.14-.15-.14-.14-.13-.15-.14-.13-.13-.14-.14-.13-.13-.14-.12-.13-.13-.13-.12-.13-.13-.13-.26-.28-.12-.14-.26-.26L52,269l-.13-.13-.12-.13-.25-.25-.12-.13-.12-.12-.12-.13-.5-.5-.39-.36L50,267l-.12-.12-.12-.11-.11-.11-.12-.11-.11-.11-.12-.11-.12-.11-.12-.12L49,266l-.12-.11-.11-.11-.11-.1-.11-.1-.11-.1-.1-.1-.11-.1-.1-.09-.1-.1-.1-.09-.11-.1-.11-.1-.1-.1-.11-.1-.11-.11-.12-.11-.11-.1-.21-.21-.11-.09-.1-.1-.1-.1-.1-.1-.1-.1-.1-.1-.09-.09-.11-.1-.1-.1-.11-.1-.11-.11-.1-.1-.11-.11-.11-.11-.12-.1-.11-.11-.11-.11-.1-.11-.11-.11-.1-.11-.11-.11-.11-.12-.11-.12-.22-.24-.24-.26-.12-.14-.13-.13-.12-.13-.24-.26-.11-.14-.12-.13-.12-.14-.11-.13-.11-.14-.24-.3-.13-.15-.12-.16-.12-.14-.12-.15-.11-.15-.12-.14-.11-.15-.12-.15-.1-.14-.11-.14-.11-.16-.11-.15-.11-.15-.11-.16-.11-.14-.1-.15-.1-.15-.11-.15-.1-.14-.1-.15-.09-.14-.09-.14-.09-.14L40,256l-.08-.14-.09-.14-.08-.14-.09-.14-.08-.14-.09-.14-.09-.14-.09-.15-.09-.13-.08-.14-.09-.14-.08-.14-.08-.13-.08-.13-.07-.13-.07-.12-.21-.39-.06-.13-.07-.12-.06-.12-.06-.13-.07-.13-.06-.13-.07-.12-.06-.13-.07-.13-.06-.13-.07-.13-.3-.65-.05-.13,0-.14-.1-.26,0-.13,0-.14-.05-.14,0-.13,0-.14,0-.13,0-.14,0-.14,0-.14,0-.14,0-.14,0-.14,0-.14,0-.15,0-.15,0-.15,0-.15,0-.14,0-.16,0-.15,0-.15,0-.15,0-.14,0-.15,0-.15,0-.14,0-.15,0-.14,0-.15,0-.14,0-.14,0-.14,0-.15,0-.14,0-.15v-.14l0-.15v-2.38l0-.15v-.15l0-.15v-.16l0-.15,0-.15,0-.15,0-.16,0-.15,0-.16,0-.16,0-.16.06-.16.07-.16.07-.16.07-.16.09-.16.09-.16.08-.15L37,240l.1-.15.1-.14.1-.14.1-.14.1-.13.09-.12.11-.12.1-.12.11-.12.1-.11.1-.11.1-.1.11-.1.11-.1.22-.2.12-.09.12-.09.12-.09.12-.08.13-.09.12-.08.12-.07.12-.07.11-.08.12-.06.11-.07.11-.06.11-.06.1-.06.11-.05.09,0,.09-.05.09-.05.09,0,.08,0,.07,0,.08,0,.07,0,.07,0,.07,0,.06,0,.14,0h.14l.07,0h.47l.24,0h.41l.08,0h.25l.08,0,.18,0h2.24l.11,0h.21l.11,0h.11l.11,0,.11,0h.1l.11,0h.11l.1,0,.11,0,.1,0,.1,0,.11,0,.1,0,.11,0,.12,0,.11,0,.11,0,.12,0,.11,0,.12,0,.11,0,.11,0,.11,0,.11,0,.1,0,.11,0,.1,0,.1,0,.11,0,.1,0,.1,0,.11,0,.11,0,.11,0,.1,0,.12,0,.11,0,.11,0,.1,0,.11,0,.1,0,.1,0,.1,0,.1,0,.09,0,.1,0,.09,0,.1,0,.1,0,.1,0,.1,0,.11,0,.1,0,.12.05.22.08.11,0,.11,0,.11,0,.11,0,.11,0,.1,0,.11,0,.1,0,.1,0,.1,0,.11,0,.11,0,.11.06.11.05.12.05.12.06.11.06.24.12.11.06.12.07.11.06.12.06.11.06.12.06.24.14.26.14.13.08.14.08.13.08.13.09.14.08.13.09.14.09.12.09.13.09.12.1.13.1.13.1.13.12L57,241l.14.11.13.11.15.12.14.11.28.24.13.11.14.12.14.11.14.13.15.13.16.14.15.13.15.13.15.15.16.14.15.14.43.43.14.15.15.17.16.16.15.16.15.16.16.16.16.17.15.17.16.16.15.16.14.16.15.16.16.17.16.18.16.17.16.18.16.16.16.18.16.18.16.18.16.17.16.18.16.18.16.18.16.18.34.36.15.18.16.17.15.17.16.18.16.18.16.17.15.18.16.16.16.18.17.17.16.17.16.17.15.16.15.16.15.17.16.17.16.17.16.17.16.17.15.17.16.17.16.16.15.17.15.16.14.17.15.16.15.17.16.18.15.17.16.17.15.17.15.16.15.16.14.16.15.17.15.16.14.17.16.17.15.17.16.17.16.17.16.18.16.17.15.17.15.18.15.18.16.18.16.18.15.18.16.18.16.19.17.18.15.19.16.19.15.18.14.17.15.18.14.18.16.18.15.17.16.16.14.15.16.15.15.13,10.91,9.79,10,7.73,11.29,4.75h0l.1.05.14.06.15.07.14.07.14.06.14.05.13,0,.14,0,.15,0,.14,0,.15,0,.16,0,.17,0,.17,0h.35l.34,0h2.29l.1,0h.09l.1,0,.09,0h.09l.08,0h.07l.07,0,.07,0H112l.06,0,.06,0h.06l0,0,.06,0,0,0,.06,0,0,0,0,0,.06,0,.06,0,.12-.08.05,0,.12-.1.12-.12,0-.07,0-.06.05-.07.06-.06,0-.07,0-.08,0-.07,0-.07,0-.08,0-.09,0-.09,0-.09,0-.1,0-.11,0-.11,0-.13,0-.13.05-.13,0-.15,0-.14,0-.14,0-.15.06-.16,0-.16,0-.17,0-.16,0-.16.05-.18,0-.17.1-.36,0-.19.05-.2,0-.19.06-.2,0-.2.06-.21.06-.21.06-.22.07-.22.06-.22.07-.22.06-.23.07-.23.06-.23.07-.24.06-.23.06-.24.06-.23.06-.24.06-.23,0-.24.06-.24,0-.24,0-.25.06-.24,0-.25.05-.25.06-.25.06-.26.06-.25.07-.27.07-.26.06-.27.07-.27.07-.27.07-.28.07-.27.06-.28.07-.27.12-.54,0-.27.06-.27.06-.27.06-.27.06-.26.05-.27.07-.26.06-.27.06-.27.07-.27.06-.27.07-.26.06-.27.07-.27.07-.28.07-.27.07-.27.14-.54.07-.28.07-.27.08-.28.07-.27.08-.27.07-.28.08-.27.08-.28.08-.27.08-.27.08-.28.09-.27.08-.28.09-.27.09-.27.09-.27.08-.27.09-.27.09-.26.1-.26.08-.26.1-.26.09-.26.09-.25.09-.24.09-.25.09-.23.09-.23.08-.22.09-.21.08-.21.09-.2.08-.2.09-.18.08-.18.09-.17.08-.15.09-.16.09-.14.1-.13.09-.13.1-.12.09-.1.2-.2.1-.08.09-.08.09-.06.09-.06.08,0,.08,0,.08,0,.08,0,.07,0h.08l.07,0h.25l.1,0,.09,0,.11,0,.11,0,.12,0,.12.05.24.12.13.06.13.08.14.07.14.08.15.09.14.09.15.09.06.07.33.32.54.53,7,7.07L142.43,273l8.45,13.13,5.75,6.24,4.19,3,.09.1.16.18.18.2.19.19.18.2.2.19.36.36.36.34.19.17.19.18.21.19.23.2.23.2.24.21.24.2.25.2.25.21.26.19.27.2.26.19.29.2.31.21.33.21.36.2.72.38.35.17.36.16.76.34.38.17.38.17.37.16.39.18.37.18.36.18.35.17.35.17.36.19.37.19.38.19h0l11.45,3.47,25.29,4.78,27.05,1,26.53-1.45,13.82-.64h0l.17-.05.27-.08.31-.09.3-.09.28-.08.27-.08.27-.07.26-.07.5-.12.18-.05,1.58.14h0l.11,0,.21.07.26.09.28.11.28.13.27.14.29.16.29.19.32.21.33.23.34.25.33.25.34.27.36.29.36.31.37.33.37.35.38.37.39.4.4.43.4.45.42.48.43.5.43.53.43.56.43.59.42.61.41.64.41.67.42.71.41.74.43.76.42.8.44.82.43.84.43.87.42.9.41.92.4.94.38,1,.37,1,.35,1,.35,1.05.35,1.07.33,1.08.33,1.09.33,1.1.32,1.1.32,1.12.32,1.12.3,1.12.3,1.11.29,1.12.28,1.11.26,1.12.25,1.11.24,1.13.23,1.13.21,1.13.19,1.16.19,1.16.16,1.16.15,1.16.14,1.16.11,1.15.1,1.15.09,1.13.08,1.13.07,1.13.05,1.1,0,1.09.05,1.08,0,1.06,0,1.06,0,1.05,0,1,0,1,0,1Z"/><path class="cls-13" d="M8.24,312.05l0-.05,0-.06,0-.07,0-.06,0-.07,0-.07,0-.07,0-.08,0-.08,0-.08,0-.08,0-.09,0-.09,0-.09,0-.1,0-.1,0-.1,0-.1,0-.1v-.1l0-.1,0-.1v-.29l0-.1v-.5A9,9,0,0,1,8.24,312.05Z"/><path class="cls-14" d="M112.07,281.46h-.54l-.19,0-.2,0-.2,0-.2-.05-.21,0-.2-.06-.2-.07-.22-.08-.21-.08-.09,0c.49.07,1,.12,1.48.17.78.09,1.56.17,2.34.22l-.12,0-.13,0-.14,0-.14,0-.16,0-.16,0h-.51Z"/><path class="cls-14" d="M21.61,255.87l-.27-.21-.26-.25-.27-.29-.27-.34-.26-.37L20,254l-.07-.15c.58-2.51,1.17-5,1.75-7.51,4.48-18,9.49-35.82,15.27-53.43.77-2.2,1.27-4.58,2.5-6.57a1,1,0,0,1,1.51-.05,1.22,1.22,0,0,1,.2,1.18c-.07.23-.15.47-.23.7-.17.52-.34,1-.5,1.55-.24.74-.47,1.48-.69,2.23a6.32,6.32,0,0,0-.18.62l-.39,1.31c-.12.39-.23.79-.33,1.19-4.21,13.8-8.32,27.64-12,41.59l-.3,1q-1.06,3.84-2.08,7.68c-.65,2.44-1.3,4.89-1.9,7.34l-.51,2.1-.18.75c0,.15-.07.3-.11.45Z"/><path class="cls-14" d="M112.07,281.46h-.43v-.05c.47-1.72,1.1-3.4,1.59-5.12,1.69-5.39,3.56-10.72,5.32-16.09,5.32-16.29,10.21-32.72,14.85-49.22,2.06-8.05,4.1-16.37,3.59-24.73-.91-10.26-5.06-14.29-12.68-20.52-1.62-1.6-4.67-2.8-4.45-5.46,1.84-7,4.23-13.92,6.15-20.93,1.23-4.2,2.37-8.43,3.87-12.54.26-.69.6-1.53,1.37-1.77.62-.23,1.36-.06,2-.37A2.2,2.2,0,0,0,134,123a3.42,3.42,0,0,0-1.49-2.17c-.8-.81-.3-1.95,0-2.88a2.75,2.75,0,0,1,1.79-2.29c.76-.39,1-1.3,1.35-2,1-2.84,1.83-5.73,2.71-8.61.2-.81.46-2,1.55-1.85,2,.42.14,3.86,0,5.15-.6,2-1.21,4.08-1.86,6.1-.5,1.48-1.22,3.14-2.79,3.72l-.27.87c0,.12-.07.24-.11.37,3.14,2.44,1.91,8-2.32,8.08-3.21,9.06-5.44,18.44-8.37,27.59-.28.94-.57,1.88-.86,2.82s-.88,2-.65,2.91c2.77,2.57,5.94,4.71,8.6,7.4,2.3,2.38,4.68,4.82,6,7.89,3.25,7.53,2.9,15.93,1.38,23.83-1.3,7.66-3.56,15.12-5.71,22.58-3.27,11-6.49,22-10,32.9-2,6.4-4.22,12.74-6.32,19.12-.63,1.91-1.19,3.85-1.8,5.77-.07.19-.13.41-.2.64h0l-.09,0-.1,0-.1,0-.11,0-.1,0-.11,0-.12,0-.12,0-.12,0-.12,0-.13,0-.13,0-.14,0-.14,0-.16,0-.16,0h-.51Z"/><path class="cls-14" d="M40.15,188c-.93-.51-.47-1.85-.42-2.7,1.23-6.28,4.46-12.07,7.91-17.4A33.24,33.24,0,0,1,66,155.48c4.14-1.13,8.55-.94,12.7-1.93,5.84-1.43,6.83-8.17,8.24-13.1,1.83-6.86,4.2-13.57,6.13-20.41.27-1.22.8-2.51-.14-3.54-.84-2-1-4.86.63-6.54a11.68,11.68,0,0,1,2.3-1.4A4.9,4.9,0,0,0,97.31,106c-4.22-2.53-1-10.86.59-14.35a1.3,1.3,0,0,1,2.32,1.11C99,96,97.29,99.65,98.12,103.18c.17.48.7.59,1,.89,1.25,1,.79,2.72.21,3.94a6.32,6.32,0,0,1-3.73,3.62c-1,.71-.72,2.57-.42,3.62a3.93,3.93,0,0,1,.84,3c-.63,4-2.12,7.76-3.27,11.61q-2.14,6.78-4,13.64C86.48,153,83.15,156.59,73.16,157a31.36,31.36,0,0,0-20.86,9.46c-3.08,3.11-5.11,7.05-7.07,10.92a52.41,52.41,0,0,0-2.84,6.75c-.08.21-.16.42-.23.63-.18.49-.36,1-.55,1.48s-.38,1.13-.57,1.7a.83.83,0,0,1-.51.15,1.42,1.42,0,0,1-.38-.06"/><path class="cls-14" d="M35.9,201.85c-1.71-.38-.45-3.13-.35-4.3a112.3,112.3,0,0,1,3.25-11.26,98.46,98.46,0,0,1,4.87-11.44c.27-.67.71-1.47,1.56-1.14a1,1,0,0,1,.55,1.26c-.94,2.36-1.92,4.71-2.82,7.08-.83,2.17-1.6,4.36-2.34,6.56q-1.59,4.8-2.87,9.71c-.42,1-.4,3.53-1.78,3.53H35.9"/><path class="cls-14" d="M139.71,104.56c-.83-.13-1.07-1-1.08-1.72-6.66-3-14-4.13-21-6.16q-5.16-1.35-10.37-2.53c-1.5-.34-3-.66-4.52-.92-1,0-2.22-.51-3.19-.09-1.27.62-2.26-1-1.45-2,.64-1,2-.79,3-.74,10.53,1.57,20.75,4.8,31.06,7.38a59.37,59.37,0,0,1,6.78,2.29,3.16,3.16,0,0,1,2.34,2.86A1.39,1.39,0,0,1,140,104.6a1,1,0,0,1-.3,0"/><path class="cls-14" d="M125.4,126.68a137.28,137.28,0,0,1-13.45-3,1.31,1.31,0,0,1,.8-2.49c4.93,1.52,10.15,2.1,15,3.68h0a1.07,1.07,0,0,1-.35,2,2.56,2.56,0,0,1-.39,0,10.1,10.1,0,0,1-1.65-.24"/><path class="cls-14" d="M108.13,122.14c-1.54-.36-3.13-.61-4.63-1.1a1.32,1.32,0,1,1,1.21-2.34c1.33.56,5.31.7,4.49,2.88a1.12,1.12,0,0,1-.94.57h-.13"/><path class="cls-14" d="M127.16,117a122.76,122.76,0,0,1-16.29-4.49c-.91-.3-1.84-.6-2.75-.92s-1.85-.63-2-1.59a1.3,1.3,0,0,1,1.9-1.34,31.05,31.05,0,0,0,3.92,1.43c5.83,2.06,11.63,3.47,17.57,5a1.11,1.11,0,0,1-.38,2.13h-.18a10.52,10.52,0,0,1-1.75-.24"/><path class="cls-14" d="M138.44,106.19c-.68-1,.28-2.08.22-3.12-.14-.82-.4-2,.54-2.41,1.69-.53,2.24,2,2,3.2-.12,1-.77,2.82-1.81,2.82a1.41,1.41,0,0,1-1-.49"/><path class="cls-14" d="M137.75,100.8c-1.05-1.81,1.69-2.5,2.78-3.32,3.54-2.07,7.17-4,10.89-5.71,8.71-4,17.88-6.79,26.77-10.31s17.9-7.73,24.53-14.75C224.28,45,194.41,28.53,174,37.81a45.64,45.64,0,0,0-13.34,10c-3.77,3.57-6.91,8.3-11.93,10.2-3.42,1.33-7.16-.58-8.86-3.66-2.22-3.75-3-8.1-4.36-12.19-.9-2.79-1.87-5.55-3-8.26-2.31-5.55-5-11-8.77-15.7A43.66,43.66,0,0,0,101.52,3.54c-5-1.2-10.67-1.51-15.23,1.19-2.92,1.69-5,5.3-3.31,8.56,1.5,3.4,5.15,5.73,5.71,9.55C89,25.74,85.9,27.4,83.48,28,78,29.26,72.4,27.12,67.15,25.56,55.56,21.41,43.52,20.2,32,25.32,21.11,30,21.37,39.76,26.76,48.81,33.88,59.61,46.9,67.3,59.11,70.93c6,1.76,11.88,3.72,17.8,5.65,5.71,1.87,11.52,3.61,16.86,6.41,2.64,1.3,5.17,3,6.54,5.72.52,1,1.46,3.07,0,3.67-.71.16-1.13-.46-1.36-1a12.65,12.65,0,0,0-1.54-2.54c-1.71-2.12-4.28-3.24-6.68-4.4a128.58,128.58,0,0,0-14.49-5.27c-7.91-2.7-16-4.93-23.85-7.69A71.09,71.09,0,0,1,32.79,59.6C26,53.71,20.07,45.43,20.51,36.05c.94-11.89,14.77-15.8,24.79-16.65a46,46,0,0,1,15.1,1.42c6.69,1.3,20,8.24,25.49,3h0a1.73,1.73,0,0,0,.2-.46v.05a3,3,0,0,0-.26-1.2,34,34,0,0,0-3.56-5c-4.38-5.42-2.74-11.79,3.32-15,9-4.46,19.74-1.15,27.86,3.73,11.14,6.61,17.73,17,22.19,28.91,1.7,4.24,3,8.64,4.25,13,1.12,3.28,2.63,8.38,7,8,4.84-1,8.87-7.12,12.49-10.39,7.82-8.21,18-13.73,29.56-12.78,18.66,1.32,32.21,16.4,18.2,33.16-6.1,7.62-14.68,12.74-23.61,16.42-10.36,4.37-21.28,7.56-31.5,12.24-3.25,1.56-6.44,3.21-9.55,5-1,.4-2.5,1.88-3.68,1.88a1.18,1.18,0,0,1-1-.51"/><path class="cls-14" d="M187.35,308.79c-9.48-2.57-19-6-27-11.81-9.24-6.72-14.57-17.13-21.13-26.22a102.07,102.07,0,0,0-16-17.4,1.29,1.29,0,0,1,.53-1.86c1.55-.63,2.73,1.45,3.82,2.26A94.12,94.12,0,0,1,138.14,265c7.28,8.9,12.27,19.62,20.8,27.48,11.78,10.36,31.71,15.29,47.05,17.42,11.26,1.31,22.62,1.08,33.93.85q10.35-.21,20.68-.64c6.55-.35,13.19-.31,19.67-1.49a2.8,2.8,0,0,1,1.74,0,.94.94,0,0,1,.44,1.16,1.41,1.41,0,0,1-1,.79c-6.29,1.91-13,1.61-19.49,2.08-12.75.56-25.52.89-38.28.89a135.52,135.52,0,0,1-36.29-4.73"/><path class="cls-14" d="M126.34,255a2.46,2.46,0,0,1-.83-.57,24.74,24.74,0,0,0-2-1.61c-.65-.44-1.54-1.14-.91-2,1-1.12,2,.33,2.79.87a8.25,8.25,0,0,1,2,2.17.93.93,0,0,1-.89,1.15l-.23,0"/><path class="cls-14" d="M12.74,285.69c-.94-.47-.35-1.57-.22-2.34.37-1.56.74-3.11,1.08-4.67,2.21-11,5.4-21.77,8.56-32.53a1,1,0,0,1,1.89.48c-.15.71-.31,1.42-.47,2.12-.34,1.31-.68,2.63-1,3.94l-.51,2.1c0,.07,0,.13,0,.19q-.71,2.59-1.45,5.18c-.26.9-.51,1.8-.76,2.7a5.39,5.39,0,0,0-.43.63,9.13,9.13,0,0,0-.53,1.09,12.19,12.19,0,0,0-.39,1.21c-.1.42-.17.84-.23,1.27a6.73,6.73,0,0,0-.07,1.42l0,.53c-.34,1.4-.67,2.79-1,4.19-.75,3.12-1.38,6.26-2.26,9.35-.37.94-.56,3.22-1.81,3.22a1.23,1.23,0,0,1-.4-.08"/><path class="cls-14" d="M283.67,420.29c-20.29-1-40.41-4.73-60.18-9.26a562.11,562.11,0,0,1-58.35-16.6c-9.07-3-18.13-6.11-26.87-10-2.54-1.11-5.05-2.26-7.49-3.58a1,1,0,0,1,.69-1.83c1.81.6,3.58,1.29,5.34,2h0l.67.3.94.4h0l1.55.63h0l.07,0h0l.22.08c8.9,3.86,18.09,7,27.3,10a569,569,0,0,0,76,20.15c10.86,2.05,21.82,3.53,32.8,4.73,2.06.2,4.14.38,6.21.54a6.45,6.45,0,0,1,2.36.42c1,.88.25,2-1,2a1.72,1.72,0,0,1-.32,0"/><path class="cls-14" d="M142.27,386.05c-3.48-1.33-6.73-3.22-10.17-4.63s-6.67-2.63-10-4.05a.93.93,0,0,1,.77-1.69A175.84,175.84,0,0,1,141.68,384c.62.33,1.77.52,1.51,1.47a.84.84,0,0,1-.92.56"/><path class="cls-14" d="M138.43,381.71c-.32-.12-.62-.26-.93-.39l-.67-.3c-.54-.24-1.08-.49-1.61-.75l-2.12-1-1.67-.83c-.49-.24-1-.48-1.47-.74l-.52-.26-.43-.22c-1.85-.48-3.69-.95-5.49-1.52a176.19,176.19,0,0,1-32.33-13.36c-7.37-4-14.9-7.78-22.13-12.06-4.57-2.81-9-5.81-13.82-8.17a2.45,2.45,0,0,0-1.6-.43,83,83,0,0,1-12.76-4.74A141.44,141.44,0,0,1,23,327.38a41.74,41.74,0,0,1-7.59-5.59l-.18-.19-.07-.09a29.87,29.87,0,0,1-4.6-7,15.53,15.53,0,0,1-1.63-6.1,4.92,4.92,0,0,1,.62-2.69,5.78,5.78,0,0,1,1.16-1.52,2.87,2.87,0,0,1,1.53-.52c1.42-.09,2.94.7,4.24,1.17a20.28,20.28,0,0,1,2,1c.28.16.53.36.8.52,9.9,11.58,26.27,22,34.51,23.05,1.31.36,2.48-.95,1.32-1.9-1-.47-2.06-.68-3.07-1.07a65.67,65.67,0,0,1-18-10c-6.05-4.32-19.49-16.52-20.32-26.11h0s0-.1,0-.15a1.1,1.1,0,0,0-.06-.57,8.35,8.35,0,0,1,1.45-5c1.3-1.86,3-3.07,5.38-2.66a2.25,2.25,0,0,0,.57,0c1,1.54,2,3,2.91,4.29,5.85,8,13.55,14.49,21.73,20.06,5,3.29,10.36,6.8,16.17,8.46,1,.37,2.16-.63,1.47-1.58a1.36,1.36,0,0,0-.7-.44A24,24,0,0,1,60,311.65,101.81,101.81,0,0,1,49,305.34c-11.38-7.55-22.29-16.93-28.16-29.53-2.58-5.17-3.71-16.1,5.19-13.63,2.54.87,4.46,2.84,6.48,4.52s3.91,3.42,5.88,5.16c9.47,8.76,19.53,17.21,31.36,22.62,3,1.35,14.2,6.67,16,2.43,1.14-4.05-6.47-7.23-9.2-9.24a119.33,119.33,0,0,1-13.75-9.78c-9.38-8-19.92-17.13-24.59-28.77-1-3.5-2.2-8.48,1.28-11,3.89-2.38,7.78-2.31,11.42.48a83.15,83.15,0,0,1,10.63,9.51c7.24,7.4,13.89,15.46,22.25,21.66,1.93,1.47,3.85,2.95,5.84,4.34a1.2,1.2,0,0,0,.91.22c.61.43,1.25.81,1.82,1.24a54.67,54.67,0,0,0,5.8,3.36,45.51,45.51,0,0,0,13,4.29c3.29.6,6.94.39,9.46-2.07.77-.84,2.49-2.15,1.25-3.3-1.21-.73-1.84.34-3.12,1.41s-3.28,2.2-7.25,1.35a44.17,44.17,0,0,1-12.73-4.28c-3-1.46-5.78-3.59-8.81-5-2.42-2.07-5-3.88-7.5-5.92-8.64-7.06-15.46-16-23.63-23.58-4.39-3.83-9.37-9.15-15.76-7.85a12.44,12.44,0,0,0-6.19,2.91C34,239.68,34.24,244,35,247.71c3.29,12,14.22,21.84,23.26,29.88A124.68,124.68,0,0,0,72.08,288c2,1.27,3.94,2.5,5.93,3.74,1.8,1.22,3.94,2.22,5.13,4.12-9.67-.37-24.77-10.36-32.28-16.5-4.42-3.61-8.38-7.41-12.75-11.22-3.26-2.69-6.3-6.05-10.13-8-3.25-1.63-7.69-1.24-10,1.76-3.19,5.38-1.37,11.79,1.62,17.38-2.76-.12-5.07,1.73-6.58,3.91-.12.17-.23.35-.33.52a15.09,15.09,0,0,0-1.28,5.9v0a1.6,1.6,0,0,0-.05.21c-.56,3.87-1,7.76-1.42,11.76l-.39.21a7.41,7.41,0,0,0-3.1,7.06c-.23,7.93,7.4,15.71,7.49,15.19A43,43,0,0,0,20,328.61a143.32,143.32,0,0,0,18.89,10.3c4.67,2.07,9.49,4.26,14.53,5.27a2.51,2.51,0,0,0,1.27.11c5.55,3.44,11,7.09,16.64,10.34,9.34,5,18.49,10.23,28.09,14.74a205,205,0,0,0,38,12.82,1,1,0,0,0,1.05-.47ZM12.94,296.8a35.61,35.61,0,0,0,2.74,4.84,9.85,9.85,0,0,0-3.2-.61C12.62,299.61,12.77,298.2,12.94,296.8Z"/></svg>