<svg width="335" height="378" viewBox="0 0 335 378" fill="none" xmlns="http://www.w3.org/2000/svg">
<path d="M285.14 249.623C285.14 249.153 285.14 248.683 285.06 248.203C285.06 247.793 284.99 247.383 284.94 246.983L284.85 246.283C284.85 246.133 284.85 245.963 284.78 245.803C284.75 245.362 284.562 244.947 284.25 244.633C284.166 244.564 284.076 244.504 283.98 244.453C283.798 244.372 283.599 244.337 283.4 244.353C283.191 244.359 282.987 244.421 282.811 244.534C282.635 244.647 282.493 244.806 282.4 244.993C282.243 245.621 282.216 246.274 282.32 246.913C282.383 247.407 282.416 247.905 282.42 248.403C282.184 248.508 281.978 248.671 281.822 248.878C281.666 249.084 281.566 249.327 281.53 249.583C280.785 250.68 279.916 251.686 278.94 252.583C278.19 253.373 277.46 254.163 276.72 254.973C276.852 254.948 276.988 254.948 277.12 254.973L277.26 255.023L277.4 255.103L277.47 255.153C277.528 255.206 277.578 255.267 277.62 255.333C277.625 255.356 277.625 255.38 277.62 255.403L277.71 255.583C277.715 255.653 277.715 255.723 277.71 255.793C277.71 256.013 277.81 256.233 277.84 256.463C277.87 256.693 277.91 256.903 277.93 257.133C277.962 257.358 277.979 257.586 277.98 257.813C278.014 259.275 277.917 260.738 277.69 262.183C277.62 262.573 277.55 263.053 277.43 263.543C277.43 263.703 277.35 263.863 277.3 264.023C277.192 264.451 276.998 264.853 276.73 265.203L276.55 265.393C276.363 265.556 276.128 265.655 275.88 265.673H275.61H275.38L275.12 265.593C275.002 265.543 274.888 265.483 274.78 265.413C274.68 265.344 274.587 265.267 274.5 265.183C274.472 265.332 274.435 265.479 274.39 265.623C274.39 265.723 274.33 265.823 274.29 265.923C274.257 266.021 274.213 266.115 274.16 266.203C274.119 266.29 274.065 266.371 274 266.443C274.006 266.463 274.006 266.484 274 266.503L273.87 266.623C275.27 266.153 276.67 265.713 278.08 265.303H278.13C278.65 265.143 279.18 264.993 279.7 264.853C280.027 264.762 280.342 264.635 280.64 264.473C280.841 264.612 281.064 264.717 281.3 264.783C281.94 264.95 282.62 264.86 283.196 264.534C283.771 264.207 284.196 263.668 284.38 263.033C284.855 260.155 285.056 257.239 284.98 254.323V253.743C284.98 253.643 284.98 253.553 284.98 253.453C284.98 253.343 284.98 253.233 284.98 253.113C285.16 252.023 285.18 250.823 285.14 249.623Z" fill="#D1D3D3"/>
<path d="M235.03 230.353C235.03 230.403 235.03 230.443 235.03 230.483C233.47 231.713 233.65 233.843 233.52 235.623C233.33 236.443 233.42 237.313 233.2 238.123C233.215 238.068 233.235 238.015 233.26 237.963C233.196 238.11 233.163 238.268 233.163 238.428C233.163 238.588 233.196 238.746 233.26 238.893C233.358 239.131 233.535 239.328 233.76 239.453L230.87 242.063L230.42 242.393L229.98 242.733L229.56 243.053L229.15 243.373L228.74 243.683L228.34 243.993L227.95 244.283L227.57 244.583L227.19 244.873L226.83 245.153L226.47 245.433L226.11 245.713L225.76 245.993L225.41 246.273L225.06 246.553L224.72 246.813L224.37 247.093L224.01 247.373L223.66 247.653L223.31 247.933L222.96 248.223L222.62 248.503L222.27 248.783L221.93 249.063L221.58 249.323L221.24 249.583L220.91 249.833L220.58 250.063L220.27 250.293L219.96 250.503L219.66 250.713L219.37 250.893L219.08 251.083L218.8 251.253L218.51 251.413L218.23 251.583L217.95 251.743L217.67 251.893L217.4 252.043L217.13 252.193L216.87 252.343L216.61 252.493L216.36 252.623L216.11 252.753L215.87 252.873L215.63 252.983L215.39 253.083L215.15 253.163L214.92 253.233L214.7 253.293H214.49H214.28H214.09H213.61H213.48H213.35H213.23H213.12H213.01H212.92L212.83 253.243H212.74L212.66 253.193H212.58L212.51 253.143L212.44 253.093H212.38L212.33 253.043H212.28V252.983V252.933V252.883V252.833V252.153V252.093V252.043V251.983V251.923V251.863V251.803V251.743V251.673V251.613V251.533V251.463V251.393V251.313V251.233V251.153L212.33 251.073V250.993L212.38 250.913V250.833V250.763L212.43 250.683L212.48 250.613L212.54 250.533V250.463L212.59 250.393L212.65 250.313V250.243L212.71 250.163L212.77 250.083L212.83 250.013L212.89 249.933L212.95 249.853L213.01 249.773L213.08 249.683L213.14 249.603L213.2 249.523L213.26 249.443L213.33 249.363L213.39 249.283L213.46 249.203L213.53 249.123L213.6 249.043L213.68 248.963L213.76 248.873L213.84 248.793L213.92 248.713L214.01 248.633L214.09 248.553L214.18 248.473L214.27 248.393L214.36 248.313L214.45 248.233L214.55 248.143L214.64 248.053L214.74 247.963L214.85 247.863L214.96 247.763L215.07 247.653L215.18 247.553L215.29 247.443L215.87 246.943L215.99 246.823L216.11 246.703L216.23 246.573L216.36 246.453L216.49 246.333L216.62 246.203L216.75 246.073L216.9 245.933L217.05 245.793L217.21 245.653L217.37 245.503L217.55 245.343L217.74 245.183L217.94 245.013L218.15 244.833L218.37 244.653L218.58 244.483L218.8 244.303L219.03 244.123L219.26 243.933L219.49 243.753L219.71 243.573L219.94 243.383L220.15 243.203L220.37 243.013L220.58 242.833L220.78 242.653L220.98 242.473L221.18 242.293L221.38 242.113L221.59 241.933L221.79 241.753L222 241.573L222.2 241.403L222.42 241.233L222.64 241.063L222.86 240.893L223.09 240.713L223.32 240.543L223.54 240.373L223.76 240.203L223.98 240.033L224.2 239.863L224.42 239.703L224.63 239.533L224.84 239.383L225.06 239.223L225.28 239.063L225.5 238.893L225.73 238.733L225.96 238.563L226.18 238.393L226.41 238.223L226.64 238.043L226.87 237.853L227.11 237.663L227.33 237.463L227.56 237.263L227.79 237.063L228.01 236.853L228.24 236.653L228.47 236.443L228.69 236.233L228.92 236.033L229.15 235.833L229.38 235.633L229.61 235.423L229.84 235.213L230.07 235.013L230.3 234.813L230.52 234.603L230.74 234.393L230.96 234.183L231.18 233.973L231.4 233.763L231.61 233.563L231.82 233.363L232.04 233.163L232.25 232.973L232.46 232.783L232.67 232.603L232.87 232.423L233.07 232.253L233.27 232.083L233.46 231.913L233.64 231.763L233.81 231.603L233.98 231.453L234.13 231.313L234.29 231.153L234.44 231.003L234.58 230.863L234.72 230.713L234.85 230.583L234.97 230.453L235.03 230.353Z" fill="#F3AF49"/>
<path d="M266.78 94.2932V95.2332V95.4232V95.6232V95.8232V96.0232V96.2432V96.4532V96.6632V96.8932V97.1132V97.3432V97.5632V97.7832V98.0032V98.2432V98.4832V98.7232V98.9732L266.73 99.2232V99.4732L266.68 99.7332L266.63 100.003L266.57 100.263L266.51 100.533L266.46 100.793L266.4 101.063L266.34 101.333L266.28 101.603L266.21 101.883L266.14 102.163L266.06 102.453L265.98 102.733L265.91 103.013L265.83 103.303L265.75 103.593L265.67 103.873L265.59 104.163L265.51 104.463L265.43 104.753L265.34 105.053L265.25 105.353L265.15 105.643L265.06 105.943L264.97 106.233L264.89 106.523L264.8 106.823L264.71 107.123L264.62 107.423L264.53 107.733L264.44 108.043L264.35 108.353L264.27 108.663L264.19 108.983L264.11 109.303L264.04 109.623L263.96 109.953L263.89 110.293L263.81 110.623L263.75 110.963L263.68 111.303L263.61 111.633L263.55 111.963L263.49 112.293L263.43 112.623L262.87 112.943L262.82 113.253L262.76 113.573L262.71 113.873L262.66 114.163V114.453L262.61 114.733L262.56 115.003V115.273V115.543V115.803V116.053V116.303V116.533V116.763V116.983V118.823V118.973V119.113V119.263V119.403V119.533V119.653V119.773V119.893V120.003V120.103V120.213L262.61 120.303L262.66 120.403V120.503L262.72 120.593L262.77 120.683L262.83 120.773L262.89 120.853L262.95 120.933L263 121.003L263.06 121.073L263.12 121.133H263.17L263.23 121.183H263.29L263.35 121.233H263.41H263.47H263.53H263.6H263.66H264.56C264.02 121.867 263.523 122.535 263.07 123.233C261.07 126.383 259.76 129.953 257.61 133.033C253.24 139.623 248.03 145.653 244.08 152.513C238.02 162.233 241.68 169.983 244.14 179.973C245.14 184.823 243.64 189.833 241.41 194.133C241.322 194.24 241.256 194.364 241.218 194.497C241.18 194.63 241.17 194.77 241.189 194.907C241.208 195.044 241.255 195.176 241.328 195.294C241.4 195.413 241.496 195.514 241.61 195.593H241.56L241.19 195.783L240.82 195.963L240.47 196.163L240.13 196.353L239.8 196.543L239.49 196.733L239.19 196.913L238.9 197.093L238.61 197.283L238.33 197.473L238.05 197.673L237.76 197.873L237.48 198.093L237.2 198.313L236.9 198.553L236.61 198.793L236.3 199.053L235.98 199.313L235.65 199.583L235.3 199.863L234.94 200.143L234.58 200.433L234.22 200.723L233.85 201.013L233.47 201.313L233.09 201.613L232.71 201.913L232.32 202.213L231.92 202.523L231.52 202.823L231.11 203.133L230.69 203.443L230.27 203.753L229.85 204.073L229.43 204.393L229 204.713L228.57 205.043L228.13 205.373L227.7 205.703L227.26 206.043L226.83 206.373L226.41 206.713L226 207.053L225.59 207.383L225.2 207.713L224.81 208.033L224.44 208.343L224.08 208.643L223.75 208.933L223.43 209.213L223.13 209.473L222.86 209.723L222.59 209.963L222.34 210.183L222.1 210.403L221.87 210.613L221.65 210.813L221.44 211.023L221.24 211.223L221.04 211.433L220.85 211.643L220.66 211.863L220.47 212.093L220.29 212.323L220.1 212.563L219.89 212.833L219.66 213.113L219.41 213.413L219.15 213.723L218.87 214.043L218.57 214.373L218.25 214.733L217.9 215.093L217.54 215.453L217.18 215.823L216.82 216.173L216.48 216.513L216.12 216.853L215.77 217.183L215.43 217.503L215.13 217.793L214.87 218.043L214.7 218.203H214.65L214.43 218.433L214.19 218.693L213.92 218.963L213.64 219.243L213.35 219.523L213.06 219.813L212.75 220.103L212.43 220.393L212.11 220.683L211.79 220.973L211.46 221.263L211.12 221.553L210.78 221.833L210.43 222.113L210.07 222.393L209.71 222.673L209.33 222.943L208.95 223.223L208.8 223.333L209.23 221.833L198.97 229.703L198.82 229.783L198.35 230.043L197.87 230.303L197.39 230.573L196.91 230.833L196.42 231.093L195.92 231.363L195.42 231.623L194.92 231.873L194.42 232.133L193.92 232.373L193.42 232.613L192.92 232.843L192.43 233.073L191.94 233.283L191.45 233.483L190.96 233.683L190.48 233.863L189.99 234.043L189.51 234.213L189.04 234.373L188.57 234.533L188.1 234.683L187.63 234.813L187.16 234.953L186.7 235.083L186.24 235.203L185.79 235.313L185.34 235.423L184.9 235.523L184.47 235.633L184.04 235.723L183.62 235.803L183.2 235.883L182.8 235.953L182.4 236.023L182.02 236.093H181.83L174.16 215.093V215.043V214.993V214.933V214.873V213.943V213.893V213.843V213.793V213.733V213.673V213.613V213.553V213.493V213.433V213.373V213.303V213.233V213.173V213.093V213.023V212.933V212.853V212.763V212.683V212.593V212.493V212.393V212.293V212.203V212.113V212.013V211.913V211.813V211.723V211.633V211.543V211.443V211.343V211.243V211.143V211.043V210.943V210.833V210.723V210.623V210.513V210.413V210.313V210.213V210.103V210.003V209.893V209.783V209.663V209.543V209.433V209.303V209.173V209.053V208.913V208.773V208.633V208.493V208.343V208.193V208.053V207.913V207.763V207.613V207.453V205.883V205.673V205.443V205.223V205.003L174.22 204.773L174.28 204.533L174.35 204.283L174.44 204.043L174.54 203.803L174.64 203.553L174.77 203.293L174.92 203.023L175.09 202.733L175.28 202.423L175.49 202.083L175.72 201.723L175.99 201.323L176.29 200.893L176.63 200.403L177 199.873L177.39 199.303L177.81 198.703L178.21 198.113L178.53 197.653L178.65 197.463L178.75 197.353L178.86 197.233L178.97 197.113L179.09 196.993L179.21 196.873L179.33 196.753L179.46 196.643L179.59 196.523L179.72 196.393L179.86 196.273L180 196.143L180.14 196.003L180.28 195.873L180.43 195.733L180.57 195.593L180.72 195.463L180.85 195.323L180.99 195.203L181.13 195.063L181.27 194.933L181.41 194.793L181.56 194.653L181.71 194.513L181.86 194.373L182 194.233L182.15 194.093L182.3 193.963L182.45 193.843L182.6 193.713L182.75 193.593L179.87 192.943L180.04 192.823L180.21 192.703L180.38 192.583L180.55 192.463L180.71 192.363L180.86 192.253L181.02 192.153L181.18 192.043L181.34 191.933L181.5 191.833L181.67 191.723L181.83 191.613L182.01 191.503L182.19 191.383L182.37 191.263L182.55 191.153L182.72 191.043L182.87 190.943L183.06 190.833L183.25 190.713L183.44 190.593L183.64 190.473L183.84 190.353L184.03 190.233L184.23 190.113L184.43 190.003L184.63 189.893L184.83 189.773L185.03 189.663L185.24 189.553L185.45 189.443L185.65 189.323L185.86 189.213L186.06 189.103L186.26 188.993L186.46 188.893L186.66 188.783L186.87 188.673L187.08 188.573L187.28 188.463L187.49 188.363L187.7 188.253L187.91 188.153L188.12 188.053L188.33 187.953L188.54 187.853L188.74 187.753L188.96 187.653L189.18 187.553L189.39 187.453L189.6 187.353L189.8 187.263L190 187.173L190.21 187.083L190.43 186.993L190.64 186.903L190.85 186.813L191.05 186.723L191.25 186.643L191.46 186.553L191.66 186.473L191.87 186.393L192.07 186.313L192.27 186.233L192.47 186.163L192.69 186.083L192.91 186.003L193.12 185.933L193.34 185.853L193.55 185.783L193.75 185.723L193.97 185.643L194.19 185.573L194.42 185.503L194.64 185.423L194.86 185.353L195.09 185.273L195.31 185.203L195.53 185.123L195.76 185.043L195.97 184.973L196.19 184.893L196.4 184.813L196.63 184.733L196.86 184.663L197.08 184.583L197.3 184.513L197.51 184.463L197.72 184.403L197.94 184.343H198.16L198.38 184.283L198.61 184.233L198.82 184.183H199.04H199.26L199.49 184.133L199.71 184.083H199.93L200.14 184.033H200.35L200.58 183.973L200.81 183.923L201.03 183.863H201.25L201.47 183.813H201.68L201.89 183.763L202.11 183.713H202.32H202.53L202.73 183.663H202.94H203.16H203.37H203.57H203.77H203.96H204.14H204.33H204.51H204.7H204.88H205.07H205.25H205.45H205.63H205.82H205.99H206.16H206.32H206.49H206.66H206.82H206.99H207.15H207.31H207.48H207.64H207.79H207.94H208.08H208.23H208.36H208.5H208.63H208.75H208.87H208.99H209.12H209.24H209.36H209.47H209.58H209.69H209.79H209.89H209.99H210.08H210.17H210.25H210.33H210.41H210.48H210.55H210.61L210.68 183.613H210.74H210.79L210.85 183.563V183.513H210.91L210.97 183.463L211.02 183.403V183.343L211.08 183.283L211.13 183.223V183.153L211.19 183.083L211.24 183.013L211.29 182.943V182.863V182.793V182.723V182.643V182.563V182.483V182.403V182.323V182.233V182.153V182.063V181.963V181.873L211.34 181.783L211.39 181.683V181.583L211.44 181.483V181.373L211.49 181.263L211.54 181.163L211.6 181.053V180.943L211.65 180.833V180.733L211.7 180.623L211.75 180.513V180.403L211.8 180.293V180.173L211.85 180.063L211.9 179.943V179.823L211.96 179.693L212.01 179.573L212.07 179.433V179.303L212.13 179.153L212.19 179.003L212.25 178.863L212.3 178.713V178.553L212.35 178.403V178.253V178.103V177.953V177.793V177.633V177.473L212.4 177.313V177.153V176.973V176.793L212.45 176.593V176.393L212.5 176.173V175.963L212.56 175.733L212.61 175.503V175.263L212.67 175.003L212.72 174.763L212.78 174.503L212.85 174.243L212.92 173.963L212.99 173.693L213.06 173.413L213.13 173.143L214.87 170.943L214.94 170.653L215.01 170.373L215.08 170.083L215.16 169.803L215.24 169.513L215.32 169.223L215.4 168.923L215.48 168.633L215.56 168.333L215.64 168.023L215.72 167.723L215.8 167.413L215.88 167.093L215.97 166.773L216.06 166.443L216.15 166.113L216.24 165.773L216.33 165.443L216.42 165.103L216.51 164.763L216.6 164.423L216.69 164.073L216.79 163.733L216.88 163.383L216.97 163.033L217.06 162.693L217.15 162.333L217.23 161.973L217.33 161.613L217.42 161.253L217.52 160.893L217.61 160.523L217.7 160.153L217.79 159.783L217.89 159.403L217.98 159.013L218.08 158.633L218.17 158.243L218.27 157.843L218.36 157.453L218.45 157.063L218.55 156.683L218.63 156.293L218.73 155.913L218.82 155.543L218.91 155.183L218.99 154.833L219.08 154.493L219.16 154.163L219.24 153.843L219.32 153.523L219.4 153.223L219.47 152.923L219.55 152.643L219.62 152.373L219.69 152.113L219.76 151.853L219.83 151.613L219.9 151.383L219.96 151.153L220.03 150.943L220.09 150.733L220.15 150.533L220.2 150.363V150.203L220.25 150.053V149.933V149.813V149.723V149.663V149.593L223.8 136.663V136.513L223.85 136.353L223.9 136.173L223.96 135.973L224.03 135.763L224.1 135.533L224.17 135.303L224.25 135.063L224.32 134.823L224.41 134.553L224.5 134.283L224.6 134.003L224.71 133.723L224.82 133.433L224.93 133.143L225.05 132.843L225.17 132.553L225.29 132.243L225.42 131.953L225.56 131.653L225.69 131.353L225.83 131.063L225.98 130.773L226.12 130.483L226.26 130.193L226.41 129.913L226.55 129.633L226.7 129.343L226.85 129.053L227 128.763L227.15 128.473L227.3 128.183L227.44 127.893L227.59 127.593L227.73 127.283L227.88 126.973L228.03 126.653L228.18 126.333L228.32 126.013L228.47 125.693L228.62 125.363L228.76 125.023L228.92 124.693L229.07 124.353L229.21 124.013L229.36 123.673L229.51 123.333L229.67 123.003L229.82 122.653L229.98 122.323L230.14 121.983L230.29 121.653L230.45 121.333L230.6 121.013L230.75 120.693L230.91 120.383L231.06 120.063L231.22 119.763L231.37 119.463L231.53 119.163L231.68 118.863L231.84 118.563L232 118.273L232.16 117.983L232.31 117.693L232.47 117.403L232.63 117.113L232.79 116.823L232.95 116.533L233.11 116.253L233.27 115.963L233.43 115.683L233.59 115.393L233.76 115.113L233.92 114.843L234.08 114.563L234.24 114.283L234.4 114.003L234.56 113.733L234.72 113.463L234.87 113.193L235.03 112.923L235.19 112.653L235.36 112.383L235.52 112.113L235.68 111.853L235.84 111.593L236 111.333L236.16 111.063L236.33 110.803L236.49 110.543L236.65 110.283L236.81 110.023L236.98 109.763L237.14 109.503L237.3 109.243L237.47 108.993L237.63 108.733L237.8 108.483L237.97 108.233L238.14 107.983L238.31 107.733L238.48 107.483L238.65 107.243L238.82 106.993L239 106.733L239.17 106.493L239.35 106.243L239.52 105.993L239.7 105.743L239.88 105.493L240.06 105.253L240.25 104.993L240.43 104.753L240.62 104.503L240.8 104.263L240.99 104.013L241.19 103.773L241.38 103.513L241.58 103.263L241.78 103.013L241.98 102.763L242.17 102.503L242.38 102.253L242.58 101.983L242.79 101.723L243 101.453L243.2 101.183L243.41 100.913L243.63 100.633L243.84 100.363L244.06 100.083L244.28 99.8132L244.49 99.5432L244.71 99.2632L244.93 98.9932L245.15 98.7232L245.37 98.4532L245.59 98.1832L245.81 97.9132L246.03 97.6532L246.25 97.3932L246.46 97.1332L246.68 96.8732L246.89 96.6132L247.11 96.3632L247.32 96.1232L247.53 95.8732L247.74 95.6232L247.96 95.3932L248.17 95.1432L248.38 94.9132L248.59 94.6832L248.8 94.4632L249.01 94.2432L249.22 94.0232L249.42 93.8132L249.63 93.6032L249.83 93.4032L250.04 93.2032L250.24 93.0132L250.43 92.8232L250.63 92.6332L250.82 92.4532L251.02 92.2732L251.21 92.0832L251.4 91.9132L251.59 91.7332L251.78 91.5632L251.96 91.3932L252.15 91.2232L252.34 91.0532L252.53 90.8832L252.71 90.7132L252.89 90.5532L253.07 90.3932L253.26 90.2332L253.44 90.0732L253.87 89.9432L254.04 89.7832L254.22 89.6332L254.4 89.4832L254.58 89.3332L254.76 89.1932L254.93 89.0532L255.1 88.9332L255.27 88.8032L255.45 88.6832L255.63 88.5632L255.82 88.4532L255.99 88.3432L256.15 88.2532L256.31 88.1632L256.47 88.0832L256.63 88.0032L256.78 87.9332L256.93 87.8632L257.08 87.7932L257.23 87.7332L257.39 87.6732L257.55 87.6132L257.71 87.5532H257.86H258H258.15H258.29H258.44H258.58H258.73H258.87H259.02H259.17H259.33H259.49H259.65H259.81H259.97H260.13H260.29H260.45H260.61H260.78H260.95H261.13H261.31H261.49H262.22H262.38H262.55H262.7H262.86H263.01H263.17H263.32L263.48 87.6032H263.62H263.77L263.91 87.6632L264.06 87.7332L264.19 87.8032L264.32 87.8732L264.45 87.9532L264.56 88.0332L264.68 88.1332L264.79 88.2232L264.89 88.3332L264.99 88.4432L265.09 88.5532L265.17 88.6732L265.26 88.8032L265.34 88.9332L265.42 89.0832L265.49 89.2232L265.56 89.3732L265.63 89.5232L265.7 89.6932L265.77 89.8632L265.83 90.0332L265.9 90.2032L265.96 90.3832L266.01 90.5632L266.07 90.7532L266.13 90.9332L266.18 91.1032L266.23 91.2832L266.28 91.4432V91.6132V91.7832V91.9432V92.1132V92.2832V92.4532V92.6132V92.7832V92.9532V93.1232V93.2932V93.4632V93.6432V93.8232V94.0032V94.1832V94.7332L266.78 94.2932Z" fill="#F3AF49"/>
<path d="M332.71 69.6233V69.4333V69.3333V69.2433V69.1433V69.0433V68.9433V68.8533V68.7533V68.6533L332.66 68.5533V68.4533V68.3433L332.61 68.2433L332.56 68.1333L332.51 68.0233L332.46 67.9033L332.4 67.7833L332.35 67.6633L332.29 67.5533L332.23 67.4333L332.17 67.3033L332.11 67.1833L332.05 67.0733L331.67 66.9433L331.6 66.8233L331.53 66.7133L331.46 66.6133L331.38 66.5033L331.3 66.4033L331.21 66.3033L331.12 66.2033L331.04 66.1133L330.87 65.9433L330.77 65.8433L330.66 65.7433L330.56 65.6433L330.45 65.5533L330.34 65.4533L330.23 65.3533L330.13 65.2533L330.02 65.1533L329.91 65.0533L329.77 64.9433L329.55 64.7633L329.43 64.6833L329.3 64.6033L329.18 64.5333L329.05 64.4633L328.91 64.4033L328.76 64.3433H328.61H328.44H328.28H328.11H327.94H327.77H327.6H327.43H327.09H326.87H326.68H326.11H325.35H324.78H324.58H324.37H324.15H323.95H323.75H323.55H323.34H323.14H322.93H322.73H322.53H322.32H322.1H321.88H321.66H321.45H321.25H321.03L320.8 64.3933H320.58H320.36L320.13 64.4433L319.91 64.5033L319.67 64.5633L319.44 64.6333L319.2 64.7033L318.96 64.7733L318.72 64.8433L318.48 64.9233L318.24 65.0133L317.99 65.0933L317.74 65.1833L317.5 65.2833L317.25 65.3733L317.01 65.4733L316.76 65.5733L316.51 65.6833L316.26 65.7833L316.01 65.8933L315.77 66.0033L315.52 66.1033L315.27 66.2133L315.03 66.3233L314.53 66.5433L314.27 66.6633L314.03 66.7733L313.77 66.8933L313.27 67.1333L313.01 67.2633L312.75 67.3933L312.5 67.5233L312.24 67.6633L311.98 67.8033L311.73 67.9533L311.47 68.0933L311.21 68.2533L310.95 68.4033L310.69 68.5633L310.43 68.7233L310.17 68.8833L309.91 69.0433L309.65 69.2133L309.39 69.3833L309.13 69.5533L308.87 69.7233L308.6 69.9033L308.34 70.0833L308.08 70.2633L307.81 70.4533L307.54 70.6533L307.28 70.8533L307.01 71.0533L306.74 71.2533L306.47 71.4733L306.2 71.6933L305.93 71.9233L305.66 72.1533L305.39 72.3833L305.12 72.6133L304.86 72.8533L304.59 73.0933L304.33 73.3333L304.07 73.5633L303.81 73.8033L303.31 74.2833L303.05 74.5133L302.8 74.7633L302.54 75.0033L302.04 75.4833L301.79 75.7333L301.53 75.9833L301.27 76.2433L301.01 76.5033L300.76 76.7733L300.5 77.0333L300.24 77.3133L299.98 77.6133L299.72 77.9033L299.46 78.1933L299.2 78.5033L298.94 78.8133L298.68 79.1333L298.41 79.4533L298.15 79.7733L297.89 80.1033L297.63 80.4233L297.37 80.7633L297.11 81.0933L296.85 81.4233L296.59 81.7633L296.34 82.0933L296.08 82.4333L295.83 82.7733L295.58 83.1033L295.08 83.7633L294.84 84.0933L294.6 84.4233L294.37 84.7533L294.13 85.0733L293.91 85.4033L293.69 85.7233L293.47 86.0433L293.25 86.3533L293.04 86.6633L292.83 86.9833L292.62 87.2933L292.42 87.5933L292.23 87.9033L292.03 88.2033L291.87 88.9433L291.68 89.2433L291.5 89.5433L291.31 89.8333L291.13 90.1133L290.96 90.3933L290.79 90.6733L290.61 90.9433L290.44 91.2133L290.1 91.7333L289.94 91.9933L289.77 92.2433L289.61 92.5033L289.45 92.7533L289.29 93.0133L289.13 93.2733L288.97 93.5333L288.81 93.7833L288.65 94.0433L288.49 94.3033L288.34 94.5733L288.18 94.8333L288.03 95.0933L287.87 95.3633L287.71 95.6233L287.55 95.8833L287.39 96.1433L287.23 96.3933L287.07 96.6433L286.91 96.9033L286.75 97.1533L286.58 97.4133L286.4 97.6633L286.23 97.9133L286.06 98.1533L285.89 98.3933L285.71 98.6233L285.54 98.8633L285.36 99.0933L285.18 99.3233L284.99 99.5533L284.81 99.7833L284.63 100.013L284.46 100.233L284.28 100.463L284.11 100.693L283.77 101.153L283.6 101.383L283.43 101.613L283.26 101.843L283.1 102.073L282.93 102.303L282.76 102.533L282.59 102.773L282.42 103.003L282.25 103.243L282.08 103.473L281.91 103.713L281.75 103.943L281.41 104.403L281.24 104.643L281.07 104.873L280.9 105.083L280.74 105.293L280.57 105.513L280.41 105.723L280.24 105.933L280.08 106.143L279.91 106.353L279.75 106.563L279.58 106.763L279.42 106.983L279.26 107.183L279.1 107.393L278.95 107.593L278.8 107.793L278.65 107.993L278.5 108.193L278.35 108.403L278.19 108.603L278.05 108.793L277.91 108.983L277.77 109.173L277.62 109.363L277.48 109.563L277.35 109.743L277.09 110.103L276.95 110.283L276.82 110.453L276.69 110.623L276.57 110.783L276.45 110.933L276.34 111.093L276.23 111.243L276.12 111.383L276.01 111.533L275.9 111.673L275.79 111.823L275.68 111.963L275.57 112.113L275.45 112.253L275.34 112.403L275.23 112.543L275.12 112.673L275.03 112.803L274.93 112.933L274.83 113.063L274.73 113.193L274.64 113.313L274.55 113.423L274.46 113.543L274.37 113.673L274.27 113.793L274.17 113.913L274.06 114.043L273.97 114.163L273.87 114.283L273.77 114.403L273.67 114.513L273.58 114.623L273.48 114.743L273.4 114.853L273.31 114.953L273.21 115.063L273.12 115.183L273.02 115.293L272.92 115.403C273.29 115.233 273.66 115.063 274.03 114.913C274.4 114.763 274.77 114.603 275.15 114.463L275.91 114.173C276.33 114.023 276.75 113.883 277.18 113.753L278.46 113.353C282.59 112.093 289.06 112.353 289.07 118.013C288.97 120.403 287.72 122.543 286.74 124.663C286.6 124.953 286.46 125.253 286.3 125.543C286.06 126.013 285.81 126.483 285.54 126.943C285.41 127.183 285.27 127.413 285.13 127.643C284.86 128.113 284.57 128.583 284.28 129.033C283.99 129.483 283.73 129.883 283.46 130.293L282.63 131.503C281.677 132.837 280.7 134.17 279.7 135.503C279.033 136.383 278.367 137.263 277.7 138.143L276.29 139.983L275.85 140.553C275.1 141.553 274.34 142.553 273.59 143.553V143.613C271.735 146.109 270.026 148.71 268.47 151.403C268.17 151.923 267.88 152.453 267.6 152.993L267.54 153.113C267.27 153.623 267.01 154.113 266.77 154.673L266.71 154.803C266.45 155.353 266.2 155.903 265.97 156.463C263.657 161.19 262.828 166.506 263.59 171.713C263.88 173.483 264.85 175.013 265.51 176.663C266.624 179.31 266.849 182.248 266.15 185.033C265.55 187.563 264.31 189.893 263.48 192.363C262.486 195.237 262.286 198.325 262.9 201.303C263.9 205.063 265.41 208.823 264.73 212.783C264.608 213.528 264.444 214.266 264.24 214.993C264.24 215.053 264.24 215.113 264.19 215.173L264.04 215.793C263.97 216.063 263.91 216.323 263.86 216.583L264.19 216.463L264.51 216.343L264.82 216.233L265.13 216.123L265.44 216.023L265.73 215.923L266 215.823L266.26 215.743L266.52 215.653L266.77 215.573L267 215.493L267.23 215.423L267.45 215.353L267.66 215.293L267.87 215.233L268.08 215.183L268.46 215.083H268.63H268.79H268.95H269.11H269.26H269.4H269.54H270.74H270.87H270.99H271.23H271.35H271.47H271.6H271.73H271.86H272L272.14 215.133H272.28L272.42 215.183H272.55L272.68 215.243L272.8 215.293L272.92 215.353H273.04L273.15 215.413L273.25 215.483L273.35 215.543L273.45 215.613L273.54 215.683L273.64 215.763L273.74 215.833L273.83 215.923L273.93 216.013L274.03 216.103L274.14 216.213L274.24 216.313L274.34 216.423L274.43 216.533L274.53 216.643L274.62 216.763L274.7 216.883L274.79 217.003L274.86 217.133L274.93 217.263L275 217.383L275.06 217.523L275.18 217.803L275.23 217.943L275.28 218.073L275.33 218.203V218.333L275.38 218.473L275.43 218.603L275.48 218.733L275.58 218.973L275.64 219.093L275.69 219.213L275.75 219.333L275.8 219.443L275.9 219.663L275.95 219.783L276 219.883V220.003V220.103V220.213V220.323V220.433V220.543V220.653V220.753V220.863V220.983V221.103V221.233V221.473V221.593V221.713V221.833V221.953V223.463V223.643V223.743V223.793V223.843V223.893V223.943V225.943V226.043V226.143V226.253V226.353V226.453V226.553V226.653V226.753V226.843V226.943V227.033V227.123V227.213V227.303V227.393V227.573V227.753V229.653V229.833V230.943V231.083V231.133H276.08H278.24H278.35H278.45H278.56H278.67V231.083V230.993V230.893V230.783V230.653V230.513V230.353V230.173V229.983V229.783V229.583V229.343V229.083V228.803V228.503V227.843V227.483V222.833V222.273V221.683V221.073V220.443V219.803L278.62 219.153L278.56 218.483L278.5 217.793L278.44 217.093L278.3 215.673L278.22 214.953L278.15 214.233L278.07 213.513L277.99 212.783L277.91 212.053L277.81 211.333L277.72 210.613L277.62 209.893L277.51 209.163L277.39 208.443L277.26 207.733L277.13 207.023L276.98 206.323L276.84 205.633L276.69 204.933L276.53 204.253L276.37 203.573L276.2 202.913L276.03 202.263L275.86 201.623L275.73 201.133V201.003C275.66 200.803 275.59 200.593 275.53 200.393C275.47 200.193 275.53 200.293 275.53 200.243L275.47 200.073C275.47 199.973 275.39 199.873 275.36 199.773C275.24 199.463 275.12 199.153 275.01 198.843C274.9 198.533 274.77 198.173 274.64 197.843L274.43 197.203C274.32 196.963 274.21 196.713 274.11 196.463C274.01 196.213 273.88 195.833 273.77 195.463C273.66 195.093 273.56 194.863 273.47 194.563C273.38 194.263 273.23 193.863 273.13 193.503C273.03 193.143 272.86 192.503 272.72 192.073C272.63 191.743 272.56 191.403 272.48 191.073L272.27 190.173C272.11 189.503 271.98 188.833 271.84 188.173C271.57 186.873 271.38 185.563 271.2 184.243C271.15 183.893 271.13 183.533 271.1 183.173C271.1 183.023 271.1 182.883 271.1 182.733V181.913C271.1 181.783 271.1 181.653 271.1 181.513V181.943C271.1 181.463 271.1 180.943 271.1 180.503L271.16 179.093C271.16 178.423 271.22 177.753 271.28 177.093C271.28 176.683 271.35 176.283 271.38 175.873C271.41 175.463 271.45 175.263 271.49 174.953C271.57 174.253 271.66 173.563 271.76 172.873C271.86 172.183 271.96 171.533 272.07 170.873C272.29 169.543 272.58 168.233 272.87 166.873C273.43 164.363 274.14 161.873 274.71 159.373C274.97 158.223 275.23 157.073 275.47 155.923C275.71 154.613 275.93 153.303 276.14 151.993C276.23 151.393 276.32 150.803 276.39 150.203C276.46 149.603 276.54 148.773 276.6 148.053C276.6 147.833 276.6 147.603 276.65 147.383C276.65 146.463 276.72 145.543 276.65 144.613C276.629 144.234 276.582 143.856 276.51 143.483C276.441 143.096 276.34 142.715 276.21 142.343C276.219 142.314 276.219 142.283 276.21 142.253L276.09 141.903C276.09 141.903 276.09 141.813 276.04 141.773C275.954 141.57 275.887 141.359 275.84 141.143C275.835 141.09 275.835 141.036 275.84 140.983C275.847 140.935 275.866 140.889 275.896 140.851C275.926 140.812 275.965 140.782 276.01 140.763H276.07H276.12C276.181 140.743 276.247 140.743 276.308 140.763C276.369 140.784 276.422 140.823 276.459 140.876C276.496 140.929 276.516 140.992 276.514 141.056C276.512 141.12 276.49 141.183 276.45 141.233L276.51 141.393V141.343L276.61 141.223L276.67 141.153L276.73 141.093L276.79 141.033L276.85 140.973H276.92L276.99 140.913L277.06 140.863H277.13L277.29 140.763H277.38H277.48H277.57H277.67L277.78 140.713L278 140.593L278.12 140.533L278.24 140.463L278.35 140.403L278.47 140.333L278.59 140.253L278.72 140.183L278.84 140.103L278.97 140.023L279.21 139.863L279.33 139.793L279.45 139.723L279.69 139.583L279.93 139.463L280.05 139.413H280.15L280.82 138.573L281.57 137.643L281.64 137.523L281.75 137.353L281.86 137.163L281.98 136.973V136.913L282.06 136.793L282.17 136.613L282.27 136.443L282.38 136.273L282.48 136.103L282.59 135.913L282.71 135.723L282.83 135.523L282.95 135.313L283.08 135.103L283.2 134.883L283.33 134.653L283.46 134.413L283.58 134.163L283.72 133.903L283.85 133.623L284 133.343L284.14 133.043L284.29 132.733L284.43 132.413L284.58 132.093L284.74 131.753L284.9 131.403L285.06 131.043L285.23 130.683L285.4 130.333L285.57 129.963L285.74 129.603L285.91 129.233L286.09 128.863L286.28 128.493L286.46 128.133L286.64 127.763L286.83 127.403L287.02 127.033L287.22 126.663L287.43 126.293L287.63 125.913L287.85 125.543L288.07 125.153L288.3 124.763L288.54 124.353L288.78 123.943L289.04 123.513L289.31 123.083L289.58 122.633L289.87 122.193L290.16 121.733L290.46 121.273L290.77 120.823L291.07 120.363L291.39 119.913L291.72 119.463L292.05 119.003L292.38 118.553L292.73 118.093L293.08 117.643L293.44 117.173L293.8 116.723L304.25 105.953L304.34 105.873L304.49 105.743L304.64 105.603L304.79 105.473L304.94 105.343L305.09 105.203L305.24 105.073L305.4 104.923L305.56 104.763L305.73 104.603L306.29 104.043L306.49 103.833L306.7 103.603L306.92 103.373L307.15 103.123L307.39 102.853L307.64 102.573L307.89 102.283L308.16 101.973L308.43 101.663L308.7 101.333L308.98 101.003L309.28 100.653L309.58 100.293L309.89 99.9333L310.2 99.5733L310.51 99.2033L310.84 98.8233L311.17 98.4433L311.5 98.0533L311.84 97.6633L312.18 97.2733L312.53 96.8833L312.88 96.4833L313.23 96.0933L313.58 95.6933L313.93 95.3033L314.28 94.9033L314.63 94.5233L314.98 94.1233L315.32 93.7433L315.67 93.3533L316 92.9733L316.34 92.5933L316.67 92.2233L317 91.8533L317.32 91.4833L317.64 91.1233L317.96 90.7633L319.87 89.9433L320.18 89.5933L320.48 89.2433L320.79 88.9133L321.08 88.5633L321.38 88.2333L321.67 87.9033L321.95 87.5833L322.22 87.2533L322.49 86.9333L322.75 86.6233L323.01 86.3133L323.26 86.0133L323.5 85.7133L323.74 85.4333L323.97 85.1433L324.2 84.8633L324.42 84.5933L324.64 84.3233L324.85 84.0633L325.06 83.8133L325.27 83.5633L325.47 83.3233L325.66 83.0733L325.86 82.8433L326.05 82.6133L326.24 82.3833L326.42 82.1533L326.61 81.9333L326.79 81.7033L326.97 81.4833L327.15 81.2633L327.32 81.0333L327.5 80.8133L327.67 80.5933L327.84 80.3733L328.01 80.1533L328.17 79.9433L328.32 79.7233L328.47 79.5033L328.62 79.2933L328.77 79.0833L328.87 78.9433L329.02 78.7433L329.16 78.5333L329.3 78.3233L329.44 78.1133L329.59 77.9133L329.72 77.7033L329.86 77.5033L329.99 77.3133L330.12 77.1133L330.24 76.9233L330.37 76.7333L330.48 76.5433L332.39 72.2933V72.2333V72.1533V72.0733V71.9933V71.9133V71.8433V71.7733V71.6133V70.9433V70.7233V69.6233H332.71ZM330.4 72.8233C329.953 74.3261 329.118 75.6849 327.98 76.7633C324.38 80.5733 319.38 82.4933 314.86 84.9333C311.522 86.5431 308.589 88.8844 306.28 91.7833C304.78 93.7833 303.8 96.0933 301.5 97.3433C300.57 97.9033 299.56 98.6333 298.41 98.4833C298 98.3988 297.61 98.2341 297.264 97.9986C296.918 97.7632 296.621 97.4617 296.392 97.1114C296.162 96.7611 296.004 96.3689 295.927 95.9574C295.849 95.5459 295.854 95.123 295.94 94.7133C296.46 92.0233 298.17 89.7133 299.44 87.2933C302.91 81.2933 307.32 74.6933 314.31 72.6533C316.62 71.9533 319.08 72.8933 321.31 72.0433C323.71 71.3433 325.76 69.3633 328.4 69.6033C328.752 69.6662 329.087 69.8024 329.382 70.0031C329.678 70.2037 329.928 70.4643 330.117 70.7679C330.306 71.0716 330.428 71.4114 330.477 71.7655C330.526 72.1196 330.5 72.48 330.4 72.8233Z" fill="#F3AF49"/>
<path d="M182.13 235.943C181.26 236.093 180.38 236.223 179.51 236.303C176.51 228.673 173.66 220.993 171.14 213.213C172.076 214.514 173.358 215.525 174.84 216.133C175.46 217.923 176.08 219.703 176.75 221.473C178.47 226.323 180.4 231.103 182.13 235.943Z" fill="#F3AF49"/>
<path d="M222.45 142.373L220.45 149.583V149.653V149.713V149.803V149.923V150.043L220.4 150.193V150.353L220.35 150.523L220.29 150.723L220.23 150.933L220.16 151.143L220.1 151.373L220.03 151.603L219.96 151.843L219.89 152.103L219.82 152.363L219.75 152.633L219.68 152.913L219.6 153.213L219.52 153.513L219.44 153.833L219.36 154.153L219.28 154.483L219.19 154.823L219.11 155.173L219.02 155.533L218.93 155.903L218.83 156.283L218.75 156.673L218.65 157.053L218.56 157.443L218.47 157.843L218.37 158.233L218.28 158.623L218.18 159.003L218.09 159.393L217.99 159.773L217.9 160.143L217.81 160.513L217.72 160.883L217.62 161.243L217.53 161.603L217.43 161.963L217.35 162.323L217.26 162.683L217.17 163.023L217.08 163.373L216.99 163.723L216.89 164.063L216.8 164.413L216.71 164.753L216.62 165.093L216.53 165.433L216.44 165.763L216.35 166.103L216.26 166.433L216.17 166.763L216.08 167.083L216 167.403L215.92 167.713L215.84 168.013L215.76 168.323L215.68 168.623L215.6 168.913L215.52 169.213L215.44 169.503L215.36 169.793L215.28 170.073L215.21 170.363L215.14 170.643L214.87 170.943L214.8 171.223L214.73 171.493L214.66 171.773L214.59 172.043L214.52 172.323L214.45 172.583L214.39 172.843L214.34 173.083L214.28 173.343V173.583L214.23 173.823V174.043L214.18 174.253L214.13 174.473V174.673L214.08 174.873V175.053V175.233V175.393L214.03 175.563V175.713V175.873V176.033V176.183V176.333V176.483L213.98 176.633V176.793L213.93 176.943L213.87 177.083L213.81 177.233L213.75 177.383V177.513L213.69 177.653L213.64 177.773L213.58 177.903V178.023L213.53 178.143L213.48 178.253V178.373L213.43 178.483V178.593L213.38 178.703L213.33 178.813V178.913L213.28 179.023V179.133L213.22 179.243L213.17 179.343L213.12 179.453V179.563L213.07 179.663V179.763L213.02 179.863L212.97 179.953V180.043V180.143V180.233V180.313V180.403V180.483V180.563V180.643V180.723V180.803V180.873V180.943V181.023L212.92 181.093L212.87 181.163L212.81 181.233V181.303L212.76 181.363L212.7 181.423V181.483L212.65 181.543L212.59 181.593H212.53V181.643L212.47 181.693H212.42H212.36L212.29 181.743H212.23H212.16H212.09H212.01H211.93H211.85H211.76H211.67H211.57H211.47H211.37H211.26H211.15H211.04H210.92H210.8H210.67H210.55H210.43H210.31H210.18H210.04H209.91H209.76H209.62H209.47H209.32H209.16H208.99H208.83H208.67H208.5H208.34H208.17H208H207.84H207.67H207.5H207.31H207.13H206.93H206.75H206.56H206.38H206.19H206.01H205.82H205.64H205.45H205.25H205.05H204.84H204.62H204.41L204.21 181.793H204H203.79L203.57 181.843L203.36 181.893H203.15L202.93 181.943H202.71L202.49 182.003L202.26 182.053L202.03 182.113H201.82L201.61 182.163H201.39L201.17 182.213L200.95 182.263H200.72H200.5L200.29 182.313L200.06 182.363L199.84 182.423H199.62L199.4 182.483L199.19 182.543L198.98 182.593L198.76 182.663L198.54 182.743L198.31 182.813L198.08 182.893L197.87 182.973L197.65 183.053L197.44 183.123L197.21 183.203L196.99 183.283L196.77 183.353L196.54 183.433L196.32 183.503L196.1 183.583L195.87 183.653L195.65 183.723L195.43 183.803L195.23 183.863L195.02 183.933L194.81 184.013L194.59 184.083L194.37 184.163L194.15 184.243L193.95 184.313L193.75 184.393L193.55 184.473L193.34 184.553L193.14 184.633L192.93 184.723L192.73 184.803L192.53 184.893L192.32 184.983L192.11 185.073L191.89 185.163L191.68 185.253L191.48 185.343L191.28 185.433L191.07 185.533L190.86 185.633L190.64 185.733L190.42 185.833L190.22 185.933L190.01 186.033L189.8 186.133L189.59 186.233L189.38 186.343L189.17 186.443L188.96 186.553L188.76 186.653L188.55 186.763L188.34 186.863L188.14 186.973L187.94 187.073L187.74 187.183L187.54 187.293L187.33 187.403H187.24C187.6 186.753 187.24 185.773 187.24 184.993C187.068 182.943 186.536 180.939 185.67 179.073C184.89 176.363 186.03 173.683 186.72 171.073C189.32 159.893 180.89 162.393 173.4 163.123C171.06 163.443 168.79 164.123 166.4 164.433C165.5 164.573 164.4 164.313 163.72 165.043C163.04 165.953 163.3 167.243 163.24 168.313C163.11 171.336 163.853 174.332 165.38 176.943C166.57 179.153 169.48 180.553 169.27 183.353C168.85 189.863 168.02 192.353 171.5 198.413C171.778 199.111 171.973 199.839 172.08 200.583C172.17 201.273 172.08 202.263 172.71 202.583V202.693V202.913V203.143V203.353V204.923V205.083V205.233V205.383V205.523V205.663V205.813V205.963V206.103V206.243V206.383V206.523V206.643V206.773V206.903V207.013V207.133V207.253V207.363V207.473V207.573V207.683V207.783V207.883V207.983V208.093V208.193V208.303V208.413V208.513V208.613V208.713V208.813V208.913V209.013V209.103V209.193V209.283V209.383V209.483V209.583V209.673V209.763V209.863V209.963V210.063V210.153V210.233V210.323V210.403V210.493V210.563V210.643V210.703V210.773V210.843V210.903V210.963V211.023V211.083V211.143V211.203V211.263V211.313V211.363V211.413V211.463V211.523V211.583V211.633V211.683V211.733L172.92 212.303C171.599 211.676 170.458 210.727 169.6 209.543C172.12 217.323 175.01 225.003 177.97 232.633C178.72 232.563 179.47 232.463 180.23 232.333L180.38 232.753H180.19L179.81 232.813L179.46 232.863H179.11L178.76 232.913L178.43 232.963H178.11H177.8H177.5H177.21H176.93H176.66H176.41H176.17H175.93H175.7H175.49H175.29H175.1H174.52H174.32H174.02L171.59 232.283L167.65 219.943L163.53 204.823L151.3 161.733V161.653L151.24 161.523L151.17 161.373L151.1 161.223L151.04 161.083L150.98 160.933L150.92 160.793L150.87 160.653V160.523V160.393V160.263V160.143V160.023V159.903V159.793V159.683V159.573V159.473V159.373V158.943V158.853V158.763V158.663L150.92 158.563V158.473L150.98 158.373L151.05 158.263L151.14 158.163L151.24 158.053L151.34 157.933L151.45 157.823L151.58 157.703L151.72 157.583L151.88 157.453L191.87 147.763L222.45 142.373Z" fill="#D2D4D4"/>
<path d="M185.6 186.943C185.6 187.723 185.93 188.703 185.6 189.353C185.452 189.617 185.209 189.814 184.92 189.903C184.778 189.95 184.629 189.974 184.48 189.973L184.28 190.083L184.08 190.203L183.89 190.323L183.69 190.443L183.49 190.563L183.3 190.683L183.11 190.803L182.87 190.943L182.7 191.053L182.53 191.163L182.35 191.273L182.17 191.393L181.99 191.513L181.81 191.623L181.65 191.733L181.48 191.843L181.32 191.943L181.16 192.053L181 192.163L180.84 192.263L180.69 192.373L180.53 192.473L180.36 192.593L180.19 192.713L180.02 192.833L179.87 192.943L179.72 193.053L179.57 193.173L179.42 193.303L179.27 193.423L179.12 193.553L178.97 193.693L178.83 193.833L178.68 193.973L178.53 194.113L178.38 194.253L178.24 194.393L178.1 194.523L177.96 194.663L177.82 194.783L177.69 194.923L177.54 195.053L177.4 195.193L177.25 195.333L177.11 195.463L176.97 195.603L176.83 195.723L176.69 195.853L176.56 195.983L176.43 196.103L176.3 196.213L176.18 196.333L176.06 196.453L175.94 196.573L175.83 196.693L175.72 196.813L175.62 196.923L175.5 197.113L175.18 197.573L174.78 198.163L174.36 198.763L173.97 199.333L173.6 199.863L173.26 200.353L172.96 200.783L172.69 201.183L172.55 201.403V201.623C172.61 202.623 173.02 204.623 171.49 204.683C171.347 204.676 171.207 204.639 171.08 204.573C170.44 204.233 170.54 203.243 170.45 202.573C170.343 201.83 170.148 201.101 169.87 200.403C166.39 194.403 167.22 191.853 167.64 185.343C167.85 182.543 164.94 181.143 163.75 178.933C162.222 176.322 161.48 173.326 161.61 170.303C161.67 169.223 161.41 167.943 162.09 167.033C162.78 166.303 163.87 166.563 164.77 166.423C167.13 166.163 169.4 165.423 171.77 165.113C179.26 164.383 187.69 161.873 185.09 173.063C184.4 175.653 183.26 178.333 184.04 181.063C184.907 182.929 185.439 184.933 185.61 186.983" fill="#F3F1DD"/>
<path d="M284.07 141.643L284.79 233.993L283.98 234.573L283.92 234.493L283.86 234.413L283.8 234.343L283.74 234.263L283.68 234.183L283.62 234.113L283.56 234.033L283.5 233.973L283.44 233.903L283.38 233.833L283.32 233.763L283.26 233.693L283.19 233.633L283.13 233.563L283.06 233.503L282.99 233.443L282.92 233.373L282.84 233.313L282.76 233.243L282.67 233.183L282.59 233.123L282.49 233.063L282.4 233.013L282.3 232.953L282.2 232.903H282.1L282 232.853H281.89L281.79 232.803H281.68H281.58H281.48H281.38H281.28H281.18H281.08H280.99H280.89H280.79H280.68H280.58H280.47H280.36H280.25H280.15H280.04H279.95V232.753V232.663V232.563V232.453V232.323V232.183V232.023V231.843V231.653V231.453V231.233V230.993V230.733V230.453V230.153V229.493V229.133V224.483V223.923V223.333V222.723V222.093V221.453L279.9 220.803L279.84 220.133L279.78 219.443L279.72 218.743L279.65 218.033L279.58 217.323L279.5 216.603L279.43 215.883L279.35 215.163L279.27 214.433L279.18 213.703L279.09 212.983L279 212.263L278.89 211.543L278.79 210.813L278.67 210.093L278.54 209.383L278.41 208.673L278.26 207.973L278.12 207.283L277.97 206.583L277.81 205.903L277.65 205.223L277.48 204.563L277.31 203.913L277.14 203.273L277.01 202.783V202.653C276.94 202.453 276.87 202.243 276.81 202.043C276.783 201.935 276.749 201.828 276.71 201.723C276.71 201.623 276.63 201.523 276.6 201.423C276.48 201.113 276.36 200.803 276.25 200.493C276.14 200.183 276.01 199.823 275.88 199.493L275.67 198.853C275.56 198.613 275.45 198.363 275.35 198.113C275.25 197.863 275.12 197.483 275.01 197.113C274.9 196.743 274.8 196.513 274.71 196.213C274.62 195.913 274.47 195.513 274.37 195.153C274.27 194.793 274.1 194.153 273.96 193.723C273.87 193.393 273.8 193.053 273.72 192.723L273.51 191.823C273.35 191.153 273.22 190.483 273.08 189.823C272.81 188.523 272.62 187.213 272.44 185.893C272.39 185.543 272.37 185.183 272.34 184.823C272.34 184.673 272.34 184.533 272.34 184.383V183.563C272.34 182.323 272.34 181.073 272.41 179.823C272.41 179.153 272.47 178.483 272.53 177.823C272.53 177.413 272.6 177.013 272.63 176.603C272.66 176.193 272.7 175.993 272.74 175.683C272.82 174.983 272.91 174.293 273.01 173.603C273.11 172.913 273.21 172.263 273.32 171.603C273.54 170.273 273.83 168.963 274.12 167.603C274.68 165.093 275.39 162.603 275.96 160.103C276.22 158.953 276.48 157.803 276.72 156.653C276.96 155.343 277.18 154.033 277.39 152.723C277.48 152.123 277.57 151.533 277.64 150.933C277.71 150.333 277.79 149.503 277.85 148.783C277.85 148.563 277.85 148.333 277.9 148.113C277.9 147.193 277.97 146.273 277.9 145.343C277.878 144.964 277.832 144.586 277.76 144.213C277.691 143.826 277.59 143.444 277.46 143.073L277.3 142.623C277.3 142.623 277.3 142.533 277.25 142.493L277.99 142.233H278.04H278.09H278.14H278.19H278.24H278.3H278.36H278.42H278.48H278.53H278.59H278.65H278.72H278.78H278.84H278.9H278.97H279.04H279.11H279.18H279.25H279.32H279.4H279.47H279.55H279.62H279.69H279.77H279.84H279.91H279.98H280.04H280.1H280.16H280.22H280.28H280.33H280.38H280.43H280.48H280.53H280.58H281.09V142.293V142.343V142.403V142.473V142.543V142.613V142.693V142.783V142.873V142.963V143.053V143.163V143.263V143.363L281.14 143.473V143.593L281.19 143.713V143.843L281.24 143.973L281.29 144.103L281.34 144.223V144.303L284.07 141.643Z" fill="#F3F1DD"/>
<path d="M277.87 255.713C278.29 257.893 278.29 260.133 277.87 262.313C277.62 263.693 277.3 266.463 275.26 265.713C275.028 265.618 274.818 265.479 274.64 265.303C274.582 265.876 274.319 266.408 273.9 266.803L273.34 266.993L273.04 267.093C269.863 268.197 266.745 269.466 263.7 270.893C262.59 271.583 261.55 272.353 260.49 273.113H260.44C259.62 273.753 258.35 274.613 257.55 273.473C256.75 272.333 257.79 271.593 258.83 270.903C259.461 270.538 260.069 270.134 260.65 269.693C263.17 267.893 265.54 265.893 267.87 263.863L268.05 263.703C269 262.903 269.92 262.063 270.81 261.193L271.42 260.593C271.91 260.103 272.42 259.593 272.87 259.113L274.49 257.363L274.58 257.273L275.39 256.383L275.59 256.163L276.7 254.943C276.946 254.926 277.191 254.992 277.395 255.129C277.6 255.267 277.753 255.469 277.83 255.703L277.87 255.713Z" fill="#F2EFDE"/>
<path d="M277.87 255.713C277.775 255.431 277.576 255.195 277.312 255.056C277.049 254.917 276.742 254.885 276.455 254.966C276.168 255.047 275.924 255.235 275.772 255.491C275.62 255.748 275.573 256.053 275.64 256.343C275.384 256.393 275.149 256.522 274.97 256.712C274.79 256.902 274.675 257.144 274.64 257.403C274.46 257.312 274.257 257.278 274.057 257.305C273.857 257.332 273.67 257.418 273.52 257.553C272.75 258.293 273.04 259.483 272.87 260.443C272.745 260.455 272.623 260.489 272.51 260.543C272.319 260.479 272.116 260.459 271.915 260.484C271.715 260.51 271.524 260.581 271.355 260.692C271.187 260.803 271.045 260.951 270.942 261.124C270.839 261.297 270.777 261.492 270.76 261.693C270.716 262.031 270.645 262.366 270.55 262.693C268.95 262.833 267.72 264.053 266.5 264.993C265.004 266.309 263.413 267.512 261.74 268.593C260.867 268.998 260.025 269.466 259.22 269.993C259.092 270.139 258.998 270.311 258.945 270.497C258.891 270.684 258.88 270.88 258.912 271.071C258.943 271.263 259.017 271.445 259.127 271.604C259.238 271.763 259.382 271.896 259.55 271.993C259.579 272.196 259.651 272.39 259.76 272.563C260.57 273.733 261.91 272.793 262.84 272.293C264.307 271.52 265.753 270.71 267.18 269.863C267.91 269.415 268.684 269.044 269.49 268.753C269.899 268.891 270.345 268.864 270.734 268.677C271.123 268.49 271.423 268.159 271.57 267.753C271.781 267.813 272.003 267.819 272.216 267.77C272.429 267.721 272.627 267.619 272.79 267.473C272.95 267.334 273.079 267.164 273.17 266.973C274.17 267.093 274.53 266.133 274.71 265.283C274.883 265.467 275.095 265.611 275.33 265.703C277.33 266.453 277.69 263.703 277.94 262.303C278.336 260.122 278.312 257.885 277.87 255.713Z" fill="#F3AF49"/>
<path d="M264.31 12.8432C270.403 21.4611 274.249 31.4633 275.5 41.9432C268.57 34.1432 258.73 29.6132 248.87 26.7032C245.94 25.7732 243 24.8932 240.15 23.7032C237.95 22.8032 235.65 21.8232 234.04 20.0232C231.71 17.2132 230.48 13.0232 232.14 9.56317C233.461 6.73627 235.843 4.54434 238.77 3.46317C248.2 0.593174 258.87 4.78317 264.31 12.8432Z" fill="#F3AF49"/>
<path d="M185.5 16.4731C192.05 20.4731 188.38 30.6231 181.17 30.9231C180.076 30.9671 178.99 30.7108 178.031 30.1819C177.072 29.6531 176.277 28.8719 175.73 27.9231C174.47 25.9231 173.47 23.2731 174.19 20.8431C174.875 18.9389 176.072 17.2607 177.65 15.9931C177.988 15.5299 178.446 15.1677 178.975 14.9457C179.503 14.7237 180.082 14.6501 180.65 14.7331C182.394 14.8352 184.071 15.4395 185.48 16.4731" fill="#F3AF49"/>
<path d="M250.49 13.2532C247.967 12.893 245.417 12.7558 242.87 12.8432C241.15 12.9332 239.21 13.0232 237.87 11.7932C234.75 8.79318 239.09 6.17318 241.78 5.19318C246.07 3.44318 253.4 4.41318 255.21 9.24318C255.85 11.9332 252.83 13.4532 250.54 13.2432" fill="#F3F1DD"/>
<path d="M255.97 15.3532C254.61 14.4932 255.28 11.9332 257.08 12.5232C257.312 12.5575 257.534 12.6437 257.728 12.7755C257.922 12.9073 258.084 13.0812 258.202 13.2843C258.32 13.4874 258.39 13.7144 258.408 13.9485C258.425 14.1825 258.39 14.4175 258.304 14.636C258.219 14.8545 258.085 15.0509 257.913 15.2105C257.741 15.37 257.535 15.4887 257.31 15.5576C257.086 15.6265 256.849 15.644 256.617 15.6086C256.385 15.5732 256.164 15.4859 255.97 15.3532Z" fill="#F3F1DD"/>
<path d="M183.25 21.4932C181.11 20.1432 182.17 16.1232 184.99 17.0532C188.99 18.3132 186.66 23.1832 183.25 21.4932Z" fill="#F3F1DD"/>
<path d="M289.04 118.053C288.94 120.443 287.69 122.583 286.71 124.703C285.526 127.088 284.155 129.375 282.61 131.543C276.85 139.733 269.79 147.213 265.89 156.543C263.577 161.27 262.748 166.586 263.51 171.793C263.8 173.563 264.77 175.093 265.43 176.743C266.544 179.39 266.769 182.327 266.07 185.113C265.47 187.643 264.23 189.973 263.4 192.443C262.407 195.317 262.206 198.405 262.82 201.383C263.82 205.143 265.33 208.903 264.65 212.863C264.48 214.113 264.01 215.433 263.78 216.663C263.78 216.883 263.71 217.083 263.69 217.293C263.67 217.503 263.69 217.683 263.69 217.833C263.68 218.073 263.604 218.306 263.471 218.506C263.339 218.706 263.154 218.867 262.937 218.969C262.719 219.072 262.478 219.114 262.239 219.09C262 219.066 261.772 218.977 261.58 218.833C261.273 218.514 261.092 218.095 261.07 217.653L260.85 217.733L260.21 217.993L259.9 218.123L259.59 218.253L259.28 218.383L258.98 218.523L258.69 218.673L258.4 218.823L258.12 218.983L257.84 219.143L257.57 219.313L257.31 219.473L257.05 219.633L256.81 219.783L256.58 219.943L256.37 220.093L256.17 220.243L255.99 220.393L255.82 220.523L255.67 220.653L255.39 220.893L255.27 221.023L255.16 221.143L255.06 221.253L254.99 221.363L254.93 221.463V221.523L249.5 226.083L249.31 226.203L249.11 226.333L248.9 226.473L248.67 226.623L248.45 226.783L248.22 226.953L247.99 227.123L247.76 227.293L247.26 227.653L247.01 227.843L246.76 228.023L245.98 228.593L245.72 228.783L245.46 228.973L245.21 229.173L244.95 229.373L244.7 229.563L244.46 229.763L244.21 229.953L243.97 230.143L243.73 230.333L243.49 230.513L243.25 230.703L243.01 230.883L242.78 231.063L242.55 231.233L242.33 231.403L242.12 231.573L241.92 231.743L241.72 231.913L241.53 232.083L241.35 232.243L241.18 232.403L241.02 232.553L240.86 232.703L240.69 232.863L240.53 233.023L240.36 233.193L240.2 233.343L240.04 233.503L239.89 233.663L239.79 233.773L235.72 237.573C235.72 237.753 235.67 237.933 235.65 238.113C235.647 238.395 235.567 238.67 235.419 238.91C235.271 239.149 235.06 239.344 234.81 239.473C234.648 239.533 234.475 239.558 234.303 239.546C234.13 239.534 233.962 239.485 233.81 239.403C233.583 239.281 233.406 239.083 233.31 238.843C233.248 238.696 233.216 238.538 233.216 238.378C233.216 238.218 233.248 238.06 233.31 237.913C233.286 237.965 233.265 238.018 233.25 238.073C233.47 237.263 233.38 236.393 233.57 235.573C233.7 233.793 233.57 231.663 235.08 230.433C235.08 230.433 235.08 230.353 235.08 230.303C235.213 229.764 235.523 229.285 235.96 228.943C236.065 228.877 236.181 228.833 236.303 228.812C236.425 228.792 236.55 228.796 236.67 228.823L251.35 215.483L251.5 215.283L251.66 215.063L251.83 214.823L252.21 214.323L252.39 214.063L252.57 213.823L252.73 213.573L252.89 213.333L253.04 213.093L253.17 212.863L253.31 212.623L253.43 212.383L253.55 212.153L253.65 211.923L253.75 211.693L253.85 211.463L253.94 211.233L254.02 211.003L254.09 210.793L254.16 210.583L254.23 210.363L254.29 210.153L254.36 209.943L254.42 209.733L254.47 209.533L254.53 209.333L254.59 209.123L254.65 208.903L254.71 208.683L254.77 208.453L254.83 208.233L254.89 208.013L254.94 207.773L255 207.543V207.303L255.05 207.073V206.853V206.623V206.403V206.173V205.953V205.743V205.533V205.333V205.113V204.893V204.673V204.443V204.233V204.003V203.763V203.533V203.313V203.083V202.873V201.433V201.253V201.073V200.903V200.723V200.553V200.383V200.203V200.033V199.863V199.703L255 199.543L254.95 199.393L254.89 199.243L254.83 199.103L254.77 198.963L254.71 198.833L254.64 198.703L254.58 198.573L254.44 198.313L254.38 198.183L254.31 198.053L254.24 197.933L254.17 197.813L254.11 197.703L254.04 197.593L253.97 197.483L253.9 197.383L253.82 197.273L253.75 197.173L253.66 197.073L253.58 196.983L253.87 196.943L253.79 196.853L253.7 196.763L253.6 196.673L253.51 196.583L253.41 196.493L253.32 196.403L253.22 196.313L253.13 196.233L253.03 196.143L252.94 196.063L252.87 195.943L252.78 195.873L252.69 195.793L252.61 195.713L252.52 195.643L252.42 195.573L252.33 195.503L252.23 195.433L252.14 195.363L252.04 195.293L251.94 195.233L251.83 195.163L251.73 195.103L251.62 195.043L251.52 194.973L251.41 194.923L251.3 194.863L251.19 194.803L251.09 194.743L250.98 194.693L250.88 194.643H250.77H250.67H250.56H250.46H250.35H250.24H250.12H250H249.88H249.75H249.61H249.47H249.32H249.17H249.01H248.84H248.67H247.15H246.93H246.69H246.46H246.21H245.97L245.72 194.693L245.46 194.753L245.18 194.833L244.89 194.913L244.58 195.013L244.26 195.123L243.92 195.253H243.81C243.666 195.546 243.45 195.797 243.182 195.984C242.915 196.171 242.605 196.288 242.28 196.323H242C241.908 196.301 241.82 196.264 241.74 196.213C241.601 196.122 241.487 195.997 241.409 195.85C241.33 195.704 241.289 195.54 241.29 195.373C241.289 195.142 241.378 194.919 241.54 194.753C243.77 190.453 245.28 185.443 244.27 180.593C241.81 170.593 238.16 162.853 244.22 153.133C248.16 146.273 253.37 140.243 257.74 133.653C259.89 130.573 261.16 127.003 263.2 123.853C263.31 123.683 263.42 123.513 263.54 123.343C263.898 122.814 264.281 122.304 264.69 121.813C265.191 121.223 265.728 120.665 266.3 120.143C267.563 119.452 268.716 118.575 269.72 117.543C270.747 116.896 271.816 116.318 272.92 115.813C273.898 115.357 274.899 114.953 275.92 114.603C276.77 114.293 277.63 114.013 278.48 113.763C282.56 112.133 289.03 112.393 289.04 118.053Z" fill="#F7CC50"/>
<path d="M289.78 272.723C289.68 273.023 289.57 273.323 289.46 273.623L289.36 273.893L288.48 275.673L288.34 275.973L288.27 276.133H288.19H288.11H288.03H287.79H287.03H286.94H286.84H286.74H286.64H286.54H286.43L286.32 276.183L286.21 276.233L286.1 276.293L285.98 276.363L285.87 276.433L285.75 276.513L285.64 276.593L285.52 276.693L285.4 276.783L285.16 277.003L285.04 277.113L284.92 277.243L284.79 277.373L284.66 277.513L284.53 277.653L284.39 277.813L284.24 277.963L284.1 278.133L283.94 278.293L283.78 278.463L283.62 278.633L283.46 278.803L283.29 278.963L283.13 279.123L282.97 279.283L282.81 279.443L282.64 279.603L282.47 279.763L282.31 279.923L282.13 280.083L281.95 280.253L281.75 280.433L281.55 280.613L281.34 280.793L281.12 280.983L280.91 281.163L280.69 281.353L280.47 281.543L280.25 281.723L280.03 281.913L279.61 282.273L279.4 282.453L279.18 282.633L278.87 282.943L278.64 283.123L278.42 283.303L278.21 283.473L278 283.643L277.78 283.803L277.58 283.963L277.37 284.123L277.17 284.283L276.98 284.433L276.78 284.583L276.57 284.733L276.37 284.893L276.16 285.043L275.95 285.193L275.75 285.343L275.54 285.483L275.33 285.633L275.13 285.773L274.93 285.903L274.74 286.043L274.55 286.173L274.36 286.303L274.17 286.433L273.97 286.563L273.76 286.703L273.56 286.833L273.35 286.963L273.13 287.083L272.92 287.213L272.7 287.343L272.48 287.463L272.27 287.583L272.06 287.693L271.84 287.823L271.62 287.943L271.39 288.073L271.16 288.203L270.93 288.333L270.68 288.473L270.43 288.603L270.19 288.743L269.95 288.873L269.73 288.993L269.5 289.113L269.27 289.243L269.03 289.373L268.79 289.503L268.54 289.633L268.29 289.753L268.05 289.873L267.53 290.113L267.28 290.223L267.02 290.343L266.77 290.443L266.52 290.553L266.26 290.663L265.99 290.773L265.71 290.893L265.44 291.013L265.17 291.123L264.91 291.233L264.64 291.343L264.38 291.463L264.12 291.573L263.87 291.693L263.63 291.803L263.38 291.913L263.13 292.033L262.87 292.153L262.62 292.263L262.38 292.373L262.14 292.473L261.91 292.583L261.69 292.683L261.46 292.783L261.25 292.883L261.03 292.973L260.82 293.073L260.61 293.163L260.39 293.253L260.17 293.353L259.96 293.443L259.74 293.533L259.53 293.613L259.33 293.703L259.13 293.783L258.93 293.863L258.73 293.953L258.54 294.033L258.35 294.113L257.97 294.273L257.77 294.353L257.58 294.443L257.18 294.603L256.99 294.693L256.59 294.853L256.4 294.933L256.21 295.023L256.03 295.093L255.85 295.173L255.66 295.253L255.48 295.333L255.28 295.413L255.09 295.503L254.89 295.583L254.69 295.653L254.49 295.733L254.29 295.813L254.08 295.883L253.88 295.953L253.68 296.013L253.49 296.083L253.29 296.143L253.08 296.213L252.88 296.273L252.46 296.413L252.25 296.473L252.04 296.543L251.82 296.613L251.4 296.753L251.21 296.813L251.01 296.873L250.87 296.943H250.68L250.32 297.063L250.14 297.113L249.96 297.163L249.39 297.313L249.21 297.363L248.83 297.463H248.65L248.47 297.513H248.3L248.13 297.563H247.96L247.8 297.613H247.63H247.47L247.31 297.663L247.15 297.713H246.99H246.83L246.66 297.763L246.5 297.813L246.34 297.873L246.19 297.923L246.04 297.973H245.89L245.74 298.033H245.6L245.46 298.083L245.2 298.183L245.07 298.233L244.94 298.283L244.8 298.333L244.54 298.433L244.41 298.493L244.15 298.593L244.01 298.653L243.87 298.703L243.74 298.763H243.6L243.46 298.823L243.33 298.873L243.2 298.933L243.07 298.983L242.94 299.043L242.81 299.093L242.69 299.153H242.56L242.44 299.213L242.31 299.283L242.07 299.403L241.94 299.463L241.68 299.603L241.54 299.673L241.41 299.743L241.27 299.813L241.13 299.883L240.99 299.963L240.85 300.033L240.7 300.103L240.57 300.173L240.43 300.233L240.3 300.303L239.94 300.483L239.83 300.543H239.73L239.63 300.593L239.54 300.643L221.17 310.863L177.87 330.583L155.35 338.403L132.68 348.863L107.23 358.093L78.12 365.163L46.98 372.723L32.87 376.163L20.59 376.083L20.52 376.023L20.2 375.813L19.7 375.503L19.3 375.253L19.2 375.193L18.74 374.903L18.31 374.623L17.92 374.363L17.56 374.113L17.22 373.873L16.91 373.633L16.62 373.413L16.32 373.173L16.03 372.933L15.74 372.703L14.87 371.943L14.56 371.673L14.23 371.393L13.89 371.093L13.54 370.773L13.19 370.443L12.83 370.093L12.46 369.713L12.1 369.303L11.73 368.883L11.38 368.433L11.01 367.963L10.66 367.473L10.3 366.953L9.94 366.403L9.58 365.833L9.23 365.233L8.87 364.623L8.51 363.943L8.16 363.263L7.81 362.563L7.46 361.823L7.11 361.053L6.77 360.243L6.42 359.403L6.07 358.523L5.73 357.603L5.39 356.603L5.05 355.603L4.73 354.603L4.41 353.543L4.11 352.463L3.81 351.343L3.52 350.213L3.24 349.053L2.98 347.943L2.72 346.743L2.49 345.533L2.27 344.323L2.07 343.093L1.87 341.833L1.69 340.583L1.52 339.323L1.36 338.053L1.21 336.783L1.07 335.493L0.93 334.173L0.8 332.833L0.67 331.483L0.55 330.113L0.33 327.353L0.24 325.943L0.15 324.553L0.07 323.213L0 321.843V320.503V319.173V317.843V313.943V312.683V311.443V310.223V309.033V307.843V306.673L0.05 305.523L0.15 303.263L0.21 302.143L0.27 301.033L0.43 299.943L0.51 298.943L0.61 297.943L0.72 296.943L0.83 295.943L0.96 294.943L1.1 293.993L1.24 293.073L1.37 292.183L1.51 291.323L1.65 290.483L1.78 289.673L1.91 288.893L2.04 288.143L2.17 287.413L2.3 286.693L2.43 285.993L2.57 285.313L2.71 284.643L2.87 283.943L3.04 283.303L3.21 282.673L3.39 282.053L3.59 281.443L3.78 280.853L3.98 280.283L4.18 279.723L4.37 279.203L4.55 278.703L4.73 278.223L4.91 277.773L5.07 277.353L5.23 276.953L5.38 276.603L5.53 276.263L5.68 275.943L5.83 275.633L5.98 275.333L6.13 275.033L6.29 274.753L6.45 274.483L6.62 274.223L6.79 273.963L7.13 273.463L7.31 273.223L7.48 272.983L7.66 272.743L8 272.283L8.17 272.063L8.32 271.853L8.47 271.653L8.62 271.463L8.76 271.293L8.9 271.123L9.02 270.973L9.15 270.833L9.26 270.703L9.38 270.583L9.5 270.473L9.61 270.373L9.73 270.273L9.84 270.183L9.96 270.103L10.08 270.013L10.34 269.853L10.47 269.773L10.61 269.693L10.75 269.613L10.9 269.543L11.04 269.463L11.18 269.393L11.32 269.313L11.46 269.253L11.72 269.133L11.84 269.073L11.97 269.023H12.09H12.21H12.33H12.46H12.58H13.28H13.43H13.59H13.76H13.93H14.11H14.31H14.52H14.75H14.99H15.24H15.5H15.78H16.07H16.35L16.64 269.073L16.93 269.133L17.22 269.213L17.5 269.293L17.76 269.373L18.02 269.463L31.22 271.553L48.46 271.323L74.95 270.073L106.74 265.213L131.15 253.953L139.63 244.483L139.68 244.393L139.76 244.233L139.87 244.023L140 243.763L140.15 243.463L140.32 243.133L140.5 242.763L140.7 242.363L140.91 241.943L141.13 241.493L141.37 241.003L141.61 240.513L141.84 240.043L142.07 239.583L142.29 239.133L142.51 238.693L142.72 238.283L142.91 237.883L143.29 237.163L143.48 236.793L143.68 236.433L143.88 236.083L144.09 235.723L144.29 235.363L144.51 234.983L144.75 234.593L145 234.183L145.27 233.763L145.55 233.333L145.83 232.903L146.12 232.483L146.43 232.033L147.07 231.113L147.4 230.653L147.71 230.213L148.01 229.773L148.32 229.323L148.62 228.863L148.92 228.413L149.22 227.963L149.49 227.533L149.77 227.093L150.04 226.663L150.31 226.223L150.58 225.793L150.84 225.383L151.09 224.983L151.33 224.583L151.58 224.193L152.08 223.433L152.32 223.063L152.56 222.713L152.79 222.363L153.03 222.013L153.27 221.653L153.5 221.313L153.73 220.963L153.95 220.643L154.16 220.313L154.38 219.973L154.6 219.633L154.81 219.303L155.03 218.973L155.23 218.663L155.43 218.343L155.64 218.033L155.85 217.713L156.06 217.393L156.26 217.073L156.47 216.773L156.67 216.483L156.88 216.173L157.1 215.883L157.32 215.593L157.53 215.313L157.74 215.043L158.16 214.523L158.37 214.273L158.79 213.793L158.98 213.563L159.17 213.343L159.37 213.133L159.55 212.913L159.73 212.713L159.9 212.513L160.06 212.333L160.22 212.153L160.37 211.983L160.67 211.663L160.81 211.503L160.95 211.353L161.08 211.213L161.22 211.063L161.64 210.643L161.77 210.523L161.89 210.403L162.02 210.293L162.13 210.193L162.24 210.103L162.35 210.013L162.44 209.933L162.53 209.863L162.61 209.793L162.69 209.733L162.83 209.613L162.9 209.563H162.96V209.513H163.02H163.07H163.46H163.56H163.65H163.71H163.76H163.82L172.77 236.593L175.2 237.273H175.5H175.7H176.28H176.47H176.67H176.88H177.11H177.35H177.59H177.84H178.11H178.39H178.68H178.98H179.29H179.61L179.94 237.223L180.29 237.173H180.64L180.99 237.123L181.37 237.063H181.56H181.75L182.13 236.993L182.93 236.853L183.35 236.773L183.77 236.683L184.2 236.593L184.63 236.493L185.07 236.393L185.52 236.283L185.97 236.173L186.43 236.053L186.89 235.923L187.36 235.783L187.83 235.643L188.3 235.503L188.77 235.343L189.24 235.183L189.72 235.013L190.21 234.833L190.69 234.653L191.69 234.253L192.18 234.043L192.67 233.813L193.17 233.583L193.67 233.343L195.17 232.593L195.67 232.333L196.17 232.063L196.66 231.803L197.14 231.543L197.62 231.273L198.1 231.013L198.57 230.753L198.73 230.663L199.03 230.493L199.49 230.223L199.94 229.953L200.4 229.693L200.85 229.413L201.31 229.143L201.75 228.853L202.2 228.573L202.66 228.283L203.11 227.993L203.57 227.693L204.02 227.403L204.48 227.093L204.93 226.793L205.38 226.493L206.26 225.893L206.7 225.603L207.12 225.313L207.53 225.023L207.93 224.743L208.32 224.463L208.56 224.293L208.71 224.183L209.09 223.903L209.47 223.633L209.83 223.353L210.19 223.073L210.54 222.793L210.88 222.503L211.22 222.223L211.55 221.933L211.87 221.643L212.19 221.353L212.51 221.063L212.82 220.773L213.11 220.483L213.4 220.203L213.68 219.923L213.95 219.653L214.19 219.393L214.41 219.163H214.46L214.63 219.003L214.89 218.753L215.19 218.463L215.53 218.143L215.88 217.813L216.24 217.473L216.58 217.133L216.94 216.783L217.3 216.413L217.66 216.053L218.01 215.683L218.33 215.333L218.63 215.003L218.91 214.683L219.17 214.373L219.42 214.073L219.65 213.793L219.86 213.523L220.05 213.283L220.23 213.053L220.42 212.823L220.61 212.603L220.8 212.393L221 212.183L221.2 211.983L221.41 211.773L221.63 211.573L221.86 211.363L222.1 211.143L222.35 210.913L222.62 210.683L222.89 210.433L223.19 210.163L223.51 209.883L223.84 209.593L224.2 209.303L224.57 208.993L224.96 208.673L225.35 208.343L225.76 208.013L226.17 207.673L226.59 207.333L227.02 207.003L227.46 206.663L227.89 206.333L228.33 206.003L228.76 205.673L229.19 205.353L230.03 204.713L230.45 204.403L230.87 204.093L231.28 203.783L231.68 203.483L232.08 203.173L232.47 202.873L232.85 202.573L233.23 202.273L233.61 201.973L233.98 201.683L234.34 201.393L234.7 201.103L235.06 200.823L235.41 200.543L235.74 200.273L236.06 200.013L236.37 199.753L236.66 199.513L236.96 199.273L237.24 199.053L237.52 198.833L237.81 198.633L238.09 198.433L238.37 198.243L238.66 198.053L238.95 197.873L239.25 197.683L239.56 197.503L239.89 197.313L240.23 197.123L240.58 196.923L240.95 196.733L241.32 196.553H241.37C241.45 196.604 241.538 196.641 241.63 196.663C242.39 196.823 242.97 196.333 243.44 195.663H243.55L243.89 195.533L244.21 195.423L244.52 195.323L244.81 195.243L245.08 195.163L245.35 195.103L245.6 195.053H245.84H246.09H246.32H246.56H246.78H248.3H248.47H248.64H248.8H248.95H249.1H249.24H249.37H249.87H249.99H250.11H250.23H250.34H250.45H250.55H250.66H250.76H250.87L250.97 195.103L251.08 195.153L251.18 195.213L251.29 195.273L251.4 195.333L251.51 195.383L251.61 195.453L251.72 195.513L251.82 195.573L251.93 195.643L252.03 195.703L252.13 195.773L252.22 195.843L252.32 195.913L252.41 195.983L252.5 196.053L252.6 196.123L252.68 196.203L252.77 196.273L252.86 196.353L252.95 196.433L253.04 196.513L253.14 196.603L253.23 196.683L253.32 196.773L253.42 196.863L253.52 196.953L253.61 197.043L253.71 197.133L253.8 197.223L253.88 197.313L253.97 197.413L254.05 197.503L254.14 197.603L254.21 197.703L254.29 197.803L254.36 197.913L254.43 198.013L254.5 198.133L254.56 198.243L254.63 198.363L254.7 198.483L254.77 198.613L254.83 198.743L254.97 199.003L255.03 199.133L255.1 199.263L255.16 199.393L255.22 199.533L255.28 199.673L255.34 199.823L255.39 199.973L255.44 200.133V200.293V200.463V200.633V200.813V200.983V201.153V201.333V201.503V201.683V201.863V202.943V203.153V203.383V203.603V203.833V204.073V204.303V204.513V204.743V204.963V205.183V205.403V205.603V205.813V206.023V206.243V206.473V206.693L255.39 206.923V207.143L255.34 207.373V207.613L255.28 207.843L255.23 208.083L255.17 208.303L255.11 208.523L255.05 208.753L254.99 208.973L254.93 209.193L254.87 209.403L254.81 209.603L254.76 209.803L254.69 210.013L254.63 210.223L254.57 210.433L254.5 210.653L254.43 210.863L254.36 211.073L254.28 211.303L254.19 211.533L254.09 211.763L253.99 211.993L253.89 212.223L253.77 212.453L253.65 212.693L253.51 212.933L253.37 213.163L253.23 213.403L253.07 213.643L252.91 213.893L252.73 214.133L252.55 214.393L252.17 214.893L252 215.133L251.84 215.353L251.69 215.553L237.01 228.893C236.89 228.866 236.765 228.862 236.643 228.883C236.521 228.903 236.405 228.948 236.3 229.013C235.863 229.355 235.553 229.834 235.42 230.373V230.423L235.3 230.553L235.17 230.683L235.03 230.833L234.74 231.123L234.58 231.273L234.43 231.423L234.26 231.573L234.09 231.733L233.91 231.883L233.72 232.053L233.52 232.223L233.32 232.393L233.12 232.573L232.91 232.753L232.7 232.943L232.49 233.133L232.27 233.333L232.06 233.533L231.85 233.733L231.63 233.943L231.41 234.153L231.19 234.363L230.97 234.573L230.75 234.783L230.52 234.983L230.29 235.183L230.06 235.393L229.83 235.593L229.6 235.803L229.37 236.003L229.14 236.203L228.92 236.413L228.69 236.623L228.46 236.823L228.24 237.033L228.01 237.233L227.78 237.433L227.56 237.633L227.32 237.823L227.09 238.013L226.86 238.193L226.63 238.363L226.41 238.533L226.18 238.693L225.95 238.863L225.73 239.033L225.51 239.193L225.29 239.353L225.08 239.513L224.87 239.673L224.65 239.833L224.43 240.003L224.21 240.173L223.99 240.343L223.77 240.513L223.54 240.683L223.31 240.853L223.09 241.033L222.87 241.203L222.65 241.373L222.45 241.543L222.24 241.723L222.04 241.903L221.83 242.083L221.43 242.443L221.23 242.623L221.03 242.803L220.82 242.983L220.6 243.173L220.39 243.353L220.16 243.543L219.94 243.723L219.71 243.903L219.48 244.093L219.25 244.273L219.03 244.443L218.82 244.623L218.6 244.803L218.39 244.983L218.19 245.153L218 245.313L217.82 245.473L217.66 245.623L217.5 245.763L217.35 245.903L217.2 246.043L217.07 246.173L216.94 246.293L216.68 246.533L216.56 246.663L216.44 246.783L215.87 246.943L215.54 247.273L215.43 247.383L215.32 247.483L215.21 247.583L215.11 247.673L215.02 247.763L214.92 247.853L214.83 247.933L214.74 248.013L214.65 248.093L214.56 248.173L214.48 248.253L214.39 248.333L214.23 248.493L214.07 248.653L214 248.733L213.93 248.813L213.86 248.893L213.8 248.973L213.73 249.053L213.67 249.133L213.55 249.293L213.48 249.383L213.36 249.543L213.3 249.623L213.24 249.693L213.18 249.773V249.853L213.12 249.923L213.06 250.003L212.96 250.143L212.9 250.223L212.85 250.293L212.8 250.373V250.443V250.523L212.75 250.603V250.683L212.7 250.763V250.843V250.923V251.003V251.073V251.153V251.223V251.283V251.353V251.413V251.533V251.593V251.653V251.703V251.763V252.243V252.343V252.443V252.493V252.543V252.603H212.75L212.8 252.653H212.86L212.93 252.703L213 252.753L213.16 252.853H213.25L213.43 252.933H213.54H213.65H213.77H214.03H214.51H214.7H214.91H215.12L215.34 252.873L215.57 252.803L215.81 252.713L216.05 252.623L216.29 252.513L216.53 252.393L216.78 252.263L217.03 252.123L217.29 251.983L217.55 251.833L217.82 251.683L218.09 251.533L218.37 251.383L218.65 251.223L218.93 251.053L219.22 250.893L219.5 250.713L219.79 250.533L220.08 250.343L220.38 250.143L220.69 249.933L221 249.703L221.33 249.473L221.66 249.223L222 248.963L222.35 248.693L222.69 248.423L223.04 248.143L223.38 247.863L223.73 247.573L224.08 247.293L224.43 247.013L224.79 246.733L225.14 246.453L225.48 246.183L225.83 245.913L226.18 245.633L226.53 245.353L226.89 245.073L227.25 244.793L227.61 244.513L227.99 244.223L228.37 243.923L228.76 243.633L229.16 243.323L229.56 243.013L229.98 242.693L230.4 242.373L230.84 242.033L231.29 241.693L234.08 239.093C234.33 239.231 234.62 239.277 234.9 239.223L235.12 239.153L235.25 239.093C235.334 239.052 235.412 238.998 235.48 238.933C235.534 238.893 235.578 238.842 235.61 238.783V238.723C235.782 238.444 235.889 238.13 235.92 237.803C235.92 237.623 235.92 237.443 235.99 237.263L240.06 233.463L240.16 233.353L240.31 233.193L240.47 233.033L240.63 232.883L240.8 232.723L240.96 232.563L241.13 232.403L241.29 232.253L241.45 232.103L241.62 231.943L241.8 231.783L241.99 231.613L242.18 231.443L242.39 231.273L242.6 231.103L242.82 230.933L243.05 230.763L243.28 230.583L243.52 230.403L243.76 230.213L244 230.033L244.24 229.843L244.48 229.653L244.73 229.463L244.97 229.263L245.22 229.073L245.48 228.873L245.73 228.673L245.99 228.483L246.25 228.293L247.03 227.723L247.28 227.543L247.53 227.353L248.03 226.993L248.26 226.823L248.48 226.653L248.72 226.483L248.94 226.323L249.17 226.173L249.38 226.033L249.58 225.903L249.77 225.783L255.2 221.223V221.163L255.25 221.063L255.33 220.953L255.43 220.843L255.54 220.723L255.66 220.593L255.94 220.353L256.09 220.223L256.26 220.093L256.44 219.943L256.64 219.793L256.85 219.643L257.08 219.483L257.32 219.333L257.57 219.173L257.84 219.013L258.11 218.843L258.39 218.683L258.67 218.523L258.96 218.373L259.25 218.223L259.55 218.083L259.86 217.953L260.17 217.823L260.48 217.693L261.12 217.433L261.34 217.343C261.36 217.786 261.541 218.206 261.85 218.523C261.946 218.6 262.054 218.661 262.17 218.703L262.63 218.473L263.26 218.153L263.91 217.813C263.915 217.783 263.915 217.753 263.91 217.723C263.92 217.647 263.92 217.57 263.91 217.493C263.91 217.343 263.91 217.163 263.91 216.953C263.91 216.743 263.96 216.543 264 216.323L264.33 216.203L264.65 216.083L264.96 215.973L265.58 215.753L265.87 215.663L266.14 215.563L266.4 215.483L266.66 215.393L266.91 215.313L267.14 215.233L267.37 215.163L267.59 215.093L267.8 215.033L268.01 214.973L268.22 214.923L268.6 214.823H268.77H268.93H269.09H269.25H269.4H269.54H269.68H269.82H269.97H270.88H271.01H271.13H271.37H271.49H271.61H271.74H271.87H272H272.14L272.28 214.873H272.42L272.56 214.923H272.69L272.82 214.973L273.06 215.093H273.18L273.29 215.153L273.39 215.223L273.49 215.283L273.59 215.353L273.68 215.423L273.78 215.493L273.88 215.573L273.97 215.663L274.07 215.753L274.17 215.843L274.28 215.953L274.38 216.053L274.48 216.163L274.57 216.273L274.67 216.383L274.76 216.503L274.84 216.623L274.93 216.743L275 216.873L275.07 217.003L275.14 217.123L275.2 217.263L275.32 217.543L275.37 217.683L275.42 217.813L275.47 217.943V218.073L275.52 218.213L275.57 218.343L275.62 218.473L275.72 218.713L275.78 218.833L275.83 218.953L275.89 219.073L275.94 219.183L276.04 219.403L276.09 219.523L276.14 219.623V219.743V219.843V219.953V220.063V220.173V220.283V220.393V220.493V220.603V220.723V220.843V220.973V221.213V221.333V221.453V221.573V221.693V223.203V223.383V223.483V223.533V223.583V223.633V223.683V225.943V226.043V226.143V226.253V226.353V226.453V226.553V226.653V226.753V226.843V226.943V227.033V227.123V227.213V227.303V227.393V227.573V227.753V229.653V229.833V230.943V231.083V231.133H276.22H278.38H278.49H278.59H278.7H278.81H278.9H279.01H279.11H279.22H279.33H279.44H279.54H279.65H279.75H279.85H279.94H280.04H280.14H280.24H280.34H280.44H280.54H280.65H280.75H280.86L281.06 231.233L281.16 231.283L281.26 231.343L281.35 231.393L281.45 231.453L281.53 231.513L281.62 231.573L281.7 231.643L281.78 231.703L281.85 231.773L281.99 231.893L282.05 231.963L282.12 232.023L282.18 232.093L282.3 232.233L282.36 232.293L282.42 232.363L282.48 232.443L282.54 232.513L282.6 232.593L282.66 232.663L282.78 232.823L282.84 232.903L282.9 232.993L282.95 233.083L283.01 233.173V233.263L283.06 233.353V233.443L283.11 233.533V233.633V233.723V233.823V233.943V234.063V234.183V234.313V234.443V234.723V234.873V235.023V235.893V236.413V236.533V236.763V236.873V236.983V237.083L282.93 239.253L282.72 241.773L282.67 241.873L282.6 242.013L282.52 242.173L282.43 242.343L282.34 242.503L282.25 242.683L282.14 242.873L282.03 243.063L281.91 243.263L281.78 243.463L281.66 243.663L281.51 243.883L281.36 244.103L281.2 244.333L281.03 244.573L280.86 244.813L280.68 245.063V245.123L280.54 245.313L280.16 245.813L279.97 246.073L279.57 246.573L279.38 246.833L279.17 247.083L278.97 247.343L278.76 247.593L278.56 247.833L278.35 248.073L278.14 248.323L277.92 248.563L277.71 248.813L277.5 249.053L277.08 249.553L276.88 249.793L276.68 250.043L276.48 250.283L276.29 250.523L276.1 250.753L275.91 250.993L275.53 251.473L275.34 251.703L275.16 251.933L274.97 252.163L274.79 252.393L274.6 252.613L274.41 252.843L274.22 253.053L274.05 253.263L273.87 253.473L273.7 253.673L273.53 253.873L273.36 254.073L273.19 254.273L273.04 254.463L272.89 254.643L272.75 254.823L272.61 255.003L272.48 255.173L272.22 255.513V255.573L272.15 255.663L272.03 255.823L271.9 255.993L271.66 256.313L271.55 256.463L271.44 256.613L271.36 256.723L271.25 256.873L271.15 257.013L271.05 257.153L270.95 257.273L270.86 257.403L270.76 257.523L270.67 257.643L270.58 257.773L270.49 257.893L270.4 258.013L271.87 259.943L271.77 260.063L271.67 260.193L271.57 260.323L271.47 260.443L271.37 260.573L271.26 260.703L271.18 260.803L271.07 260.943L270.95 261.083L270.84 261.213L270.72 261.363L270.6 261.503L270.48 261.653L270.35 261.803L270.23 261.953L270.1 262.113L269.98 262.253L269.85 262.403L269.73 262.553L269.59 262.693L269.45 262.853L269.37 262.953L269.31 263.013L269.16 263.173L269.02 263.333L268.86 263.503L268.7 263.673L268.54 263.853L268.37 264.023L268.21 264.193L268.04 264.363L267.87 264.533L267.7 264.703L267.51 264.883L267.16 265.233L266.98 265.403L266.62 265.763L266.43 265.943L266.25 266.123L266.07 266.293L265.89 266.463L265.71 266.633L265.52 266.803L265.33 266.973L265.14 267.143L264.96 267.303L264.78 267.453L264.59 267.603L264.41 267.763L264.22 267.913L264.04 268.063L263.86 268.213L263.68 268.363L263.5 268.513L263.33 268.663L263.16 268.803L262.99 268.943L262.83 269.083L262.67 269.223L262.5 269.363L262.32 269.493L262.15 269.633L261.98 269.753L261.62 270.013L261.43 270.133L261.25 270.253L261.07 270.373L260.89 270.483L260.71 270.593L260.54 270.703L260.36 270.813L260.17 270.933L259.99 271.053L259.81 271.163L259.63 271.283L259.27 271.523L259.13 271.623L258.96 271.733L258.79 271.843L258.62 271.943L258.46 272.033L258.3 272.123L258.14 272.213L257.99 272.293L257.86 272.373L257.72 272.443L257.6 272.513L257.48 272.583L257.4 272.633L257.29 272.693L257.19 272.753L257.1 272.813L257.02 272.873L256.94 272.923H256.87H256.81H256.76H256.71H256.66L256.57 273.013V273.133H256.62H256.69H257.11H257.27H257.44H257.63H257.78L257.99 273.073L258.21 273.013L258.44 272.933L258.68 272.853L258.94 272.763L259.21 272.663L259.49 272.563L259.78 272.453L259.9 272.403L260.08 272.333L260.38 272.213L260.68 272.083L261 271.953L261.32 271.813L261.65 271.673L261.99 271.533L262.34 271.383L262.68 271.223L262.87 271.133L263.02 271.063L263.74 270.723L264.11 270.543L264.49 270.353L264.87 270.173L265.63 269.793L266.01 269.593L266.4 269.393L266.74 269.223L267.13 269.033L267.89 268.673L268.26 268.503L268.62 268.333L268.98 268.173L269.33 268.013L269.68 267.873L270.03 267.733L270.37 267.593L270.71 267.473L271.04 267.353L271.36 267.233L271.68 267.123L272 267.013L272.32 266.903L272.64 266.803L272.95 266.693L273.26 266.593L273.57 266.493L273.87 266.393L274.08 266.323H274.14L274.44 266.223L274.73 266.123L275.01 266.033L275.29 265.943L275.83 265.783L276.09 265.703L276.35 265.633L276.59 265.563L276.82 265.493L277.04 265.433L277.27 265.373L277.49 265.313L277.71 265.263L277.92 265.213H278.12H278.17H278.31H278.5H278.69H278.87H279.04H279.2H279.36H279.51H279.66H279.8H279.95H280.08H280.21H280.34H282.58V264.943V264.733V264.683V264.633V264.573V264.523V264.463V264.393V264.333V264.263V264.203V264.123V264.043V263.963V263.883V263.803V263.713V263.623V263.533L284.32 263.403C285.1 263.403 285.86 263.403 286.61 263.473C290.81 264.243 291.09 268.643 289.78 272.723Z" fill="#F1B0B0"/>
<path d="M247.59 110.553C245.59 108.313 249.38 102.253 251.47 100.903C252.95 99.8231 254.95 101.113 255.4 102.673C255.81 105.423 253.4 107.673 251.6 109.453C250.54 110.453 248.95 111.943 247.6 110.553" fill="#F3F1DD"/>
<path d="M328.43 69.6031C328.782 69.666 329.116 69.8022 329.412 70.0029C329.708 70.2035 329.958 70.4641 330.147 70.7677C330.335 71.0714 330.458 71.4112 330.507 71.7653C330.555 72.1194 330.529 72.4798 330.43 72.8231C329.983 74.3259 329.148 75.6847 328.01 76.7631C324.41 80.5731 319.41 82.4931 314.89 84.9331C311.552 86.5429 308.619 88.8842 306.31 91.7831C304.81 93.7831 303.83 96.0931 301.54 97.3431C300.6 97.9031 299.59 98.6331 298.44 98.4831C297.613 98.3099 296.888 97.8157 296.425 97.1089C295.962 96.4021 295.798 95.5404 295.97 94.7131C296.49 92.0231 298.2 89.7131 299.47 87.2931C302.94 81.2931 307.35 74.6931 314.34 72.6531C316.65 71.9531 319.11 72.8931 321.34 72.0431C323.74 71.3431 325.79 69.3631 328.43 69.6031Z" fill="#F3F1DD"/>
<path d="M286.73 235.733C286.83 236.489 286.866 237.251 286.84 238.013C286.06 237.503 286.61 236.463 286.73 235.733Z" fill="#262526"/>
<g opacity="0.7">
<mask id="mask0_278_30353" style="mask-type:alpha" maskUnits="userSpaceOnUse" x="169" y="207" width="14" height="32">
<path d="M182.73 207.123H169.59V238.033H182.73V207.123Z" fill="black"/>
</mask>
<g mask="url(#mask0_278_30353)">
<path d="M180.17 238.023C176.36 228.243 172.63 218.393 169.61 208.343C169.518 208.12 169.509 207.871 169.587 207.642C169.664 207.414 169.821 207.221 170.029 207.099C170.238 206.977 170.483 206.934 170.72 206.979C170.957 207.024 171.17 207.153 171.32 207.343C171.633 207.662 171.869 208.048 172.01 208.473C173.75 212.743 175.13 217.153 176.75 221.473C178.67 226.883 180.86 232.203 182.75 237.633C182.755 237.659 182.755 237.687 182.75 237.713C182.585 237.723 182.422 237.743 182.26 237.773C181.88 237.833 181.52 237.923 181.15 238.013C180.817 237.986 180.482 237.986 180.15 238.013" fill="#262526"/>
</g>
</g>
<path d="M281.3 263.443C280.02 263.601 278.751 263.838 277.5 264.153C271.55 265.613 265.29 268.663 259.35 271.893L259.18 271.983L259.34 271.883C265.93 267.073 272.56 262.113 277.91 255.883C278.49 255.223 279.05 254.553 279.59 253.883C280.59 252.453 282.02 250.533 283.32 248.393C283.83 247.543 284.32 246.663 284.78 245.763C285.06 245.233 285.31 244.703 285.55 244.173C285.6 244.453 285.65 244.723 285.72 245.003C285.79 245.283 285.9 245.753 286.01 246.133C286.01 245.693 286.01 245.243 286.01 244.803C286.01 244.073 286.01 243.353 286.01 242.623C286.469 241.123 286.734 239.57 286.8 238.003C286.826 237.241 286.79 236.479 286.69 235.723C286.528 235.213 286.295 234.729 286 234.283C285.653 233.752 285.224 233.28 284.73 232.883C284.44 232.63 284.129 232.402 283.8 232.203C283.66 232.113 283.51 232.033 283.36 231.953C282.37 231.415 281.305 231.031 280.2 230.813C279.372 230.64 278.523 230.587 277.68 230.653C278.063 229.573 278.38 228.471 278.63 227.353C280.63 220.043 275.84 212.613 267.82 214.013C266.553 214.264 265.311 214.628 264.11 215.103C259.32 216.953 255.11 220.253 251 223.243C244.726 227.984 238.736 233.09 233.06 238.533L230.57 240.943C226.7 244.483 218.65 252.463 213.36 252.433C215.08 249.433 218.09 247.263 220.61 244.883C223.483 242.39 226.37 239.91 229.27 237.443C230.68 236.213 232.12 235.003 233.57 233.803C240.87 227.803 248.49 221.853 253.42 213.703C255.54 209.863 257.28 205.463 256.83 201.013C256.37 195.443 251.63 191.643 246.11 193.013C244.43 193.372 242.808 193.961 241.29 194.763C239.62 195.63 238.007 196.602 236.46 197.673C233.29 199.843 230.26 202.203 227.32 204.673C221.19 209.763 215.32 215.143 209.5 220.583C204.03 225.793 197.97 230.483 190.92 233.343C187.4 234.843 180.2 237.033 175.2 236.243C174.41 234.103 173.58 231.983 172.85 229.833C170.99 224.143 169.23 218.143 167.33 212.423C167.05 211.553 166.77 210.683 166.5 209.803L166.15 208.633V208.563L165.83 207.513C162.83 197.873 160.22 188.143 157.43 178.443C155.74 172.443 154.5 166.263 152.53 160.323H152.77C154.195 160.522 155.631 160.625 157.07 160.633C175.36 160.633 193.35 158.193 211.49 155.753L217.89 154.833L220.8 154.403C229.15 153.153 237.49 151.803 245.8 150.193C248.92 149.6 252.03 148.963 255.13 148.283C261.3 146.863 267.53 145.543 273.58 143.653C274.98 143.213 276.36 142.753 277.73 142.253L277.89 142.193C279.601 141.643 281.202 140.797 282.62 139.693C282.807 139.52 282.984 139.336 283.15 139.143L283.33 138.933C283.631 138.61 283.82 138.198 283.871 137.759C283.921 137.32 283.83 136.876 283.61 136.493C283.41 136.179 283.121 135.932 282.78 135.783C282.546 135.68 282.295 135.619 282.04 135.603C281.28 135.603 280.52 135.533 279.75 135.523C271.4 135.353 263.07 136.573 254.75 137.603C253.24 137.793 251.75 137.973 250.23 138.133C241.61 139.213 232.95 140.263 224.33 141.443L221.33 141.853L218.81 142.213C198.786 144.929 178.916 148.677 159.28 153.443C157.15 153.983 155 154.513 152.88 155.123C151.78 155.523 150.36 155.653 149.62 156.643C149.497 156.737 149.392 156.852 149.31 156.983C149.17 157.298 149.097 157.639 149.097 157.983C149.097 158.328 149.17 158.668 149.31 158.983C149.71 160.303 150.2 161.593 150.59 162.923C153.59 174.213 156.52 185.523 159.88 196.723C160.88 200.493 162.03 204.243 163.18 207.983C161.881 209.022 160.662 210.155 159.53 211.373C150.89 220.303 145.74 231.763 139.16 242.153C128.1 258.943 111.21 263.873 92.3798 266.943C77.9407 269.403 63.3266 270.694 48.6798 270.803C37.1798 270.573 25.5198 270.563 14.3398 267.523C14.0588 267.448 13.7598 267.486 13.506 267.628C13.2522 267.77 13.0635 268.005 12.9798 268.283C12.9188 268.465 12.9188 268.661 12.9798 268.843C13.6498 270.683 19.8598 271.393 21.6898 271.793C30.0198 273.183 38.5098 273.163 46.9398 273.413C60.0301 273.463 73.105 272.51 86.0498 270.563C98.8498 268.633 112.05 266.563 123.48 260.233C130.395 256.368 136.315 250.944 140.77 244.393C144.87 238.343 148.05 231.753 151.96 225.593C155.287 220.027 159.287 214.892 163.87 210.303C164.596 212.63 165.34 214.963 166.1 217.303C168.03 223.233 169.73 229.243 171.92 235.083C171.741 234.957 171.571 234.821 171.41 234.673C171.291 234.553 171.147 234.461 170.988 234.404C170.829 234.348 170.659 234.329 170.491 234.348C170.323 234.367 170.162 234.425 170.02 234.516C169.877 234.607 169.758 234.729 169.67 234.873C168.97 236.473 170.98 237.663 172.28 238.133C172.6 238.243 172.92 238.353 173.28 238.443H173.47L173.66 238.493H173.75H173.92H174.01C174.23 238.543 174.44 238.593 174.67 238.623C174.9 238.653 174.9 238.623 175.02 238.683H175.19H175.37L175.72 238.733C175.84 238.733 175.95 238.733 176.07 238.733C179.01 238.911 181.959 238.645 184.82 237.943C191.026 236.402 196.89 233.716 202.11 230.023C206.81 226.743 210.89 222.703 215.11 218.833C223.11 211.593 231.04 204.163 240.11 198.303C243.11 196.533 246.74 194.533 250.33 195.513C254.07 196.803 254.78 201.463 254.01 204.883C252.77 210.783 249.16 215.813 245.01 220.063C234.87 230.063 222.93 238.193 212.93 248.373C210.99 250.253 209.18 253.793 212.86 254.853C216.79 255.443 221.21 251.853 224.33 249.773C232.06 243.603 238.64 236.113 246.44 230.013C250.98 226.533 256.35 221.843 261.9 218.873C262.046 218.785 262.196 218.705 262.35 218.633L262.98 218.313L263.61 218.013C265.044 217.329 266.545 216.796 268.09 216.423C274.43 215.213 277.58 220.893 276.09 226.503C274.22 234.753 268.42 241.373 262.49 247.113C256.136 252.98 249.324 258.33 242.12 263.113C238.81 265.353 235.36 267.313 231.94 269.403C231.639 269.547 231.403 269.798 231.277 270.107C231.151 270.415 231.145 270.76 231.26 271.073C231.99 272.633 233.44 271.613 234.44 270.963C235.81 270.113 237.23 269.313 238.61 268.473C249.206 262.057 258.975 254.366 267.7 245.573C271.264 241.938 274.243 237.772 276.53 233.223C278.313 232.823 280.18 233.045 281.82 233.853C285.96 235.643 284.31 240.353 282.82 243.453C281.548 246.124 280.032 248.672 278.29 251.063C275.244 255.1 271.748 258.778 267.87 262.023C262.01 266.883 255.72 271.203 249.54 275.643C247.97 276.783 246.41 277.933 244.77 278.963C244.174 279.254 243.641 279.658 243.2 280.153C242.56 280.513 241.95 281.063 241.46 281.403C241.275 281.588 241.147 281.822 241.091 282.077C241.036 282.333 241.055 282.599 241.147 282.844C241.239 283.088 241.399 283.302 241.609 283.458C241.819 283.613 242.069 283.706 242.33 283.723C243.93 283.603 245.26 282.433 246.7 281.803C249.7 280.283 252.59 278.663 255.49 277.013C263.49 272.663 271.54 267.963 280.56 266.163C282.69 265.933 285.38 265.163 287.2 266.633C289.14 270.683 286.05 275.263 283.41 278.263C276.24 285.663 266.47 289.923 256.96 293.493C252.65 295.083 248.24 296.283 243.96 297.823C242.4 298.413 240.82 298.973 239.29 299.623C239.02 299.733 238.795 299.929 238.649 300.18C238.502 300.432 238.443 300.724 238.48 301.013C237.677 301.366 236.893 301.76 236.13 302.193C233.67 303.583 231.24 305.043 228.71 306.313C217.4 312.103 205.81 317.313 194.18 322.453C180.18 328.673 165.5 333.253 151.18 338.633C145.35 340.793 139.87 343.783 134.18 346.333C129.52 348.473 124.72 350.333 119.9 352.033C106.16 356.906 92.2632 361.283 78.2098 365.163C71.9431 366.89 65.6398 368.526 59.2998 370.073C55.2998 371.073 51.1798 371.963 47.0698 372.723C41.9466 373.735 36.756 374.37 31.5398 374.623C27.8598 374.763 24.1698 374.623 20.4798 374.623C20.2542 374.611 20.0301 374.667 19.836 374.782C19.6419 374.898 19.4866 375.069 19.3898 375.273C19.3194 375.402 19.2784 375.546 19.2698 375.693C19.2533 375.995 19.3564 376.291 19.5566 376.518C19.7569 376.744 20.0382 376.882 20.3398 376.903C22.9998 377.123 25.6598 377.273 28.3398 377.333H28.6898C37.2698 377.333 45.7698 375.843 54.1298 373.983C64.8798 371.633 75.4498 368.723 86.0698 365.703C100.66 361.433 115.19 356.843 129.36 351.313C137.22 348.203 144.59 343.963 152.5 340.963C160.68 337.853 169 335.153 177.21 332.113C186.463 328.686 195.566 324.9 204.52 320.753C215.61 315.663 226.79 310.683 237.21 304.313L237.62 304.043C238.81 303.383 239.98 302.703 241.15 302.043C241.48 301.793 242.02 301.543 242.48 301.233H242.57C244.68 300.403 246.83 299.663 249 298.983C262 294.913 277.62 289.303 286.59 278.703C287.185 278.018 287.715 277.278 288.17 276.493L288.31 276.193L288.38 276.033L288.52 275.733L289.4 273.953L289.5 273.683C289.61 273.383 289.72 273.083 289.82 272.783C291.13 268.703 290.82 264.303 286.13 263.383C285.38 263.323 284.62 263.303 283.84 263.313L282.1 263.443H281.3ZM220.51 144.643C221.51 144.493 222.51 144.363 223.51 144.233C228.503 143.566 233.503 142.9 238.51 142.233C243.22 141.713 247.93 141.083 252.64 140.463C260.951 139.235 269.324 138.464 277.72 138.153C278.58 138.153 279.45 138.153 280.31 138.153C279.024 138.874 277.687 139.499 276.31 140.023C272.6 141.443 268.62 142.283 264.8 143.343C259.173 144.73 253.506 145.99 247.8 147.123C241.133 148.456 234.436 149.646 227.71 150.693L221.48 151.623L218.56 152.063C198.56 155.063 178.46 157.773 158.23 158.063C156.427 158.083 154.624 157.963 152.84 157.703C175.138 152.102 197.729 147.742 220.51 144.643Z" fill="#262526"/>
<path d="M248.87 26.7031C258.69 29.6131 268.53 34.1431 275.46 41.8931C274.202 31.4287 270.353 21.4436 264.26 12.8431C258.87 4.77314 248.2 0.593137 238.81 3.50314C235.886 4.58381 233.505 6.77132 232.18 9.59314C230.52 13.0431 231.75 17.2531 234.08 20.0631C235.69 21.8631 237.99 22.8431 240.19 23.7431C243.04 24.8931 245.99 25.7431 248.91 26.7431M277.15 48.8731C276.861 48.3502 276.661 47.7823 276.56 47.1931C275.332 45.4258 273.932 43.7845 272.38 42.2931C268.041 38.2701 263.05 35.0137 257.62 32.6631C251.71 29.9531 245.27 28.6631 239.25 26.2531C234.05 24.3731 230.25 21.2531 229.04 15.6531C227.83 10.0531 231.45 4.11314 236.53 1.65314C242.84 -0.986863 250.45 -0.346863 256.53 2.73314C261.402 5.277 265.439 9.16835 268.16 13.9431C270.784 18.1272 272.991 22.5584 274.75 27.1731C276.83 32.6631 277.62 38.4831 278.56 44.2331C278.78 45.2331 279.03 46.2331 279.3 47.2331C279.463 47.6406 279.488 48.0903 279.37 48.5131C279.289 48.7259 279.153 48.9136 278.976 49.0574C278.8 49.2012 278.589 49.296 278.364 49.3325C278.139 49.3689 277.909 49.3457 277.696 49.2651C277.483 49.1845 277.294 49.0493 277.15 48.8731Z" fill="#262526"/>
<path d="M181.17 30.943C188.38 30.643 192.06 20.493 185.5 16.493C184.091 15.4594 182.414 14.8552 180.67 14.753C180.102 14.6701 179.523 14.7436 178.995 14.9656C178.466 15.1877 178.008 15.5498 177.67 16.013C176.092 17.2806 174.895 18.9588 174.21 20.863C173.49 23.293 174.49 25.863 175.75 27.943C176.296 28.8919 177.092 29.673 178.051 30.2019C179.01 30.7307 180.096 30.987 181.19 30.943M176.59 32.423C173.23 30.353 171.51 26.253 171.32 22.423C171.358 20.8463 171.795 19.305 172.59 17.943C172.931 16.7588 173.548 15.6724 174.39 14.773C181 7.62298 194.22 16.103 191.21 25.133C189.8 31.403 182.45 35.743 176.57 32.383" fill="#262526"/>
<path d="M289.46 273.623L289.36 273.893L288.48 275.673L288.6 275.413L289.46 273.623Z" fill="#262526"/>
<path d="M326.97 62.1532C316.66 59.9332 302.97 72.4432 296.65 79.8132C291.998 85.7463 287.659 91.918 283.65 98.3032C281.49 101.443 275.18 111.893 269.74 117.173C268.736 118.205 267.583 119.082 266.32 119.773C265.582 120.207 264.713 120.363 263.87 120.213C263.87 120.213 263.81 120.133 263.75 120.093C262.88 118.893 263.57 117.093 263.75 115.763C265.05 108.903 268.64 102.493 268.65 95.4132C269.01 90.0832 266.02 83.7832 259.78 85.2432C252.46 87.7632 247.21 93.9932 242.19 99.5932C235.24 107.713 230.4 117.323 226.39 127.163C224.46 131.983 222.82 136.903 221.39 141.873C221.12 142.793 220.85 143.723 220.6 144.643C219.9 147.113 219.25 149.583 218.6 152.063L218.15 153.863C218.06 154.193 217.98 154.523 217.9 154.863C215.64 163.663 214.03 172.583 210.75 181.083C199.22 182.673 186.9 185.083 177.94 193.083C174.21 196.933 169.24 202.463 169.47 208.083C169.476 210.237 170.277 212.313 171.721 213.912C173.164 215.51 175.148 216.519 177.29 216.743C177.994 216.823 178.702 216.863 179.41 216.863C194.52 216.863 205.87 197.963 211.87 185.293C211.87 185.203 211.94 185.123 211.98 185.033C212.02 184.943 212.2 184.563 212.31 184.323C212.42 184.083 212.53 183.853 212.65 183.613L212.71 183.493C212.87 183.063 213.02 182.643 213.19 182.223C213.36 181.803 213.61 181.113 213.84 180.553C213.84 180.443 213.93 180.343 213.97 180.233C216.73 172.443 218.31 164.283 220.34 156.283L220.79 154.483C221.03 153.553 221.26 152.613 221.5 151.683C222.14 149.213 222.8 146.753 223.5 144.293C223.76 143.373 224.02 142.443 224.3 141.523C224.94 139.343 225.62 137.163 226.3 135.003C230.77 122.693 236.11 110.663 244.81 100.663C248.81 96.2132 252.97 91.5932 258.35 88.7732C264.6 85.2932 266.35 92.0532 265.82 97.0032C265.57 100.813 263.97 104.643 262.9 108.303C262.03 112.303 257.77 121.393 263.51 123.033L263.8 123.113C268.11 123.453 272.49 118.653 275.87 114.293C277.23 112.543 278.42 110.853 279.39 109.603C286.1 99.9032 292.12 89.4432 299.78 80.3932C304.615 74.8421 310.403 70.1992 316.87 66.6832C319.87 65.3032 323.66 63.8132 327.04 64.9932C333.48 67.4432 331.71 73.5232 328.51 77.9932C318.03 91.9932 304.75 103.533 293.99 117.273C289.53 122.983 285.21 129.003 282.7 135.853C282.51 136.343 282.34 136.853 282.18 137.333C282.13 137.503 282.07 137.703 282.01 137.943L282.18 138.053C282.235 138.11 282.283 138.174 282.32 138.243C282.368 138.265 282.41 138.3 282.44 138.343C282.469 138.414 282.469 138.493 282.44 138.563C282.44 138.743 282.44 138.913 282.44 139.093C282.44 139.273 282.44 139.293 282.44 139.393C282.44 139.493 282.44 139.603 282.44 139.713C282.44 139.823 282.44 140.093 282.44 140.283C282.44 140.843 282.53 141.403 282.57 141.973C282.57 142.093 282.57 142.213 282.57 142.343C284.22 171.573 282.83 200.883 283.2 230.143C283.2 230.733 283.2 231.323 283.2 231.903C283.2 232.483 283.2 233.053 283.2 233.633L283.36 233.733C283.526 233.847 283.677 233.982 283.81 234.133C283.882 234.219 283.949 234.309 284.01 234.403C284.397 234.854 284.689 235.378 284.87 235.943C284.925 236.231 284.965 236.521 284.99 236.813C284.99 237.053 284.99 237.293 285.04 237.533C285.04 237.533 285.04 237.633 285.04 237.673C285.186 238.111 285.244 238.573 285.21 239.033C285.127 239.691 284.941 240.332 284.66 240.933C284.544 241.213 284.414 241.487 284.27 241.753C284.126 242.032 283.965 242.303 283.79 242.563L283.4 243.053C283.4 243.463 283.4 243.883 283.4 244.293C283.4 244.703 283.4 245.013 283.4 245.373C283.4 246.373 283.4 247.373 283.33 248.373C283.26 249.373 283.27 250.373 283.22 251.373C283.17 252.373 283.09 253.603 283.04 254.723C283.04 255.063 283.04 255.413 283.04 255.723C283 258.563 282.793 261.398 282.42 264.213C283.327 263.998 284.222 263.734 285.1 263.423C285.1 263.423 285.65 256.943 285.77 253.423C285.77 253.073 285.77 252.723 285.83 252.423C285.95 250.333 286.01 248.233 286.05 246.143C286.05 245.703 286.05 245.253 286.05 244.813C286.05 244.083 286.05 243.363 286.05 242.633C286.05 239.823 286.05 237.023 286.05 234.233C286.05 233.483 286.05 232.743 286.05 232.003C285.94 215.733 286.05 199.473 286.18 183.203C286.23 169.003 286.41 154.763 285.12 140.603C285 139.963 285.05 138.813 284.87 137.853C284.874 137.833 284.874 137.813 284.87 137.793C287.63 129.623 293.03 122.733 298.41 116.073C304.87 108.363 311.87 101.123 318.69 93.7232C323.69 87.8632 333.42 78.9932 334.15 71.3132C334.56 66.9432 331.13 63.0432 326.97 62.1532ZM180.67 214.153C175.16 214.693 171.42 211.963 172.23 206.153C173.98 200.803 178.23 195.873 182.8 192.653C190.64 187.383 200.21 185.373 209.44 184.033C204.17 194.943 194.03 212.733 180.67 214.113V214.153Z" fill="#262526"/>
</svg>
