<svg width="570" height="320" viewBox="0 0 570 320" fill="none" xmlns="http://www.w3.org/2000/svg">
<rect x="3" y="3" width="564" height="314" rx="17" fill="#F2F0DC"/>
<path d="M273.686 47.763L284.174 40.4852C284.683 40.1314 285.381 40.141 285.879 40.5116L296.192 48.1529C296.39 48.2997 296.626 48.3936 296.876 48.4249L309.223 49.982C309.823 50.0566 310.305 50.485 310.419 51.0458L313.326 65.2718C313.36 65.4378 313.425 65.5967 313.523 65.7387L320.548 76.0417C320.864 76.5062 320.843 77.1079 320.493 77.5507L312.971 87.0668C312.873 87.1896 312.798 87.3292 312.753 87.4784L309.542 97.5576C309.378 98.0727 308.898 98.4433 308.33 98.4962L297.094 99.5263C296.821 99.5504 296.56 99.6515 296.346 99.8127L286.249 107.483C285.744 107.866 285.029 107.875 284.513 107.505L273.749 99.7838C273.547 99.6394 273.306 99.548 273.054 99.5215L261.186 98.2652C260.593 98.2026 260.109 97.7959 259.972 97.2496L257.536 87.4062C257.491 87.2257 257.407 87.0548 257.288 86.908L249.514 77.2282C249.155 76.783 249.132 76.1717 249.457 75.7048L256.109 66.078C256.211 65.9288 256.282 65.7627 256.316 65.5894L258.984 51.5728C259.086 51.0385 259.522 50.615 260.088 50.5066L273.14 47.9965C273.34 47.958 273.529 47.8785 273.692 47.7654L273.686 47.763Z" fill="#DB5632"/>
<path d="M285.362 108C285.017 108 284.669 107.897 284.376 107.685L273.613 99.964C273.442 99.8413 273.24 99.7643 273.026 99.7426L261.159 98.4863C260.472 98.4141 259.906 97.9376 259.75 97.2998L257.313 87.4564C257.277 87.3072 257.206 87.1676 257.109 87.0449L249.334 77.3651C248.913 76.8429 248.888 76.1233 249.268 75.5721L255.92 65.9453C256.006 65.8226 256.063 65.6854 256.091 65.541L258.759 51.5244C258.879 50.8962 259.381 50.4077 260.043 50.2801L273.095 47.7699C273.263 47.7386 273.424 47.6712 273.561 47.575L284.049 40.2971C284.635 39.8904 285.447 39.9024 286.019 40.326L296.333 47.9673C296.499 48.09 296.699 48.1694 296.908 48.1959L309.255 49.753C309.953 49.8421 310.51 50.3403 310.644 50.9949L313.55 65.2209C313.578 65.3581 313.634 65.488 313.714 65.606L320.739 75.9091C321.109 76.453 321.084 77.1654 320.673 77.6828L313.15 87.1989C313.069 87.3024 313.007 87.4155 312.969 87.5382L309.757 97.6175C309.564 98.2216 309.012 98.6524 308.35 98.7125L297.114 99.7426C296.883 99.7643 296.664 99.8485 296.485 99.9857L286.387 107.656C286.09 107.882 285.728 107.998 285.365 107.998L285.362 108ZM285.01 40.4536C284.762 40.4536 284.515 40.5258 284.306 40.6702L273.817 47.948C273.629 48.0804 273.406 48.1718 273.176 48.2152L260.125 50.7253C259.647 50.8168 259.286 51.1634 259.202 51.611L256.534 65.6276C256.495 65.8346 256.413 66.0271 256.293 66.2028L249.641 75.8296C249.375 76.2147 249.393 76.7201 249.688 77.0859L257.463 86.7657C257.604 86.939 257.702 87.1363 257.754 87.3505L260.19 97.1939C260.302 97.6464 260.711 97.9881 261.206 98.0411L273.074 99.2974C273.365 99.3287 273.645 99.4346 273.879 99.6006L284.642 107.321C285.078 107.634 285.681 107.627 286.106 107.302L296.203 99.6319C296.451 99.4442 296.751 99.3287 297.067 99.2998L308.303 98.2697C308.782 98.2264 309.182 97.9183 309.319 97.4875L312.53 87.4083C312.584 87.235 312.671 87.0713 312.787 86.9269L320.309 77.4108C320.596 77.0474 320.616 76.5468 320.355 76.1666L313.33 65.8635C313.216 65.695 313.137 65.5121 313.098 65.3148L310.191 51.0912C310.096 50.6243 309.694 50.2705 309.189 50.2055L296.842 48.6484C296.553 48.6123 296.28 48.504 296.051 48.3331L285.735 40.6918C285.522 40.533 285.26 40.4536 285.001 40.4536H285.01Z" fill="black"/>
<path d="M273.77 58.2896L266.172 68.9394C266.172 68.9394 258.306 62.4793 265.129 57.01C269.563 53.4553 273.77 58.2896 273.77 58.2896Z" fill="#EF9A5C"/>
<path d="M266.215 69.2798L266.034 69.1307C265.993 69.097 265.04 68.3081 264.075 67.0406C262.786 65.3474 262.111 63.6061 262.118 62.0091C262.129 60.085 263.095 58.3389 264.99 56.8189C269.536 53.1752 273.893 58.0768 273.936 58.1273L274.065 58.274L266.213 69.2774L266.215 69.2798ZM268.577 55.941C267.422 55.941 266.315 56.3619 265.268 57.2013C263.491 58.6251 262.584 60.2438 262.575 62.0091C262.556 65.1574 265.39 67.9209 266.136 68.5943L273.472 58.3125C273.145 57.9758 272.238 57.1147 271.009 56.5327C270.179 56.1407 269.368 55.9434 268.579 55.9434L268.577 55.941Z" fill="black"/>
<path d="M296.141 58.2915L303.739 68.9413C303.739 68.9413 311.605 62.4812 304.782 57.012C300.348 53.4572 296.141 58.2915 296.141 58.2915Z" fill="#EF9A5C"/>
<path d="M303.696 69.2813L295.844 58.2779L295.973 58.1312C296.016 58.0807 300.373 53.1791 304.919 56.8228C306.814 58.3428 307.782 60.089 307.791 62.013C307.8 63.61 307.123 65.3513 305.834 67.0445C304.869 68.312 303.916 69.1009 303.875 69.1346L303.694 69.2837L303.696 69.2813ZM296.439 58.314L303.775 68.5958C304.521 67.9224 307.355 65.1589 307.337 62.0106C307.328 60.2453 306.421 58.6291 304.644 57.2028C302.88 55.7886 300.948 55.5625 298.903 56.5318C297.673 57.1138 296.766 57.9749 296.439 58.3116V58.314Z" fill="black"/>
<path d="M296.928 95.0913C296.928 95.0913 292.303 98.2348 290.519 99.8342C288.769 101.398 285.19 101.554 285.042 101.559H285.038C284.892 101.554 281.31 101.431 279.549 99.8823C277.749 98.3022 273.099 95.1996 273.099 95.1996C260.031 87.4263 263.431 78.9218 263.431 78.9218C263.431 78.9218 264.661 73.6402 267.847 63.8441C270.954 54.2886 284.21 56.2464 284.856 56.3498C285.583 56.2296 298.744 54.1924 301.921 63.6878C305.187 73.4526 306.46 78.7246 306.46 78.7246C306.46 78.7246 309.93 87.1954 296.928 95.0913Z" fill="#EF9A5C"/>
<path d="M285.049 101.8C284.642 101.788 281.179 101.629 279.404 100.068C277.636 98.5167 273.024 95.4358 272.979 95.4045C269.224 93.1726 264.461 89.411 263.145 84.2087C262.379 81.1831 263.127 79.081 263.216 78.8477C263.297 78.5014 264.57 73.1837 267.634 63.7677C270.77 54.1232 283.915 55.9631 284.856 56.1074C285.799 55.9583 298.937 54.051 302.137 63.6089C305.276 72.9937 306.592 78.3042 306.678 78.6481C306.769 78.879 307.532 80.9762 306.792 84.0067C306.089 86.8832 303.83 91.1763 297.049 95.2963C296.878 95.4117 292.397 98.4686 290.669 100.018C288.833 101.658 285.09 101.797 285.051 101.8H285.049ZM281.424 56.3599C280.215 56.3599 278.786 56.4441 277.313 56.7135C272.44 57.6058 269.327 60.0301 268.061 63.924C264.915 73.595 263.663 78.9271 263.652 78.98L263.64 79.0161C263.631 79.0377 262.827 81.1278 263.593 84.1173C264.304 86.8904 266.55 91.0272 273.211 94.9908C273.411 95.1231 277.904 98.1271 279.695 99.6976C281.381 101.182 284.897 101.314 285.044 101.319C285.072 101.319 288.656 101.184 290.372 99.6495C292.147 98.0573 296.615 95.0173 296.803 94.8874L296.812 94.8802C300.471 92.6579 305.094 88.954 306.339 83.9177C307.08 80.9209 306.258 78.8381 306.248 78.8165L306.237 78.7804C306.223 78.7275 304.928 73.405 301.705 63.7653C298.583 54.4334 285.447 56.4922 284.89 56.5836L284.856 56.5884L284.822 56.5836C284.731 56.5692 283.358 56.3551 281.424 56.3551V56.3599Z" fill="black"/>
<path d="M289.79 63.1268C289.79 63.1268 296.637 66.0911 296.878 60.2227L289.79 63.1268Z" fill="black"/>
<path d="M293.262 64.1189C291.51 64.1189 289.808 63.3952 289.703 63.3495C289.617 63.3135 289.562 63.2221 289.562 63.126C289.562 63.0274 289.621 62.9384 289.708 62.9048L296.796 60.0006C296.869 59.9718 296.948 59.9814 297.01 60.0295C297.071 60.0775 297.107 60.1545 297.105 60.2362C297.041 61.7676 296.537 62.8663 295.601 63.4986C294.917 63.9626 294.082 64.1213 293.262 64.1213V64.1189ZM290.446 63.1163C291.526 63.4794 293.885 64.0876 295.355 63.0899C296.082 62.5971 296.51 61.7532 296.623 60.5824L290.444 63.1139L290.446 63.1163Z" fill="black"/>
<path d="M280.206 63.1268C280.206 63.1268 273.358 66.0911 273.117 60.2227L280.206 63.1268Z" fill="black"/>
<path d="M276.733 64.1174C275.91 64.1174 275.078 63.9587 274.394 63.4947C273.458 62.8624 272.954 61.7637 272.89 60.2323C272.888 60.1506 272.922 60.0736 272.985 60.0255C273.049 59.9775 273.129 59.9678 273.199 59.9967L280.287 62.9009C280.374 62.9369 280.431 63.0235 280.433 63.1221C280.433 63.2206 280.378 63.3096 280.292 63.3456C280.187 63.3913 278.485 64.1149 276.733 64.1149V64.1174ZM273.369 60.5833C273.485 61.7541 273.91 62.598 274.64 63.0908C276.113 64.0885 278.472 63.4779 279.549 63.1148L273.369 60.5833Z" fill="black"/>
<path d="M275.467 61.1836L278.13 62.2751C278.13 62.2751 275.958 64.1719 275.467 61.1836Z" fill="#F2F0DC"/>
<path d="M276.765 63.1113C276.613 63.1113 276.46 63.0872 276.313 63.0295C275.765 62.8156 275.406 62.2097 275.245 61.2289L275.176 60.8105L278.579 62.2049L278.279 62.467C278.242 62.4982 277.526 63.1161 276.767 63.1161L276.765 63.1113ZM275.783 61.5726C275.929 62.1184 276.16 62.455 276.47 62.5776C276.865 62.7338 277.333 62.5247 277.645 62.3348L275.783 61.5726Z" fill="black"/>
<path d="M292.028 62.3702L294.667 61.209C294.667 61.209 294.339 64.1709 292.028 62.3702Z" fill="#F2F0DC"/>
<path d="M293.342 63.1933C292.915 63.1933 292.431 62.9842 291.894 62.5659L291.572 62.3134L294.937 60.8301L294.892 61.2388C294.885 61.2965 294.724 62.6812 293.844 63.0851C293.688 63.1573 293.519 63.1933 293.342 63.1933ZM292.508 62.4216C292.972 62.7077 293.358 62.7846 293.66 62.6452C294.047 62.4673 294.251 61.9744 294.351 61.609L292.508 62.4216Z" fill="black"/>
<path d="M284.996 67.8984C284.996 67.8984 284.955 75.222 275.478 75.1595C275.478 75.1595 274.728 95.5404 284.996 95.7328C295.264 95.9252 294.428 75.1547 294.428 75.1547C294.428 75.1547 285.771 77.1317 284.996 67.8984Z" fill="#DB5632"/>
<path d="M285.137 96.0975C285.09 96.0975 285.04 96.0975 284.992 96.0975C282.896 96.059 281.09 95.2052 279.621 93.5601C277.556 91.2464 276.174 87.4391 275.515 82.244C275.026 78.4007 275.138 75.1802 275.14 75.1465C275.147 74.9517 275.297 74.8002 275.481 74.8002C275.526 74.8002 275.562 74.8002 275.603 74.8002C284.492 74.8002 284.655 68.1813 284.658 67.8975C284.658 67.7051 284.803 67.5488 284.985 67.5392C285.167 67.5344 285.321 67.6763 285.337 67.8663C285.555 70.4638 286.437 72.3831 287.958 73.5688C290.601 75.6276 294.321 74.8098 294.357 74.8026C294.455 74.781 294.557 74.8026 294.637 74.87C294.717 74.9349 294.764 75.0335 294.769 75.1393C294.792 75.6781 295.244 88.4107 290.301 93.7765C288.88 95.3158 287.144 96.0975 285.137 96.0975ZM275.812 75.5217C275.785 77.5829 275.856 88.2905 280.117 93.0646C281.456 94.563 283.099 95.3398 285.003 95.3759C286.88 95.4168 288.496 94.7049 289.812 93.2763C294.069 88.6585 294.132 77.8306 294.098 75.5843C293.005 75.7526 289.937 76.01 287.553 74.1532C286.285 73.1647 285.419 71.7337 284.967 69.889C284.778 70.4638 284.496 71.1132 284.071 71.7626C282.094 74.781 278.556 75.4881 275.812 75.5217Z" fill="black"/>
<path d="M282.211 66.2387C281.592 65.104 282.367 63.6855 283.608 63.6855H286.395C287.633 63.6904 288.406 65.1112 287.785 66.2435L287.088 67.5177L286.39 68.7919C285.77 69.9266 284.22 69.9242 283.601 68.7895L282.906 67.5129L282.211 66.2363V66.2387Z" fill="#DB5632"/>
<path d="M284.994 70.0068H284.992C284.287 70.0068 283.656 69.6197 283.303 68.973L281.912 66.4198C281.56 65.7731 281.562 65.0014 281.915 64.3571C282.267 63.7128 282.899 63.3281 283.603 63.3281H286.392C287.096 63.3329 287.728 63.72 288.08 64.3643C288.433 65.011 288.43 65.7827 288.078 66.427L286.683 68.9778C286.331 69.6221 285.699 70.0068 284.994 70.0068ZM283.603 64.047C283.144 64.047 282.735 64.297 282.506 64.7177C282.276 65.1384 282.276 65.6385 282.506 66.0592L283.897 68.6124C284.126 69.0331 284.535 69.2831 284.994 69.2855C285.453 69.2855 285.862 69.0355 286.092 68.6148L287.487 66.064C287.717 65.6433 287.717 65.1432 287.487 64.7225C287.258 64.3018 286.849 64.0518 286.39 64.0494H283.603V64.047Z" fill="black"/>
<path d="M276.867 86.9919C276.867 86.9919 278.983 84.0709 284.921 84.0012C290.86 83.9315 293.044 86.9919 293.044 86.9919C293.044 86.9919 291.542 95.6131 284.955 95.9617C278.369 96.3103 276.867 86.9919 276.867 86.9919Z" fill="black"/>
<path d="M284.601 96.3328C278.103 96.3328 276.546 87.1491 276.533 87.0529C276.517 86.9544 276.54 86.8534 276.599 86.7741C276.69 86.6491 278.885 83.7136 284.919 83.6439C290.951 83.5694 293.223 86.6467 293.316 86.7765C293.373 86.8582 293.396 86.9592 293.38 87.0602C293.364 87.1491 291.751 95.9674 284.973 96.3232C284.848 96.3304 284.723 96.3328 284.601 96.3328ZM277.235 87.0962C277.476 88.3175 279.208 95.9049 284.939 95.602C290.682 95.2991 292.426 88.267 292.676 87.0914C292.471 86.8558 291.939 86.3053 291.005 85.7643C289.869 85.1056 287.889 84.3243 284.926 84.3627C279.896 84.4204 277.699 86.5673 277.235 87.0962Z" fill="black"/>
<path d="M281.065 74C281.065 74 279.374 74.8487 278.195 74.9977C277.015 75.1468 280.126 79.4165 280.804 79.5174C281.481 79.6184 281.065 74.0024 281.065 74.0024V74Z" fill="#F2F0DC"/>
<path d="M280.821 79.8783C280.799 79.8783 280.778 79.8783 280.756 79.8735C280.212 79.7941 279.262 78.532 278.878 77.991C278.49 77.4453 277.587 76.0918 277.597 75.3201C277.601 74.9426 277.812 74.6806 278.153 74.6373C279.267 74.4955 280.903 73.6805 280.919 73.6708L281.367 73.4473L281.405 73.969C281.546 75.885 281.703 79.1835 281.149 79.734C281.055 79.8254 280.942 79.8759 280.821 79.8759V79.8783ZM278.276 75.3489C278.283 75.5677 278.517 76.2433 279.296 77.3756C279.894 78.2459 280.451 78.8541 280.728 79.0753C280.894 78.455 280.878 76.426 280.76 74.5387C280.171 74.8032 279.121 75.2335 278.276 75.3513V75.3489Z" fill="black"/>
<path d="M288.283 74.3789C288.283 74.3789 289.921 75.0689 291.04 75.2252C292.158 75.3814 289.233 79.6295 288.592 79.7257C287.951 79.8218 288.281 74.3789 288.281 74.3789H288.283Z" fill="#F2F0DC"/>
<path d="M288.578 80.0884C288.462 80.0884 288.351 80.0404 288.26 79.9514C288.028 79.7254 287.68 78.6965 287.944 74.3546L287.973 73.8594L288.41 74.0421C288.426 74.0493 290.023 74.7176 291.087 74.8667C291.419 74.9124 291.626 75.1792 291.628 75.5591C291.632 76.6626 289.457 79.961 288.644 80.0812C288.621 80.0836 288.601 80.086 288.578 80.086V80.0884ZM288.598 74.8907C288.507 76.7155 288.517 78.6772 288.678 79.2879C289.319 78.7662 290.998 76.2202 290.953 75.5783C290.16 75.4581 289.162 75.1071 288.598 74.8907Z" fill="black"/>
<path d="M282.454 95.5834C282.322 95.6627 280.86 94.8285 280.422 94.3116C279.947 93.7539 281.808 91.619 282.247 91.5421C282.685 91.4651 282.454 95.5834 282.454 95.5834Z" fill="#F2F0DC"/>
<path d="M282.456 95.8184C281.965 95.8184 280.567 94.8424 280.251 94.4721C280.097 94.2894 280.074 94.0298 280.185 93.6956C280.478 92.8061 281.744 91.3877 282.208 91.3035C282.299 91.2867 282.39 91.3155 282.462 91.3853C282.837 91.7411 282.758 94.1764 282.678 95.5973L282.672 95.7271L282.565 95.792C282.537 95.8088 282.499 95.816 282.456 95.816V95.8184ZM282.187 91.8276C281.81 92.08 280.81 93.1811 280.601 93.8927C280.558 94.0418 280.567 94.1259 280.59 94.15C280.915 94.5322 281.817 95.0804 282.242 95.2751C282.312 93.8375 282.308 92.2724 282.187 91.8252V91.8276Z" fill="black"/>
<path d="M287.458 95.4174C287.59 95.4967 289.051 94.6625 289.49 94.1456C289.965 93.5879 288.104 91.453 287.665 91.3761C287.226 91.2991 287.458 95.4174 287.458 95.4174Z" fill="#F2F0DC"/>
<path d="M287.453 95.6511C287.41 95.6511 287.371 95.6439 287.344 95.6271L287.237 95.5621L287.23 95.4323C287.151 94.0115 287.071 91.5761 287.446 91.2203C287.519 91.1506 287.61 91.1241 287.701 91.1386C288.164 91.2227 289.433 92.6411 289.723 93.5307C289.833 93.8648 289.812 94.1269 289.658 94.3072C289.344 94.6774 287.946 95.6535 287.453 95.6535V95.6511ZM287.721 91.6627C287.601 92.1098 287.599 93.6749 287.667 95.1102C288.092 94.9154 288.994 94.3673 289.319 93.985C289.342 93.9586 289.351 93.8769 289.308 93.7278C289.099 93.0162 288.103 91.9175 287.721 91.6627Z" fill="black"/>
<path d="M100.547 179V170.312C100.547 169.352 100.315 168.672 99.851 168.272C99.403 167.856 98.667 167.648 97.643 167.648C96.827 167.648 96.043 167.76 95.291 167.984C94.555 168.208 93.867 168.504 93.227 168.872V166.592C93.691 166.352 94.323 166.128 95.123 165.92C95.939 165.696 96.859 165.584 97.883 165.584C98.731 165.584 99.467 165.688 100.091 165.896C100.715 166.088 101.171 166.448 101.459 166.976C102.067 167.232 102.491 167.64 102.731 168.2C102.971 168.76 103.091 169.448 103.091 170.264V179H100.547ZM96.467 179.24C95.075 179.24 94.003 178.92 93.251 178.28C92.515 177.624 92.147 176.688 92.147 175.472C92.147 174.16 92.619 173.136 93.563 172.4C94.523 171.664 96.067 171.232 98.195 171.104L101.027 170.912V172.928L98.507 173.12C97.083 173.232 96.091 173.472 95.531 173.84C94.987 174.208 94.715 174.728 94.715 175.4C94.715 176.056 94.923 176.536 95.339 176.84C95.755 177.144 96.323 177.296 97.043 177.296C97.299 177.296 97.531 177.28 97.739 177.248C97.963 177.2 98.171 177.152 98.363 177.104L98.675 178.904C98.371 179.016 98.027 179.096 97.643 179.144C97.275 179.208 96.883 179.24 96.467 179.24ZM101.387 167.912L99.971 166.64C100.435 166.544 100.843 166.36 101.195 166.088C101.547 165.816 101.723 165.448 101.723 164.984H104.123C104.123 165.48 104.011 165.928 103.787 166.328C103.563 166.728 103.243 167.064 102.827 167.336C102.427 167.592 101.947 167.784 101.387 167.912ZM110.508 179V169.856C110.508 169.104 110.332 168.552 109.98 168.2C109.644 167.848 109.068 167.672 108.252 167.672C107.692 167.672 107.164 167.752 106.668 167.912C106.188 168.056 105.732 168.256 105.3 168.512V166.304C105.636 166.144 106.1 165.984 106.692 165.824C107.3 165.664 108.02 165.584 108.852 165.584C109.7 165.584 110.436 165.712 111.06 165.968C111.7 166.208 112.196 166.608 112.548 167.168C112.9 167.728 113.076 168.488 113.076 169.448V179H110.508ZM123.565 179.24C122.509 179.24 121.613 179.032 120.877 178.616C120.157 178.2 119.661 177.632 119.389 176.912H119.245L119.053 179H117.013V165.848H119.581V173.072C119.581 173.904 119.709 174.616 119.965 175.208C120.221 175.8 120.597 176.256 121.093 176.576C121.589 176.896 122.189 177.056 122.893 177.056C123.757 177.056 124.405 176.824 124.837 176.36C125.269 175.88 125.485 175.176 125.485 174.248V165.848H128.053V174.584C128.053 175.624 127.877 176.488 127.525 177.176C127.173 177.864 126.661 178.384 125.989 178.736C125.317 179.072 124.509 179.24 123.565 179.24ZM135.422 179V169.856C135.422 169.104 135.246 168.552 134.894 168.2C134.558 167.848 133.982 167.672 133.166 167.672C132.606 167.672 132.078 167.752 131.582 167.912C131.102 168.056 130.646 168.256 130.214 168.512V166.304C130.55 166.144 131.014 165.984 131.606 165.824C132.214 165.664 132.934 165.584 133.766 165.584C134.614 165.584 135.35 165.712 135.974 165.968C136.614 166.208 137.11 166.608 137.462 167.168C137.814 167.728 137.99 168.488 137.99 169.448V179H135.422ZM145.671 179.264C144.727 179.264 143.823 179.168 142.959 178.976C142.111 178.784 141.383 178.544 140.775 178.256L141.519 176.192C141.855 176.336 142.239 176.488 142.671 176.648C143.103 176.792 143.575 176.92 144.087 177.032C144.599 177.128 145.119 177.176 145.647 177.176C146.447 177.176 147.087 177.04 147.567 176.768C148.063 176.48 148.311 176.064 148.311 175.52C148.311 175.184 148.207 174.896 147.999 174.656C147.791 174.4 147.479 174.176 147.063 173.984C146.647 173.776 146.127 173.568 145.503 173.36C144.543 173.04 143.727 172.704 143.055 172.352C142.383 171.984 141.871 171.552 141.519 171.056C141.167 170.544 140.991 169.912 140.991 169.16C140.991 168.424 141.183 167.792 141.567 167.264C141.967 166.736 142.551 166.328 143.319 166.04C144.103 165.736 145.071 165.584 146.223 165.584C147.023 165.584 147.767 165.656 148.455 165.8C149.159 165.928 149.703 166.112 150.087 166.352V168.464C149.815 168.336 149.471 168.208 149.055 168.08C148.639 167.952 148.183 167.848 147.687 167.768C147.207 167.688 146.719 167.648 146.223 167.648C145.263 167.648 144.575 167.792 144.159 168.08C143.759 168.352 143.559 168.68 143.559 169.064C143.559 169.384 143.663 169.656 143.871 169.88C144.079 170.104 144.423 170.32 144.903 170.528C145.383 170.72 146.007 170.952 146.775 171.224C147.559 171.496 148.263 171.8 148.887 172.136C149.511 172.472 149.999 172.896 150.351 173.408C150.703 173.92 150.879 174.56 150.879 175.328C150.879 176.016 150.711 176.664 150.375 177.272C150.055 177.864 149.511 178.344 148.743 178.712C147.991 179.08 146.967 179.264 145.671 179.264ZM156.545 179.24C156.017 179.24 155.537 179.16 155.105 179C154.673 178.824 154.321 178.544 154.049 178.16C153.793 177.76 153.665 177.224 153.665 176.552V174.488C153.665 173.512 153.873 172.8 154.289 172.352C154.721 171.888 155.289 171.56 155.993 171.368L156.017 171.272L153.305 170.288V169.544C153.305 168.856 153.521 168.208 153.953 167.6C154.401 166.992 155.041 166.504 155.873 166.136C156.705 165.768 157.713 165.584 158.897 165.584C159.969 165.584 160.929 165.752 161.777 166.088C162.625 166.408 163.297 166.912 163.793 167.6C164.289 168.288 164.537 169.184 164.537 170.288V179H161.969V170.504C161.969 169.512 161.673 168.8 161.081 168.368C160.505 167.92 159.769 167.696 158.873 167.696C157.945 167.696 157.225 167.888 156.713 168.272C156.201 168.64 155.937 169.112 155.921 169.688L158.465 170.888L158.273 172.136C157.681 172.152 157.185 172.296 156.785 172.568C156.401 172.84 156.209 173.368 156.209 174.152V176.264C156.209 176.616 156.289 176.872 156.449 177.032C156.609 177.192 156.865 177.272 157.217 177.272C157.361 177.272 157.505 177.264 157.649 177.248C157.809 177.216 157.953 177.176 158.081 177.128L158.393 178.856C158.089 179 157.777 179.096 157.457 179.144C157.153 179.208 156.849 179.24 156.545 179.24ZM171.482 179.24C170.954 179.24 170.474 179.16 170.042 179C169.626 178.824 169.29 178.544 169.034 178.16C168.778 177.76 168.65 177.224 168.65 176.552V165.848H171.218V176.24C171.218 176.592 171.29 176.848 171.434 177.008C171.594 177.152 171.842 177.224 172.178 177.224C172.306 177.224 172.45 177.208 172.61 177.176C172.77 177.144 172.922 177.104 173.066 177.056L173.354 178.856C173.05 179 172.738 179.096 172.418 179.144C172.114 179.208 171.802 179.24 171.482 179.24ZM183.141 179V170.312C183.141 169.352 182.909 168.672 182.445 168.272C181.997 167.856 181.261 167.648 180.237 167.648C179.421 167.648 178.637 167.76 177.885 167.984C177.149 168.208 176.461 168.504 175.821 168.872V166.592C176.285 166.352 176.917 166.128 177.717 165.92C178.533 165.696 179.461 165.584 180.501 165.584C181.333 165.584 182.069 165.68 182.709 165.872C183.349 166.048 183.885 166.32 184.317 166.688C184.765 167.056 185.101 167.536 185.325 168.128C185.565 168.72 185.685 169.432 185.685 170.264V179H183.141ZM179.061 179.24C177.669 179.24 176.597 178.92 175.845 178.28C175.109 177.624 174.741 176.688 174.741 175.472C174.741 174.16 175.213 173.136 176.157 172.4C177.117 171.664 178.661 171.232 180.789 171.104L183.621 170.912V172.928L181.101 173.12C179.677 173.232 178.685 173.472 178.125 173.84C177.581 174.208 177.309 174.728 177.309 175.4C177.309 176.056 177.517 176.536 177.933 176.84C178.349 177.144 178.917 177.296 179.637 177.296C179.893 177.296 180.125 177.28 180.333 177.248C180.557 177.2 180.765 177.152 180.957 177.104L181.269 178.904C180.965 179.016 180.621 179.096 180.237 179.144C179.869 179.208 179.477 179.24 179.061 179.24ZM174.938 163.832V162.728L176.882 161.888H185.354V163.832H174.938ZM179.906 162.752V160.04H181.826V162.752H179.906ZM183.458 162.752V160.04H185.354V162.752H183.458ZM194.231 179.264C192.439 179.264 191.095 178.808 190.199 177.896C189.319 176.968 188.879 175.544 188.879 173.624C188.879 173.304 188.887 172.944 188.903 172.544C188.935 172.144 188.975 171.768 189.023 171.416H194.279V173.264H191.447V173.696C191.447 174.592 191.543 175.304 191.735 175.832C191.943 176.36 192.247 176.728 192.647 176.936C193.063 177.144 193.575 177.248 194.183 177.248C194.855 177.248 195.431 177.12 195.911 176.864C196.391 176.608 196.759 176.144 197.015 175.472C197.287 174.784 197.423 173.816 197.423 172.568C197.423 171.448 197.303 170.536 197.063 169.832C196.823 169.112 196.415 168.576 195.839 168.224C195.279 167.872 194.527 167.696 193.583 167.696C193.071 167.696 192.567 167.744 192.071 167.84C191.591 167.92 191.127 168.048 190.679 168.224C190.231 168.384 189.799 168.584 189.383 168.824V166.52C189.719 166.344 190.127 166.192 190.607 166.064C191.087 165.92 191.615 165.808 192.191 165.728C192.767 165.632 193.359 165.584 193.967 165.584C195.407 165.584 196.575 165.872 197.471 166.448C198.367 167.008 199.023 167.808 199.439 168.848C199.855 169.872 200.063 171.096 200.063 172.52C200.063 173.944 199.871 175.16 199.487 176.168C199.103 177.176 198.479 177.944 197.615 178.472C196.767 179 195.639 179.264 194.231 179.264ZM203.209 179V174.608C203.209 173.6 203.425 172.856 203.857 172.376C204.289 171.896 204.857 171.56 205.561 171.368L205.585 171.272L202.969 170.288V169.544C202.969 168.856 203.185 168.208 203.617 167.6C204.065 166.992 204.705 166.504 205.537 166.136C206.369 165.768 207.377 165.584 208.561 165.584C209.601 165.584 210.545 165.752 211.393 166.088C212.241 166.408 212.913 166.912 213.409 167.6C213.905 168.288 214.153 169.184 214.153 170.288V179H211.585V170.504C211.585 169.512 211.297 168.8 210.721 168.368C210.145 167.92 209.409 167.696 208.513 167.696C207.601 167.696 206.889 167.888 206.377 168.272C205.865 168.64 205.601 169.112 205.585 169.688L208.057 170.888L207.841 172.16C207.249 172.176 206.753 172.376 206.353 172.76C205.969 173.144 205.777 173.736 205.777 174.536V179H203.209ZM222.851 179.264C221.251 179.264 220.027 178.88 219.179 178.112C218.347 177.344 217.931 176.224 217.931 174.752V173.456C217.931 172.576 218.083 171.872 218.387 171.344C218.691 170.816 219.051 170.304 219.467 169.808C219.691 169.568 219.899 169.336 220.091 169.112C220.283 168.888 220.387 168.656 220.403 168.416L220.331 168.368C220.155 168.496 219.955 168.6 219.731 168.68C219.523 168.744 219.291 168.776 219.035 168.776C218.459 168.776 217.987 168.576 217.619 168.176C217.251 167.776 217.067 167.2 217.067 166.448V165.848H219.131C219.131 166.312 219.187 166.656 219.299 166.88C219.427 167.088 219.619 167.192 219.875 167.192C220.035 167.192 220.203 167.16 220.379 167.096C220.571 167.032 220.747 166.936 220.907 166.808L221.339 165.848H222.683V167.072C222.683 167.552 222.667 167.968 222.635 168.32C222.603 168.672 222.515 169.008 222.371 169.328C222.243 169.632 222.027 169.984 221.723 170.384C221.499 170.688 221.291 170.968 221.099 171.224C220.907 171.464 220.755 171.736 220.643 172.04C220.547 172.328 220.499 172.712 220.499 173.192V174.584C220.499 175.272 220.603 175.808 220.811 176.192C221.035 176.576 221.323 176.84 221.675 176.984C222.043 177.128 222.435 177.2 222.851 177.2C223.651 177.2 224.251 177.016 224.651 176.648C225.067 176.264 225.275 175.704 225.275 174.968V171.896C225.275 171.336 225.147 170.904 224.891 170.6C224.635 170.296 224.219 170.144 223.643 170.144H223.571V168.632H223.667C224.275 168.632 224.707 168.488 224.963 168.2C225.219 167.896 225.379 167.528 225.443 167.096C225.507 166.664 225.539 166.248 225.539 165.848H228.083C228.083 166.728 227.963 167.464 227.723 168.056C227.499 168.648 227.043 169.08 226.355 169.352V169.448C226.947 169.624 227.339 169.936 227.531 170.384C227.739 170.832 227.843 171.392 227.843 172.064V175.064C227.843 176.392 227.411 177.424 226.547 178.16C225.699 178.896 224.467 179.264 222.851 179.264ZM217.852 163.832V162.728L219.796 161.888H228.268V163.832H217.852ZM222.82 162.752V160.04H224.74V162.752H222.82ZM226.372 162.752V160.04H228.268V162.752H226.372ZM222.615 158.672V157.784C222.807 157.736 223.023 157.664 223.263 157.568C223.503 157.472 223.711 157.344 223.887 157.184C224.063 157.024 224.151 156.824 224.151 156.584C224.151 156.408 224.103 156.272 224.007 156.176C223.911 156.08 223.775 156.032 223.599 156.032C223.471 156.032 223.343 156.056 223.215 156.104C223.071 156.136 222.943 156.192 222.831 156.272L222.399 155.096C222.687 154.888 223.023 154.752 223.407 154.688C223.791 154.624 224.095 154.592 224.319 154.592C224.799 154.592 225.215 154.704 225.567 154.928C225.903 155.152 226.071 155.528 226.071 156.056C226.071 156.264 226.031 156.504 225.951 156.776C225.855 157.032 225.655 157.24 225.351 157.4L225.207 156.944H228.831V158.672H222.615ZM236.419 179.264C234.627 179.264 233.283 178.808 232.387 177.896C231.507 176.968 231.067 175.544 231.067 173.624C231.067 173.304 231.075 172.944 231.091 172.544C231.123 172.144 231.163 171.768 231.211 171.416H236.467V173.264H233.635V173.696C233.635 174.592 233.731 175.304 233.923 175.832C234.131 176.36 234.435 176.728 234.835 176.936C235.251 177.144 235.763 177.248 236.371 177.248C237.043 177.248 237.619 177.12 238.099 176.864C238.579 176.608 238.947 176.144 239.203 175.472C239.475 174.784 239.611 173.816 239.611 172.568C239.611 171.448 239.491 170.536 239.251 169.832C239.011 169.112 238.603 168.576 238.027 168.224C237.467 167.872 236.715 167.696 235.771 167.696C235.259 167.696 234.755 167.744 234.259 167.84C233.779 167.92 233.315 168.048 232.867 168.224C232.419 168.384 231.987 168.584 231.571 168.824V166.52C231.907 166.344 232.315 166.192 232.795 166.064C233.275 165.92 233.803 165.808 234.379 165.728C234.955 165.632 235.547 165.584 236.155 165.584C237.595 165.584 238.763 165.872 239.659 166.448C240.555 167.008 241.211 167.808 241.627 168.848C242.043 169.872 242.251 171.096 242.251 172.52C242.251 173.944 242.059 175.16 241.675 176.168C241.291 177.176 240.667 177.944 239.803 178.472C238.955 179 237.827 179.264 236.419 179.264ZM252.495 168.248V164.192C252.495 163.584 252.551 163.096 252.663 162.728C252.775 162.344 252.927 162.032 253.119 161.792C253.311 161.552 253.511 161.352 253.719 161.192L253.695 161.096H249.663L250.239 159.152H257.271V161.096C256.679 161.096 256.159 161.288 255.711 161.672C255.279 162.056 255.063 162.76 255.063 163.784V168.248H252.495ZM255.303 179.24C254.791 179.24 254.319 179.16 253.887 179C253.471 178.824 253.135 178.544 252.879 178.16C252.623 177.76 252.495 177.224 252.495 176.552V165.848H255.063V176.24C255.063 176.592 255.135 176.848 255.279 177.008C255.439 177.152 255.679 177.224 255.999 177.224C256.143 177.224 256.295 177.208 256.455 177.176C256.615 177.144 256.759 177.104 256.887 177.056L257.199 178.856C256.895 179 256.583 179.096 256.263 179.144C255.943 179.208 255.623 179.24 255.303 179.24ZM263.694 179.24C262.398 179.24 261.382 178.944 260.646 178.352C259.91 177.76 259.382 176.96 259.062 175.952C258.758 174.928 258.606 173.792 258.606 172.544C258.606 171.168 258.75 170.032 259.038 169.136C259.342 168.24 259.758 167.536 260.286 167.024C260.83 166.496 261.47 166.128 262.206 165.92C262.958 165.696 263.782 165.584 264.678 165.584C266.006 165.584 267.078 165.776 267.894 166.16C268.726 166.544 269.334 167.088 269.718 167.792C270.118 168.496 270.318 169.328 270.318 170.288V179H267.75V170.528C267.75 169.6 267.518 168.896 267.054 168.416C266.606 167.936 265.83 167.696 264.726 167.696C264.054 167.696 263.446 167.824 262.902 168.08C262.374 168.336 261.958 168.816 261.654 169.52C261.35 170.208 261.198 171.216 261.198 172.544C261.198 173.424 261.286 174.216 261.462 174.92C261.638 175.608 261.934 176.152 262.35 176.552C262.782 176.936 263.374 177.128 264.126 177.128C264.334 177.128 264.534 177.12 264.726 177.104C264.934 177.072 265.126 177.024 265.302 176.96L265.542 178.928C265.286 179.04 264.99 179.12 264.654 179.168C264.318 179.216 263.998 179.24 263.694 179.24ZM263.17 163.856V162.752C263.458 162.688 263.762 162.6 264.082 162.488C264.402 162.36 264.674 162.2 264.898 162.008C265.106 161.8 265.21 161.552 265.21 161.264C265.21 161.072 265.154 160.912 265.042 160.784C264.914 160.64 264.73 160.568 264.49 160.568C264.346 160.568 264.194 160.6 264.034 160.664C263.874 160.712 263.73 160.76 263.602 160.808L263.122 159.416C263.442 159.16 263.81 158.992 264.226 158.912C264.642 158.816 264.986 158.768 265.258 158.768C265.914 158.768 266.434 158.944 266.818 159.296C267.186 159.648 267.37 160.112 267.37 160.688C267.37 161.104 267.266 161.472 267.058 161.792C266.834 162.112 266.554 162.368 266.218 162.56L266.026 161.984H270.73V163.856H263.17ZM277.232 179.24C276.704 179.24 276.224 179.16 275.792 179C275.376 178.824 275.04 178.544 274.784 178.16C274.528 177.76 274.4 177.224 274.4 176.552V165.848H276.968V176.24C276.968 176.592 277.04 176.848 277.184 177.008C277.344 177.152 277.592 177.224 277.928 177.224C278.056 177.224 278.2 177.208 278.36 177.176C278.52 177.144 278.672 177.104 278.816 177.056L279.104 178.856C278.8 179 278.488 179.096 278.168 179.144C277.864 179.208 277.552 179.24 277.232 179.24ZM282.44 179L280.088 165.848H282.656L283.52 171.248C283.584 171.68 283.656 172.256 283.736 172.976C283.816 173.696 283.904 174.536 284 175.496H284.072C284.216 174.84 284.352 174.248 284.48 173.72C284.608 173.192 284.728 172.72 284.84 172.304C284.952 171.872 285.056 171.496 285.152 171.176L286.664 165.848H288.56L290.096 171.176C290.176 171.496 290.272 171.872 290.384 172.304C290.512 172.72 290.64 173.192 290.768 173.72C290.896 174.248 291.032 174.84 291.176 175.496H291.248C291.344 174.536 291.424 173.696 291.488 172.976C291.568 172.256 291.648 171.68 291.728 171.248L292.592 165.848H295.16L292.832 179H290.312L288.32 172.376C288.192 171.912 288.072 171.456 287.96 171.008C287.864 170.544 287.776 169.984 287.696 169.328H287.6C287.536 169.76 287.464 170.152 287.384 170.504C287.32 170.84 287.248 171.16 287.168 171.464C287.088 171.768 287 172.072 286.904 172.376L284.912 179H282.44ZM283.711 163.832V162.728L285.655 161.888H294.151V163.832H283.711ZM291.847 162.752V160.04H294.175V162.752H291.847ZM303.154 179.24C301.81 179.24 300.738 179.072 299.938 178.736C299.138 178.4 298.554 177.928 298.186 177.32C297.834 176.696 297.658 175.976 297.658 175.16C297.658 174.424 297.762 173.84 297.97 173.408C298.194 172.96 298.474 172.632 298.81 172.424C299.146 172.216 299.49 172.072 299.842 171.992V171.896C299.506 171.784 299.162 171.616 298.81 171.392C298.474 171.168 298.186 170.864 297.946 170.48C297.722 170.08 297.61 169.576 297.61 168.968C297.61 168.408 297.738 167.88 297.994 167.384C298.266 166.872 298.698 166.456 299.29 166.136C299.882 165.816 300.658 165.656 301.618 165.656C302.034 165.656 302.458 165.688 302.89 165.752C303.322 165.816 303.658 165.912 303.898 166.04L303.466 167.912C303.306 167.864 303.09 167.816 302.818 167.768C302.562 167.72 302.29 167.696 302.002 167.696C301.394 167.696 300.938 167.84 300.634 168.128C300.346 168.416 300.202 168.792 300.202 169.256C300.202 169.768 300.33 170.16 300.586 170.432C300.842 170.688 301.17 170.864 301.57 170.96C301.986 171.056 302.41 171.104 302.842 171.104H303.322V172.856H302.842C301.962 172.856 301.314 173.016 300.898 173.336C300.482 173.64 300.274 174.16 300.274 174.896C300.274 175.296 300.354 175.68 300.514 176.048C300.69 176.4 300.986 176.68 301.402 176.888C301.818 177.096 302.41 177.2 303.178 177.2C303.93 177.2 304.514 177.096 304.93 176.888C305.346 176.68 305.642 176.384 305.818 176C306.01 175.616 306.106 175.16 306.106 174.632V165.848H308.674V174.488C308.674 176.152 308.226 177.36 307.33 178.112C306.434 178.864 305.042 179.24 303.154 179.24ZM314.568 179L310.536 165.848H313.128L316.512 176.84H316.752C317.088 176.84 317.416 176.752 317.736 176.576C318.072 176.4 318.352 176.176 318.576 175.904C319.008 175.408 319.328 174.784 319.536 174.032C319.744 173.28 319.848 172.536 319.848 171.8C319.848 170.552 319.576 169.576 319.032 168.872C318.488 168.168 317.736 167.816 316.776 167.816C316.584 167.816 316.4 167.832 316.224 167.864C316.048 167.88 315.904 167.912 315.792 167.96L315.216 165.944C315.568 165.848 315.896 165.784 316.2 165.752C316.504 165.72 316.768 165.704 316.992 165.704C317.808 165.704 318.528 165.824 319.152 166.064C319.792 166.288 320.336 166.624 320.784 167.072C321.344 167.616 321.76 168.296 322.032 169.112C322.304 169.928 322.44 170.832 322.44 171.824C322.44 173.088 322.24 174.208 321.84 175.184C321.456 176.144 320.976 176.912 320.4 177.488C319.92 177.952 319.336 178.32 318.648 178.592C317.96 178.864 317.064 179 315.96 179H314.568ZM333.141 179V170.312C333.141 169.352 332.909 168.672 332.445 168.272C331.997 167.856 331.261 167.648 330.237 167.648C329.421 167.648 328.637 167.76 327.885 167.984C327.149 168.208 326.461 168.504 325.821 168.872V166.592C326.285 166.352 326.917 166.128 327.717 165.92C328.533 165.696 329.453 165.584 330.477 165.584C331.325 165.584 332.061 165.688 332.685 165.896C333.309 166.088 333.765 166.448 334.053 166.976C334.661 167.232 335.085 167.64 335.325 168.2C335.565 168.76 335.685 169.448 335.685 170.264V179H333.141ZM329.061 179.24C327.669 179.24 326.597 178.92 325.845 178.28C325.109 177.624 324.741 176.688 324.741 175.472C324.741 174.16 325.213 173.136 326.157 172.4C327.117 171.664 328.661 171.232 330.789 171.104L333.621 170.912V172.928L331.101 173.12C329.677 173.232 328.685 173.472 328.125 173.84C327.581 174.208 327.309 174.728 327.309 175.4C327.309 176.056 327.517 176.536 327.933 176.84C328.349 177.144 328.917 177.296 329.637 177.296C329.893 177.296 330.125 177.28 330.333 177.248C330.557 177.2 330.765 177.152 330.957 177.104L331.269 178.904C330.965 179.016 330.621 179.096 330.237 179.144C329.869 179.208 329.477 179.24 329.061 179.24ZM333.981 167.912L332.565 166.64C333.029 166.544 333.437 166.36 333.789 166.088C334.141 165.816 334.317 165.448 334.317 164.984H336.717C336.717 165.48 336.605 165.928 336.381 166.328C336.157 166.728 335.837 167.064 335.421 167.336C335.021 167.592 334.541 167.784 333.981 167.912ZM333.426 185.264V182.84C333.426 182.44 333.25 182.24 332.898 182.24C332.818 182.24 332.738 182.248 332.658 182.264C332.562 182.28 332.474 182.304 332.394 182.336L332.226 180.8C332.466 180.72 332.746 180.656 333.066 180.608C333.37 180.56 333.642 180.536 333.882 180.536C334.506 180.536 334.962 180.672 335.25 180.944C335.522 181.232 335.658 181.616 335.658 182.096V185.264H333.426ZM343.39 179.264C342.446 179.264 341.542 179.168 340.678 178.976C339.83 178.784 339.102 178.544 338.494 178.256L339.238 176.192C339.574 176.336 339.958 176.488 340.39 176.648C340.822 176.792 341.294 176.92 341.806 177.032C342.318 177.128 342.838 177.176 343.366 177.176C344.166 177.176 344.806 177.04 345.286 176.768C345.782 176.48 346.03 176.064 346.03 175.52C346.03 175.184 345.926 174.896 345.718 174.656C345.51 174.4 345.198 174.176 344.782 173.984C344.366 173.776 343.846 173.568 343.222 173.36C342.262 173.04 341.446 172.704 340.774 172.352C340.102 171.984 339.59 171.552 339.238 171.056C338.886 170.544 338.71 169.912 338.71 169.16C338.71 168.424 338.902 167.792 339.286 167.264C339.686 166.736 340.27 166.328 341.038 166.04C341.822 165.736 342.79 165.584 343.942 165.584C344.742 165.584 345.486 165.656 346.174 165.8C346.878 165.928 347.422 166.112 347.806 166.352V168.464C347.534 168.336 347.19 168.208 346.774 168.08C346.358 167.952 345.902 167.848 345.406 167.768C344.926 167.688 344.438 167.648 343.942 167.648C342.982 167.648 342.294 167.792 341.878 168.08C341.478 168.352 341.278 168.68 341.278 169.064C341.278 169.384 341.382 169.656 341.59 169.88C341.798 170.104 342.142 170.32 342.622 170.528C343.102 170.72 343.726 170.952 344.494 171.224C345.278 171.496 345.982 171.8 346.606 172.136C347.23 172.472 347.718 172.896 348.07 173.408C348.422 173.92 348.598 174.56 348.598 175.328C348.598 176.016 348.43 176.664 348.094 177.272C347.774 177.864 347.23 178.344 346.462 178.712C345.71 179.08 344.686 179.264 343.39 179.264ZM355.032 179V169.856C355.032 169.104 354.856 168.552 354.504 168.2C354.168 167.848 353.592 167.672 352.776 167.672C352.216 167.672 351.688 167.752 351.192 167.912C350.712 168.056 350.256 168.256 349.824 168.512V166.304C350.16 166.144 350.624 165.984 351.216 165.824C351.824 165.664 352.544 165.584 353.376 165.584C354.224 165.584 354.96 165.712 355.584 165.968C356.224 166.208 356.72 166.608 357.072 167.168C357.424 167.728 357.6 168.488 357.6 169.448V179H355.032ZM364.537 179.24C364.009 179.24 363.529 179.16 363.097 179C362.681 178.824 362.345 178.544 362.089 178.16C361.833 177.76 361.705 177.224 361.705 176.552V165.848H364.273V176.24C364.273 176.592 364.345 176.848 364.489 177.008C364.649 177.152 364.897 177.224 365.233 177.224C365.361 177.224 365.505 177.208 365.665 177.176C365.825 177.144 365.977 177.104 366.121 177.056L366.409 178.856C366.105 179 365.793 179.096 365.473 179.144C365.169 179.208 364.857 179.24 364.537 179.24ZM371.281 179.24C370.753 179.24 370.273 179.16 369.841 179C369.425 178.824 369.089 178.544 368.833 178.16C368.577 177.76 368.449 177.224 368.449 176.552V165.848H371.017V176.24C371.017 176.592 371.089 176.848 371.233 177.008C371.393 177.152 371.641 177.224 371.977 177.224C372.105 177.224 372.249 177.208 372.409 177.176C372.569 177.144 372.721 177.104 372.865 177.056L373.153 178.856C372.849 179 372.537 179.096 372.217 179.144C371.913 179.208 371.601 179.24 371.281 179.24ZM380.739 179.264C378.787 179.264 377.387 178.816 376.539 177.92C375.691 177.024 375.267 175.744 375.267 174.08V165.848H377.835V174.152C377.835 175.16 378.067 175.912 378.531 176.408C379.011 176.904 379.747 177.152 380.739 177.152C381.731 177.152 382.467 176.904 382.947 176.408C383.427 175.912 383.667 175.16 383.667 174.152V165.848H386.235V174.08C386.235 175.744 385.803 177.024 384.939 177.92C384.091 178.816 382.691 179.264 380.739 179.264ZM393.921 179.264C392.977 179.264 392.073 179.168 391.209 178.976C390.361 178.784 389.633 178.544 389.025 178.256L389.769 176.192C390.105 176.336 390.489 176.488 390.921 176.648C391.353 176.792 391.825 176.92 392.337 177.032C392.849 177.128 393.369 177.176 393.897 177.176C394.697 177.176 395.337 177.04 395.817 176.768C396.313 176.48 396.561 176.064 396.561 175.52C396.561 175.184 396.457 174.896 396.249 174.656C396.041 174.4 395.729 174.176 395.313 173.984C394.897 173.776 394.377 173.568 393.753 173.36C392.793 173.04 391.977 172.704 391.305 172.352C390.633 171.984 390.121 171.552 389.769 171.056C389.417 170.544 389.241 169.912 389.241 169.16C389.241 168.424 389.433 167.792 389.817 167.264C390.217 166.736 390.801 166.328 391.569 166.04C392.353 165.736 393.321 165.584 394.473 165.584C395.273 165.584 396.017 165.656 396.705 165.8C397.409 165.928 397.953 166.112 398.337 166.352V168.464C398.065 168.336 397.721 168.208 397.305 168.08C396.889 167.952 396.433 167.848 395.937 167.768C395.457 167.688 394.969 167.648 394.473 167.648C393.513 167.648 392.825 167.792 392.409 168.08C392.009 168.352 391.809 168.68 391.809 169.064C391.809 169.384 391.913 169.656 392.121 169.88C392.329 170.104 392.673 170.32 393.153 170.528C393.633 170.72 394.257 170.952 395.025 171.224C395.809 171.496 396.513 171.8 397.137 172.136C397.761 172.472 398.249 172.896 398.601 173.408C398.953 173.92 399.129 174.56 399.129 175.328C399.129 176.016 398.961 176.664 398.625 177.272C398.305 177.864 397.761 178.344 396.993 178.712C396.241 179.08 395.217 179.264 393.921 179.264ZM406.427 179.24C405.483 179.24 404.667 179.072 403.979 178.736C403.307 178.384 402.795 177.864 402.443 177.176C402.091 176.472 401.915 175.584 401.915 174.512V165.848H404.483V174.248C404.483 175.176 404.707 175.88 405.155 176.36C405.603 176.824 406.251 177.056 407.099 177.056C408.139 177.056 408.939 176.704 409.499 176C410.075 175.296 410.363 174.32 410.363 173.072V165.848H412.931V179H410.891L410.699 177.032H410.555C410.267 177.672 409.771 178.2 409.067 178.616C408.379 179.032 407.499 179.24 406.427 179.24ZM421.428 179.24C420.132 179.24 419.116 178.944 418.38 178.352C417.644 177.76 417.116 176.96 416.796 175.952C416.492 174.928 416.34 173.792 416.34 172.544C416.34 171.168 416.484 170.032 416.772 169.136C417.076 168.24 417.492 167.536 418.02 167.024C418.564 166.496 419.204 166.128 419.94 165.92C420.692 165.696 421.516 165.584 422.412 165.584C423.74 165.584 424.812 165.776 425.628 166.16C426.46 166.544 427.068 167.088 427.452 167.792C427.852 168.496 428.052 169.328 428.052 170.288V179H425.484V170.528C425.484 169.6 425.252 168.896 424.788 168.416C424.34 167.936 423.564 167.696 422.46 167.696C421.788 167.696 421.18 167.824 420.636 168.08C420.108 168.336 419.692 168.816 419.388 169.52C419.084 170.208 418.932 171.216 418.932 172.544C418.932 173.424 419.02 174.216 419.196 174.92C419.372 175.608 419.668 176.152 420.084 176.552C420.516 176.936 421.108 177.128 421.86 177.128C422.068 177.128 422.268 177.12 422.46 177.104C422.668 177.072 422.86 177.024 423.036 176.96L423.276 178.928C423.02 179.04 422.724 179.12 422.388 179.168C422.052 179.216 421.732 179.24 421.428 179.24ZM423.664 164.48C423.552 164.288 423.464 164.048 423.4 163.76C423.32 163.456 423.28 163.152 423.28 162.848C423.28 162.48 423.352 162.136 423.496 161.816C423.64 161.496 423.912 161.24 424.312 161.048C424.696 160.856 425.224 160.76 425.896 160.76H429.232V162.632H426.64C426.32 162.632 426.072 162.688 425.896 162.8C425.704 162.912 425.608 163.112 425.608 163.4C425.608 163.512 425.632 163.632 425.68 163.76C425.712 163.888 425.76 164.016 425.824 164.144L423.664 164.48ZM440.673 179H438.129V160.76H440.673V179ZM447.212 166.064V179H444.668V166.064H447.212ZM445.964 161.144C446.348 161.144 446.684 161.256 446.972 161.48C447.26 161.704 447.404 162.08 447.404 162.608C447.404 163.12 447.26 163.496 446.972 163.736C446.684 163.96 446.348 164.072 445.964 164.072C445.548 164.072 445.196 163.96 444.908 163.736C444.636 163.496 444.5 163.12 444.5 162.608C444.5 162.08 444.636 161.704 444.908 161.48C445.196 161.256 445.548 161.144 445.964 161.144ZM462.607 172.52C462.607 173.592 462.463 174.544 462.175 175.376C461.887 176.208 461.479 176.912 460.951 177.488C460.423 178.064 459.783 178.504 459.031 178.808C458.279 179.096 457.431 179.24 456.487 179.24C455.623 179.24 454.823 179.096 454.087 178.808C453.351 178.504 452.711 178.064 452.167 177.488C451.639 176.912 451.223 176.208 450.919 175.376C450.615 174.544 450.463 173.584 450.463 172.496C450.463 171.072 450.703 169.864 451.183 168.872C451.679 167.88 452.383 167.128 453.295 166.616C454.223 166.088 455.311 165.824 456.559 165.824C457.743 165.824 458.783 166.088 459.679 166.616C460.591 167.128 461.303 167.88 461.815 168.872C462.343 169.864 462.607 171.08 462.607 172.52ZM453.079 172.52C453.079 173.48 453.199 174.312 453.439 175.016C453.679 175.704 454.055 176.232 454.567 176.6C455.079 176.968 455.735 177.152 456.535 177.152C457.335 177.152 457.991 176.968 458.503 176.6C459.015 176.232 459.391 175.704 459.631 175.016C459.871 174.312 459.991 173.48 459.991 172.52C459.991 171.528 459.863 170.696 459.607 170.024C459.367 169.352 458.991 168.84 458.479 168.488C457.983 168.12 457.327 167.936 456.511 167.936C455.311 167.936 454.439 168.336 453.895 169.136C453.351 169.936 453.079 171.064 453.079 172.52ZM472.384 165.824C473.888 165.824 475.04 166.2 475.84 166.952C476.64 167.704 477.04 168.912 477.04 170.576V179H474.52V170.936C474.52 169.928 474.304 169.176 473.872 168.68C473.456 168.168 472.784 167.912 471.856 167.912C470.544 167.912 469.632 168.304 469.12 169.088C468.624 169.872 468.376 171 468.376 172.472V179H465.832V166.064H467.848L468.208 167.792H468.352C468.64 167.344 468.992 166.976 469.408 166.688C469.824 166.4 470.288 166.184 470.8 166.04C471.312 165.896 471.84 165.824 472.384 165.824ZM98.4859 215.24C97.9579 215.24 97.4779 215.16 97.0459 215C96.6299 214.824 96.2939 214.544 96.0379 214.16C95.7819 213.76 95.6539 213.224 95.6539 212.552V201.848H98.2219V212.24C98.2219 212.592 98.2939 212.848 98.4379 213.008C98.5979 213.152 98.8459 213.224 99.1819 213.224C99.3099 213.224 99.4539 213.208 99.6139 213.176C99.7739 213.144 99.9259 213.104 100.07 213.056L100.358 214.856C100.054 215 99.7419 215.096 99.4219 215.144C99.1179 215.208 98.8059 215.24 98.4859 215.24ZM107.072 215.24C106.128 215.24 105.312 215.072 104.624 214.736C103.952 214.384 103.44 213.864 103.088 213.176C102.736 212.472 102.56 211.584 102.56 210.512V201.848H105.128V210.248C105.128 211.176 105.352 211.88 105.8 212.36C106.248 212.824 106.896 213.056 107.743 213.056C108.784 213.056 109.584 212.704 110.144 212C110.72 211.296 111.008 210.32 111.008 209.072V201.848H113.576V215H111.536L111.344 213.032H111.2C110.912 213.672 110.416 214.2 109.712 214.616C109.024 215.032 108.144 215.24 107.072 215.24ZM103.161 199.832V198.728L105.105 197.888H113.577V199.832H103.161ZM108.129 198.752V196.04H110.049V198.752H108.129ZM111.681 198.752V196.04H113.577V198.752H111.681ZM109.795 194.672V190.592H112.147V194.672H109.795ZM122.337 215.264C120.545 215.264 119.201 214.808 118.305 213.896C117.425 212.968 116.985 211.544 116.985 209.624C116.985 209.304 116.993 208.944 117.009 208.544C117.041 208.144 117.081 207.768 117.129 207.416H122.385V209.264H119.553V209.696C119.553 210.592 119.649 211.304 119.841 211.832C120.049 212.36 120.353 212.728 120.753 212.936C121.169 213.144 121.681 213.248 122.289 213.248C122.961 213.248 123.537 213.12 124.017 212.864C124.497 212.608 124.865 212.144 125.121 211.472C125.393 210.784 125.529 209.816 125.529 208.568C125.529 207.448 125.409 206.536 125.169 205.832C124.929 205.112 124.521 204.576 123.945 204.224C123.385 203.872 122.633 203.696 121.689 203.696C121.177 203.696 120.673 203.744 120.177 203.84C119.697 203.92 119.233 204.048 118.785 204.224C118.337 204.384 117.905 204.584 117.489 204.824V202.52C117.825 202.344 118.233 202.192 118.713 202.064C119.193 201.92 119.721 201.808 120.297 201.728C120.873 201.632 121.465 201.584 122.073 201.584C123.513 201.584 124.681 201.872 125.577 202.448C126.473 203.008 127.129 203.808 127.545 204.848C127.961 205.872 128.169 207.096 128.169 208.52C128.169 209.944 127.977 211.16 127.593 212.168C127.209 213.176 126.585 213.944 125.721 214.472C124.873 215 123.745 215.264 122.337 215.264ZM133.619 215L129.587 201.848H132.179L135.562 212.84H135.803C136.139 212.84 136.467 212.752 136.787 212.576C137.123 212.4 137.403 212.176 137.627 211.904C138.059 211.408 138.379 210.784 138.587 210.032C138.795 209.28 138.899 208.536 138.899 207.8C138.899 206.552 138.627 205.576 138.083 204.872C137.539 204.168 136.787 203.816 135.827 203.816C135.635 203.816 135.451 203.832 135.275 203.864C135.099 203.88 134.955 203.912 134.843 203.96L134.267 201.944C134.619 201.848 134.947 201.784 135.251 201.752C135.555 201.72 135.819 201.704 136.043 201.704C136.859 201.704 137.579 201.824 138.203 202.064C138.843 202.288 139.387 202.624 139.835 203.072C140.395 203.616 140.811 204.296 141.083 205.112C141.355 205.928 141.491 206.832 141.491 207.824C141.491 209.088 141.291 210.208 140.891 211.184C140.507 212.144 140.027 212.912 139.451 213.488C138.971 213.952 138.387 214.32 137.699 214.592C137.011 214.864 136.115 215 135.011 215H133.619ZM146 215V209.24H144.296V207.416H148.376V212.984H148.664C149.32 212.984 149.872 212.832 150.32 212.528C150.768 212.208 151.104 211.712 151.328 211.04C151.552 210.352 151.664 209.464 151.664 208.376C151.664 207.256 151.528 206.352 151.256 205.664C151 204.96 150.584 204.456 150.008 204.152C149.432 203.832 148.68 203.672 147.752 203.672C146.968 203.672 146.232 203.784 145.544 204.008C144.856 204.216 144.208 204.512 143.6 204.896V202.592C144.096 202.32 144.736 202.088 145.52 201.896C146.32 201.688 147.192 201.584 148.136 201.584C149.624 201.584 150.816 201.848 151.712 202.376C152.608 202.904 153.256 203.672 153.656 204.68C154.072 205.688 154.28 206.92 154.28 208.376C154.28 209.784 154.088 210.984 153.704 211.976C153.32 212.952 152.688 213.704 151.808 214.232C150.928 214.744 149.76 215 148.304 215H146ZM161.168 215V205.856C161.168 205.104 160.992 204.552 160.64 204.2C160.304 203.848 159.728 203.672 158.912 203.672C158.352 203.672 157.824 203.752 157.328 203.912C156.848 204.056 156.392 204.256 155.96 204.512V202.304C156.296 202.144 156.76 201.984 157.352 201.824C157.96 201.664 158.68 201.584 159.512 201.584C160.36 201.584 161.096 201.712 161.72 201.968C162.36 202.208 162.856 202.608 163.208 203.168C163.56 203.728 163.736 204.488 163.736 205.448V215H161.168ZM167.361 215V210.608C167.361 209.6 167.577 208.856 168.009 208.376C168.441 207.896 169.009 207.56 169.713 207.368L169.737 207.272L167.121 206.288V205.544C167.121 204.856 167.337 204.208 167.769 203.6C168.217 202.992 168.857 202.504 169.689 202.136C170.521 201.768 171.529 201.584 172.713 201.584C173.753 201.584 174.697 201.752 175.545 202.088C176.393 202.408 177.065 202.912 177.561 203.6C178.057 204.288 178.305 205.184 178.305 206.288V215H175.737V206.504C175.737 205.512 175.449 204.8 174.873 204.368C174.297 203.92 173.561 203.696 172.665 203.696C171.753 203.696 171.041 203.888 170.529 204.272C170.017 204.64 169.753 205.112 169.737 205.688L172.209 206.888L171.993 208.16C171.401 208.176 170.905 208.376 170.505 208.76C170.121 209.144 169.929 209.736 169.929 210.536V215H167.361ZM186.812 215.24C185.452 215.24 184.396 214.936 183.644 214.328C182.892 213.72 182.364 212.888 182.06 211.832C181.772 210.776 181.628 209.56 181.628 208.184C181.628 206.616 181.772 205.352 182.06 204.392C182.364 203.432 182.812 202.728 183.404 202.28C183.996 201.832 184.716 201.608 185.564 201.608C186.124 201.608 186.604 201.712 187.004 201.92C187.404 202.112 187.7 202.448 187.892 202.928H187.988C188.164 202.432 188.468 202.088 188.9 201.896C189.348 201.704 189.86 201.608 190.436 201.608C191.492 201.608 192.3 201.888 192.859 202.448C193.436 203.008 193.724 203.856 193.724 204.992V215H191.156V205.208C191.156 204.632 191.036 204.24 190.796 204.032C190.556 203.824 190.244 203.72 189.86 203.72C189.444 203.72 189.14 203.824 188.948 204.032C188.756 204.24 188.636 204.584 188.588 205.064H187.22C187.156 204.536 186.996 204.184 186.74 204.008C186.5 203.816 186.228 203.72 185.924 203.72C185.364 203.72 184.932 204.064 184.628 204.752C184.34 205.44 184.196 206.592 184.196 208.208C184.196 209.248 184.276 210.144 184.436 210.896C184.596 211.632 184.884 212.2 185.3 212.6C185.732 212.984 186.356 213.176 187.172 213.176C187.444 213.176 187.676 213.16 187.868 213.128C188.076 213.096 188.26 213.056 188.42 213.008L188.684 214.928C188.444 215.04 188.156 215.12 187.82 215.168C187.5 215.216 187.164 215.24 186.812 215.24ZM201.371 215.264C200.427 215.264 199.523 215.168 198.659 214.976C197.811 214.784 197.083 214.544 196.475 214.256L197.219 212.192C197.555 212.336 197.939 212.488 198.371 212.648C198.803 212.792 199.275 212.92 199.787 213.032C200.299 213.128 200.819 213.176 201.347 213.176C202.147 213.176 202.787 213.04 203.267 212.768C203.763 212.48 204.011 212.064 204.011 211.52C204.011 211.184 203.907 210.896 203.699 210.656C203.491 210.4 203.179 210.176 202.763 209.984C202.347 209.776 201.827 209.568 201.203 209.36C200.243 209.04 199.427 208.704 198.755 208.352C198.083 207.984 197.571 207.552 197.219 207.056C196.867 206.544 196.691 205.912 196.691 205.16C196.691 204.424 196.883 203.792 197.267 203.264C197.667 202.736 198.251 202.328 199.019 202.04C199.803 201.736 200.771 201.584 201.923 201.584C202.723 201.584 203.467 201.656 204.155 201.8C204.859 201.928 205.403 202.112 205.787 202.352V204.464C205.515 204.336 205.171 204.208 204.755 204.08C204.339 203.952 203.883 203.848 203.387 203.768C202.907 203.688 202.419 203.648 201.923 203.648C200.963 203.648 200.275 203.792 199.859 204.08C199.459 204.352 199.259 204.68 199.259 205.064C199.259 205.384 199.363 205.656 199.571 205.88C199.779 206.104 200.123 206.32 200.603 206.528C201.083 206.72 201.707 206.952 202.475 207.224C203.259 207.496 203.963 207.8 204.587 208.136C205.211 208.472 205.699 208.896 206.051 209.408C206.403 209.92 206.579 210.56 206.579 211.328C206.579 212.016 206.411 212.664 206.075 213.272C205.755 213.864 205.211 214.344 204.443 214.712C203.691 215.08 202.667 215.264 201.371 215.264ZM211.548 215L207.516 201.848H210.108L213.492 212.84H213.732C214.068 212.84 214.396 212.752 214.716 212.576C215.052 212.4 215.332 212.176 215.556 211.904C215.988 211.408 216.308 210.784 216.516 210.032C216.724 209.28 216.828 208.536 216.828 207.8C216.828 206.552 216.556 205.576 216.012 204.872C215.468 204.168 214.716 203.816 213.756 203.816C213.564 203.816 213.38 203.832 213.204 203.864C213.028 203.88 212.884 203.912 212.772 203.96L212.196 201.944C212.548 201.848 212.876 201.784 213.18 201.752C213.484 201.72 213.748 201.704 213.972 201.704C214.788 201.704 215.508 201.824 216.132 202.064C216.772 202.288 217.316 202.624 217.764 203.072C218.324 203.616 218.74 204.296 219.012 205.112C219.284 205.928 219.42 206.832 219.42 207.824C219.42 209.088 219.22 210.208 218.82 211.184C218.436 212.144 217.956 212.912 217.38 213.488C216.9 213.952 216.316 214.32 215.628 214.592C214.94 214.864 214.044 215 212.94 215H211.548ZM227.241 215.24C225.881 215.24 224.825 214.936 224.073 214.328C223.321 213.72 222.793 212.888 222.489 211.832C222.201 210.776 222.057 209.56 222.057 208.184C222.057 206.616 222.201 205.352 222.489 204.392C222.793 203.432 223.241 202.728 223.833 202.28C224.425 201.832 225.145 201.608 225.993 201.608C226.553 201.608 227.033 201.712 227.433 201.92C227.833 202.112 228.129 202.448 228.321 202.928H228.417C228.593 202.432 228.897 202.088 229.329 201.896C229.777 201.704 230.289 201.608 230.865 201.608C231.921 201.608 232.729 201.888 233.289 202.448C233.865 203.008 234.153 203.856 234.153 204.992V215H231.585V205.208C231.585 204.632 231.465 204.24 231.225 204.032C230.985 203.824 230.673 203.72 230.289 203.72C229.873 203.72 229.569 203.824 229.377 204.032C229.185 204.24 229.065 204.584 229.017 205.064H227.649C227.585 204.536 227.425 204.184 227.169 204.008C226.929 203.816 226.657 203.72 226.353 203.72C225.793 203.72 225.361 204.064 225.057 204.752C224.769 205.44 224.625 206.592 224.625 208.208C224.625 209.248 224.705 210.144 224.865 210.896C225.025 211.632 225.313 212.2 225.729 212.6C226.161 212.984 226.785 213.176 227.601 213.176C227.873 213.176 228.105 213.16 228.297 213.128C228.505 213.096 228.689 213.056 228.849 213.008L229.113 214.928C228.873 215.04 228.585 215.12 228.249 215.168C227.929 215.216 227.593 215.24 227.241 215.24ZM241.512 215V205.856C241.512 205.104 241.336 204.552 240.984 204.2C240.648 203.848 240.072 203.672 239.256 203.672C238.696 203.672 238.168 203.752 237.672 203.912C237.192 204.056 236.736 204.256 236.304 204.512V202.304C236.64 202.144 237.104 201.984 237.696 201.824C238.304 201.664 239.024 201.584 239.856 201.584C240.704 201.584 241.44 201.712 242.064 201.968C242.704 202.208 243.2 202.608 243.552 203.168C243.904 203.728 244.08 204.488 244.08 205.448V215H241.512ZM254.569 215.24C253.513 215.24 252.617 215.032 251.881 214.616C251.161 214.2 250.665 213.632 250.393 212.912H250.249L250.057 215H248.017V201.848H250.585V209.072C250.585 209.904 250.713 210.616 250.969 211.208C251.225 211.8 251.601 212.256 252.097 212.576C252.593 212.896 253.193 213.056 253.897 213.056C254.761 213.056 255.409 212.824 255.841 212.36C256.273 211.88 256.489 211.176 256.489 210.248V201.848H259.057V210.584C259.057 211.624 258.881 212.488 258.529 213.176C258.177 213.864 257.665 214.384 256.993 214.736C256.321 215.072 255.513 215.24 254.569 215.24ZM265.97 215.24C265.442 215.24 264.962 215.16 264.53 215C264.114 214.824 263.778 214.544 263.522 214.16C263.266 213.76 263.138 213.224 263.138 212.552V201.848H265.706V212.24C265.706 212.592 265.778 212.848 265.922 213.008C266.082 213.152 266.33 213.224 266.666 213.224C266.794 213.224 266.938 213.208 267.098 213.176C267.258 213.144 267.41 213.104 267.554 213.056L267.842 214.856C267.538 215 267.226 215.096 266.906 215.144C266.602 215.208 266.29 215.24 265.97 215.24ZM271.501 215L267.469 201.848H270.061L273.445 212.84H273.685C274.021 212.84 274.349 212.752 274.669 212.576C275.005 212.4 275.285 212.176 275.509 211.904C275.941 211.408 276.261 210.784 276.469 210.032C276.677 209.28 276.781 208.536 276.781 207.8C276.781 206.552 276.509 205.576 275.965 204.872C275.421 204.168 274.669 203.816 273.709 203.816C273.517 203.816 273.333 203.832 273.157 203.864C272.981 203.88 272.837 203.912 272.725 203.96L272.149 201.944C272.501 201.848 272.829 201.784 273.133 201.752C273.437 201.72 273.701 201.704 273.925 201.704C274.741 201.704 275.461 201.824 276.085 202.064C276.725 202.288 277.269 202.624 277.717 203.072C278.277 203.616 278.693 204.296 278.965 205.112C279.237 205.928 279.373 206.832 279.373 207.824C279.373 209.088 279.173 210.208 278.773 211.184C278.389 212.144 277.909 212.912 277.333 213.488C276.853 213.952 276.269 214.32 275.581 214.592C274.893 214.864 273.997 215 272.893 215H271.501ZM267.856 199.832V198.728L269.8 197.888H278.272V199.832H267.856ZM272.824 198.752V196.04H274.744V198.752H272.824ZM276.376 198.752V196.04H278.272V198.752H276.376ZM274.491 194.672V190.592H276.843V194.672H274.491ZM287.266 215.264C285.474 215.264 284.13 214.808 283.234 213.896C282.354 212.968 281.914 211.544 281.914 209.624C281.914 209.304 281.922 208.944 281.938 208.544C281.97 208.144 282.01 207.768 282.058 207.416H287.314V209.264H284.482V209.696C284.482 210.592 284.578 211.304 284.77 211.832C284.978 212.36 285.282 212.728 285.682 212.936C286.098 213.144 286.61 213.248 287.218 213.248C287.89 213.248 288.466 213.12 288.946 212.864C289.426 212.608 289.794 212.144 290.05 211.472C290.322 210.784 290.458 209.816 290.458 208.568C290.458 207.448 290.338 206.536 290.098 205.832C289.858 205.112 289.45 204.576 288.874 204.224C288.314 203.872 287.562 203.696 286.618 203.696C286.106 203.696 285.602 203.744 285.106 203.84C284.626 203.92 284.162 204.048 283.714 204.224C283.266 204.384 282.834 204.584 282.418 204.824V202.52C282.754 202.344 283.162 202.192 283.642 202.064C284.122 201.92 284.65 201.808 285.226 201.728C285.802 201.632 286.394 201.584 287.002 201.584C288.442 201.584 289.61 201.872 290.506 202.448C291.402 203.008 292.058 203.808 292.474 204.848C292.89 205.872 293.098 207.096 293.098 208.52C293.098 209.944 292.906 211.16 292.522 212.168C292.138 213.176 291.514 213.944 290.65 214.472C289.802 215 288.674 215.264 287.266 215.264ZM300.876 215.24C299.932 215.24 299.116 215.072 298.428 214.736C297.756 214.384 297.244 213.864 296.892 213.176C296.54 212.472 296.364 211.584 296.364 210.512V201.848H298.932V210.248C298.932 211.176 299.156 211.88 299.604 212.36C300.052 212.824 300.7 213.056 301.548 213.056C302.588 213.056 303.388 212.704 303.948 212C304.524 211.296 304.812 210.32 304.812 209.072V201.848H307.38V215H305.34L305.148 213.032H305.004C304.716 213.672 304.22 214.2 303.516 214.616C302.828 215.032 301.948 215.24 300.876 215.24ZM312.061 204.248V200.192C312.061 199.584 312.117 199.096 312.229 198.728C312.341 198.344 312.493 198.032 312.685 197.792C312.877 197.552 313.077 197.352 313.285 197.192L313.261 197.096H309.229L309.805 195.152H316.837V197.096C316.245 197.096 315.725 197.288 315.277 197.672C314.845 198.056 314.629 198.76 314.629 199.784V204.248H312.061ZM314.869 215.24C314.357 215.24 313.885 215.16 313.453 215C313.037 214.824 312.701 214.544 312.445 214.16C312.189 213.76 312.061 213.224 312.061 212.552V201.848H314.629V212.24C314.629 212.592 314.701 212.848 314.845 213.008C315.005 213.152 315.245 213.224 315.565 213.224C315.709 213.224 315.861 213.208 316.021 213.176C316.181 213.144 316.325 213.104 316.453 213.056L316.765 214.856C316.461 215 316.149 215.096 315.829 215.144C315.509 215.208 315.189 215.24 314.869 215.24ZM323.361 215.264C321.777 215.264 320.561 214.888 319.713 214.136C318.865 213.384 318.441 212.272 318.441 210.8V209.48C318.441 208.728 318.545 208.128 318.753 207.68C318.961 207.216 319.193 206.816 319.449 206.48C319.721 206.112 319.945 205.792 320.121 205.52C320.313 205.248 320.409 204.928 320.409 204.56C320.409 204.24 320.329 204.016 320.169 203.888C320.025 203.744 319.825 203.672 319.569 203.672C319.393 203.672 319.201 203.704 318.993 203.768C318.801 203.816 318.601 203.888 318.393 203.984L317.865 202.256C318.201 202.048 318.593 201.904 319.041 201.824C319.505 201.728 319.905 201.68 320.241 201.68C320.865 201.68 321.369 201.792 321.753 202.016C322.137 202.224 322.409 202.52 322.569 202.904C322.745 203.272 322.833 203.712 322.833 204.224C322.833 204.784 322.737 205.256 322.545 205.64C322.369 206.024 322.153 206.4 321.897 206.768C321.641 207.168 321.425 207.544 321.249 207.896C321.073 208.248 320.985 208.72 320.985 209.312V210.608C320.985 211.28 321.089 211.808 321.297 212.192C321.521 212.56 321.817 212.824 322.185 212.984C322.553 213.128 322.945 213.2 323.361 213.2C324.113 213.2 324.681 213.016 325.065 212.648C325.465 212.264 325.665 211.704 325.665 210.968V201.848H328.233V211.064C328.233 212.408 327.817 213.448 326.985 214.184C326.169 214.904 324.961 215.264 323.361 215.264ZM343.001 215.264C341.209 215.264 339.865 214.808 338.969 213.896C338.089 212.968 337.649 211.544 337.649 209.624C337.649 209.304 337.657 208.944 337.673 208.544C337.705 208.144 337.745 207.768 337.793 207.416H343.049V209.264H340.217V209.696C340.217 210.592 340.313 211.304 340.505 211.832C340.713 212.36 341.017 212.728 341.417 212.936C341.833 213.144 342.345 213.248 342.953 213.248C343.625 213.248 344.201 213.12 344.681 212.864C345.161 212.608 345.529 212.144 345.785 211.472C346.057 210.784 346.193 209.816 346.193 208.568C346.193 207.448 346.073 206.536 345.833 205.832C345.593 205.112 345.185 204.576 344.609 204.224C344.049 203.872 343.297 203.696 342.353 203.696C341.841 203.696 341.337 203.744 340.841 203.84C340.361 203.92 339.897 204.048 339.449 204.224C339.001 204.384 338.569 204.584 338.153 204.824V202.52C338.489 202.344 338.897 202.192 339.377 202.064C339.857 201.92 340.385 201.808 340.961 201.728C341.537 201.632 342.129 201.584 342.737 201.584C344.177 201.584 345.345 201.872 346.241 202.448C347.137 203.008 347.793 203.808 348.209 204.848C348.625 205.872 348.833 207.096 348.833 208.52C348.833 209.944 348.641 211.16 348.257 212.168C347.873 213.176 347.249 213.944 346.385 214.472C345.537 215 344.409 215.264 343.001 215.264ZM344.783 199.832C344.095 199.832 343.551 199.736 343.151 199.544C342.735 199.336 342.439 199.08 342.263 198.776C342.071 198.456 341.975 198.12 341.975 197.768C341.975 197.512 342.015 197.24 342.095 196.952C342.159 196.664 342.255 196.416 342.383 196.208L344.423 196.52C344.391 196.6 344.359 196.712 344.327 196.856C344.295 197 344.279 197.136 344.279 197.264C344.279 197.472 344.343 197.648 344.471 197.792C344.599 197.936 344.823 198.008 345.143 198.008H350.951V199.832H344.783ZM356.611 215.24C355.667 215.24 354.851 215.072 354.163 214.736C353.491 214.384 352.979 213.864 352.627 213.176C352.275 212.472 352.099 211.584 352.099 210.512V201.848H354.667V210.248C354.667 211.176 354.891 211.88 355.339 212.36C355.787 212.824 356.435 213.056 357.283 213.056C358.323 213.056 359.123 212.704 359.683 212C360.259 211.296 360.547 210.32 360.547 209.072V201.848H363.115V215H361.075L360.883 213.032H360.739C360.451 213.672 359.955 214.2 359.251 214.616C358.563 215.032 357.683 215.24 356.611 215.24ZM367.796 204.248V200.192C367.796 199.584 367.852 199.096 367.964 198.728C368.076 198.344 368.228 198.032 368.42 197.792C368.612 197.552 368.812 197.352 369.02 197.192L368.996 197.096H364.964L365.54 195.152H372.572V197.096C371.98 197.096 371.46 197.288 371.012 197.672C370.58 198.056 370.364 198.76 370.364 199.784V204.248H367.796ZM370.604 215.24C370.092 215.24 369.62 215.16 369.188 215C368.772 214.824 368.436 214.544 368.18 214.16C367.924 213.76 367.796 213.224 367.796 212.552V201.848H370.364V212.24C370.364 212.592 370.436 212.848 370.58 213.008C370.74 213.152 370.98 213.224 371.3 213.224C371.444 213.224 371.596 213.208 371.756 213.176C371.916 213.144 372.06 213.104 372.188 213.056L372.5 214.856C372.196 215 371.884 215.096 371.564 215.144C371.244 215.208 370.924 215.24 370.604 215.24ZM381.413 215.24C380.357 215.24 379.461 215.032 378.725 214.616C378.005 214.2 377.509 213.632 377.237 212.912H377.093L376.901 215H374.861V201.848H377.429V209.072C377.429 209.904 377.557 210.616 377.813 211.208C378.069 211.8 378.445 212.256 378.941 212.576C379.437 212.896 380.037 213.056 380.741 213.056C381.605 213.056 382.253 212.824 382.685 212.36C383.117 211.88 383.333 211.176 383.333 210.248V201.848H385.901V210.584C385.901 211.624 385.725 212.488 385.373 213.176C385.021 213.864 384.509 214.384 383.837 214.736C383.165 215.072 382.357 215.24 381.413 215.24ZM383.4 199.832V194.672H385.848V199.832H383.4ZM392.814 215.24C392.286 215.24 391.806 215.16 391.374 215C390.958 214.824 390.622 214.544 390.366 214.16C390.11 213.76 389.982 213.224 389.982 212.552V201.848H392.55V212.24C392.55 212.592 392.622 212.848 392.766 213.008C392.926 213.152 393.174 213.224 393.51 213.224C393.638 213.224 393.782 213.208 393.942 213.176C394.102 213.144 394.254 213.104 394.398 213.056L394.686 214.856C394.382 215 394.07 215.096 393.75 215.144C393.446 215.208 393.134 215.24 392.814 215.24ZM402.266 215.264C400.314 215.264 398.914 214.816 398.066 213.92C397.218 213.024 396.794 211.744 396.794 210.08V201.848H399.362V210.152C399.362 211.16 399.594 211.912 400.058 212.408C400.538 212.904 401.274 213.152 402.266 213.152C403.258 213.152 403.994 212.904 404.474 212.408C404.954 211.912 405.194 211.16 405.194 210.152V197.12H407.762V210.08C407.762 211.744 407.33 213.024 406.466 213.92C405.618 214.816 404.218 215.264 402.266 215.264ZM401.768 200.144C401.336 200.144 400.968 200.056 400.664 199.88C400.344 199.704 400.088 199.432 399.896 199.064L399.032 200.072C398.104 200.072 397.376 199.84 396.848 199.376C396.32 198.912 396.056 198.24 396.056 197.36C396.056 196.432 396.328 195.744 396.872 195.296C397.4 194.848 398.016 194.624 398.72 194.624H403.904V196.16H399.104C398.752 196.16 398.464 196.264 398.24 196.472C398.016 196.664 397.904 196.984 397.904 197.432C397.904 197.752 397.984 198.024 398.144 198.248C398.304 198.456 398.568 198.56 398.936 198.56L399.872 197.408H400.448C400.464 197.792 400.552 198.096 400.712 198.32C400.856 198.528 401.072 198.632 401.36 198.632C401.616 198.632 401.824 198.544 401.984 198.368C402.144 198.192 402.224 197.968 402.224 197.696V197.384H403.928V197.744C403.928 198.56 403.736 199.168 403.352 199.568C402.952 199.952 402.424 200.144 401.768 200.144ZM416.048 215.24C415.104 215.24 414.288 215.072 413.6 214.736C412.928 214.384 412.416 213.864 412.064 213.176C411.712 212.472 411.536 211.584 411.536 210.512V201.848H414.104V210.248C414.104 211.176 414.328 211.88 414.776 212.36C415.224 212.824 415.872 213.056 416.72 213.056C417.76 213.056 418.56 212.704 419.12 212C419.696 211.296 419.984 210.32 419.984 209.072V201.848H422.552V215H420.512L420.32 213.032H420.176C419.888 213.672 419.392 214.2 418.688 214.616C418 215.032 417.12 215.24 416.048 215.24ZM431.265 215.264C430.257 215.264 429.353 215.176 428.553 215C427.753 214.808 427.057 214.6 426.465 214.376V209H428.769V212.888C428.993 212.984 429.329 213.08 429.777 213.176C430.241 213.256 430.721 213.296 431.217 213.296C431.745 213.296 432.233 213.24 432.681 213.128C433.129 213.016 433.489 212.8 433.761 212.48C434.049 212.144 434.193 211.68 434.193 211.088C434.193 210.64 434.105 210.288 433.929 210.032C433.769 209.76 433.521 209.544 433.185 209.384C432.849 209.208 432.441 209.048 431.961 208.904C431.481 208.744 430.921 208.576 430.281 208.4C429.337 208.112 428.545 207.832 427.905 207.56C427.281 207.272 426.809 206.928 426.489 206.528C426.185 206.128 426.033 205.592 426.033 204.92C426.033 204.184 426.225 203.568 426.609 203.072C426.993 202.576 427.569 202.208 428.337 201.968C429.121 201.712 430.097 201.584 431.265 201.584C432.353 201.584 433.281 201.672 434.049 201.848C434.817 202.024 435.393 202.2 435.777 202.376V204.512C435.505 204.384 435.121 204.248 434.625 204.104C434.129 203.96 433.577 203.84 432.969 203.744C432.361 203.648 431.721 203.6 431.049 203.6C430.553 203.6 430.121 203.64 429.753 203.72C429.385 203.784 429.097 203.904 428.889 204.08C428.697 204.24 428.601 204.464 428.601 204.752C428.601 205.056 428.737 205.304 429.009 205.496C429.281 205.688 429.673 205.864 430.185 206.024C430.697 206.168 431.297 206.336 431.985 206.528C432.641 206.72 433.249 206.928 433.809 207.152C434.385 207.36 434.889 207.632 435.321 207.968C435.753 208.288 436.089 208.696 436.329 209.192C436.569 209.688 436.689 210.304 436.689 211.04C436.689 211.872 436.513 212.608 436.161 213.248C435.809 213.872 435.233 214.368 434.433 214.736C433.633 215.088 432.577 215.264 431.265 215.264ZM443.574 215.264C442.63 215.264 441.726 215.168 440.862 214.976C440.014 214.784 439.286 214.544 438.678 214.256L439.422 212.192C439.758 212.336 440.142 212.488 440.574 212.648C441.006 212.792 441.478 212.92 441.99 213.032C442.502 213.128 443.022 213.176 443.55 213.176C444.35 213.176 444.99 213.04 445.47 212.768C445.966 212.48 446.214 212.064 446.214 211.52C446.214 211.184 446.11 210.896 445.902 210.656C445.694 210.4 445.382 210.176 444.966 209.984C444.55 209.776 444.03 209.568 443.406 209.36C442.446 209.04 441.63 208.704 440.958 208.352C440.286 207.984 439.774 207.552 439.422 207.056C439.07 206.544 438.894 205.912 438.894 205.16C438.894 204.424 439.086 203.792 439.47 203.264C439.87 202.736 440.454 202.328 441.222 202.04C442.006 201.736 442.974 201.584 444.126 201.584C444.926 201.584 445.67 201.656 446.358 201.8C447.062 201.928 447.606 202.112 447.99 202.352V204.464C447.718 204.336 447.374 204.208 446.958 204.08C446.542 203.952 446.086 203.848 445.59 203.768C445.11 203.688 444.622 203.648 444.126 203.648C443.166 203.648 442.478 203.792 442.062 204.08C441.662 204.352 441.462 204.68 441.462 205.064C441.462 205.384 441.566 205.656 441.774 205.88C441.982 206.104 442.326 206.32 442.806 206.528C443.286 206.72 443.91 206.952 444.678 207.224C445.462 207.496 446.166 207.8 446.79 208.136C447.414 208.472 447.902 208.896 448.254 209.408C448.606 209.92 448.782 210.56 448.782 211.328C448.782 212.016 448.614 212.664 448.278 213.272C447.958 213.864 447.414 214.344 446.646 214.712C445.894 215.08 444.87 215.264 443.574 215.264ZM455.503 215.264C454.559 215.264 453.655 215.168 452.791 214.976C451.943 214.784 451.215 214.544 450.607 214.256L451.351 212.192C451.687 212.336 452.071 212.488 452.503 212.648C452.935 212.792 453.407 212.92 453.919 213.032C454.431 213.128 454.951 213.176 455.479 213.176C456.279 213.176 456.919 213.04 457.399 212.768C457.895 212.48 458.143 212.064 458.143 211.52C458.143 211.184 458.039 210.896 457.831 210.656C457.623 210.4 457.311 210.176 456.895 209.984C456.479 209.776 455.959 209.568 455.335 209.36C454.375 209.04 453.559 208.704 452.887 208.352C452.215 207.984 451.703 207.552 451.351 207.056C450.999 206.544 450.823 205.912 450.823 205.16C450.823 204.424 451.015 203.792 451.399 203.264C451.799 202.736 452.383 202.328 453.151 202.04C453.935 201.736 454.903 201.584 456.055 201.584C456.855 201.584 457.599 201.656 458.287 201.8C458.991 201.928 459.535 202.112 459.919 202.352V204.464C459.647 204.336 459.303 204.208 458.887 204.08C458.471 203.952 458.015 203.848 457.519 203.768C457.039 203.688 456.551 203.648 456.055 203.648C455.095 203.648 454.407 203.792 453.991 204.08C453.591 204.352 453.391 204.68 453.391 205.064C453.391 205.384 453.495 205.656 453.703 205.88C453.911 206.104 454.255 206.32 454.735 206.528C455.215 206.72 455.839 206.952 456.607 207.224C457.391 207.496 458.095 207.8 458.719 208.136C459.343 208.472 459.831 208.896 460.183 209.408C460.535 209.92 460.711 210.56 460.711 211.328C460.711 212.016 460.543 212.664 460.207 213.272C459.887 213.864 459.343 214.344 458.575 214.712C457.823 215.08 456.799 215.264 455.503 215.264ZM470.241 215.24C469.185 215.24 468.289 215.032 467.553 214.616C466.833 214.2 466.337 213.632 466.065 212.912H465.921L465.729 215H463.689V201.848H466.257V209.072C466.257 209.904 466.385 210.616 466.641 211.208C466.897 211.8 467.273 212.256 467.769 212.576C468.265 212.896 468.865 213.056 469.569 213.056C470.433 213.056 471.081 212.824 471.513 212.36C471.945 211.88 472.161 211.176 472.161 210.248V201.848H474.729V210.584C474.729 211.624 474.553 212.488 474.201 213.176C473.849 213.864 473.337 214.384 472.665 214.736C471.993 215.072 471.185 215.24 470.241 215.24ZM175.564 251.264C173.98 251.264 172.764 250.888 171.916 250.136C171.068 249.384 170.644 248.272 170.644 246.8V245.48C170.644 244.728 170.748 244.128 170.956 243.68C171.164 243.216 171.396 242.816 171.652 242.48C171.924 242.112 172.148 241.792 172.324 241.52C172.516 241.248 172.612 240.928 172.612 240.56C172.612 240.24 172.532 240.016 172.372 239.888C172.228 239.744 172.028 239.672 171.772 239.672C171.596 239.672 171.404 239.704 171.196 239.768C171.004 239.816 170.804 239.888 170.596 239.984L170.068 238.256C170.404 238.048 170.796 237.904 171.244 237.824C171.708 237.728 172.108 237.68 172.444 237.68C173.068 237.68 173.572 237.792 173.956 238.016C174.34 238.224 174.612 238.52 174.772 238.904C174.948 239.272 175.036 239.712 175.036 240.224C175.036 240.784 174.94 241.256 174.748 241.64C174.572 242.024 174.356 242.4 174.1 242.768C173.844 243.168 173.628 243.544 173.452 243.896C173.276 244.248 173.188 244.72 173.188 245.312V246.608C173.188 247.28 173.292 247.808 173.5 248.192C173.724 248.56 174.02 248.824 174.388 248.984C174.756 249.128 175.148 249.2 175.564 249.2C176.316 249.2 176.884 249.016 177.268 248.648C177.668 248.264 177.868 247.704 177.868 246.968V237.848H180.436V247.064C180.436 248.408 180.02 249.448 179.188 250.184C178.372 250.904 177.164 251.264 175.564 251.264ZM188.969 251.264C187.177 251.264 185.833 250.808 184.937 249.896C184.057 248.968 183.617 247.544 183.617 245.624C183.617 245.304 183.625 244.944 183.641 244.544C183.673 244.144 183.713 243.768 183.761 243.416H189.017V245.264H186.185V245.696C186.185 246.592 186.281 247.304 186.473 247.832C186.681 248.36 186.985 248.728 187.385 248.936C187.801 249.144 188.313 249.248 188.921 249.248C189.593 249.248 190.169 249.12 190.649 248.864C191.129 248.608 191.497 248.144 191.753 247.472C192.025 246.784 192.161 245.816 192.161 244.568C192.161 243.448 192.041 242.536 191.801 241.832C191.561 241.112 191.153 240.576 190.577 240.224C190.017 239.872 189.265 239.696 188.321 239.696C187.809 239.696 187.305 239.744 186.809 239.84C186.329 239.92 185.865 240.048 185.417 240.224C184.969 240.384 184.537 240.584 184.121 240.824V238.52C184.457 238.344 184.865 238.192 185.345 238.064C185.825 237.92 186.353 237.808 186.929 237.728C187.505 237.632 188.097 237.584 188.705 237.584C190.145 237.584 191.313 237.872 192.209 238.448C193.105 239.008 193.761 239.808 194.177 240.848C194.593 241.872 194.801 243.096 194.801 244.52C194.801 245.944 194.609 247.16 194.225 248.168C193.841 249.176 193.217 249.944 192.353 250.472C191.505 251 190.377 251.264 188.969 251.264ZM200.251 251L196.219 237.848H198.811L202.195 248.84H202.435C202.771 248.84 203.099 248.752 203.419 248.576C203.755 248.4 204.035 248.176 204.259 247.904C204.691 247.408 205.011 246.784 205.219 246.032C205.427 245.28 205.531 244.536 205.531 243.8C205.531 242.552 205.259 241.576 204.715 240.872C204.171 240.168 203.419 239.816 202.459 239.816C202.267 239.816 202.083 239.832 201.907 239.864C201.731 239.88 201.587 239.912 201.475 239.96L200.899 237.944C201.251 237.848 201.579 237.784 201.883 237.752C202.187 237.72 202.451 237.704 202.675 237.704C203.491 237.704 204.211 237.824 204.835 238.064C205.475 238.288 206.019 238.624 206.467 239.072C207.027 239.616 207.443 240.296 207.715 241.112C207.987 241.928 208.123 242.832 208.123 243.824C208.123 245.088 207.923 246.208 207.523 247.184C207.139 248.144 206.659 248.912 206.083 249.488C205.603 249.952 205.019 250.32 204.331 250.592C203.643 250.864 202.747 251 201.643 251H200.251ZM211.072 251V246.608C211.072 245.6 211.288 244.856 211.72 244.376C212.152 243.896 212.72 243.56 213.424 243.368L213.448 243.272L210.832 242.288V241.544C210.832 240.856 211.048 240.208 211.48 239.6C211.928 238.992 212.568 238.504 213.4 238.136C214.232 237.768 215.24 237.584 216.424 237.584C217.464 237.584 218.408 237.752 219.256 238.088C220.104 238.408 220.776 238.912 221.272 239.6C221.768 240.288 222.016 241.184 222.016 242.288V251H219.448V242.504C219.448 241.512 219.16 240.8 218.584 240.368C218.008 239.92 217.272 239.696 216.376 239.696C215.464 239.696 214.752 239.888 214.24 240.272C213.728 240.64 213.464 241.112 213.448 241.688L215.92 242.888L215.704 244.16C215.112 244.176 214.616 244.376 214.216 244.76C213.832 245.144 213.64 245.736 213.64 246.536V251H211.072ZM226.274 255.896V255.488C226.274 254.448 226.602 253.64 227.258 253.064C227.93 252.504 228.882 252.224 230.114 252.224C231.186 252.224 232.146 252.416 232.994 252.8C233.842 253.2 234.45 253.64 234.818 254.12L234.17 254.36V242.504C234.17 241.512 233.874 240.8 233.282 240.368C232.706 239.92 231.97 239.696 231.074 239.696C230.162 239.696 229.442 239.888 228.914 240.272C228.402 240.64 228.146 241.112 228.146 241.688L230.69 242.864L230.474 244.136C229.914 244.136 229.466 244.32 229.13 244.688C228.81 245.04 228.65 245.616 228.65 246.416V248.6C228.65 249.592 228.41 250.272 227.93 250.64C227.466 251.008 226.89 251.192 226.202 251.192C225.866 251.192 225.546 251.152 225.242 251.072C224.938 251.008 224.65 250.912 224.378 250.784L224.642 249.152C224.754 249.184 224.874 249.216 225.002 249.248C225.146 249.264 225.274 249.272 225.386 249.272C225.642 249.272 225.826 249.2 225.938 249.056C226.066 248.912 226.13 248.68 226.13 248.36V246.32C226.13 245.392 226.306 244.712 226.658 244.28C227.01 243.832 227.522 243.528 228.194 243.368L228.218 243.272L225.506 242.288V241.544C225.506 240.856 225.722 240.208 226.154 239.6C226.586 238.992 227.218 238.504 228.05 238.136C228.898 237.768 229.914 237.584 231.098 237.584C232.17 237.584 233.13 237.752 233.978 238.088C234.826 238.408 235.498 238.912 235.994 239.6C236.49 240.288 236.738 241.184 236.738 242.288V255.896H234.65C234.394 255.608 234.05 255.344 233.618 255.104C233.202 254.864 232.738 254.664 232.226 254.504C231.714 254.36 231.21 254.288 230.714 254.288C230.058 254.288 229.578 254.424 229.274 254.696C228.97 254.984 228.818 255.312 228.818 255.68V255.896H226.274ZM240.369 251V246.608C240.369 245.6 240.585 244.856 241.017 244.376C241.449 243.896 242.017 243.56 242.721 243.368L242.745 243.272L240.129 242.288V241.544C240.129 240.856 240.345 240.208 240.777 239.6C241.225 238.992 241.865 238.504 242.697 238.136C243.529 237.768 244.537 237.584 245.721 237.584C246.761 237.584 247.705 237.752 248.553 238.088C249.401 238.408 250.073 238.912 250.569 239.6C251.065 240.288 251.313 241.184 251.313 242.288V251H248.745V242.504C248.745 241.512 248.457 240.8 247.881 240.368C247.305 239.92 246.569 239.696 245.673 239.696C244.761 239.696 244.049 239.888 243.537 240.272C243.025 240.64 242.761 241.112 242.745 241.688L245.217 242.888L245.001 244.16C244.409 244.176 243.913 244.376 243.513 244.76C243.129 245.144 242.937 245.736 242.937 246.536V251H240.369ZM259.003 251.264C258.059 251.264 257.155 251.168 256.291 250.976C255.443 250.784 254.715 250.544 254.107 250.256L254.851 248.192C255.187 248.336 255.571 248.488 256.003 248.648C256.435 248.792 256.907 248.92 257.419 249.032C257.931 249.128 258.451 249.176 258.979 249.176C259.779 249.176 260.419 249.04 260.899 248.768C261.395 248.48 261.643 248.064 261.643 247.52C261.643 247.184 261.539 246.896 261.331 246.656C261.123 246.4 260.811 246.176 260.395 245.984C259.979 245.776 259.459 245.568 258.835 245.36C257.875 245.04 257.059 244.704 256.387 244.352C255.715 243.984 255.203 243.552 254.851 243.056C254.499 242.544 254.323 241.912 254.323 241.16C254.323 240.424 254.515 239.792 254.899 239.264C255.299 238.736 255.883 238.328 256.651 238.04C257.435 237.736 258.403 237.584 259.555 237.584C260.355 237.584 261.099 237.656 261.787 237.8C262.491 237.928 263.035 238.112 263.419 238.352V240.464C263.147 240.336 262.803 240.208 262.387 240.08C261.971 239.952 261.515 239.848 261.019 239.768C260.539 239.688 260.051 239.648 259.555 239.648C258.595 239.648 257.907 239.792 257.491 240.08C257.091 240.352 256.891 240.68 256.891 241.064C256.891 241.384 256.995 241.656 257.203 241.88C257.411 242.104 257.755 242.32 258.235 242.528C258.715 242.72 259.339 242.952 260.107 243.224C260.891 243.496 261.595 243.8 262.219 244.136C262.843 244.472 263.331 244.896 263.683 245.408C264.035 245.92 264.211 246.56 264.211 247.328C264.211 248.016 264.043 248.664 263.707 249.272C263.387 249.864 262.843 250.344 262.075 250.712C261.323 251.08 260.299 251.264 259.003 251.264ZM268.869 242.888C268.197 242.888 267.653 242.784 267.237 242.576C266.821 242.368 266.517 242.104 266.325 241.784C266.149 241.448 266.061 241.096 266.061 240.728C266.061 240.472 266.101 240.216 266.181 239.96C266.261 239.688 266.357 239.448 266.469 239.24L268.533 239.528C268.501 239.624 268.461 239.744 268.413 239.888C268.381 240.016 268.365 240.152 268.365 240.296C268.365 240.504 268.421 240.68 268.533 240.824C268.661 240.952 268.877 241.016 269.181 241.016H272.397V242.888H268.869ZM268.869 249.608C268.197 249.608 267.653 249.504 267.237 249.296C266.821 249.088 266.517 248.824 266.325 248.504C266.149 248.168 266.061 247.816 266.061 247.448C266.061 247.192 266.101 246.936 266.181 246.68C266.261 246.408 266.357 246.168 266.469 245.96L268.533 246.248C268.501 246.344 268.461 246.464 268.413 246.608C268.381 246.736 268.365 246.872 268.365 247.016C268.365 247.224 268.421 247.4 268.533 247.544C268.661 247.672 268.877 247.736 269.181 247.736H272.397V249.608H268.869ZM275.343 251V237.848H277.167L277.575 239.936H277.695C277.967 239.232 278.455 238.672 279.159 238.256C279.879 237.824 280.759 237.608 281.799 237.608C282.775 237.608 283.599 237.776 284.271 238.112C284.943 238.448 285.463 238.96 285.831 239.648C286.199 240.336 286.383 241.224 286.383 242.312V251H283.815V242.6C283.815 241.656 283.591 240.952 283.143 240.488C282.695 240.024 282.039 239.792 281.175 239.792C280.471 239.792 279.871 239.96 279.375 240.296C278.895 240.632 278.527 241.104 278.271 241.712C278.031 242.304 277.911 242.992 277.911 243.776V251H275.343ZM294.042 251.264C293.098 251.264 292.194 251.168 291.33 250.976C290.482 250.784 289.754 250.544 289.146 250.256L289.89 248.192C290.226 248.336 290.61 248.488 291.042 248.648C291.474 248.792 291.946 248.92 292.458 249.032C292.97 249.128 293.49 249.176 294.018 249.176C294.818 249.176 295.458 249.04 295.938 248.768C296.434 248.48 296.682 248.064 296.682 247.52C296.682 247.184 296.578 246.896 296.37 246.656C296.162 246.4 295.85 246.176 295.434 245.984C295.018 245.776 294.498 245.568 293.874 245.36C292.914 245.04 292.098 244.704 291.426 244.352C290.754 243.984 290.242 243.552 289.89 243.056C289.538 242.544 289.362 241.912 289.362 241.16C289.362 240.424 289.554 239.792 289.938 239.264C290.338 238.736 290.922 238.328 291.69 238.04C292.474 237.736 293.442 237.584 294.594 237.584C295.394 237.584 296.138 237.656 296.826 237.8C297.53 237.928 298.074 238.112 298.458 238.352V240.464C298.186 240.336 297.842 240.208 297.426 240.08C297.01 239.952 296.554 239.848 296.058 239.768C295.578 239.688 295.09 239.648 294.594 239.648C293.634 239.648 292.946 239.792 292.53 240.08C292.13 240.352 291.93 240.68 291.93 241.064C291.93 241.384 292.034 241.656 292.242 241.88C292.45 242.104 292.794 242.32 293.274 242.528C293.754 242.72 294.378 242.952 295.146 243.224C295.93 243.496 296.634 243.8 297.258 244.136C297.882 244.472 298.37 244.896 298.722 245.408C299.074 245.92 299.25 246.56 299.25 247.328C299.25 248.016 299.082 248.664 298.746 249.272C298.426 249.864 297.882 250.344 297.114 250.712C296.362 251.08 295.338 251.264 294.042 251.264ZM304.916 251.264C304.244 251.264 303.596 251.192 302.972 251.048C302.348 250.904 301.708 250.656 301.052 250.304L301.82 248.384C302.172 248.592 302.58 248.776 303.044 248.936C303.508 249.08 304.02 249.152 304.58 249.152C305.668 249.152 306.524 248.744 307.148 247.928C307.772 247.112 308.084 245.928 308.084 244.376C308.084 242.856 307.764 241.696 307.124 240.896C306.5 240.096 305.524 239.696 304.196 239.696C303.684 239.696 303.156 239.76 302.612 239.888C302.084 240 301.62 240.168 301.22 240.392V238.256C301.7 238.016 302.228 237.848 302.804 237.752C303.38 237.64 303.964 237.584 304.556 237.584C306.012 237.584 307.188 237.864 308.084 238.424C308.996 238.984 309.66 239.776 310.076 240.8C310.508 241.808 310.724 243 310.724 244.376C310.724 246.536 310.228 248.224 309.236 249.44C308.26 250.656 306.82 251.264 304.916 251.264ZM316.173 251L312.141 237.848H314.733L318.117 248.84H318.357C318.693 248.84 319.021 248.752 319.341 248.576C319.677 248.4 319.957 248.176 320.181 247.904C320.613 247.408 320.933 246.784 321.141 246.032C321.349 245.28 321.453 244.536 321.453 243.8C321.453 242.552 321.181 241.576 320.637 240.872C320.093 240.168 319.341 239.816 318.381 239.816C318.189 239.816 318.005 239.832 317.829 239.864C317.653 239.88 317.509 239.912 317.397 239.96L316.821 237.944C317.173 237.848 317.501 237.784 317.805 237.752C318.109 237.72 318.373 237.704 318.597 237.704C319.413 237.704 320.133 237.824 320.757 238.064C321.397 238.288 321.941 238.624 322.389 239.072C322.949 239.616 323.365 240.296 323.637 241.112C323.909 241.928 324.045 242.832 324.045 243.824C324.045 245.088 323.845 246.208 323.445 247.184C323.061 248.144 322.581 248.912 322.005 249.488C321.525 249.952 320.941 250.32 320.253 250.592C319.565 250.864 318.669 251 317.565 251H316.173ZM332.586 251.264C330.634 251.264 329.234 250.816 328.386 249.92C327.538 249.024 327.114 247.744 327.114 246.08V237.848H329.682V246.152C329.682 247.16 329.914 247.912 330.378 248.408C330.858 248.904 331.594 249.152 332.586 249.152C333.578 249.152 334.314 248.904 334.794 248.408C335.274 247.912 335.514 247.16 335.514 246.152V233.12H338.082V246.08C338.082 247.744 337.65 249.024 336.786 249.92C335.938 250.816 334.538 251.264 332.586 251.264ZM325.752 235.832V234.776L327.552 233.96H334.224V235.832H325.752ZM331.968 234.752V232.088H334.224V234.752H331.968ZM358.843 251H347.323V249.032L351.739 244.544C352.603 243.664 353.323 242.904 353.899 242.264C354.475 241.608 354.907 240.984 355.195 240.392C355.483 239.784 355.627 239.128 355.627 238.424C355.627 237.544 355.371 236.888 354.859 236.456C354.347 236.008 353.683 235.784 352.867 235.784C352.083 235.784 351.379 235.936 350.755 236.24C350.131 236.528 349.483 236.936 348.811 237.464L347.443 235.76C347.907 235.36 348.403 235 348.931 234.68C349.475 234.36 350.075 234.104 350.731 233.912C351.403 233.72 352.139 233.624 352.939 233.624C354.027 233.624 354.963 233.816 355.747 234.2C356.531 234.568 357.131 235.096 357.547 235.784C357.979 236.472 358.195 237.28 358.195 238.208C358.195 239.12 358.011 239.968 357.643 240.752C357.275 241.536 356.755 242.312 356.083 243.08C355.411 243.832 354.619 244.648 353.707 245.528L350.515 248.624V248.744H358.843V251ZM366.721 240.368C367.857 240.368 368.849 240.568 369.697 240.968C370.545 241.368 371.201 241.944 371.665 242.696C372.145 243.448 372.385 244.368 372.385 245.456C372.385 246.656 372.129 247.688 371.617 248.552C371.105 249.416 370.361 250.08 369.385 250.544C368.425 251.008 367.249 251.24 365.857 251.24C364.977 251.24 364.145 251.16 363.361 251C362.577 250.84 361.913 250.608 361.369 250.304V247.976C361.945 248.312 362.641 248.584 363.457 248.792C364.289 249 365.081 249.104 365.833 249.104C366.649 249.104 367.345 248.984 367.921 248.744C368.513 248.488 368.969 248.112 369.289 247.616C369.625 247.104 369.793 246.464 369.793 245.696C369.793 244.656 369.465 243.864 368.809 243.32C368.169 242.76 367.153 242.48 365.761 242.48C365.313 242.48 364.809 242.52 364.249 242.6C363.705 242.68 363.265 242.76 362.929 242.84L361.753 242.144L362.401 233.864H371.209V236.12H364.609L364.225 240.608C364.497 240.56 364.841 240.512 365.257 240.464C365.673 240.4 366.161 240.368 366.721 240.368ZM374.864 243.704C374.864 242.712 374.928 241.736 375.056 240.776C375.2 239.816 375.44 238.912 375.776 238.064C376.128 237.2 376.608 236.44 377.215 235.784C377.824 235.112 378.592 234.592 379.52 234.224C380.464 233.84 381.6 233.648 382.928 233.648C383.264 233.648 383.64 233.664 384.056 233.696C384.488 233.712 384.84 233.76 385.112 233.84V235.976C384.808 235.88 384.472 235.808 384.104 235.76C383.752 235.712 383.4 235.688 383.048 235.688C381.944 235.688 381.032 235.856 380.312 236.192C379.592 236.528 379.024 236.992 378.608 237.584C378.192 238.176 377.888 238.864 377.696 239.648C377.504 240.416 377.384 241.256 377.336 242.168H377.48C377.72 241.784 378.016 241.44 378.368 241.136C378.72 240.832 379.152 240.592 379.664 240.416C380.176 240.24 380.768 240.152 381.44 240.152C382.432 240.152 383.296 240.36 384.032 240.776C384.784 241.192 385.36 241.792 385.76 242.576C386.176 243.36 386.384 244.312 386.384 245.432C386.384 246.632 386.152 247.672 385.688 248.552C385.24 249.416 384.6 250.08 383.768 250.544C382.952 251.008 381.968 251.24 380.816 251.24C379.984 251.24 379.208 251.088 378.488 250.784C377.768 250.48 377.136 250.016 376.592 249.392C376.048 248.768 375.624 247.984 375.32 247.04C375.016 246.08 374.864 244.968 374.864 243.704ZM380.792 249.128C381.704 249.128 382.448 248.832 383.024 248.24C383.6 247.632 383.888 246.696 383.888 245.432C383.888 244.424 383.632 243.624 383.12 243.032C382.624 242.44 381.872 242.144 380.864 242.144C380.176 242.144 379.576 242.288 379.064 242.576C378.552 242.864 378.152 243.232 377.864 243.68C377.576 244.128 377.432 244.584 377.432 245.048C377.432 245.544 377.504 246.032 377.648 246.512C377.792 246.992 378 247.432 378.272 247.832C378.56 248.232 378.912 248.552 379.328 248.792C379.744 249.016 380.232 249.128 380.792 249.128ZM400.07 242.408C400.07 243.8 399.958 245.04 399.734 246.128C399.526 247.216 399.19 248.144 398.726 248.912C398.278 249.664 397.678 250.24 396.926 250.64C396.19 251.04 395.302 251.24 394.262 251.24C392.95 251.24 391.87 250.888 391.022 250.184C390.174 249.48 389.542 248.472 389.126 247.16C388.71 245.832 388.502 244.248 388.502 242.408C388.502 240.552 388.686 238.968 389.054 237.656C389.438 236.344 390.054 235.344 390.902 234.656C391.75 233.952 392.87 233.6 394.262 233.6C395.574 233.6 396.654 233.952 397.502 234.656C398.366 235.344 399.006 236.344 399.422 237.656C399.854 238.968 400.07 240.552 400.07 242.408ZM391.046 242.408C391.046 243.896 391.15 245.136 391.358 246.128C391.566 247.12 391.902 247.864 392.366 248.36C392.846 248.856 393.478 249.104 394.262 249.104C395.046 249.104 395.67 248.864 396.134 248.384C396.614 247.888 396.958 247.144 397.166 246.152C397.39 245.144 397.502 243.896 397.502 242.408C397.502 240.92 397.39 239.688 397.166 238.712C396.958 237.72 396.614 236.976 396.134 236.48C395.67 235.984 395.046 235.736 394.262 235.736C393.478 235.736 392.846 235.984 392.366 236.48C391.902 236.976 391.566 237.72 391.358 238.712C391.15 239.688 391.046 240.92 391.046 242.408Z" fill="black"/>
<path d="M513.605 35.6074L534.818 56.8206" stroke="#3C87C9" stroke-width="5"/>
<path d="M513.605 56.8184L534.818 35.6052" stroke="#3C87C9" stroke-width="5"/>
<rect x="3" y="3" width="564" height="314" rx="17" stroke="#3C87C9" stroke-width="6"/>
</svg>
