<svg width="386" height="251" viewBox="0 0 386 251" fill="none" xmlns="http://www.w3.org/2000/svg">
<rect y="0.5" width="386" height="250" rx="8" fill="#3C87C9"/>
<path d="M366 16.5V32.5" stroke="white" stroke-width="2"/>
<path d="M358 24.5H374" stroke="white" stroke-width="2"/>
<path d="M179.432 27.1392V26.8977C179.437 26.0691 179.51 25.4086 179.652 24.9162C179.799 24.4238 180.012 24.026 180.291 23.723C180.571 23.42 180.907 23.1454 181.3 22.8991C181.593 22.7098 181.856 22.5133 182.088 22.3097C182.32 22.1061 182.505 21.8812 182.642 21.6349C182.779 21.384 182.848 21.1046 182.848 20.7969C182.848 20.4702 182.77 20.1837 182.614 19.9375C182.457 19.6913 182.247 19.5019 181.982 19.3693C181.721 19.2367 181.432 19.1705 181.115 19.1705C180.807 19.1705 180.516 19.2391 180.241 19.3764C179.967 19.509 179.742 19.7079 179.567 19.973C179.392 20.2334 179.297 20.5578 179.283 20.946H176.385C176.409 19.9991 176.636 19.2178 177.067 18.6023C177.498 17.982 178.068 17.5204 178.778 17.2173C179.489 16.9096 180.272 16.7557 181.129 16.7557C182.071 16.7557 182.905 16.9119 183.629 17.2244C184.354 17.5322 184.922 17.9796 185.334 18.5668C185.746 19.1539 185.952 19.8617 185.952 20.6903C185.952 21.2443 185.859 21.7367 185.675 22.1676C185.495 22.5937 185.241 22.9725 184.915 23.304C184.588 23.6307 184.202 23.9266 183.757 24.1918C183.383 24.4143 183.075 24.6463 182.834 24.8878C182.597 25.1293 182.42 25.4086 182.301 25.7259C182.188 26.0431 182.128 26.4337 182.124 26.8977V27.1392H179.432ZM180.838 31.6847C180.365 31.6847 179.96 31.5189 179.624 31.1875C179.292 30.8513 179.129 30.4489 179.134 29.9801C179.129 29.5161 179.292 29.1184 179.624 28.7869C179.96 28.4555 180.365 28.2898 180.838 28.2898C181.288 28.2898 181.683 28.4555 182.024 28.7869C182.365 29.1184 182.538 29.5161 182.543 29.9801C182.538 30.2926 182.455 30.5791 182.294 30.8395C182.138 31.0952 181.932 31.3011 181.676 31.4574C181.42 31.6089 181.141 31.6847 180.838 31.6847ZM190.682 27.1392V26.8977C190.687 26.0691 190.76 25.4086 190.902 24.9162C191.049 24.4238 191.262 24.026 191.541 23.723C191.821 23.42 192.157 23.1454 192.55 22.8991C192.843 22.7098 193.106 22.5133 193.338 22.3097C193.57 22.1061 193.755 21.8812 193.892 21.6349C194.029 21.384 194.098 21.1046 194.098 20.7969C194.098 20.4702 194.02 20.1837 193.864 19.9375C193.707 19.6913 193.497 19.5019 193.232 19.3693C192.971 19.2367 192.682 19.1705 192.365 19.1705C192.057 19.1705 191.766 19.2391 191.491 19.3764C191.217 19.509 190.992 19.7079 190.817 19.973C190.642 20.2334 190.547 20.5578 190.533 20.946H187.635C187.659 19.9991 187.886 19.2178 188.317 18.6023C188.748 17.982 189.318 17.5204 190.028 17.2173C190.739 16.9096 191.522 16.7557 192.379 16.7557C193.321 16.7557 194.155 16.9119 194.879 17.2244C195.604 17.5322 196.172 17.9796 196.584 18.5668C196.996 19.1539 197.202 19.8617 197.202 20.6903C197.202 21.2443 197.109 21.7367 196.925 22.1676C196.745 22.5937 196.491 22.9725 196.165 23.304C195.838 23.6307 195.452 23.9266 195.007 24.1918C194.633 24.4143 194.325 24.6463 194.084 24.8878C193.847 25.1293 193.67 25.4086 193.551 25.7259C193.438 26.0431 193.378 26.4337 193.374 26.8977V27.1392H190.682ZM192.088 31.6847C191.615 31.6847 191.21 31.5189 190.874 31.1875C190.542 30.8513 190.379 30.4489 190.384 29.9801C190.379 29.5161 190.542 29.1184 190.874 28.7869C191.21 28.4555 191.615 28.2898 192.088 28.2898C192.538 28.2898 192.933 28.4555 193.274 28.7869C193.615 29.1184 193.788 29.5161 193.793 29.9801C193.788 30.2926 193.705 30.5791 193.544 30.8395C193.388 31.0952 193.182 31.3011 192.926 31.4574C192.67 31.6089 192.391 31.6847 192.088 31.6847ZM201.932 27.1392V26.8977C201.937 26.0691 202.01 25.4086 202.152 24.9162C202.299 24.4238 202.512 24.026 202.791 23.723C203.071 23.42 203.407 23.1454 203.8 22.8991C204.093 22.7098 204.356 22.5133 204.588 22.3097C204.82 22.1061 205.005 21.8812 205.142 21.6349C205.279 21.384 205.348 21.1046 205.348 20.7969C205.348 20.4702 205.27 20.1837 205.114 19.9375C204.957 19.6913 204.747 19.5019 204.482 19.3693C204.221 19.2367 203.932 19.1705 203.615 19.1705C203.307 19.1705 203.016 19.2391 202.741 19.3764C202.467 19.509 202.242 19.7079 202.067 19.973C201.892 20.2334 201.797 20.5578 201.783 20.946H198.885C198.909 19.9991 199.136 19.2178 199.567 18.6023C199.998 17.982 200.568 17.5204 201.278 17.2173C201.989 16.9096 202.772 16.7557 203.629 16.7557C204.571 16.7557 205.405 16.9119 206.129 17.2244C206.854 17.5322 207.422 17.9796 207.834 18.5668C208.246 19.1539 208.452 19.8617 208.452 20.6903C208.452 21.2443 208.359 21.7367 208.175 22.1676C207.995 22.5937 207.741 22.9725 207.415 23.304C207.088 23.6307 206.702 23.9266 206.257 24.1918C205.883 24.4143 205.575 24.6463 205.334 24.8878C205.097 25.1293 204.92 25.4086 204.801 25.7259C204.688 26.0431 204.628 26.4337 204.624 26.8977V27.1392H201.932ZM203.338 31.6847C202.865 31.6847 202.46 31.5189 202.124 31.1875C201.792 30.8513 201.629 30.4489 201.634 29.9801C201.629 29.5161 201.792 29.1184 202.124 28.7869C202.46 28.4555 202.865 28.2898 203.338 28.2898C203.788 28.2898 204.183 28.4555 204.524 28.7869C204.865 29.1184 205.038 29.5161 205.043 29.9801C205.038 30.2926 204.955 30.5791 204.794 30.8395C204.638 31.0952 204.432 31.3011 204.176 31.4574C203.92 31.6089 203.641 31.6847 203.338 31.6847ZM158.007 43.09V53.728C158.007 54.712 157.773 55.42 157.305 55.852C156.837 56.284 156.063 56.5 154.983 56.5H150.717V49.966C150.609 49.978 150.495 49.984 150.375 49.984C149.823 49.984 149.373 49.828 149.025 49.516C148.677 49.204 148.503 48.772 148.503 48.22C148.503 47.656 148.671 47.218 149.007 46.906C149.343 46.582 149.799 46.42 150.375 46.42C150.963 46.42 151.425 46.594 151.761 46.942C152.097 47.278 152.265 47.764 152.265 48.4V55.222L154.965 55.204C155.565 55.204 155.961 55.078 156.153 54.826C156.357 54.574 156.459 54.178 156.459 53.638V43.09H158.007ZM150.375 49.12C150.975 49.12 151.275 48.814 151.275 48.202C151.275 47.59 150.975 47.284 150.375 47.284C149.775 47.284 149.475 47.59 149.475 48.202C149.475 48.814 149.775 49.12 150.375 49.12ZM166.813 51.514V54.646C166.813 55.27 166.645 55.756 166.309 56.104C165.973 56.452 165.511 56.626 164.923 56.626C164.347 56.626 163.891 56.464 163.555 56.14C163.219 55.816 163.051 55.378 163.051 54.826C163.051 54.274 163.219 53.842 163.555 53.53C163.903 53.218 164.359 53.062 164.923 53.062C165.043 53.062 165.157 53.068 165.265 53.08V51.928C165.265 51.592 165.193 51.346 165.049 51.19C164.905 51.034 164.641 50.944 164.257 50.92L160.333 50.632V49.174C160.333 48.322 160.591 47.644 161.107 47.14C161.635 46.624 162.355 46.366 163.267 46.366C163.675 46.366 164.011 46.384 164.275 46.42C164.539 46.456 164.785 46.498 165.013 46.546C165.241 46.582 165.499 46.6 165.787 46.6C166.039 46.6 166.285 46.594 166.525 46.582C166.777 46.558 167.011 46.522 167.227 46.474L167.425 47.77C167.197 47.83 166.969 47.872 166.741 47.896C166.513 47.908 166.255 47.914 165.967 47.914C165.583 47.914 165.163 47.878 164.707 47.806C164.263 47.722 163.861 47.68 163.501 47.68C162.949 47.68 162.541 47.812 162.277 48.076C162.013 48.34 161.881 48.706 161.881 49.174V49.48L164.923 49.732C165.595 49.78 166.075 49.96 166.363 50.272C166.663 50.572 166.813 50.986 166.813 51.514ZM164.923 53.926C164.323 53.926 164.023 54.232 164.023 54.844C164.023 55.456 164.323 55.762 164.923 55.762C165.523 55.762 165.823 55.456 165.823 54.844C165.823 54.232 165.523 53.926 164.923 53.926ZM172.514 50.434C171.602 50.434 170.864 50.248 170.3 49.876C169.736 49.492 169.454 48.976 169.454 48.328C169.454 47.872 169.604 47.494 169.904 47.194C170.216 46.882 170.642 46.726 171.182 46.726C171.674 46.726 172.076 46.864 172.388 47.14C172.712 47.416 172.874 47.782 172.874 48.238C172.874 48.406 172.844 48.586 172.784 48.778C172.724 48.958 172.628 49.126 172.496 49.282C172.568 49.294 172.646 49.3 172.73 49.3C173.306 49.3 173.816 49.138 174.26 48.814C174.704 48.478 175.064 48.01 175.34 47.41L176.546 48.058C176.138 48.85 175.604 49.444 174.944 49.84C174.296 50.236 173.486 50.434 172.514 50.434ZM171.182 48.994C171.422 48.994 171.614 48.928 171.758 48.796C171.902 48.664 171.974 48.478 171.974 48.238C171.974 47.998 171.902 47.812 171.758 47.68C171.614 47.536 171.422 47.464 171.182 47.464C170.666 47.464 170.408 47.722 170.408 48.238C170.408 48.742 170.666 48.994 171.182 48.994ZM172.514 55.852C171.602 55.852 170.864 55.66 170.3 55.276C169.736 54.892 169.454 54.382 169.454 53.746C169.454 53.29 169.604 52.912 169.904 52.612C170.216 52.3 170.642 52.144 171.182 52.144C171.674 52.144 172.076 52.282 172.388 52.558C172.712 52.834 172.874 53.2 172.874 53.656C172.874 53.824 172.844 54.004 172.784 54.196C172.724 54.376 172.628 54.544 172.496 54.7C172.568 54.712 172.646 54.718 172.73 54.718C173.306 54.718 173.816 54.556 174.26 54.232C174.704 53.896 175.064 53.428 175.34 52.828L176.546 53.476C176.138 54.268 175.604 54.862 174.944 55.258C174.296 55.654 173.486 55.852 172.514 55.852ZM171.182 54.412C171.422 54.412 171.614 54.346 171.758 54.214C171.902 54.082 171.974 53.896 171.974 53.656C171.974 53.416 171.902 53.23 171.758 53.098C171.614 52.954 171.422 52.882 171.182 52.882C170.666 52.882 170.408 53.14 170.408 53.656C170.408 54.16 170.666 54.412 171.182 54.412ZM180.375 46.546V53.08C180.483 53.068 180.597 53.062 180.717 53.062C181.281 53.062 181.731 53.218 182.067 53.53C182.415 53.842 182.589 54.274 182.589 54.826C182.589 55.378 182.421 55.816 182.085 56.14C181.749 56.464 181.293 56.626 180.717 56.626C180.129 56.626 179.667 56.452 179.331 56.104C178.995 55.756 178.827 55.27 178.827 54.646V46.546H180.375ZM180.717 53.926C180.117 53.926 179.817 54.232 179.817 54.844C179.817 55.456 180.117 55.762 180.717 55.762C181.317 55.762 181.617 55.456 181.617 54.844C181.617 54.232 181.317 53.926 180.717 53.926ZM186.278 56.5V49.966C186.17 49.978 186.056 49.984 185.936 49.984C185.384 49.984 184.934 49.828 184.586 49.516C184.238 49.204 184.064 48.772 184.064 48.22C184.064 47.656 184.232 47.218 184.568 46.906C184.904 46.582 185.36 46.42 185.936 46.42C186.524 46.42 186.986 46.594 187.322 46.942C187.658 47.278 187.826 47.764 187.826 48.4V48.814H187.844C188.168 48.034 188.612 47.434 189.176 47.014C189.752 46.582 190.418 46.366 191.174 46.366C192.086 46.366 192.776 46.624 193.244 47.14C193.712 47.644 193.946 48.322 193.946 49.174V56.5H192.398V49.372C192.398 48.844 192.278 48.43 192.038 48.13C191.81 47.818 191.432 47.662 190.904 47.662C190.46 47.662 190.046 47.812 189.662 48.112C189.29 48.412 188.966 48.82 188.69 49.336C188.414 49.84 188.198 50.416 188.042 51.064C187.898 51.7 187.826 52.366 187.826 53.062V56.5H186.278ZM185.936 49.12C186.536 49.12 186.836 48.814 186.836 48.202C186.836 47.59 186.536 47.284 185.936 47.284C185.336 47.284 185.036 47.59 185.036 48.202C185.036 48.814 185.336 49.12 185.936 49.12ZM197.074 56.5V55.042C197.074 54.454 197.032 53.938 196.948 53.494C196.876 53.05 196.798 52.588 196.714 52.108C196.63 51.628 196.588 51.046 196.588 50.362C196.588 49.054 196.978 48.064 197.758 47.392C198.538 46.708 199.636 46.366 201.052 46.366C201.568 46.366 201.994 46.396 202.33 46.456C202.678 46.504 202.984 46.558 203.248 46.618C203.512 46.666 203.776 46.69 204.04 46.69C204.46 46.69 204.832 46.648 205.156 46.564C205.492 46.468 205.828 46.33 206.164 46.15L206.578 47.77C206.242 47.902 205.852 47.968 205.408 47.968C205.168 47.968 204.916 47.932 204.652 47.86V47.896C204.88 48.148 205.054 48.442 205.174 48.778C205.306 49.114 205.372 49.48 205.372 49.876V56.5H203.824V50.038C203.824 49.234 203.566 48.64 203.05 48.256C202.546 47.86 201.886 47.662 201.07 47.662C200.158 47.662 199.438 47.902 198.91 48.382C198.394 48.85 198.136 49.54 198.136 50.452C198.136 50.884 198.148 51.244 198.172 51.532C198.208 51.82 198.244 52.084 198.28 52.324H198.298C198.55 51.688 198.922 51.148 199.414 50.704C199.906 50.26 200.446 50.038 201.034 50.038C201.634 50.038 202.108 50.2 202.456 50.524C202.804 50.836 202.978 51.274 202.978 51.838C202.978 52.39 202.81 52.822 202.474 53.134C202.15 53.446 201.706 53.602 201.142 53.602C200.77 53.602 200.422 53.506 200.098 53.314C199.774 53.11 199.552 52.81 199.432 52.414C199.216 52.642 199.024 53.014 198.856 53.53C198.7 54.034 198.622 54.634 198.622 55.33V56.5H197.074ZM201.124 52.738C201.412 52.738 201.628 52.654 201.772 52.486C201.928 52.306 202.006 52.084 202.006 51.82C202.006 51.556 201.928 51.34 201.772 51.172C201.628 50.992 201.412 50.902 201.124 50.902C200.836 50.902 200.614 50.992 200.458 51.172C200.314 51.34 200.242 51.556 200.242 51.82C200.242 52.084 200.314 52.306 200.458 52.486C200.614 52.654 200.836 52.738 201.124 52.738ZM214.034 43.09C214.034 43.822 213.824 44.494 213.404 45.106C212.996 45.706 212.336 46.252 211.424 46.744V53.08C211.532 53.068 211.646 53.062 211.766 53.062C212.33 53.062 212.78 53.218 213.116 53.53C213.464 53.842 213.638 54.274 213.638 54.826C213.638 55.378 213.47 55.816 213.134 56.14C212.798 56.464 212.342 56.626 211.766 56.626C211.178 56.626 210.716 56.452 210.38 56.104C210.044 55.756 209.876 55.27 209.876 54.646V46.06C210.704 45.688 211.346 45.262 211.802 44.782C212.258 44.302 212.486 43.768 212.486 43.18C212.486 42.712 212.396 42.328 212.216 42.028C212.048 41.716 211.82 41.5 211.532 41.38L209.894 43.648H208.796C208.568 43.096 208.274 42.598 207.914 42.154C207.566 41.71 207.17 41.284 206.726 40.876L208.022 39.958C208.37 40.39 208.652 40.798 208.868 41.182C209.096 41.554 209.276 41.92 209.408 42.28H209.48L211.028 39.958C211.904 39.958 212.624 40.24 213.188 40.804C213.752 41.368 214.034 42.13 214.034 43.09ZM211.766 53.926C211.166 53.926 210.866 54.232 210.866 54.844C210.866 55.456 211.166 55.762 211.766 55.762C212.366 55.762 212.666 55.456 212.666 54.844C212.666 54.232 212.366 53.926 211.766 53.926ZM217.356 56.5V49.966C217.248 49.978 217.134 49.984 217.014 49.984C216.462 49.984 216.012 49.828 215.664 49.516C215.316 49.204 215.142 48.772 215.142 48.22C215.142 47.656 215.31 47.218 215.646 46.906C215.982 46.582 216.438 46.42 217.014 46.42C217.602 46.42 218.064 46.594 218.4 46.942C218.736 47.278 218.904 47.764 218.904 48.4V48.814H218.922C219.246 48.034 219.69 47.434 220.254 47.014C220.83 46.582 221.496 46.366 222.252 46.366C223.164 46.366 223.854 46.624 224.322 47.14C224.79 47.644 225.024 48.322 225.024 49.174V56.5H223.476V49.372C223.476 48.844 223.356 48.43 223.116 48.13C222.888 47.818 222.51 47.662 221.982 47.662C221.538 47.662 221.124 47.812 220.74 48.112C220.368 48.412 220.044 48.82 219.768 49.336C219.492 49.84 219.276 50.416 219.12 51.064C218.976 51.7 218.904 52.366 218.904 53.062V56.5H217.356ZM217.014 49.12C217.614 49.12 217.914 48.814 217.914 48.202C217.914 47.59 217.614 47.284 217.014 47.284C216.414 47.284 216.114 47.59 216.114 48.202C216.114 48.814 216.414 49.12 217.014 49.12ZM228.044 56.5V53.962C228.044 53.314 228.164 52.798 228.404 52.414C228.656 52.03 229.034 51.79 229.538 51.694V51.676C229.07 51.52 228.674 51.184 228.35 50.668C228.026 50.14 227.864 49.546 227.864 48.886C227.864 48.094 228.038 47.488 228.386 47.068C228.734 46.636 229.244 46.42 229.916 46.42C230.48 46.42 230.924 46.582 231.248 46.906C231.584 47.218 231.752 47.656 231.752 48.22C231.752 48.772 231.584 49.204 231.248 49.516C230.912 49.828 230.462 49.984 229.898 49.984C229.694 49.984 229.508 49.954 229.34 49.894C229.376 50.218 229.538 50.482 229.826 50.686C230.126 50.89 230.534 50.992 231.05 50.992H232.04V52.198H231.158C230.57 52.198 230.156 52.354 229.916 52.666C229.688 52.978 229.574 53.368 229.574 53.836V55.204H232.742C233.342 55.204 233.738 55.078 233.93 54.826C234.134 54.574 234.236 54.178 234.236 53.638V46.546H235.766V53.728C235.766 54.712 235.532 55.42 235.064 55.852C234.596 56.284 233.822 56.5 232.742 56.5H228.044ZM229.898 49.12C230.186 49.12 230.402 49.036 230.546 48.868C230.702 48.688 230.78 48.466 230.78 48.202C230.78 47.938 230.702 47.722 230.546 47.554C230.402 47.374 230.186 47.284 229.898 47.284C229.61 47.284 229.388 47.374 229.232 47.554C229.088 47.722 229.016 47.938 229.016 48.202C229.016 48.466 229.088 48.688 229.232 48.868C229.388 49.036 229.61 49.12 229.898 49.12ZM114.374 230.204H117.074C117.674 230.204 118.07 230.078 118.262 229.826C118.466 229.574 118.568 229.178 118.568 228.638V221.546H120.116V228.728C120.116 229.712 119.882 230.42 119.414 230.852C118.946 231.284 118.172 231.5 117.092 231.5H112.826V224.966C112.718 224.978 112.604 224.984 112.484 224.984C111.932 224.984 111.482 224.828 111.134 224.516C110.786 224.204 110.612 223.772 110.612 223.22C110.612 222.656 110.78 222.218 111.116 221.906C111.452 221.582 111.908 221.42 112.484 221.42C113.072 221.42 113.534 221.594 113.87 221.942C114.206 222.278 114.374 222.764 114.374 223.4V230.204ZM112.484 224.12C113.084 224.12 113.384 223.814 113.384 223.202C113.384 222.59 113.084 222.284 112.484 222.284C111.884 222.284 111.584 222.59 111.584 223.202C111.584 223.814 111.884 224.12 112.484 224.12ZM128.741 226.514V229.646C128.741 230.27 128.573 230.756 128.237 231.104C127.901 231.452 127.439 231.626 126.851 231.626C126.275 231.626 125.819 231.464 125.483 231.14C125.147 230.816 124.979 230.378 124.979 229.826C124.979 229.274 125.147 228.842 125.483 228.53C125.831 228.218 126.287 228.062 126.851 228.062C126.971 228.062 127.085 228.068 127.193 228.08V226.928C127.193 226.592 127.121 226.346 126.977 226.19C126.833 226.034 126.569 225.944 126.185 225.92L122.261 225.632V224.174C122.261 223.322 122.519 222.644 123.035 222.14C123.563 221.624 124.283 221.366 125.195 221.366C125.603 221.366 125.939 221.384 126.203 221.42C126.467 221.456 126.713 221.498 126.941 221.546C127.169 221.582 127.427 221.6 127.715 221.6C127.967 221.6 128.213 221.594 128.453 221.582C128.705 221.558 128.939 221.522 129.155 221.474L129.353 222.77C129.125 222.83 128.897 222.872 128.669 222.896C128.441 222.908 128.183 222.914 127.895 222.914C127.511 222.914 127.091 222.878 126.635 222.806C126.191 222.722 125.789 222.68 125.429 222.68C124.877 222.68 124.469 222.812 124.205 223.076C123.941 223.34 123.809 223.706 123.809 224.174V224.48L126.851 224.732C127.523 224.78 128.003 224.96 128.291 225.272C128.591 225.572 128.741 225.986 128.741 226.514ZM126.851 228.926C126.251 228.926 125.951 229.232 125.951 229.844C125.951 230.456 126.251 230.762 126.851 230.762C127.451 230.762 127.751 230.456 127.751 229.844C127.751 229.232 127.451 228.926 126.851 228.926ZM120.96 219.98L120.906 219.35C120.906 218.438 121.218 217.73 121.842 217.226C122.478 216.71 123.312 216.452 124.344 216.452C125.064 216.452 125.718 216.578 126.306 216.83C126.894 217.082 127.41 217.412 127.854 217.82C128.31 218.216 128.682 218.636 128.97 219.08L128.826 219.98H120.96ZM122.382 218.954H127.062C126.822 218.57 126.45 218.246 125.946 217.982C125.454 217.706 124.92 217.568 124.344 217.568C123.72 217.568 123.234 217.706 122.886 217.982C122.55 218.246 122.382 218.57 122.382 218.954ZM138.745 227.702C137.797 227.702 137.011 227.54 136.387 227.216C135.763 226.88 135.451 226.394 135.451 225.758C135.451 225.338 135.589 224.984 135.865 224.696C136.153 224.396 136.567 224.246 137.107 224.246C137.599 224.246 137.989 224.384 138.277 224.66C138.577 224.924 138.727 225.284 138.727 225.74C138.727 225.836 138.709 225.95 138.673 226.082C138.649 226.214 138.607 226.346 138.547 226.478C138.655 226.49 138.781 226.496 138.925 226.496C139.057 226.496 139.189 226.49 139.321 226.478V221.546H140.869V225.902C141.397 225.554 141.847 225.086 142.219 224.498L143.335 225.182C143.071 225.626 142.729 226.034 142.309 226.406C141.889 226.766 141.409 227.06 140.869 227.288V228.728C140.869 229.712 140.635 230.42 140.167 230.852C139.699 231.284 138.925 231.5 137.845 231.5H133.291V224.966C133.183 224.978 133.069 224.984 132.949 224.984C132.397 224.984 131.947 224.828 131.599 224.516C131.251 224.204 131.077 223.772 131.077 223.22C131.077 222.656 131.245 222.218 131.581 221.906C131.917 221.582 132.373 221.42 132.949 221.42C133.537 221.42 133.999 221.594 134.335 221.942C134.671 222.278 134.839 222.764 134.839 223.4V230.204H137.827C138.427 230.204 138.823 230.078 139.015 229.826C139.219 229.574 139.321 229.178 139.321 228.638V227.666C139.129 227.69 138.937 227.702 138.745 227.702ZM132.949 224.12C133.549 224.12 133.849 223.814 133.849 223.202C133.849 222.59 133.549 222.284 132.949 222.284C132.349 222.284 132.049 222.59 132.049 223.202C132.049 223.814 132.349 224.12 132.949 224.12ZM137.107 226.424C137.599 226.424 137.845 226.19 137.845 225.722C137.845 225.242 137.599 225.002 137.107 225.002C136.627 225.002 136.387 225.242 136.387 225.722C136.387 226.19 136.627 226.424 137.107 226.424ZM138.517 220.07C137.593 220.07 136.819 219.896 136.195 219.548C135.571 219.2 135.259 218.648 135.259 217.892C135.259 217.424 135.409 217.028 135.709 216.704C136.009 216.368 136.435 216.2 136.987 216.2C137.479 216.2 137.893 216.35 138.229 216.65C138.565 216.95 138.733 217.346 138.733 217.838C138.733 218.246 138.619 218.606 138.391 218.918C138.475 218.93 138.571 218.936 138.679 218.936C139.267 218.936 139.819 218.774 140.335 218.45C140.863 218.114 141.301 217.646 141.649 217.046L142.855 217.694C142.483 218.414 141.925 218.99 141.181 219.422C140.437 219.854 139.549 220.07 138.517 220.07ZM136.987 218.648C137.227 218.648 137.407 218.576 137.527 218.432C137.659 218.276 137.725 218.078 137.725 217.838C137.725 217.598 137.659 217.4 137.527 217.244C137.407 217.088 137.227 217.01 136.987 217.01C136.759 217.01 136.579 217.088 136.447 217.244C136.327 217.4 136.267 217.598 136.267 217.838C136.267 218.078 136.327 218.276 136.447 218.432C136.579 218.576 136.759 218.648 136.987 218.648ZM146.028 231.5V224.966C145.92 224.978 145.806 224.984 145.686 224.984C145.134 224.984 144.684 224.828 144.336 224.516C143.988 224.204 143.814 223.772 143.814 223.22C143.814 222.656 143.982 222.218 144.318 221.906C144.654 221.582 145.11 221.42 145.686 221.42C146.274 221.42 146.736 221.594 147.072 221.942C147.408 222.278 147.576 222.764 147.576 223.4V223.814H147.594C147.918 223.034 148.362 222.434 148.926 222.014C149.502 221.582 150.168 221.366 150.924 221.366C151.836 221.366 152.526 221.624 152.994 222.14C153.462 222.644 153.696 223.322 153.696 224.174V231.5H152.148V224.372C152.148 223.844 152.028 223.43 151.788 223.13C151.56 222.818 151.182 222.662 150.654 222.662C150.21 222.662 149.796 222.812 149.412 223.112C149.04 223.412 148.716 223.82 148.44 224.336C148.164 224.84 147.948 225.416 147.792 226.064C147.648 226.7 147.576 227.366 147.576 228.062V231.5H146.028ZM145.686 224.12C146.286 224.12 146.586 223.814 146.586 223.202C146.586 222.59 146.286 222.284 145.686 222.284C145.086 222.284 144.786 222.59 144.786 223.202C144.786 223.814 145.086 224.12 145.686 224.12ZM158.408 214.904C159.104 214.904 159.686 215.048 160.154 215.336C160.634 215.612 160.994 215.978 161.234 216.434C161.486 216.89 161.612 217.394 161.612 217.946C161.612 218.774 161.414 219.482 161.018 220.07C160.622 220.646 160.076 221.174 159.38 221.654V228.08C159.488 228.068 159.602 228.062 159.722 228.062C160.286 228.062 160.736 228.218 161.072 228.53C161.42 228.842 161.594 229.274 161.594 229.826C161.594 230.378 161.426 230.816 161.09 231.14C160.754 231.464 160.298 231.626 159.722 231.626C159.134 231.626 158.672 231.452 158.336 231.104C158 230.756 157.832 230.27 157.832 229.646V220.97C158.576 220.538 159.134 220.112 159.506 219.692C159.878 219.26 160.064 218.696 160.064 218C160.064 217.508 159.908 217.082 159.596 216.722C159.296 216.362 158.852 216.182 158.264 216.182C157.832 216.182 157.484 216.284 157.22 216.488C157.628 216.548 157.964 216.734 158.228 217.046C158.504 217.346 158.642 217.7 158.642 218.108C158.642 218.588 158.48 218.99 158.156 219.314C157.832 219.638 157.43 219.8 156.95 219.8C156.434 219.8 156.002 219.626 155.654 219.278C155.318 218.93 155.15 218.474 155.15 217.91C155.15 217.034 155.444 216.314 156.032 215.75C156.632 215.186 157.424 214.904 158.408 214.904ZM156.95 218.918C157.178 218.918 157.364 218.846 157.508 218.702C157.652 218.546 157.724 218.354 157.724 218.126C157.724 217.91 157.652 217.73 157.508 217.586C157.364 217.43 157.178 217.352 156.95 217.352C156.722 217.352 156.53 217.43 156.374 217.586C156.23 217.73 156.158 217.91 156.158 218.126C156.158 218.354 156.23 218.546 156.374 218.702C156.53 218.846 156.722 218.918 156.95 218.918ZM159.722 228.926C159.122 228.926 158.822 229.232 158.822 229.844C158.822 230.456 159.122 230.762 159.722 230.762C160.322 230.762 160.622 230.456 160.622 229.844C160.622 229.232 160.322 228.926 159.722 228.926ZM166.534 226.964C166.534 227.18 166.528 227.396 166.516 227.612C166.504 227.816 166.492 228.026 166.48 228.242H166.516C166.744 227.726 167.008 227.228 167.308 226.748C167.62 226.256 167.956 225.83 168.316 225.47C168.688 225.11 169.066 224.852 169.45 224.696C169.198 224.528 169 224.3 168.856 224.012C168.712 223.724 168.64 223.448 168.64 223.184C168.64 222.632 168.826 222.2 169.198 221.888C169.582 221.576 170.056 221.42 170.62 221.42C171.184 221.42 171.652 221.576 172.024 221.888C172.408 222.2 172.6 222.632 172.6 223.184C172.6 223.46 172.51 223.748 172.33 224.048C172.162 224.336 171.934 224.564 171.646 224.732C171.91 224.888 172.108 225.104 172.24 225.38C172.372 225.644 172.438 225.914 172.438 226.19V231.5H170.89V226.262C170.89 225.854 170.71 225.65 170.35 225.65C170.074 225.65 169.696 225.86 169.216 226.28C168.748 226.7 168.262 227.342 167.758 228.206C167.254 229.07 166.816 230.168 166.444 231.5H164.986V224.966C164.878 224.978 164.764 224.984 164.644 224.984C164.092 224.984 163.642 224.828 163.294 224.516C162.946 224.204 162.772 223.772 162.772 223.22C162.772 222.656 162.94 222.218 163.276 221.906C163.612 221.582 164.068 221.42 164.644 221.42C165.232 221.42 165.694 221.594 166.03 221.942C166.366 222.278 166.534 222.764 166.534 223.4V226.964ZM164.644 224.12C165.244 224.12 165.544 223.814 165.544 223.202C165.544 222.59 165.244 222.284 164.644 222.284C164.044 222.284 163.744 222.59 163.744 223.202C163.744 223.814 164.044 224.12 164.644 224.12ZM169.72 223.184C169.72 223.412 169.798 223.616 169.954 223.796C170.122 223.976 170.344 224.12 170.62 224.228C170.896 224.12 171.112 223.976 171.268 223.796C171.436 223.616 171.52 223.412 171.52 223.184C171.52 222.944 171.436 222.746 171.268 222.59C171.1 222.434 170.884 222.356 170.62 222.356C170.356 222.356 170.14 222.434 169.972 222.59C169.804 222.746 169.72 222.944 169.72 223.184ZM176.958 231.626C176.37 231.626 175.908 231.452 175.572 231.104C175.236 230.756 175.068 230.27 175.068 229.646V227.918C175.068 227.186 175.23 226.652 175.554 226.316C175.89 225.968 176.322 225.758 176.85 225.686V225.65L174.762 224.93V224.336C174.762 223.796 174.924 223.304 175.248 222.86C175.572 222.404 176.034 222.044 176.634 221.78C177.246 221.504 177.966 221.366 178.794 221.366C179.538 221.366 180.21 221.486 180.81 221.726C181.422 221.966 181.902 222.338 182.25 222.842C182.61 223.346 182.79 224 182.79 224.804V230.204H184.842C185.442 230.204 185.838 230.078 186.03 229.826C186.234 229.574 186.336 229.178 186.336 228.638V221.546H187.884V228.728C187.884 229.712 187.65 230.42 187.182 230.852C186.714 231.284 185.94 231.5 184.86 231.5H181.242V224.966C181.242 224.162 181.014 223.58 180.558 223.22C180.102 222.848 179.514 222.662 178.794 222.662C178.05 222.662 177.474 222.818 177.066 223.13C176.658 223.43 176.412 223.862 176.328 224.426L178.452 225.2L178.272 226.262C177.792 226.262 177.396 226.37 177.084 226.586C176.772 226.802 176.616 227.186 176.616 227.738V228.08C176.724 228.068 176.838 228.062 176.958 228.062C177.522 228.062 177.972 228.218 178.308 228.53C178.656 228.842 178.83 229.274 178.83 229.826C178.83 230.378 178.662 230.816 178.326 231.14C177.99 231.464 177.534 231.626 176.958 231.626ZM176.958 230.762C177.558 230.762 177.858 230.456 177.858 229.844C177.858 229.232 177.558 228.926 176.958 228.926C176.358 228.926 176.058 229.232 176.058 229.844C176.058 230.456 176.358 230.762 176.958 230.762ZM184.302 235.928C183.378 235.928 182.622 235.766 182.034 235.442C181.446 235.118 181.152 234.608 181.152 233.912C181.152 233.468 181.296 233.102 181.584 232.814C181.884 232.526 182.304 232.382 182.844 232.382C183.336 232.382 183.732 232.514 184.032 232.778C184.344 233.042 184.5 233.402 184.5 233.858C184.5 234.182 184.392 234.488 184.176 234.776C184.248 234.788 184.332 234.794 184.428 234.794C184.992 234.794 185.52 234.644 186.012 234.344C186.504 234.056 186.924 233.594 187.272 232.958L188.478 233.606C188.106 234.362 187.572 234.938 186.876 235.334C186.18 235.73 185.322 235.928 184.302 235.928ZM182.844 234.578C183.348 234.578 183.6 234.338 183.6 233.858C183.6 233.366 183.348 233.12 182.844 233.12C182.352 233.12 182.106 233.366 182.106 233.858C182.106 234.338 182.352 234.578 182.844 234.578ZM186.234 219.98L186.144 218.072V216.704H187.728V218.072L187.638 219.98H186.234ZM192.222 221.546V228.08C192.33 228.068 192.444 228.062 192.564 228.062C193.128 228.062 193.578 228.218 193.914 228.53C194.262 228.842 194.436 229.274 194.436 229.826C194.436 230.378 194.268 230.816 193.932 231.14C193.596 231.464 193.14 231.626 192.564 231.626C191.976 231.626 191.514 231.452 191.178 231.104C190.842 230.756 190.674 230.27 190.674 229.646V221.546H192.222ZM192.564 228.926C191.964 228.926 191.664 229.232 191.664 229.844C191.664 230.456 191.964 230.762 192.564 230.762C193.164 230.762 193.464 230.456 193.464 229.844C193.464 229.232 193.164 228.926 192.564 228.926ZM197.982 231.5V224.948C197.862 224.972 197.736 224.984 197.604 224.984C197.052 224.984 196.602 224.828 196.254 224.516C195.906 224.204 195.732 223.772 195.732 223.22C195.732 222.656 195.9 222.218 196.236 221.906C196.572 221.582 197.028 221.42 197.604 221.42C198.192 221.42 198.654 221.594 198.99 221.942C199.326 222.278 199.494 222.764 199.494 223.4V226.964C199.494 227.276 199.482 227.582 199.458 227.882C199.446 228.182 199.422 228.482 199.386 228.782H199.422L201.816 221.906H202.536L205.236 228.782H205.29C205.254 228.482 205.224 228.182 205.2 227.882C205.188 227.582 205.182 227.276 205.182 226.964V221.546H206.694V231.5H205.02L202.212 224.39H202.158L199.728 231.5H197.982ZM197.604 224.12C198.204 224.12 198.504 223.814 198.504 223.202C198.504 222.59 198.204 222.284 197.604 222.284C197.004 222.284 196.704 222.59 196.704 223.202C196.704 223.814 197.004 224.12 197.604 224.12ZM198.596 219.98L198.542 219.35C198.542 218.438 198.806 217.73 199.334 217.226C199.874 216.71 200.642 216.452 201.638 216.452C202.382 216.452 203.042 216.59 203.618 216.866C204.206 217.13 204.71 217.484 205.13 217.928V216.452H206.516V219.98H198.596ZM200.018 218.954H204.734C204.41 218.606 203.984 218.288 203.456 218C202.94 217.712 202.376 217.568 201.764 217.568C201.176 217.568 200.738 217.706 200.45 217.982C200.162 218.246 200.018 218.57 200.018 218.954ZM209.451 231.5V228.962C209.451 228.314 209.571 227.798 209.811 227.414C210.063 227.03 210.441 226.79 210.945 226.694V226.676C210.477 226.52 210.081 226.184 209.757 225.668C209.433 225.14 209.271 224.546 209.271 223.886C209.271 223.094 209.445 222.488 209.793 222.068C210.141 221.636 210.651 221.42 211.323 221.42C211.887 221.42 212.331 221.582 212.655 221.906C212.991 222.218 213.159 222.656 213.159 223.22C213.159 223.772 212.991 224.204 212.655 224.516C212.319 224.828 211.869 224.984 211.305 224.984C211.101 224.984 210.915 224.954 210.747 224.894C210.783 225.218 210.945 225.482 211.233 225.686C211.533 225.89 211.941 225.992 212.457 225.992H213.447V227.198H212.565C211.977 227.198 211.563 227.354 211.323 227.666C211.095 227.978 210.981 228.368 210.981 228.836V230.204H214.149C214.749 230.204 215.145 230.078 215.337 229.826C215.541 229.574 215.643 229.178 215.643 228.638V221.546H217.173V228.728C217.173 229.712 216.939 230.42 216.471 230.852C216.003 231.284 215.229 231.5 214.149 231.5H209.451ZM211.305 224.12C211.593 224.12 211.809 224.036 211.953 223.868C212.109 223.688 212.187 223.466 212.187 223.202C212.187 222.938 212.109 222.722 211.953 222.554C211.809 222.374 211.593 222.284 211.305 222.284C211.017 222.284 210.795 222.374 210.639 222.554C210.495 222.722 210.423 222.938 210.423 223.202C210.423 223.466 210.495 223.688 210.639 223.868C210.795 224.036 211.017 224.12 211.305 224.12ZM226.4 229.088C226.4 229.952 226.166 230.57 225.698 230.942C225.242 231.314 224.606 231.5 223.79 231.5H221.864C221.564 230.312 221.204 229.154 220.784 228.026C220.364 226.886 219.854 225.722 219.254 224.534L220.622 223.958C221.15 224.942 221.618 225.962 222.026 227.018C222.434 228.074 222.752 229.136 222.98 230.204H223.754C224.174 230.204 224.462 230.108 224.618 229.916C224.774 229.712 224.852 229.4 224.852 228.98V224.966C224.744 224.978 224.63 224.984 224.51 224.984C223.958 224.984 223.508 224.828 223.16 224.516C222.812 224.204 222.638 223.772 222.638 223.22C222.638 222.656 222.806 222.218 223.142 221.906C223.478 221.582 223.934 221.42 224.51 221.42C225.098 221.42 225.56 221.594 225.896 221.942C226.232 222.278 226.4 222.764 226.4 223.4V229.088ZM224.51 224.12C225.11 224.12 225.41 223.814 225.41 223.202C225.41 222.59 225.11 222.284 224.51 222.284C223.91 222.284 223.61 222.59 223.61 223.202C223.61 223.814 223.91 224.12 224.51 224.12ZM241.632 231.5H233.136V230.186L236.502 226.784C237.15 226.136 237.696 225.56 238.14 225.056C238.584 224.552 238.92 224.06 239.148 223.58C239.376 223.088 239.49 222.554 239.49 221.978C239.49 221.27 239.28 220.736 238.86 220.376C238.44 220.004 237.894 219.818 237.222 219.818C236.598 219.818 236.046 219.926 235.566 220.142C235.098 220.358 234.618 220.658 234.126 221.042L233.28 219.98C233.784 219.56 234.36 219.206 235.008 218.918C235.668 218.618 236.406 218.468 237.222 218.468C238.422 218.468 239.37 218.774 240.066 219.386C240.762 219.986 241.11 220.82 241.11 221.888C241.11 222.56 240.972 223.19 240.696 223.778C240.42 224.366 240.036 224.948 239.544 225.524C239.052 226.088 238.476 226.694 237.816 227.342L235.134 229.988V230.06H241.632V231.5ZM254.142 226.514V229.646C254.142 230.27 253.974 230.756 253.638 231.104C253.302 231.452 252.84 231.626 252.252 231.626C251.676 231.626 251.22 231.464 250.884 231.14C250.548 230.816 250.38 230.378 250.38 229.826C250.38 229.274 250.548 228.842 250.884 228.53C251.232 228.218 251.688 228.062 252.252 228.062C252.372 228.062 252.486 228.068 252.594 228.08V226.928C252.594 226.592 252.522 226.346 252.378 226.19C252.234 226.034 251.97 225.944 251.586 225.92L247.662 225.632V224.174C247.662 223.322 247.92 222.644 248.436 222.14C248.964 221.624 249.684 221.366 250.596 221.366C251.004 221.366 251.34 221.384 251.604 221.42C251.868 221.456 252.114 221.498 252.342 221.546C252.57 221.582 252.828 221.6 253.116 221.6C253.368 221.6 253.614 221.594 253.854 221.582C254.106 221.558 254.34 221.522 254.556 221.474L254.754 222.77C254.526 222.83 254.298 222.872 254.07 222.896C253.842 222.908 253.584 222.914 253.296 222.914C252.912 222.914 252.492 222.878 252.036 222.806C251.592 222.722 251.19 222.68 250.83 222.68C250.278 222.68 249.87 222.812 249.606 223.076C249.342 223.34 249.21 223.706 249.21 224.174V224.48L252.252 224.732C252.924 224.78 253.404 224.96 253.692 225.272C253.992 225.572 254.142 225.986 254.142 226.514ZM252.252 228.926C251.652 228.926 251.352 229.232 251.352 229.844C251.352 230.456 251.652 230.762 252.252 230.762C252.852 230.762 253.152 230.456 253.152 229.844C253.152 229.232 252.852 228.926 252.252 228.926ZM256.856 223.238L256.352 222.05C256.724 221.87 257.18 221.714 257.72 221.582C258.26 221.438 258.824 221.366 259.412 221.366C261.812 221.366 263.012 222.494 263.012 224.75V231.5H261.464V224.912C261.464 224.18 261.308 223.622 260.996 223.238C260.684 222.854 260.114 222.662 259.286 222.662C258.878 222.662 258.458 222.716 258.026 222.824C257.594 222.932 257.204 223.07 256.856 223.238ZM265.935 231.5V228.962C265.935 228.314 266.055 227.798 266.295 227.414C266.547 227.03 266.925 226.79 267.429 226.694V226.676C266.961 226.52 266.565 226.184 266.241 225.668C265.917 225.14 265.755 224.546 265.755 223.886C265.755 223.094 265.929 222.488 266.277 222.068C266.625 221.636 267.135 221.42 267.807 221.42C268.371 221.42 268.815 221.582 269.139 221.906C269.475 222.218 269.643 222.656 269.643 223.22C269.643 223.772 269.475 224.204 269.139 224.516C268.803 224.828 268.353 224.984 267.789 224.984C267.585 224.984 267.399 224.954 267.231 224.894C267.267 225.218 267.429 225.482 267.717 225.686C268.017 225.89 268.425 225.992 268.941 225.992H269.931V227.198H269.049C268.461 227.198 268.047 227.354 267.807 227.666C267.579 227.978 267.465 228.368 267.465 228.836V230.204H270.633C271.233 230.204 271.629 230.078 271.821 229.826C272.025 229.574 272.127 229.178 272.127 228.638V221.546H273.657V228.728C273.657 229.712 273.423 230.42 272.955 230.852C272.487 231.284 271.713 231.5 270.633 231.5H265.935ZM267.789 224.12C268.077 224.12 268.293 224.036 268.437 223.868C268.593 223.688 268.671 223.466 268.671 223.202C268.671 222.938 268.593 222.722 268.437 222.554C268.293 222.374 268.077 222.284 267.789 222.284C267.501 222.284 267.279 222.374 267.123 222.554C266.979 222.722 266.907 222.938 266.907 223.202C266.907 223.466 266.979 223.688 267.123 223.868C267.279 224.036 267.501 224.12 267.789 224.12Z" fill="white"/>
<g clip-path="url(#clip0_817_2731)">
<path d="M205.15 108.92C202.05 104.71 199.5 100.68 199.5 94.76V82.76H200.28C200.5 82.7774 200.721 82.7491 200.93 82.6769C201.139 82.6047 201.33 82.49 201.492 82.3402C201.654 82.1904 201.784 82.0086 201.872 81.8064C201.961 81.6041 202.006 81.3858 202.006 81.165C202.006 80.9442 201.961 80.7259 201.872 80.5236C201.784 80.3214 201.654 80.1396 201.492 79.9898C201.33 79.84 201.139 79.7253 200.93 79.6531C200.721 79.5809 200.5 79.5526 200.28 79.57H201.47V71.96C201.467 71.5719 201.311 71.2005 201.036 70.927C200.761 70.6535 200.388 70.5 200 70.5H185.31C184.924 70.5026 184.554 70.6573 184.281 70.9305C184.007 71.2038 183.853 71.5736 183.85 71.96V74.38V79.5H185C184.78 79.4826 184.559 79.5109 184.35 79.5831C184.141 79.6553 183.95 79.77 183.788 79.9198C183.626 80.0696 183.496 80.2514 183.408 80.4536C183.319 80.6559 183.274 80.8742 183.274 81.095C183.274 81.3158 183.319 81.5341 183.408 81.7364C183.496 81.9386 183.626 82.1204 183.788 82.2702C183.95 82.42 184.141 82.5347 184.35 82.6069C184.559 82.6791 184.78 82.7074 185 82.69H185.77V94.76C185.81 109.97 169 112.75 169 138.01V195.5C168.969 196.021 169.06 196.543 169.265 197.024C169.469 197.504 169.783 197.931 170.18 198.27C171.277 198.907 172.474 199.354 173.72 199.59C181.22 201.22 195.43 201.87 207.39 200.25C209.473 199.963 211.525 199.484 213.52 198.82C215.59 197.9 216.32 196.91 216.32 195.07V138.07C216.32 122.57 210 115.5 205.15 108.92Z" fill="black" stroke="black" stroke-width="2" stroke-linecap="round" stroke-linejoin="round"/>
</g>
<defs>
<clipPath id="clip0_817_2731">
<rect width="49.32" height="132.66" fill="white" transform="translate(168 69.5)"/>
</clipPath>
</defs>
</svg>
