<svg width="87" height="190" viewBox="0 0 87 190" fill="none" xmlns="http://www.w3.org/2000/svg">
<path d="M43.2442 184.645C65.3355 184.645 83.244 179.662 83.244 173.516C83.244 167.369 65.3355 162.386 43.2442 162.386C21.1529 162.386 3.24438 167.369 3.24438 173.516C3.24438 179.662 21.1529 184.645 43.2442 184.645Z" fill="#2D6076"/>
<path d="M74.023 76.9826C71.8021 71.9755 70.6892 70.3032 66.2476 66.9635C63.1026 64.6043 58.4722 62.5089 56.8028 61.2247C55.1384 59.9406 55.1384 56.3869 55.1384 54.1621V33.5714C55.1384 33.0139 56.2513 33.0139 56.2513 32.4565V24.6671C56.2513 24.1097 56.8078 24.1097 56.8078 22.9998C56.8078 21.8899 56.2513 22.4423 56.2513 21.3324C56.2513 20.2225 56.2513 15.2104 55.6949 12.9856C55.1384 10.7608 43.4729 10.2034 43.4729 10.2034C43.4729 10.2034 31.8073 10.7608 31.2508 12.9856C30.6944 15.2104 30.6944 20.2225 30.6944 21.3324C30.6944 22.4423 30.1379 21.8899 30.1379 22.9998C30.1379 24.1097 30.6944 24.1147 30.6944 24.6671V32.4565C30.6944 33.0139 31.8073 33.0139 31.8073 33.5714V54.1621C31.8073 56.3869 31.8073 59.9356 30.1429 61.2247C28.4785 62.5089 23.8431 64.6043 20.6981 66.9635C16.2515 70.3032 15.1436 71.9705 12.9227 76.9826C10.995 81.3277 10.7019 83.1046 10.7019 88.1116V166.582C10.7019 169.922 11.8148 174.372 16.8129 176.044C21.811 177.711 43.4778 179.12 43.4778 179.12C43.4778 179.12 65.1446 177.716 70.1427 176.044C75.1408 174.377 76.2537 169.922 76.2537 166.582V88.1116C76.2537 83.1046 75.9606 81.3277 74.0329 76.9826H74.023Z" fill="#D2D4D3"/>
<path d="M43.4727 179.866H43.423C42.5337 179.807 21.6022 178.433 16.5693 176.751C10.811 174.829 9.94653 169.554 9.94653 166.582V88.1116C9.94653 83.0946 10.2148 81.2231 12.232 76.6789C14.5124 71.5375 15.6949 69.7855 20.2409 66.3661C22.0642 64.9974 24.3099 63.7531 26.2972 62.6531C27.748 61.8518 29 61.155 29.6806 60.6324C31.0569 59.5723 31.0569 56.1828 31.0569 54.162V33.7555C31.0121 33.7306 30.9575 33.7007 30.9128 33.6808C30.5749 33.5116 29.944 33.198 29.944 32.4564V24.6671C29.944 24.6671 29.9042 24.6123 29.8744 24.5725C29.6906 24.3137 29.3875 23.8857 29.3875 22.9947C29.3875 22.273 29.5763 21.9396 29.8843 21.631C29.8993 21.6161 29.9142 21.6061 29.9241 21.5862C29.9241 21.5862 29.944 21.5165 29.944 21.3224C29.944 17.256 30.1427 14.3095 30.5203 12.7915C31.1413 10.2979 39.7564 9.62098 43.4279 9.44678H43.4627H43.4975C47.1691 9.62098 55.7841 10.2979 56.4052 12.7915C56.7827 14.3045 56.9815 17.256 56.9815 21.3224C56.9815 21.5314 57.0063 21.6011 57.0063 21.6011C57.0063 21.6011 57.0262 21.6161 57.0411 21.626C57.3491 21.9346 57.5379 22.2681 57.5379 22.9898C57.5379 23.8807 57.2349 24.3087 57.051 24.5675C57.0212 24.6074 56.9914 24.6422 56.9765 24.682V32.4514C56.9815 33.193 56.3555 33.5066 56.0176 33.6758C55.9729 33.6957 55.9232 33.7256 55.8736 33.7505V54.1571C55.8736 56.1778 55.8736 59.5673 57.2498 60.6274C57.9255 61.15 59.1824 61.8419 60.6332 62.6482C62.6155 63.7481 64.8662 64.9924 66.6895 66.3612C71.2355 69.7805 72.418 71.5275 74.6985 76.674C76.7156 81.2231 76.9839 83.0896 76.9839 88.1066V166.577C76.9839 169.549 76.1244 174.825 70.3611 176.746C65.3282 178.428 44.3968 179.802 43.5074 179.856H43.4578L43.4727 179.866ZM31.4394 32.2772C31.4841 32.3021 31.5388 32.332 31.5835 32.3519C31.9213 32.5211 32.5523 32.8347 32.5523 33.5763V54.167C32.5523 56.6108 32.5523 60.3089 30.5948 61.822C29.8297 62.4142 28.528 63.131 27.0276 63.9671C25.085 65.0422 22.884 66.2616 21.1451 67.5657C16.778 70.8456 15.7545 72.4383 13.6032 77.2911C11.7699 81.4272 11.447 83.0448 11.447 88.1166V166.587C11.447 169.728 12.4207 173.794 17.0462 175.337C21.786 176.92 42.33 178.299 43.4776 178.373C44.6203 178.299 65.1693 176.92 69.909 175.337C74.5395 173.789 75.5083 169.723 75.5083 166.587V88.1166C75.5083 83.0448 75.1854 81.4272 73.3521 77.2911C71.2008 72.4383 70.1773 70.8506 65.8102 67.5657C64.0713 66.2567 61.8703 65.0422 59.9277 63.9671C58.4223 63.1359 57.1256 62.4142 56.3555 61.822C54.398 60.3139 54.398 56.6158 54.398 54.167V33.5763C54.398 32.8347 55.0289 32.5211 55.3668 32.3519C55.4115 32.332 55.4612 32.3021 55.5109 32.2772V24.6721C55.5109 24.2042 55.7195 23.9106 55.8537 23.7164C55.9829 23.5373 56.0673 23.4178 56.0673 22.9997C56.0673 22.7907 56.0425 22.721 56.0425 22.721C56.0425 22.721 56.0226 22.7061 56.0077 22.6961C55.6997 22.3875 55.5109 22.0541 55.5109 21.3324C55.5109 17.4452 55.3221 14.5434 54.9793 13.1648C54.6663 12.2639 49.2955 11.2286 43.4826 10.9499C37.6647 11.2286 32.2989 12.2639 31.9859 13.1697C31.6431 14.5434 31.4543 17.4452 31.4543 21.3324C31.4543 22.0541 31.2655 22.3875 30.9575 22.6961C30.9426 22.711 30.9277 22.721 30.9178 22.7409C30.9178 22.7409 30.8979 22.8106 30.8979 23.0047C30.8979 23.4178 30.9823 23.5373 31.1115 23.7214C31.2506 23.9155 31.4543 24.2092 31.4543 24.677V32.2822L31.4394 32.2772Z" fill="black"/>
<path d="M30.9725 22.9996C30.9725 22.9996 37.0835 22.4422 42.0816 22.4422C47.0797 22.4422 55.968 22.9996 55.968 22.9996C55.968 22.9996 56.2761 13.1696 55.0092 12.5176C53.7422 11.8706 45.9668 10.1982 43.4678 10.1982C40.9687 10.1982 31.2458 12.9805 31.2458 12.9805L30.9675 22.9996H30.9725Z" fill="#F09B5C"/>
<path d="M30.2024 23.821L30.5204 12.4182L31.047 12.2689C31.4494 12.1544 40.8992 9.45679 43.4727 9.45679C46.0463 9.45679 53.9559 11.1391 55.3569 11.8558C55.7743 12.0698 57.0412 12.7218 56.7182 23.0247L56.6934 23.7961L55.9283 23.7464C55.8388 23.7414 47.0052 23.1889 42.0866 23.1889C37.168 23.1889 31.1017 23.7364 31.042 23.7414L30.2074 23.816L30.2024 23.821ZM42.0816 21.7007C46.1854 21.7007 52.9672 22.079 55.2427 22.2134C55.3271 18.2565 55.1184 13.9064 54.6117 13.1598C53.305 12.5626 45.8774 10.95 43.4727 10.95C41.6245 10.95 34.9918 12.7069 31.981 13.553L31.7426 22.1885C33.5957 22.0392 38.1964 21.7007 42.0866 21.7007H42.0816Z" fill="black"/>
<path d="M31.2507 26.0605H56.2512L56.0277 29.4699L42.9213 29.4003H31.2557V26.0605H31.2507Z" fill="#F09B5C"/>
<path d="M56.7231 30.2215L42.9112 30.1468H30.5054V25.314H57.0461L56.7231 30.2215ZM31.9959 28.6537H42.9162L55.327 28.7234L55.4512 26.8071H31.9959V28.6537Z" fill="black"/>
<path d="M38.9914 11.3631L37.9182 49.9912C37.9182 49.9912 40.6955 51.1061 42.9163 51.1061C45.1372 51.1061 49.5838 49.9912 49.5838 49.9912L48.8485 11.2585L43.4728 10.2034L38.9914 11.368V11.3631Z" fill="#F3F1DD"/>
<path d="M42.9162 51.8525C40.5762 51.8525 37.7591 50.7327 37.6399 50.6879L37.158 50.4938L38.2659 10.7856L43.4528 9.43677L49.5837 10.6413L50.3438 50.5734L49.7675 50.7177C49.5837 50.7625 45.2066 51.8525 42.9212 51.8525H42.9162ZM38.6783 49.4784C39.5427 49.782 41.3959 50.3594 42.9162 50.3594C44.5607 50.3594 47.5715 49.6974 48.8285 49.4087L48.118 11.8756L43.4975 10.9697L39.7266 11.9503L38.6832 49.4784H38.6783Z" fill="black"/>
<path d="M15.4763 120.707L15.6949 162.302C15.6949 163.218 16.3805 163.989 17.2897 164.104C21.801 164.661 34.9421 166.189 43.4578 166.274C52.0232 166.363 64.8414 164.138 69.1241 163.347C69.9687 163.193 70.5897 162.461 70.6146 161.6L71.6728 120.558C71.7026 119.483 70.8034 118.622 69.7302 118.691L63.1969 119.129C62.874 119.149 62.551 119.09 62.2629 118.94C60.5289 118.064 53.6478 114.899 44.6751 114.804C35.429 114.71 25.5918 118.448 23.5051 119.289C23.2318 119.398 22.9437 119.438 22.6506 119.408L17.4835 118.886C16.4054 118.776 15.4763 119.627 15.4813 120.707H15.4763Z" fill="#F3F1DD"/>
<path d="M43.9596 167.02C43.7857 167.02 43.6168 167.02 43.4478 167.02C35.0266 166.936 22.2829 165.472 17.1953 164.845C15.9185 164.686 14.9546 163.596 14.9447 162.307L14.7261 120.712C14.7261 119.985 15.0291 119.284 15.5657 118.796C16.1023 118.308 16.8277 118.069 17.5481 118.139L22.7151 118.662C22.889 118.681 23.0579 118.657 23.2219 118.592C25.1496 117.815 35.2303 113.968 44.675 114.053C53.7372 114.147 60.6779 117.303 62.5907 118.268C62.7597 118.353 62.9435 118.393 63.1372 118.378L69.6706 117.94C70.386 117.895 71.0965 118.149 71.6181 118.652C72.1398 119.154 72.423 119.851 72.4081 120.573L71.3499 161.615C71.32 162.819 70.4357 163.855 69.2532 164.074C64.4191 164.97 52.4156 167.015 43.9596 167.015V167.02ZM17.2897 119.622C17.0214 119.622 16.773 119.722 16.5693 119.901C16.3408 120.11 16.2166 120.394 16.2166 120.702L16.4352 162.297C16.4352 162.839 16.8426 163.292 17.3742 163.357C22.4369 163.979 35.111 165.437 43.4578 165.522C52.0182 165.612 65.1643 163.312 68.98 162.605C69.4768 162.516 69.8445 162.078 69.8594 161.575L70.9176 120.533C70.9276 120.224 70.8083 119.941 70.5847 119.727C70.3612 119.513 70.078 119.408 69.7699 119.428L63.2366 119.866C62.7795 119.896 62.3274 119.806 61.92 119.597C60.0817 118.667 53.3994 115.63 44.6601 115.541C44.5508 115.541 44.4365 115.541 44.3223 115.541C35.2601 115.541 25.6315 119.229 23.7734 119.976C23.3858 120.13 22.9784 120.19 22.5661 120.145L17.399 119.622C17.3593 119.622 17.3245 119.617 17.2848 119.617L17.2897 119.622Z" fill="black"/>
<path d="M29.8545 61.0304C29.467 61.8815 29.8545 62.7923 30.7289 63.1457C31.6779 63.524 32.5324 62.9317 33.2628 62.3842C33.6851 62.0706 34.0478 61.7919 34.5595 62.0507C34.9669 62.2598 35.3147 62.5634 35.7618 62.6928C36.1692 62.8122 36.5766 62.7824 36.9592 62.6181C37.2523 62.4937 37.7044 62.001 38.0174 62.0209C38.3304 62.0408 38.6534 62.424 38.8869 62.5932C39.2446 62.857 39.6222 63.0611 40.0644 63.1159C40.9537 63.2303 41.6691 62.7077 42.3846 62.2648C42.6877 62.0756 43.0106 61.8765 43.3782 61.8915C43.8651 61.9114 44.3471 62.2399 44.7843 62.424C45.8177 62.8521 46.8958 62.8122 47.9888 62.7077C50.7562 62.4439 53.5235 62.1752 56.2958 61.9064C57.2398 61.8168 57.2498 60.3187 56.2958 60.4132C54.1048 60.6223 51.9188 60.8363 49.7277 61.0453C48.7092 61.1449 47.6709 61.3091 46.6474 61.2942C45.6239 61.2793 44.8985 60.7019 43.9446 60.4779C43.1348 60.2888 42.3995 60.5128 41.7039 60.9358C41.1524 61.2693 40.5513 61.8815 39.8955 61.4883C39.2396 61.0951 38.8024 60.5277 38.0174 60.5277C37.6448 60.5277 37.2921 60.6621 36.9741 60.8612C36.6561 61.0603 36.4226 61.3689 36.0351 61.2046C35.6476 61.0404 35.3197 60.7367 34.9172 60.5775C34.4601 60.3983 33.9732 60.3883 33.5062 60.5327C32.9746 60.7019 32.5672 61.0652 32.1201 61.3888C31.9462 61.5132 31.7623 61.6526 31.5586 61.7222C31.4692 61.7521 31.3649 61.7471 31.2804 61.7621C31.1165 61.7869 31.2506 61.5331 31.1363 61.7869C31.5288 60.9159 30.247 60.1594 29.8496 61.0354L29.8545 61.0304Z" fill="black"/>
<path d="M31.1316 59.1392C31.529 59.9157 32.5028 60.0102 33.2232 59.6469C33.7648 59.3732 34.2318 58.3827 34.8926 58.6564C35.5981 58.9501 36.0999 59.5822 36.8551 59.8062C37.7891 60.0849 38.5194 59.622 39.3442 59.2686C40.3577 58.8257 41.5799 59.1392 42.6332 59.2686C43.6865 59.398 44.8093 59.6917 45.8378 59.4677C46.7122 59.2786 47.209 58.5967 47.9443 58.1786C48.2722 57.9895 48.3815 58.0741 48.6299 58.3379C48.938 58.6664 49.2013 59.0048 49.6335 59.179C50.7117 59.622 51.7053 58.7809 52.7735 58.7361C53.8119 58.6913 54.8105 59.0695 55.5607 59.7912C56.2513 60.4582 57.3096 59.403 56.614 58.7361C55.3173 57.4868 53.4293 56.9443 51.6755 57.4022C51.2731 57.5067 50.7315 57.88 50.3142 57.8252C49.9366 57.7755 49.6783 57.233 49.4 56.999C48.7392 56.4416 47.9145 56.4565 47.1941 56.8846C46.4737 57.3126 45.9818 58.0492 45.0528 58.0442C43.9846 58.0442 42.8816 57.8004 41.8234 57.671C40.7751 57.5415 39.7516 57.4669 38.7629 57.8999C38.3853 58.0642 37.9878 58.3678 37.5705 58.4076C37.2028 58.4424 36.865 58.1836 36.5818 57.9845C35.926 57.5316 35.2751 57.009 34.4305 57.0986C33.9188 57.1533 33.5015 57.4221 33.1338 57.7705C32.9748 57.9198 32.8357 58.1239 32.6519 58.2433C32.6072 58.2732 32.5674 58.313 32.5128 58.3279C32.3389 58.3877 32.3886 58.318 32.4184 58.3777C31.9811 57.5216 30.6944 58.2782 31.1316 59.1293V59.1392Z" fill="black"/>
<path d="M54.6911 60.8065C54.6911 60.8065 51.9139 60.2491 54.6911 66.9285C57.4684 73.6079 64.1359 80.2873 66.9132 80.8398C69.6904 81.3923 75.245 78.0575 75.245 76.3852C75.245 74.7128 69.6904 66.3661 64.1359 62.4739C58.5813 58.5767 58.0249 60.2491 54.6911 60.8065Z" fill="#F3F1DD"/>
<path d="M67.5987 81.6511C67.3106 81.6511 67.0323 81.6262 66.769 81.5715C63.5347 80.9244 56.7629 73.8468 54.0054 67.2122C52.6143 63.8626 52.351 61.7224 53.2155 60.6672C53.6577 60.1247 54.2787 60.0152 54.6762 60.045C55.3022 59.9355 55.8238 59.7812 56.3306 59.6369C58.621 58.97 60.1314 58.746 64.5681 61.8567C70.2617 65.8485 75.9952 74.3346 75.9952 76.3802C75.9952 77.1169 75.4487 77.9381 74.3705 78.8241C72.8304 80.0883 69.8941 81.6412 67.6037 81.6412L67.5987 81.6511ZM54.5371 61.5432C54.4824 61.5432 54.4129 61.5581 54.3582 61.6328C54.2439 61.7821 53.757 62.7377 55.3817 66.6448C58.0695 73.1102 64.5631 79.6105 67.0622 80.1132C68.6719 80.4317 71.7075 79.0928 73.4266 77.6843C74.3059 76.9626 74.5047 76.4997 74.5047 76.3952C74.5047 75.1111 69.278 66.9982 63.7135 63.0961C59.6445 60.2441 58.5564 60.5577 56.748 61.0853C56.2014 61.2446 55.5804 61.4237 54.8203 61.5531L54.6861 61.573L54.5718 61.5482C54.5718 61.5482 54.5569 61.5482 54.547 61.5482L54.5371 61.5432Z" fill="black"/>
<path d="M42.1313 46.5568C43.274 45.9794 44.0491 44.7401 43.9497 43.446C43.8504 42.1519 42.9958 41.0968 41.8133 40.6239C41.4805 40.4895 41.2718 40.9126 41.391 41.1714C42.2257 42.9781 43.4976 44.5012 45.1024 45.6708C45.3557 45.855 45.634 45.5961 45.6638 45.3473C45.947 42.9881 45.0576 40.604 43.3237 38.9864C43.2094 38.8819 43.0107 38.8321 42.8716 38.9267C42.4145 39.2452 42.4394 39.9122 42.9312 40.2108C43.8007 40.7334 43.8851 39.4393 43.9497 38.9167C44.2031 36.7616 43.8354 34.6015 42.971 32.6156C42.8716 32.3916 42.5387 32.3866 42.3847 32.5409C41.5152 33.4169 42.6083 34.706 43.6715 34.3526C45.4352 33.7603 44.5906 31.5106 45.3557 30.3012C45.5793 29.9528 45.0378 29.5098 44.7695 29.8483C43.9398 30.9084 43.9447 32.3269 44.8043 33.3671C44.9831 33.5812 45.3707 33.4617 45.4253 33.2029C45.937 30.8736 45.2266 28.4347 43.5373 26.7574C43.3088 26.5334 42.8964 26.6977 42.9014 27.0212C42.9014 27.6284 42.9113 28.2356 42.9163 28.8429C42.9163 29.2908 43.4976 29.3157 43.6467 28.9424C44.7049 26.3343 44.7347 23.4028 43.7361 20.7698C43.6367 20.506 43.1995 20.3567 43.0554 20.6802C42.7076 21.4567 42.6182 22.2281 42.7871 23.0593C42.8716 23.4675 43.5423 23.3829 43.5175 22.9598C43.4728 22.1834 43.4231 21.4019 43.3784 20.6255L42.9064 20.9838C44.5857 21.377 46.2799 20.1726 46.2451 18.3857C46.2252 17.4849 45.7482 16.8129 45.162 16.1709C44.6701 15.6333 43.5324 14.3492 44.5111 13.7072L43.9646 13.2841C43.6268 14.8967 43.4082 16.5243 43.3088 18.1667C43.279 18.6446 44.0242 18.6446 44.0541 18.1667C44.1534 16.589 44.3621 15.0311 44.685 13.4832C44.7496 13.1846 44.4267 12.871 44.1385 13.0601C42.8468 13.9063 43.5672 15.5189 44.382 16.4148C45.0129 17.1166 45.6787 17.8034 45.4651 18.8287C45.2365 19.9088 44.1584 20.5011 43.115 20.2572C42.8915 20.2074 42.6281 20.3667 42.6431 20.6155C42.6878 21.392 42.7375 22.1734 42.7822 22.9498L43.5125 22.8503C43.3833 22.2281 43.4479 21.6259 43.7063 21.0436L43.0256 20.954C43.9845 23.4774 43.9547 26.2298 42.9362 28.7284L43.6665 28.8279C43.6665 28.2207 43.6566 27.6135 43.6516 27.0063L43.0157 27.2701C44.5161 28.7582 45.167 30.9233 44.7148 32.9889L45.3359 32.8246C44.7596 32.1228 44.7397 31.0776 45.3011 30.3609L44.7148 29.908C44.2975 30.57 44.2826 31.2966 44.223 32.0532C44.1882 32.526 44.1286 33.0685 43.7609 33.4169C43.5821 33.5861 43.3436 33.7155 43.1001 33.616C42.8865 33.5264 42.6977 33.2676 42.9113 33.0536L42.3251 32.9789C42.812 34.0938 43.1299 35.2784 43.2343 36.4928C43.284 37.0403 43.2939 37.5878 43.2641 38.1403C43.2492 38.4738 43.2144 38.8023 43.1697 39.1308C43.1498 39.2751 43.125 39.4194 43.0952 39.5638C43.2889 39.4891 43.3386 39.4891 43.2392 39.5638L42.7871 39.504C44.3969 41.0022 45.1719 43.1523 44.9136 45.3373L45.475 45.0138C43.9746 43.9188 42.812 42.4655 42.032 40.7832L41.6096 41.3307C43.6566 42.1519 43.6566 44.9342 41.7488 45.8998C41.3215 46.1188 41.6991 46.7608 42.1263 46.5468L42.1313 46.5568Z" fill="black"/>
<path d="M56.6487 63.8376C57.707 64.1214 58.8099 63.6485 59.3167 62.673C59.4707 62.3793 59.2174 62.0508 58.8944 62.1255C57.6772 62.4042 56.614 63.7082 57.4486 64.9177C58.1541 65.938 59.9378 65.4353 59.7788 64.1313C59.749 63.8974 59.5602 63.6983 59.3068 63.773C58.3876 64.0467 57.9703 65.3706 58.7652 66.0276C59.5999 66.7195 60.847 65.9729 60.8768 64.9725H60.1315L60.1713 66.7842C60.1762 67.033 60.4048 67.2022 60.6433 67.1425L63.2019 66.5204C63.5447 66.4358 63.5696 65.8733 63.2019 65.7987C62.4815 65.6593 61.6816 65.7987 61.2196 66.4258C60.842 66.9335 60.842 67.6552 61.2146 68.1678C62.0592 69.3225 63.8975 68.123 63.1522 66.9185C63.0678 66.7842 62.8889 66.6946 62.7299 66.7493C61.2047 67.2769 60.2955 69.1035 60.9761 70.6216C61.6568 72.1396 63.6938 72.6772 65.0849 71.8311L64.5384 71.408C64.444 71.7663 64.3496 72.1247 64.2502 72.4831C64.1757 72.7717 64.4341 73.0007 64.7073 72.941C65.6712 72.7369 66.1481 71.6867 65.8351 70.7858C65.5221 69.885 64.4092 69.0438 63.4354 69.2777C62.6654 69.4619 62.2083 70.5569 62.9585 71.0646C63.9273 71.7216 64.6229 70.4822 64.7819 69.7157L64.0515 69.6162C63.972 70.6863 63.8925 71.7564 63.8081 72.8315C63.7882 73.1002 64.0615 73.2247 64.2801 73.1898C64.8812 73.1002 65.4824 73.0106 66.0786 72.9211L65.6215 72.6622C65.7209 72.8464 65.701 73.0256 65.5668 73.1998C65.3383 73.5681 65.85 73.9314 66.1531 73.6527C66.486 73.3441 66.8189 73.0306 67.1567 72.722L66.5704 72.269C65.7855 73.7771 67.271 75.2852 68.7962 74.5884L68.2348 74.2649L68.3193 75.0563C68.3392 75.2404 68.4733 75.4495 68.6919 75.4296C69.5514 75.345 70.406 75.2603 71.2655 75.1757L71.0767 74.4789C69.924 75.3002 69.144 76.4947 68.9105 77.8983C68.8807 78.0625 68.9304 78.2317 69.0794 78.3213C69.4968 78.5652 69.9986 78.4408 70.2221 77.9978C70.4457 77.5548 69.7949 77.1915 69.5763 77.6195L69.4521 77.6743L69.621 78.0974C69.8247 76.8929 70.4457 75.8377 71.4444 75.126C71.7126 74.9368 71.663 74.3893 71.2556 74.4292C70.396 74.5138 69.5415 74.5984 68.682 74.683L69.0546 75.0563L68.9701 74.2649C68.9403 73.9713 68.682 73.817 68.4087 73.9414C67.5591 74.3296 66.7841 73.4536 67.2064 72.6423C67.4002 72.269 66.9381 71.8958 66.6201 72.1894L65.6165 73.1202L66.2028 73.5731C66.4264 73.2197 66.4711 72.8564 66.332 72.4632C66.2574 72.2541 66.0835 72.1695 65.8749 72.2043C65.2737 72.2939 64.6726 72.3835 64.0764 72.4731L64.5483 72.8315C64.6278 71.7614 64.7073 70.6913 64.7918 69.6162C64.8216 69.1981 64.1459 69.1035 64.0614 69.5166C64.0118 69.7556 63.8876 70.4922 63.5348 70.4623C63.2566 70.323 63.2566 70.2135 63.5249 70.1239C63.664 69.9646 63.8279 69.9347 64.0217 70.0343C64.2204 70.089 64.4142 70.2035 64.5781 70.3279C65.1992 70.8008 65.537 72.0003 64.5036 72.2193L64.9607 72.6772C65.0551 72.3188 65.1495 71.9605 65.2489 71.6021C65.3333 71.2935 64.9806 71.0098 64.7024 71.179C63.7037 71.7912 62.2281 71.4627 61.6816 70.3777C61.1351 69.2927 61.8058 67.8493 62.9237 67.4611L62.5014 67.2918C62.6554 67.5407 62.4418 67.9389 62.1288 67.9239C61.8158 67.909 61.6767 67.5606 61.6717 67.3068C61.6568 66.6199 62.4517 66.4109 62.9982 66.5204V65.7987L60.4396 66.4208L60.9115 66.7792L60.8718 64.9675C60.8619 64.4847 60.1415 64.4847 60.1265 64.9675C60.1166 65.3756 59.4856 65.7887 59.1726 65.3806C58.9391 65.077 59.1627 64.5793 59.5005 64.4847L59.0286 64.1263C59.0733 64.4847 58.7901 64.7734 58.4324 64.7186C58.0995 64.6688 57.9107 64.3354 57.8958 64.0069C57.8709 63.3449 58.5218 62.9666 59.0832 62.8372L58.6609 62.2897C58.3082 62.9716 57.5828 63.3101 56.8326 63.111C56.3705 62.9866 56.1718 63.7082 56.6338 63.8327L56.6487 63.8376Z" fill="black"/>
<path d="M64.5335 67.8841C66.337 69.4071 68.1405 70.9302 69.949 72.4532C70.3117 72.7618 70.8433 72.2342 70.4756 71.9256C68.6721 70.4026 66.8686 68.8795 65.0602 67.3565C64.6975 67.0479 64.1659 67.5755 64.5335 67.8841Z" fill="black"/>
<path d="M63.7783 74.5487C64.7571 75.6934 65.9693 76.6391 67.3157 77.311C67.4946 77.4006 67.7182 77.3608 67.8275 77.1766C67.9219 77.0124 67.8722 76.7585 67.6933 76.664C66.3966 76.0169 65.2489 75.121 64.3049 74.0161C64.1758 73.8618 63.9124 73.8817 63.7783 74.0161C63.6292 74.1654 63.6491 74.3894 63.7783 74.5437V74.5487Z" fill="black"/>
<path d="M23.2915 131.722C23.1623 131.787 23.0332 131.836 22.899 131.866C22.7649 131.896 22.6258 131.916 22.4817 131.916C21.8905 131.916 21.4532 131.682 21.1601 131.219C20.867 130.756 20.7229 130.054 20.7229 129.119C20.7229 128.183 20.8769 127.441 21.1899 126.954C21.5029 126.466 21.96 126.217 22.5711 126.217C22.7053 126.217 22.8295 126.232 22.9487 126.257C23.0679 126.282 23.1822 126.317 23.2865 126.366V127.078C23.1772 127.023 23.0679 126.984 22.9686 126.959C22.8692 126.934 22.7698 126.919 22.6804 126.919C22.268 126.919 21.965 127.093 21.7762 127.441C21.5874 127.79 21.493 128.347 21.493 129.109C21.493 129.821 21.5824 130.343 21.7613 130.687C21.9401 131.03 22.2184 131.199 22.596 131.199C22.7053 131.199 22.8146 131.184 22.9239 131.149C23.0332 131.115 23.1524 131.065 23.2816 130.99V131.722H23.2915Z" fill="black"/>
<path d="M24.916 131.846V126.287H25.6911V128.402H27.0772V126.287H27.8523V131.846H27.0772V129.099H25.6911V131.846H24.916Z" fill="black"/>
<path d="M29.3629 131.846L30.7093 126.287H31.4396L32.786 131.846H32.0011L31.7228 130.751H30.4112L30.1429 131.846H29.3579H29.3629ZM31.0769 127.725L30.5553 130.129H31.5936L31.0769 127.725Z" fill="black"/>
<path d="M34.3013 131.846V126.287H35.0763V131.154H36.7407V131.846H34.3013Z" fill="black"/>
<path d="M37.9629 129.074C37.9629 128.054 38.0921 127.327 38.3454 126.884C38.6038 126.441 39.0211 126.222 39.6024 126.222C40.1837 126.222 40.5961 126.441 40.8495 126.884C41.1029 127.327 41.232 128.054 41.232 129.079C41.232 130.104 41.1029 130.826 40.8495 131.264C40.5961 131.702 40.1788 131.921 39.6024 131.921C39.0261 131.921 38.6038 131.702 38.3454 131.264C38.0871 130.826 37.9629 130.094 37.9629 129.079V129.074ZM38.7479 129.059C38.7479 129.845 38.8125 130.403 38.9466 130.726C39.0808 131.05 39.2994 131.214 39.6074 131.214C39.9154 131.214 40.1291 131.06 40.2582 130.751C40.3874 130.443 40.447 129.88 40.447 129.059C40.447 128.238 40.3825 127.7 40.2533 127.387C40.1241 127.073 39.9055 126.914 39.6024 126.914C39.2994 126.914 39.0708 127.073 38.9416 127.392C38.8125 127.71 38.7479 128.263 38.7479 129.059Z" fill="black"/>
<path d="M43.0207 131.846V126.287H43.7361L45.2614 130.149V126.287H45.9967V131.846H45.2664L43.7461 127.954V131.846H43.0107H43.0207Z" fill="black"/>
<path d="M51.0843 128.865C51.0942 128.979 51.0992 129.094 51.1042 129.208C51.1091 129.323 51.1091 129.427 51.1091 129.527C51.1091 130.343 50.97 130.945 50.6968 131.334C50.4235 131.722 50.0012 131.916 49.4298 131.916C48.8585 131.916 48.4163 131.697 48.153 131.254C47.8897 130.811 47.7605 130.084 47.7605 129.074C47.7605 128.063 47.8946 127.317 48.158 126.879C48.4213 126.441 48.8535 126.222 49.4597 126.222C49.8869 126.222 50.2297 126.321 50.4881 126.516C50.7465 126.71 50.9253 127.003 51.0247 127.397L50.339 127.715C50.2844 127.441 50.185 127.242 50.041 127.108C49.8969 126.973 49.7081 126.909 49.4696 126.909C49.1318 126.909 48.8982 127.063 48.7591 127.377C48.62 127.69 48.5505 128.248 48.5505 129.064C48.5505 129.88 48.62 130.428 48.7591 130.741C48.8982 131.055 49.1367 131.214 49.4696 131.214C49.7677 131.214 49.9962 131.095 50.1453 130.856C50.2943 130.617 50.3738 130.258 50.3738 129.786C50.3738 129.716 50.3738 129.661 50.3738 129.621C50.3738 129.582 50.3738 129.552 50.3689 129.522H49.5441V128.865H51.0992H51.0843Z" fill="black"/>
<path d="M55.2773 131.846V126.287H56.3406C56.902 126.287 57.3094 126.396 57.5628 126.62C57.8161 126.844 57.9404 127.202 57.9404 127.695C57.9404 128.063 57.8807 128.352 57.7565 128.556C57.6323 128.76 57.4336 128.9 57.1653 128.984C57.4684 129.054 57.687 129.188 57.8261 129.387C57.9652 129.587 58.0298 129.875 58.0298 130.248C58.0298 130.796 57.9006 131.199 57.6373 131.458C57.374 131.717 56.9666 131.846 56.4051 131.846H55.2773ZM56.0524 128.671H56.3356C56.6287 128.671 56.8424 128.601 56.9765 128.462C57.1106 128.322 57.1802 128.103 57.1802 127.805C57.1802 127.491 57.1156 127.272 56.9914 127.143C56.8672 127.013 56.6436 126.949 56.3356 126.949H56.0524V128.671ZM56.0524 131.139H56.3107C56.6685 131.139 56.9119 131.075 57.0461 130.94C57.1802 130.806 57.2448 130.577 57.2448 130.239C57.2448 129.9 57.1752 129.656 57.0312 129.512C56.8871 129.368 56.6486 129.288 56.3207 129.288H56.0524V131.139Z" fill="black"/>
<path d="M59.3116 131.846L60.658 126.287H61.3884L62.7348 131.846H61.9498L61.6716 130.751H60.3599L60.0916 131.846H59.3066H59.3116ZM61.0257 127.725L60.504 130.129H61.5424L61.0257 127.725Z" fill="black"/>
<path d="M65.537 129.482V131.846H64.7371V129.482L63.6541 126.287H64.454L64.9408 127.835C64.9707 127.934 65.0054 128.064 65.0402 128.218C65.075 128.372 65.1098 128.541 65.1396 128.726C65.1644 128.561 65.1942 128.412 65.229 128.263C65.2638 128.113 65.2986 127.979 65.3433 127.84L65.8302 126.282H66.64L65.542 129.477L65.537 129.482Z" fill="black"/>
<path d="M43.0256 135.629C32.5872 135.629 21.7414 135.355 21.6321 135.35C21.493 135.35 21.3887 135.231 21.3887 135.096C21.3887 134.957 21.5029 134.847 21.6421 134.852C21.7514 134.852 32.5922 135.131 43.0256 135.131C53.4591 135.131 65.3979 134.857 65.5172 134.852C65.6463 134.852 65.7656 134.957 65.7705 135.096C65.7705 135.236 65.6662 135.345 65.5271 135.35C65.4079 135.35 53.4591 135.629 43.0207 135.629H43.0256Z" fill="black"/>
<path d="M42.7473 141.193C32.3089 141.193 21.4631 140.92 21.3538 140.915C21.2147 140.915 21.1104 140.795 21.1104 140.661C21.1104 140.521 21.2296 140.412 21.3637 140.417C21.473 140.417 32.3139 140.696 42.7473 140.696C53.1808 140.696 65.1196 140.422 65.2388 140.417C65.373 140.417 65.4922 140.521 65.4922 140.661C65.4922 140.8 65.3879 140.91 65.2488 140.915C65.1295 140.915 53.1808 141.193 42.7424 141.193H42.7473Z" fill="black"/>
<path d="M21.5824 137.411V137.316H21.8656V137.436H21.8357L21.5774 137.411H21.5824ZM21.8656 138.356V138.476H21.5824V138.381L21.8407 138.356H21.8705H21.8656ZM21.7165 137.864C21.7165 137.679 21.7165 137.495 21.7115 137.316H22.0196C22.0146 137.495 22.0146 137.679 22.0146 137.864V137.923C22.0146 138.113 22.0146 138.297 22.0196 138.481H21.7115C21.7165 138.302 21.7165 138.117 21.7165 137.928V137.869V137.864ZM21.8656 138.376H22.0742C22.2779 138.376 22.4021 138.202 22.4021 137.898C22.4021 137.595 22.2779 137.421 22.0792 137.421H21.8656V137.316H22.104C22.4816 137.316 22.7052 137.535 22.7052 137.894C22.7052 138.252 22.4568 138.476 22.0693 138.476H21.8606V138.371L21.8656 138.376Z" fill="black"/>
<path d="M22.9885 137.411V137.316H23.5599V137.411L23.2966 137.436H23.2469L22.9885 137.411ZM23.2966 138.356L23.5599 138.381V138.476H22.9885V138.381L23.2469 138.356H23.2966ZM23.1227 137.864C23.1227 137.679 23.1227 137.495 23.1177 137.316H23.4257C23.4208 137.495 23.4208 137.679 23.4208 137.864V137.928C23.4208 138.113 23.4208 138.297 23.4257 138.476H23.1177C23.1227 138.297 23.1227 138.113 23.1227 137.928V137.864Z" fill="black"/>
<path d="M24.4542 138.237C24.4542 138.142 24.4095 138.103 24.3002 138.053L24.2256 138.018C24.017 137.923 23.8977 137.819 23.8977 137.62C23.8977 137.406 24.0667 137.276 24.3349 137.276C24.4591 137.276 24.5834 137.311 24.6678 137.366L24.6529 137.615H24.489L24.4442 137.346L24.5883 137.396V137.485C24.4939 137.416 24.4293 137.381 24.3349 137.381C24.2356 137.381 24.1511 137.446 24.1511 137.54C24.1511 137.635 24.2058 137.685 24.3101 137.729L24.3946 137.769C24.6181 137.869 24.7125 137.968 24.7125 138.147C24.7125 138.356 24.5535 138.506 24.2505 138.506C24.1163 138.506 23.9673 138.476 23.8679 138.411L23.8779 138.147H24.0418L24.0865 138.436L23.9524 138.391V138.307C24.0667 138.366 24.1362 138.401 24.2505 138.401C24.3747 138.401 24.4442 138.327 24.4442 138.232L24.4542 138.237Z" fill="black"/>
<path d="M25.0453 137.416L25.1745 137.316L25.1298 137.645H24.9807V137.316H26.0241V137.645H25.8849L25.8402 137.316L25.9644 137.416H25.0453ZM25.5421 138.356L25.8104 138.381V138.476H25.2043V138.381L25.4676 138.356H25.5471H25.5421ZM25.3583 137.864C25.3583 137.679 25.3583 137.495 25.3533 137.316H25.6614C25.6564 137.495 25.6564 137.679 25.6564 137.864V137.928C25.6564 138.113 25.6564 138.297 25.6614 138.476H25.3533C25.3583 138.297 25.3583 138.113 25.3583 137.928V137.864Z" fill="black"/>
<path d="M26.3223 137.411V137.316H26.8936V137.411L26.6303 137.436H26.5806L26.3223 137.411ZM26.6303 138.356L26.8936 138.381V138.476H26.3223V138.381L26.5806 138.356H26.6303ZM26.4564 137.864C26.4564 137.679 26.4564 137.495 26.4514 137.316H26.7595C26.7545 137.495 26.7545 137.679 26.7545 137.864V137.928C26.7545 138.113 26.7545 138.297 26.7595 138.476H26.4514C26.4564 138.297 26.4564 138.113 26.4564 137.928V137.864Z" fill="black"/>
<path d="M27.2115 137.411V137.316H27.7928V137.411L27.5295 137.436H27.4649L27.2065 137.411H27.2115ZM27.4947 138.356V138.476H27.2115V138.381L27.4699 138.356H27.4997H27.4947ZM27.3407 137.316H27.6487C27.6438 137.495 27.6438 137.679 27.6438 137.864V137.958C27.6438 138.113 27.6438 138.297 27.6487 138.481H27.3407C27.3457 138.302 27.3457 138.117 27.3457 137.968V137.864C27.3457 137.679 27.3457 137.495 27.3407 137.316ZM28.1406 138.132L28.1207 138.481H27.4897V138.381H28.0611L27.9269 138.481L27.9965 138.132H28.1406Z" fill="black"/>
<path d="M28.4237 137.411V137.316H29.005V137.411L28.7416 137.436H28.6771L28.4187 137.411H28.4237ZM28.7069 138.356V138.476H28.4237V138.381L28.682 138.356H28.7118H28.7069ZM28.5528 137.316H28.8609C28.8559 137.495 28.8559 137.679 28.8559 137.864V137.958C28.8559 138.113 28.8559 138.297 28.8609 138.481H28.5528C28.5578 138.302 28.5578 138.117 28.5578 137.968V137.864C28.5578 137.679 28.5578 137.495 28.5528 137.316ZM29.3527 138.132L29.3329 138.481H28.7019V138.381H29.2732L29.1391 138.481L29.2087 138.132H29.3527Z" fill="black"/>
<path d="M29.641 137.411V137.316H29.9241V137.436H29.8943L29.636 137.411H29.641ZM29.9241 138.356V138.476H29.641V138.381L29.8993 138.356H29.9291H29.9241ZM29.7751 137.864C29.7751 137.679 29.7751 137.495 29.7701 137.316H30.0782C30.0732 137.495 30.0732 137.679 30.0732 137.864V137.923C30.0732 138.113 30.0732 138.297 30.0782 138.481H29.7701C29.7751 138.302 29.7751 138.117 29.7751 137.933V137.869V137.864ZM30.3564 137.316L30.4856 137.416H29.9291V137.316H30.5452L30.5601 137.62H30.411L30.3564 137.316ZM30.3166 137.933H29.9291V137.829H30.3166V137.933ZM30.5949 138.177L30.58 138.481H29.9291V138.381H30.5253L30.3961 138.481L30.4508 138.177H30.5998H30.5949ZM30.262 137.859L30.2868 137.689H30.3912V138.073H30.2868L30.262 137.894V137.859Z" fill="black"/>
<path d="M30.8929 137.411V137.316H31.1761V137.436H31.1463L30.8879 137.411H30.8929ZM31.1761 138.356V138.476H30.8929V138.381L31.1513 138.356H31.1811H31.1761ZM31.0271 137.864C31.0271 137.679 31.0271 137.495 31.0221 137.316H31.3301C31.3252 137.495 31.3252 137.679 31.3252 137.864V137.923C31.3252 138.113 31.3252 138.297 31.3301 138.481H31.0221C31.0271 138.302 31.0271 138.117 31.0271 137.928V137.869V137.864ZM31.1761 138.376H31.3848C31.5885 138.376 31.7127 138.202 31.7127 137.898C31.7127 137.595 31.5885 137.421 31.3897 137.421H31.1761V137.316H31.4146C31.7922 137.316 32.0157 137.535 32.0157 137.894C32.0157 138.252 31.7673 138.476 31.3798 138.476H31.1711V138.371L31.1761 138.376Z" fill="black"/>
<path d="M32.92 137.411V137.316H33.2032V137.436H33.1734L32.915 137.411H32.92ZM33.2579 138.356L33.5162 138.381V138.476H32.92V138.381L33.1784 138.356H33.2579ZM33.0542 137.864C33.0542 137.679 33.0541 137.495 33.0492 137.316H33.3572C33.3522 137.495 33.3522 137.679 33.3522 137.864V137.923C33.3522 138.113 33.3522 138.297 33.3572 138.481H33.0492C33.0541 138.302 33.0542 138.117 33.0542 137.933V137.869V137.864ZM33.6454 137.316L33.7746 137.416H33.2032V137.316H33.8342L33.8441 137.62H33.6951L33.6404 137.316H33.6454ZM33.5957 137.933H33.2032V137.829H33.5957V137.933ZM33.541 137.859L33.5659 137.689H33.6702V138.088H33.5659L33.541 137.908V137.859Z" fill="black"/>
<path d="M34.1373 137.411V137.316H34.4205V137.436H34.3907L34.1323 137.411H34.1373ZM34.4503 138.356L34.7086 138.381V138.476H34.1423V138.381L34.4006 138.356H34.4553H34.4503ZM34.2764 137.864C34.2764 137.68 34.2764 137.495 34.2714 137.316H34.5745C34.5695 137.495 34.5695 137.68 34.5695 137.869V137.923C34.5695 138.113 34.5695 138.297 34.5745 138.476H34.2714C34.2764 138.297 34.2764 138.113 34.2764 137.928V137.864ZM34.4255 137.844H34.6341C34.808 137.844 34.8627 137.739 34.8627 137.625C34.8627 137.481 34.7832 137.416 34.6391 137.416H34.4205V137.311H34.7086C34.9869 137.311 35.1409 137.421 35.1409 137.605C35.1409 137.739 35.0415 137.879 34.7285 137.894V137.874C35.0067 137.884 35.0813 137.973 35.1111 138.162L35.1558 138.436L35.0117 138.347L35.275 138.376V138.471C35.1906 138.491 35.1608 138.496 35.0813 138.496C34.9322 138.496 34.8428 138.451 34.8229 138.317L34.7881 138.113C34.7683 137.993 34.7285 137.938 34.6192 137.938H34.4155V137.839L34.4255 137.844Z" fill="black"/>
<path d="M36.6314 137.894C36.6314 138.302 36.3631 138.506 36.07 138.506C35.7768 138.506 35.5085 138.302 35.5085 137.894C35.5085 137.486 35.7818 137.281 36.07 137.281C36.3581 137.281 36.6314 137.486 36.6314 137.894ZM36.07 138.406C36.2488 138.406 36.3184 138.187 36.3184 137.894C36.3184 137.6 36.2488 137.381 36.07 137.381C35.8911 137.381 35.8215 137.6 35.8215 137.894C35.8215 138.187 35.8911 138.406 36.07 138.406Z" fill="black"/>
<path d="M36.8897 138.381L37.0934 138.356H37.1431L37.317 138.381V138.476H36.8848V138.381H36.8897ZM36.9046 137.316H37.158V137.436H37.1332L36.9046 137.411V137.316ZM37.0587 137.316H37.158L37.1729 137.928V138.476H37.0587V137.311V137.316ZM37.0686 137.316H37.3667L37.6847 138.177H37.625L37.9231 137.316H38.0374L37.63 138.481H37.4959L37.0636 137.316H37.0686ZM37.8188 138.381L38.0474 138.356H38.1268L38.3852 138.381V138.476H37.8238V138.381H37.8188ZM37.953 137.963V137.311H38.256C38.2511 137.49 38.251 137.675 38.251 137.859V137.923C38.251 138.108 38.2511 138.292 38.256 138.471H37.948C37.953 138.292 37.948 138.108 37.953 137.958V137.963ZM38.102 137.311H38.3802V137.406L38.1318 137.431H38.102V137.311Z" fill="black"/>
<path d="M40.5265 138.366V138.476H39.5825V138.366L39.8856 138.297H40.2433L40.5265 138.366ZM40.2284 136.968L40.2632 136.993L40.2532 137.326V137.988C40.2532 138.147 40.2532 138.317 40.2582 138.476H39.8657C39.8657 138.312 39.8707 138.147 39.8707 137.988V137.212L39.6421 137.232V137.097L40.2284 136.968Z" fill="black"/>
<path d="M42.1511 137.734C42.1511 138.277 41.8878 138.511 41.5947 138.511C41.3016 138.511 41.0432 138.277 41.0432 137.734C41.0432 137.192 41.3016 136.958 41.5947 136.958C41.8878 136.958 42.1511 137.192 42.1511 137.734ZM41.5947 138.386C41.704 138.386 41.7934 138.257 41.7934 137.734C41.7934 137.212 41.704 137.077 41.5947 137.077C41.4854 137.077 41.396 137.202 41.396 137.734C41.396 138.267 41.4804 138.386 41.5947 138.386Z" fill="black"/>
<path d="M43.6963 137.734C43.6963 138.277 43.433 138.511 43.1399 138.511C42.8467 138.511 42.5884 138.277 42.5884 137.734C42.5884 137.192 42.8467 136.958 43.1399 136.958C43.433 136.958 43.6963 137.192 43.6963 137.734ZM43.1399 138.386C43.2492 138.386 43.3386 138.257 43.3386 137.734C43.3386 137.212 43.2492 137.077 43.1399 137.077C43.0306 137.077 42.9411 137.202 42.9411 137.734C42.9411 138.267 43.0256 138.386 43.1399 138.386Z" fill="black"/>
<path d="M44.8888 137.441C44.8888 137.769 44.7149 137.919 44.5311 137.919C44.3472 137.919 44.1733 137.769 44.1733 137.441C44.1733 137.112 44.3423 136.958 44.5311 136.958C44.7199 136.958 44.8888 137.107 44.8888 137.441ZM44.5311 137.839C44.6006 137.839 44.6553 137.764 44.6553 137.441C44.6553 137.117 44.6006 137.038 44.5311 137.038C44.4615 137.038 44.4118 137.112 44.4118 137.441C44.4118 137.769 44.4665 137.839 44.5311 137.839ZM44.5062 138.476L45.5595 136.923L45.6688 136.998L44.6155 138.551L44.5062 138.476ZM45.9768 138.018C45.9768 138.347 45.8029 138.496 45.6191 138.496C45.4353 138.496 45.2614 138.347 45.2614 138.018C45.2614 137.69 45.4303 137.535 45.6191 137.535C45.8079 137.535 45.9768 137.685 45.9768 138.018ZM45.6191 138.416C45.6887 138.416 45.7433 138.342 45.7433 138.018C45.7433 137.695 45.6887 137.615 45.6191 137.615C45.5496 137.615 45.4999 137.69 45.4999 138.018C45.4999 138.347 45.5545 138.416 45.6191 138.416Z" fill="black"/>
<path d="M47.0101 137.411V137.316H47.2933V137.436H47.2635L47.0051 137.411H47.0101ZM47.3479 138.356L47.6063 138.381V138.476H47.0101V138.381L47.2684 138.356H47.3479ZM47.1442 137.864C47.1442 137.68 47.1442 137.495 47.1393 137.316H47.4473C47.4423 137.495 47.4423 137.68 47.4423 137.864V137.973C47.4423 138.118 47.4423 138.297 47.4473 138.481H47.1393C47.1442 138.302 47.1442 138.118 47.1442 137.933V137.869V137.864ZM47.492 138.033H47.2933V137.933H47.492C47.646 137.933 47.7255 137.824 47.7255 137.665C47.7255 137.505 47.6411 137.416 47.4871 137.416H47.2933V137.311H47.4871C47.8547 137.311 48.0038 137.451 48.0038 137.66C48.0038 137.869 47.8746 138.028 47.492 138.028V138.033Z" fill="black"/>
<path d="M48.2671 137.411V137.316H48.8434V137.411L48.5801 137.436H48.5304L48.2671 137.411ZM48.9477 138.352C49.1067 138.352 49.2011 138.247 49.2011 137.978V137.316H49.3154V137.978C49.3154 138.352 49.1415 138.511 48.8484 138.511C48.5851 138.511 48.3963 138.381 48.3963 138.038V137.844C48.3963 137.67 48.3963 137.49 48.3913 137.311H48.6993C48.6944 137.485 48.6944 137.665 48.6944 137.844V137.978C48.6944 138.247 48.7788 138.347 48.9477 138.347V138.352ZM49.2309 137.426L49.0421 137.411V137.316H49.4644V137.411L49.2806 137.426H49.2309Z" fill="black"/>
<path d="M49.7379 137.411V137.316H50.0211V137.436H49.9913L49.7329 137.411H49.7379ZM50.0509 138.356L50.3092 138.381V138.476H49.7428V138.381L50.0012 138.356H50.0559H50.0509ZM49.877 137.864C49.877 137.68 49.877 137.495 49.872 137.316H50.1751C50.1701 137.495 50.1701 137.68 50.1701 137.869V137.923C50.1701 138.113 50.1701 138.297 50.1751 138.476H49.872C49.877 138.297 49.877 138.113 49.877 137.928V137.864ZM50.026 137.844H50.2347C50.4086 137.844 50.4633 137.739 50.4633 137.625C50.4633 137.481 50.3838 137.416 50.2397 137.416H50.0211V137.311H50.3092C50.5875 137.311 50.7415 137.421 50.7415 137.605C50.7415 137.739 50.6421 137.879 50.3291 137.894V137.874C50.6073 137.884 50.6819 137.973 50.7117 138.162L50.7564 138.436L50.6123 138.347L50.8756 138.376V138.471C50.7912 138.491 50.7614 138.496 50.6819 138.496C50.5328 138.496 50.4434 138.451 50.4235 138.317L50.3887 138.113C50.3689 137.993 50.3291 137.938 50.2198 137.938H50.0161V137.839L50.026 137.844Z" fill="black"/>
<path d="M51.1439 137.411V137.316H51.4271V137.436H51.3973L51.1389 137.411H51.1439ZM51.4271 138.356V138.476H51.1439V138.381L51.4022 138.356H51.432H51.4271ZM51.278 137.864C51.278 137.679 51.278 137.495 51.2731 137.316H51.5811C51.5761 137.495 51.5761 137.679 51.5761 137.864V137.923C51.5761 138.113 51.5761 138.297 51.5811 138.481H51.2731C51.278 138.302 51.278 138.117 51.278 137.933V137.869V137.864ZM51.8593 137.316L51.9885 137.416H51.432V137.316H52.0481L52.0581 137.62H51.909L51.8544 137.316H51.8593ZM51.8196 137.933H51.432V137.829H51.8196V137.933ZM52.0978 138.177L52.0879 138.481H51.432V138.381H52.0282L51.8991 138.481L51.9487 138.177H52.0978ZM51.7649 137.859L51.7898 137.689H51.8941V138.073H51.7898L51.7649 137.894V137.859Z" fill="black"/>
<path d="M53.5535 138.237C53.5535 138.142 53.5088 138.103 53.3995 138.053L53.325 138.018C53.1163 137.923 52.9971 137.819 52.9971 137.62C52.9971 137.406 53.166 137.276 53.4343 137.276C53.5585 137.276 53.6827 137.311 53.7672 137.366L53.7523 137.615H53.5883L53.5436 137.346L53.6877 137.396V137.485C53.5933 137.416 53.5287 137.381 53.4343 137.381C53.3349 137.381 53.2505 137.446 53.2505 137.54C53.2505 137.635 53.3051 137.685 53.4095 137.729L53.4939 137.769C53.7175 137.869 53.8119 137.968 53.8119 138.147C53.8119 138.356 53.6529 138.506 53.3498 138.506C53.2157 138.506 53.0667 138.476 52.9673 138.411L52.9772 138.147H53.1412L53.1859 138.436L53.0517 138.391V138.307C53.166 138.366 53.2356 138.401 53.3498 138.401C53.4741 138.401 53.5436 138.327 53.5436 138.232L53.5535 138.237Z" fill="black"/>
<path d="M54.085 137.411V137.316H54.6613V137.411L54.398 137.436H54.3483L54.085 137.411ZM54.7656 138.352C54.9246 138.352 55.019 138.247 55.019 137.978V137.316H55.1333V137.978C55.1333 138.352 54.9594 138.511 54.6663 138.511C54.4029 138.511 54.2141 138.381 54.2141 138.038V137.844C54.2141 137.67 54.2141 137.49 54.2092 137.311H54.5172C54.5122 137.485 54.5122 137.665 54.5122 137.844V137.978C54.5122 138.247 54.5967 138.347 54.7656 138.347V138.352ZM55.0488 137.426L54.86 137.411V137.316H55.2823V137.411L55.0985 137.426H55.0488Z" fill="black"/>
<path d="M56.5443 138.406C56.4201 138.476 56.3009 138.511 56.1419 138.511C55.7792 138.511 55.5308 138.282 55.5308 137.894C55.5308 137.505 55.7643 137.281 56.1617 137.281C56.276 137.281 56.4002 137.306 56.5046 137.361V137.635H56.3754L56.3158 137.356L56.44 137.381V137.476C56.3555 137.406 56.281 137.381 56.2015 137.381C56.0077 137.381 55.8487 137.54 55.8487 137.894C55.8487 138.247 56.0028 138.411 56.2015 138.411C56.276 138.411 56.3257 138.391 56.4002 138.352L56.2661 138.466V138.332C56.2661 138.187 56.2661 138.053 56.2611 137.909H56.5542C56.5542 138.053 56.5542 138.192 56.5542 138.337V138.411L56.5443 138.406ZM56.1021 137.998V137.904H56.6387V137.998L56.43 138.028H56.3158L56.1021 137.998Z" fill="black"/>
<path d="M56.8276 138.381L57.0115 138.356H57.0413L57.2102 138.381V138.476H56.8276V138.381ZM57.3294 137.311H57.5133L57.9107 138.476H57.6077L57.3046 137.525L57.3692 137.436L57.0313 138.476H56.927L57.3245 137.311H57.3294ZM57.1406 138.038H57.6176L57.6573 138.142H57.1108L57.1406 138.038ZM57.4387 138.386L57.6375 138.361H57.7567L57.9853 138.386V138.476H57.4387V138.386Z" fill="black"/>
<path d="M58.2584 137.411V137.316H58.5416V137.436H58.5118L58.2534 137.411H58.2584ZM58.5714 138.356L58.8297 138.381V138.476H58.2634V138.381L58.5217 138.356H58.5764H58.5714ZM58.3975 137.864C58.3975 137.68 58.3975 137.495 58.3925 137.316H58.6956C58.6906 137.495 58.6906 137.68 58.6906 137.869V137.923C58.6906 138.113 58.6906 138.297 58.6956 138.476H58.3925C58.3975 138.297 58.3975 138.113 58.3975 137.928V137.864ZM58.5465 137.844H58.7552C58.9291 137.844 58.9838 137.739 58.9838 137.625C58.9838 137.481 58.9043 137.416 58.7602 137.416H58.5416V137.311H58.8297C59.108 137.311 59.262 137.421 59.262 137.605C59.262 137.739 59.1626 137.879 58.8496 137.894V137.874C59.1278 137.884 59.2024 137.973 59.2322 138.162L59.2769 138.436L59.1328 138.347L59.3961 138.376V138.471C59.3117 138.491 59.2819 138.496 59.2024 138.496C59.0533 138.496 58.9639 138.451 58.944 138.317L58.9092 138.113C58.8894 137.993 58.8496 137.938 58.7403 137.938H58.5366V137.839L58.5465 137.844Z" fill="black"/>
<path d="M60.5488 138.307V138.396L60.4295 138.421L60.4892 138.143H60.6233V138.416C60.519 138.471 60.3948 138.506 60.2457 138.506C59.9079 138.506 59.6296 138.307 59.6296 137.894C59.6296 137.481 59.9228 137.281 60.2556 137.281C60.3898 137.281 60.4991 137.311 60.6034 137.371V137.645H60.4743L60.4146 137.366L60.5339 137.396V137.496C60.4494 137.421 60.3799 137.386 60.3004 137.386C60.1116 137.386 59.9476 137.54 59.9476 137.904C59.9476 138.267 60.1066 138.416 60.2954 138.416C60.3848 138.416 60.4693 138.381 60.5537 138.317L60.5488 138.307Z" fill="black"/>
<path d="M60.8718 138.381L61.0557 138.356H61.0855L61.2544 138.381V138.476H60.8718V138.381ZM61.3736 137.311H61.5575L61.9549 138.476H61.6519L61.3488 137.525L61.4134 137.436L61.0755 138.476H60.9712L61.3687 137.311H61.3736ZM61.1848 138.038H61.6618L61.7015 138.142H61.155L61.1848 138.038ZM61.4829 138.386L61.6817 138.361H61.8009L62.0294 138.386V138.476H61.4829V138.386Z" fill="black"/>
<path d="M62.2976 138.381L62.4864 138.356H62.5361L62.7646 138.381V138.476H62.2976V138.381ZM62.392 137.376L62.4963 137.426L62.3026 137.411V137.316H62.7L63.336 138.187V138.481H63.1869L62.392 137.376ZM62.4516 137.311L62.5659 137.406V138.471H62.4516V137.306V137.311ZM63.018 137.311H63.485V137.406L63.3062 137.431H63.2565L63.018 137.406V137.311ZM63.2217 137.311H63.336V138.476L63.2217 138.361V137.311Z" fill="black"/>
<path d="M63.7733 137.411V137.316H64.0565V137.436H64.0267L63.7683 137.411H63.7733ZM64.0565 138.356V138.476H63.7733V138.381L64.0316 138.356H64.0614H64.0565ZM63.9074 137.864C63.9074 137.679 63.9074 137.495 63.9024 137.316H64.2105C64.2055 137.495 64.2055 137.679 64.2055 137.864V137.923C64.2055 138.113 64.2055 138.297 64.2105 138.481H63.9024C63.9074 138.302 63.9074 138.117 63.9074 137.933V137.869V137.864ZM64.4887 137.316L64.6179 137.416H64.0614V137.316H64.6775L64.6874 137.62H64.5384L64.4837 137.316H64.4887ZM64.449 137.933H64.0614V137.829H64.449V137.933ZM64.7272 138.177L64.7173 138.481H64.0614V138.381H64.6576L64.5285 138.481L64.5781 138.177H64.7272ZM64.3943 137.859L64.4192 137.689H64.5235V138.073H64.4192L64.3943 137.894V137.859Z" fill="black"/>
<path d="M29.0548 145.255L29.0747 144.299L28.7567 144.434L29.3728 145.106C29.4771 145.22 29.6361 145.145 29.6858 145.021L29.8199 144.678L29.6907 144.807C30.0037 144.752 30.3018 144.837 30.5403 145.046C30.595 145.096 30.6993 145.126 30.7639 145.076C31.2061 144.737 30.6149 144.205 30.3366 144.663C30.272 144.772 30.3366 144.897 30.4459 144.936C30.9129 145.101 31.7327 145.817 32.16 145.14C32.3985 144.762 31.9712 144.18 31.5539 144.434C31.4744 144.479 31.4545 144.558 31.4694 144.643C31.5042 144.882 31.6184 145.081 31.8023 145.24C31.8619 145.29 31.9563 145.32 32.0258 145.27C32.4978 144.926 32.7164 144.384 32.6121 143.807L32.2544 143.906C32.3389 144.22 32.4283 144.533 32.5127 144.852C32.5376 144.946 32.6469 145.016 32.7413 144.981C32.9649 144.902 33.099 144.737 33.094 144.493C33.094 144.319 32.8257 144.225 32.7463 144.399C32.5426 144.842 32.8257 145.454 33.3574 145.454C33.889 145.454 34.1722 144.847 33.9685 144.399L33.7151 144.653C34.1622 144.956 34.7435 144.956 35.1857 144.643C35.3795 144.503 35.1956 144.18 34.9969 144.319C34.6541 144.558 34.2467 144.563 33.8989 144.329C33.73 144.215 33.576 144.434 33.6455 144.583C33.7349 144.772 33.5859 145.081 33.3524 145.076C33.1189 145.071 32.9748 144.782 33.0642 144.583L32.7164 144.488L32.6419 144.618L32.8705 144.747C32.786 144.434 32.6966 144.12 32.6121 143.802C32.5475 143.568 32.2097 143.667 32.2544 143.901C32.3289 144.299 32.1699 144.702 31.842 144.941L32.0656 144.971C31.9215 144.852 31.8569 144.722 31.8271 144.538L31.7427 144.747C31.8072 144.752 31.847 144.787 31.8569 144.852C31.842 144.956 31.7824 145.016 31.683 145.021C31.5439 145.071 31.3551 144.986 31.2359 144.926C31.0024 144.807 30.7987 144.653 30.5453 144.568L30.6546 144.842L30.5751 144.742L30.7987 144.772C30.5602 144.563 30.282 144.429 29.959 144.404C29.8448 144.399 29.646 144.384 29.5417 144.454C29.4175 144.538 29.3728 144.782 29.3231 144.907L29.6361 144.822L29.02 144.15C28.9058 144.026 28.707 144.125 28.7021 144.284L28.6822 145.24C28.6772 145.479 29.0498 145.479 29.0548 145.24V145.255Z" fill="black"/>
<path d="M40.7401 144.832C42.2555 144.842 43.7708 144.852 45.2862 144.862C45.5296 144.862 45.5246 144.503 45.2862 144.488C43.7658 144.384 42.2406 144.603 40.8097 145.13C40.606 145.205 40.6507 145.469 40.8594 145.499C42.33 145.688 43.8106 145.753 45.2911 145.693C45.5296 145.683 45.5346 145.32 45.2911 145.32C44.208 145.31 43.1299 145.3 42.0468 145.29L42.2257 145.524C42.4791 144.707 42.9709 143.991 43.6516 143.473L43.3982 143.408C43.8752 144.23 43.3386 145.25 42.6033 145.713C41.6493 146.31 40.4122 146.176 39.3441 146.076V146.449C41.545 146.325 43.7211 145.902 45.8078 145.18C46.0314 145.101 45.937 144.742 45.7085 144.822C43.6516 145.529 41.5152 145.952 39.3441 146.076C39.1006 146.091 39.1056 146.425 39.3441 146.449C40.5712 146.564 42.012 146.683 43.0355 145.857C43.8006 145.24 44.2428 144.125 43.7162 143.219C43.6714 143.14 43.5423 143.09 43.4628 143.154C42.7026 143.737 42.1511 144.513 41.868 145.429C41.8332 145.549 41.9325 145.663 42.0468 145.663C43.1299 145.673 44.208 145.683 45.2911 145.693V145.32C43.8106 145.379 42.33 145.32 40.8594 145.125L40.9091 145.494C42.3151 144.971 43.7957 144.762 45.2862 144.867V144.493C43.7708 144.483 42.2555 144.473 40.7401 144.463C40.5017 144.463 40.5017 144.837 40.7401 144.837V144.832Z" fill="black"/>
<path d="M49.6137 145.623L49.5143 144.797L49.1665 144.892C49.2162 145.006 49.2709 145.126 49.3205 145.24C49.3603 145.325 49.4994 145.364 49.5739 145.305C50.3291 144.747 51.2532 144.568 52.1574 144.817C52.3562 144.872 52.4953 144.568 52.3015 144.474C51.7351 144.215 51.129 144.304 50.6769 144.742C50.6322 144.787 50.6123 144.862 50.6272 144.921C50.7912 145.459 51.3426 145.852 51.914 145.708C52.4854 145.564 52.7785 144.956 52.6692 144.404L52.3264 144.548C52.5301 144.812 52.7288 145.081 52.9325 145.345C52.9872 145.419 53.0965 145.479 53.1859 145.409C53.484 145.19 53.643 144.912 53.6529 144.538L53.5138 144.717C53.9212 144.608 54.2839 144.737 54.5472 145.056C54.6466 145.175 54.8105 145.091 54.8602 144.971C55.1881 144.125 56.1967 144.917 56.5643 145.265L56.7879 144.971C56.5196 144.787 56.2563 144.598 55.988 144.414C55.829 144.304 55.6402 144.518 55.7346 144.668C56.2613 145.554 57.553 145.205 57.558 144.17L57.1903 144.22L57.4089 145.016C57.4586 145.2 57.707 145.185 57.7667 145.016C57.8561 144.767 57.9406 144.518 58.03 144.269L57.8511 144.409C58.348 144.344 58.5069 144.897 58.0499 145.106C57.8313 145.205 58.02 145.524 58.2387 145.429C59.0236 145.076 58.7106 143.926 57.8511 144.036C57.7617 144.046 57.7021 144.085 57.6723 144.175C57.5828 144.424 57.4984 144.673 57.4089 144.921H57.7667L57.5481 144.125C57.4934 143.921 57.1804 143.961 57.1804 144.175C57.1804 144.832 56.3904 145.051 56.0526 144.483L55.7992 144.737C56.0675 144.921 56.3308 145.111 56.5991 145.295C56.773 145.414 56.9767 145.145 56.8227 145.001C56.4501 144.648 56.0079 144.245 55.4614 144.24C55.0242 144.24 54.6565 144.464 54.4975 144.872L54.8105 144.787C54.4578 144.364 53.9361 144.215 53.4144 144.354C53.3349 144.374 53.2803 144.454 53.2753 144.533C53.2654 144.767 53.1859 144.941 52.9921 145.081L53.2455 145.145C53.0418 144.882 52.8431 144.613 52.6394 144.349C52.5152 144.185 52.2568 144.274 52.2966 144.493C52.4705 145.374 51.2333 145.673 50.975 144.817L50.9253 144.996C51.2482 144.683 51.6904 144.598 52.0978 144.787L52.2419 144.444C51.2482 144.165 50.2049 144.349 49.3702 144.966L49.6236 145.031C49.5739 144.917 49.5193 144.797 49.4696 144.683C49.3951 144.518 49.1019 144.598 49.1218 144.777L49.2212 145.603C49.251 145.837 49.6236 145.842 49.5938 145.603L49.6137 145.623Z" fill="black"/>
<path d="M23.4953 149.301C26.5408 149.645 29.6013 149.814 32.6668 149.809C32.9052 149.809 32.9052 149.436 32.6668 149.436C29.6013 149.436 26.5408 149.271 23.4953 148.928C23.2568 148.903 23.2568 149.276 23.4953 149.301Z" fill="black"/>
<path d="M37.3122 149.615C40.5763 149.844 43.8505 149.759 47.0997 149.361C47.3332 149.331 47.3382 148.958 47.0997 148.988C43.8505 149.386 40.5763 149.471 37.3122 149.242C37.0737 149.227 37.0737 149.6 37.3122 149.615Z" fill="black"/>
<path d="M36.9494 154.249C40.298 154.373 43.6466 154.308 46.9853 154.054C47.2238 154.035 47.2238 153.661 46.9853 153.681C43.6466 153.93 40.298 153.995 36.9494 153.875C36.7109 153.865 36.7109 154.239 36.9494 154.249Z" fill="black"/>
<path d="M52.8529 148.988C55.8737 149.092 58.8944 149.023 61.9102 148.769C62.1486 148.749 62.1486 148.376 61.9102 148.396C58.8994 148.649 55.8737 148.724 52.8529 148.615C52.6145 148.605 52.6145 148.978 52.8529 148.988Z" fill="black"/>
<path d="M52.4854 154.124C55.5707 153.766 58.6808 153.607 61.786 153.651C62.0245 153.651 62.0245 153.283 61.786 153.278C58.6759 153.233 55.5707 153.388 52.4854 153.751C52.2518 153.781 52.2469 154.154 52.4854 154.124Z" fill="black"/>
<path d="M39.056 153.129C39.6621 152.487 40.3776 151.989 41.1874 151.641L40.934 151.387C40.7303 151.72 40.4123 151.934 40.0198 151.974L40.1987 152.208C40.2533 151.969 40.6111 151.785 40.8247 151.979C41.0681 152.208 40.785 152.606 40.5067 152.601L40.6856 152.741C40.6111 152.332 41.1774 152.223 41.2818 152.636C41.3066 152.741 41.4606 152.82 41.555 152.746C41.7041 152.631 41.8531 152.522 42.0022 152.407L41.7488 152.342C41.8482 152.502 41.9426 152.656 42.0419 152.815C42.0966 152.91 42.2009 152.925 42.2953 152.88C42.8716 152.621 43.4182 152.377 43.8802 151.929C44.2975 151.521 44.6006 151.028 44.7894 150.481L44.4218 150.431C44.3224 151.267 44.223 152.098 44.1237 152.935C44.0988 153.144 44.4416 153.183 44.4913 152.984C44.6205 152.452 45.1869 152.163 45.6986 152.347C45.9222 152.427 46.0215 152.069 45.798 151.989C45.1024 151.74 44.3125 152.173 44.1336 152.89L44.5012 152.94C44.6006 152.103 44.7 151.272 44.7993 150.436C44.8242 150.217 44.4963 150.202 44.4317 150.386C44.2479 150.909 43.9498 151.372 43.5424 151.74C43.135 152.108 42.6183 152.332 42.1115 152.561L42.3649 152.626C42.2655 152.467 42.1711 152.312 42.0717 152.153C42.0221 152.074 41.8979 152.024 41.8184 152.089C41.6693 152.203 41.5203 152.312 41.3712 152.427L41.6445 152.536C41.4259 151.651 40.1739 151.949 40.3328 152.84C40.3477 152.92 40.4372 152.974 40.5117 152.979C41.088 152.994 41.5352 152.248 41.1377 151.77C40.7402 151.292 39.9702 151.561 39.8459 152.113C39.8211 152.223 39.9006 152.362 40.0248 152.347C40.5514 152.293 40.9837 152.029 41.2569 151.576C41.3613 151.402 41.1625 151.252 41.0036 151.322C40.1639 151.68 39.4187 152.203 38.7976 152.865C38.6337 153.039 38.897 153.303 39.061 153.129H39.056Z" fill="black"/>
<path d="M19.1381 158.355C21.0757 157.116 22.2185 154.896 22.0793 152.591C22.0694 152.407 21.8359 152.337 21.7316 152.497C21.1105 153.452 20.6435 154.498 20.3653 155.607C20.1218 156.583 19.9132 157.768 20.092 158.768C20.1814 159.276 20.6435 159.833 21.1453 159.365C21.503 159.032 21.662 158.345 21.8508 157.902C22.134 157.25 22.4122 156.593 22.6954 155.941C22.7898 155.722 22.5166 155.553 22.3725 155.752C21.8707 156.444 21.826 157.305 22.2185 158.056C22.2781 158.171 22.4222 158.166 22.5116 158.096C23.0233 157.673 23.5351 157.25 24.0518 156.827L23.7586 156.603C23.3115 157.519 23.5897 158.634 24.3697 159.281C25.2243 159.987 26.4018 159.783 27.1222 158.987C27.8177 158.216 27.9221 157.041 27.1818 156.264C26.4415 155.488 25.2789 155.324 24.4045 155.881C24.3399 155.921 24.2902 156.016 24.32 156.09C24.4542 156.424 24.5834 156.752 24.7175 157.086C24.7573 157.185 24.8864 157.275 24.9908 157.195C25.3038 156.956 25.2591 156.966 25.582 157.001C25.8254 157.026 26.0341 156.986 26.2477 156.852C26.6204 156.618 26.8092 156.21 26.675 155.782C26.6303 155.642 26.4067 155.583 26.3322 155.737C26.1981 156.026 26.059 156.314 25.9248 156.603C25.8503 156.762 25.9695 156.902 26.1335 156.877C29.3728 156.424 32.1402 154.05 33.1239 150.929L32.7562 150.879C32.6121 152.173 32.4681 153.462 32.324 154.756C32.314 154.856 32.4184 154.941 32.5128 154.945C33.1736 154.95 33.5064 154.159 33.0792 153.676C33.0046 153.592 32.8357 153.607 32.786 153.716C32.6867 153.925 32.5873 154.134 32.4879 154.343C32.4283 154.473 32.5327 154.682 32.6966 154.617C33.3127 154.373 33.8194 154.015 34.2417 153.502C34.3908 153.318 34.1324 153.054 33.9784 153.238L33.0692 154.353C32.9401 154.512 33.099 154.751 33.2928 154.647C34.51 153.995 35.7223 153.343 36.9395 152.691C37.1532 152.576 36.9644 152.253 36.7507 152.367L33.104 154.323L33.3276 154.617C33.6307 154.244 33.9337 153.875 34.2368 153.502L33.9735 153.238C33.6008 153.701 33.1487 154.04 32.5972 154.259L32.8059 154.532C32.9053 154.323 33.0046 154.114 33.104 153.905L32.8109 153.945C32.9748 154.298 32.8705 154.508 32.5078 154.577L32.6966 154.766C32.8407 153.472 32.9848 152.183 33.1289 150.889C33.1537 150.67 32.8208 150.645 32.7612 150.839C31.8172 153.846 29.1443 156.09 26.0341 156.523L26.2428 156.797C26.3769 156.508 26.516 156.22 26.6502 155.931L26.3074 155.886C26.4664 156.384 25.8602 156.822 25.4329 156.533C25.3833 156.498 25.2938 156.498 25.2442 156.533L24.792 156.872L25.0653 156.981C24.9311 156.648 24.802 156.319 24.6678 155.986L24.5834 156.195C26.1881 155.169 28.2152 157.185 26.8489 158.713C26.2527 159.38 25.2789 159.569 24.5635 158.962C23.9474 158.435 23.7089 157.519 24.0667 156.782C24.1611 156.588 23.9375 156.419 23.7735 156.558C23.2618 156.981 22.7501 157.404 22.2334 157.827L22.5265 157.867C22.1936 157.225 22.2632 156.518 22.6805 155.941L22.3576 155.752C21.9998 156.588 21.6421 157.424 21.2794 158.255C21.1652 158.524 20.7776 159.534 20.4696 158.808C20.3206 158.454 20.41 157.897 20.4348 157.519C20.5292 155.792 21.1056 154.129 22.0446 152.681L21.6968 152.586C21.826 154.761 20.7727 156.857 18.9394 158.031C18.7357 158.161 18.9245 158.484 19.1282 158.355H19.1381Z" fill="black"/>
<path d="M43.2392 156.553C42.8467 156.877 42.5237 157.28 42.2852 157.733C42.1908 157.912 42.3747 158.061 42.5386 157.987C42.7672 157.887 42.9907 157.792 43.2193 157.693C43.4031 157.613 43.6118 157.554 43.7708 157.429C43.9148 157.32 44.0043 157.15 43.9496 156.966C43.895 156.782 43.7211 156.668 43.5323 156.712C43.4578 156.732 43.3932 156.812 43.3932 156.892C43.423 157.728 43.4528 158.559 43.4826 159.395C43.4925 159.634 43.8652 159.634 43.8552 159.395C43.8254 158.559 43.7956 157.728 43.7658 156.892L43.6267 157.071C43.5869 157.051 43.572 157.046 43.582 157.061C43.5869 157.071 43.5869 157.076 43.582 157.081C43.5422 157.111 43.5174 157.14 43.4727 157.165C43.3584 157.225 43.2392 157.27 43.1199 157.32C42.8616 157.429 42.6032 157.544 42.3399 157.653L42.5933 157.907C42.8169 157.479 43.1149 157.111 43.4876 156.802C43.6714 156.648 43.4081 156.384 43.2243 156.538L43.2392 156.553Z" fill="black"/>
<path d="M44.3968 156.996C44.4216 157.101 44.3869 157.215 44.3521 157.32C44.3123 157.439 44.2676 157.553 44.2478 157.678C44.208 157.927 44.2676 158.205 44.5111 158.33C44.7396 158.449 45.0178 158.375 45.1122 158.121C45.1917 157.892 45.0725 157.633 44.9831 157.424C44.8738 157.17 44.7396 156.936 44.5757 156.712C44.516 156.633 44.4167 156.593 44.3223 156.648C44.2428 156.692 44.1931 156.822 44.2577 156.901C44.3769 157.066 44.4862 157.235 44.5757 157.419C44.6204 157.504 44.6552 157.588 44.6899 157.673C44.7048 157.718 44.7197 157.758 44.7347 157.802C44.7396 157.822 44.7446 157.837 44.7496 157.857C44.7496 157.867 44.7496 157.877 44.7545 157.887C44.7545 157.887 44.7645 157.932 44.7595 157.907C44.7595 157.927 44.7595 157.947 44.7595 157.967C44.7595 158.001 44.7595 157.957 44.7595 157.991C44.7595 157.991 44.7496 158.021 44.7595 158.001C44.7645 157.986 44.7595 158.011 44.7545 158.011C44.7545 158.011 44.7347 158.036 44.7496 158.021C44.7496 158.016 44.7496 158.016 44.7496 158.021C44.7396 158.026 44.7396 158.026 44.7496 158.021H44.7545C44.7545 158.021 44.7347 158.021 44.7496 158.021C44.7645 158.011 44.7496 158.021 44.7446 158.021C44.7744 158.011 44.7545 158.021 44.7347 158.021C44.7645 158.021 44.7396 158.021 44.7197 158.021C44.7197 158.021 44.6899 158.011 44.7098 158.021C44.7297 158.031 44.6999 158.016 44.6949 158.011C44.685 158.006 44.6452 157.977 44.6701 157.996C44.6552 157.986 44.6452 157.972 44.6353 157.962C44.6552 157.986 44.6353 157.957 44.6253 157.947C44.6253 157.947 44.6154 157.922 44.6204 157.937C44.6204 157.947 44.6154 157.912 44.6154 157.907C44.5955 157.837 44.6154 157.743 44.6403 157.658C44.7098 157.404 44.8191 157.175 44.7595 156.906C44.7396 156.807 44.6253 156.752 44.531 156.777C44.4316 156.807 44.3769 156.906 44.4018 157.006L44.3968 156.996Z" fill="black"/>
<path d="M45.8328 155.642L45.8974 157.265C45.8974 157.364 45.9818 157.454 46.0861 157.454C46.1855 157.454 46.2749 157.369 46.2749 157.265L46.2104 155.642C46.2104 155.543 46.1259 155.453 46.0216 155.453C45.9222 155.453 45.8328 155.538 45.8328 155.642Z" fill="black"/>
<path d="M45.5048 156.737C45.7433 156.737 45.7433 156.364 45.5048 156.364C45.2663 156.364 45.2663 156.737 45.5048 156.737Z" fill="black"/>
<path d="M47.184 156.931C47.4225 156.931 47.4225 156.558 47.184 156.558C46.9455 156.558 46.9455 156.931 47.184 156.931Z" fill="black"/>
<path d="M53.8118 156.294C53.8913 156.16 54.0304 155.901 54.2142 155.966C54.2639 155.981 54.2788 156.011 54.254 156.075C54.2043 156.195 54.0851 156.284 53.9956 156.374C53.5634 156.802 53.1312 157.23 52.6989 157.663C52.53 157.832 52.7933 158.096 52.9622 157.927C53.2355 157.653 53.5137 157.379 53.787 157.106C53.9261 156.966 54.0602 156.832 54.1993 156.692C54.3235 156.568 54.4676 156.449 54.5521 156.294C54.6365 156.14 54.6614 155.961 54.572 155.807C54.4925 155.672 54.3484 155.602 54.1993 155.593C53.8565 155.563 53.6379 155.846 53.4839 156.11C53.3597 156.319 53.6826 156.503 53.8068 156.299L53.8118 156.294Z" fill="black"/>
<path d="M55.5159 155.782C55.3172 155.891 55.1035 156.006 54.9545 156.185C54.8005 156.374 54.7259 156.588 54.7707 156.832C54.8054 157.041 54.9495 157.23 55.1532 157.29C55.4066 157.369 55.66 157.22 55.7991 157.011C55.9829 156.737 55.9183 156.389 55.8538 156.085C55.8339 155.991 55.7146 155.926 55.6252 155.956C55.5258 155.991 55.4712 156.085 55.496 156.185C55.5209 156.284 55.5408 156.394 55.5457 156.483C55.5557 156.593 55.5457 156.668 55.5159 156.762C55.5258 156.727 55.501 156.787 55.496 156.792C55.4911 156.797 55.4861 156.807 55.4811 156.812C55.4811 156.812 55.4563 156.847 55.4712 156.827C55.4861 156.807 55.4613 156.837 55.4613 156.842C55.4563 156.847 55.4513 156.857 55.4464 156.862C55.4364 156.872 55.4315 156.877 55.4215 156.887C55.3967 156.911 55.4314 156.887 55.4116 156.892C55.3917 156.897 55.3768 156.911 55.3619 156.921C55.3321 156.931 55.352 156.926 55.3619 156.921C55.352 156.921 55.347 156.926 55.337 156.926C55.3271 156.926 55.3172 156.926 55.3072 156.931C55.2874 156.936 55.3122 156.931 55.3172 156.931C55.3072 156.931 55.2923 156.931 55.2824 156.931C55.2476 156.931 55.2923 156.936 55.2824 156.931C55.2725 156.926 55.2526 156.921 55.2377 156.916C55.2725 156.926 55.2476 156.916 55.2278 156.911C55.188 156.892 55.2427 156.926 55.2178 156.907C55.2128 156.902 55.2029 156.897 55.1979 156.887C55.1979 156.887 55.1681 156.852 55.188 156.877C55.2029 156.897 55.1781 156.857 55.1731 156.852C55.1681 156.842 55.1433 156.792 55.1632 156.837C55.1483 156.802 55.1433 156.772 55.1334 156.737C55.1234 156.692 55.1334 156.757 55.1334 156.722C55.1334 156.702 55.1334 156.683 55.1334 156.668C55.1334 156.658 55.1383 156.608 55.1334 156.638C55.1334 156.628 55.1333 156.613 55.1433 156.603C55.1433 156.588 55.1532 156.573 55.1582 156.558C55.1483 156.593 55.1483 156.573 55.1582 156.563C55.1681 156.553 55.1681 156.543 55.1731 156.533C55.183 156.513 55.193 156.498 55.2029 156.478C55.2029 156.478 55.2277 156.444 55.2128 156.464C55.2029 156.478 55.2327 156.439 55.2327 156.444C55.2625 156.409 55.2973 156.374 55.3321 156.344C55.342 156.334 55.352 156.329 55.3619 156.319C55.342 156.334 55.3619 156.319 55.3718 156.309C55.3917 156.294 55.4116 156.279 55.4314 156.269C55.5209 156.21 55.6103 156.16 55.7047 156.11C55.7892 156.065 55.8239 155.936 55.7693 155.856C55.7146 155.767 55.6053 155.742 55.5159 155.792V155.782Z" fill="black"/>
<path d="M57.4934 155.523C57.0661 155.553 56.7233 156.001 56.8872 156.424C57.0313 156.807 57.5331 156.961 57.8759 156.742C57.9703 156.683 57.9852 156.583 57.9405 156.488C57.8014 156.16 57.24 156.469 57.4487 156.772C57.5083 156.857 57.6076 156.892 57.702 156.837C58.343 156.479 58.6858 155.752 58.5864 155.03L58.2287 155.13C58.2833 155.533 57.9604 155.901 58.0001 156.314C58.0299 156.638 58.2635 156.966 58.6212 156.936C58.9242 156.907 59.1975 156.588 59.0137 156.294C58.8646 156.06 58.4672 156.021 58.328 156.284C58.2635 156.404 58.343 156.568 58.487 156.563C59.0981 156.548 59.6943 156.384 60.2309 156.085C60.4396 155.966 60.2508 155.647 60.0421 155.762C59.5652 156.031 59.0335 156.175 58.487 156.19L58.646 156.469C58.6609 156.479 58.6808 156.469 58.6957 156.488C58.7056 156.498 58.6907 156.518 58.656 156.538C58.5019 156.638 58.3877 156.429 58.3728 156.304C58.343 156.1 58.4423 155.891 58.5019 155.707C58.5765 155.483 58.6212 155.269 58.5864 155.03C58.5715 154.931 58.4473 154.876 58.3579 154.901C58.2486 154.931 58.2138 155.03 58.2287 155.13C58.3032 155.687 58.0001 156.25 57.5132 156.513L57.7666 156.578C57.861 156.717 57.6524 156.752 57.6176 156.673L57.6822 156.419C57.5381 156.508 57.3195 156.474 57.24 156.309C57.1555 156.135 57.3095 155.911 57.4934 155.896C57.7319 155.876 57.7319 155.503 57.4934 155.523Z" fill="black"/>
<path d="M54.5521 151.626C54.9495 151.402 55.2178 151.053 55.3271 150.61L54.9843 150.655C55.1185 150.934 55.2476 151.218 55.3818 151.496C55.4215 151.586 55.5557 151.616 55.6352 151.561C56.0475 151.297 56.2761 150.904 56.3009 150.416C56.3059 150.312 56.2115 150.232 56.1121 150.227C55.6451 150.217 55.3768 150.78 55.655 151.153C56.0674 151.705 56.7829 151.382 57.235 151.088L57.0462 150.765C56.917 150.864 56.7928 150.959 56.6636 151.058C56.5344 151.158 56.5493 151.422 56.758 151.407C58.5764 151.248 60.3998 151.093 62.2182 150.934C62.4567 150.914 62.4567 150.541 62.2182 150.561C60.3998 150.72 58.5764 150.874 56.758 151.034L56.8524 151.382C56.9816 151.282 57.1058 151.188 57.235 151.088C57.4188 150.949 57.2548 150.63 57.0462 150.765C56.8524 150.889 56.6487 151.038 56.4152 151.068C56.3158 151.083 56.1966 151.093 56.1072 151.038C56.0028 150.974 55.7494 150.595 56.1072 150.6L55.9184 150.411C55.8985 150.765 55.7345 151.043 55.4364 151.233L55.6898 151.297C55.5557 151.019 55.4265 150.735 55.2924 150.456C55.2228 150.312 54.9893 150.352 54.9495 150.501C54.8651 150.854 54.6664 151.118 54.3434 151.292C54.1347 151.407 54.3235 151.73 54.5322 151.616L54.5521 151.626Z" fill="black"/>
<path d="M62.4516 159.176C61.2692 158.434 60.981 156.867 61.1897 155.578C61.3983 154.288 62.1585 152.865 63.4453 152.293C64.5681 151.795 66.0884 151.989 66.8784 152.994C67.8869 154.283 67.3504 156.05 66.5058 157.265C65.6363 158.509 63.7533 160.326 62.1784 159.047C61.9945 158.897 61.7262 159.161 61.915 159.31C63.3658 160.49 65.1544 159.44 66.1977 158.25C67.3106 156.981 68.2298 155.224 67.5839 153.517C67.0423 152.079 65.4873 151.451 64.0365 151.72C62.4814 152.014 61.3934 153.373 60.9711 154.836C60.509 156.439 60.7326 158.539 62.2628 159.495C62.4665 159.624 62.6553 159.3 62.4516 159.171V159.176Z" fill="black"/>
<path d="M63.798 152.78C63.4205 155.09 63.0429 157.394 62.6653 159.704L62.9783 159.619L61.2543 157.787V158.051C63.0031 156.498 65.0103 155.254 67.1815 154.383L67.0374 154.04C66.4909 154.293 65.9444 154.547 65.3929 154.801C64.9507 155.005 64.4489 155.174 64.0564 155.463C63.8229 155.637 63.6242 155.891 63.6589 156.195C63.6887 156.454 63.8924 156.727 64.1607 156.772C64.5483 156.837 64.583 156.513 64.6476 156.215C64.752 155.707 64.8315 155.194 64.8811 154.677C64.9855 153.552 64.9358 152.427 64.7669 151.312C64.7321 151.073 64.3694 151.178 64.4091 151.412C64.6427 152.92 64.6178 154.463 64.3247 155.961C64.2998 156.09 64.3098 156.508 64.0812 156.289C63.8875 156.105 64.1707 155.841 64.2899 155.752C64.5383 155.573 64.8563 155.458 65.1345 155.329C65.8301 155.005 66.5256 154.682 67.2262 154.358C67.415 154.269 67.2808 153.94 67.0821 154.015C64.8464 154.911 62.7944 156.18 60.991 157.777C60.9164 157.847 60.9264 157.972 60.991 158.041L62.715 159.873C62.8044 159.967 63.0031 159.933 63.028 159.788C63.4056 157.479 63.7831 155.174 64.1607 152.865C64.2005 152.631 63.8378 152.526 63.803 152.765L63.798 152.78Z" fill="black"/>
<path d="M18.2586 124.928C19.4162 124.704 20.2061 123.445 19.9428 122.305C19.8882 122.071 19.5304 122.171 19.5851 122.405C19.8087 123.36 19.1131 124.385 18.1642 124.57C17.9306 124.614 18.03 124.973 18.2635 124.928H18.2586Z" fill="black"/>
<path d="M19.3019 121.484C18.81 122.395 19.0534 123.47 19.8682 124.092C19.9279 124.137 20.0471 124.122 20.0918 124.062C20.4644 123.634 20.6284 123.156 20.5688 122.589C20.5439 122.355 20.2011 122.345 20.1961 122.589C20.1862 122.987 20.2905 123.32 20.5241 123.644C20.5986 123.748 20.7178 123.763 20.8172 123.684C21.0755 123.47 21.0209 123.146 20.7625 122.962C20.6731 122.902 20.5638 122.952 20.5091 123.027C20.1763 123.475 19.2323 124.968 20.226 125.182C20.9215 125.331 21.3041 124.595 20.9861 124.037L20.7774 124.311C20.9315 124.346 21.0855 124.376 21.2395 124.41C21.3041 124.425 21.3736 124.41 21.4184 124.361C21.6668 124.087 21.6618 123.788 21.4333 123.504C21.319 123.365 21.0507 123.514 21.1203 123.684C21.2991 124.112 21.8407 124.405 22.2729 124.107C22.7051 123.808 22.2182 123.295 21.8158 123.33C21.5823 123.35 21.5724 123.709 21.8158 123.704C26.3767 123.649 30.9426 123.594 35.5035 123.534V123.161L29.6558 123.485C29.1689 123.509 28.682 123.539 28.1951 123.564C27.6238 123.594 27.2213 123.714 26.7792 123.32C26.0538 122.688 25.4377 121.847 24.7918 121.135C24.7421 121.081 24.6279 121.061 24.5683 121.105C23.6094 121.812 23.7385 123.221 24.6428 123.918C25.9147 124.898 27.5641 124.306 28.8609 123.723C29.0795 123.624 28.8907 123.305 28.6721 123.4C27.7033 123.838 26.6102 124.291 25.5371 123.957C24.4639 123.624 23.664 122.23 24.7571 121.429L24.5335 121.399C25.2539 122.191 25.9594 122.992 26.6897 123.768C26.9928 124.092 27.1319 123.997 27.594 123.972L29.1788 123.883C31.2904 123.768 33.4019 123.649 35.5134 123.534C35.7519 123.519 35.7569 123.156 35.5134 123.161C30.9525 123.216 26.3867 123.271 21.8258 123.33V123.704C21.6469 123.793 21.5376 123.758 21.4929 123.584L21.1799 123.763C21.1898 124.007 21.0904 124.067 20.8818 123.942C20.7228 123.908 20.5886 124.072 20.6731 124.216C20.2558 124.789 20.1067 124.868 20.2309 124.47C20.2607 124.336 20.3054 124.201 20.3502 124.072C20.4694 123.753 20.6383 123.48 20.842 123.211L20.5886 123.276L20.5688 123.41L20.8619 123.45C20.6632 123.181 20.5787 122.917 20.5837 122.584H20.2111C20.2607 123.042 20.1514 123.44 19.8434 123.793L20.067 123.763C19.4161 123.266 19.2422 122.38 19.6298 121.668C19.744 121.459 19.4211 121.27 19.3068 121.479L19.3019 121.484Z" fill="black"/>
<path d="M28.3393 121.095L28.4237 120.966L28.4883 121.275L28.3591 121.319L28.2598 121.026L29.1839 120.697L29.2932 120.991L29.164 121.036L29.0199 120.757L29.164 120.807L28.3492 121.095H28.3393ZM28.7566 121.399C28.697 121.235 28.6423 121.071 28.5777 120.911L28.851 120.812C28.9007 120.971 28.9603 121.135 29.0199 121.3L29.0398 121.354C29.0994 121.519 29.1541 121.683 29.2186 121.842L28.9454 121.942C28.8957 121.782 28.8361 121.618 28.7765 121.454L28.7566 121.394V121.399ZM29.0746 121.777L29.323 121.718L29.3528 121.802L28.8162 121.996L28.7864 121.912L29.01 121.807L29.0795 121.782L29.0746 121.777Z" fill="black"/>
<path d="M29.944 120.533L29.9192 120.448L30.421 120.284L30.4508 120.369L30.2272 120.468L30.1825 120.483L29.954 120.533H29.944ZM30.1974 120.901C30.1428 120.737 30.0931 120.573 30.0335 120.409L30.3117 120.319C30.3564 120.483 30.4111 120.648 30.4657 120.817L30.4806 120.867C30.5353 121.041 30.5899 121.205 30.6495 121.369L30.3713 121.459C30.3266 121.295 30.2719 121.13 30.2173 120.966L30.1974 120.906V120.901ZM30.4905 121.295L30.729 121.245L30.7588 121.329L30.257 121.494L30.2322 121.409L30.4458 121.314L30.4905 121.3V121.295ZM30.3514 120.921L30.3216 120.827L30.9278 120.633L30.9576 120.727L30.3514 120.921ZM30.5601 120.334L30.5303 120.249L31.0321 120.09L31.0619 120.175L30.8433 120.274L30.7986 120.289L30.5651 120.339L30.5601 120.334ZM30.8035 120.707C30.7489 120.543 30.6992 120.379 30.6396 120.215L30.9178 120.125C30.9625 120.289 31.0172 120.453 31.0718 120.623L31.0917 120.682C31.1464 120.847 31.196 121.011 31.2557 121.175L30.9774 121.265C30.9278 121.1 30.8781 120.936 30.8185 120.762L30.8035 120.712V120.707ZM31.1066 121.1L31.3401 121.051L31.3699 121.135L30.8681 121.295L30.8383 121.21L31.0569 121.11L31.1016 121.095L31.1066 121.1Z" fill="black"/>
<path d="M31.8171 119.941L31.7922 119.856L32.0506 119.782L32.0804 119.891H32.0556L31.8171 119.941ZM32.0605 120.314C32.0108 120.15 31.9612 119.981 31.9115 119.821L32.1897 119.742C32.2344 119.906 32.2791 120.07 32.3288 120.239L32.3437 120.294C32.3934 120.463 32.4431 120.633 32.4928 120.797L32.2145 120.877C32.1698 120.712 32.1251 120.548 32.0754 120.379L32.0605 120.319V120.314ZM32.4381 119.662L32.5822 119.717L32.0754 119.866L32.0506 119.777L32.607 119.612L32.6965 119.886L32.5623 119.926L32.4331 119.662H32.4381ZM32.3238 120.717L32.3537 120.827L32.0953 120.901L32.0705 120.817L32.294 120.727H32.3189L32.3238 120.717ZM32.5623 120.229L32.2096 120.334L32.1798 120.239L32.5325 120.135L32.5623 120.229ZM32.8753 120.374L32.9449 120.653L32.3537 120.827L32.3288 120.737L32.8654 120.578L32.776 120.702L32.7412 120.414L32.8753 120.374ZM32.4928 120.175L32.4729 120.015L32.5673 119.991L32.6667 120.334L32.5723 120.359L32.5027 120.205L32.4928 120.175Z" fill="black"/>
<path d="M35.1409 119.846C35.121 119.762 35.0663 119.732 34.957 119.712L34.8825 119.697C34.6689 119.657 34.5347 119.587 34.49 119.408C34.4403 119.214 34.5695 119.055 34.8179 118.995C34.9322 118.965 35.0514 118.97 35.1458 119L35.1856 119.229L35.0365 119.264L34.9372 119.03L35.0812 119.045L35.1011 119.125C34.9968 119.085 34.9322 119.065 34.8477 119.085C34.7533 119.11 34.6937 119.184 34.7185 119.274C34.7384 119.358 34.803 119.393 34.9073 119.413L34.9918 119.428C35.2204 119.473 35.3297 119.538 35.3694 119.702C35.4141 119.891 35.3048 120.065 35.0266 120.135C34.9024 120.165 34.7633 120.17 34.654 120.135L34.6043 119.891L34.7533 119.851L34.8577 120.105L34.7235 120.095L34.7036 120.015C34.8179 120.045 34.8924 120.06 34.9968 120.03C35.111 120.001 35.1607 119.921 35.1359 119.831L35.1409 119.846Z" fill="black"/>
<path d="M35.9657 118.851L35.9458 118.761L36.2091 118.707L36.234 118.816H36.2091L35.9657 118.846V118.851ZM36.1793 119.244C36.1445 119.075 36.1098 118.906 36.065 118.736L36.3482 118.677C36.378 118.841 36.4128 119.01 36.4526 119.184L36.4724 119.284C36.5023 119.418 36.537 119.583 36.5768 119.752L36.2936 119.811C36.2638 119.647 36.229 119.478 36.1892 119.304L36.1743 119.244H36.1793ZM36.4625 119.657L36.706 119.632L36.7258 119.722L36.1793 119.836L36.1594 119.747L36.3929 119.672L36.4675 119.657H36.4625ZM36.5321 119.329L36.3482 119.369L36.3284 119.279L36.5122 119.239C36.6563 119.209 36.706 119.095 36.6761 118.945C36.6463 118.796 36.547 118.736 36.4079 118.766L36.229 118.806L36.2091 118.712L36.388 118.672C36.7258 118.602 36.8898 118.697 36.9295 118.896C36.9693 119.08 36.8798 119.259 36.5271 119.334L36.5321 119.329Z" fill="black"/>
<path d="M37.635 118.517L37.6201 118.428L38.1468 118.333L38.1617 118.423L37.9232 118.488L37.8735 118.498L37.6301 118.512L37.635 118.517ZM37.8338 118.916C37.8039 118.746 37.7741 118.577 37.7394 118.408L38.0225 118.358C38.0474 118.522 38.0772 118.697 38.107 118.866L38.1169 118.926C38.1468 119.095 38.1766 119.269 38.2113 119.433L37.9281 119.483C37.9033 119.319 37.8735 119.145 37.8437 118.97L37.8338 118.911V118.916ZM38.0722 119.344L38.3206 119.324L38.3356 119.413L37.8089 119.508L37.794 119.418L38.0275 119.354L38.0772 119.344H38.0722Z" fill="black"/>
<path d="M38.9565 118.298L38.9465 118.209L39.2099 118.174L39.2248 118.288H39.1999L38.9565 118.298ZM39.1403 118.706C39.1204 118.537 39.0956 118.363 39.0658 118.194L39.349 118.159C39.3688 118.328 39.3887 118.497 39.4136 118.677V118.726C39.4434 118.9 39.4682 119.075 39.493 119.244L39.2099 119.284C39.1949 119.115 39.1701 118.945 39.1453 118.771L39.1353 118.711L39.1403 118.706ZM39.3639 119.144H39.6073L39.6173 119.229L39.0856 119.299L39.0757 119.209L39.3092 119.154H39.3589L39.3639 119.144ZM39.2794 118.672L39.4732 118.647C39.6371 118.627 39.6769 118.522 39.662 118.418C39.6421 118.283 39.5626 118.229 39.4285 118.248L39.2248 118.273L39.2099 118.179L39.4781 118.144C39.7365 118.109 39.8955 118.194 39.9154 118.363C39.9303 118.487 39.8557 118.632 39.5676 118.686V118.672C39.8259 118.647 39.9054 118.721 39.9551 118.896L40.0346 119.144L39.8855 119.075H40.134L40.1439 119.159C40.0694 119.189 40.0396 119.199 39.965 119.209C39.8259 119.229 39.7365 119.199 39.7017 119.07L39.6471 118.881C39.6173 118.771 39.5676 118.726 39.4682 118.741L39.2794 118.766L39.2695 118.672H39.2794Z" fill="black"/>
<path d="M40.7899 118.079V117.99L41.3165 117.945V118.034L41.078 118.079H41.0284H40.7849H40.7899ZM41.1526 118.945H41.401L41.406 119.04L40.8694 119.085V118.995L41.1029 118.95H41.1526V118.945ZM40.9538 118.497C40.9389 118.328 40.924 118.154 40.9091 117.985L41.1973 117.96C41.2072 118.129 41.2172 118.298 41.2321 118.477V118.537C41.2519 118.711 41.2668 118.881 41.2817 119.055L40.9936 119.08C40.9836 118.91 40.9737 118.741 40.9588 118.567V118.507L40.9538 118.497Z" fill="black"/>
<path d="M42.176 117.99L42.2952 117.89L42.2604 118.204H42.1213V117.895L43.1001 117.865L43.115 118.174H42.9759L42.9212 117.87L43.0454 117.96L42.181 117.985L42.176 117.99ZM42.6728 118.861L42.9262 118.881V118.97L42.3598 118.985V118.896L42.6033 118.861H42.6778H42.6728ZM42.484 118.403C42.4791 118.229 42.4741 118.054 42.4642 117.885L42.7523 117.875C42.7523 118.044 42.7573 118.219 42.7622 118.393V118.453C42.7672 118.627 42.7772 118.801 42.7871 118.97L42.4989 118.98C42.4989 118.811 42.494 118.637 42.489 118.462V118.403H42.484Z" fill="black"/>
<path d="M45.9519 118.493C45.932 118.876 45.6687 119.055 45.3954 119.045C45.1222 119.03 44.8787 118.826 44.8986 118.443C44.9185 118.06 45.1818 117.88 45.455 117.89C45.7283 117.905 45.9718 118.109 45.9519 118.498V118.493ZM45.4004 118.945C45.5693 118.955 45.6438 118.751 45.6587 118.478C45.6737 118.204 45.619 117.99 45.4501 117.985C45.2812 117.975 45.2066 118.179 45.1917 118.458C45.1768 118.731 45.2315 118.94 45.4004 118.95V118.945Z" fill="black"/>
<path d="M47.0003 119.005L47.2387 119.05L47.2288 119.14L46.6724 119.09L46.6823 119H46.9257H47.0003V119.005ZM46.7618 118.089L46.7717 118L47.04 118.025L47.0301 118.139H47.0052L46.7668 118.089H46.7618ZM46.8512 118.527C46.8661 118.358 46.881 118.184 46.891 118.015L47.1791 118.04C47.1593 118.209 47.1444 118.378 47.1294 118.552V118.607C47.1096 118.786 47.0947 118.955 47.0847 119.13L46.7966 119.105C46.8164 118.935 46.8313 118.766 46.8463 118.592V118.532L46.8512 118.527ZM47.353 118.632L46.9854 118.602L46.9953 118.502L47.363 118.537L47.353 118.637V118.632ZM47.4474 118.059L47.5567 118.164L47.0201 118.119L47.0301 118.025L47.6213 118.074L47.6064 118.363L47.4673 118.348L47.4424 118.059H47.4474ZM47.3083 118.557L47.3481 118.398L47.4424 118.408L47.4077 118.781L47.3133 118.771L47.3033 118.602V118.552L47.3083 118.557Z" fill="black"/>
<path d="M49.6284 119.319L49.8619 119.378L49.847 119.468L49.2905 119.383L49.3054 119.294L49.5489 119.304L49.6234 119.314L49.6284 119.319ZM49.5091 118.831C49.534 118.662 49.5588 118.487 49.5787 118.318L49.8669 118.363C49.837 118.527 49.8122 118.701 49.7874 118.876L49.7725 118.975C49.7526 119.11 49.7277 119.279 49.7079 119.448L49.4197 119.408C49.4495 119.244 49.4744 119.07 49.4992 118.896L49.5091 118.836V118.831ZM49.4445 118.388L49.4595 118.298L49.7228 118.338L49.7079 118.453H49.683L49.4495 118.388H49.4445ZM49.8072 119.035L49.6234 119.005L49.6383 118.911L49.8271 118.935C49.9712 118.955 50.0606 118.866 50.0805 118.716C50.1004 118.562 50.0358 118.473 49.8917 118.453L49.7128 118.428L49.7277 118.333L49.9116 118.358C50.2544 118.408 50.3736 118.557 50.3438 118.756C50.314 118.945 50.1699 119.085 49.8122 119.03L49.8072 119.035Z" fill="black"/>
<path d="M51.2332 119.582L51.4667 119.652L51.4518 119.742L50.9351 119.647L50.95 119.558L51.1835 119.578L51.2332 119.587V119.582ZM51.1636 119.1C51.1934 118.93 51.2282 118.761 51.253 118.592L51.5362 118.647C51.5014 118.811 51.4667 118.98 51.4369 119.154L51.4269 119.204C51.3921 119.383 51.3623 119.553 51.3375 119.722L51.0543 119.667C51.0891 119.503 51.1239 119.334 51.1537 119.159L51.1636 119.1ZM51.1189 118.657L51.1338 118.567L51.6505 118.662L51.6356 118.751L51.3921 118.731L51.3425 118.721L51.1189 118.652V118.657ZM51.2878 119.189L51.3077 119.095L51.9337 119.214L51.9138 119.309L51.2878 119.189ZM51.8641 119.702L52.0927 119.772L52.0778 119.861L51.5611 119.767L51.576 119.677L51.8145 119.697L51.8592 119.707L51.8641 119.702ZM51.7846 119.214C51.8145 119.045 51.8492 118.876 51.8741 118.706L52.1573 118.761C52.1225 118.925 52.0877 119.095 52.0579 119.269L52.048 119.329C52.0182 119.498 51.9834 119.667 51.9585 119.836L51.6753 119.782C51.7101 119.617 51.7449 119.448 51.7747 119.264L51.7846 119.214ZM51.7449 118.771L51.7598 118.682L52.2765 118.776L52.2616 118.866L52.0231 118.846L51.9784 118.836L51.7499 118.766L51.7449 118.771Z" fill="black"/>
<path d="M53.4789 120.035C53.623 120.07 53.7323 119.991 53.7869 119.747L53.926 119.139L54.0304 119.164L53.8912 119.772C53.8117 120.115 53.623 120.224 53.3547 120.165C53.1162 120.11 52.9671 119.951 53.0367 119.637L53.0764 119.458C53.1112 119.299 53.151 119.134 53.1808 118.97L53.464 119.035C53.4242 119.194 53.3845 119.358 53.3497 119.523L53.3199 119.647C53.2652 119.896 53.3199 120 53.4739 120.035H53.4789ZM53.0466 119.03L53.0665 118.945L53.5981 119.065L53.5782 119.149L53.3298 119.12L53.2851 119.11L53.0466 119.03ZM53.926 119.244L53.7571 119.189L53.777 119.105L54.1645 119.194L54.1446 119.284L53.9757 119.259L53.926 119.249V119.244Z" fill="black"/>
<path d="M54.9397 120.404L55.1434 120.483L55.1186 120.568L54.6267 120.439L54.6516 120.354L54.89 120.394L54.9347 120.404H54.9397ZM54.9 119.911C54.9447 119.747 54.9894 119.578 55.0291 119.408L55.2974 119.478C55.2478 119.642 55.203 119.806 55.1583 119.976L55.1384 120.045C55.0987 120.2 55.054 120.369 55.0142 120.538L54.746 120.468C54.7956 120.309 54.8403 120.14 54.8851 119.971L54.9 119.911ZM54.8851 119.463L54.9099 119.378L55.4167 119.513L55.3918 119.597L55.1583 119.563L55.1136 119.548L54.8851 119.463ZM54.9795 120.15L55.7346 119.597L55.8539 119.627L54.9496 120.259L54.9795 120.145V120.15ZM55.2428 120.508L55.4664 120.543L55.5011 120.553L55.7048 120.633L55.68 120.717L55.213 120.593L55.2378 120.508H55.2428ZM55.4415 119.861L55.6353 120.707L55.3421 120.628L55.2179 120.02L55.4415 119.861ZM55.521 119.632L55.5458 119.548L55.9185 119.647L55.8936 119.732L55.6999 119.707L55.6502 119.697L55.516 119.632H55.521Z" fill="black"/>
<path d="M56.6735 120.886L56.6387 120.996L56.3804 120.916L56.4052 120.832L56.6437 120.876H56.6685L56.6735 120.886ZM56.6735 120.404C56.7232 120.239 56.7729 120.07 56.8176 119.906L57.0958 119.99C57.0412 120.15 56.9915 120.319 56.9418 120.483L56.9269 120.533C56.8772 120.702 56.8225 120.871 56.7828 121.036L56.5046 120.951C56.5592 120.792 56.6089 120.623 56.6586 120.458L56.6785 120.399L56.6735 120.404ZM57.3243 120.906L57.23 121.18L56.6387 121.001L56.6636 120.911L57.2001 121.075L57.0561 121.13L57.1852 120.871L57.3194 120.911L57.3243 120.906ZM56.6735 119.961L56.6983 119.876L56.9567 119.956L56.9219 120.065H56.8971L56.6735 119.966V119.961ZM57.1405 120.613L56.7878 120.508L56.8176 120.414L57.1703 120.518L57.1405 120.613ZM57.3442 120.07L57.4336 120.195L56.9269 120.04L56.9517 119.951L57.5082 120.12L57.4386 120.399L57.3045 120.359L57.3393 120.07H57.3442ZM57.1107 120.533L57.1803 120.389L57.2747 120.418L57.1703 120.762L57.0759 120.732L57.1008 120.563L57.1107 120.533Z" fill="black"/>
<path d="M58.477 121.469L58.7056 121.573L58.6757 121.658L58.1392 121.474L58.169 121.389L58.4124 121.449L58.482 121.474L58.477 121.469ZM58.323 120.478L58.4671 120.429L58.323 120.707L58.1938 120.662L58.2981 120.374L59.2223 120.692L59.1279 120.986L58.9987 120.941L59.0583 120.633L59.1428 120.762L58.323 120.478ZM58.4621 120.976C58.5168 120.812 58.5764 120.648 58.6261 120.483L58.8993 120.578C58.8397 120.737 58.785 120.901 58.7254 121.066L58.7056 121.125C58.6509 121.29 58.5913 121.454 58.5416 121.618L58.2683 121.524C58.328 121.364 58.3826 121.2 58.4422 121.036L58.4621 120.976Z" fill="black"/>
<path d="M23.0631 102.715C22.9389 102.799 22.8146 102.864 22.6855 102.914C22.5563 102.963 22.4172 102.998 22.2632 103.018C21.662 103.098 21.1801 102.924 20.8174 102.496C20.4547 102.068 20.2013 101.376 20.0672 100.43C19.9281 99.4645 19.9877 98.708 20.246 98.1654C20.5044 97.6229 20.9565 97.3094 21.6024 97.2247C21.7415 97.2048 21.8806 97.1999 22.0048 97.2098C22.134 97.2198 22.2582 97.2397 22.3774 97.2745C22.4122 97.5632 22.4321 97.7075 22.4669 97.9962C22.3427 97.9564 22.2284 97.9315 22.1191 97.9166C22.0098 97.9066 21.9054 97.9066 21.8111 97.9166C21.3788 97.9713 21.0857 98.1953 20.9317 98.5736C20.7826 98.9568 20.7578 99.5292 20.8671 100.306C20.9664 101.027 21.1304 101.545 21.3639 101.868C21.5974 102.192 21.9054 102.326 22.288 102.277C22.3973 102.262 22.5066 102.232 22.6159 102.182C22.7252 102.132 22.8395 102.063 22.9637 101.973C23.0034 102.272 23.0183 102.421 23.0581 102.715H23.0631Z" fill="#A5A5A5"/>
<path d="M24.7374 102.64C24.474 100.38 24.3449 99.2455 24.0815 96.9858C24.4095 96.946 24.5734 96.9311 24.9013 96.8912C24.9957 97.7523 25.0454 98.1803 25.1398 99.0414C25.7211 98.9767 26.0092 98.9468 26.5905 98.8871C26.5011 98.026 26.4564 97.598 26.3719 96.737C26.6998 96.7021 26.8638 96.6872 27.1917 96.6523C27.4103 98.917 27.5246 100.052 27.7432 102.316C27.4252 102.346 27.2662 102.361 26.9483 102.396C26.834 101.276 26.7744 100.719 26.6601 99.5989C26.0838 99.6586 25.7956 99.6884 25.2143 99.7531C25.3385 100.873 25.3981 101.43 25.5224 102.545C25.2044 102.58 25.0454 102.6 24.7274 102.635L24.7374 102.64Z" fill="#A5A5A5"/>
<path d="M29.2932 102.172C29.646 99.8528 29.8298 98.6981 30.2223 96.3837C30.5303 96.3588 30.6843 96.3489 30.9973 96.324C31.7376 98.5488 32.1003 99.6637 32.8058 101.898C32.4829 101.918 32.3239 101.933 32.0009 101.953C31.8569 101.515 31.7823 101.296 31.6383 100.858C31.0967 100.898 30.8235 100.918 30.2819 100.963C30.2074 101.416 30.1726 101.645 30.0981 102.103C29.7751 102.127 29.6162 102.142 29.2932 102.172ZM30.7241 97.8171C30.58 98.8176 30.5104 99.3153 30.3763 100.316C30.8036 100.281 31.0222 100.266 31.4495 100.231C31.1613 99.2655 31.0172 98.7827 30.7241 97.8171Z" fill="#A5A5A5"/>
<path d="M34.3509 101.804C34.2217 99.5291 34.1521 98.3943 34.0229 96.1197C34.3509 96.0998 34.5198 96.0899 34.8477 96.075C34.952 98.0658 35.0067 99.0613 35.111 101.052C35.7966 101.017 36.1394 100.997 36.8251 100.968C36.835 101.251 36.8449 101.391 36.8549 101.674C35.8513 101.719 35.3495 101.744 34.3509 101.799V101.804Z" fill="#A5A5A5"/>
<path d="M38.0077 98.7875C37.9729 97.7473 38.0773 96.9957 38.3356 96.5329C38.594 96.07 39.0312 95.8311 39.6473 95.8161C40.2633 95.8012 40.7055 96.0202 40.9837 96.4632C41.262 96.9062 41.406 97.6577 41.4209 98.7029C41.4358 99.7432 41.3166 100.495 41.0583 100.948C40.8049 101.401 40.3826 101.635 39.7864 101.649C39.1902 101.664 38.7579 101.455 38.4747 101.012C38.1965 100.569 38.0375 99.8328 38.0027 98.7875H38.0077ZM38.8275 98.7427C38.8523 99.5491 38.9368 100.116 39.0858 100.44C39.2349 100.768 39.4634 100.928 39.7864 100.918C40.1043 100.908 40.3229 100.749 40.4472 100.43C40.5714 100.111 40.626 99.5341 40.6061 98.693C40.5912 97.8767 40.5117 97.3043 40.3677 96.9858C40.2236 96.6673 39.9901 96.508 39.6671 96.5179C39.3392 96.5279 39.1107 96.6971 38.9865 97.0256C38.8573 97.3541 38.8076 97.9265 38.8325 98.7378L38.8275 98.7427Z" fill="#A5A5A5"/>
<path d="M43.2988 101.525C43.2888 99.2454 43.2839 98.1106 43.2739 95.8311C43.577 95.8311 43.731 95.8311 44.0341 95.8311C44.68 97.4138 44.9979 98.2052 45.614 99.7929C45.6289 98.2102 45.6388 97.4238 45.6537 95.841C45.9667 95.841 46.1257 95.841 46.4387 95.851C46.404 98.1256 46.3891 99.2653 46.3592 101.54C46.0611 101.54 45.9121 101.535 45.609 101.53C45.0029 99.9273 44.6899 99.1309 44.0539 97.5382C44.0539 99.1309 44.0539 99.9273 44.0539 101.525C43.7509 101.525 43.6018 101.525 43.2988 101.525Z" fill="#A5A5A5"/>
<path d="M51.7151 98.6434C51.7151 98.7629 51.7151 98.8823 51.7151 98.9968C51.7151 99.1113 51.7151 99.2208 51.7052 99.3253C51.6654 100.156 51.4965 100.769 51.1984 101.152C50.9003 101.54 50.4581 101.719 49.8718 101.699C49.2657 101.68 48.8384 101.441 48.5801 100.978C48.3217 100.52 48.2025 99.7683 48.2273 98.733C48.2522 97.6828 48.4112 96.9362 48.7043 96.4933C48.9974 96.0503 49.4644 95.8413 50.1004 95.8612C50.5525 95.8761 50.9152 95.9906 51.1785 96.1996C51.4468 96.4087 51.6207 96.7172 51.7052 97.1254C51.412 97.2448 51.263 97.3045 50.9698 97.419C50.9251 97.1403 50.8258 96.9263 50.6767 96.7869C50.5277 96.6476 50.3289 96.5729 50.0805 96.5629C49.7228 96.548 49.4694 96.7023 49.3104 97.0159C49.1564 97.3294 49.067 97.9018 49.0421 98.733C49.0173 99.5542 49.0719 100.132 49.2061 100.46C49.3402 100.789 49.5787 100.958 49.9265 100.968C50.2345 100.978 50.473 100.868 50.637 100.629C50.8009 100.39 50.8953 100.032 50.9152 99.5443C50.9152 99.4696 50.9152 99.4149 50.9152 99.38C50.9152 99.3402 50.9152 99.3054 50.9152 99.2755C50.5724 99.2606 50.3985 99.2556 50.0557 99.2407C50.0656 98.9719 50.0706 98.8375 50.0805 98.5688C50.7314 98.5936 51.0543 98.6036 51.7052 98.6335L51.7151 98.6434Z" fill="#A5A5A5"/>
<path d="M55.8787 101.948C56.0426 99.6784 56.1221 98.5436 56.2861 96.269C56.7382 96.2989 56.9618 96.3188 57.4139 96.3537C58.0101 96.3984 58.4324 96.5527 58.6808 96.8016C58.9292 97.0505 59.0286 97.4287 58.9839 97.9314C58.9491 98.3097 58.8596 98.5934 58.7156 98.7925C58.5665 98.9866 58.3529 99.116 58.0597 99.1757C58.3678 99.2703 58.5864 99.4296 58.7106 99.6436C58.8348 99.8576 58.8795 100.161 58.8447 100.539C58.7951 101.097 58.6212 101.5 58.333 101.739C58.0399 101.978 57.6076 102.077 57.0363 102.033C56.5742 101.998 56.3407 101.978 55.8787 101.948ZM56.917 98.7626C57.0363 98.7726 57.0959 98.7776 57.2151 98.7875C57.5182 98.8124 57.7517 98.7577 57.9057 98.6282C58.0597 98.4988 58.1492 98.2798 58.174 97.9762C58.1989 97.6577 58.1541 97.4287 58.0299 97.2844C57.9057 97.1401 57.6822 97.0554 57.3542 97.0306C57.235 97.0206 57.1754 97.0156 57.0561 97.0057C57.0015 97.7075 56.9767 98.0608 56.922 98.7626H56.917ZM56.7233 101.281C56.8326 101.291 56.8823 101.291 56.9916 101.301C57.3592 101.331 57.6176 101.281 57.7666 101.162C57.9157 101.037 58.0051 100.803 58.0299 100.465C58.0597 100.121 58.0051 99.8676 57.871 99.7033C57.7368 99.5391 57.4934 99.4445 57.1505 99.4146C57.0412 99.4047 56.9816 99.3997 56.8723 99.3947C56.8127 100.151 56.7879 100.53 56.7282 101.286L56.7233 101.281Z" fill="#A5A5A5"/>
<path d="M60.0122 102.297C60.7823 100.082 61.1748 98.9768 61.9846 96.7769C62.2927 96.8117 62.4467 96.8266 62.7547 96.8615C63.0776 99.1858 63.2317 100.35 63.5149 102.675C63.1919 102.635 63.0329 102.62 62.715 102.58C62.6504 102.122 62.6206 101.893 62.556 101.436C62.0144 101.376 61.7461 101.346 61.2046 101.291C61.0506 101.724 60.9711 101.943 60.8171 102.376C60.4941 102.341 60.3351 102.326 60.0122 102.297ZM62.2181 98.28C61.8952 99.2356 61.7362 99.7134 61.4182 100.674C61.8455 100.719 62.0591 100.744 62.4914 100.788C62.3871 99.7831 62.3324 99.2854 62.2181 98.28Z" fill="#A5A5A5"/>
<path d="M66.6997 100.639C66.5705 101.6 66.5059 102.078 66.3767 103.038C66.0488 102.993 65.8849 102.973 65.5619 102.929C65.6862 101.968 65.7507 101.49 65.8749 100.53C65.5967 99.1758 65.4477 98.4939 65.1545 97.1401C65.4924 97.18 65.6613 97.2048 65.9992 97.2447C66.1234 97.9017 66.183 98.2301 66.3022 98.8822C66.3221 98.9917 66.342 99.126 66.3569 99.2853C66.3718 99.4446 66.3867 99.6238 66.3917 99.8129C66.4413 99.6536 66.491 99.4993 66.5457 99.36C66.6003 99.2156 66.6599 99.0813 66.7196 98.9469C67.0077 98.3396 67.1518 98.041 67.4449 97.4338C67.7877 97.4786 67.9567 97.5035 68.2995 97.5532C67.6536 98.7826 67.3356 99.3998 66.7046 100.634L66.6997 100.639Z" fill="#A5A5A5"/>
<path d="M37.1879 67.038C36.7904 66.3462 35.9458 66.0575 35.2105 66.3611C32.9151 67.3167 28.1605 69.6361 25.5869 73.3242C23.2518 76.6639 21.5924 81.1235 20.7477 83.6967C20.4149 84.717 21.175 85.7672 22.2482 85.7672H26.2079C27.1022 85.7672 27.8425 85.0256 27.8077 84.1297C27.758 82.8605 27.9568 80.8896 29.0647 78.3014C30.5552 74.8174 32.5425 73.8219 34.033 72.3288C35.0316 71.3283 36.1992 70.5619 37.0885 70.0542C37.8486 69.6212 38.1169 68.6556 37.6797 67.8941L37.1879 67.033V67.038Z" fill="#F3F1DD"/>
<path d="M25.5521 69.7605C25.567 69.3275 25.1298 69.0289 24.7323 69.2031C23.5648 69.7157 21.5079 70.7211 20.6186 71.836C19.2324 73.5681 18.0897 75.783 17.5233 76.9725C17.3395 77.3607 17.6227 77.8087 18.05 77.8087H20.6832C20.9366 77.8087 21.1601 77.6494 21.2396 77.4055C21.5973 76.3056 22.6457 73.2894 23.6194 72.4582C24.3299 71.851 24.8565 71.5424 25.1696 71.398C25.3683 71.3035 25.5024 71.1094 25.5074 70.8854L25.5471 69.7605H25.5521Z" fill="#F3F1DD"/>
</svg>
