<svg width="272" height="118" viewBox="0 0 272 118" fill="none" xmlns="http://www.w3.org/2000/svg">
<g clip-path="url(#clip0_525_12474)">
<rect x="6.90588" width="265" height="99" rx="30" transform="rotate(4 6.90588 0)" fill="#F8F7ED"/>
<path d="M54.687 43.3013C53.7719 43.2373 52.9399 43.3609 52.1911 43.6721C51.4635 43.9848 50.8312 44.4645 50.2941 45.1113C49.7585 45.7368 49.3295 46.5195 49.0072 47.4593C48.7061 48.4005 48.5139 49.4671 48.4306 50.6588C48.3175 52.2762 48.4123 53.6729 48.715 54.8489C49.0404 56.0051 49.608 56.9109 50.4176 57.5663C51.2271 58.2217 52.2917 58.5955 53.6111 58.6878C54.5475 58.7532 55.4807 58.7116 56.4106 58.5627C57.3619 58.4154 58.3936 58.1882 59.5057 57.881L59.2223 61.9351C58.1938 62.2695 57.1833 62.4982 56.191 62.6213C55.1987 62.7444 54.096 62.7635 52.8829 62.6787C50.542 62.515 48.6389 61.9007 47.1736 60.8359C45.7311 59.7513 44.709 58.3112 44.1075 56.5155C43.5074 54.6986 43.2893 52.6196 43.4529 50.2787C43.5735 48.5549 43.9177 46.9964 44.4856 45.6033C45.055 44.1889 45.823 42.9916 46.7898 42.0113C47.7778 41.0325 48.9516 40.3019 50.3112 39.8196C51.6921 39.3388 53.2445 39.1586 54.9683 39.2792C56.0962 39.358 57.2137 39.5859 58.3208 39.9627C59.4506 40.3197 60.5198 40.7794 61.5284 41.3418L59.6896 45.1588C58.8667 44.695 58.0293 44.2835 57.1776 43.9246C56.3472 43.5671 55.517 43.3594 54.687 43.3013ZM80.0671 55.4694C79.9659 56.9165 79.6737 58.1899 79.1904 59.2896C78.7285 60.3907 78.0976 61.3089 77.2977 62.0442C76.5205 62.7598 75.5964 63.2832 74.5254 63.6147C73.4558 63.9248 72.2613 64.0338 70.9418 63.9415C69.7288 63.8567 68.6143 63.5863 67.5983 63.1303C66.6051 62.6545 65.7628 62.0075 65.0715 61.1893C64.3817 60.3498 63.8635 59.3512 63.5167 58.1935C63.1912 57.0374 63.0791 55.7357 63.1803 54.2886C63.3157 52.352 63.7701 50.7477 64.5433 49.4759C65.3181 48.1828 66.3685 47.2298 67.6944 46.6168C69.0204 46.0038 70.556 45.7583 72.301 45.8803C73.9397 45.9949 75.3623 46.4472 76.5688 47.2373C77.7753 48.0274 78.6934 49.1181 79.3232 50.5094C79.9545 51.8795 80.2025 53.5328 80.0671 55.4694ZM68.0324 54.6279C67.9521 55.777 68.0014 56.7535 68.1805 57.5573C68.3823 58.3413 68.735 58.9541 69.2388 59.3956C69.744 59.8159 70.4223 60.0558 71.2735 60.1153C72.1248 60.1748 72.8192 60.0309 73.3567 59.6836C73.917 59.3164 74.341 58.758 74.6287 58.0082C74.9391 57.2387 75.1345 56.2793 75.2149 55.1301C75.2953 53.9809 75.2345 53.0143 75.0327 52.2303C74.8522 51.4478 74.5093 50.8464 74.0041 50.4262C73.4988 50.0059 72.8206 49.766 71.9693 49.7065C70.7137 49.6187 69.7681 49.991 69.1325 50.8233C68.5197 51.6359 68.153 52.9041 68.0324 54.6279ZM94.5233 47.4342C96.396 47.5652 97.8607 48.1809 98.9171 49.2812C99.9751 50.3603 100.426 52.0172 100.27 54.2517L99.475 65.6159L94.7187 65.2833L95.4307 55.1002C95.5185 53.8446 95.3606 52.8926 94.9568 52.2442C94.5545 51.5745 93.8639 51.2054 92.885 51.137C91.4379 51.0358 90.4133 51.4667 89.8113 52.4297C89.2108 53.3715 88.8459 54.7681 88.7164 56.6195L88.1427 64.8235L83.3863 64.4909L84.6051 47.0615L88.2442 47.3159L88.7264 49.5951L88.9818 49.613C89.4065 49.0439 89.9082 48.5978 90.4868 48.2747C91.0669 47.9303 91.7034 47.6968 92.3963 47.5742C93.0907 47.4303 93.7997 47.3836 94.5233 47.4342ZM111.952 62.9919C112.484 63.0291 112.998 63.0116 113.495 62.9394C113.992 62.8672 114.49 62.7738 114.99 62.659L114.743 66.2024C114.217 66.3795 113.566 66.5157 112.789 66.6111C112.033 66.7293 111.207 66.7571 110.313 66.6946C109.271 66.6217 108.346 66.386 107.54 65.9874C106.755 65.5904 106.147 64.9598 105.716 64.0956C105.307 63.2116 105.155 62.0247 105.259 60.535L105.846 52.1395L103.579 51.981L103.72 49.9699L106.449 48.5569L108.079 44.9818L111.111 45.1939L110.852 48.8969L115.736 49.2384L115.486 52.8137L110.602 52.4721L110.015 60.8676C109.969 61.5273 110.126 62.0409 110.485 62.4081C110.846 62.7541 111.335 62.9487 111.952 62.9919ZM129.185 49.858C129.419 49.8744 129.695 49.9044 130.013 49.948C130.33 49.9916 130.584 50.0414 130.772 50.0973L130.108 54.5418C129.962 54.4889 129.741 54.4413 129.445 54.3992C129.171 54.3373 128.928 54.2989 128.715 54.284C128.098 54.2409 127.496 54.2843 126.91 54.4144C126.324 54.5232 125.786 54.7315 125.294 55.0392C124.823 55.3485 124.429 55.7807 124.113 56.336C123.819 56.8714 123.643 57.5541 123.584 58.3841L122.964 67.2585L118.208 66.9259L119.426 49.4964L123.034 49.7487L123.53 52.7346L123.754 52.7502C124.136 52.1781 124.6 51.6652 125.145 51.2115C125.69 50.7577 126.302 50.4049 126.983 50.1531C127.685 49.9028 128.419 49.8044 129.185 49.858ZM141.097 50.6589C143.438 50.8226 145.19 51.4584 146.353 52.5662C147.539 53.6542 148.059 55.241 147.913 57.3266L147.1 68.9462L143.78 68.7141L143.02 66.2871L142.892 66.2782C142.359 66.8611 141.813 67.3362 141.253 67.7033C140.714 68.0719 140.098 68.3176 139.405 68.4402C138.732 68.5856 137.906 68.6241 136.927 68.5556C135.905 68.4842 134.993 68.2279 134.19 67.7868C133.409 67.3259 132.813 66.6747 132.402 65.8333C131.991 64.9706 131.83 63.9114 131.918 62.6558C132.048 60.8044 132.792 59.4877 134.151 58.706C135.512 57.9029 137.493 57.5496 140.095 57.6461L143.135 57.7624L143.188 56.9962C143.252 56.0811 143.054 55.3937 142.595 54.9338C142.156 54.4754 141.511 54.2165 140.66 54.157C139.809 54.0974 138.97 54.1671 138.144 54.3659C137.318 54.5435 136.489 54.7849 135.655 55.0901L134.316 51.7566C135.287 51.3326 136.346 51.0217 137.493 50.8239C138.662 50.6276 139.863 50.5726 141.097 50.6589ZM141.085 60.474C139.549 60.4094 138.466 60.6116 137.834 61.0807C137.203 61.5498 136.858 62.1993 136.8 63.0293C136.749 63.7529 136.926 64.2891 137.329 64.6381C137.734 64.9658 138.277 65.1535 138.958 65.2011C139.979 65.2725 140.862 65.0349 141.606 64.4881C142.351 63.92 142.763 63.0827 142.84 61.9761L142.941 60.5396L141.085 60.474ZM158.027 51.0087C157.98 51.6684 157.914 52.316 157.827 52.9515C157.739 53.587 157.662 54.0841 157.594 54.4429L157.786 54.4563C158.304 53.7655 158.975 53.2029 159.796 52.7684C160.619 52.3127 161.659 52.1288 162.914 52.2166C164.872 52.3535 166.404 53.2305 167.51 54.8476C168.617 56.4434 169.068 58.7203 168.861 61.6785C168.722 63.6576 168.318 65.3081 167.648 66.6299C167.001 67.932 166.154 68.8885 165.106 69.4996C164.058 70.1107 162.864 70.3693 161.523 70.2756C160.246 70.1863 159.251 69.8921 158.537 69.3931C157.847 68.8743 157.287 68.3113 156.859 67.7039L156.54 67.6816L155.608 69.5411L151.969 69.2867L153.665 45.0259L158.422 45.3585L158.027 51.0087ZM161.116 55.9082C160.286 55.8501 159.615 55.9743 159.101 56.2805C158.588 56.5868 158.19 57.0829 157.907 57.7688C157.646 58.4349 157.469 59.2887 157.375 60.33L157.339 60.8407C157.222 62.5219 157.375 63.8372 157.801 64.7865C158.249 65.7161 159.133 66.227 160.453 66.3192C161.431 66.3877 162.239 65.9951 162.877 65.1415C163.515 64.2665 163.894 62.9778 164.013 61.2753C164.132 59.5728 163.923 58.2751 163.387 57.3822C162.874 56.4695 162.117 55.9781 161.116 55.9082ZM180.563 53.4187C182.904 53.5824 184.656 54.2181 185.819 55.3259C187.005 56.414 187.525 58.0008 187.379 60.0863L186.566 71.706L183.246 71.4738L182.486 69.0469L182.358 69.0379C181.826 69.6209 181.279 70.0959 180.719 70.463C180.18 70.8317 179.564 71.0773 178.871 71.1999C178.198 71.3453 177.372 71.3838 176.393 71.3153C175.371 71.2439 174.459 70.9876 173.656 70.5465C172.875 70.0857 172.279 69.4345 171.868 68.5931C171.458 67.7303 171.296 66.6712 171.384 65.4156C171.514 63.5641 172.258 62.2475 173.617 61.4657C174.978 60.6627 176.959 60.3094 179.562 60.4058L182.601 60.5221L182.654 59.756C182.718 58.8409 182.521 58.1534 182.061 57.6935C181.622 57.2352 180.978 56.9762 180.126 56.9167C179.275 56.8572 178.436 56.9268 177.61 57.1257C176.785 57.3032 175.955 57.5446 175.121 57.8498L173.782 54.5163C174.753 54.0923 175.812 53.7814 176.959 53.5837C178.128 53.3874 179.329 53.3324 180.563 53.4187ZM180.551 63.2337C179.015 63.1691 177.932 63.3714 177.3 63.8404C176.669 64.3095 176.324 64.9591 176.266 65.789C176.215 66.5126 176.392 67.0489 176.795 67.3979C177.2 67.7256 177.743 67.9132 178.424 67.9608C179.445 68.0323 180.328 67.7946 181.072 67.2478C181.817 66.6798 182.229 65.8424 182.306 64.7358L182.407 63.2993L180.551 63.2337ZM202.572 54.9897C204.445 55.1207 205.909 55.7364 206.966 56.8367C208.024 57.9158 208.475 59.5727 208.318 61.8072L207.524 73.1714L202.767 72.8388L203.479 62.6557C203.567 61.4001 203.409 60.4481 203.005 59.7997C202.603 59.13 201.913 58.7609 200.934 58.6925C199.487 58.5913 198.462 59.0222 197.86 59.9852C197.259 60.927 196.895 62.3236 196.765 64.175L196.191 72.379L191.435 72.0464L192.654 54.617L196.293 54.8714L196.775 57.1506L197.03 57.1685C197.455 56.5994 197.957 56.1533 198.535 55.8302C199.116 55.4858 199.752 55.2523 200.445 55.1297C201.139 54.9858 201.848 54.9391 202.572 54.9897ZM217.915 74.2189C215.979 74.0835 214.446 73.2171 213.317 71.6198C212.211 70.0027 211.762 67.7151 211.969 64.757C212.177 61.7776 212.952 59.565 214.293 58.119C215.635 56.6731 217.306 56.02 219.306 56.1599C220.136 56.218 220.862 56.3863 221.484 56.6651C222.108 56.9225 222.63 57.2584 223.05 57.6727C223.491 58.0885 223.855 58.5523 224.14 59.0641L224.299 59.0753C224.259 58.7303 224.219 58.2357 224.178 57.5913C224.139 56.9256 224.144 56.2522 224.191 55.5712L224.582 49.9849L229.338 50.3175L227.642 74.5782L224.003 74.3238L223.235 71.9926L223.044 71.9792C222.713 72.4265 222.3 72.836 221.803 73.2076C221.33 73.5594 220.776 73.8308 220.142 74.0218C219.509 74.2127 218.766 74.2784 217.915 74.2189ZM219.841 70.5362C221.16 70.6285 222.113 70.3102 222.698 69.5812C223.285 68.831 223.644 67.6799 223.774 66.1278L223.81 65.6171C223.929 63.9146 223.753 62.5978 223.284 61.6668C222.836 60.7373 221.909 60.2234 220.505 60.1252C219.462 60.0522 218.611 60.4525 217.951 61.3259C217.292 62.1781 216.904 63.4554 216.785 65.1579C216.665 66.8604 216.873 68.1688 217.408 69.083C217.945 69.9759 218.755 70.4603 219.841 70.5362Z" fill="#DB5632"/>
</g>
<rect x="9.68931" y="3.20196" width="259" height="93" rx="27" transform="rotate(4 9.68931 3.20196)" stroke="#DB5632" stroke-width="6"/>
<defs>
<clipPath id="clip0_525_12474">
<rect x="6.90588" width="265" height="99" rx="30" transform="rotate(4 6.90588 0)" fill="white"/>
</clipPath>
</defs>
</svg>
