<svg width="227" height="159" viewBox="0 0 227 159" fill="none" xmlns="http://www.w3.org/2000/svg">
<path d="M171.643 73.5742H13.5382C7.5935 73.5742 2.77435 78.3913 2.77435 84.3335V144.948C2.77435 150.89 7.5935 155.707 13.5382 155.707H171.643C177.588 155.707 182.407 150.89 182.407 144.948V84.3335C182.407 78.3913 177.588 73.5742 171.643 73.5742Z" fill="white"/>
<path d="M171.643 158.322H13.5465C6.16836 158.322 0.16748 152.324 0.16748 144.949V84.3343C0.16748 76.9593 6.16836 70.9609 13.5465 70.9609H171.643C179.021 70.9609 185.022 76.9593 185.022 84.3343V144.949C185.022 152.324 179.021 158.322 171.643 158.322ZM13.5465 76.189C9.04583 76.189 5.38955 79.8437 5.38955 84.3425V144.957C5.38955 149.456 9.04583 153.11 13.5465 153.11H171.643C176.144 153.11 179.8 149.456 179.8 144.957V84.3425C179.8 79.8437 176.144 76.189 171.643 76.189H13.5465Z" fill="#0386CB"/>
<path d="M21.6625 127.099V105.195H37.5664V109.669H26.7944V114.775H35.8121V118.937H26.7944V127.107H21.6625V127.099Z" fill="#F22A2A"/>
<path d="M37.8779 116.122C37.8779 109.05 42.2638 104.953 48.7729 104.953C55.2821 104.953 59.6679 109.05 59.6679 116.122C59.6679 123.194 55.2821 127.357 48.7729 127.357C42.2638 127.357 37.8779 123.284 37.8779 116.122ZM54.1261 116.122C54.1261 111.959 51.9373 109.485 48.7729 109.485C45.6085 109.485 43.4197 111.959 43.4197 116.122C43.4197 120.285 45.6413 122.817 48.7729 122.817C51.9045 122.817 54.1261 120.31 54.1261 116.122Z" fill="#F22A2A"/>
<path d="M61.9551 127.099V105.195H72.5715C76.9901 105.195 79.5561 107.916 79.5561 112.046C79.5561 115.365 77.8345 117.807 74.8259 118.585L79.8676 126.534L74.5472 127.345L69.6612 118.864H67.0952V127.091H61.9633L61.9551 127.099ZM67.087 114.734H71.5057C73.67 114.734 74.7603 113.767 74.7603 112.046C74.7603 110.325 73.6618 109.293 71.5057 109.293H67.087V114.742V114.734Z" fill="#F22A2A"/>
<path d="M90.984 121.219L95.7716 119.875C96.2061 121.473 98.0588 122.883 100.625 122.883C102.535 122.883 104.133 122.317 104.133 120.719C104.133 119.22 101.879 118.843 98.5015 117.81C95.4027 116.81 91.5497 115.557 91.5497 111.46C91.5497 106.887 96.0257 104.953 100.379 104.953C106.076 104.953 108.864 107.395 109.708 111.115L104.666 112.492C104.289 110.861 102.945 109.427 100.412 109.427C98.4359 109.427 97.157 110.181 97.157 111.492C97.157 112.902 99.0343 113.336 101.567 114.123C105.199 115.155 109.741 116.122 109.741 120.596C109.741 125.603 104.855 127.357 100.6 127.357C94.9354 127.357 91.9596 124.948 90.984 121.219Z" fill="#F22A2A"/>
<path d="M110.741 127.099L118.226 105.195H124.833L132.318 127.099H126.842L125.432 122.527H117.635L116.225 127.099H110.749H110.741ZM118.627 118.839H124.391L121.513 109.702L118.636 118.839H118.627Z" fill="#F22A2A"/>
<path d="M133.687 127.099V105.195H138.819V122.592H148.525V127.099H133.687Z" fill="#F22A2A"/>
<path d="M150.501 127.099V105.195H166.405V109.669H155.633V114.086H164.651V118.216H155.633V122.625H166.405V127.099H150.501Z" fill="#F22A2A"/>
<path d="M149.058 97.0837L134.113 81.0718C132.711 79.5722 130.506 79.1542 128.653 80.031L108.872 89.4383C105.183 91.1919 101.166 87.7256 102.354 83.8251L108.749 62.8801C109.347 60.9216 108.61 58.7993 106.921 57.6357L88.8771 45.2129C85.5078 42.8938 86.4997 37.6822 90.4839 36.7644L111.831 31.8313C113.832 31.3724 115.299 29.668 115.455 27.6276L117.201 5.79757C117.529 1.72493 122.538 -0.0204774 125.325 2.9623L140.27 18.9743C141.672 20.4738 143.877 20.8917 145.73 20.0149L165.511 10.6077C169.2 8.85412 173.217 12.3203 172.029 16.2209L165.634 37.1659C165.036 39.1244 165.774 41.2468 167.462 42.4104L185.506 54.8331C188.875 57.1522 187.883 62.3638 183.899 63.2816L162.552 68.2147C160.551 68.6736 159.084 70.378 158.928 72.4184L157.182 94.2484C156.854 98.3211 151.845 100.066 149.058 97.0837Z" fill="#F09B5C"/>
<path d="M152.46 100.822C150.853 100.822 149.312 100.166 148.156 98.9291L133.211 82.9171C132.17 81.8109 130.555 81.4995 129.178 82.1469L109.397 91.5541C107.24 92.5784 104.781 92.2506 102.978 90.6937C101.174 89.1367 100.485 86.7521 101.174 84.4741L107.568 63.5291C108.011 62.0787 107.47 60.5218 106.216 59.6613L88.1721 47.2385C86.2046 45.8864 85.2619 43.592 85.7128 41.2484C86.1555 38.9048 87.877 37.1184 90.2052 36.5775L111.553 31.6445C113.036 31.3004 114.11 30.0548 114.233 28.5388L115.979 6.70882C116.168 4.33243 117.685 2.36575 119.939 1.57908C122.193 0.792418 124.604 1.39061 126.227 3.13602L141.172 19.148C142.213 20.2624 143.828 20.5656 145.205 19.9183L164.987 10.511C167.143 9.48672 169.602 9.81451 171.406 11.3715C173.209 12.9284 173.898 15.313 173.209 17.591L166.815 38.536C166.372 39.9865 166.913 41.5434 168.167 42.4038L186.211 54.8266C188.179 56.1787 189.121 58.4731 188.67 60.8167C188.228 63.1603 186.506 64.9467 184.178 65.4876L162.831 70.4206C161.347 70.7648 160.273 72.0104 160.15 73.5263L158.404 95.3563C158.215 97.7327 156.699 99.6993 154.444 100.486C153.788 100.715 153.116 100.83 152.46 100.83V100.822ZM149.952 97.2493C150.919 98.2818 152.296 98.6259 153.633 98.1588C154.969 97.6917 155.838 96.5691 155.953 95.1596L157.699 73.3297C157.904 70.7402 159.748 68.6096 162.273 68.0278L183.62 63.0948C184.998 62.7752 185.981 61.7509 186.252 60.3578C186.514 58.9648 185.981 57.6537 184.809 56.8506L166.766 44.4278C164.626 42.9528 163.7 40.2978 164.454 37.8149L170.848 16.8699C171.258 15.5178 170.865 14.1576 169.791 13.2316C168.717 12.3056 167.315 12.1171 166.028 12.7235L146.246 22.1308C143.902 23.2452 141.131 22.7208 139.36 20.8197L124.415 4.8077C123.448 3.7752 122.071 3.43104 120.734 3.89813C119.398 4.36521 118.529 5.48785 118.414 6.8973L116.668 28.7273C116.463 31.3168 114.619 33.4473 112.094 34.0291L90.7462 38.9622C89.369 39.2817 88.3853 40.306 88.1147 41.6991C87.8442 43.0921 88.3853 44.4033 89.5576 45.2063L107.601 57.6291C109.741 59.1041 110.667 61.7591 109.913 64.242L103.519 85.187C103.109 86.5391 103.502 87.8994 104.576 88.8253C105.65 89.7513 107.052 89.9398 108.339 89.3334L128.121 79.9262C130.465 78.8117 133.236 79.3362 135.007 81.2373L149.952 97.2493Z" fill="#F7CC50" stroke="#F7CC50"/>
<path d="M198.24 88.3406L199.138 87.4715L198.269 86.5734L184.359 72.2051L183.489 71.3071L182.591 72.1761L175.651 78.889L174.752 79.7581L175.622 80.6562L189.532 95.0244L190.402 95.9225L191.3 95.0534L198.24 88.3406Z" fill="#F3F1DD" stroke="black" stroke-width="2.5"/>
<path d="M162.937 87.8038C178.532 87.8038 191.175 75.1671 191.175 59.5777C191.175 43.9884 178.532 31.3516 162.937 31.3516C147.342 31.3516 134.7 43.9884 134.7 59.5777C134.7 75.1671 147.343 87.8038 162.937 87.8038Z" fill="#F3F1DD" stroke="black" stroke-width="2.5"/>
<path d="M163.126 79.2718C173.929 79.2718 182.686 70.5181 182.686 59.7199C182.686 48.9217 173.929 40.168 163.126 40.168C152.323 40.168 143.566 48.9217 143.566 59.7199C143.566 70.5181 152.323 79.2718 163.126 79.2718Z" fill="#3C87C9"/>
<path d="M221.864 104.245L201.325 84.5233C198.877 82.1718 194.984 82.2499 192.632 84.6977L188.128 89.3839C185.776 91.8317 185.854 95.7223 188.303 98.0737L208.841 117.795C211.29 120.147 215.182 120.069 217.535 117.621L222.038 112.935C224.391 110.487 224.312 106.596 221.864 104.245Z" fill="#3C87C9"/>
<path d="M190.085 100.827L190.085 100.827C185.892 96.8366 185.756 90.2103 189.788 86.0594L189.788 86.0593C191.743 84.0477 194.363 82.9113 197.185 82.8524C199.999 82.7935 202.67 83.8289 204.702 85.7647L190.085 100.827ZM190.085 100.827L206.298 116.245C206.298 116.245 206.298 116.245 206.298 116.245C208.722 118.552 211.987 119.477 215.081 119.048C217.343 118.737 219.512 117.701 221.212 115.95C225.244 111.799 225.108 105.173 220.915 101.182L220.915 101.182L204.702 85.7648L190.085 100.827ZM207.594 114.899L207.594 114.899L191.382 99.4814L191.382 99.4813C187.93 96.203 187.823 90.7558 191.135 87.3471L191.135 87.3471C192.741 85.6913 194.9 84.7613 197.217 84.7123C199.533 84.6634 201.724 85.5116 203.397 87.1024L219.61 102.52L219.61 102.52C223.062 105.798 223.169 111.246 219.857 114.654L219.857 114.654C216.544 118.072 211.039 118.178 207.594 114.899Z" fill="black" stroke="black" stroke-width="0.3"/>
<path d="M162.806 48.0819C164.056 48.0819 165.069 47.0694 165.069 45.8203C165.069 44.5712 164.056 43.5586 162.806 43.5586C161.556 43.5586 160.543 44.5712 160.543 45.8203C160.543 47.0694 161.556 48.0819 162.806 48.0819Z" fill="#F3F1DD"/>
<path d="M173.176 72.4136C172.57 72.4956 171.938 72.2744 171.529 71.7663C170.897 70.996 171.02 69.8652 171.791 69.2342C171.807 69.2178 173.783 67.5707 175.332 64.6945C177.456 60.7448 176.439 56.0165 175.234 53.804C173.668 50.9278 169.955 48.8464 168.659 48.2892C167.749 47.8959 167.323 46.8388 167.717 45.921C168.11 45.0114 169.168 44.5853 170.086 44.9787C170.323 45.077 175.931 47.5353 178.398 52.0832C180.292 55.5577 181.128 61.5151 178.505 66.3907C176.603 69.9307 174.168 71.9302 174.07 72.0121C173.808 72.2252 173.496 72.3563 173.185 72.3972L173.176 72.4136Z" fill="#F3F1DD"/>
</svg>
