<svg width="159" height="166" viewBox="0 0 159 166" fill="none" xmlns="http://www.w3.org/2000/svg">
<rect x="4.45427" y="30.4331" width="125" height="134" rx="27" transform="rotate(-11.9797 4.45427 30.4331)" fill="#F8F7ED" stroke="#DB5632" stroke-width="6"/>
<path d="M50.6981 64.797C49.8059 64.9863 49.0155 64.8841 48.3268 64.4905C47.6348 64.0813 47.1726 63.3288 46.9401 62.2332L46.6113 60.6837C46.339 59.4003 46.5383 58.3357 47.2094 57.49C47.8805 56.6443 48.9282 56.0703 50.3525 55.7681C50.9159 55.6486 51.482 55.6184 52.0507 55.6776C52.616 55.7212 53.1605 55.8592 53.6842 56.0916L53.7546 56.0767L53.6151 55.4193C53.2465 53.682 52.0683 53.0242 50.0805 53.446C49.3449 53.6021 48.6762 53.8421 48.0743 54.1661C47.4881 54.4867 46.9259 54.8432 46.3876 55.2355L44.9474 52.8423C45.629 52.3542 46.3976 51.9294 47.2532 51.5679C48.1211 51.1875 49.0403 50.8943 50.0107 50.6884C50.6367 50.5556 51.1772 50.4818 51.632 50.4671C52.0992 50.4334 52.5211 50.4174 52.8977 50.4193C53.2743 50.4212 53.6426 50.3839 54.0025 50.3076C54.5973 50.1814 55.1408 49.9679 55.6331 49.6672C56.1221 49.3508 56.5748 49.0175 56.9912 48.6675L58.469 51.4698C58.093 51.7786 57.631 51.9911 57.0832 52.1073C56.7858 52.1704 56.4282 52.1809 56.0103 52.1387L56.0203 52.1856C56.4752 52.7107 56.7823 53.3488 56.9417 54.1001L58.7999 62.8571L55.3487 63.5894L54.6463 60.2791C54.4736 59.4652 54.0982 58.8906 53.52 58.5553C52.9385 58.2044 52.2173 58.1203 51.3565 58.3029C50.7304 58.4358 50.2701 58.6561 49.9756 58.9639C49.6778 59.2561 49.5279 59.5905 49.526 59.9671C49.6949 59.9149 49.8732 59.8689 50.061 59.829C50.8123 59.6696 51.4412 59.7815 51.9478 60.1647C52.4667 60.529 52.8009 61.0632 52.9503 61.7675C53.0998 62.4719 52.9739 63.1119 52.5727 63.6878C52.1838 64.2446 51.5589 64.6144 50.6981 64.797ZM50.508 63.4389C50.8524 63.3658 51.1064 63.2138 51.27 62.9828C51.4492 62.7485 51.5007 62.4513 51.4243 62.0913C51.3479 61.7314 51.1802 61.4807 50.9213 61.3394C50.6779 61.1947 50.3841 61.1589 50.0398 61.232C49.7111 61.3018 49.4571 61.4538 49.2778 61.6881C49.1142 61.9191 49.0706 62.2146 49.147 62.5746C49.2234 62.9345 49.3832 63.1869 49.6266 63.3315C49.8855 63.4728 50.1794 63.5086 50.508 63.4389ZM44.8182 50.1955L44.4867 49.2108C44.2343 48.0213 44.4398 46.9473 45.1033 45.9887C45.7667 45.0301 46.8498 44.3914 48.3523 44.0726C49.3384 43.8633 50.2798 43.868 51.1767 44.0866C52.0703 44.2895 52.8681 44.6191 53.5701 45.0754C54.2877 45.5283 54.8723 46.0094 55.3239 46.5188L55.4065 47.9488L44.8182 50.1955ZM47.2214 47.9927L52.1985 46.9366C51.8272 46.5738 51.3405 46.2845 50.7386 46.0687C50.1334 45.8373 49.5099 45.7897 48.8682 45.9258C48.1796 46.072 47.7058 46.3442 47.4468 46.7427C47.2002 47.1221 47.1251 47.5388 47.2214 47.9927ZM73.6719 59.9223C72.8893 60.0883 72.176 60.0025 71.5319 59.6649C70.9034 59.3239 70.5045 58.7543 70.3351 57.956L70.3102 57.8387C69.724 58.1593 69.2097 58.5874 68.7672 59.1229C68.3247 59.6584 68.0586 60.2546 67.969 60.9115L64.6353 61.6189L62.8419 53.1671L62.8184 53.1721C62.0671 53.3315 61.4321 53.2291 60.9132 52.8648C60.4066 52.4816 60.0786 51.9379 59.9291 51.2336C59.7797 50.5292 59.8994 49.8987 60.2883 49.3418C60.6739 48.7693 61.2971 48.3917 62.1579 48.2091C63.0657 48.0165 63.8656 48.1248 64.5576 48.5341C65.2463 48.9277 65.7069 49.6723 65.9394 50.7679L67.2894 57.1303C67.6266 56.7152 68.0442 56.3322 68.5422 55.9812C69.0368 55.6145 69.504 55.311 69.9436 55.0705C70.2054 54.9168 70.3605 54.7612 70.4089 54.6037C70.4573 54.4463 70.4499 54.2188 70.3868 53.9215L68.9172 46.9956L72.3684 46.2634L73.7931 52.9779C73.8496 53.2439 73.8809 53.5072 73.8871 53.7676C73.8933 54.0279 73.8459 54.267 73.7448 54.4847C74.3235 54.5909 74.8018 54.8411 75.1799 55.2352C75.5579 55.6293 75.8067 56.1081 75.9263 56.6715C76.0923 57.4541 75.9624 58.1523 75.5365 58.7661C75.123 59.3608 74.5014 59.7462 73.6719 59.9223ZM62.8162 51.7741C63.1605 51.701 63.4145 51.549 63.5781 51.318C63.7417 51.087 63.7854 50.7915 63.709 50.4315C63.6326 50.0715 63.4727 49.8192 63.2294 49.6746C62.9861 49.5299 62.6923 49.4941 62.3479 49.5672C62.0036 49.6403 61.7496 49.7923 61.586 50.0233C61.4224 50.2543 61.3788 50.5498 61.4552 50.9098C61.5315 51.2697 61.6914 51.5221 61.9347 51.6667C62.178 51.8114 62.4719 51.8471 62.8162 51.7741ZM73.368 58.4901C73.7124 58.4171 73.9647 58.2572 74.125 58.0106C74.2853 57.7639 74.3272 57.4606 74.2508 57.1006C74.1745 56.7407 74.0113 56.4727 73.7613 56.2967C73.5114 56.1208 73.1907 56.0743 72.7994 56.1574C72.5647 56.2072 72.3304 56.2978 72.0966 56.4292C71.9595 56.7854 71.9342 57.167 72.0205 57.5739C72.0936 57.9182 72.2473 58.18 72.4816 58.3593C72.7282 58.5196 73.0237 58.5632 73.368 58.4901ZM82.1366 43.8717C83.3574 43.6127 84.4756 43.5635 85.491 43.7242C86.5222 43.8816 87.388 44.2622 88.0886 44.8659C88.8015 45.4507 89.2675 46.2596 89.4867 47.2926L91.3249 55.9557L87.8738 56.688L86.1601 48.6118C85.9841 47.7823 85.588 47.1875 84.9719 46.8276C84.3714 46.4643 83.6016 46.3823 82.6625 46.5816C81.7078 46.7842 81.027 47.1985 80.62 47.8246C80.2255 48.4317 80.1245 49.1892 80.3171 50.097C80.3902 50.4413 80.4644 50.7527 80.5399 51.0311C80.6276 51.2905 80.7104 51.5265 80.7882 51.7389L80.8117 51.734C80.9786 50.9789 81.2788 50.3509 81.7122 49.85C82.1457 49.3491 82.6755 49.0323 83.3015 48.8994C84.0215 48.7466 84.6689 48.8301 85.2438 49.1497C85.8187 49.4694 86.1858 50.0048 86.3452 50.7561C86.5046 51.5074 86.3944 52.1441 86.0145 52.6663C85.6313 53.1729 85.0797 53.5026 84.3598 53.6553C83.9998 53.7317 83.6327 53.736 83.2584 53.6682C82.8842 53.6004 82.5482 53.4427 82.2503 53.1952C82.1659 53.4911 82.1277 53.8509 82.1358 54.2744C82.1439 54.698 82.1994 55.1524 82.3024 55.6376L82.7557 57.774L79.3045 58.5063L78.9309 56.7455C78.8014 56.1351 78.646 55.5956 78.4648 55.127C78.2836 54.6584 78.0884 54.2009 77.8792 53.7546C77.6857 53.305 77.4933 52.8224 77.3022 52.3069C77.1077 51.7757 76.9357 51.1579 76.7862 50.4536C76.4309 48.7789 76.7377 47.3726 77.7066 46.2347C78.6722 45.0812 80.1489 44.2935 82.1366 43.8717ZM83.6225 50.1807C83.2782 50.2538 83.0337 50.412 82.889 50.6553C82.7444 50.8986 82.7069 51.1846 82.7767 51.5133C82.8464 51.842 82.9968 52.0881 83.2278 52.2517C83.4588 52.4154 83.7464 52.4606 84.0908 52.3876C84.4194 52.3178 84.6561 52.1613 84.8007 51.918C84.9454 51.6747 84.9828 51.3887 84.9131 51.06C84.8434 50.7313 84.693 50.4851 84.462 50.3215C84.231 50.1579 83.9512 50.111 83.6225 50.1807ZM83.418 42.1278C82.2755 42.3702 81.2168 42.5458 80.2422 42.6544L79.9532 41.2927C80.3412 41.1941 80.6801 41.0567 80.9699 40.8808C81.272 40.6858 81.4591 40.4498 81.5311 40.1728C80.8984 40.2744 80.3404 40.1883 79.8571 39.9147C79.3894 39.6377 79.0875 39.1784 78.9514 38.5367C78.8119 37.8793 78.937 37.313 79.3269 36.8377C79.7167 36.3625 80.2716 36.0484 80.9916 35.8957C81.8681 35.7097 82.5909 35.8017 83.1601 36.1716C83.7293 36.5415 84.0853 37.063 84.2281 37.736C84.3045 38.096 84.3009 38.4647 84.2175 38.8423C84.1464 39.2008 84.0171 39.5554 83.8298 39.9059C84.7456 39.5971 85.3726 39.0061 85.7107 38.1329C86.0455 37.244 86.1555 36.1821 86.0407 34.947L88.7847 34.929C88.8673 36.0892 88.759 37.1589 88.4598 38.1384C88.1729 39.0989 87.6287 39.9258 86.8272 40.6193C86.0256 41.3128 84.8893 41.8156 83.418 42.1278ZM81.5353 38.9207C82.177 38.7845 82.4365 38.4269 82.3136 37.8478C82.1874 37.253 81.8034 37.0237 81.1617 37.1599C80.5357 37.2927 80.2857 37.6565 80.4119 38.2513C80.5348 38.8304 80.9093 39.0535 81.5353 38.9207ZM92.064 45.3227L90.6154 43.0049C91.185 42.606 91.8132 42.2519 92.4999 41.9426C93.199 41.6144 93.9712 41.3606 94.8164 41.1812C96.4754 40.8292 97.848 40.9387 98.9342 41.5097C100.017 42.065 100.716 43.0861 101.032 44.573L102.925 53.4944L99.4736 54.2267L97.7001 45.8688C97.5341 45.0862 97.2217 44.5391 96.7631 44.2275C96.3011 43.9003 95.6475 43.8263 94.8023 44.0057C94.3171 44.1086 93.8374 44.2758 93.3631 44.5073C92.8888 44.7388 92.4558 45.0106 92.064 45.3227ZM41.3008 105.416L40.967 103.843C40.8342 103.217 40.6788 102.678 40.5009 102.225C40.3387 101.768 40.1625 101.323 39.9722 100.889C39.7977 100.452 39.621 99.9662 39.4421 99.4317C39.2633 98.8971 39.0925 98.2464 38.9298 97.4795C38.7172 96.4778 38.7157 95.5458 38.9253 94.6835C39.1506 93.8179 39.5672 93.0835 40.1752 92.4801C40.7799 91.8611 41.5658 91.4408 42.5328 91.2193L44.8373 92.2514L46.524 90.3724C47.8264 90.1124 48.9832 90.284 49.9944 90.8873C51.0023 91.4749 51.669 92.5356 51.9945 94.0694L53.8377 102.756L50.3865 103.488L48.4636 94.4261C48.3607 93.9409 48.1714 93.5885 47.8958 93.3689C47.6202 93.1493 47.293 93.0716 46.914 93.1356L45.4457 94.772L45.3048 94.8019L43.2516 93.9128C42.8166 94.0214 42.5243 94.3779 42.3744 94.9821C42.2402 95.5831 42.2711 96.3452 42.467 97.2687C42.6032 97.9104 42.7334 98.4471 42.8577 98.8787C42.9944 99.2913 43.1305 99.6631 43.2662 99.9942C43.4018 100.325 43.5235 100.667 43.6312 101.021C43.7545 101.371 43.8677 101.788 43.9706 102.274L45.3272 100.342C44.4583 100.101 43.9226 99.5032 43.72 98.5485C43.5672 97.8285 43.6729 97.2091 44.0372 96.6902C44.4014 96.1713 44.9748 95.8288 45.7574 95.6628C46.5399 95.4967 47.2063 95.5925 47.7565 95.9501C48.3224 96.3043 48.6817 96.8414 48.8345 97.5614C48.9574 98.1405 48.9244 98.6791 48.7357 99.1771C48.5626 99.6718 48.3018 100.177 47.9532 100.693L45.4563 104.534L41.3008 105.416ZM46.4512 99.0485C46.7799 98.9787 47.0182 98.83 47.1662 98.6023C47.3298 98.3714 47.3768 98.0915 47.307 97.7628C47.2373 97.4342 47.0807 97.1975 46.8374 97.0528C46.6064 96.8892 46.3266 96.8423 45.9979 96.912C45.6692 96.9818 45.4247 97.14 45.2644 97.3866C45.1165 97.6143 45.0774 97.8925 45.1471 98.2211C45.2135 98.5342 45.3622 98.7725 45.5932 98.9361C45.8366 99.0808 46.1226 99.1182 46.4512 99.0485ZM45.9214 88.9301C44.7788 89.1725 43.7202 89.3481 42.7456 89.4567L42.4566 88.0951C42.8446 87.9964 43.1835 87.8591 43.4733 87.6831C43.7754 87.4881 43.9625 87.2521 44.0345 86.9751C43.4018 87.0767 42.8438 86.9906 42.3605 86.717C41.8928 86.44 41.5909 85.9807 41.4547 85.339C41.3153 84.6816 41.4404 84.1153 41.8303 83.64C42.2201 83.1648 42.775 82.8508 43.495 82.698C44.3715 82.512 45.0943 82.604 45.6635 82.9739C46.2327 83.3438 46.5887 83.8653 46.7315 84.5383C46.8078 84.8983 46.8043 85.267 46.7209 85.6446C46.6497 86.0032 46.5205 86.3577 46.3332 86.7082C47.249 86.3994 47.876 85.8084 48.2141 84.9352C48.5489 84.0463 48.6589 82.9844 48.544 81.7493L51.2881 81.7314C51.3707 82.8915 51.2624 83.9613 50.9632 84.9407C50.6763 85.9012 50.1321 86.7281 49.3305 87.4216C48.529 88.1151 47.3927 88.6179 45.9214 88.9301ZM44.0387 85.723C44.6804 85.5868 44.9399 85.2292 44.817 84.6501C44.6908 84.0553 44.3068 83.826 43.6651 83.9622C43.039 84.0951 42.7891 84.4589 42.9153 85.0536C43.0382 85.6327 43.4127 85.8559 44.0387 85.723ZM66.5989 91.0442L67.5454 95.5049C67.8344 96.8665 67.7249 97.9693 67.2169 98.8131C66.709 99.6569 65.5942 100.261 63.8726 100.627L57.0876 102.066L55.8622 96.291C55.6297 95.1954 55.7482 94.3279 56.2177 93.6885C56.6996 93.0302 57.3866 92.6064 58.2787 92.4171C59.1552 92.2311 59.8858 92.3214 60.4707 92.688C61.0522 93.0389 61.4176 93.5666 61.5671 94.2709C61.7165 94.9752 61.6298 95.607 61.3068 96.1662C60.9962 96.7064 60.4652 97.0563 59.714 97.2157L59.667 97.2256L59.9858 98.7282L62.7327 98.1453C63.4057 98.0025 63.8202 97.7592 63.9762 97.4153C64.1446 97.0525 64.1574 96.5345 64.0146 95.8615L63.2723 92.3634C63.0863 91.4869 62.7087 90.8637 62.1396 90.4938C61.5671 90.1082 60.7174 90.035 59.5905 90.2741C58.8705 90.4269 58.2079 90.6574 57.6027 90.9658C56.9975 91.2741 56.4258 91.6244 55.8875 92.0167L54.4524 89.647C55.1529 89.1712 55.9309 88.7526 56.7865 88.3911C57.6545 88.0107 58.5658 87.7192 59.5206 87.5166C61.5396 87.0882 63.1397 87.1903 64.3207 87.8229C65.5174 88.4522 66.2768 89.526 66.5989 91.0442ZM59.1483 95.9372C59.477 95.8675 59.7231 95.7171 59.8867 95.4861C60.066 95.2518 60.1175 94.9547 60.0411 94.5947C59.9647 94.2347 59.797 93.984 59.538 93.8427C59.2947 93.6981 59.0087 93.6606 58.68 93.7304C58.3357 93.8034 58.0739 93.9571 57.8946 94.1914C57.731 94.4224 57.6874 94.7179 57.7638 95.0779C57.8402 95.4379 58 95.6902 58.2433 95.8348C58.5023 95.9762 58.804 96.0103 59.1483 95.9372ZM81.1263 93.2365C81.3654 94.3634 81.2227 95.3097 80.6982 96.0752C80.1893 96.8374 79.4106 97.3298 78.3619 97.5523L74.3238 98.4092C73.5881 96.946 72.7668 95.5419 71.8598 94.1969C70.9529 92.8518 69.9665 91.5563 68.9007 90.3104L71.6368 88.405C72.5556 89.4204 73.3966 90.4932 74.1598 91.6234C74.9353 92.7346 75.6286 93.9206 76.2395 95.1812L76.7795 95.0666C77.1865 94.9803 77.4483 94.8266 77.5649 94.6056C77.6783 94.3689 77.6901 94.0393 77.6004 93.6167L76.639 89.0855L76.592 89.0955C75.8408 89.2549 75.2057 89.1525 74.6868 88.7883C74.1802 88.4051 73.8522 87.8613 73.7027 87.157C73.5533 86.4527 73.673 85.8221 74.0619 85.2653C74.4631 84.6894 75.0941 84.3102 75.955 84.1275C76.8471 83.9382 77.6392 84.0482 78.3312 84.4575C79.0356 84.8478 79.504 85.5908 79.7365 86.6864L81.1263 93.2365ZM76.6133 87.6925C76.942 87.6228 77.1881 87.4724 77.3517 87.2414C77.531 87.0071 77.5824 86.71 77.5061 86.35C77.4297 85.99 77.262 85.7394 77.003 85.598C76.7597 85.4534 76.4737 85.4159 76.145 85.4857C75.8007 85.5587 75.5389 85.7124 75.3596 85.9467C75.196 86.1777 75.1524 86.4732 75.2288 86.8332C75.3051 87.1932 75.465 87.4455 75.7083 87.5902C75.9673 87.7315 76.269 87.7656 76.6133 87.6925ZM88.8014 88.2223C88.8777 88.5822 88.9484 88.9925 89.0135 89.453L89.0839 89.4381C89.2721 88.6294 89.5631 87.8807 89.9567 87.192C90.347 86.4877 90.8158 85.922 91.3631 85.4951C91.0472 85.3168 90.7683 85.0816 90.5264 84.7894C90.2968 84.4783 90.1438 84.1428 90.0675 83.7828C89.8981 82.9845 90.033 82.3098 90.4721 81.7587C90.908 81.1919 91.5641 80.8155 92.4406 80.6295C93.3328 80.4402 94.0931 80.516 94.7215 80.857C95.3467 81.1823 95.7439 81.7441 95.9133 82.5424C95.9963 82.9336 95.962 83.3498 95.8102 83.7909C95.6552 84.2164 95.4337 84.5987 95.1458 84.9378C95.5276 85.1185 95.8556 85.3924 96.1298 85.7595C96.4006 86.1109 96.5825 86.5058 96.6755 86.944L98.0405 93.3768L94.5893 94.1091L93.314 88.0989C93.2343 87.7233 93.0223 87.572 92.678 87.645C92.3493 87.7148 91.9988 88.0672 91.6265 88.7023C91.2666 89.3184 90.9408 90.1727 90.6492 91.265C90.3575 92.3573 90.1684 93.6242 90.0817 95.0655L86.7949 95.763L85.0015 87.3111L84.978 87.3161C84.2267 87.4755 83.5917 87.3731 83.0727 87.0089C82.5662 86.6257 82.2382 86.0819 82.0887 85.3776C81.9393 84.6733 82.059 84.0427 82.4479 83.4859C82.8334 82.9134 83.4566 82.5358 84.3175 82.3531C85.2253 82.1605 86.0252 82.2688 86.7172 82.6781C87.4059 83.0717 87.8665 83.8163 88.099 84.912L88.8014 88.2223ZM84.9758 85.9181C85.3201 85.8451 85.5741 85.693 85.7377 85.462C85.9013 85.2311 85.945 84.9356 85.8686 84.5756C85.7922 84.2156 85.6323 83.9633 85.389 83.8186C85.1457 83.674 84.8519 83.6382 84.5075 83.7113C84.1632 83.7843 83.9092 83.9364 83.7456 84.1673C83.582 84.3983 83.5384 84.6938 83.6147 85.0538C83.6911 85.4138 83.851 85.6661 84.0943 85.8108C84.3376 85.9554 84.6315 85.9912 84.9758 85.9181ZM91.8048 83.4141C91.8679 83.7115 92.0339 83.9543 92.3028 84.1426C92.5718 84.3309 92.89 84.4433 93.2576 84.4798C93.5787 84.2972 93.8256 84.073 93.9982 83.8074C94.1831 83.5228 94.2424 83.224 94.176 82.911C94.1062 82.5823 93.9419 82.3473 93.6829 82.206C93.4206 82.049 93.1095 82.0087 92.7495 82.0851C92.4052 82.1582 92.145 82.3197 91.9691 82.5696C91.7898 82.804 91.735 83.0854 91.8048 83.4141ZM90.2394 79.5264C89.0968 79.7688 88.0382 79.9444 87.0636 80.053L86.7746 78.6914C87.1626 78.5927 87.5015 78.4554 87.7913 78.2794C88.0934 78.0844 88.2805 77.8484 88.3525 77.5715C87.7198 77.673 87.1618 77.5869 86.6785 77.3133C86.2108 77.0363 85.9089 76.577 85.7727 75.9353C85.6333 75.2779 85.7584 74.7116 86.1483 74.2363C86.5381 73.7611 87.093 73.4471 87.813 73.2943C88.6895 73.1083 89.4123 73.2003 89.9815 73.5702C90.5507 73.9401 90.9067 74.4616 91.0495 75.1346C91.1258 75.4946 91.1223 75.8633 91.0389 76.2409C90.9677 76.5995 90.8385 76.954 90.6512 77.3045C91.567 76.9957 92.194 76.4047 92.5321 75.5315C92.8669 74.6426 92.9769 73.5807 92.862 72.3456L95.6061 72.3277C95.6887 73.4878 95.5804 74.5576 95.2812 75.537C94.9943 76.4975 94.4501 77.3244 93.6485 78.0179C92.847 78.7114 91.7106 79.2142 90.2394 79.5264ZM88.3567 76.3193C88.9984 76.1831 89.2579 75.8255 89.135 75.2464C89.0088 74.6516 88.6248 74.4223 87.9831 74.5585C87.357 74.6914 87.1071 75.0552 87.2333 75.6499C87.3562 76.229 87.7307 76.4522 88.3567 76.3193ZM98.9084 82.7165L97.4597 80.3987C98.0293 79.9998 98.6575 79.6457 99.3443 79.3364C100.043 79.0081 100.815 78.7543 101.661 78.575C103.32 78.223 104.692 78.3324 105.779 78.9034C106.861 79.4588 107.561 80.4799 107.876 81.9668L109.769 90.8881L106.318 91.6204L104.544 83.2625C104.378 82.4799 104.066 81.9329 103.607 81.6213C103.145 81.294 102.492 81.2201 101.647 81.3994C101.161 81.5024 100.682 81.6696 100.207 81.9011C99.7331 82.1326 99.3001 82.4044 98.9084 82.7165ZM122.163 88.2583C121.621 87.7845 121.052 87.4146 120.455 87.1486C119.871 86.8636 119.277 86.6461 118.673 86.4963C118.76 87.2139 118.6 87.8858 118.193 88.5119C117.802 89.1346 117.074 89.5589 116.01 89.7848C115.008 89.9973 114.18 89.9113 113.526 89.5267C112.884 89.1231 112.47 88.483 112.284 87.6066C112.125 86.8553 112.217 86.1732 112.562 85.5604C112.903 84.932 113.464 84.4939 114.246 84.2463C114.178 84.0808 114.118 83.9136 114.066 83.7447C114.029 83.5726 113.989 83.3848 113.946 83.1813L113.538 81.2561L113.491 81.2661C112.739 81.4255 112.104 81.3231 111.585 80.9589C111.079 80.5757 110.751 80.0319 110.601 79.3276C110.452 78.6233 110.572 77.9927 110.961 77.4359C111.362 76.86 111.993 76.4808 112.854 76.2981C113.746 76.1088 114.538 76.2188 115.23 76.6281C115.934 77.0184 116.403 77.7614 116.635 78.857L117.452 82.7072C117.528 83.0672 117.604 83.3864 117.68 83.6648C118.975 83.8317 120.219 84.222 121.412 84.8356L121.436 84.8306L119.378 75.1345L122.829 74.4022L125.614 87.526L122.163 88.2583ZM113.512 79.8631C113.841 79.7934 114.087 79.643 114.25 79.412C114.43 79.1777 114.481 78.8806 114.405 78.5206C114.328 78.1606 114.161 77.91 113.902 77.7686C113.658 77.624 113.372 77.5865 113.044 77.6563C112.699 77.7293 112.438 77.883 112.258 78.1173C112.095 78.3483 112.051 78.6438 112.127 79.0038C112.204 79.3638 112.364 79.6161 112.607 79.7607C112.866 79.9021 113.168 79.9362 113.512 79.8631ZM115.319 88.263C115.929 88.1335 116.146 87.654 115.97 86.8245C115.927 86.621 115.872 86.4365 115.804 86.271C115.752 86.1021 115.69 85.9271 115.619 85.7459C115.427 85.6886 115.198 85.6881 114.932 85.7445C114.165 85.9073 113.869 86.4034 114.045 87.2329C114.128 87.6242 114.279 87.9112 114.498 88.0938C114.732 88.273 115.006 88.3295 115.319 88.263Z" fill="#DB5632"/>
<path d="M47.8549 127.646C47.6999 126.916 47.7789 126.338 48.0919 125.911C48.4132 125.473 48.8712 125.19 49.4659 125.064C50.0398 124.942 50.5217 125.003 50.9116 125.248C51.3097 125.479 51.5586 125.83 51.6582 126.3C51.7578 126.769 51.7 127.19 51.4847 127.563C51.2776 127.923 50.9236 128.157 50.4228 128.263L50.3915 128.269L51.0822 131.525L51.1449 131.512L52.1047 129.329L52.9968 129.14L54.7101 130.739L54.7727 130.726L53.4243 124.371L55.7251 123.883L57.5816 132.632L55.0773 133.163L53.0316 131.308L52.9533 131.324L51.8062 133.858L49.2863 134.392L47.8549 127.646ZM50.03 127.414C50.2596 127.365 50.4289 127.264 50.538 127.11C50.6575 126.954 50.6918 126.756 50.6408 126.516C50.5899 126.276 50.4781 126.108 50.3055 126.014C50.1433 125.918 49.9474 125.894 49.7178 125.943C49.4987 125.989 49.3294 126.09 49.2099 126.247C49.1008 126.401 49.0717 126.598 49.1226 126.838C49.1736 127.078 49.2801 127.246 49.4423 127.342C49.615 127.437 49.8109 127.46 50.03 127.414ZM48.2647 124.19L48.0436 123.534C47.8753 122.741 48.0124 122.025 48.4547 121.386C48.897 120.747 49.619 120.321 50.6207 120.108C51.2781 119.969 51.9057 119.972 52.5037 120.118C53.0994 120.253 53.6312 120.473 54.0992 120.777C54.5776 121.079 54.9674 121.399 55.2684 121.739L55.3235 122.692L48.2647 124.19ZM49.8667 122.722L53.1849 122.018C52.9373 121.776 52.6128 121.583 52.2116 121.439C51.8081 121.285 51.3924 121.253 50.9646 121.344C50.5055 121.441 50.1897 121.623 50.017 121.888C49.8526 122.141 49.8025 122.419 49.8667 122.722ZM59.9874 132.122L59.7715 131.104C59.6586 130.572 59.5288 130.114 59.382 129.731C59.2331 129.338 59.0819 128.933 58.9285 128.519C58.7729 128.094 58.6287 127.568 58.4959 126.942C58.3254 126.139 58.3652 125.427 58.6153 124.807C58.8631 124.177 59.2859 123.651 59.8834 123.23C60.481 122.808 61.2181 122.505 62.0945 122.319C62.9397 122.139 63.7094 122.118 64.4034 122.254C65.0975 122.39 65.6761 122.676 66.1394 123.112C66.6004 123.538 66.9062 124.106 67.0568 124.815L68.2358 130.371L65.935 130.86L64.839 125.695C64.7106 125.089 64.4459 124.639 64.045 124.342C63.644 124.045 63.1044 123.969 62.4262 124.113C61.7793 124.25 61.3142 124.551 61.0309 125.014C60.7558 125.465 60.6969 126.061 60.8541 126.802C60.9603 127.303 61.0646 127.717 61.1667 128.044C61.2771 128.359 61.3852 128.663 61.4912 128.957C61.5949 129.24 61.6922 129.595 61.7829 130.023L62.6394 128.664C62.075 128.522 61.7242 128.127 61.5869 127.481C61.4828 126.99 61.5522 126.572 61.795 126.226C62.0379 125.88 62.4201 125.652 62.9418 125.541C63.4636 125.43 63.9089 125.499 64.2779 125.748C64.6552 125.984 64.8947 126.342 64.9966 126.822C65.0741 127.188 65.0499 127.536 64.9241 127.868C64.8087 128.198 64.637 128.545 64.409 128.91L62.7577 131.534L59.9874 132.122ZM63.4077 127.814C63.6164 127.77 63.7753 127.67 63.8844 127.516C63.9935 127.362 64.0237 127.171 63.9749 126.941C63.9285 126.722 63.8241 126.564 63.6619 126.468C63.4997 126.371 63.3142 126.345 63.1055 126.39C62.876 126.438 62.7119 126.538 62.6132 126.69C62.5146 126.842 62.4885 127.028 62.535 127.247C62.5815 127.466 62.6817 127.63 62.8357 127.739C62.998 127.835 63.1886 127.86 63.4077 127.814ZM72.3261 120.148C73.5574 119.886 74.5969 119.955 75.4446 120.353C76.2902 120.741 76.8236 121.456 77.045 122.499L78.2639 128.244L75.9631 128.732L74.8273 123.379C74.6989 122.774 74.4524 122.357 74.0878 122.129C73.721 121.891 73.2611 121.83 72.708 121.948C72.1655 122.063 71.7777 122.265 71.5446 122.554C71.3221 122.841 71.2089 123.182 71.2051 123.575L73.1445 123.85L73.2693 125.133C72.4137 125.314 72.0855 125.874 72.2848 126.813L72.8328 129.396L70.532 129.884L69.984 127.302C69.8711 126.77 69.9033 126.305 70.0807 125.907C70.2558 125.499 70.5325 125.184 70.9107 124.962L70.923 124.943L69.0908 124.711L68.9579 124.085C68.8295 123.479 68.8836 122.912 69.12 122.382C69.3565 121.852 69.7497 121.392 70.2995 121.003C70.8471 120.603 71.5227 120.318 72.3261 120.148ZM84.1931 131.549C83.6713 131.66 83.201 131.601 82.782 131.374C82.363 131.147 82.0993 130.777 81.9908 130.266C81.8779 129.734 81.9593 129.27 82.235 128.873C82.5129 128.487 82.9962 128.221 83.6849 128.075C84.2379 127.957 84.7985 127.953 85.3667 128.061C85.9349 128.17 86.4538 128.354 86.9234 128.614L85.3393 121.148C85.2108 120.543 84.9591 120.128 84.5841 119.902C84.2069 119.666 83.7522 119.604 83.22 119.717C82.7296 119.821 82.3698 120.001 82.1406 120.257C81.9091 120.502 81.7953 120.788 81.7991 121.115L83.6916 121.4L83.8097 122.651C83.4341 122.73 83.1984 122.878 83.1026 123.095C83.0068 123.312 82.9921 123.577 83.0585 123.89L83.3109 125.079C83.4659 125.809 83.388 126.393 83.0772 126.83C82.7642 127.256 82.3103 127.532 81.7156 127.658C81.1312 127.782 80.6453 127.727 80.2576 127.493C79.8677 127.249 79.6229 126.892 79.5233 126.422C79.4237 125.953 79.4774 125.538 79.6845 125.178C79.8998 124.805 80.2579 124.566 80.7587 124.459L80.7744 124.456L80.7544 124.362C80.6703 123.966 80.6766 123.61 80.7733 123.295C80.8679 122.97 81.1158 122.699 81.517 122.483L81.5104 122.452L79.6658 122.238L79.5462 121.674C79.4223 121.09 79.4755 120.544 79.706 120.038C79.9365 119.531 80.3184 119.095 80.8518 118.731C81.3934 118.355 82.0659 118.081 82.8694 117.911C83.6624 117.742 84.3829 117.72 85.0308 117.845C85.6869 117.956 86.2328 118.216 86.6685 118.626C87.1125 119.022 87.4087 119.57 87.557 120.269L89.6725 130.239L87.5283 130.694C87.0508 130.294 86.4963 130.019 85.8648 129.869C85.8209 130.228 85.6638 130.566 85.3935 130.885C85.1253 131.215 84.7252 131.436 84.1931 131.549ZM81.448 126.783C81.6776 126.734 81.8469 126.633 81.956 126.479C82.065 126.325 82.0941 126.128 82.0432 125.888C81.9923 125.648 81.8857 125.48 81.7235 125.383C81.5613 125.287 81.3654 125.263 81.1358 125.312C80.9167 125.358 80.7474 125.459 80.6279 125.616C80.5188 125.77 80.4897 125.967 80.5407 126.207C80.5916 126.447 80.6981 126.615 80.8604 126.711C81.033 126.805 81.2289 126.829 81.448 126.783ZM84.0151 130.556C84.3386 130.488 84.5498 130.301 84.6488 129.996C84.7604 129.7 84.7736 129.403 84.6885 129.105C84.422 129.03 84.1478 129.023 83.8661 129.083C83.5531 129.149 83.3368 129.261 83.2173 129.417C83.1104 129.581 83.0814 129.778 83.1301 130.008C83.1766 130.227 83.2809 130.385 83.4431 130.481C83.6053 130.578 83.796 130.603 84.0151 130.556ZM93.3984 120.289C93.4493 120.529 93.4964 120.802 93.5398 121.109L93.5867 121.099C93.7122 120.56 93.9062 120.061 94.1686 119.602C94.4288 119.133 94.7413 118.755 95.1062 118.471C94.8956 118.352 94.7097 118.195 94.5484 118C94.3953 117.793 94.2934 117.569 94.2424 117.329C94.1295 116.797 94.2194 116.347 94.5122 115.98C94.8028 115.602 95.2402 115.351 95.8245 115.227C96.4193 115.101 96.9262 115.151 97.3451 115.379C97.7619 115.596 98.0267 115.97 98.1397 116.502C98.195 116.763 98.1721 117.041 98.0709 117.335C97.9676 117.618 97.8199 117.873 97.628 118.099C97.8825 118.22 98.1012 118.402 98.284 118.647C98.4645 118.881 98.5858 119.145 98.6478 119.437L99.5578 123.725L97.257 124.213L96.4068 120.207C96.3537 119.956 96.2123 119.855 95.9828 119.904C95.7637 119.951 95.53 120.186 95.2818 120.609C95.0418 121.02 94.8247 121.589 94.6302 122.317C94.4358 123.046 94.3097 123.89 94.2519 124.851L92.0607 125.316L90.8651 119.682L90.8495 119.685C90.3486 119.791 89.9252 119.723 89.5793 119.48C89.2416 119.225 89.0229 118.862 88.9233 118.392C88.8236 117.923 88.9035 117.503 89.1627 117.131C89.4198 116.75 89.8352 116.498 90.4091 116.376C91.0143 116.248 91.5476 116.32 92.0089 116.593C92.4681 116.855 92.7751 117.352 92.9301 118.082L93.3984 120.289ZM90.848 118.753C91.0775 118.704 91.2469 118.603 91.3559 118.449C91.465 118.295 91.4941 118.098 91.4432 117.858C91.3922 117.618 91.2857 117.45 91.1235 117.353C90.9612 117.257 90.7654 117.233 90.5358 117.282C90.3063 117.33 90.1369 117.432 90.0279 117.586C89.9188 117.74 89.8897 117.937 89.9406 118.177C89.9915 118.417 90.0981 118.585 90.2603 118.681C90.4225 118.778 90.6184 118.802 90.848 118.753ZM95.4006 117.084C95.4427 117.282 95.5534 117.444 95.7327 117.569C95.912 117.695 96.1241 117.77 96.3692 117.794C96.5833 117.672 96.7478 117.523 96.8629 117.346C96.9862 117.156 97.0257 116.957 96.9814 116.748C96.935 116.529 96.8254 116.372 96.6527 116.278C96.4779 116.173 96.2704 116.147 96.0304 116.197C95.8009 116.246 95.6275 116.354 95.5102 116.521C95.3907 116.677 95.3541 116.864 95.4006 117.084ZM107.752 121.986C107.391 121.671 107.012 121.424 106.614 121.247C106.225 121.057 105.829 120.912 105.426 120.812C105.484 121.29 105.377 121.738 105.106 122.155C104.845 122.571 104.36 122.854 103.65 123.004C102.983 123.146 102.431 123.088 101.995 122.832C101.567 122.563 101.291 122.136 101.167 121.552C101.061 121.051 101.122 120.596 101.352 120.188C101.579 119.769 101.953 119.477 102.474 119.312C102.429 119.201 102.389 119.09 102.354 118.977C102.33 118.863 102.303 118.737 102.275 118.602L102.002 117.318L101.971 117.325C101.47 117.431 101.047 117.363 100.701 117.12C100.363 116.865 100.144 116.502 100.045 116.033C99.9452 115.563 100.025 115.143 100.284 114.771C100.552 114.388 100.972 114.135 101.546 114.013C102.141 113.887 102.669 113.96 103.13 114.233C103.6 114.493 103.912 114.988 104.067 115.719L104.612 118.286C104.663 118.526 104.713 118.739 104.764 118.924C105.627 119.035 106.456 119.296 107.252 119.705L107.268 119.701L105.896 113.237L108.197 112.749L110.053 121.498L107.752 121.986ZM101.985 116.39C102.204 116.343 102.368 116.243 102.477 116.089C102.597 115.933 102.631 115.735 102.58 115.495C102.529 115.255 102.418 115.088 102.245 114.993C102.083 114.897 101.892 114.872 101.673 114.918C101.443 114.967 101.269 115.07 101.149 115.226C101.04 115.38 101.011 115.577 101.062 115.817C101.113 116.057 101.22 116.225 101.382 116.321C101.554 116.416 101.756 116.438 101.985 116.39ZM103.19 121.99C103.597 121.903 103.741 121.584 103.624 121.031C103.595 120.895 103.558 120.772 103.513 120.662C103.478 120.549 103.437 120.432 103.39 120.312C103.262 120.273 103.109 120.273 102.932 120.311C102.42 120.419 102.223 120.75 102.341 121.303C102.396 121.564 102.497 121.755 102.642 121.877C102.799 121.996 102.981 122.034 103.19 121.99ZM110.729 114.371L109.763 112.826C110.143 112.56 110.561 112.324 111.019 112.117C111.485 111.899 112 111.729 112.564 111.61C113.67 111.375 114.585 111.448 115.309 111.829C116.031 112.199 116.497 112.88 116.707 113.871L117.969 119.819L115.668 120.307L114.486 114.735C114.375 114.213 114.167 113.848 113.861 113.641C113.553 113.423 113.118 113.373 112.554 113.493C112.231 113.561 111.911 113.673 111.595 113.827C111.279 113.982 110.99 114.163 110.729 114.371ZM120.268 119.331L119.787 117.061C119.685 116.581 119.708 116.151 119.857 115.771C120.005 115.39 120.287 115.101 120.703 114.904L120.7 114.888C120.251 114.831 119.84 114.613 119.465 114.234C119.099 113.843 118.857 113.371 118.739 112.818C118.573 112.036 118.642 111.41 118.947 110.942C119.259 110.462 119.728 110.155 120.354 110.022C120.928 109.9 121.41 109.962 121.8 110.206C122.188 110.44 122.431 110.792 122.531 111.261C122.63 111.731 122.578 112.151 122.373 112.522C122.166 112.882 121.807 113.116 121.295 113.225C121.275 113.229 121.254 113.233 121.233 113.238C121.275 113.436 121.389 113.586 121.574 113.689C121.757 113.781 121.995 113.796 122.287 113.734L123.257 113.528L123.596 115.124L122.766 115.301C122.453 115.367 122.241 115.499 122.131 115.697C122.018 115.885 121.988 116.104 122.041 116.354L122.197 117.09L124.154 116.674C124.602 116.579 124.879 116.417 124.983 116.188C125.097 115.956 125.107 115.616 125.012 115.168L123.796 109.439L126.097 108.951L127.366 114.93C127.558 115.838 127.485 116.573 127.147 117.135C126.808 117.698 126.065 118.101 124.917 118.344L120.268 119.331ZM120.918 112.372C121.148 112.324 121.317 112.222 121.426 112.068C121.533 111.904 121.562 111.707 121.513 111.477C121.465 111.248 121.359 111.085 121.197 110.988C121.033 110.881 120.836 110.852 120.606 110.901C120.377 110.95 120.208 111.056 120.101 111.221C119.992 111.375 119.962 111.567 120.011 111.796C120.06 112.026 120.166 112.194 120.331 112.301C120.493 112.397 120.689 112.421 120.918 112.372Z" fill="black"/>
</svg>
