<?xml version="1.0" encoding="UTF-8"?><svg id="Layer_7" xmlns="http://www.w3.org/2000/svg" viewBox="0 0 697.39 1185"><defs><style>.cls-1{fill:#2d6076;}</style></defs><path class="cls-1" d="m135.45,199.5l5.87,10.88c2.34,4.34,2.57,9.18,1,13.1-.31.78-.27,1.66.13,2.4l2.2,4.08c1.06,1.96,3.84,1.99,4.98.08,3.74-6.29,4.18-14.33.45-21.25l-8.49-15.74c-3.73-6.92-10.7-10.97-18.01-11.29-2.23-.1-3.73,2.24-2.67,4.2l2.2,4.08c.4.74,1.11,1.26,1.93,1.43,4.14.85,8.06,3.69,10.4,8.03Zm-17.13,23.28l-5.87-10.88c-2.34-4.34-2.56-9.18-1-13.1.31-.78.26-1.66-.14-2.4l-2.2-4.08c-1.06-1.96-3.84-1.99-4.98-.08-3.74,6.29-4.18,14.33-.45,21.25l8.49,15.74c3.73,6.92,10.7,10.97,18.01,11.29,2.23.1,3.73-2.24,2.67-4.2l-2.2-4.08c-.4-.74-1.11-1.26-1.93-1.43-4.14-.85-8.06-3.69-10.4-8.03Z"/><path class="cls-1" d="m165.82,256.81l5.87,10.88c2.34,4.34,2.57,9.18,1,13.1-.31.78-.27,1.66.13,2.4l2.2,4.08c1.06,1.96,3.84,1.99,4.98.08,3.74-6.29,4.18-14.33.45-21.25l-8.49-15.74c-3.73-6.92-10.7-10.97-18.01-11.29-2.23-.1-3.73,2.24-2.67,4.2l2.2,4.08c.4.74,1.11,1.26,1.93,1.43,4.14.85,8.06,3.69,10.4,8.03Zm-17.13,23.28l-5.87-10.88c-2.34-4.34-2.56-9.18-1-13.1.31-.78.26-1.66-.14-2.4l-2.2-4.08c-1.06-1.96-3.84-1.99-4.98-.08-3.74,6.29-4.18,14.33-.45,21.25l8.49,15.74c3.73,6.92,10.7,10.97,18.01,11.29,2.23.1,3.73-2.24,2.67-4.2l-2.2-4.08c-.4-.74-1.11-1.26-1.93-1.43-4.14-.85-8.06-3.69-10.4-8.03Z"/><path class="cls-1" d="m100.13,174.78c-.07-.14-.09-.15-.11-.14-5.25.32-9.46-2.24-12.42-7.72l-5.87-10.88c-3.9-7.23-1.92-15.88,4.42-19.31s14.67-.34,18.57,6.9l5.87,10.88c2.83,5.24,3.92,9.86,1.14,14.06-.01.02-.01.03,0,.05.13.24,1.25,2.32,2.38,4.4,1.24,2.29,4.51,2.43,5.89.23,4-6.36,3.18-13.25-.64-20.34l-8.49-15.74c-5.76-10.67-19.23-14.53-29.81-8.37s-13.39,19.01-7.83,29.31l7.66,14.7c3.86,7.16,10.48,11.25,18.07,11.32,2.81.02,4.58-3.05,3.25-5.53l-2.07-3.83Z"/><rect class="cls-1" x="85.31" y="176.49" width="51.77" height="10.42" rx="4.53" ry="4.53" transform="translate(218.31 -2.44) rotate(61.65)"/><rect class="cls-1" x="115.45" y="232.34" width="51.77" height="10.42" rx="4.53" ry="4.53" transform="translate(283.29 .37) rotate(61.65)"/><rect class="cls-1" x="146.98" y="292.2" width="51.77" height="10.42" rx="4.53" ry="4.53" transform="translate(352.53 4.06) rotate(61.65)"/><path class="cls-1" d="m195.77,312.93l5.87,10.88c2.34,4.34,2.57,9.18,1,13.1-.31.78-.27,1.66.13,2.4l2.2,4.08c1.06,1.96,3.84,1.99,4.98.08,3.74-6.29,4.18-14.33.45-21.25l-8.49-15.74c-3.73-6.92-10.7-10.97-18.01-11.29-2.23-.1-3.73,2.24-2.67,4.2l2.2,4.08c.4.74,1.11,1.26,1.93,1.43,4.14.85,8.06,3.69,10.4,8.03Zm-17.13,23.28l-5.87-10.88c-2.34-4.34-2.56-9.18-1-13.1.31-.78.26-1.66-.14-2.4l-2.2-4.08c-1.06-1.96-3.84-1.99-4.98-.08-3.74,6.29-4.18,14.33-.45,21.25l8.49,15.74c3.73,6.92,10.7,10.97,18.01,11.29,2.23.1,3.73-2.24,2.67-4.2l-2.2-4.08c-.4-.74-1.11-1.26-1.93-1.43-4.14-.85-8.06-3.69-10.4-8.03Z"/><path class="cls-1" d="m226.14,370.24l5.87,10.88c2.34,4.34,2.57,9.18,1,13.1-.31.78-.27,1.66.13,2.4l2.2,4.08c1.06,1.96,3.84,1.99,4.98.08,3.74-6.29,4.18-14.33.45-21.25l-8.49-15.74c-3.73-6.92-10.7-10.97-18.01-11.29-2.23-.1-3.73,2.24-2.67,4.2l2.2,4.08c.4.74,1.11,1.26,1.93,1.43,4.14.85,8.06,3.69,10.4,8.03Zm-17.13,23.28l-5.87-10.88c-2.34-4.34-2.56-9.18-1-13.1.31-.78.26-1.66-.14-2.4l-2.2-4.08c-1.06-1.96-3.84-1.99-4.98-.08-3.74,6.29-4.18,14.33-.45,21.25l8.49,15.74c3.73,6.92,10.7,10.97,18.01,11.29,2.23.1,3.73-2.24,2.67-4.2l-2.2-4.08c-.4-.74-1.11-1.26-1.93-1.43-4.14-.85-8.06-3.69-10.4-8.03Z"/><rect class="cls-1" x="175.77" y="345.77" width="51.77" height="10.42" rx="4.53" ry="4.53" transform="translate(414.79 6.85) rotate(61.65)"/><rect class="cls-1" x="207.3" y="405.63" width="51.77" height="10.42" rx="4.53" ry="4.53" transform="translate(484.03 10.54) rotate(61.65)"/><path class="cls-1" d="m254.52,423.32l5.87,10.88c2.34,4.34,2.57,9.18,1,13.1-.31.78-.27,1.66.13,2.4l2.2,4.08c1.06,1.96,3.84,1.99,4.98.08,3.74-6.29,4.18-14.33.45-21.25l-8.49-15.74c-3.73-6.92-10.7-10.97-18.01-11.29-2.23-.1-3.73,2.24-2.67,4.2l2.2,4.08c.4.74,1.11,1.26,1.93,1.43,4.14.85,8.06,3.69,10.4,8.03Zm-17.13,23.28l-5.87-10.88c-2.34-4.34-2.56-9.18-1-13.1.31-.78.26-1.66-.14-2.4l-2.2-4.08c-1.06-1.96-3.84-1.99-4.98-.08-3.74,6.29-4.18,14.33-.45,21.25l8.49,15.74c3.73,6.92,10.7,10.97,18.01,11.29,2.23.1,3.73-2.24,2.67-4.2l-2.2-4.08c-.4-.74-1.11-1.26-1.93-1.43-4.14-.85-8.06-3.69-10.4-8.03Z"/><rect class="cls-1" x="235.67" y="458.71" width="51.77" height="10.42" rx="4.53" ry="4.53" transform="translate(545.65 13.45) rotate(61.65)"/><path class="cls-1" d="m284.46,479.44l5.87,10.88c2.34,4.34,2.57,9.18,1,13.1-.31.78-.27,1.66.13,2.4l2.2,4.08c1.06,1.96,3.84,1.99,4.98.08,3.74-6.29,4.18-14.33.45-21.25l-8.49-15.74c-3.73-6.92-10.7-10.97-18.01-11.29-2.23-.1-3.73,2.24-2.67,4.2l2.2,4.08c.4.74,1.11,1.26,1.93,1.43,4.14.85,8.06,3.69,10.4,8.03Zm-17.13,23.28l-5.87-10.88c-2.34-4.34-2.56-9.18-1-13.1.31-.78.26-1.66-.14-2.4l-2.2-4.08c-1.06-1.96-3.84-1.99-4.98-.08-3.74,6.29-4.18,14.33-.45,21.25l8.49,15.74c3.73,6.92,10.7,10.97,18.01,11.29,2.23.1,3.73-2.24,2.67-4.2l-2.2-4.08c-.4-.74-1.11-1.26-1.93-1.43-4.14-.85-8.06-3.69-10.4-8.03Z"/><path class="cls-1" d="m314.84,536.75l5.87,10.88c2.34,4.34,2.57,9.18,1,13.1-.31.78-.27,1.66.13,2.4l2.2,4.08c1.06,1.96,3.84,1.99,4.98.08,3.74-6.29,4.18-14.33.45-21.25l-8.49-15.74c-3.73-6.92-10.7-10.97-18.01-11.29-2.23-.1-3.73,2.24-2.67,4.2l2.2,4.08c.4.74,1.11,1.26,1.93,1.43,4.14.85,8.06,3.69,10.4,8.03Zm-17.13,23.28l-5.87-10.88c-2.34-4.34-2.56-9.18-1-13.1.31-.78.26-1.66-.14-2.4l-2.2-4.08c-1.06-1.96-3.84-1.99-4.98-.08-3.74,6.29-4.18,14.33-.45,21.25l8.49,15.74c3.73,6.92,10.7,10.97,18.01,11.29,2.23.1,3.73-2.24,2.67-4.2l-2.2-4.08c-.4-.74-1.11-1.26-1.93-1.43-4.14-.85-8.06-3.69-10.4-8.03Z"/><rect class="cls-1" x="264.46" y="512.28" width="51.77" height="10.42" rx="4.53" ry="4.53" transform="translate(607.92 16.24) rotate(61.65)"/><rect class="cls-1" x="295.99" y="572.14" width="51.77" height="10.42" rx="4.53" ry="4.53" transform="translate(677.16 19.93) rotate(61.65)"/><path class="cls-1" d="m554.51,1027.15l-6.04-10.79c-2.41-4.3-2.71-9.14-1.21-13.08.3-.79.24-1.66-.17-2.4l-2.26-4.04c-1.09-1.94-3.87-1.93-4.98,0-3.65,6.35-3.96,14.4-.12,21.26l8.73,15.6c3.84,6.86,10.86,10.8,18.18,11.01,2.23.06,3.69-2.3,2.6-4.24l-2.26-4.05c-.41-.73-1.13-1.24-1.95-1.4-4.15-.79-8.12-3.57-10.52-7.87Zm16.76-23.55l6.04,10.79c2.41,4.3,2.7,9.13,1.2,13.09-.3.79-.24,1.66.17,2.4l2.26,4.05c1.09,1.94,3.87,1.93,4.98,0,3.65-6.35,3.96-14.4.12-21.26l-8.73-15.6c-3.84-6.86-10.86-10.8-18.18-11.01-2.23-.06-3.69,2.3-2.6,4.24l2.26,4.04c.41.73,1.13,1.24,1.95,1.4,4.15.78,8.12,3.57,10.52,7.87Z"/><path class="cls-1" d="m523.25,970.32l-6.04-10.79c-2.41-4.3-2.71-9.14-1.21-13.08.3-.79.24-1.66-.17-2.4l-2.26-4.04c-1.09-1.94-3.87-1.93-4.98,0-3.65,6.35-3.96,14.4-.12,21.26l8.73,15.6c3.84,6.86,10.86,10.8,18.18,11.01,2.23.06,3.69-2.3,2.6-4.24l-2.26-4.05c-.41-.73-1.13-1.24-1.95-1.4-4.15-.79-8.12-3.57-10.52-7.87Zm16.76-23.55l6.04,10.79c2.41,4.3,2.7,9.13,1.2,13.09-.3.79-.24,1.66.17,2.4l2.26,4.05c1.09,1.94,3.87,1.93,4.98,0,3.65-6.35,3.96-14.4.12-21.26l-8.73-15.6c-3.84-6.86-10.86-10.8-18.18-11.01-2.23-.06-3.69,2.3-2.6,4.24l2.26,4.04c.41.73,1.13,1.24,1.95,1.4,4.15.78,8.12,3.57,10.52,7.87Z"/><path class="cls-1" d="m590.21,1051.33c.08.14.09.14.11.14,5.24-.4,9.5,2.09,12.54,7.52l6.04,10.79c4.01,7.17,2.17,15.85-4.12,19.37-6.3,3.53-14.66.56-18.68-6.61l-6.04-10.79c-2.91-5.2-4.07-9.8-1.36-14.05.01-.02.01-.03,0-.05-.13-.23-1.29-2.3-2.44-4.37-1.27-2.27-4.54-2.36-5.9-.14-3.9,6.42-2.98,13.3.95,20.32l8.74,15.61c5.92,10.58,19.46,14.23,29.93,7.9,10.02-6.05,13.09-19.22,7.37-29.43l-7.88-14.58c-3.97-7.09-10.65-11.09-18.24-11.04-2.81.02-4.54,3.12-3.16,5.58l2.13,3.8Z"/><rect class="cls-1" x="553.15" y="1039.37" width="51.77" height="10.42" rx="4.53" ry="4.53" transform="translate(-49.68 2060.04) rotate(-119.24)"/><rect class="cls-1" x="522.15" y="983.99" width="51.77" height="10.42" rx="4.53" ry="4.53" transform="translate(-47.49 1950.56) rotate(-119.24)"/><rect class="cls-1" x="489.7" y="924.63" width="51.77" height="10.42" rx="4.53" ry="4.53" transform="translate(-43.99 1833.89) rotate(-119.24)"/><path class="cls-1" d="m492.44,914.68l-6.04-10.79c-2.41-4.3-2.71-9.14-1.21-13.08.3-.79.24-1.66-.17-2.4l-2.26-4.04c-1.09-1.94-3.87-1.93-4.98,0-3.65,6.35-3.96,14.4-.12,21.26l8.73,15.6c3.84,6.86,10.86,10.8,18.18,11.01,2.23.06,3.69-2.3,2.6-4.24l-2.26-4.05c-.41-.73-1.13-1.24-1.95-1.4-4.15-.79-8.12-3.57-10.52-7.87Zm16.76-23.55l6.04,10.79c2.41,4.3,2.7,9.13,1.2,13.09-.3.79-.24,1.66.17,2.4l2.26,4.05c1.09,1.94,3.87,1.93,4.98,0,3.65-6.35,3.96-14.4.12-21.26l-8.73-15.6c-3.84-6.86-10.86-10.8-18.18-11.01-2.23-.06-3.69,2.3-2.6,4.24l2.26,4.04c.41.73,1.13,1.24,1.95,1.4,4.15.78,8.12,3.57,10.52,7.87Z"/><path class="cls-1" d="m461.18,857.85l-6.04-10.79c-2.41-4.3-2.71-9.14-1.21-13.08.3-.79.24-1.66-.17-2.4l-2.26-4.04c-1.09-1.94-3.87-1.93-4.98,0-3.65,6.35-3.96,14.4-.12,21.26l8.73,15.6c3.84,6.86,10.86,10.8,18.18,11.01,2.23.06,3.69-2.3,2.6-4.24l-2.26-4.05c-.41-.73-1.13-1.24-1.95-1.4-4.15-.79-8.12-3.57-10.52-7.87Zm16.76-23.55l6.04,10.79c2.41,4.3,2.7,9.13,1.2,13.09-.3.79-.24,1.66.17,2.4l2.26,4.05c1.09,1.94,3.87,1.93,4.98,0,3.65-6.35,3.96-14.4.12-21.26l-8.73-15.6c-3.84-6.86-10.86-10.8-18.18-11.01-2.23-.06-3.69,2.3-2.6,4.24l2.26,4.04c.41.73,1.13,1.24,1.95,1.4,4.15.78,8.12,3.57,10.52,7.87Z"/><rect class="cls-1" x="460.08" y="871.51" width="51.77" height="10.42" rx="4.53" ry="4.53" transform="translate(-41.73 1728.98) rotate(-119.24)"/><rect class="cls-1" x="427.63" y="812.15" width="51.77" height="10.42" rx="4.53" ry="4.53" transform="translate(-38.23 1612.31) rotate(-119.24)"/><path class="cls-1" d="m431.98,805.21l-6.04-10.79c-2.41-4.3-2.71-9.14-1.21-13.08.3-.79.24-1.66-.17-2.4l-2.26-4.04c-1.09-1.94-3.87-1.93-4.98,0-3.65,6.35-3.96,14.4-.12,21.26l8.73,15.6c3.84,6.86,10.86,10.8,18.18,11.01,2.23.06,3.69-2.3,2.6-4.24l-2.26-4.05c-.41-.73-1.13-1.24-1.95-1.4-4.15-.79-8.12-3.57-10.52-7.87Zm16.76-23.55l6.04,10.79c2.41,4.3,2.7,9.13,1.2,13.09-.3.79-.24,1.66.17,2.4l2.26,4.05c1.09,1.94,3.87,1.93,4.98,0,3.65-6.35,3.96-14.4.12-21.26l-8.73-15.6c-3.84-6.86-10.86-10.8-18.18-11.01-2.23-.06-3.69,2.3-2.6,4.24l2.26,4.04c.41.73,1.13,1.24,1.95,1.4,4.15.78,8.12,3.57,10.52,7.87Z"/><rect class="cls-1" x="398.43" y="759.51" width="51.77" height="10.42" rx="4.53" ry="4.53" transform="translate(-35.75 1508.49) rotate(-119.24)"/><path class="cls-1" d="m401.17,749.56l-6.04-10.79c-2.41-4.3-2.71-9.14-1.21-13.08.3-.79.24-1.66-.17-2.4l-2.26-4.04c-1.09-1.94-3.87-1.93-4.98,0-3.65,6.35-3.96,14.4-.12,21.26l8.73,15.6c3.84,6.86,10.86,10.8,18.18,11.01,2.23.06,3.69-2.3,2.6-4.24l-2.26-4.05c-.41-.73-1.13-1.24-1.95-1.4-4.15-.79-8.12-3.57-10.52-7.87Zm16.76-23.55l6.04,10.79c2.41,4.3,2.7,9.13,1.2,13.09-.3.79-.24,1.66.17,2.4l2.26,4.05c1.09,1.94,3.87,1.93,4.98,0,3.65-6.35,3.96-14.4.12-21.26l-8.73-15.6c-3.84-6.86-10.86-10.8-18.18-11.01-2.23-.06-3.69,2.3-2.6,4.24l2.26,4.04c.41.73,1.13,1.24,1.95,1.4,4.15.78,8.12,3.57,10.52,7.87Z"/><path class="cls-1" d="m369.91,692.73l-6.04-10.79c-2.41-4.3-2.71-9.14-1.21-13.08.3-.79.24-1.66-.17-2.4l-2.26-4.04c-1.09-1.94-3.87-1.93-4.98,0-3.65,6.35-3.96,14.4-.12,21.26l8.73,15.6c3.84,6.86,10.86,10.8,18.18,11.01,2.23.06,3.69-2.3,2.6-4.24l-2.26-4.05c-.41-.73-1.13-1.24-1.95-1.4-4.15-.79-8.12-3.57-10.52-7.87Zm16.76-23.55l6.04,10.79c2.41,4.3,2.7,9.13,1.2,13.09-.3.79-.24,1.66.17,2.4l2.26,4.05c1.09,1.94,3.87,1.93,4.98,0,3.65-6.35,3.96-14.4.12-21.26l-8.73-15.6c-3.84-6.86-10.86-10.8-18.18-11.01-2.23-.06-3.69,2.3-2.6,4.24l2.26,4.04c.41.73,1.13,1.24,1.95,1.4,4.15.78,8.12,3.57,10.52,7.87Z"/><rect class="cls-1" x="368.81" y="706.4" width="51.77" height="10.42" rx="4.53" ry="4.53" transform="translate(-33.49 1403.58) rotate(-119.24)"/><rect class="cls-1" x="336.36" y="647.04" width="51.77" height="10.42" rx="4.53" ry="4.53" transform="translate(-29.99 1286.91) rotate(-119.24)"/></svg>