<svg id="Layer_1" data-name="Layer 1" xmlns="http://www.w3.org/2000/svg" viewBox="0 0 54.83 152.03"><defs><style>.cls-1{fill:#38424a;}.cls-2{fill:none;}.cls-2,.cls-5,.cls-6{stroke:#000;stroke-linecap:round;stroke-linejoin:round;stroke-width:2px;}.cls-3{fill:#2d6076;}.cls-4,.cls-5{fill:#d2d4d4;}.cls-6{fill:#f3f1dd;}</style></defs><path class="cls-1" d="M35.05,28.76V9.36H19.77v19.4C19.77,45.75,1,54.37,1,82.56v64.76A3.71,3.71,0,0,0,4.7,151H50.12a3.71,3.71,0,0,0,3.71-3.71V82.56c0-28.19-18.78-36.81-18.78-53.8"/><path class="cls-2" d="M35.05,28.76V9.36H19.77v19.4C19.77,45.75,1,54.37,1,82.56v64.76A3.71,3.71,0,0,0,4.7,151H50.12a3.71,3.71,0,0,0,3.71-3.71V82.56C53.83,54.37,35.05,45.75,35.05,28.76Z"/><path class="cls-1" d="M35.42,20h-16V2.63A1.5,1.5,0,0,1,20.74,1H34.09a1.51,1.51,0,0,1,1.33,1.63Z"/><path class="cls-3" d="M32.38,54.25c5.09,9.33,8.09,12.68,9.09,25l6.41.93c-.65-12.86-3.47-20.4-10.33-27.92-1.37-1.26-4.34-.27-5.94.42Z"/><path class="cls-2" d="M35.42,20h-16V2.63A1.5,1.5,0,0,1,20.74,1H34.09a1.51,1.51,0,0,1,1.33,1.63Z"/><rect class="cls-4" x="1" y="85.58" width="52.83" height="52.83"/><rect class="cls-2" x="1" y="85.58" width="52.83" height="52.83"/><line class="cls-2" x1="19.4" y1="7.25" x2="35.42" y2="7.25"/><rect class="cls-5" x="19.4" y="19.99" width="16.02" height="4.27"/><path class="cls-3" d="M32.51,60.05A7.62,7.62,0,0,1,34.2,62.5a42.53,42.53,0,0,1,4.45,16.57l-2.34.19a.51.51,0,0,1-.3,0c-.16-.08-.19-.29-.2-.47a43,43,0,0,0-5.66-18.67S31.76,59.4,32.51,60.05Z"/><line class="cls-6" x1="19.4" y1="10.49" x2="35.05" y2="10.49"/></svg>