<svg id="Layer_1" data-name="Layer 1" xmlns="http://www.w3.org/2000/svg" viewBox="0 0 54.83 164.39"><defs><style>.cls-1{fill:#608e61;}.cls-2{fill:#725d2d;}.cls-2,.cls-3,.cls-4,.cls-5,.cls-6{stroke:#000;stroke-linecap:round;stroke-linejoin:round;stroke-width:2px;}.cls-3{fill:none;}.cls-4{fill:#f3f1dd;}.cls-5{fill:#dc5632;}.cls-6{fill:#38424a;}.cls-7{fill:#d2d4d4;}</style></defs><path class="cls-1" d="M53.82,92.3v64.77a3.7,3.7,0,0,1-3.69,3.7,112.3,112.3,0,0,1-45.43,0A3.7,3.7,0,0,1,1,157.07V92.3c0-18.5,8.08-30,13.64-40.59a60.51,60.51,0,0,0,2.94-6.25h5.6a5.24,5.24,0,0,1,8.45,0h5.6a60.51,60.51,0,0,0,2.94,6.25C45.74,62.26,53.82,73.8,53.82,92.3Z"/><path class="cls-2" d="M37.24,45.46h-5.6a5.24,5.24,0,0,0-8.45,0h-5.6a22.42,22.42,0,0,0,2.18-10.35V9.36H35.06V35.11C35.06,40.71,35.9,42.1,37.24,45.46Z"/><path class="cls-3" d="M53.82,92.3v64.77c0,2-1.27,3.64-4.84,4.6-6.3,2.1-37,2.58-44.06-.3-2.31-1-3.91-2.26-3.91-4.3V92.3c0-18.5,8.08-30,13.64-40.59a60.51,60.51,0,0,0,2.94-6.25h5.6a5.24,5.24,0,0,1,8.45,0h5.6a60.51,60.51,0,0,0,2.94,6.25C45.74,62.26,53.82,73.8,53.82,92.3Z"/><path class="cls-4" d="M35.06,18.34H19.77a1.7,1.7,0,0,1-1.61-1.78,1.71,1.71,0,0,1,1.61-1.79H35.06a1.7,1.7,0,0,1,1.6,1.79,1.7,1.7,0,0,1-1.6,1.78"/><path class="cls-2" d="M35.06,18.34H19.77a1.7,1.7,0,0,1-1.61-1.78,1.71,1.71,0,0,1,1.61-1.79H35.06a1.7,1.7,0,0,1,1.6,1.79A1.7,1.7,0,0,1,35.06,18.34Z"/><path class="cls-2" d="M35.89,14.77H18.94V4.26A3.06,3.06,0,0,1,21.75,1H33.07a3.06,3.06,0,0,1,2.82,3.26Z"/><path class="cls-4" d="M53.83,148.15a168.37,168.37,0,0,1-52.83,0V109.62a213.23,213.23,0,0,0,52.83,0Z"/><ellipse class="cls-5" cx="27.41" cy="96.98" rx="12.69" ry="7.56"/><path class="cls-6" d="M40.18,51.71H31.64a5.23,5.23,0,0,1-8.45,0H14.65a60.51,60.51,0,0,0,2.94-6.25h5.6a5.24,5.24,0,0,1,8.45,0h5.6A60.51,60.51,0,0,0,40.18,51.71Z"/><path class="cls-7" d="M7.09,100.89l2.31-.76c.47-.86.32-3.66.29-4.64A30.56,30.56,0,0,1,23.82,69.05a40.23,40.23,0,0,0-8-1.87,4,4,0,0,0-1.88.08,3.94,3.94,0,0,0-1.72,1.64C7,77,6.59,86.7,7,96.36Z"/></svg>