<svg id="Layer_1" data-name="Layer 1" xmlns="http://www.w3.org/2000/svg" xmlns:xlink="http://www.w3.org/1999/xlink" viewBox="0 0 445.01 387.98"><defs><style>.cls-1{fill:none;}.cls-2{fill:#38424a;}.cls-3{opacity:0.38;}.cls-4{fill:#d2d4d4;}.cls-5{clip-path:url(#clip-path);}.cls-6{fill:#ea3223;opacity:0;}</style><clipPath id="clip-path"><polygon class="cls-1" points="0 0.14 452.11 -41.24 452.11 346.6 0 387.98 0 0.14"/></clipPath></defs><polygon class="cls-2" points="451.04 0 432.09 87.28 420.82 133.05 409.3 189.92 405.39 221.16 399.42 275.83 397.06 295.18 396.93 296.21 396.17 302.47 392.49 358.7 392.22 377.25 392.26 377.44 392.3 377.64 392.34 377.83 392.37 378.01 392.4 378.19 392.44 378.53 392.44 378.83 392.43 378.97 392.41 379.1 392.38 379.22 392.34 379.34 392.3 379.44 392.18 379.64 392.11 379.73 392.03 379.82 391.95 379.9 391.77 380.06 391.67 380.12 391.56 380.18 391.44 380.24 391.31 380.28 391.19 380.32 391.05 380.35 390.9 380.36 390.75 380.38 390.26 380.38 390.1 380.36 389.96 380.35 389.88 380.34 389.87 380.34 354.35 382.25 205.19 383.94 49.26 387.33 18.45 384.67 11.22 383.3 4.16 379.53 4.15 379.53 4.03 379.42 3.89 379.3 3.61 379.02 3.47 378.86 3.32 378.69 3.02 378.31 2.87 378.1 2.72 377.89 2.58 377.67 2.45 377.46 2.21 377.02 2.1 376.81 2 376.6 1.92 376.41 1.84 376.23 1.78 376.06 1.71 375.91 1.66 375.76 1.61 375.62 1.57 375.49 1.53 375.38 1.49 375.26 1.46 375.14 1.42 375.02 1.39 374.9 1.35 374.78 1.32 374.65 1.29 374.52 1.25 374.38 1.22 374.24 1.18 374.08 1.15 373.92 1.11 373.76 1.08 373.58 1.04 373.4 1 373.21 0.96 373.02 0.92 372.82 0.88 372.64 0.86 372.48 0.83 372.37 0.83 372.35 1.18 367.99 6.06 357.81 16.72 347.85 31.26 338.77 61.24 325.32 95.48 312.87 129.84 300 146.42 288.69 151.24 282.35 151.26 282.28 151.28 282.21 151.3 282.13 151.32 282.06 151.36 281.9 151.38 281.81 151.42 281.65 151.44 281.56 151.45 281.48 151.47 281.39 151.49 281.23 151.5 281.15 151.5 281.12 151.51 281.08 151.51 280.82 151.5 280.77 151.49 280.72 151.49 280.68 151.48 280.64 151.47 280.6 151.46 280.57 151.44 280.54 151.43 280.51 151.41 280.49 151.4 280.46 151.38 280.44 151.36 280.41 151.35 280.39 151.33 280.37 151.31 280.34 151.29 280.33 151.27 280.31 151.25 280.28 151.23 280.26 151.21 280.25 151.19 280.23 151.16 280.21 151.14 280.19 151.12 280.18 151.09 280.16 151.06 280.15 151.04 280.13 151.01 280.12 150.98 280.11 150.96 280.09 150.93 280.08 150.9 280.07 150.87 280.06 150.84 280.05 150.81 280.04 150.78 280.03 150.74 280.02 150.68 280 150.65 279.99 150.61 279.99 150.58 279.98 150.54 279.97 150.51 279.97 150.47 279.96 150.44 279.95 150.4 279.95 150.36 279.94 150.33 279.93 150.29 279.93 150.25 279.92 150.21 279.92 150.17 279.91 150.13 279.91 150.1 279.9 150.02 279.9 149.98 279.89 149.94 279.88 149.9 279.88 149.86 279.87 149.82 279.87 149.78 279.86 149.74 279.86 149.71 279.85 149.67 279.84 149.63 279.84 149.59 279.83 149.56 279.82 149.48 279.8 149.45 279.79 149.41 279.79 149.38 279.77 149.35 279.76 149.31 279.75 149.28 279.74 149.24 279.73 149.21 279.71 149.18 279.7 149.15 279.68 149.12 279.67 149.1 279.65 149.07 279.63 149.04 279.61 149.01 279.6 148.99 279.58 148.96 279.56 148.94 279.53 148.91 279.51 148.89 279.49 148.87 279.46 148.85 279.43 148.83 279.41 148.81 279.38 148.8 279.35 148.78 279.32 148.77 279.29 148.76 279.26 148.75 279.23 148.74 279.19 148.73 279.16 148.72 279.13 148.72 279.09 148.71 279.05 148.71 278.98 148.7 278.94 148.7 278.54 148.71 278.49 148.71 278.34 148.72 278.28 148.72 278.17 148.73 278.12 148.74 278.06 148.74 277.94 148.76 277.82 148.76 277.7 148.77 277.63 148.78 277.57 148.78 277.5 148.79 277.43 148.79 277.37 148.8 277.3 148.8 277.23 148.81 277.16 148.81 277.09 148.82 277.01 148.83 276.94 148.83 276.86 148.85 276.7 148.85 276.62 148.86 276.54 148.87 276.45 148.88 276.36 148.88 276.27 148.89 276.18 148.9 276.08 148.92 275.88 148.92 275.78 148.93 275.67 148.95 275.45 148.96 275.34 148.97 275.22 148.98 275.11 148.99 274.99 149 274.86 149.01 274.74 149.03 274.48 149.04 274.34 149.06 274.2 149.08 273.9 149.09 273.74 149.11 273.58 149.12 273.42 149.14 273.25 149.15 273.07 149.17 272.89 149.19 272.7 149.21 272.51 149.22 272.31 149.24 272.11 149.26 271.9 149.28 271.68 149.3 271.45 149.33 271.22 149.35 270.98 149.38 270.73 149.4 270.47 149.43 270.2 149.46 269.92 149.49 269.64 149.53 269.34 149.56 269.04 149.6 268.73 149.63 268.4 149.67 268.07 149.71 267.72 149.75 267.37 149.79 267.02 149.83 266.65 149.87 266.27 149.92 265.89 149.96 265.5 150.01 265.12 150.05 264.73 150.1 264.34 150.14 263.94 150.19 263.55 150.23 263.16 150.27 262.78 150.31 262.41 150.36 262.05 150.4 261.71 150.43 261.41 150.46 261.17 150.47 261 150.49 260.91 150.49 260.9 156.71 220.71 168.19 168.68 174.79 140.41 183.63 93.15 197.81 40.94 203.8 15.88 208.99 1.02 209 1.02 218.1 0 451.04 0"/><g class="cls-3"><path class="cls-4" d="M166.63,289.05c-1.6,10.3-29.44,35.54-39.58,38S106,329.7,97,334.9c-3.8,2.19-7.09,5.16-10.73,7.59C75,350,60.93,351.91,48.5,357.29a71.94,71.94,0,0,0-22.89,15.79c-6.48,7.28,46.5.61,47.69-.73a75.39,75.39,0,0,1,42.41-24c2.84-.52,5.8-.92,8.23-2.47,2.62-1.67,4.27-4.46,6.28-6.84,5-5.94,12.29-9.36,19.18-12.94a245.58,245.58,0,0,0,50.53-35Z"/></g><path class="cls-2" d="M451.19,0,432.46,86.26,421.19,132,409.67,188.9l-3.91,31.24-6,54.67-2.49,20.38h-.24c-12-.66-37.38-4.32-72.78-8.56-65.26-7.81-159.79-7.09-172.41-6.52v-.55l0,0v0l0,0v0l0,0,0,0v0l0,0,0,0h0l0,0,0,0,0,0h0l0,0,0,0,0,0h0l0,0h0l0,0h-.06l0,0h-.22l-.06,0h-1.12l-.08,0h-.07l0,0h-.14l0,0h0l0,0h0l0,0,0,0,0,0h0l0,0,0,0,0,0,0,0,0,0,0,0,0,0,0,0,0,0v0l0,0v-1.38l0-.12v-2l0-.33v-.71l0-.26v-.14l0-.14,0-.3v-.16l0-.16v-.16l0-.17v-.18l0-.18,0-.19,0-.19v-.2l0-.2,0-.21,0-.22,0-.23,0-.23,0-.24,0-.25,0-.26,0-.27,0-.28,0-.28,0-.3,0-.3,0-.31,0-.33,0-.33,0-.35,0-.35,0-.35,0-.37,0-.38,0-.38,0-.39,0-.38,0-.39.05-.39,0-.4.05-.39,0-.39,0-.38,0-.37,0-.36,0-.34,0-.3,0-.24V260l0-.09h0l6.22-40.19,11.48-52,6.6-28.27L184,92.13l14.18-52.21,6-25.06L209,1l.36-1Z"/><g class="cls-5"><path d="M391.36,374.85a3.64,3.64,0,0,1-.1-1.32c0-.89-.06-1.79-.11-2.68-.08-1.62-.14-3.24-.13-4.87,0-2,0-4,.05-5.94,0-.68,0-1.35,0-2,0-1,0-2,.08-3,.15-3.44.3-6.9.51-10.35.22-3.61.45-7.23.72-10.84s.53-7.35.84-11q.27-3.17.56-6.34c.15-1.82.34-3.65.51-5.47.71-7.31,1.52-14.62,2.29-21.92.76-7.09,1.57-14.19,2.35-21.28s1.5-14,2.26-21q1.25-11.41,2.54-22.81c.44-3.79.92-7.59,1.39-11.39.42-3.42.93-6.85,1.4-10.27.07-.51.16-1,.24-1.53.2-1.31.4-2.63.61-3.94s.43-2.89.68-4.33c.63-3.57,1.21-7.15,1.89-10.72s1.4-7.42,2.14-11.13,1.53-7.57,2.32-11.36q2.31-11.07,4.76-22.12c.74-3.37,1.5-6.73,2.25-10.1.38-1.71.78-3.42,1.18-5.13.34-1.48.67-3,1-4.46.85-3.55,1.69-7.11,2.58-10.66q1.45-5.79,2.93-11.58,1.35-5.28,2.73-10.56c.87-3.37,1.79-6.74,2.67-10.12,1.44-5.54,10-52.47,11.35-58,.69-2.75,1.35-5.5,2-8.26q.48-2.05.93-4.11c.31-1.4.63-2.81.87-4.22a1.08,1.08,0,0,1,1.16-.83,1.09,1.09,0,0,1,1,1.05,5.63,5.63,0,0,1-.09,1.08l-.27,1.35c-.18.83-.36,1.65-.55,2.48-.41,1.86-.84,3.71-1.28,5.57q-1.17,4.89-2.41,9.78c-1.85,7.36-10.88,56.09-12.83,63.44q-2.65,10-5.16,20.13c-.46,1.8-.92,3.61-1.36,5.41-.5,2-1,4-1.45,6-.88,3.68-1.72,7.37-2.57,11.06-.79,3.41-1.54,6.83-2.3,10.25q-1.08,4.83-2.12,9.66c-1.52,7.1-3.05,14.2-4.48,21.31-.45,2.31-.92,4.6-1.37,6.9s-.87,4.58-1.3,6.87c-.75,3.95-1.42,7.91-2.08,11.74-.31,1.92-.6,3.85-.9,5.77-.22,1.4-.45,2.8-.64,4.2-.51,3.74-1,7.46-1.51,11.2-.48,3.91-1,7.84-1.41,11.76s-.86,7.63-1.29,11.45q-1.11,10-2.17,20.13-.66,6.07-1.33,12.14c-.37,3.4-.76,6.79-1.13,10.18-.39,3.66-.8,7.31-1.19,11s-.82,7.62-1.22,11.43c-.38,3.51-.72,7-1.06,10.54s-.66,6.92-.93,10.38c-.43,5.59-.85,11.18-1.23,16.77-.33,5-.59,10-.81,15,0,1.68-.09,3.37-.1,5.06,0,1.93-.05,3.87-.06,5.81,0,.84,0,1.68,0,2.52s.08,1.84.12,2.75l0,.59-.06,2.77a1.2,1.2,0,0,1-.26.45,1.09,1.09,0,0,1-1.77-.31Z"/><path d="M44.26,387.72c-2.07,0-4.14-.05-6.21-.08-.84,0-1.67-.06-2.5-.09-1,0-2.11-.05-3.16-.11-2.06-.13-4.12-.21-6.18-.43l-3.58-.36c-.26,0-.52-.08-.78-.12l-2.42-.37L18.22,386c-.42-.07-.84-.19-1.26-.28L15,385.28c-.81-.18-1.61-.4-2.4-.63a29.22,29.22,0,0,1-3.3-1.14c-.67-.28-1.32-.59-2-.91-.46-.23-.91-.52-1.35-.78a14.85,14.85,0,0,1-2.59-2,8.65,8.65,0,0,1-.82-.9,6.41,6.41,0,0,1-.88-1.27,9,9,0,0,1-.67-1.4A14.9,14.9,0,0,1,.6,374.8c-.12-.48-.18-1-.25-1.52a9.13,9.13,0,0,1-.08-1.57,14.53,14.53,0,0,1,.08-1.62c.07-.6.16-1.18.27-1.78a21.51,21.51,0,0,1,1-3.3c.22-.56.48-1.11.73-1.66s.37-.79.58-1.18.43-.87.68-1.28l1-1.67c.23-.39.51-.75.77-1.12s.42-.64.66-.94l1.21-1.52c.31-.39.65-.75,1-1.12s.56-.65.86-.95l1.36-1.37c.73-.74,1.51-1.43,2.29-2.14s1.53-1.3,2.3-1.95c.25-.21.53-.41.79-.62l.27-.2.23-.18.07-.05h0a6.48,6.48,0,0,1,.53-.42l.19-.14.13-.1c.1-.08.21-.16.27-.22.78-.59,1.59-1.12,2.38-1.68s1.79-1.21,2.68-1.8q2.41-1.6,4.92-3.09c.8-.48,1.59-1,2.42-1.44l3.2-1.74c.37-.2.75-.37,1.12-.55l1.88-.93c.9-.44,1.82-.84,2.73-1.25,3.89-1.75,7.84-3.38,11.8-5q5.69-2.32,11.42-4.54t11.61-4.34c2.23-.81,4.45-1.59,6.68-2.37l5.14-1.76c4-1.39,8-2.75,12-4.24s8-3.06,11.95-4.63,7.86-3.21,11.76-4.82c1.07-.47,2.17-.92,3.23-1.42,1.23-.59,2.47-1.16,3.69-1.78s2.38-1.22,3.56-1.84,2.14-1.18,3.2-1.77l1.76-1.05c.57-.35,1.12-.71,1.68-1.09s1-.67,1.55-1l2-1.47c.8-.63,1.6-1.25,2.37-1.91.46-.39.94-.77,1.38-1.18l1.37-1.27,1.16-1.21c.36-.37.68-.79,1-1.19s.65-.9.95-1.36.51-.81.76-1.22a5.57,5.57,0,0,1,.65-1,1,1,0,0,1,.56-.36.79.79,0,0,1,.93.8,1.9,1.9,0,0,1-.16.61c-.14.35-.31.69-.47,1s-.32.64-.5.95l-.41.71c-.19.32-.42.62-.62.92s-.57.74-.86,1.1-.65.75-1,1.12-.53.57-.81.84c-.43.42-.85.86-1.31,1.26-.79.69-1.58,1.39-2.39,2l-1.29,1.05c-.45.35-.92.67-1.37,1s-.66.51-1,.74l-1.61,1.08c-.91.63-1.87,1.19-2.81,1.77-.79.48-1.6.91-2.4,1.36s-1.89,1-2.83,1.52c-1.82,1-3.68,1.85-5.55,2.74-.9.43-1.83.82-2.75,1.22s-1.83.77-2.75,1.16l-5.42,2.23c-4,1.65-8,3.21-12,4.77l-2.4.93c-1,.39-2.06.79-3.11,1.17-2.21.79-4.43,1.58-6.66,2.35-3.9,1.37-7.82,2.69-11.73,4.05s-7.84,2.82-11.75,4.28C63.52,326,60,327.4,56.42,328.81c-3.84,1.53-7.67,3.08-11.4,4.65L41.4,335c-1.23.52-2.44,1.09-3.67,1.65-.5.22-1,.49-1.48.73l-2.07,1c-.54.26-1,.57-1.56.85l-1.84,1-3.14,1.88c-.39.23-.77.49-1.16.73l-1.9,1.21c-1.93,1.23-3.8,2.55-5.66,3.87-.12.09-.24.2-.36.28a6.26,6.26,0,0,1-.6.45l-.16.13c-.14.12-.29.23-.44.34l-.75.58c-.24.18-.47.39-.7.58l-1.48,1.25c-.31.26-.6.54-.9.82l-1.12,1c-.76.77-1.54,1.53-2.26,2.34-.37.41-.76.8-1.09,1.23l-1.32,1.66-1.19,1.71c-.14.2-.25.41-.37.62l-.68,1.11c-.27.52-.54,1-.82,1.56s-.52,1.11-.77,1.66a25.63,25.63,0,0,0-.86,2.51c-.09.31-.16.62-.22.94-.12.53-.19,1.08-.26,1.62v0c0,.44-.06.87-.06,1.3,0,.23,0,.47,0,.71a9.82,9.82,0,0,0,.14,1.27,7.74,7.74,0,0,0,.27,1.18c.07.22.14.43.16.52a8.22,8.22,0,0,0,.54,1.14,6.86,6.86,0,0,0,.63.92,8.13,8.13,0,0,0,.62.69,15.62,15.62,0,0,0,1.26,1.09c.53.37,1.06.72,1.61,1.05.8.44,1.6.83,2.43,1.19a42.58,42.58,0,0,0,4.24,1.38c1.39.35,2.8.63,4.2.94.19,0,.4.06.59.09l1.34.21,2.24.34,4.33.44c.37,0,.74.06,1.12.09l3.19.19c1.28.08,2.57.12,3.85.17s2.49.09,3.74.11l4.9.07c1.62,0,3.23,0,4.85,0,2.72,0,5.45-.05,8.1-.08h1.75L64,385.3l13.17-.24,5.39-.09c2,0,4-.07,6-.07,8.71,0,17.42,0,26.12,0l18.78-.22.79,0h1.59a5.74,5.74,0,0,1,.72,0h4.37l1.19,0h1q13-.24,26-.61c8.29-.23,16.57-.51,24.85-.77q13.23-.42,26.49-.76c8.37-.2,16.76-.34,25.13-.53q13.63-.33,27.28-.55c3.72-.06,7.44-.12,11.16-.13h14.4c7.32,0,14.63,0,21.95,0s14.8,0,22.06-.09c4.05-.08,8.11-.13,12.16-.27q6.4-.24,12.81-.55c4.27-.19,8.54-.32,12.82-.45q2.88-.09,5.76-.32c1.39-.11,2.78-.21,4.17-.36l.11,0,.47-.05a1,1,0,0,1-.08-.25,1.58,1.58,0,0,0,.17-.87,1.13,1.13,0,0,1,1.54-.29,1.84,1.84,0,0,1,.56.55,4.05,4.05,0,0,1,.21.35,3.14,3.14,0,0,1,.18.31s0,0,0,.06l-.09,1.7a1.33,1.33,0,0,1-.26.21,3.62,3.62,0,0,1-1.33.37c-.73.11-1.48.18-2.21.25l-2.91.25c-2,.16-3.95.28-5.92.34-4.22.13-8.45.25-12.67.44s-8.55.4-12.82.55c-8.45.3-16.91.33-25.36.36s-16.62,0-24.93,0c-4.81,0-9.62,0-14.42,0H288.1c-1.75,0-3.5,0-5.24,0l-8.45.1c-4.09.07-8.18.12-12.28.2l-14.41.32c-8,.18-16,.31-24,.5q-13.76.35-27.49.77c-8,.25-16,.54-23.93.76q-8.07.22-16.13.42c-4.33.1-8.66.21-12.95.27h-2.37c-.23,0-.46,0-.68,0h-.32c-.14,0-.28,0-.41,0h-.25a.43.43,0,0,1-.16,0l-.75,0h-4.44q-12.69.19-25.39.27c-4,0-8,0-12.06,0H88.94c-1.9,0-3.81,0-5.72.06l-3.59,0c-5.22.1-10.44.22-15.51.29l-7,.1-6.44.07c-1,0-1.94,0-2.91,0Z"/><path d="M390.25,379.39a1.8,1.8,0,0,1,.07-.31l.12-.05h0a.69.69,0,0,0,.24-.24,2,2,0,0,0,.15-1.15c0-.12,0-.24,0-.36l0-.1c.07-.62.13-1.24.16-1.86s.06-1.47.08-2.2,0-1.37.08-2.05l.15-2.18a.9.9,0,0,1,.82-.83.88.88,0,0,1,.94.82c0,1.11.1,2.22.1,3.28,0,.35,0,.71,0,.93,0,.6,0,1.2,0,1.79s0,1.23-.14,1.83c0,.32-.07.63-.14.94s-.16.69-.26,1a8.43,8.43,0,0,1-.33.83,1.43,1.43,0,0,1-.8.82.9.9,0,0,1-.28,0A.94.94,0,0,1,390.25,379.39Z"/><path d="M391.84,380.52a.77.77,0,0,1-.47-.41l-.05-.1a1.77,1.77,0,0,1,0-.2.58.58,0,0,1,0-.23,1.17,1.17,0,0,1,.18-.41l0-.11a3.12,3.12,0,0,0,.06-.37c.06-.56.05-1.12.06-1.68,0-1.53-.05-3.06-.1-4.59s-.07-3.33-.09-5a.78.78,0,1,1,1.56-.11c.17,2.44.32,4.87.39,7.27l0,1.4c0,.95,0,1.9,0,2.85V379c0,.14,0,.28-.08.42a1.55,1.55,0,0,1-.71,1.08,1.06,1.06,0,0,1-.45.11A.8.8,0,0,1,391.84,380.52Z"/><path d="M394,296.29a9.83,9.83,0,0,1-1.21-.19q-2.65-.54-5.32-1c-4.19-.69-8.4-1.27-12.58-1.8l-.1,0h0c-5.16-.61-10.32-1.11-15.48-1.57-5.42-.49-10.83-1-16.24-1.44-10.58-.9-21.16-1.85-31.74-2.76-10.83-.93-21.67-1.83-32.52-2.64q-8.74-.66-17.49-1.22c-5.06-.33-10.11-.67-15.18-1q-16.66-1-33.35-1.66c-5.31-.23-10.63-.35-15.94-.48-2.7-.06-5.41-.1-8.11-.15-1.45,0-2.9,0-4.35,0-1.2,0-2.39,0-3.59,0h-2.23c-2.84,0-5.68.08-8.53.14-2.69.05-5.38.15-8.07.24l-7.63.25-4,.12q-.81,0-1.62,0a1.85,1.85,0,0,1-1.5-.6,1.34,1.34,0,0,1-.12-.24,1,1,0,0,1,.38-1.11,1.15,1.15,0,0,1,.79-.17c.34,0,.67,0,1,0,1.28,0,2.55-.1,3.83-.15l4.11-.15,8-.29c5.4-.19,10.8-.27,16.2-.29s10.71,0,16,.16,10.48.26,15.71.48c5.7.25,11.41.51,17.1.79,5.37.27,10.73.57,16.09.86l7.38.47,8.11.52q8.75.57,17.5,1.22c10.82.81,21.64,1.71,32.46,2.64,10.61.91,21.23,1.86,31.85,2.77q8.09.69,16.16,1.43c5.14.46,10.29.93,15.41,1.58,3.6.46,7.2.94,10.8,1.51,1.68.27,3.36.54,5,.86l2,.39c.33.07.66.14,1,.19l.32,0,.42,0a1.78,1.78,0,0,1,1.14.21,1.18,1.18,0,0,1,.46.68,1.11,1.11,0,0,1-.17.83,1.08,1.08,0,0,1-.7.49,2.45,2.45,0,0,1-.54,0l-.64,0Z"/><path d="M148,280.66a1.82,1.82,0,0,1-.55-1.35,5.37,5.37,0,0,1,0-.8c0-.36,0-.72,0-1.09,0-.67.07-1.34.13-2s.13-1.48.21-2.22c.31-3,.61-6,1-9.06.18-1.4.35-2.81.54-4.21.25-1.82.51-3.63.76-5.44.21-1.56.46-3.1.69-4.65.18-1.17.36-2.34.55-3.5.33-1.95.65-3.89,1-5.84.21-1.22.44-2.45.66-3.67.29-1.57.57-3.14.85-4.71s.59-3,.88-4.48c1.16-6,2.39-11.88,3.65-17.81.6-2.81,1.2-5.63,1.82-8.44s1.29-5.8,1.93-8.7q2.22-10,4.43-20,1.81-8.25,3.56-16.51,2-9.6,4-19.2c1.22-5.77,2.43-11.54,3.68-17.3.58-2.69,1.16-5.38,1.76-8.07.68-3.06,1.33-6.12,2-9.17q1.17-5.11,2.35-10.19c.73-3.17,1.49-6.32,2.23-9.48,1.38-5.86,2.81-11.7,4.25-17.53s3-11.78,4.47-17.66,3-11.55,4.52-17.31c1-3.59,2-7.18,3-10.76Q203,17,203.69,14.6c.52-1.76,1-3.53,1.59-5.26.23-.67.45-1.35.63-1.89.34-1,.72-2.1,1.1-3.14S207.9,2.1,208.38,1a.88.88,0,0,1,1.67.55c-.45,1.41-.85,2.83-1.29,4.24s-.88,2.76-1.32,4.13c-.94,3-1.79,5.94-2.64,8.92-1.7,6-3.32,12-4.91,18-1.51,5.67-2.92,11.36-4.4,17-.78,3-1.52,6.08-2.29,9.11s-1.54,6.24-2.32,9.36c-.27,1.06-.51,2.13-.77,3.19l-1.44,6q-1.06,4.46-2.11,8.91-1.94,8.24-3.78,16.51c-.63,2.8-1.26,5.61-1.87,8.42q-1.09,5.11-2.21,10.22c-.26,1.21-.51,2.41-.76,3.62q-.67,3.17-1.33,6.33l-1.68,8-1.65,7.87c-.67,3.16-1.32,6.32-2,9.47q-2.1,9.69-4.22,19.38c-1.2,5.47-2.43,10.95-3.64,16.42-.66,3-1.34,5.93-2,8.9s-1.33,6.14-2,9.21q-.53,2.52-1,5c-.27,1.32-.56,2.63-.82,3.95-.54,2.84-1.12,5.69-1.66,8.53-.28,1.56-.57,3.13-.86,4.71-.22,1.22-.45,2.44-.66,3.67-.52,3.11-1.06,6.22-1.52,9.33-.94,6.21-1.84,12.42-2.52,18.66-.33,3-.67,5.92-.89,8.88,0,.48,0,1,0,1.45a4.17,4.17,0,0,1,0,1.06l0,.07v0a1,1,0,0,1-.89.59A1,1,0,0,1,148,280.66Z"/><path d="M391.42,380.29a.74.74,0,0,1-.59-.56,3.85,3.85,0,0,1,0-.83c0-.11,0-.23,0-.34a2.87,2.87,0,0,0,.05-.92c0-.67,0-1.34-.07-2,0-.5,0-1,0-1.51,0-2.15,0-4.3,0-6.45.08-3.31.24-6.62.42-9.94a.64.64,0,1,1,1.28,0c0,2.36-.07,4.73-.13,7.09-.05,2.09-.09,4.18-.09,6.28,0,1.51,0,3,0,4.53,0,.69,0,1.37,0,2.06,0,.34,0,.69,0,1,0,.17,0,.34,0,.51a3.53,3.53,0,0,1,0,.46.69.69,0,0,1-.65.57Z"/></g><path d="M110.46,381.14h0Z"/><path class="cls-6" d="M128.53,382.39v-.09a.13.13,0,0,0,0-.06c0-.1,0-.2,0-.3h0c0-.16,0-.3,0-.45a2.36,2.36,0,0,1,0-.28.11.11,0,0,0,0,0v-.06c-.14-1-.39-2-.57-3s-.34-2-.49-3v0s0,0,0,0c-.06-.52-.11-1.07-.15-1.61s-.07-1-.07-1.54v-.07h0v-.42c0-.73,0-1.46.14-2.19,0-.2.06-.4.1-.61l0-.25a1.57,1.57,0,0,1,0-.23c0-.13,0-.25.07-.37s.11-.38.17-.56l.1-.28a2.31,2.31,0,0,1,.1-.28,4,4,0,0,1,.2-.42l.17-.29.23-.27.2-.18.18-.12.18-.08a2.42,2.42,0,0,1,.35-.12l.34-.07.34,0,.33,0a2.73,2.73,0,0,0-.25.23c-.11.11-.21.22-.31.34s-.28.44-.41.67-.19.43-.28.64a20,20,0,0,0-.57,1.93c-.11.48-.19,1-.25,1.31-.11,1.1-.2,2.2-.24,3.3,0,.52,0,1,0,1.56s0,1.15,0,1.67v.1h0c0,.46,0,.93.08,1.39s.11,1.08.17,1.62c.11.93.18,1.86.22,2.8A1.18,1.18,0,0,0,128.53,382.39Z"/><path class="cls-6" d="M142.27,392.49a1.8,1.8,0,0,0-.05-.19h0V392l0-.26a5,5,0,0,0-.35-1.33c-.15-.38-.3-.76-.46-1.13-.09-.22-.18-.43-.28-.64s-.18-.43-.28-.64l-.72-1.6-.3-.69-.6-1.53h0c-.12-.74-.28-1.48-.39-2.22-.14-.9-.22-1.8-.34-2.7s-.33-1.89-.49-2.84-.29-2-.42-2.95c0-.16-.05-.32-.07-.47-.25-1.46-.6-2.9-1-4.33a12.9,12.9,0,0,0-.48-1.36q-.16-.35-.36-.69c-.12-.17-.24-.35-.37-.51s-.39-.43-.59-.64l-.39-.3c-.12-.08-.24-.16-.37-.23h0c0-.07-.11-.13-.17-.2l-.27-.29-.29-.25a5.07,5.07,0,0,0-1.42-.87,5,5,0,0,0-1.79-.31h-.17a4,4,0,0,1,2.46-.55,7.83,7.83,0,0,1,1.51.33,5.66,5.66,0,0,1,1.36.59,7.62,7.62,0,0,1,3.07,4.3c.26.87.47,1.75.68,2.63s.38,1.73.49,2.48.21,1.54.31,2.29c.16,1,.35,2,.53,3.06s.28,2.1.41,3.15c.1.67.22,1.34.35,2s.21,1.39.29,2,.23,1.17.38,1.75l.27,1.08-.14.29,0,.07.15.44a12.26,12.26,0,0,1,.51,2.55,22.14,22.14,0,0,1,.08,2.57C142.45,393.54,142.37,393,142.27,392.49Z"/><polygon points="124.34 74.71 124.34 74.71 124.35 74.72 124.34 74.71"/><path d="M122.38,73.18h0Z"/><path d="M123.41,74Z"/></svg>