<svg id="Layer_1" data-name="Layer 1" xmlns="http://www.w3.org/2000/svg" viewBox="0 0 53.96 137.92"><defs><style>.cls-1,.cls-2{fill:#f3f1dd;}.cls-2,.cls-3,.cls-4{stroke:#000;stroke-linecap:round;stroke-linejoin:round;stroke-width:2px;}.cls-3{fill:none;}.cls-4,.cls-6{fill:#f1b0b0;}.cls-5{fill:#dc5632;}</style></defs><path class="cls-1" d="M53,48v67.79c0,4-3.9,11.93-5.79,15.49-1.56,2.93-3.69,5.69-6.15,5.69h-3a6.63,6.63,0,0,1-5.28-2.63l-2.83-7.67a3.73,3.73,0,0,0-5.93,0l-3.08,7.67a6.64,6.64,0,0,1-5.27,2.63H13.1c-2.43,0-4.46-2.19-6-4.74C4.8,128.4,1,120.12,1,115.71V48C1,40.3,7.26,29.59,16.28,25.51,17.42,25,19,11.05,19,11.05H34.93S36.53,25,37.67,25.51C46.68,29.59,53,37.42,53,48Z"/><path class="cls-2" d="M53,48v67.44c0,4-3.9,12.28-5.79,15.84-1.56,2.93-3.69,5.69-6.15,5.69h-3a6.63,6.63,0,0,1-5.28-2.63l-2.83-7.67a3.73,3.73,0,0,0-5.93,0l-3.08,7.67a6.64,6.64,0,0,1-5.27,2.63H13.1c-2.43,0-4.46-2.19-6-4.74C4.8,128.4,1,119.76,1,115.35V48C1,40.3,7.26,29.59,16.28,25.51,17.42,25,19,11.05,19,11.05H34.93S36.53,25,37.67,25.51C46.68,29.59,53,37.42,53,48Z"/><path class="cls-3" d="M53,51.39V95a16,16,0,0,1-.09,1.7,16.8,16.8,0,0,1-16.71,15.1H1V68.19a16.8,16.8,0,0,1,16.8-16.8Z"/><path class="cls-4" d="M52.87,96.65a16.8,16.8,0,0,1-16.71,15.1H1V96.65Z"/><path class="cls-2" d="M36.23,17.8H17.72a1.8,1.8,0,0,1-1.94-1.59,1.79,1.79,0,0,1,1.94-1.59H36.23a1.79,1.79,0,0,1,1.94,1.59A1.8,1.8,0,0,1,36.23,17.8Z"/><path class="cls-5" d="M36.81,11.05H17.14V2.63A1.63,1.63,0,0,1,18.78,1h16.4a1.63,1.63,0,0,1,1.63,1.63Z"/><path class="cls-3" d="M36.81,11.05H17.14V2.63A1.63,1.63,0,0,1,18.78,1h16.4a1.63,1.63,0,0,1,1.63,1.63Z"/><rect class="cls-3" x="17.14" y="7.67" width="19.67" height="3.38"/><path class="cls-6" d="M10.06,40.9a18.16,18.16,0,0,0,2.57-4.42,1.32,1.32,0,0,1,.56-.82,1.24,1.24,0,0,1,.92.12A42.47,42.47,0,0,0,35,38.8c.44,1.14-.71,3.68-.71,3.68a6,6,0,0,1-3.07.45c-2.29,0-6.2,0-9.56,0C19.3,42.88,9.11,42.21,10.06,40.9Z"/><path class="cls-6" d="M39.29,38.28a5.92,5.92,0,0,0,3.13-.94c.11-.05.24-.1.33,0a.31.31,0,0,1,.09.21l.73,3.71s0,.07,0,.1-.1.07-.17.06c-1.13,0-4.52,1.28-5.19,1.2C38.63,42.05,39.29,38.28,39.29,38.28Z"/></svg>