<svg width="82" height="194" viewBox="0 0 82 194" fill="none" xmlns="http://www.w3.org/2000/svg">
<path d="M39.7894 186.046C59.5992 186.046 75.6582 181.597 75.6582 176.11C75.6582 170.622 59.5992 166.174 39.7894 166.174C19.9796 166.174 3.92065 170.622 3.92065 176.11C3.92065 181.597 19.9796 186.046 39.7894 186.046Z" fill="#2D6076"/>
<path d="M67.4382 77.0555C65.4455 71.9781 64.4492 70.284 60.4637 66.9007C57.6441 64.506 53.4893 62.3896 51.9947 61.083C50.5002 59.7764 50.5002 56.1795 50.5002 53.924V33.0529C50.5002 32.4865 51.4965 32.4865 51.4965 31.9251V24.0258C51.4965 23.4595 51.9947 23.4595 51.9947 22.3317C51.9947 21.2039 51.4965 21.7653 51.4965 20.6376C51.4965 19.5098 51.4965 14.4324 50.9984 12.1769C50.5002 9.92135 40.0385 9.35498 40.0385 9.35498C40.0385 9.35498 29.5767 9.92135 29.0786 12.1769C28.5804 14.4324 28.5804 19.5098 28.5804 20.6376C28.5804 21.7653 28.0822 21.2039 28.0822 22.3317C28.0822 23.4595 28.5804 23.4595 28.5804 24.0258V31.9251C28.5804 32.4915 29.5767 32.4915 29.5767 33.0529V53.924C29.5767 56.1795 29.5767 59.7764 28.0822 61.083C26.5877 62.3896 22.4329 64.506 19.6132 66.9007C15.6278 70.284 14.6314 71.9781 12.6387 77.0555C10.91 81.4573 10.646 83.2607 10.646 88.3381V167.873C10.646 171.256 11.6423 175.772 16.1259 177.461C20.6095 179.155 40.0385 180.576 40.0385 180.576C40.0385 180.576 59.4674 179.15 63.951 177.461C68.4346 175.767 69.4309 171.256 69.4309 167.873V88.3381C69.4309 83.2607 69.1669 81.4622 67.4382 77.0555Z" fill="#D2D4D3"/>
<path d="M40.0384 181.331H39.9836C39.1865 181.267 20.3953 179.876 15.8619 178.167C10.6758 176.209 9.89868 170.879 9.89868 167.878V88.3432C9.89868 83.2758 10.1378 81.3829 11.9412 76.7924C13.9837 71.5808 15.0449 69.8072 19.1249 66.3444C20.7639 64.9533 22.7815 63.6914 24.565 62.5736C25.8653 61.7638 26.9862 61.0583 27.589 60.5317C28.8294 59.4487 28.8294 55.8617 28.8294 53.9341V33.217C28.7896 33.1922 28.7447 33.1673 28.7099 33.1475C28.406 32.9736 27.8331 32.6506 27.8331 31.9352V24.0359C27.8281 24.0061 27.7882 23.9415 27.7583 23.9018C27.5441 23.559 27.3349 23.1516 27.3349 22.3468C27.3349 21.6413 27.4993 21.3134 27.7683 21.0103C27.7833 20.9954 27.7932 20.9805 27.8082 20.9656C27.8082 20.9656 27.8331 20.8911 27.8331 20.6576C27.8331 16.544 28.0124 13.5631 28.3512 12.0379C28.9091 9.50419 36.6857 8.81362 39.9986 8.63477H40.0384H40.0783C43.3961 8.81362 51.1677 9.50419 51.7257 12.0379C52.0644 13.5681 52.2438 16.549 52.2438 20.6576C52.2438 20.901 52.2736 20.9756 52.2736 20.9756C52.2786 20.9805 52.2936 20.9954 52.3085 21.0103C52.5775 21.3134 52.7419 21.6463 52.7419 22.3468C52.7419 23.1516 52.5327 23.559 52.3185 23.9018C52.2886 23.9465 52.2537 24.0061 52.2438 24.026V31.9352C52.2438 32.6506 51.6758 32.9736 51.367 33.1475C51.3321 33.1673 51.2873 33.1922 51.2474 33.217V53.9341C51.2474 55.8617 51.2474 59.4487 52.4879 60.5317C53.0907 61.0583 54.2116 61.7588 55.5118 62.5736C57.2953 63.6865 59.3129 64.9533 60.9519 66.3444C65.032 69.8122 66.0931 71.5858 68.1356 76.7924C69.939 81.3879 70.1781 83.2758 70.1781 88.3432V167.878C70.1781 170.879 69.406 176.204 64.215 178.167C59.6815 179.876 40.8903 181.272 40.0932 181.331H40.0384ZM29.3276 31.7763C29.3675 31.8011 29.4123 31.8259 29.4472 31.8458C29.756 32.0197 30.324 32.3426 30.324 33.058V53.9291C30.324 56.3933 30.324 60.1194 28.5753 61.6495C27.8829 62.2557 26.7171 62.986 25.3621 63.8305C23.6235 64.9186 21.6507 66.1507 20.0964 67.4722C16.1807 70.7958 15.2641 72.4055 13.3311 77.3289C11.6822 81.5369 11.3882 83.1814 11.3882 88.3383V167.873C11.3882 170.491 12.0359 175.126 16.385 176.766C20.5995 178.356 38.8876 179.747 40.0334 179.831C41.1792 179.747 59.4623 178.356 63.6819 176.766C68.031 175.126 68.6786 170.491 68.6786 167.873V88.3383C68.6786 83.1814 68.3897 81.5319 66.7357 77.3289C64.8028 72.4055 63.8862 70.7958 59.9705 67.4722C58.4162 66.1507 56.4434 64.9186 54.7048 63.8305C53.3547 62.986 52.184 62.2557 51.4915 61.6495C49.7429 60.1243 49.7429 56.3982 49.7429 53.9291V33.058C49.7429 32.3426 50.3108 32.0197 50.6197 31.8458C50.6546 31.8259 50.6994 31.8011 50.7393 31.7763V24.031C50.7393 23.5838 50.9186 23.2957 51.0382 23.1069C51.1478 22.928 51.2374 22.7889 51.2374 22.3418C51.2374 22.0984 51.2075 22.0238 51.2075 22.0238C51.2026 22.0189 51.1876 22.004 51.1727 21.9891C50.9037 21.686 50.7393 21.3531 50.7393 20.6477C50.7393 16.698 50.5699 13.7519 50.261 12.3459C50.0667 11.4567 45.1945 10.3935 40.0284 10.1103C34.8673 10.3935 29.9952 11.4567 29.7959 12.3459C29.487 13.7519 29.3176 16.698 29.3176 20.6477C29.3176 21.3531 29.1532 21.681 28.8842 21.9891C28.8693 22.004 28.8593 22.0189 28.8444 22.0338C28.8444 22.0338 28.8195 22.1083 28.8195 22.3418C28.8195 22.7889 28.9091 22.933 29.0187 23.1069C29.1383 23.2957 29.3176 23.5838 29.3176 24.031V31.7763H29.3276Z" fill="black"/>
<path d="M29.8558 39.5661C29.8558 39.5661 38.0458 38.7464 41.0349 39.2432C44.024 39.74 50.4006 39.7649 50.4006 39.7649L50.5003 33.0629L51.4966 31.9351V24.0358L51.9948 22.3417L51.4966 20.6475L50.9984 12.1868L42.4447 9.98596C40.8655 9.57857 39.2116 9.57857 37.6323 9.98596L29.0786 12.1868L28.0823 22.3417L28.9541 25.5759L28.5805 31.9301L29.5768 33.0579L29.8558 39.5661Z" fill="#725D2D"/>
<path d="M51.1329 40.5102H50.3955C50.1315 40.5102 43.9242 40.4754 40.9103 39.9737C38.0557 39.4967 30.0101 40.2966 29.9304 40.3065L29.1433 40.386L28.8394 33.3512L27.8132 32.1886L28.2017 25.6456L27.325 22.3965L28.3861 11.5908L37.4429 9.26076C39.1417 8.82356 40.9352 8.82356 42.629 9.26076L51.7107 11.5958L52.2338 20.5135L52.7719 22.3368L52.2438 24.1353V32.2085L51.2424 33.3412L51.1329 40.5052V40.5102ZM38.2649 38.3342C39.4008 38.3342 40.422 38.3789 41.1593 38.5031C43.4609 38.8856 47.9096 38.985 49.6632 39.0049L49.7579 32.7699L50.7493 31.6471V23.9217L51.2175 22.3368L50.7542 20.6874L50.2859 12.7682L42.2603 10.7015C40.8106 10.3289 39.2712 10.3289 37.8215 10.7015L29.776 12.7732L28.8444 22.2723L29.7162 25.4916L29.3525 31.662L30.319 32.76L30.5781 38.7465C32.1025 38.6074 35.515 38.3342 38.2749 38.3342H38.2649Z" fill="black"/>
<path d="M36.0231 10.3289L35.0566 44.8126C35.0566 44.8126 37.5475 45.8062 39.5402 45.8062C41.5329 45.8062 45.5184 44.8126 45.5184 44.8126L44.8608 10.2345L40.0384 9.29053L36.0231 10.3289Z" fill="#F1B0B0"/>
<path d="M39.5402 46.5514C37.428 46.5514 34.8873 45.5478 34.7777 45.5031L34.2944 45.3093L35.2908 9.74755L40.0185 8.52539L45.5981 9.61838L46.2806 45.3888L45.7027 45.5329C45.5383 45.5726 41.6027 46.5464 39.5452 46.5464L39.5402 46.5514ZM35.8189 44.2958C36.606 44.5691 38.2151 45.0609 39.5402 45.0609C40.98 45.0609 43.6004 44.4946 44.7611 44.2263L44.1235 10.8505L40.0633 10.0556L36.7554 10.9101L35.8238 44.2958H35.8189Z" fill="black"/>
<path d="M43.4211 66.8212C43.8197 66.1306 44.6666 65.8425 45.4039 66.1455C47.7054 67.0994 52.473 69.4146 55.0536 73.0959C57.395 76.4295 59.0589 80.881 59.9058 83.4495C60.2396 84.468 59.4774 85.5162 58.4013 85.5162H54.4308C53.5341 85.5162 52.7918 84.776 52.8267 83.8817C52.8765 82.6148 52.6772 80.6475 51.5663 78.0641C50.0718 74.5864 48.0791 73.5927 46.5845 72.1023C45.5832 71.1037 44.4125 70.3386 43.5207 69.8319C42.7585 69.3997 42.4895 68.4358 42.9279 67.6757L43.4211 66.8162V66.8212Z" fill="#F3F1DD"/>
<path d="M55.0885 69.539C55.0736 69.1067 55.512 68.8086 55.9105 68.9825C57.0812 69.4942 59.1437 70.4978 60.0354 71.6107C61.4253 73.3396 62.5711 75.5504 63.1391 76.7378C63.3234 77.1253 63.0394 77.5724 62.611 77.5724H59.9706C59.7166 77.5724 59.4924 77.4134 59.4127 77.17C59.054 76.072 58.0028 73.0614 57.0264 72.2317C56.314 71.6256 55.786 71.3175 55.4721 71.1735C55.2728 71.0791 55.1383 70.8853 55.1333 70.6617L55.0935 69.539H55.0885Z" fill="#F3F1DD"/>
<path d="M10.8801 92.9038C10.8801 92.9038 25.7706 95.4574 41.3736 95.4574C56.9765 95.4574 69.4608 92.9038 69.4608 92.9038V140.17C69.4608 140.17 51.9399 143.151 41.3736 142.655C30.8072 142.158 10.8801 139.892 10.8801 139.892V92.9038Z" fill="#DC5632"/>
<path d="M43.8893 143.454C43.0026 143.454 42.1507 143.435 41.3386 143.4C30.867 142.908 10.9947 140.657 10.7954 140.638L10.1328 140.563V92.0245L11.0046 92.1736C11.1541 92.1984 26.0197 94.7123 41.3735 94.7123C56.7273 94.7123 69.1868 92.2034 69.3113 92.1736L70.208 91.9897V140.797L69.5853 140.901C69.4209 140.931 54.4706 143.449 43.8893 143.449V143.454ZM11.6273 139.227C15.1744 139.619 32.0676 141.467 41.4084 141.909C50.6645 142.347 65.5102 140.056 68.7135 139.54V93.8081C65.565 94.3794 54.5055 96.2027 41.3735 96.2027C28.2416 96.2027 15.0548 94.3198 11.6273 93.7832V139.232V139.227Z" fill="black"/>
<path d="M23.0557 118.738C23.26 117.466 23.7831 116.155 24.7794 115.335C24.884 115.245 24.9488 115.325 24.8292 115.29C24.6848 115.245 24.8691 115.39 24.8292 115.325C24.9837 115.588 25.1082 115.857 25.2029 116.145C25.447 116.89 25.5217 117.625 25.4619 118.405C25.4171 119.006 26.0099 119.523 26.5828 119.523C27.2304 119.523 27.6539 119.011 27.7037 118.405C27.8382 116.845 27.9727 115.29 28.1072 113.73C28.172 112.96 28.2517 112.185 28.3065 111.415C28.3563 110.69 28.3015 109.939 27.903 109.304C27.2155 108.196 25.7658 107.818 24.5502 108.131C23.2052 108.474 22.2736 109.646 21.6259 110.799C20.9185 112.056 22.8564 113.184 23.5639 111.927C23.9674 111.206 24.4954 110.411 25.2626 110.262C25.0684 110.302 25.6761 110.272 25.4769 110.248C25.5715 110.257 25.6662 110.287 25.7558 110.312C25.8654 110.347 25.6861 110.267 25.8505 110.352C26.0149 110.436 25.8555 110.337 25.9352 110.406C25.99 110.456 26.0647 110.6 26.0049 110.481C26.0946 110.655 26.0896 110.819 26.0896 111.013C26.0747 112.215 25.8953 113.432 25.7907 114.629C25.6811 115.886 25.5715 117.148 25.4669 118.405H27.7087C27.8532 116.552 27.1806 112.742 24.5901 113.089C23.4244 113.248 22.6074 114.212 22.0195 115.151C21.4317 116.09 21.063 117.089 20.8986 118.142C20.804 118.738 21.053 119.344 21.6807 119.518C22.2138 119.662 22.966 119.339 23.0607 118.738H23.0557Z" fill="#F3F1DD"/>
<path d="M25.7209 121.729C25.7557 121.58 25.681 121.808 25.6661 121.838C25.6212 121.918 25.5664 121.987 25.4867 122.032C25.407 122.087 25.3921 122.102 25.4419 122.072C25.5515 122.007 25.2077 122.161 25.3323 122.126C25.4668 122.087 25.0732 122.181 25.2127 122.146C25.2426 122.146 25.2725 122.146 25.3024 122.146L25.128 122.126C25.2725 122.156 25.0683 122.097 25.0334 122.077C25.1629 122.151 24.9836 122.027 24.9587 122.002C25.1031 122.146 24.864 121.838 24.9387 121.972C25.0085 122.097 24.9088 121.803 24.9288 121.943C24.9387 121.972 24.9437 121.997 24.9537 122.027C24.9736 122.111 24.9686 122.082 24.9537 121.948C24.9985 121.987 24.9587 122.251 24.9537 122.31C24.9487 122.37 24.9437 122.434 24.9387 122.494C24.9138 122.792 24.9686 122.32 24.9387 122.524C24.9088 122.693 24.8889 122.857 24.859 123.026C24.6448 124.327 24.3509 125.614 23.9872 126.886C23.8278 127.447 24.1815 128.128 24.7693 128.262C25.3572 128.396 25.9749 128.083 26.1493 127.482C26.3934 126.632 26.6076 125.768 26.787 124.904C26.9663 124.039 27.1805 123.115 27.2054 122.226C27.2303 121.267 26.767 120.273 25.7856 119.99C24.8839 119.727 23.783 120.159 23.5588 121.138C23.4292 121.704 23.7331 122.375 24.3409 122.514C24.9138 122.643 25.5814 122.345 25.7209 121.734V121.729Z" fill="#F3F1DD"/>
<path d="M33.6119 110.456C33.7365 110.496 33.7415 110.491 33.6169 110.446C33.7265 110.516 33.7265 110.511 33.6169 110.436C33.7016 110.531 33.7066 110.526 33.6319 110.426C33.6717 110.481 33.7066 110.536 33.7365 110.595C33.7913 110.71 33.7963 110.714 33.7514 110.605C33.7714 110.655 33.7863 110.705 33.8012 110.754C33.8361 110.873 33.861 110.993 33.8909 111.112C33.9108 111.246 33.9158 111.251 33.9009 111.127C33.9108 111.196 33.9158 111.266 33.9208 111.335C33.9357 111.514 33.9357 111.693 33.9407 111.867C33.9407 112.205 33.9308 112.538 33.9059 112.871C33.856 113.526 33.7365 114.177 33.5571 114.838C33.4675 115.161 33.3678 115.484 33.2532 115.797C33.2034 115.931 33.1536 116.075 33.0988 116.199C33.059 116.289 33.0241 116.373 32.9792 116.463C32.8497 116.681 32.9494 116.627 33.2732 116.309H33.871C34.0952 116.487 34.14 116.502 34.0055 116.363C33.9607 116.314 33.9208 116.259 33.881 116.209C33.8262 116.14 33.7664 116.055 33.6916 115.956C33.5372 115.737 33.3878 115.514 33.2433 115.285C32.9344 114.793 32.6604 114.277 32.4313 113.745C32.0526 112.871 31.7189 111.609 31.6142 110.695C31.5445 110.093 31.146 109.577 30.4933 109.577C29.9404 109.577 29.3027 110.088 29.3724 110.695C29.6714 113.308 30.6528 115.956 32.4263 117.943C33.1038 118.703 34.2446 118.654 34.8125 117.789C35.1862 117.223 35.4054 116.492 35.6046 115.847C36.0131 114.52 36.2124 113.104 36.1825 111.718C36.1526 110.332 35.7242 108.727 34.2097 108.295C32.8198 107.898 32.227 110.054 33.6119 110.451V110.456Z" fill="#F3F1DD"/>
<path d="M37.6225 110.019C37.8168 110.069 37.9114 110.133 38.011 110.292C38.1406 110.491 38.1904 110.68 38.2153 110.899C38.3 111.539 38.1954 112.22 38.0758 112.831C37.7968 114.197 37.2339 115.434 36.4219 116.567C36.098 117.014 36.3023 117.705 36.7108 118.008C37.1791 118.356 37.747 118.291 38.1804 117.918C39.0871 117.143 40.0635 116.354 41.2592 116.1C41.6976 116.006 42.2057 116.016 42.669 116.17C42.7886 116.209 42.8185 116.224 42.948 116.299C43.0078 116.334 43.0626 116.368 43.1223 116.403C43.0626 116.349 43.0825 116.368 43.1821 116.458C43.1522 116.398 43.1572 116.403 43.1921 116.468C43.2618 116.592 43.2519 116.532 43.1622 116.279C43.1771 116.016 43.5358 115.762 43.7849 115.812C43.8646 115.827 44.1287 116.021 44.0589 116.021C44.024 116.021 44.0091 115.777 44.0091 115.777C43.9742 115.434 44.0091 115.072 44.029 114.729C44.0639 114.108 44.1436 113.497 44.2681 112.891C44.5372 111.569 44.9706 110.297 45.5883 109.1C45.8673 108.563 45.7278 107.888 45.1848 107.57C44.6816 107.277 43.9294 107.431 43.6504 107.972C42.9231 109.383 42.3751 110.889 42.0712 112.449C41.9168 113.253 41.8121 114.068 41.7773 114.888C41.7424 115.658 41.7125 116.503 42.1609 117.168C42.679 117.943 43.7152 118.286 44.5571 117.829C45.404 117.367 45.5883 116.259 45.1848 115.449C44.5023 114.083 42.6142 113.676 41.2293 113.85C39.401 114.083 37.9513 115.166 36.5912 116.329C37.1791 116.781 37.7669 117.233 38.3498 117.685C39.4259 116.195 40.1133 114.446 40.3624 112.627C40.487 111.708 40.5717 110.715 40.2479 109.825C39.9091 108.886 39.2067 108.101 38.2103 107.853C36.8104 107.505 36.2126 109.661 37.6125 110.009L37.6225 110.019Z" fill="#F3F1DD"/>
<path d="M43.6005 104.579C43.3066 104.673 43.0127 104.763 42.7138 104.842C42.5643 104.882 42.4149 104.917 42.2654 104.947C42.1907 104.962 42.116 104.976 42.0412 104.986C42.1508 104.976 42.1359 104.976 41.9964 104.986C41.842 104.996 41.6925 105.006 41.5381 105.001C41.4633 105.001 41.3836 104.996 41.3089 104.986C41.4334 105.006 41.4384 105.006 41.3189 104.986C41.2043 104.962 41.0947 104.927 40.9801 104.897C40.8605 104.852 40.8705 104.857 41 104.912C40.9452 104.887 40.8954 104.862 40.8406 104.832C40.736 104.778 40.6413 104.713 40.5467 104.649C40.7759 104.812 40.4969 104.579 40.452 104.539C40.2727 104.37 40.5367 104.713 40.4221 104.499C40.3923 104.455 40.3624 104.405 40.3375 104.355C40.3923 104.494 40.3972 104.509 40.3524 104.39C40.3325 104.336 40.3225 104.281 40.3076 104.226C40.3225 104.38 40.3275 104.395 40.3175 104.271C40.3175 104.216 40.3175 104.157 40.3175 104.102C40.2926 104.261 40.2926 104.276 40.3175 104.152C40.3424 104.072 40.4869 103.789 40.3474 104.023C40.4072 103.923 40.457 103.824 40.5268 103.729C40.3574 103.958 40.6015 103.68 40.6413 103.635C40.736 103.556 40.731 103.56 40.6164 103.645C40.6663 103.61 40.7111 103.58 40.7609 103.551C40.8107 103.521 40.8605 103.491 40.9153 103.466C40.7808 103.521 40.7709 103.521 40.8855 103.481C41.01 103.446 41.1296 103.411 41.2541 103.392C40.9851 103.436 41.3836 103.397 41.4434 103.397C41.5032 103.397 41.7872 103.431 41.5331 103.392C41.7921 103.431 42.0512 103.506 42.2953 103.605C42.0661 103.511 42.4398 103.685 42.4746 103.705C42.5942 103.769 42.7088 103.839 42.8184 103.918C42.8782 103.958 42.933 103.998 42.9927 104.042C42.9081 103.973 42.913 103.983 43.0177 104.062C43.1223 104.157 43.2319 104.246 43.3365 104.34C43.75 104.728 44.1186 105.16 44.4873 105.592C44.8559 106.025 45.6829 106.015 46.0715 105.592C46.5099 105.116 46.48 104.49 46.0715 104.013C45.3342 103.148 44.5471 102.264 43.5208 101.727C42.4298 101.156 41.1495 100.957 39.9937 101.444C38.9027 101.906 38.0558 103.019 38.0708 104.226C38.0857 105.433 38.8878 106.417 39.9439 106.874C41.3438 107.48 42.7885 107.162 44.1884 106.72C44.7463 106.541 45.1648 105.935 44.9705 105.344C44.7912 104.788 44.1884 104.375 43.5906 104.564L43.6005 104.579Z" fill="#F3F1DD"/>
<path d="M50.7146 112.19C50.8291 112.955 50.7046 113.77 50.4356 114.52C50.316 114.858 50.1367 115.181 49.9374 115.484C49.8228 115.658 49.7182 115.767 49.5887 115.921C49.4592 116.075 49.489 115.941 49.6236 116.035C49.4691 115.931 49.6236 116.065 49.6136 116.035L49.6833 116.085L49.6136 116.011L49.6684 116.065C49.6136 115.961 49.6036 115.936 49.6285 116.006C49.6584 116.125 49.5937 115.901 49.5837 115.877C49.5638 115.802 49.489 115.4 49.504 115.554C49.4791 115.33 49.4791 115.106 49.4791 114.888C49.4741 114.008 49.5538 113.159 49.8228 112.319C50.0669 111.539 50.4406 110.928 51.0284 110.422C51.2028 110.272 51.5316 110.069 51.8155 109.935C51.8703 109.91 52.0447 109.845 52.1991 109.8C52.2788 109.776 52.3585 109.761 52.4432 109.741C52.777 109.666 52.2938 109.736 52.6375 109.711C53.2702 109.666 53.7883 109.835 54.1869 110.218C54.6452 110.655 54.8893 111.187 55.0338 111.882C55.0387 111.917 55.0836 112.17 55.0636 112.011C55.0786 112.136 55.0886 112.26 55.0935 112.379C55.1035 112.583 55.0985 112.786 55.0836 112.99C55.0437 113.452 54.9142 113.914 54.7598 114.351C54.411 115.37 53.8531 116.304 53.3101 117.228C52.5827 118.475 54.5206 119.603 55.248 118.356C56.5034 116.199 57.7239 113.85 57.1958 111.281C56.7475 109.095 54.8644 107.252 52.518 107.48C50.047 107.724 48.2536 109.612 47.601 111.927C47.2871 113.045 47.1775 114.272 47.2572 115.429C47.3369 116.587 47.7903 117.849 49.0307 118.182C50.5701 118.594 51.7308 117.054 52.2938 115.842C52.9215 114.485 53.0958 113.06 52.8767 111.589C52.787 110.993 52.0298 110.66 51.4967 110.809C50.8541 110.983 50.6249 111.584 50.7146 112.185V112.19Z" fill="#F3F1DD"/>
<path d="M68.6986 93.813L68.7086 139.52L64.3645 140.195L64.4243 94.4936L68.6986 93.813Z" fill="#F3F1DD"/>
<path d="M11.6125 93.7832V95.532C11.6125 95.532 26.8618 97.4348 37.9362 97.6385C49.0107 97.8422 64.6186 95.994 64.6186 95.994L64.4243 94.4936C64.4243 94.4936 48.5474 96.5604 40.2029 96.1977C23.4243 95.4724 11.6125 93.7832 11.6125 93.7832Z" fill="#F3F1DD"/>
<path d="M11.6174 137.587L11.6274 139.232C11.6274 139.232 18.831 140.037 26.1642 140.727C33.1487 141.388 40.3224 141.905 41.5928 141.984C48.5324 142.436 64.6285 140.171 64.6285 140.171L64.7182 138.367C64.7182 138.367 51.6759 140.459 41.7771 140.285C36.0481 140.186 11.6224 137.582 11.6224 137.582L11.6174 137.587Z" fill="#F3F1DD"/>
<path d="M32.0876 131.998C32.0876 131.998 36.3868 129.529 39.3062 126.742C40.7608 125.351 42.8332 123.448 42.3899 124.501C42.0661 125.271 41.2192 125.773 40.2029 126.662C34.962 131.263 34.2048 132.912 31.968 133.131C31.156 133.21 31.1161 132.564 32.0876 131.998Z" fill="#F09B5C"/>
<path d="M33.5623 133.21C33.5623 133.21 34.4042 132.366 36.1179 132.256C37.8316 132.147 38.2302 132.291 38.2302 132.291C38.2302 132.291 37.5277 133.23 36.8901 133.543C36.1279 133.916 35.9286 134.02 34.9123 133.95C33.7665 133.876 33.5623 133.21 33.5623 133.21Z" fill="#F09B5C"/>
<path d="M32.2072 131.387C32.2072 131.387 33.1587 130.662 33.4875 128.982C33.8163 127.303 33.7267 126.891 33.7267 126.891C33.7267 126.891 32.7004 127.467 32.3068 128.053C31.8386 128.759 31.709 128.943 31.6443 129.956C31.5695 131.099 32.2072 131.387 32.2072 131.387Z" fill="#F09B5C"/>
<path d="M36.6859 130.687C36.6859 130.687 37.8118 129.867 39.7995 130.056C41.7872 130.239 42.2206 130.478 42.2206 130.478C42.2206 130.478 41.2392 131.432 40.4521 131.67C39.5106 131.963 39.2615 132.043 38.1007 131.78C36.8005 131.486 36.6809 130.682 36.6809 130.682L36.6859 130.687Z" fill="#F09B5C"/>
<path d="M35.3807 129.226C35.3807 129.226 36.4667 128.093 36.5663 125.847C36.666 123.602 36.4567 123.085 36.4567 123.085C36.4567 123.085 35.2412 124.034 34.8476 124.874C34.3793 125.882 34.2498 126.146 34.3644 127.477C34.4989 128.972 35.3807 129.226 35.3807 129.226Z" fill="#F09B5C"/>
<path d="M39.0522 128.337C39.0522 128.337 40.1731 127.547 42.131 127.76C44.0888 127.974 44.5123 128.217 44.5123 128.217C44.5123 128.217 43.5309 129.141 42.7537 129.37C41.8221 129.643 41.573 129.718 40.4372 129.444C39.1569 129.136 39.0572 128.342 39.0572 128.342L39.0522 128.337Z" fill="#F09B5C"/>
<path d="M41.7173 126.26C41.7173 126.26 42.5592 125.415 44.2729 125.306C45.9867 125.197 46.3852 125.341 46.3852 125.341C46.3852 125.341 45.6828 126.28 45.0451 126.593C44.2829 126.965 44.0836 127.07 43.0673 127C41.9215 126.925 41.7173 126.26 41.7173 126.26Z" fill="#F09B5C"/>
<path d="M42.5444 123.815C42.5444 123.815 42.7586 123.219 44.4076 122.156C46.0566 121.093 47.0181 121.053 47.0181 121.053C47.0181 121.053 47.0579 122.29 46.5946 122.956C46.0416 123.751 45.1898 124.595 44.3279 124.715C43.0277 124.894 42.5444 123.815 42.5444 123.815Z" fill="#F09B5C"/>
<path d="M38.0359 127.075C38.0359 127.075 38.8828 126.23 38.9874 124.521C39.092 122.812 38.9476 122.415 38.9476 122.415C38.9476 122.415 38.006 123.12 37.6971 123.751C37.3235 124.511 37.2239 124.71 37.2886 125.723C37.3683 126.866 38.0359 127.07 38.0359 127.07V127.075Z" fill="#F09B5C"/>
<path d="M40.6711 124.705C40.6711 124.705 41.6226 123.98 41.9514 122.3C42.2802 120.621 42.1905 120.209 42.1905 120.209C42.1905 120.209 41.1643 120.785 40.7707 121.371C40.3024 122.077 40.1729 122.261 40.1081 123.274C40.0334 124.417 40.6711 124.705 40.6711 124.705Z" fill="#F09B5C"/>
</svg>
