<?xml version="1.0" encoding="UTF-8"?><svg id="Layer_7" xmlns="http://www.w3.org/2000/svg" viewBox="0 0 696.18 1185"><defs><style>.cls-1{fill:#2d6076;}</style></defs><path class="cls-1" d="m348.81,634.2c0-.16-.01-.17-.03-.18-4.8-2.16-7.33-6.39-7.39-12.62l-.12-12.36c-.08-8.22,5.7-14.95,12.91-15.02,7.22-.07,13.14,6.54,13.22,14.76l.12,12.36c.06,5.96-1.13,10.55-5.55,12.97-.02,0-.03.02-.03.04,0,.27.03,2.63.05,5,.03,2.6,2.85,4.25,5.11,2.95,6.5-3.76,8.99-10.24,8.91-18.29l-.18-17.89c-.12-12.13-10.25-21.81-22.48-21.29-11.7.5-20.7,10.58-20.59,22.29l-.07,16.57c.08,8.13,4.03,14.84,10.71,18.43,2.48,1.33,5.48-.56,5.45-3.38l-.04-4.35Z"/><path class="cls-1" d="m570.68,203.66l-5.36,11.14c-2.14,4.44-5.93,7.47-10.02,8.5-.82.21-1.5.76-1.86,1.52l-2.01,4.18c-.97,2.01.64,4.28,2.86,4.08,7.29-.66,14.06-5.03,17.47-12.11l7.76-16.11c3.41-7.08,2.6-15.1-1.42-21.21-1.23-1.86-4-1.7-4.97.31l-2.01,4.18c-.36.76-.37,1.64-.03,2.4,1.74,3.85,1.74,8.69-.4,13.13Zm-28.91-.2l5.36-11.14c2.14-4.44,5.93-7.46,10.02-8.5.82-.21,1.5-.76,1.86-1.52l2.01-4.18c.97-2.01-.64-4.28-2.86-4.08-7.29.66-14.06,5.03-17.47,12.11l-7.76,16.11c-3.41,7.08-2.6,15.1,1.42,21.21,1.23,1.86,4,1.7,4.97-.31l2.01-4.18c.37-.76.37-1.64.02-2.4-1.74-3.85-1.74-8.69.4-13.13Z"/><path class="cls-1" d="m542.11,261.89l-5.36,11.14c-2.14,4.44-5.93,7.47-10.02,8.5-.82.21-1.5.76-1.86,1.52l-2.01,4.18c-.97,2.01.64,4.28,2.86,4.08,7.29-.66,14.06-5.03,17.47-12.11l7.76-16.11c3.41-7.08,2.6-15.1-1.42-21.21-1.23-1.86-4-1.7-4.97.31l-2.01,4.18c-.36.76-.37,1.64-.03,2.4,1.74,3.85,1.74,8.69-.4,13.13Zm-28.91-.2l5.36-11.14c2.14-4.44,5.93-7.46,10.02-8.5.82-.21,1.5-.76,1.86-1.52l2.01-4.18c.97-2.01-.64-4.28-2.86-4.08-7.29.66-14.06,5.03-17.47,12.11l-7.76,16.11c-3.41,7.08-2.6,15.1,1.42,21.21,1.23,1.86,4,1.7,4.97-.31l2.01-4.18c.37-.76.37-1.64.02-2.4-1.74-3.85-1.74-8.69.4-13.13Z"/><path class="cls-1" d="m569.97,160.55c.07-.14.06-.16.05-.17-3.34-4.06-3.74-8.98-1.04-14.59l5.36-11.14c3.57-7.41,11.73-10.88,18.23-7.75,6.51,3.13,8.88,11.68,5.32,19.09l-5.36,11.14c-2.58,5.37-5.68,8.96-10.72,9.18-.02,0-.03,0-.04.02-.12.24-1.14,2.37-2.17,4.51-1.13,2.35.68,5.08,3.27,4.9,7.49-.49,12.6-5.2,16.09-12.45l7.76-16.12c5.26-10.93.47-24.1-10.72-29.05-10.71-4.73-23.25.32-28.33,10.87l-7.41,14.83c-3.53,7.32-2.96,15.09,1.44,21.27,1.63,2.29,5.16,1.92,6.38-.61l1.89-3.92Z"/><rect class="cls-1" x="544.98" y="168.36" width="51.77" height="10.42" rx="4.53" ry="4.53" transform="translate(974.93 -265.46) rotate(115.71)"/><rect class="cls-1" x="517.45" y="225.55" width="51.77" height="10.42" rx="4.53" ry="4.53" transform="translate(986.97 -158.66) rotate(115.71)"/><rect class="cls-1" x="487.49" y="286.2" width="51.77" height="10.42" rx="4.53" ry="4.53" transform="translate(998.67 -44.69) rotate(115.71)"/><path class="cls-1" d="m514.25,319.07l-5.36,11.14c-2.14,4.44-5.93,7.47-10.02,8.5-.82.21-1.5.76-1.86,1.52l-2.01,4.18c-.97,2.01.64,4.28,2.86,4.08,7.29-.66,14.06-5.03,17.47-12.11l7.76-16.11c3.41-7.08,2.6-15.1-1.42-21.21-1.23-1.86-4-1.7-4.97.31l-2.01,4.18c-.36.76-.37,1.64-.03,2.4,1.74,3.85,1.74,8.69-.4,13.13Zm-28.91-.2l5.36-11.14c2.14-4.44,5.93-7.46,10.02-8.5.82-.21,1.5-.76,1.86-1.52l2.01-4.18c.97-2.01-.64-4.28-2.86-4.08-7.29.66-14.06,5.03-17.47,12.11l-7.76,16.11c-3.41,7.08-2.6,15.1,1.42,21.21,1.23,1.86,4,1.7,4.97-.31l2.01-4.18c.37-.76.37-1.64.02-2.4-1.74-3.85-1.74-8.69.4-13.13Z"/><path class="cls-1" d="m485.68,377.3l-5.36,11.14c-2.14,4.44-5.93,7.47-10.02,8.5-.82.21-1.5.76-1.86,1.52l-2.01,4.18c-.97,2.01.64,4.28,2.86,4.08,7.29-.66,14.06-5.03,17.47-12.11l7.76-16.11c3.41-7.08,2.6-15.1-1.42-21.21-1.23-1.86-4-1.7-4.97.31l-2.01,4.18c-.36.76-.37,1.64-.03,2.4,1.74,3.85,1.74,8.69-.4,13.13Zm-28.91-.2l5.36-11.14c2.14-4.44,5.93-7.46,10.02-8.5.82-.21,1.5-.76,1.86-1.52l2.01-4.18c.97-2.01-.64-4.28-2.86-4.08-7.29.66-14.06,5.03-17.47,12.11l-7.76,16.11c-3.41,7.08-2.6,15.1,1.42,21.21,1.23,1.86,4,1.7,4.97-.31l2.01-4.18c.37-.76.37-1.64.02-2.4-1.74-3.85-1.74-8.69.4-13.13Z"/><rect class="cls-1" x="461.01" y="340.96" width="51.77" height="10.42" rx="4.53" ry="4.53" transform="translate(1010.04 57.67) rotate(115.71)"/><rect class="cls-1" x="431.06" y="401.61" width="51.77" height="10.42" rx="4.53" ry="4.53" transform="translate(1021.73 171.64) rotate(115.71)"/><path class="cls-1" d="m459.36,431.43l-5.36,11.14c-2.14,4.44-5.93,7.47-10.02,8.5-.82.21-1.5.76-1.86,1.52l-2.01,4.18c-.97,2.01.64,4.28,2.86,4.08,7.29-.66,14.06-5.03,17.47-12.11l7.76-16.11c3.41-7.08,2.6-15.1-1.42-21.21-1.23-1.86-4-1.7-4.97.31l-2.01,4.18c-.36.76-.37,1.64-.03,2.4,1.74,3.85,1.74,8.69-.4,13.13Zm-28.91-.2l5.36-11.14c2.14-4.44,5.93-7.46,10.02-8.5.82-.21,1.5-.76,1.86-1.52l2.01-4.18c.97-2.01-.64-4.28-2.86-4.08-7.29.66-14.06,5.03-17.47,12.11l-7.76,16.11c-3.41,7.08-2.6,15.1,1.42,21.21,1.23,1.86,4,1.7,4.97-.31l2.01-4.18c.37-.76.37-1.64.02-2.4-1.74-3.85-1.74-8.69.4-13.13Z"/><rect class="cls-1" x="404.73" y="455.75" width="51.77" height="10.42" rx="4.53" ry="4.53" transform="translate(1032.76 272.97) rotate(115.71)"/><path class="cls-1" d="m431.5,488.61l-5.36,11.14c-2.14,4.44-5.93,7.47-10.02,8.5-.82.21-1.5.76-1.86,1.52l-2.01,4.18c-.97,2.01.64,4.28,2.86,4.08,7.29-.66,14.06-5.03,17.47-12.11l7.76-16.11c3.41-7.08,2.6-15.1-1.42-21.21-1.23-1.86-4-1.7-4.97.31l-2.01,4.18c-.36.76-.37,1.64-.03,2.4,1.74,3.85,1.74,8.69-.4,13.13Zm-28.91-.2l5.36-11.14c2.14-4.44,5.93-7.46,10.02-8.5.82-.21,1.5-.76,1.86-1.52l2.01-4.18c.97-2.01-.64-4.28-2.86-4.08-7.29.66-14.06,5.03-17.47,12.11l-7.76,16.11c-3.41,7.08-2.6,15.1,1.42,21.21,1.23,1.86,4,1.7,4.97-.31l2.01-4.18c.37-.76.37-1.64.02-2.4-1.74-3.85-1.74-8.69.4-13.13Z"/><path class="cls-1" d="m402.92,546.84l-5.36,11.14c-2.14,4.44-5.93,7.47-10.02,8.5-.82.21-1.5.76-1.86,1.52l-2.01,4.18c-.97,2.01.64,4.28,2.86,4.08,7.29-.66,14.06-5.03,17.47-12.11l7.76-16.11c3.41-7.08,2.6-15.1-1.42-21.21-1.23-1.86-4-1.7-4.97.31l-2.01,4.18c-.36.76-.37,1.64-.03,2.4,1.74,3.85,1.74,8.69-.4,13.13Zm-28.91-.2l5.36-11.14c2.14-4.44,5.93-7.46,10.02-8.5.82-.21,1.5-.76,1.86-1.52l2.01-4.18c.97-2.01-.64-4.28-2.86-4.08-7.29.66-14.06,5.03-17.47,12.11l-7.76,16.11c-3.41,7.08-2.6,15.1,1.42,21.21,1.23,1.86,4,1.7,4.97-.31l2.01-4.18c.37-.76.37-1.64.02-2.4-1.74-3.85-1.74-8.69.4-13.13Z"/><rect class="cls-1" x="378.26" y="510.5" width="51.77" height="10.42" rx="4.53" ry="4.53" transform="translate(1044.13 375.33) rotate(115.71)"/><rect class="cls-1" x="348.3" y="571.16" width="51.77" height="10.42" rx="4.53" ry="4.53" transform="translate(1055.82 489.3) rotate(115.71)"/><path class="cls-1" d="m138.01,1025.65l5.36-11.14c2.14-4.44,5.93-7.47,10.02-8.5.82-.21,1.5-.76,1.86-1.52l2.01-4.18c.97-2.01-.64-4.28-2.86-4.08-7.29.66-14.06,5.03-17.47,12.11l-7.76,16.11c-3.41,7.08-2.6,15.1,1.42,21.21,1.23,1.86,4,1.7,4.97-.31l2.01-4.18c.36-.76.37-1.64.03-2.4-1.74-3.85-1.74-8.69.4-13.13Zm28.91.2l-5.36,11.14c-2.14,4.44-5.93,7.46-10.02,8.5-.82.21-1.5.76-1.86,1.52l-2.01,4.18c-.97,2.01.64,4.28,2.86,4.08,7.29-.66,14.06-5.03,17.47-12.11l7.76-16.11c3.41-7.08,2.6-15.1-1.42-21.21-1.23-1.86-4-1.7-4.97.31l-2.01,4.18c-.37.76-.37,1.64-.02,2.4,1.74,3.85,1.74,8.69-.4,13.13Z"/><path class="cls-1" d="m166.58,967.42l5.36-11.14c2.14-4.44,5.93-7.47,10.02-8.5.82-.21,1.5-.76,1.86-1.52l2.01-4.18c.97-2.01-.64-4.28-2.86-4.08-7.29.66-14.06,5.03-17.47,12.11l-7.76,16.11c-3.41,7.08-2.6,15.1,1.42,21.21,1.23,1.86,4,1.7,4.97-.31l2.01-4.18c.36-.76.37-1.64.03-2.4-1.74-3.85-1.74-8.69.4-13.13Zm28.91.2l-5.36,11.14c-2.14,4.44-5.93,7.46-10.02,8.5-.82.21-1.5.76-1.86,1.52l-2.01,4.18c-.97,2.01.64,4.28,2.86,4.08,7.29-.66,14.06-5.03,17.47-12.11l7.76-16.11c3.41-7.08,2.6-15.1-1.42-21.21-1.23-1.86-4-1.7-4.97.31l-2.01,4.18c-.37.76-.37,1.64-.02,2.4,1.74,3.85,1.74,8.69-.4,13.13Z"/><path class="cls-1" d="m138.72,1068.75c-.07.14-.06.16-.05.17,3.34,4.06,3.74,8.98,1.04,14.59l-5.36,11.14c-3.57,7.41-11.73,10.88-18.23,7.75-6.51-3.13-8.88-11.68-5.32-19.09l5.36-11.14c2.58-5.37,5.68-8.96,10.72-9.18.02,0,.03,0,.04-.02.12-.24,1.14-2.37,2.17-4.51,1.13-2.35-.68-5.08-3.27-4.9-7.49.49-12.6,5.2-16.09,12.45l-7.76,16.12c-5.26,10.93-.47,24.1,10.72,29.05,10.71,4.73,23.25-.32,28.33-10.87l7.41-14.83c3.53-7.32,2.96-15.09-1.44-21.27-1.63-2.29-5.16-1.92-6.38.61l-1.89,3.92Z"/><rect class="cls-1" x="111.94" y="1050.52" width="51.77" height="10.42" rx="4.53" ry="4.53" transform="translate(-873.16 721.86) rotate(-64.29)"/><rect class="cls-1" x="139.48" y="993.34" width="51.77" height="10.42" rx="4.53" ry="4.53" transform="translate(-806.05 714.3) rotate(-64.29)"/><rect class="cls-1" x="169.44" y="932.68" width="51.77" height="10.42" rx="4.53" ry="4.53" transform="translate(-734.44 706.95) rotate(-64.29)"/><path class="cls-1" d="m194.44,910.24l5.36-11.14c2.14-4.44,5.93-7.47,10.02-8.5.82-.21,1.5-.76,1.86-1.52l2.01-4.18c.97-2.01-.64-4.28-2.86-4.08-7.29.66-14.06,5.03-17.47,12.11l-7.76,16.11c-3.41,7.08-2.6,15.1,1.42,21.21,1.23,1.86,4,1.7,4.97-.31l2.01-4.18c.36-.76.37-1.64.03-2.4-1.74-3.85-1.74-8.69.4-13.13Zm28.91.2l-5.36,11.14c-2.14,4.44-5.93,7.46-10.02,8.5-.82.21-1.5.76-1.86,1.52l-2.01,4.18c-.97,2.01.64,4.28,2.86,4.08,7.29-.66,14.06-5.03,17.47-12.11l7.76-16.11c3.41-7.08,2.6-15.1-1.42-21.21-1.23-1.86-4-1.7-4.97.31l-2.01,4.18c-.37.76-.37,1.64-.02,2.4,1.74,3.85,1.74,8.69-.4,13.13Z"/><path class="cls-1" d="m223.01,852.01l5.36-11.14c2.14-4.44,5.93-7.47,10.02-8.5.82-.21,1.5-.76,1.86-1.52l2.01-4.18c.97-2.01-.64-4.28-2.86-4.08-7.29.66-14.06,5.03-17.47,12.11l-7.76,16.11c-3.41,7.08-2.6,15.1,1.42,21.21,1.23,1.86,4,1.7,4.97-.31l2.01-4.18c.36-.76.37-1.64.03-2.4-1.74-3.85-1.74-8.69.4-13.13Zm28.91.2l-5.36,11.14c-2.14,4.44-5.93,7.46-10.02,8.5-.82.21-1.5.76-1.86,1.52l-2.01,4.18c-.97,2.01.64,4.28,2.86,4.08,7.29-.66,14.06-5.03,17.47-12.11l7.76-16.11c3.41-7.08,2.6-15.1-1.42-21.21-1.23-1.86-4-1.7-4.97.31l-2.01,4.18c-.37.76-.37,1.64-.02,2.4,1.74,3.85,1.74,8.69-.4,13.13Z"/><rect class="cls-1" x="195.91" y="877.93" width="51.77" height="10.42" rx="4.53" ry="4.53" transform="translate(-670.12 699.8) rotate(-64.29)"/><rect class="cls-1" x="225.87" y="817.27" width="51.77" height="10.42" rx="4.53" ry="4.53" transform="translate(-598.51 692.46) rotate(-64.29)"/><path class="cls-1" d="m249.34,797.88l5.36-11.14c2.14-4.44,5.93-7.47,10.02-8.5.82-.21,1.5-.76,1.86-1.52l2.01-4.18c.97-2.01-.64-4.28-2.86-4.08-7.29.66-14.06,5.03-17.47,12.11l-7.76,16.11c-3.41,7.08-2.6,15.1,1.42,21.21,1.23,1.86,4,1.7,4.97-.31l2.01-4.18c.36-.76.37-1.64.03-2.4-1.74-3.85-1.74-8.69.4-13.13Zm28.91.2l-5.36,11.14c-2.14,4.44-5.93,7.46-10.02,8.5-.82.21-1.5.76-1.86,1.52l-2.01,4.18c-.97,2.01.64,4.28,2.86,4.08,7.29-.66,14.06-5.03,17.47-12.11l7.76-16.11c3.41-7.08,2.6-15.1-1.42-21.21-1.23-1.86-4-1.7-4.97.31l-2.01,4.18c-.37.76-.37,1.64-.02,2.4,1.74,3.85,1.74,8.69-.4,13.13Z"/><rect class="cls-1" x="252.19" y="763.14" width="51.77" height="10.42" rx="4.53" ry="4.53" transform="translate(-534.84 685.53) rotate(-64.29)"/><path class="cls-1" d="m277.2,740.69l5.36-11.14c2.14-4.44,5.93-7.47,10.02-8.5.82-.21,1.5-.76,1.86-1.52l2.01-4.18c.97-2.01-.64-4.28-2.86-4.08-7.29.66-14.06,5.03-17.47,12.11l-7.76,16.11c-3.41,7.08-2.6,15.1,1.42,21.21,1.23,1.86,4,1.7,4.97-.31l2.01-4.18c.36-.76.37-1.64.03-2.4-1.74-3.85-1.74-8.69.4-13.13Zm28.91.2l-5.36,11.14c-2.14,4.44-5.93,7.46-10.02,8.5-.82.21-1.5.76-1.86,1.52l-2.01,4.18c-.97,2.01.64,4.28,2.86,4.08,7.29-.66,14.06-5.03,17.47-12.11l7.76-16.11c3.41-7.08,2.6-15.1-1.42-21.21-1.23-1.86-4-1.7-4.97.31l-2.01,4.18c-.37.76-.37,1.64-.02,2.4,1.74,3.85,1.74,8.69-.4,13.13Z"/><path class="cls-1" d="m305.77,682.47l5.36-11.14c2.14-4.44,5.93-7.47,10.02-8.5.82-.21,1.5-.76,1.86-1.52l2.01-4.18c.97-2.01-.64-4.28-2.86-4.08-7.29.66-14.06,5.03-17.47,12.11l-7.76,16.11c-3.41,7.08-2.6,15.1,1.42,21.21,1.23,1.86,4,1.7,4.97-.31l2.01-4.18c.36-.76.37-1.64.03-2.4-1.74-3.85-1.74-8.69.4-13.13Zm28.91.2l-5.36,11.14c-2.14,4.44-5.93,7.46-10.02,8.5-.82.21-1.5.76-1.86,1.52l-2.01,4.18c-.97,2.01.64,4.28,2.86,4.08,7.29-.66,14.06-5.03,17.47-12.11l7.76-16.11c3.41-7.08,2.6-15.1-1.42-21.21-1.23-1.86-4-1.7-4.97.31l-2.01,4.18c-.37.76-.37,1.64-.02,2.4,1.74,3.85,1.74,8.69-.4,13.13Z"/><rect class="cls-1" x="278.67" y="708.39" width="51.77" height="10.42" rx="4.53" ry="4.53" transform="translate(-470.52 678.38) rotate(-64.29)"/><rect class="cls-1" x="308.62" y="647.73" width="51.77" height="10.42" rx="4.53" ry="4.53" transform="translate(-398.91 671.04) rotate(-64.29)"/><path class="cls-1" d="m148.4,199.5l5.87,10.88c2.34,4.34,2.57,9.18,1,13.1-.31.78-.27,1.66.13,2.4l2.2,4.08c1.06,1.96,3.84,1.99,4.98.08,3.74-6.29,4.18-14.33.45-21.25l-8.49-15.74c-3.73-6.92-10.7-10.97-18.01-11.29-2.23-.1-3.73,2.24-2.67,4.2l2.2,4.08c.4.74,1.11,1.26,1.93,1.43,4.14.85,8.06,3.69,10.4,8.03Zm-17.13,23.28l-5.87-10.88c-2.34-4.34-2.56-9.18-1-13.1.31-.78.26-1.66-.14-2.4l-2.2-4.08c-1.06-1.96-3.84-1.99-4.98-.08-3.74,6.29-4.18,14.33-.45,21.25l8.49,15.74c3.73,6.92,10.7,10.97,18.01,11.29,2.23.1,3.73-2.24,2.67-4.2l-2.2-4.08c-.4-.74-1.11-1.26-1.93-1.43-4.14-.85-8.06-3.69-10.4-8.03Z"/><path class="cls-1" d="m178.77,256.81l5.87,10.88c2.34,4.34,2.57,9.18,1,13.1-.31.78-.27,1.66.13,2.4l2.2,4.08c1.06,1.96,3.84,1.99,4.98.08,3.74-6.29,4.18-14.33.45-21.25l-8.49-15.74c-3.73-6.92-10.7-10.97-18.01-11.29-2.23-.1-3.73,2.24-2.67,4.2l2.2,4.08c.4.74,1.11,1.26,1.93,1.43,4.14.85,8.06,3.69,10.4,8.03Zm-17.13,23.28l-5.87-10.88c-2.34-4.34-2.56-9.18-1-13.1.31-.78.26-1.66-.14-2.4l-2.2-4.08c-1.06-1.96-3.84-1.99-4.98-.08-3.74,6.29-4.18,14.33-.45,21.25l8.49,15.74c3.73,6.92,10.7,10.97,18.01,11.29,2.23.1,3.73-2.24,2.67-4.2l-2.2-4.08c-.4-.74-1.11-1.26-1.93-1.43-4.14-.85-8.06-3.69-10.4-8.03Z"/><path class="cls-1" d="m113.08,174.78c-.07-.14-.09-.15-.11-.14-5.25.32-9.46-2.24-12.42-7.72l-5.87-10.88c-3.9-7.23-1.92-15.88,4.42-19.31s14.67-.34,18.57,6.9l5.87,10.88c2.83,5.24,3.92,9.86,1.14,14.06-.01.02-.01.03,0,.05.13.24,1.25,2.32,2.38,4.4,1.24,2.29,4.51,2.43,5.89.23,4-6.36,3.18-13.25-.64-20.34l-8.49-15.74c-5.76-10.67-19.23-14.53-29.81-8.37-10.12,5.89-13.39,19.01-7.83,29.31l7.66,14.7c3.86,7.16,10.48,11.25,18.07,11.32,2.81.02,4.58-3.05,3.25-5.53l-2.07-3.83Z"/><rect class="cls-1" x="98.26" y="176.49" width="51.77" height="10.42" rx="4.53" ry="4.53" transform="translate(225.11 -13.84) rotate(61.65)"/><rect class="cls-1" x="128.4" y="232.34" width="51.77" height="10.42" rx="4.53" ry="4.53" transform="translate(290.09 -11.03) rotate(61.65)"/><rect class="cls-1" x="159.93" y="292.2" width="51.77" height="10.42" rx="4.53" ry="4.53" transform="translate(359.33 -7.34) rotate(61.65)"/><path class="cls-1" d="m208.72,312.93l5.87,10.88c2.34,4.34,2.57,9.18,1,13.1-.31.78-.27,1.66.13,2.4l2.2,4.08c1.06,1.96,3.84,1.99,4.98.08,3.74-6.29,4.18-14.33.45-21.25l-8.49-15.74c-3.73-6.92-10.7-10.97-18.01-11.29-2.23-.1-3.73,2.24-2.67,4.2l2.2,4.08c.4.74,1.11,1.26,1.93,1.43,4.14.85,8.06,3.69,10.4,8.03Zm-17.13,23.28l-5.87-10.88c-2.34-4.34-2.56-9.18-1-13.1.31-.78.26-1.66-.14-2.4l-2.2-4.08c-1.06-1.96-3.84-1.99-4.98-.08-3.74,6.29-4.18,14.33-.45,21.25l8.49,15.74c3.73,6.92,10.7,10.97,18.01,11.29,2.23.1,3.73-2.24,2.67-4.2l-2.2-4.08c-.4-.74-1.11-1.26-1.93-1.43-4.14-.85-8.06-3.69-10.4-8.03Z"/><path class="cls-1" d="m239.09,370.24l5.87,10.88c2.34,4.34,2.57,9.18,1,13.1-.31.78-.27,1.66.13,2.4l2.2,4.08c1.06,1.96,3.84,1.99,4.98.08,3.74-6.29,4.18-14.33.45-21.25l-8.49-15.74c-3.73-6.92-10.7-10.97-18.01-11.29-2.23-.1-3.73,2.24-2.67,4.2l2.2,4.08c.4.74,1.11,1.26,1.93,1.43,4.14.85,8.06,3.69,10.4,8.03Zm-17.13,23.28l-5.87-10.88c-2.34-4.34-2.56-9.18-1-13.1.31-.78.26-1.66-.14-2.4l-2.2-4.08c-1.06-1.96-3.84-1.99-4.98-.08-3.74,6.29-4.18,14.33-.45,21.25l8.49,15.74c3.73,6.92,10.7,10.97,18.01,11.29,2.23.1,3.73-2.24,2.67-4.2l-2.2-4.08c-.4-.74-1.11-1.26-1.93-1.43-4.14-.85-8.06-3.69-10.4-8.03Z"/><rect class="cls-1" x="188.72" y="345.77" width="51.77" height="10.42" rx="4.53" ry="4.53" transform="translate(421.6 -4.54) rotate(61.65)"/><rect class="cls-1" x="220.25" y="405.63" width="51.77" height="10.42" rx="4.53" ry="4.53" transform="translate(490.83 -.86) rotate(61.65)"/><path class="cls-1" d="m267.47,423.32l5.87,10.88c2.34,4.34,2.57,9.18,1,13.1-.31.78-.27,1.66.13,2.4l2.2,4.08c1.06,1.96,3.84,1.99,4.98.08,3.74-6.29,4.18-14.33.45-21.25l-8.49-15.74c-3.73-6.92-10.7-10.97-18.01-11.29-2.23-.1-3.73,2.24-2.67,4.2l2.2,4.08c.4.74,1.11,1.26,1.93,1.43,4.14.85,8.06,3.69,10.4,8.03Zm-17.13,23.28l-5.87-10.88c-2.34-4.34-2.56-9.18-1-13.1.31-.78.26-1.66-.14-2.4l-2.2-4.08c-1.06-1.96-3.84-1.99-4.98-.08-3.74,6.29-4.18,14.33-.45,21.25l8.49,15.74c3.73,6.92,10.7,10.97,18.01,11.29,2.23.1,3.73-2.24,2.67-4.2l-2.2-4.08c-.4-.74-1.11-1.26-1.93-1.43-4.14-.85-8.06-3.69-10.4-8.03Z"/><rect class="cls-1" x="248.62" y="458.71" width="51.77" height="10.42" rx="4.53" ry="4.53" transform="translate(552.45 2.05) rotate(61.65)"/><path class="cls-1" d="m297.42,479.44l5.87,10.88c2.34,4.34,2.57,9.18,1,13.1-.31.78-.27,1.66.13,2.4l2.2,4.08c1.06,1.96,3.84,1.99,4.98.08,3.74-6.29,4.18-14.33.45-21.25l-8.49-15.74c-3.73-6.92-10.7-10.97-18.01-11.29-2.23-.1-3.73,2.24-2.67,4.2l2.2,4.08c.4.74,1.11,1.26,1.93,1.43,4.14.85,8.06,3.69,10.4,8.03Zm-17.13,23.28l-5.87-10.88c-2.34-4.34-2.56-9.18-1-13.1.31-.78.26-1.66-.14-2.4l-2.2-4.08c-1.06-1.96-3.84-1.99-4.98-.08-3.74,6.29-4.18,14.33-.45,21.25l8.49,15.74c3.73,6.92,10.7,10.97,18.01,11.29,2.23.1,3.73-2.24,2.67-4.2l-2.2-4.08c-.4-.74-1.11-1.26-1.93-1.43-4.14-.85-8.06-3.69-10.4-8.03Z"/><path class="cls-1" d="m327.79,536.75l5.87,10.88c2.34,4.34,2.57,9.18,1,13.1-.31.78-.27,1.66.13,2.4l2.2,4.08c1.06,1.96,3.84,1.99,4.98.08,3.74-6.29,4.18-14.33.45-21.25l-8.49-15.74c-3.73-6.92-10.7-10.97-18.01-11.29-2.23-.1-3.73,2.24-2.67,4.2l2.2,4.08c.4.74,1.11,1.26,1.93,1.43,4.14.85,8.06,3.69,10.4,8.03Zm-17.13,23.28l-5.87-10.88c-2.34-4.34-2.56-9.18-1-13.1.31-.78.26-1.66-.14-2.4l-2.2-4.08c-1.06-1.96-3.84-1.99-4.98-.08-3.74,6.29-4.18,14.33-.45,21.25l8.49,15.74c3.73,6.92,10.7,10.97,18.01,11.29,2.23.1,3.73-2.24,2.67-4.2l-2.2-4.08c-.4-.74-1.11-1.26-1.93-1.43-4.14-.85-8.06-3.69-10.4-8.03Z"/><rect class="cls-1" x="277.42" y="512.28" width="51.77" height="10.42" rx="4.53" ry="4.53" transform="translate(614.72 4.84) rotate(61.65)"/><rect class="cls-1" x="308.94" y="572.14" width="51.77" height="10.42" rx="4.53" ry="4.53" transform="translate(683.96 8.53) rotate(61.65)"/><path class="cls-1" d="m567.46,1027.15l-6.04-10.79c-2.41-4.3-2.71-9.14-1.21-13.08.3-.79.24-1.66-.17-2.4l-2.26-4.04c-1.09-1.94-3.87-1.93-4.98,0-3.65,6.35-3.96,14.4-.12,21.26l8.73,15.6c3.84,6.86,10.86,10.8,18.18,11.01,2.23.06,3.69-2.3,2.6-4.24l-2.26-4.05c-.41-.73-1.13-1.24-1.95-1.4-4.15-.79-8.12-3.57-10.52-7.87Zm16.76-23.55l6.04,10.79c2.41,4.3,2.7,9.13,1.2,13.09-.3.79-.24,1.66.17,2.4l2.26,4.05c1.09,1.94,3.87,1.93,4.98,0,3.65-6.35,3.96-14.4.12-21.26l-8.73-15.6c-3.84-6.86-10.86-10.8-18.18-11.01-2.23-.06-3.69,2.3-2.6,4.24l2.26,4.04c.41.73,1.13,1.24,1.95,1.4,4.15.78,8.12,3.57,10.52,7.87Z"/><path class="cls-1" d="m536.2,970.32l-6.04-10.79c-2.41-4.3-2.71-9.14-1.21-13.08.3-.79.24-1.66-.17-2.4l-2.26-4.04c-1.09-1.94-3.87-1.93-4.98,0-3.65,6.35-3.96,14.4-.12,21.26l8.73,15.6c3.84,6.86,10.86,10.8,18.18,11.01,2.23.06,3.69-2.3,2.6-4.24l-2.26-4.05c-.41-.73-1.13-1.24-1.95-1.4-4.15-.79-8.12-3.57-10.52-7.87Zm16.76-23.55l6.04,10.79c2.41,4.3,2.7,9.13,1.2,13.09-.3.79-.24,1.66.17,2.4l2.26,4.05c1.09,1.94,3.87,1.93,4.98,0,3.65-6.35,3.96-14.4.12-21.26l-8.73-15.6c-3.84-6.86-10.86-10.8-18.18-11.01-2.23-.06-3.69,2.3-2.6,4.24l2.26,4.04c.41.73,1.13,1.24,1.95,1.4,4.15.78,8.12,3.57,10.52,7.87Z"/><path class="cls-1" d="m603.16,1051.33c.08.14.09.14.11.14,5.24-.4,9.5,2.09,12.54,7.52l6.04,10.79c4.01,7.17,2.17,15.85-4.12,19.37-6.3,3.53-14.66.56-18.68-6.61l-6.04-10.79c-2.91-5.2-4.07-9.8-1.36-14.05.01-.02.01-.03,0-.05-.13-.23-1.29-2.3-2.44-4.37-1.27-2.27-4.54-2.36-5.9-.14-3.9,6.42-2.98,13.3.95,20.32l8.74,15.61c5.92,10.58,19.46,14.23,29.93,7.9,10.02-6.05,13.09-19.22,7.37-29.43l-7.88-14.58c-3.97-7.09-10.65-11.09-18.24-11.04-2.81.02-4.54,3.12-3.16,5.58l2.13,3.8Z"/><rect class="cls-1" x="566.1" y="1039.37" width="51.77" height="10.42" rx="4.53" ry="4.53" transform="translate(-30.4 2071.34) rotate(-119.24)"/><rect class="cls-1" x="535.1" y="983.99" width="51.77" height="10.42" rx="4.53" ry="4.53" transform="translate(-28.21 1961.86) rotate(-119.24)"/><rect class="cls-1" x="502.65" y="924.63" width="51.77" height="10.42" rx="4.53" ry="4.53" transform="translate(-24.71 1845.19) rotate(-119.24)"/><path class="cls-1" d="m505.39,914.68l-6.04-10.79c-2.41-4.3-2.71-9.14-1.21-13.08.3-.79.24-1.66-.17-2.4l-2.26-4.04c-1.09-1.94-3.87-1.93-4.98,0-3.65,6.35-3.96,14.4-.12,21.26l8.73,15.6c3.84,6.86,10.86,10.8,18.18,11.01,2.23.06,3.69-2.3,2.6-4.24l-2.26-4.05c-.41-.73-1.13-1.24-1.95-1.4-4.15-.79-8.12-3.57-10.52-7.87Zm16.76-23.55l6.04,10.79c2.41,4.3,2.7,9.13,1.2,13.09-.3.79-.24,1.66.17,2.4l2.26,4.05c1.09,1.94,3.87,1.93,4.98,0,3.65-6.35,3.96-14.4.12-21.26l-8.73-15.6c-3.84-6.86-10.86-10.8-18.18-11.01-2.23-.06-3.69,2.3-2.6,4.24l2.26,4.04c.41.73,1.13,1.24,1.95,1.4,4.15.78,8.12,3.57,10.52,7.87Z"/><path class="cls-1" d="m474.13,857.85l-6.04-10.79c-2.41-4.3-2.71-9.14-1.21-13.08.3-.79.24-1.66-.17-2.4l-2.26-4.04c-1.09-1.94-3.87-1.93-4.98,0-3.65,6.35-3.96,14.4-.12,21.26l8.73,15.6c3.84,6.86,10.86,10.8,18.18,11.01,2.23.06,3.69-2.3,2.6-4.24l-2.26-4.05c-.41-.73-1.13-1.24-1.95-1.4-4.15-.79-8.12-3.57-10.52-7.87Zm16.76-23.55l6.04,10.79c2.41,4.3,2.7,9.13,1.2,13.09-.3.79-.24,1.66.17,2.4l2.26,4.05c1.09,1.94,3.87,1.93,4.98,0,3.65-6.35,3.96-14.4.12-21.26l-8.73-15.6c-3.84-6.86-10.86-10.8-18.18-11.01-2.23-.06-3.69,2.3-2.6,4.24l2.26,4.04c.41.73,1.13,1.24,1.95,1.4,4.15.78,8.12,3.57,10.52,7.87Z"/><rect class="cls-1" x="473.03" y="871.51" width="51.77" height="10.42" rx="4.53" ry="4.53" transform="translate(-22.45 1740.28) rotate(-119.24)"/><rect class="cls-1" x="440.58" y="812.15" width="51.77" height="10.42" rx="4.53" ry="4.53" transform="translate(-18.95 1623.61) rotate(-119.24)"/><path class="cls-1" d="m444.93,805.21l-6.04-10.79c-2.41-4.3-2.71-9.14-1.21-13.08.3-.79.24-1.66-.17-2.4l-2.26-4.04c-1.09-1.94-3.87-1.93-4.98,0-3.65,6.35-3.96,14.4-.12,21.26l8.73,15.6c3.84,6.86,10.86,10.8,18.18,11.01,2.23.06,3.69-2.3,2.6-4.24l-2.26-4.05c-.41-.73-1.13-1.24-1.95-1.4-4.15-.79-8.12-3.57-10.52-7.87Zm16.76-23.55l6.04,10.79c2.41,4.3,2.7,9.13,1.2,13.09-.3.79-.24,1.66.17,2.4l2.26,4.05c1.09,1.94,3.87,1.93,4.98,0,3.65-6.35,3.96-14.4.12-21.26l-8.73-15.6c-3.84-6.86-10.86-10.8-18.18-11.01-2.23-.06-3.69,2.3-2.6,4.24l2.26,4.04c.41.73,1.13,1.24,1.95,1.4,4.15.78,8.12,3.57,10.52,7.87Z"/><rect class="cls-1" x="411.38" y="759.51" width="51.77" height="10.42" rx="4.53" ry="4.53" transform="translate(-16.47 1519.79) rotate(-119.24)"/><path class="cls-1" d="m414.12,749.56l-6.04-10.79c-2.41-4.3-2.71-9.14-1.21-13.08.3-.79.24-1.66-.17-2.4l-2.26-4.04c-1.09-1.94-3.87-1.93-4.98,0-3.65,6.35-3.96,14.4-.12,21.26l8.73,15.6c3.84,6.86,10.86,10.8,18.18,11.01,2.23.06,3.69-2.3,2.6-4.24l-2.26-4.05c-.41-.73-1.13-1.24-1.95-1.4-4.15-.79-8.12-3.57-10.52-7.87Zm16.76-23.55l6.04,10.79c2.41,4.3,2.7,9.13,1.2,13.09-.3.79-.24,1.66.17,2.4l2.26,4.05c1.09,1.94,3.87,1.93,4.98,0,3.65-6.35,3.96-14.4.12-21.26l-8.73-15.6c-3.84-6.86-10.86-10.8-18.18-11.01-2.23-.06-3.69,2.3-2.6,4.24l2.26,4.04c.41.73,1.13,1.24,1.95,1.4,4.15.78,8.12,3.57,10.52,7.87Z"/><path class="cls-1" d="m382.86,692.73l-6.04-10.79c-2.41-4.3-2.71-9.14-1.21-13.08.3-.79.24-1.66-.17-2.4l-2.26-4.04c-1.09-1.94-3.87-1.93-4.98,0-3.65,6.35-3.96,14.4-.12,21.26l8.73,15.6c3.84,6.86,10.86,10.8,18.18,11.01,2.23.06,3.69-2.3,2.6-4.24l-2.26-4.05c-.41-.73-1.13-1.24-1.95-1.4-4.15-.79-8.12-3.57-10.52-7.87Zm16.76-23.55l6.04,10.79c2.41,4.3,2.7,9.13,1.2,13.09-.3.79-.24,1.66.17,2.4l2.26,4.05c1.09,1.94,3.87,1.93,4.98,0,3.65-6.35,3.96-14.4.12-21.26l-8.73-15.6c-3.84-6.86-10.86-10.8-18.18-11.01-2.23-.06-3.69,2.3-2.6,4.24l2.26,4.04c.41.73,1.13,1.24,1.95,1.4,4.15.78,8.12,3.57,10.52,7.87Z"/><rect class="cls-1" x="381.76" y="706.4" width="51.77" height="10.42" rx="4.53" ry="4.53" transform="translate(-14.21 1414.88) rotate(-119.24)"/><rect class="cls-1" x="349.31" y="647.04" width="51.77" height="10.42" rx="4.53" ry="4.53" transform="translate(-10.71 1298.21) rotate(-119.24)"/><path class="cls-1" d="m360.58,596.26c0,.16.01.17.03.18,4.8,2.16,7.33,6.39,7.39,12.62l.12,12.36c.08,8.22-5.7,14.95-12.91,15.02-7.22.07-13.14-6.54-13.22-14.76l-.12-12.36c-.06-5.96,1.13-10.55,5.55-12.97.02,0,.03-.02.03-.04,0-.27-.03-2.63-.05-5-.03-2.6-2.85-4.25-5.11-2.95-6.5,3.76-8.99,10.24-8.91,18.29l.18,17.89c.12,12.13,10.25,21.81,22.48,21.29,11.7-.5,20.7-10.58,20.59-22.29l.07-16.57c-.08-8.13-4.03-14.84-10.71-18.43-2.48-1.33-5.48.56-5.45,3.38l.04,4.35Z"/></svg>