<svg width="72" height="68" viewBox="0 0 72 68" fill="none" xmlns="http://www.w3.org/2000/svg">
<path d="M24.6857 7.76301L35.174 0.485151C35.6831 0.131366 36.3808 0.140993 36.8785 0.511624L47.1919 8.1529C47.3896 8.29971 47.626 8.39357 47.8759 8.42486L60.2233 9.98199C60.8233 10.0566 61.3051 10.485 61.4188 11.0458L64.3255 25.2718C64.3596 25.4378 64.4255 25.5967 64.5232 25.7387L71.548 36.0417C71.8639 36.5062 71.8435 37.1079 71.4935 37.5507L63.971 47.0668C63.8732 47.1896 63.7982 47.3292 63.7528 47.4784L60.5415 57.5576C60.3779 58.0727 59.8983 58.4433 59.3302 58.4962L48.0941 59.5263C47.8214 59.5504 47.56 59.6515 47.3464 59.8127L37.249 67.4829C36.7444 67.8655 36.0285 67.8752 35.5126 67.5045L24.7493 59.7838C24.547 59.6394 24.3061 59.548 24.0539 59.5215L12.186 58.2652C11.5928 58.2026 11.1088 57.7959 10.9724 57.2496L8.5361 47.4062C8.49064 47.2257 8.40655 47.0548 8.28838 46.908L0.513586 37.2282C0.154504 36.783 0.131778 36.1717 0.456769 35.7048L7.10886 26.078C7.21113 25.9288 7.28159 25.7627 7.31568 25.5894L9.98378 11.5728C10.0861 11.0385 10.5224 10.615 11.0883 10.5066L24.1402 7.99646C24.3402 7.95795 24.5288 7.87853 24.6925 7.76542L24.6857 7.76301Z" fill="#DB5632"/>
<path d="M36.3625 68C36.017 68 35.6693 67.8965 35.3761 67.6847L24.6128 59.964C24.4423 59.8413 24.2401 59.7643 24.0265 59.7426L12.1586 58.4863C11.4722 58.4141 10.9064 57.9376 10.7495 57.2998L8.31324 47.4564C8.27688 47.3072 8.20643 47.1676 8.1087 47.0449L0.333914 37.3651C-0.0865293 36.8429 -0.111529 36.1233 0.268006 35.5721L6.9201 25.9453C7.00646 25.8226 7.06328 25.6854 7.09055 25.541L9.75866 11.5244C9.87911 10.8962 10.3814 10.4077 11.0427 10.2801L24.0946 7.76992C24.2628 7.73863 24.4242 7.67124 24.5605 7.57498L35.0489 0.297116C35.6352 -0.109617 36.4466 -0.0975833 37.0193 0.325996L47.3326 7.96727C47.4985 8.09001 47.6985 8.16943 47.9076 8.19591L60.255 9.75304C60.9527 9.84209 61.5095 10.3403 61.6436 10.9949L64.5503 25.2209C64.5776 25.3581 64.6344 25.488 64.714 25.606L71.7388 35.9091C72.1092 36.453 72.0842 37.1654 71.6729 37.6828L64.1504 47.1989C64.0685 47.3024 64.0072 47.4155 63.9685 47.5382L60.7573 57.6175C60.5641 58.2216 60.0118 58.6524 59.3505 58.7125L48.1144 59.7426C47.8826 59.7643 47.6644 59.8485 47.4849 59.9857L37.3875 67.6558C37.0897 67.8821 36.7284 67.9976 36.3647 67.9976L36.3625 68ZM36.0102 0.453552C35.7625 0.453552 35.5148 0.525752 35.3057 0.670154L24.8173 7.94802C24.6287 8.08038 24.406 8.17184 24.1764 8.21516L11.1245 10.7253C10.6473 10.8168 10.2859 11.1634 10.2018 11.611L7.53372 25.6276C7.49508 25.8346 7.41327 26.0271 7.29281 26.2028L0.640724 35.8296C0.374822 36.2147 0.393003 36.7201 0.68845 37.0859L8.46324 46.7657C8.60414 46.939 8.70187 47.1363 8.75414 47.3505L11.1904 57.1939C11.3018 57.6464 11.7109 57.9881 12.2063 58.0411L24.0742 59.2974C24.3651 59.3287 24.6446 59.4346 24.8787 59.6006L35.642 67.3213C36.0784 67.6342 36.6807 67.627 37.1056 67.3021L47.2031 59.6319C47.4508 59.4442 47.7508 59.3287 48.0667 59.2998L59.3028 58.2697C59.7823 58.2264 60.1823 57.9183 60.3186 57.4875L63.5299 47.4083C63.5845 47.235 63.6708 47.0713 63.7867 46.9269L71.3092 37.4108C71.5956 37.0474 71.6161 36.5468 71.3547 36.1666L64.3299 25.8635C64.2163 25.695 64.1367 25.5121 64.0981 25.3148L61.1913 11.0912C61.0959 10.6243 60.6936 10.2705 60.1891 10.2055L47.8417 8.64836C47.5531 8.61226 47.2804 8.50396 47.0508 8.33309L36.7352 0.691814C36.5216 0.532972 36.2602 0.453552 36.0011 0.453552H36.0102Z" fill="black"/>
<path d="M24.7697 18.2896L17.1722 28.9394C17.1722 28.9394 9.30648 22.4793 16.129 17.01C20.563 13.4553 24.7697 18.2896 24.7697 18.2896Z" fill="#EF9A5C"/>
<path d="M17.2155 29.2798L17.0337 29.1307C16.9927 29.097 16.0405 28.3081 15.0746 27.0406C13.786 25.3474 13.111 23.6061 13.1178 22.0091C13.1292 20.085 14.0951 18.3389 15.9905 16.8189C20.5358 13.1752 24.8925 18.0768 24.9357 18.1273L25.0653 18.274L17.2132 29.2774L17.2155 29.2798ZM19.5768 15.941C18.4223 15.941 17.3155 16.3619 16.2678 17.2013C14.4905 18.6251 13.5837 20.2438 13.5747 22.0091C13.5565 25.1574 16.3905 27.9209 17.1359 28.5943L24.4721 18.3125C24.1448 17.9758 23.238 17.1147 22.0085 16.5327C21.179 16.1407 20.3677 15.9434 19.579 15.9434L19.5768 15.941Z" fill="black"/>
<path d="M47.1414 18.2915L54.7389 28.9413C54.7389 28.9413 62.6046 22.4812 55.782 17.012C51.3481 13.4572 47.1414 18.2915 47.1414 18.2915Z" fill="#EF9A5C"/>
<path d="M54.6958 29.2813L46.8438 18.2779L46.9733 18.1312C47.0165 18.0807 51.3732 13.1791 55.9185 16.8228C57.8139 18.3428 58.7821 20.089 58.7912 22.013C58.8002 23.61 58.123 25.3513 56.8344 27.0445C55.8685 28.312 54.9163 29.1009 54.8754 29.1346L54.6935 29.2837L54.6958 29.2813ZM47.4392 18.314L54.7754 28.5958C55.5208 27.9224 58.3548 25.1589 58.3366 22.0106C58.3275 20.2453 57.4207 18.6291 55.6435 17.2028C53.8799 15.7886 51.9482 15.5625 49.9028 16.5318C48.6732 17.1138 47.7665 17.9749 47.4392 18.3116V18.314Z" fill="black"/>
<path d="M47.9282 55.0913C47.9282 55.0913 43.3033 58.2348 41.5192 59.8342C39.7693 61.3975 36.1898 61.5539 36.0421 61.5587H36.0376C35.8921 61.5539 32.3104 61.4312 30.5491 59.8823C28.7491 58.3022 24.0993 55.1996 24.0993 55.1996C11.0314 47.4263 14.4313 38.9218 14.4313 38.9218C14.4313 38.9218 15.6609 33.6402 18.8471 23.8441C21.9539 14.2886 35.2103 16.2464 35.8558 16.3498C36.583 16.2296 49.744 14.1924 52.9212 23.6878C56.187 33.4526 57.4597 38.7246 57.4597 38.7246C57.4597 38.7246 60.9301 47.1954 47.9282 55.0913Z" fill="#EF9A5C"/>
<path d="M36.049 61.7997C35.6422 61.7877 32.1786 61.6289 30.4037 60.068C28.6356 58.5167 24.0243 55.4358 23.9789 55.4045C20.2244 53.1726 15.4609 49.411 14.1451 44.2087C13.3792 41.1831 14.1269 39.081 14.2155 38.8477C14.2973 38.5014 15.57 33.1837 18.6336 23.7677C21.7698 14.1232 34.9149 15.9631 35.8558 16.1074C36.799 15.9583 49.9373 14.051 53.1372 23.6089C56.2757 32.9937 57.5916 38.3042 57.678 38.6481C57.7689 38.879 58.5325 40.9762 57.7916 44.0067C57.0893 46.8832 54.8303 51.1763 48.0487 55.2963C47.8782 55.4117 43.3965 58.4686 41.6693 60.0175C39.833 61.6578 36.0899 61.7973 36.0513 61.7997H36.049ZM32.4241 16.3599C31.215 16.3599 29.7855 16.4441 28.3128 16.7135C23.4403 17.6058 20.3267 20.0301 19.0608 23.924C15.9155 33.595 14.6632 38.9271 14.6519 38.98L14.6405 39.0161C14.6314 39.0377 13.8269 41.1278 14.5928 44.1173C15.3041 46.8904 17.5495 51.0272 24.2107 54.9908C24.4107 55.1231 28.9037 58.1271 30.6946 59.6976C32.3809 61.1816 35.8967 61.3139 36.0445 61.3187C36.0717 61.3187 39.6557 61.184 41.3716 59.6495C43.1465 58.0573 47.6146 55.0173 47.8032 54.8874L47.8123 54.8802C51.4713 52.6579 56.0939 48.954 57.3393 43.9177C58.0802 40.9209 57.2575 38.8381 57.2484 38.8165L57.2371 38.7804C57.2234 38.7275 55.928 33.405 52.7054 23.7653C49.5827 14.4334 36.4467 16.4922 35.8899 16.5836L35.8558 16.5884L35.8217 16.5836C35.7308 16.5692 34.3581 16.3551 32.4241 16.3551V16.3599Z" fill="black"/>
<path d="M40.7896 23.1268C40.7896 23.1268 47.6371 26.0911 47.878 20.2227L40.7896 23.1268Z" fill="black"/>
<path d="M44.262 24.1189C42.5098 24.1189 40.8076 23.3952 40.703 23.3495C40.6167 23.3135 40.5621 23.2221 40.5621 23.126C40.5621 23.0274 40.6212 22.9384 40.7076 22.9048L47.796 20.0006C47.8688 19.9718 47.9483 19.9814 48.0097 20.0295C48.071 20.0775 48.1074 20.1545 48.1051 20.2362C48.0415 21.7676 47.5369 22.8663 46.6006 23.4986C45.9165 23.9626 45.0825 24.1213 44.262 24.1213V24.1189ZM41.4462 23.1163C42.5257 23.4794 44.8847 24.0876 46.3552 23.0899C47.0824 22.5971 47.5097 21.7532 47.6233 20.5824L41.4439 23.1139L41.4462 23.1163Z" fill="black"/>
<path d="M31.2056 23.1268C31.2056 23.1268 24.3581 26.0911 24.1172 20.2227L31.2056 23.1268Z" fill="black"/>
<path d="M27.733 24.1174C26.9102 24.1174 26.0785 23.9587 25.3944 23.4947C24.458 22.8624 23.9535 21.7637 23.8899 20.2323C23.8876 20.1506 23.9217 20.0736 23.9853 20.0255C24.049 19.9775 24.1285 19.9678 24.199 19.9967L31.2874 22.9009C31.3738 22.9369 31.4306 23.0235 31.4329 23.1221C31.4329 23.2206 31.3783 23.3096 31.2919 23.3456C31.1874 23.3913 29.4852 24.1149 27.733 24.1149V24.1174ZM24.3694 20.5833C24.4853 21.7541 24.9103 22.598 25.6398 23.0908C27.1125 24.0885 29.4715 23.4779 30.5488 23.1148L24.3694 20.5833Z" fill="black"/>
<path d="M26.4669 21.1836L29.1305 22.2751C29.1305 22.2751 26.9578 24.1719 26.4669 21.1836Z" fill="#F2F0DC"/>
<path d="M27.765 23.1113C27.6127 23.1113 27.4604 23.0872 27.3127 23.0295C26.765 22.8156 26.4059 22.2097 26.2446 21.2289L26.1764 20.8105L29.5786 22.2049L29.2786 22.467C29.2422 22.4982 28.5263 23.1161 27.7673 23.1161L27.765 23.1113ZM26.7832 21.5726C26.9286 22.1184 27.1605 22.455 27.4695 22.5776C27.865 22.7338 28.3332 22.5247 28.6445 22.3348L26.7832 21.5726Z" fill="black"/>
<path d="M43.0281 22.3702L45.6666 21.209C45.6666 21.209 45.3394 24.1709 43.0281 22.3702Z" fill="#F2F0DC"/>
<path d="M44.3421 23.1933C43.9148 23.1933 43.4307 22.9842 42.8944 22.5659L42.5717 22.3134L45.9375 20.8301L45.892 21.2388C45.8852 21.2965 45.7238 22.6812 44.8443 23.0851C44.6875 23.1573 44.5193 23.1933 44.3421 23.1933ZM43.508 22.4216C43.9716 22.7077 44.358 22.7846 44.6602 22.6452C45.0466 22.4673 45.2511 21.9744 45.3511 21.609L43.508 22.4216Z" fill="black"/>
<path d="M35.9962 27.8984C35.9962 27.8984 35.9553 35.222 26.4782 35.1595C26.4782 35.1595 25.7283 55.5404 35.9962 55.7328C46.2641 55.9252 45.4277 35.1547 45.4277 35.1547C45.4277 35.1547 36.7712 37.1317 35.9962 27.8984Z" fill="#DB5632"/>
<path d="M36.1372 56.0975C36.0895 56.0975 36.0395 56.0975 35.9918 56.0975C33.8964 56.059 32.0896 55.2052 30.6215 53.5601C28.5556 51.2464 27.1738 47.4391 26.5148 42.244C26.0261 38.4007 26.1375 35.1802 26.1398 35.1465C26.1466 34.9517 26.2966 34.8002 26.4807 34.8002C26.5261 34.8002 26.5625 34.8002 26.6034 34.8002C35.4918 34.8002 35.6554 28.1813 35.6577 27.8975C35.6577 27.7051 35.8032 27.5488 35.985 27.5392C36.1668 27.5344 36.3213 27.6763 36.3372 27.8663C36.5554 30.4638 37.4372 32.3831 38.9576 33.5688C41.6007 35.6276 45.3211 34.8098 45.3574 34.8026C45.4552 34.781 45.5574 34.8026 45.637 34.87C45.7165 34.9349 45.7642 35.0335 45.7688 35.1393C45.7915 35.6781 46.2438 48.4107 41.3007 53.7765C39.8803 55.3158 38.144 56.0975 36.1372 56.0975ZM26.8125 35.5217C26.7852 37.5829 26.8557 48.2905 31.1169 53.0646C32.4555 54.563 34.0987 55.3398 36.0031 55.3759C37.8804 55.4168 39.4962 54.7049 40.8121 53.2763C45.0688 48.6585 45.1324 37.8306 45.0984 35.5843C44.0052 35.7526 40.9371 36.01 38.5531 34.1532C37.2849 33.1647 36.419 31.7337 35.9668 29.889C35.7782 30.4638 35.4963 31.1132 35.0714 31.7626C33.0941 34.781 29.5556 35.4881 26.8125 35.5217Z" fill="black"/>
<path d="M33.2106 26.2387C32.5924 25.104 33.3674 23.6855 34.6083 23.6855H37.3946C38.6332 23.6904 39.4059 25.1112 38.7854 26.2435L38.0877 27.5177L37.39 28.7919C36.7696 29.9266 35.2196 29.9242 34.6014 28.7895L33.906 27.5129L33.2106 26.2363V26.2387Z" fill="#DB5632"/>
<path d="M35.9942 30.0068H35.9919C35.2874 30.0068 34.6556 29.6197 34.3034 28.973L32.9125 26.4198C32.5602 25.7731 32.5625 25.0014 32.9148 24.3571C33.267 23.7128 33.8988 23.3281 34.6033 23.3281H37.3919C38.0964 23.3329 38.7282 23.72 39.0805 24.3643C39.4328 25.011 39.4305 25.7827 39.0782 26.427L37.6828 28.9778C37.3305 29.6221 36.6987 30.0068 35.9942 30.0068ZM34.6033 24.047C34.1443 24.047 33.7352 24.297 33.5056 24.7177C33.2761 25.1384 33.2761 25.6385 33.5056 26.0592L34.8965 28.6124C35.1261 29.0331 35.5351 29.2831 35.9942 29.2855C36.4533 29.2855 36.8624 29.0355 37.0919 28.6148L38.4873 26.064C38.7169 25.6433 38.7169 25.1432 38.4873 24.7225C38.2578 24.3018 37.8487 24.0518 37.3896 24.0494H34.6033V24.047Z" fill="black"/>
<path d="M27.8671 46.9919C27.8671 46.9919 29.9829 44.0709 35.9214 44.0012C41.8599 43.9315 44.0439 46.9919 44.0439 46.9919C44.0439 46.9919 42.5417 55.6131 35.9555 55.9617C29.3693 56.3103 27.8671 46.9919 27.8671 46.9919Z" fill="black"/>
<path d="M35.6007 56.3328C29.1032 56.3328 27.5464 47.1491 27.5328 47.0529C27.5169 46.9544 27.5396 46.8534 27.5987 46.7741C27.6896 46.6491 29.885 43.7136 35.9189 43.6439C41.9506 43.5694 44.2232 46.6467 44.3164 46.7765C44.3732 46.8582 44.3959 46.9592 44.38 47.0602C44.3641 47.1491 42.7505 55.9674 35.9734 56.3232C35.8484 56.3304 35.7235 56.3328 35.6007 56.3328ZM28.235 47.0962C28.4759 48.3175 30.2077 55.9049 35.9394 55.602C41.6824 55.2991 43.4255 48.267 43.6755 47.0914C43.471 46.8558 42.9392 46.3053 42.0051 45.7643C40.8688 45.1056 38.8893 44.3243 35.9257 44.3627C30.8963 44.4204 28.6986 46.5673 28.235 47.0962Z" fill="black"/>
<path d="M32.0651 34C32.0651 34 30.3742 34.8487 29.1947 34.9977C28.0152 35.1468 31.1265 39.4165 31.8037 39.5174C32.481 39.6184 32.0651 34.0024 32.0651 34.0024V34Z" fill="#F2F0DC"/>
<path d="M31.8214 39.8783C31.7987 39.8783 31.7782 39.8783 31.7555 39.8735C31.2123 39.7941 30.2624 38.532 29.8783 37.991C29.4897 37.4453 28.5874 36.0918 28.5965 35.3201C28.601 34.9426 28.8124 34.6806 29.1533 34.6373C30.2669 34.4955 31.9032 33.6805 31.9191 33.6708L32.3669 33.4473L32.4055 33.969C32.5464 35.885 32.7032 39.1835 32.1487 39.734C32.0555 39.8254 31.9419 39.8759 31.8214 39.8759V39.8783ZM29.276 35.3489C29.2828 35.5677 29.5169 36.2433 30.2965 37.3756C30.8942 38.2459 31.451 38.8541 31.7282 39.0753C31.8941 38.455 31.8782 36.426 31.7601 34.5387C31.1714 34.8032 30.1215 35.2335 29.276 35.3513V35.3489Z" fill="black"/>
<path d="M39.2828 34.3789C39.2828 34.3789 40.9214 35.0689 42.0395 35.2252C43.1577 35.3814 40.2328 39.6295 39.5919 39.7257C38.951 39.8218 39.2805 34.3789 39.2805 34.3789H39.2828Z" fill="#F2F0DC"/>
<path d="M39.5779 40.0884C39.462 40.0884 39.3507 40.0404 39.2597 39.9514C39.0279 39.7254 38.6802 38.6965 38.9438 34.3546L38.9734 33.8594L39.4097 34.0421C39.4256 34.0493 41.0233 34.7176 42.0869 34.8667C42.4187 34.9124 42.6256 35.1792 42.6278 35.5591C42.6324 36.6626 40.4574 39.961 39.6438 40.0812C39.6211 40.0836 39.6006 40.086 39.5779 40.086V40.0884ZM39.5984 34.8907C39.5075 36.7155 39.5166 38.6772 39.6779 39.2879C40.3188 38.7662 41.9983 36.2202 41.9528 35.5783C41.1597 35.4581 40.162 35.1071 39.5984 34.8907Z" fill="black"/>
<path d="M33.4536 55.5834C33.3218 55.6627 31.8604 54.8285 31.4218 54.3116C30.9468 53.7539 32.8081 51.619 33.2468 51.5421C33.6854 51.4651 33.4536 55.5834 33.4536 55.5834Z" fill="#F2F0DC"/>
<path d="M33.4556 55.8184C32.9647 55.8184 31.5671 54.8424 31.2512 54.4721C31.0966 54.2894 31.0739 54.0298 31.1853 53.6956C31.4784 52.8061 32.7443 51.3877 33.2079 51.3035C33.2988 51.2867 33.3897 51.3155 33.4625 51.3853C33.8374 51.7411 33.7579 54.1764 33.6784 55.5973L33.6715 55.7271L33.5647 55.792C33.5375 55.8088 33.4988 55.816 33.4556 55.816V55.8184ZM33.1875 51.8276C32.8102 52.08 31.8102 53.1811 31.6011 53.8927C31.558 54.0418 31.5671 54.1259 31.5898 54.15C31.9148 54.5322 32.817 55.0804 33.242 55.2751C33.3125 53.8375 33.3079 52.2724 33.1875 51.8252V51.8276Z" fill="black"/>
<path d="M38.4582 55.4174C38.59 55.4967 40.0513 54.6625 40.4899 54.1456C40.9649 53.5879 39.1036 51.453 38.665 51.3761C38.2264 51.2991 38.4582 55.4174 38.4582 55.4174Z" fill="#F2F0DC"/>
<path d="M38.4531 55.6511C38.4099 55.6511 38.3713 55.6439 38.344 55.6271L38.2372 55.5621L38.2304 55.4323C38.1508 54.0115 38.0713 51.5761 38.4463 51.2203C38.519 51.1506 38.6099 51.1241 38.7008 51.1386C39.1644 51.2227 40.4326 52.6411 40.7235 53.5307C40.8326 53.8648 40.8121 54.1269 40.6576 54.3072C40.3439 54.6774 38.9463 55.6535 38.4531 55.6535V55.6511ZM38.7213 51.6627C38.6008 52.1098 38.5985 53.6749 38.6667 55.1102C39.0917 54.9154 39.994 54.3673 40.3189 53.985C40.3417 53.9586 40.3508 53.8769 40.3076 53.7278C40.0985 53.0162 39.1031 51.9175 38.7213 51.6627Z" fill="black"/>
</svg>
