<svg width="242" height="290" viewBox="0 0 242 290" fill="none" xmlns="http://www.w3.org/2000/svg">
<rect y="131" width="242" height="159" rx="25" fill="black"/>
<path fill-rule="evenodd" clip-rule="evenodd" d="M125.711 215.16C132.27 212.979 137 206.792 137 199.5C137 190.387 129.613 183 120.5 183C111.387 183 104 190.387 104 199.5C104 207.103 109.143 213.506 116.14 215.418L102.813 238.5H139.187L125.711 215.16Z" fill="#F09B5C"/>
<path fill-rule="evenodd" clip-rule="evenodd" d="M120.5 0C68.8614 0 27 41.8614 27 93.5V173H73V97C73 70.4903 94.4903 49 121 49C147.51 49 169 70.4903 169 97V134H214V93.5C214 41.8614 172.139 0 120.5 0Z" fill="black"/>
</svg>
