<svg width="394" height="479" viewBox="0 0 394 479" fill="none" xmlns="http://www.w3.org/2000/svg">
<path fill-rule="evenodd" clip-rule="evenodd" d="M117.972 4.63868C48.6216 23.2211 7.46589 94.5049 26.0483 163.856L48.0479 245.959L105.038 230.689L84.4615 153.898C74.2411 115.755 96.8768 76.5489 135.02 66.3285C173.162 56.1082 212.369 78.7438 222.589 116.887L233.071 156.007L289.095 140.995L277.189 96.5626C258.607 27.212 187.323 -13.9438 117.972 4.63868Z" fill="black"/>
<rect x="2.64941" y="258.125" width="353" height="241" rx="54" transform="rotate(-15 2.64941 258.125)" fill="black"/>
<circle cx="202.373" cy="313.83" r="28.5" transform="rotate(-15 202.373 313.83)" fill="#FC944D"/>
<path d="M204.935 329.192L240.453 364.709L191.935 377.709L204.935 329.192Z" fill="#FC944D"/>
</svg>
