<svg width="278" height="91" viewBox="0 0 278 91" fill="none" xmlns="http://www.w3.org/2000/svg">
<path d="M1.49062 84.8127C1.49062 84.8127 27.4128 88.1227 47.7164 73.3417C68.0201 58.5667 102.643 28.9088 121.717 31.4992C121.717 31.4992 130.52 22.5766 147.771 23.2902C147.771 23.2902 161.467 11.2735 207.687 16.3704C253.907 21.4673 270.924 6.24259 276.879 0.923828C276.879 0.923828 271.458 16.3824 243.167 23.7639C214.877 31.1514 178.143 24.3216 158.607 40.4997C158.607 40.4997 148.671 64.1973 125.351 51.6949C125.351 51.6949 105.161 49.0985 81.29 64.617C57.4185 80.1355 23.4432 97.6808 1.48462 84.8187L1.49062 84.8127Z" fill="#F0AFAF"/>
<path d="M19.2577 90.1565C12.308 90.1565 6.23366 88.6394 1.03483 85.5933C0.663056 85.3774 0.501152 84.9337 0.639068 84.5259C0.776984 84.1242 1.18474 83.8723 1.60449 83.9263C1.86233 83.9623 27.4187 87.0084 47.1887 72.6232C50.5107 70.2067 54.2344 67.3764 58.174 64.3782C77.9799 49.3274 105.035 28.748 121.411 30.5588C123.186 28.9398 131.863 21.8522 147.484 22.3858C148.509 21.6123 152.251 19.0938 160.184 17.0551C168.651 14.8784 183.785 12.8337 207.795 15.484C253.613 20.539 270.678 5.27826 276.291 0.259325C276.597 -0.016507 277.053 -0.0464894 277.388 0.181372C277.73 0.409233 277.874 0.84097 277.736 1.22474C277.676 1.39263 276.255 5.34422 271.272 10.2193C266.733 14.6625 258.212 20.7728 243.407 24.6405C232.578 27.4647 220.471 28.2323 208.76 28.9698C189.476 30.1871 171.253 31.3384 159.356 41.0584C158.661 42.6115 154.199 51.8159 144.935 55.1019C138.933 57.2306 132.259 56.3791 125.087 52.5714C124.182 52.4815 119.409 52.0917 112.339 53.237C105.113 54.4063 93.9482 57.4584 81.7876 65.3676C56.4051 81.8696 35.4778 90.1505 19.2577 90.1505V90.1565ZM5.93385 85.9891C22.7356 92.693 47.8843 85.2635 80.8042 63.8625C104.676 48.344 124.631 50.6946 125.471 50.8025C125.579 50.8145 125.687 50.8505 125.783 50.9044C132.541 54.5262 138.777 55.3717 144.317 53.4109C153.474 50.1729 157.743 40.2549 157.785 40.153C157.839 40.0211 157.929 39.9011 158.043 39.8112C170.384 29.5934 188.966 28.4182 208.64 27.1769C220.267 26.4454 232.29 25.6838 242.945 22.9015C257.289 19.1538 265.522 13.2954 269.905 9.03197C271.44 7.53888 272.621 6.13574 273.521 4.91848C265.048 11.4065 246.405 21.5523 207.585 17.271C162.283 12.27 148.497 23.8549 148.359 23.9749C148.185 24.1248 147.975 24.2027 147.729 24.1967C131.143 23.5071 122.437 32.0519 122.347 32.1359C122.149 32.3338 121.867 32.4297 121.585 32.3937C106.013 30.277 78.9813 50.8145 59.2473 65.8113C55.2958 68.8155 51.566 71.6518 48.2321 74.0743C32.9534 85.1915 14.3707 86.1989 5.92185 85.9891H5.93385Z" fill="black"/>
</svg>
