<svg width="314" height="518" viewBox="0 0 314 518" fill="none" xmlns="http://www.w3.org/2000/svg">
<path d="M219.854 491.705C271.628 477.712 310.445 454.702 306.556 440.311C302.667 425.921 257.543 425.598 205.769 439.591C153.995 453.584 115.177 476.594 119.067 490.985C122.956 505.375 168.08 505.698 219.854 491.705Z" fill="#2D6076"/>
<path d="M214.867 186.357C206.06 174.45 202.255 170.711 189.441 164.654C180.375 160.366 168.016 157.751 163.184 155.38C158.352 153.009 155.802 143.577 154.204 137.662L139.411 82.9293C139.01 81.4441 141.614 80.7403 141.216 79.2681L135.617 58.5529C135.216 57.0677 136.518 56.7158 135.718 53.7584C134.919 50.8009 134.015 52.625 133.216 49.6676C132.416 46.7101 128.818 33.3951 125.917 27.8321C123.016 22.2691 95.2728 28.1737 95.2728 28.1737C95.2728 28.1737 68.3321 37.0487 68.6287 43.3155C68.9253 49.5823 72.524 62.8973 73.3233 65.8548C74.1226 68.8122 72.4227 67.6919 73.2221 70.6494C74.0214 73.6068 75.3234 73.2549 75.7248 74.7402L81.3235 95.4553C81.7249 96.9406 84.329 96.2368 84.7269 97.709L99.5195 152.441C101.118 158.356 103.667 167.789 100.688 172.271C97.7076 176.753 88.3489 185.238 82.6767 193.509C74.6586 205.197 73.2553 210.343 71.646 225.066C70.2478 237.83 70.8359 242.746 74.4346 256.061L130.806 464.633C133.204 473.505 139.008 484.644 151.924 485.907C164.843 487.183 216.628 477.185 216.628 477.185C216.628 477.185 266.396 459.722 276.917 452.125C287.434 444.515 286.841 431.982 284.443 423.109L228.072 214.537C224.473 201.222 222.508 196.693 214.867 186.357Z" fill="#D2D4D3"/>
<path d="M217.163 479.165L217.02 479.204C214.891 479.597 164.793 489.223 151.734 487.943C136.793 486.473 130.983 473.043 128.856 465.174L72.4853 256.602C68.8937 243.313 68.1771 238.18 69.6367 224.868C71.2812 209.759 72.7974 204.358 81.0066 192.395C84.3042 187.589 88.683 182.855 92.5519 178.664C95.3762 175.622 97.8057 172.98 99.0079 171.173C101.482 167.457 98.9399 158.05 97.5737 152.995L82.8903 98.6667C82.7685 98.6297 82.6337 98.5963 82.5285 98.5688C81.611 98.3275 79.8848 97.8853 79.3778 96.0092L73.779 75.294C73.7449 75.2194 73.5949 75.0781 73.4887 74.995C72.6858 74.2474 71.8502 73.3269 71.2798 71.2163C70.7798 69.3662 70.9771 68.3902 71.4654 67.4055C71.4939 67.3558 71.5093 67.3097 71.5378 67.2601C71.5378 67.2601 71.5501 67.047 71.3846 66.4347C68.469 55.6472 66.825 47.7034 66.6294 43.4644C66.2918 36.4258 86.1267 29.1218 94.6583 26.3126L94.7625 26.2845L94.8666 26.2563C103.665 24.3817 124.466 20.7031 127.72 26.9535C129.69 30.7269 132.271 38.4173 135.183 49.1918C135.356 49.8302 135.486 50.0045 135.486 50.0045C135.503 50.014 135.553 50.0425 135.602 50.0711C136.52 50.6758 137.186 51.4325 137.682 53.2695C138.253 55.3801 137.995 56.5963 137.678 57.6465C137.631 57.7849 137.582 57.9659 137.57 58.025L143.176 78.7663C143.683 80.6424 142.428 81.8904 141.744 82.5645C141.667 82.6413 141.567 82.7381 141.481 82.8314L156.164 137.16C157.53 142.215 160.073 151.621 164.082 153.585C166.031 154.541 169.457 155.586 173.433 156.804C178.883 158.463 185.054 160.36 190.323 162.85C203.444 169.062 207.475 172.963 216.503 185.174C224.474 195.952 226.437 200.734 230.028 214.023L286.399 422.594C288.526 430.464 290.283 444.975 278.107 453.788C267.47 461.472 219.348 478.407 217.307 479.126L217.163 479.165ZM83.1711 94.5366C83.2929 94.5736 83.4277 94.6071 83.5329 94.6345C84.4634 94.8724 86.1765 95.318 86.6836 97.1941L101.476 151.926C103.223 158.389 105.864 168.16 102.378 173.408C100.998 175.486 98.4688 178.225 95.526 181.397C91.7531 185.478 87.4704 190.103 84.3448 194.666C76.4667 206.148 75.2119 211.017 73.6496 225.293C72.3224 237.493 72.7198 242.013 76.3748 255.537L132.746 464.109C134.602 470.975 139.579 482.673 152.108 483.9C164.25 485.092 213.032 475.822 216.087 475.234C219.022 474.203 265.819 457.641 275.721 450.491C285.925 443.119 284.333 430.506 282.477 423.641L226.106 215.069C222.451 201.545 220.527 197.424 213.225 187.57C204.684 176.024 201.147 172.451 188.558 166.501C183.559 164.133 177.529 162.295 172.214 160.67C168.087 159.409 164.51 158.321 162.271 157.221C156.619 154.456 153.979 144.685 152.229 138.21L137.436 83.4772C136.929 81.6011 138.184 80.3531 138.868 79.6789C138.945 79.6022 139.045 79.5054 139.131 79.4121L133.642 59.1008C133.325 57.9282 133.589 57.0459 133.768 56.4664C133.928 55.9199 134.064 55.4918 133.747 54.3192C133.574 53.6808 133.443 53.5065 133.443 53.5065C133.427 53.497 133.377 53.4685 133.327 53.44C132.41 52.8353 131.744 52.0785 131.244 50.2284C128.445 39.8709 125.914 32.2647 124.11 28.7958C122.972 26.601 109.485 27.2544 95.7822 30.161C82.4941 34.5492 70.514 40.7789 70.6235 43.2517C70.8128 47.1569 72.4582 55.0024 75.2575 65.36C75.7576 67.21 75.5603 68.186 75.0755 69.1838C75.047 69.2335 75.0316 69.2796 75.0031 69.3292C75.0031 69.3292 74.9908 69.5422 75.1563 70.1546C75.4732 71.3271 75.8097 71.6416 76.2193 72.0202C76.6656 72.4308 77.3386 73.0598 77.6555 74.2323L83.1451 94.5436L83.1711 94.5366Z" fill="black"/>
<path d="M90.0724 114.592C90.0724 114.592 110.896 106.657 119.061 105.849C127.225 105.04 143.908 100.601 143.908 100.601L139.418 82.9555L141.223 79.2943L135.624 58.5791L135.726 53.7845L133.223 49.6937L125.924 27.8583L102.009 28.1287C97.5927 28.1759 93.2701 29.3442 89.4314 31.528L68.6358 43.3417L73.2292 70.6756L77.8 78.5412L81.3271 95.4685L84.7305 97.7221L90.0724 114.592Z" fill="#725D2D"/>
<path d="M146.35 102.038L144.423 102.559C143.733 102.746 127.485 107.039 119.253 107.852C111.454 108.618 90.9936 116.398 90.7923 116.481L88.7915 117.245L83.0112 99.0117L79.5051 96.688L75.8832 79.2551L71.2888 71.3539L66.4035 42.2675L88.4225 29.7597C92.5525 27.4133 97.2397 26.1464 101.976 26.0965L127.367 25.8048L135.055 48.8213L137.753 53.2227L137.648 58.3119L143.37 79.4831L141.555 83.1609L146.347 102.025L146.35 102.038ZM111.177 105.421C114.146 104.619 116.846 104.015 118.861 103.82C125.148 103.197 136.845 100.315 141.442 99.1288L137.271 82.7113L139.066 79.0666L133.59 58.8074L133.691 54.3206L131.311 50.3224L124.474 29.8859L102.034 30.1351C97.9812 30.182 93.958 31.2694 90.4332 33.2705L70.8741 44.3865L75.1719 69.9549L79.7322 77.7815L83.1551 94.2196L86.4592 96.4162L91.3793 111.932C95.2648 110.491 103.99 107.364 111.203 105.414L111.177 105.421Z" fill="black"/>
<path d="M85.4689 33.5637L107.384 124.677C107.384 124.677 114.598 125.523 119.806 124.115C125.014 122.708 134.726 117.287 134.726 117.287L108.5 27.0735L95.2271 28.0045L85.4689 33.5637Z" fill="#F1B0B0"/>
<path d="M120.334 126.069C114.814 127.561 107.462 126.724 107.144 126.684L105.744 126.517L83.1431 32.5559L94.6329 26.0114L109.99 24.9364L137.127 118.259L135.718 119.045C135.317 119.265 125.721 124.599 120.344 126.052L120.334 126.069ZM109.01 122.782C111.261 122.943 115.815 123.096 119.278 122.16C123.041 121.143 129.488 117.807 132.331 116.283L107.009 29.2091L95.8346 29.9925L87.795 34.57L109.023 122.779L109.01 122.782Z" fill="black"/>
<path d="M144.844 176.484C145.396 174.391 147.405 173.037 149.547 173.311C156.238 174.187 170.339 176.891 179.693 184.722C188.175 191.81 195.679 202.308 199.712 208.446C201.307 210.881 200.058 214.168 197.245 214.928L186.868 217.733C184.525 218.366 182.06 216.949 181.517 214.579C180.75 211.222 178.834 206.203 174.1 200.213C167.729 192.149 161.817 190.951 156.854 188.098C153.53 186.187 149.928 185.008 147.238 184.309C144.939 183.713 143.553 181.376 144.16 179.073L144.84 176.471L144.844 176.484Z" fill="#F3F1DD"/>
<path d="M177.263 175.368C176.917 174.246 177.852 173.154 179.017 173.329C182.439 173.844 188.541 175.018 191.66 177.307C196.518 180.859 201.079 185.847 203.405 188.56C204.162 189.446 203.736 190.819 202.617 191.122L195.716 192.987C195.052 193.166 194.353 192.908 193.973 192.326C192.257 189.7 187.376 182.547 184.236 181.061C181.944 179.975 180.346 179.54 179.424 179.384C178.836 179.277 178.347 178.864 178.176 178.281L177.276 175.365L177.263 175.368Z" fill="#F3F1DD"/>
<path d="M78.2827 267.869C78.2827 267.869 119.01 264.048 159.789 253.026C200.567 242.005 231.386 226.49 231.386 226.49L264.887 350.442C264.887 350.442 221.208 370.635 193.24 376.796C165.272 382.957 111.586 391.092 111.586 391.092L78.2827 267.869Z" fill="#DC5632"/>
<path d="M200.382 377.115C198.064 377.741 195.824 378.291 193.677 378.773C165.96 384.88 112.428 393.016 111.893 393.104L110.109 393.377L75.7063 266.089L78.0904 265.864C78.4986 265.824 119.132 261.916 159.26 251.07C199.388 240.225 230.173 224.844 230.478 224.678L232.691 223.563L267.283 351.554L265.73 352.267C265.321 352.462 228.033 369.627 200.378 377.102L200.382 377.115ZM113.067 388.816C122.616 387.34 168.077 380.254 192.803 374.815C217.304 369.424 254.481 352.931 262.486 349.313L230.074 229.387C222.25 233.109 194.638 245.703 160.317 254.979C125.996 264.255 90.1969 268.632 80.8588 269.646L113.071 388.829L113.067 388.816Z" fill="black"/>
<path d="M128.414 327.015C128.046 323.535 128.484 319.726 130.507 316.873C130.717 316.565 130.943 316.727 130.605 316.721C130.196 316.705 130.78 316.953 130.63 316.812C131.22 317.393 131.736 318.009 132.188 318.697C133.354 320.479 134.07 322.355 134.467 324.442C134.776 326.051 136.691 326.987 138.189 326.582C139.881 326.125 140.625 324.484 140.326 322.859C139.572 318.673 138.821 314.5 138.067 310.314C137.69 308.249 137.349 306.16 136.947 304.102C136.563 302.165 135.888 300.236 134.396 298.85C131.814 296.43 127.757 296.464 124.802 298.144C121.53 299.993 119.926 303.725 119.05 307.206C118.092 311.001 123.956 312.59 124.914 308.794C125.459 306.62 126.275 304.162 128.175 303.23C127.695 303.471 129.262 302.964 128.724 303.039C128.978 302.998 129.247 303.01 129.499 303.012C129.81 303.025 129.285 302.944 129.774 303.049C130.264 303.154 129.777 303.006 130.035 303.132C130.213 303.224 130.51 303.549 130.27 303.279C130.627 303.671 130.73 304.105 130.868 304.613C131.681 307.776 132.075 311.095 132.65 314.309C133.254 317.682 133.862 321.069 134.48 324.439L140.339 322.855C139.403 317.894 134.945 308.376 128.421 311.118C125.487 312.358 124.034 315.463 123.164 318.34C122.293 321.218 122.037 324.097 122.354 326.975C122.529 328.606 123.61 330.019 125.373 330.032C126.869 330.033 128.606 328.655 128.427 327.011L128.414 327.015Z" fill="#F3F1DD"/>
<path d="M137.5 332.976C137.485 332.561 137.452 333.213 137.434 333.302C137.373 333.542 137.279 333.763 137.102 333.936C136.933 334.136 136.904 334.186 137.013 334.072C137.254 333.826 136.465 334.472 136.766 334.293C137.089 334.094 136.127 334.619 136.467 334.43C136.545 334.409 136.623 334.387 136.702 334.366L136.232 334.437C136.631 334.413 136.054 334.401 135.949 334.374C136.341 334.478 135.784 334.279 135.701 334.231C136.181 334.507 135.338 333.868 135.628 334.167C135.898 334.444 135.43 333.745 135.581 334.096C135.628 334.167 135.659 334.229 135.706 334.3C135.818 334.507 135.783 334.433 135.649 334.091C135.795 334.164 135.877 334.883 135.906 335.043C135.936 335.202 135.968 335.375 135.998 335.535C136.144 336.334 135.952 335.058 136.019 335.613C136.06 336.077 136.124 336.521 136.166 336.985C136.529 340.55 136.673 344.132 136.624 347.724C136.605 349.309 138.012 350.844 139.643 350.781C141.275 350.717 142.667 349.46 142.697 347.761C142.733 345.36 142.68 342.942 142.536 340.548C142.392 338.155 142.297 335.58 141.732 333.23C141.117 330.698 139.202 328.42 136.436 328.371C133.893 328.317 131.322 330.228 131.43 332.953C131.493 334.53 132.762 336.074 134.449 336.01C136.038 335.944 137.572 334.69 137.503 332.989L137.5 332.976Z" fill="#F3F1DD"/>
<path d="M150.134 297.842C150.487 297.858 150.497 297.841 150.14 297.812C150.475 297.917 150.472 297.904 150.133 297.786C150.421 297.974 150.43 297.957 150.165 297.749C150.308 297.864 150.437 297.983 150.558 298.118C150.782 298.379 150.799 298.389 150.604 298.134C150.691 298.25 150.765 298.37 150.84 298.49C151.015 298.778 151.165 299.073 151.328 299.364C151.475 299.702 151.491 299.711 151.364 299.396C151.44 299.572 151.502 299.751 151.564 299.929C151.73 300.388 151.857 300.857 151.993 301.309C152.232 302.195 152.442 303.075 152.613 303.966C152.948 305.721 153.097 307.512 153.096 309.371C153.091 310.281 153.059 311.199 152.982 312.1C152.946 312.487 152.918 312.9 152.863 313.265C152.822 313.527 152.791 313.774 152.737 314.04C152.554 314.705 152.775 314.491 153.396 313.428L154.959 313.006C155.671 313.317 155.799 313.324 155.349 313.054C155.197 312.956 155.054 312.841 154.914 312.738C154.722 312.595 154.506 312.415 154.24 312.208C153.681 311.744 153.132 311.263 152.593 310.766C151.437 309.694 150.355 308.533 149.379 307.3C147.77 305.275 146.003 302.201 145.082 299.878C144.473 298.351 143.065 297.277 141.36 297.738C139.915 298.129 138.611 299.921 139.223 301.462C141.856 308.103 146.298 314.354 152.341 318.313C154.651 319.828 157.597 318.891 158.469 316.223C159.044 314.474 159.099 312.404 159.162 310.57C159.29 306.803 158.807 302.949 157.746 299.335C156.686 295.721 154.429 291.816 150.164 291.752C146.25 291.691 146.229 297.765 150.13 297.829L150.134 297.842Z" fill="#F3F1DD"/>
<path d="M160.305 293.861C160.848 293.854 161.141 293.957 161.514 294.303C161.994 294.733 162.258 295.193 162.478 295.749C163.153 297.369 163.362 299.228 163.483 300.915C163.722 304.695 163.128 308.337 161.808 311.881C161.279 313.282 162.302 314.949 163.584 315.455C165.055 316.036 166.493 315.466 167.362 314.182C169.182 311.509 171.174 308.748 174.12 307.239C175.199 306.682 176.534 306.349 177.854 306.426C178.194 306.445 178.283 306.463 178.674 306.567C178.855 306.616 179.023 306.669 179.204 306.718C179.009 306.617 179.075 306.655 179.399 306.819C179.279 306.684 179.295 306.693 179.432 306.838C179.702 307.114 179.634 306.965 179.22 306.364C179.073 305.663 179.83 304.745 180.517 304.699C180.736 304.682 181.563 305.004 181.381 305.053C181.289 305.078 181.078 304.45 181.078 304.45C180.744 303.576 180.578 302.6 180.387 301.687C180.038 300.034 179.813 298.375 179.709 296.697C179.476 293.042 179.707 289.4 180.473 285.824C180.822 284.22 179.978 282.547 178.334 282.096C176.811 281.683 174.954 282.618 174.609 284.236C173.708 288.449 173.342 292.784 173.654 297.09C173.821 299.309 174.125 301.52 174.615 303.694C175.069 305.738 175.59 307.974 177.233 309.403C179.137 311.07 182.088 311.237 183.964 309.443C185.85 307.634 185.547 304.598 183.918 302.76C181.166 299.659 175.943 299.924 172.446 301.358C167.834 303.262 164.812 307.126 162.082 311.136C163.939 311.906 165.795 312.676 167.639 313.45C169.395 308.782 169.952 303.71 169.315 298.766C168.989 296.267 168.506 293.602 167.029 291.499C165.478 289.276 163.086 287.713 160.306 287.766C156.401 287.842 156.367 293.919 160.272 293.842L160.305 293.861Z" fill="#F3F1DD"/>
<path d="M172.073 275.373C171.372 275.828 170.667 276.27 169.943 276.69C169.58 276.899 169.214 277.096 168.845 277.28C168.66 277.372 168.475 277.464 168.287 277.543C168.566 277.439 168.527 277.45 168.17 277.574C167.773 277.709 167.39 277.841 166.982 277.937C166.787 277.99 166.575 278.033 166.373 278.06C166.713 278.024 166.726 278.02 166.399 278.053C166.082 278.069 165.771 278.055 165.45 278.058C165.106 278.025 165.136 278.031 165.513 278.083C165.352 278.056 165.204 278.026 165.04 277.987C164.728 277.917 164.435 277.815 164.141 277.712C164.857 277.98 163.962 277.565 163.817 277.493C163.228 277.176 164.161 277.889 163.71 277.409C163.601 277.313 163.487 277.204 163.387 277.091C163.629 277.418 163.652 277.453 163.451 277.172C163.36 277.043 163.295 276.907 163.217 276.774C163.365 277.167 163.389 277.203 163.275 276.884C163.236 276.741 163.194 276.584 163.155 276.441C163.203 276.876 163.213 276.915 163.19 276.571C163.199 276.345 163.376 275.501 163.177 276.212C163.263 275.909 163.323 275.613 163.438 275.316C163.157 276.035 163.598 275.133 163.671 274.988C163.862 274.712 163.852 274.729 163.612 275.031C163.718 274.905 163.814 274.795 163.923 274.682C164.032 274.568 164.141 274.455 164.267 274.351C163.954 274.589 163.928 274.597 164.199 274.411C164.5 274.232 164.788 274.057 165.099 273.916C164.428 274.224 165.441 273.838 165.598 273.796C165.754 273.754 166.521 273.644 165.829 273.719C166.534 273.641 167.264 273.653 167.972 273.741C167.306 273.656 168.406 273.848 168.511 273.875C168.869 273.96 169.218 274.061 169.561 274.193C169.745 274.255 169.917 274.32 170.105 274.395C169.834 274.272 169.854 274.295 170.184 274.43C170.524 274.603 170.874 274.76 171.214 274.934C172.57 275.658 173.84 276.531 175.109 277.404C176.379 278.277 178.534 277.667 179.25 276.285C180.057 274.725 179.536 273.104 178.13 272.142C175.59 270.396 172.906 268.633 169.844 267.951C166.588 267.223 163.101 267.606 160.425 269.7C157.901 271.682 156.476 275.198 157.371 278.354C158.266 281.509 161.059 283.522 164.144 283.975C168.232 284.575 171.782 282.721 175.127 280.573C176.459 279.71 177.123 277.825 176.196 276.411C175.333 275.079 173.465 274.423 172.037 275.341L172.073 275.373Z" fill="#F3F1DD"/>
<path d="M196.061 290.307C196.902 292.232 197.154 294.457 196.983 296.614C196.91 297.584 196.67 298.558 196.364 299.493C196.188 300.03 195.992 300.391 195.762 300.886C195.533 301.382 195.516 301.009 195.935 301.161C195.457 300.997 195.956 301.24 195.908 301.168L196.126 301.249L195.891 301.103L196.073 301.208C195.856 300.973 195.812 300.915 195.926 301.08C196.089 301.371 195.761 300.831 195.718 300.773C195.613 300.591 195.132 299.589 195.28 299.982C195.057 299.413 194.898 298.827 194.744 298.254C194.107 295.951 193.713 293.667 193.821 291.275C193.907 289.057 194.45 287.191 195.627 285.447C195.977 284.933 196.692 284.166 197.339 283.614C197.465 283.51 197.875 283.218 198.247 282.991C198.438 282.87 198.635 282.775 198.843 282.663C199.662 282.231 198.448 282.755 199.329 282.447C200.951 281.883 202.425 281.96 203.738 282.682C205.245 283.504 206.26 284.726 207.131 286.448C207.168 286.536 207.465 287.168 207.3 286.766C207.427 287.081 207.541 287.399 207.639 287.709C207.809 288.236 207.941 288.773 208.046 289.318C208.269 290.558 208.258 291.861 208.165 293.117C207.975 296.034 207.179 298.877 206.414 301.684C205.397 305.468 211.262 307.057 212.279 303.273C214.031 296.732 215.556 289.707 212.355 283.344C209.634 277.929 203.406 274.425 197.436 276.682C191.15 279.066 187.801 285.283 187.736 291.816C187.708 294.969 188.292 298.264 189.32 301.243C190.349 304.223 192.428 307.212 195.906 307.208C200.222 307.202 202.164 302.344 202.776 298.767C203.455 294.767 202.9 290.905 201.285 287.203C200.628 285.703 198.413 285.365 197.126 286.132C195.569 287.042 195.397 288.781 196.057 290.294L196.061 290.307Z" fill="#F3F1DD"/>
<path d="M230.038 229.411L262.459 349.265L251.585 354.106L219.349 234.215L230.038 229.411Z" fill="#F3F1DD"/>
<path d="M80.8198 269.656L82.0593 274.242C82.0593 274.242 123.262 268.461 152.35 261.172C181.438 253.884 220.92 238.012 220.92 238.012L219.349 234.215C219.349 234.215 179.319 250.85 157.253 255.793C112.888 265.742 80.8198 269.656 80.8198 269.656Z" fill="#F3F1DD"/>
<path d="M111.88 384.525L113.071 388.83C113.071 388.83 132.469 385.852 152.124 382.483C170.846 379.283 189.961 375.57 193.338 374.881C211.795 371.165 252.257 353.854 252.257 353.854L251.213 349.062C251.213 349.062 218.609 363.759 192.615 370.295C177.572 374.082 111.889 384.508 111.889 384.508L111.88 384.525Z" fill="#F3F1DD"/>
<path d="M161.418 355.408C161.418 355.408 170.904 345.896 176.558 336.525C179.374 331.849 183.442 325.395 183.03 328.471C182.729 330.719 180.871 332.633 178.846 335.683C168.409 351.449 167.599 356.309 161.908 358.463C159.842 359.245 159.28 357.579 161.418 355.408Z" fill="#F09B5C"/>
<path d="M166.131 357.546C166.131 357.546 167.732 354.737 172.134 353.24C176.535 351.743 177.679 351.839 177.679 351.839C177.679 351.839 176.509 354.797 175.064 356.069C173.336 357.584 172.889 357.998 170.184 358.534C167.136 359.148 166.131 357.546 166.131 357.546Z" fill="#F09B5C"/>
<path d="M161.297 353.721C161.297 353.721 163.27 351.147 162.939 346.511C162.608 341.875 162.081 340.857 162.081 340.857C162.081 340.857 159.808 343.093 159.195 344.908C158.471 347.089 158.262 347.663 158.812 350.366C159.426 353.416 161.297 353.721 161.297 353.721Z" fill="#F09B5C"/>
<path d="M172.506 348.721C172.506 348.721 174.867 345.776 180.196 344.867C185.521 343.945 186.823 344.264 186.823 344.264C186.823 344.264 184.934 347.459 183.046 348.641C180.793 350.074 180.198 350.459 176.978 350.588C173.372 350.738 172.489 348.712 172.489 348.712L172.506 348.721Z" fill="#F09B5C"/>
<path d="M168.059 345.813C168.059 345.813 170.095 342.075 168.763 336.116C167.432 330.157 166.519 328.949 166.519 328.949C166.519 328.949 164.015 332.296 163.581 334.776C163.072 337.752 162.92 338.534 164.163 341.945C165.575 345.771 168.059 345.813 168.059 345.813Z" fill="#F09B5C"/>
<path d="M177.025 340.887C177.025 340.887 179.394 338.023 184.662 337.201C189.931 336.378 191.21 336.717 191.21 336.717C191.21 336.717 189.3 339.834 187.431 340.982C185.19 342.357 184.592 342.728 181.429 342.814C177.865 342.91 177.041 340.896 177.041 340.896L177.025 340.887Z" fill="#F09B5C"/>
<path d="M182.518 333.558C182.518 333.558 184.12 330.749 188.522 329.251C192.923 327.754 194.067 327.851 194.067 327.851C194.067 327.851 192.896 330.809 191.452 332.08C189.724 333.596 189.277 334.01 186.571 334.546C183.524 335.16 182.518 333.558 182.518 333.558Z" fill="#F09B5C"/>
<path d="M182.947 326.564C182.947 326.564 183.085 324.849 186.641 320.897C190.197 316.944 192.682 316.16 192.682 316.16C192.682 316.16 193.662 319.376 192.923 321.449C192.042 323.924 190.414 326.741 188.246 327.662C184.974 329.05 182.947 326.564 182.947 326.564Z" fill="#F09B5C"/>
<path d="M173.474 338.295C173.474 338.295 175.089 335.482 174.151 330.926C173.213 326.371 172.554 325.43 172.554 325.43C172.554 325.43 170.593 327.946 170.233 329.818C169.795 332.076 169.676 332.667 170.563 335.279C171.582 338.219 173.471 338.282 173.471 338.282L173.474 338.295Z" fill="#F09B5C"/>
<path d="M178.682 330.219C178.682 330.219 180.655 327.645 180.324 323.009C179.993 318.373 179.466 317.355 179.466 317.355C179.466 317.355 177.193 319.591 176.58 321.406C175.856 323.587 175.647 324.161 176.197 326.864C176.811 329.914 178.682 330.219 178.682 330.219Z" fill="#F09B5C"/>
</svg>
