<svg width="106" height="215" viewBox="0 0 106 215" fill="none" xmlns="http://www.w3.org/2000/svg">
<path d="M73.2228 144.607H31.8421C31.2161 144.607 30.7087 145.024 30.7087 145.537V154.142C30.7087 154.655 31.2161 155.071 31.8421 155.071H73.2228C73.8487 155.071 74.3561 154.655 74.3561 154.142V145.537C74.3561 145.024 73.8487 144.607 73.2228 144.607Z" fill="#F0AFAF"/>
<path d="M73.2229 155.808H31.8421C30.7208 155.808 29.8093 155.061 29.8093 154.141V145.536C29.8093 144.617 30.7208 143.869 31.8421 143.869H73.2229C74.3442 143.869 75.2556 144.617 75.2556 145.536V154.141C75.2556 155.061 74.3442 155.808 73.2229 155.808ZM31.8421 145.344C31.7162 145.344 31.6082 145.433 31.6082 145.536V154.141C31.6082 154.245 31.7162 154.333 31.8421 154.333H73.2229C73.3488 154.333 73.4567 154.245 73.4567 154.141V145.536C73.4567 145.433 73.3488 145.344 73.2229 145.344H31.8421Z" fill="black"/>
<path d="M58.4536 0.958984H46.6109C45.9022 0.958984 45.3276 1.43011 45.3276 2.01128V25.4765C45.3276 26.0577 45.9022 26.5288 46.6109 26.5288H58.4536C59.1623 26.5288 59.7369 26.0577 59.7369 25.4765V2.01128C59.7369 1.43011 59.1623 0.958984 58.4536 0.958984Z" fill="#F0AFAF"/>
<path d="M58.4597 27.2648H46.6109C45.4116 27.2648 44.4282 26.4633 44.4282 25.4749V2.00473C44.4282 1.02128 45.4056 0.214844 46.6109 0.214844H58.4597C59.659 0.214844 60.6423 1.01636 60.6423 2.00473V25.4749C60.6423 26.4583 59.6649 27.2648 58.4597 27.2648ZM46.6109 1.69495C46.407 1.69495 46.2271 1.83755 46.2271 2.00965V25.4798C46.2271 25.647 46.401 25.7945 46.6109 25.7945H58.4597C58.6636 25.7945 58.8434 25.6519 58.8434 25.4798V2.00965C58.8434 1.84247 58.6696 1.69495 58.4597 1.69495H46.6109Z" fill="black"/>
<path d="M58.4534 43.0488H46.6106C45.9019 43.0488 45.3274 43.52 45.3274 44.1011V90.2891C45.3274 90.8702 45.9019 91.3414 46.6106 91.3414H58.4534C59.1621 91.3414 59.7366 90.8702 59.7366 90.2891V44.1011C59.7366 43.52 59.1621 43.0488 58.4534 43.0488Z" fill="#F0AFAF"/>
<path d="M58.4594 92.0793H46.6107C45.4114 92.0793 44.428 91.2778 44.428 90.2894V44.0965C44.428 43.1131 45.4054 42.3066 46.6107 42.3066H58.4594C59.6587 42.3066 60.6421 43.1082 60.6421 44.0965V90.2894C60.6421 91.2729 59.6647 92.0793 58.4594 92.0793ZM46.6107 43.7867C46.4068 43.7867 46.2269 43.9293 46.2269 44.1014V90.2943C46.2269 90.4615 46.4008 90.609 46.6107 90.609H58.4594C58.6633 90.609 58.8432 90.4664 58.8432 90.2943V44.1014C58.8432 43.9343 58.6693 43.7867 58.4594 43.7867H46.6107Z" fill="black"/>
<path d="M63.5807 86.6309H42.1018C40.8202 86.6309 39.7812 87.4829 39.7812 88.5339V200.677C39.7812 201.728 40.8202 202.58 42.1018 202.58H63.5807C64.8624 202.58 65.9013 201.728 65.9013 200.677V88.5339C65.9013 87.4829 64.8624 86.6309 63.5807 86.6309Z" fill="#F0AFAF"/>
<path d="M63.5748 203.317H42.1019C40.327 203.317 38.8818 202.132 38.8818 200.677V88.5332C38.8818 87.0777 40.327 85.8926 42.1019 85.8926H63.5748C65.3497 85.8926 66.7948 87.0777 66.7948 88.5332V200.677C66.7948 202.132 65.3497 203.317 63.5748 203.317ZM42.1019 87.3678C41.3163 87.3678 40.6807 87.889 40.6807 88.5332V200.677C40.6807 201.321 41.3163 201.842 42.1019 201.842H63.5748C64.3603 201.842 64.9959 201.321 64.9959 200.677V88.5332C64.9959 87.889 64.3603 87.3678 63.5748 87.3678H42.1019Z" fill="black"/>
<path d="M52.535 44.6927C59.4498 44.6927 65.0554 40.0959 65.0554 34.4255C65.0554 28.755 59.4498 24.1582 52.535 24.1582C45.6202 24.1582 40.0146 28.755 40.0146 34.4255C40.0146 40.0959 45.6202 44.6927 52.535 44.6927Z" fill="#F0AFAF"/>
<path d="M52.5351 45.4355C45.1356 45.4355 39.1152 40.4986 39.1152 34.4306C39.1152 28.3627 45.1356 23.4258 52.5351 23.4258C59.9345 23.4258 65.9549 28.3627 65.9549 34.4306C65.9549 40.4986 59.9345 45.4355 52.5351 45.4355ZM52.5351 24.896C46.125 24.896 40.9141 29.1741 40.9141 34.4257C40.9141 39.6774 46.131 43.9554 52.5351 43.9554C58.9391 43.9554 64.156 39.6774 64.156 34.4257C64.156 29.1741 58.9391 24.896 52.5351 24.896Z" fill="black"/>
<path d="M89.8507 197.162H15.2142C14.8036 197.162 14.4707 197.435 14.4707 197.772V203.427C14.4707 203.763 14.8036 204.036 15.2142 204.036H89.8507C90.2614 204.036 90.5943 203.763 90.5943 203.427V197.772C90.5943 197.435 90.2614 197.162 89.8507 197.162Z" fill="#F0AFAF"/>
<path d="M89.8508 204.774H15.2143C14.3088 204.774 13.5713 204.169 13.5713 203.427V197.777C13.5713 197.035 14.3088 196.43 15.2143 196.43H89.8508C90.7562 196.43 91.4938 197.035 91.4938 197.777V203.427C91.4938 204.169 90.7562 204.774 89.8508 204.774ZM15.3702 203.299H89.6949V197.9H15.3702V203.299Z" fill="black"/>
<path d="M103.085 204.035H2.59217C1.99276 204.035 1.50684 204.434 1.50684 204.925V213.167C1.50684 213.658 1.99276 214.057 2.59217 214.057H103.085C103.684 214.057 104.17 213.658 104.17 213.167V204.925C104.17 204.434 103.684 204.035 103.085 204.035Z" fill="#F0AFAF"/>
<path d="M103.085 214.793H2.59807C1.50074 214.793 0.613281 214.061 0.613281 213.166V204.924C0.613281 204.025 1.50674 203.297 2.59807 203.297H103.085C104.182 203.297 105.07 204.03 105.07 204.924V213.166C105.07 214.066 104.176 214.793 103.085 214.793ZM2.59807 204.772C2.49613 204.772 2.41218 204.841 2.41218 204.924V213.166C2.41218 213.249 2.49613 213.318 2.59807 213.318H103.085C103.187 213.318 103.271 213.249 103.271 213.166V204.924C103.271 204.841 103.187 204.772 103.085 204.772H2.59807Z" fill="black"/>
</svg>
