<svg width="622" height="229" viewBox="0 0 622 229" fill="none" xmlns="http://www.w3.org/2000/svg">
<path d="M113.635 98V24.912H131.299V98H113.635ZM215.208 85.456C215.208 88.3573 214.824 90.704 214.056 92.496C213.288 94.288 212.093 95.696 210.472 96.72C208.936 97.744 206.931 98.4267 204.456 98.768C201.981 99.1093 199.08 99.28 195.752 99.28C191.827 99.28 188.755 98.896 186.536 98.128C184.317 97.36 182.653 96.5067 181.544 95.568C180.435 94.544 179.709 93.648 179.368 92.88C179.112 92.0267 178.984 91.5573 178.984 91.472C178.899 91.6427 178.728 92.1547 178.472 93.008C178.216 93.8613 177.533 94.7573 176.424 95.696C175.315 96.6347 173.651 97.488 171.432 98.256C169.213 99.024 166.141 99.408 162.216 99.408C155.475 99.408 150.525 98.1707 147.368 95.696C144.296 93.2213 142.76 89.808 142.76 85.456V24.912H160.424V85.456C160.424 87.8453 160.893 89.424 161.832 90.192C162.771 90.96 164.051 91.344 165.672 91.344C167.379 91.344 168.659 90.96 169.512 90.192C170.451 89.424 170.92 87.8453 170.92 85.456V24.912H187.048V85.456C187.048 87.8453 187.475 89.424 188.328 90.192C189.267 90.96 190.589 91.344 192.296 91.344C194.003 91.344 195.283 90.96 196.136 90.192C197.075 89.424 197.544 87.8453 197.544 85.456V24.912H215.208V85.456ZM276.936 85.456C276.936 88.3573 276.253 90.704 274.888 92.496C273.608 94.288 271.816 95.696 269.512 96.72C267.208 97.6587 264.52 98.2987 261.448 98.64C258.461 98.9813 255.261 99.152 251.848 99.152C248.435 99.152 245.192 98.9813 242.12 98.64C239.133 98.2987 236.488 97.6587 234.184 96.72C231.88 95.696 230.045 94.288 228.68 92.496C227.4 90.704 226.76 88.3573 226.76 85.456V74.064H244.424V84.944C244.424 87.3333 244.979 88.9973 246.088 89.936C247.283 90.8747 249.203 91.344 251.848 91.344C254.493 91.344 256.371 90.9173 257.48 90.064C258.675 89.1253 259.272 87.4187 259.272 84.944V76.88C259.272 75.1733 258.632 73.808 257.352 72.784C256.072 71.76 254.365 70.5227 252.232 69.072L232.52 55.248C230.131 53.5413 228.552 52.0053 227.784 50.64C227.101 49.2747 226.76 47.6107 226.76 45.648V37.456C226.76 34.5547 227.4 32.2507 228.68 30.544C230.045 28.752 231.837 27.3867 234.056 26.448C236.36 25.424 239.005 24.7413 241.992 24.4C245.064 24.0587 248.349 23.888 251.848 23.888C255.261 23.888 258.461 24.0587 261.448 24.4C264.52 24.7413 267.208 25.424 269.512 26.448C271.816 27.3867 273.608 28.752 274.888 30.544C276.253 32.2507 276.936 34.5547 276.936 37.456V47.568H259.272V37.968C259.272 35.4933 258.675 33.8293 257.48 32.976C256.371 32.0373 254.493 31.568 251.848 31.568C249.203 31.568 247.283 32.0373 246.088 32.976C244.979 33.8293 244.424 35.4933 244.424 37.968V45.648C244.424 47.3547 245.064 48.72 246.344 49.744C247.624 50.768 249.373 52.048 251.592 53.584L271.176 66.896C273.48 68.432 275.016 69.968 275.784 71.504C276.552 72.9547 276.936 74.6613 276.936 76.624V85.456ZM298.11 98V39.12C298.11 37.9253 298.11 36.816 298.11 35.792C298.11 34.6827 297.769 33.7867 297.086 33.104C296.489 32.336 295.379 31.7813 293.758 31.44C292.137 31.0987 289.747 31.056 286.59 31.312V24.4C287.87 24.3147 289.363 24.272 291.07 24.272C292.777 24.1867 294.569 24.1867 296.446 24.272C298.323 24.3573 300.201 24.5707 302.078 24.912C304.041 25.168 305.918 25.5947 307.71 26.192C309.929 27.0453 311.806 28.2827 313.342 29.904C314.963 31.5253 315.774 33.5733 315.774 36.048V98H298.11ZM334.345 48.336C331.102 48.336 328.457 47.824 326.409 46.8C324.446 45.776 323.465 44.2827 323.465 42.32V35.536H340.617V40.272H352.393V48.336H334.345ZM334.345 87.376C331.102 87.376 328.457 86.864 326.409 85.84C324.446 84.816 323.465 83.3227 323.465 81.36V74.576H340.617V79.44H352.393V87.376H334.345ZM362.01 98V24.912H379.674V98H362.01ZM446.175 85.968C446.175 88.4427 445.407 90.5333 443.871 92.24C442.335 93.8613 440.287 95.184 437.727 96.208C435.252 97.232 432.351 97.9573 429.023 98.384C425.695 98.896 422.239 99.152 418.655 99.152C415.071 99.152 411.615 98.9387 408.287 98.512C404.959 98.0853 402.015 97.4027 399.455 96.464C396.98 95.44 394.975 94.0747 393.439 92.368C391.903 90.6613 391.135 88.528 391.135 85.968V24.912H408.799V85.584C408.799 87.7173 409.695 89.2107 411.487 90.064C413.279 90.9173 415.668 91.344 418.655 91.344C421.642 91.344 423.988 90.96 425.695 90.192C427.487 89.3387 428.383 87.8027 428.383 85.584V6.352H446.175V85.968ZM407.974 5.712C406.097 5.712 404.689 5.79733 403.75 5.96799C402.811 6.13866 402.171 6.352 401.83 6.60799C401.489 6.864 401.318 7.20533 401.318 7.632C401.318 7.97333 401.318 8.31466 401.318 8.656V11.6L411.302 7.88799L421.414 11.6V16.976L411.302 13.136L401.318 16.72H391.59V6.09599C391.59 4.13333 392.486 2.76799 394.278 1.99999C395.985 1.14666 398.203 0.719994 400.934 0.719994H421.67V5.712H407.974ZM496.294 98V91.728C494.843 93.776 492.838 95.3973 490.278 96.592C487.803 97.7867 485.115 98.5547 482.214 98.896C479.398 99.3227 476.497 99.3653 473.51 99.024C470.609 98.768 467.963 98.1707 465.574 97.232C463.185 96.2933 461.222 95.0987 459.686 93.648C458.235 92.112 457.51 90.4053 457.51 88.528V24.912H475.174V85.968C475.174 87.4187 476.027 88.656 477.734 89.68C479.441 90.704 481.574 91.216 484.134 91.216C486.865 91.3013 489.297 90.7893 491.43 89.68C493.649 88.4853 494.758 86.864 494.758 84.816V24.912H512.55V98H496.294ZM13.848 228.624C11.2027 221.797 8.94133 215.611 7.064 210.064C5.18667 204.517 3.736 199.312 2.712 194.448C1.77333 189.584 1.21867 184.891 1.048 180.368C0.962667 175.845 1.34667 171.195 2.2 166.416C3.13867 161.552 4.54667 156.432 6.424 151.056C8.38667 145.595 10.8613 139.579 13.848 133.008H25.752C22.8507 140.432 20.4187 146.96 18.456 152.592C16.5787 158.224 15.1707 163.387 14.232 168.08C13.2933 172.688 12.824 177.083 12.824 181.264C12.9093 185.445 13.4213 189.84 14.36 194.448C15.2987 199.056 16.7067 204.091 18.584 209.552C20.5467 215.013 22.936 221.371 25.752 228.624H13.848ZM35.76 218V144.912H53.424V218H35.76ZM90.997 152.592V144.912H118.389V152.592H90.997ZM102.133 218V167.824C102.133 165.691 101.28 164.112 99.573 163.088C97.9517 162.064 95.861 161.552 93.301 161.552C91.9357 161.552 90.613 161.68 89.333 161.936C88.053 162.192 86.901 162.576 85.877 163.088C84.853 163.6 84.0423 164.283 83.445 165.136C82.8477 165.904 82.549 166.8 82.549 167.824V218H64.885V144.912H81.141V159.376C83.957 156.987 87.541 155.365 91.893 154.512C96.3303 153.573 100.597 153.36 104.693 153.872C108.874 154.384 112.458 155.536 115.445 157.328C118.432 159.035 119.925 161.339 119.925 164.24V218H102.133ZM168.508 218V179.984C166.545 179.899 164.369 179.899 161.98 179.984C159.676 180.069 157.457 180.368 155.324 180.88C153.276 181.307 151.527 182.032 150.076 183.056C148.711 184.08 148.028 185.488 148.028 187.28V204.816C148.028 206.181 148.412 207.333 149.18 208.272C150.033 209.125 151.1 209.808 152.38 210.32C153.66 210.832 155.068 211.131 156.604 211.216C158.225 211.301 159.804 211.216 161.34 210.96V217.232C159.036 218.171 156.135 218.768 152.636 219.024C149.137 219.28 145.724 219.067 142.396 218.384C139.153 217.701 136.337 216.507 133.948 214.8C131.559 213.008 130.364 210.576 130.364 207.504V189.456C130.364 183.739 132.54 179.557 136.892 176.912C141.244 174.181 147.175 172.816 154.684 172.816H168.508V157.456C168.508 154.981 167.612 153.317 165.82 152.464C164.113 151.525 161.767 151.056 158.78 151.056C155.793 151.056 153.404 151.525 151.612 152.464C149.82 153.317 148.924 154.981 148.924 157.456V163.728H131.132V156.944C131.132 154.043 131.9 151.696 133.436 149.904C135.057 148.112 137.148 146.747 139.708 145.808C142.268 144.869 145.212 144.229 148.54 143.888C151.868 143.547 155.281 143.376 158.78 143.376C162.193 143.376 165.564 143.547 168.892 143.888C172.22 144.229 175.164 144.869 177.724 145.808C180.284 146.747 182.332 148.112 183.868 149.904C185.489 151.696 186.3 154.043 186.3 156.944V218H168.508ZM159.363 134.8V128.4H151.939V119.44H162.307C165.294 119.44 167.512 119.867 168.963 120.72C170.414 121.488 171.395 122.341 171.907 123.28C172.504 124.389 172.675 125.669 172.419 127.12H186.499V134.8H159.363ZM207.235 218V159.12C207.235 157.925 207.235 156.816 207.235 155.792C207.235 154.683 206.894 153.787 206.211 153.104C205.614 152.336 204.504 151.781 202.883 151.44C201.262 151.099 198.872 151.056 195.715 151.312V144.4C196.995 144.315 198.488 144.272 200.195 144.272C201.902 144.187 203.694 144.187 205.571 144.272C207.448 144.357 209.326 144.571 211.203 144.912C213.166 145.168 215.043 145.595 216.835 146.192C219.054 147.045 220.931 148.283 222.467 149.904C224.088 151.525 224.899 153.573 224.899 156.048V218H207.235ZM233.102 228.624C235.918 221.371 238.265 215.013 240.142 209.552C242.019 204.091 243.427 199.056 244.366 194.448C245.39 189.84 245.902 185.445 245.902 181.264C245.902 177.083 245.433 172.645 244.494 167.952C243.641 163.259 242.233 158.139 240.27 152.592C238.393 146.96 236.003 140.432 233.102 133.008H244.878C247.779 139.664 250.169 145.68 252.046 151.056C253.923 156.432 255.289 161.552 256.142 166.416C257.081 171.195 257.507 175.845 257.422 180.368C257.337 184.891 256.782 189.584 255.758 194.448C254.819 199.312 253.411 204.517 251.534 210.064C249.742 215.611 247.523 221.797 244.878 228.624H233.102ZM353.175 205.456C353.175 208.528 352.279 210.96 350.487 212.752C348.78 214.544 346.562 215.952 343.831 216.976C341.186 217.915 338.242 218.512 334.999 218.768C331.756 219.024 328.642 219.152 325.655 219.152C322.668 219.152 319.554 219.024 316.311 218.768C313.068 218.512 310.082 217.915 307.351 216.976C304.706 216.037 302.487 214.672 300.695 212.88C298.988 211.003 298.135 208.528 298.135 205.456V175.248C298.135 172.773 298.604 170.683 299.543 168.976C300.482 167.184 301.634 165.691 302.999 164.496C304.364 163.301 305.858 162.32 307.479 161.552C309.1 160.699 310.594 159.973 311.959 159.376C313.324 158.693 314.476 158.053 315.415 157.456C316.354 156.773 316.823 156.005 316.823 155.152C316.823 153.531 316.14 152.549 314.775 152.208C313.495 151.781 311.874 151.739 309.911 152.08C308.034 152.336 305.986 152.848 303.767 153.616C301.634 154.299 299.756 154.939 298.135 155.536V147.6C303.682 145.552 308.503 144.443 312.599 144.272C316.78 144.016 320.236 144.272 322.967 145.04C325.783 145.723 327.916 146.704 329.367 147.984C330.818 149.264 331.628 150.416 331.799 151.44C332.055 153.317 331.842 154.896 331.159 156.176C330.476 157.371 329.538 158.437 328.343 159.376C327.148 160.315 325.826 161.168 324.375 161.936C322.924 162.704 321.559 163.6 320.279 164.624C318.999 165.563 317.932 166.757 317.079 168.208C316.226 169.573 315.799 171.323 315.799 173.456V204.944C315.799 207.419 316.738 209.125 318.615 210.064C320.578 210.917 322.924 211.344 325.655 211.344C328.386 211.344 330.69 210.917 332.567 210.064C334.444 209.211 335.383 207.504 335.383 204.944V177.04C335.383 175.333 335.042 174.011 334.359 173.072C333.676 172.133 332.866 171.493 331.927 171.152C330.988 170.725 330.007 170.512 328.983 170.512C328.044 170.427 327.276 170.384 326.679 170.384V163.728C329.068 163.728 331.116 163.259 332.823 162.32C334.53 161.381 335.383 159.675 335.383 157.2V140.176H353.175V157.84C353.175 159.717 352.962 161.211 352.535 162.32C352.108 163.429 351.511 164.325 350.743 165.008C349.975 165.605 349.036 166.075 347.927 166.416C346.818 166.672 345.58 166.928 344.215 167.184C345.239 167.44 346.263 167.781 347.287 168.208C348.311 168.635 349.25 169.189 350.103 169.872C351.042 170.555 351.767 171.451 352.279 172.56C352.876 173.584 353.175 174.907 353.175 176.528V205.456ZM374.11 218V159.12C374.11 157.925 374.11 156.816 374.11 155.792C374.11 154.683 373.769 153.787 373.086 153.104C372.489 152.336 371.379 151.781 369.758 151.44C368.137 151.099 365.747 151.056 362.59 151.312V144.4C363.87 144.315 365.363 144.272 367.07 144.272C368.777 144.187 370.569 144.187 372.446 144.272C374.323 144.357 376.201 144.571 378.078 144.912C380.041 145.168 381.918 145.595 383.71 146.192C385.929 147.045 387.806 148.283 389.342 149.904C390.963 151.525 391.774 153.573 391.774 156.048V218H374.11ZM451.561 205.456C451.561 208.357 450.878 210.704 449.513 212.496C448.233 214.288 446.441 215.696 444.137 216.72C441.833 217.659 439.145 218.299 436.073 218.64C433.086 218.981 429.886 219.152 426.473 219.152C423.06 219.152 419.817 218.981 416.745 218.64C413.758 218.299 411.113 217.659 408.809 216.72C406.505 215.696 404.67 214.288 403.305 212.496C402.025 210.704 401.385 208.357 401.385 205.456V199.44H419.049V204.944C419.049 207.333 419.604 208.997 420.713 209.936C421.908 210.875 423.828 211.344 426.473 211.344C429.118 211.344 430.996 210.917 432.105 210.064C433.3 209.125 433.897 207.419 433.897 204.944V157.968C433.897 155.493 433.3 153.829 432.105 152.976C430.996 152.037 429.118 151.568 426.473 151.568C423.828 151.568 421.908 152.037 420.713 152.976C419.604 153.829 419.049 155.493 419.049 157.968V167.568H401.385V157.456C401.385 154.555 402.025 152.251 403.305 150.544C404.67 148.752 406.505 147.387 408.809 146.448C411.113 145.424 413.758 144.741 416.745 144.4C419.817 144.059 423.06 143.888 426.473 143.888C429.886 143.888 433.129 144.059 436.201 144.4C439.273 144.741 441.918 145.424 444.137 146.448C446.441 147.387 448.233 148.752 449.513 150.544C450.878 152.251 451.561 154.555 451.561 157.456V205.456ZM518.175 206.608C518.175 208.827 517.407 210.747 515.871 212.368C514.335 213.904 512.287 215.184 509.727 216.208C507.252 217.232 504.351 217.957 501.023 218.384C497.695 218.896 494.239 219.152 490.655 219.152C487.071 219.152 483.615 218.939 480.287 218.512C476.959 218.085 474.015 217.36 471.455 216.336C468.98 215.312 466.975 214.032 465.439 212.496C463.903 210.875 463.135 208.912 463.135 206.608V144.912H480.799V205.584C480.799 207.632 481.652 209.125 483.359 210.064C485.151 210.917 487.583 211.344 490.655 211.344C493.727 211.344 496.116 210.917 497.823 210.064C499.53 209.125 500.383 207.632 500.383 205.584V144.912H518.175V206.608ZM491.238 134.8V128.4H483.814V119.44H494.182C497.169 119.44 499.387 119.867 500.838 120.72C502.289 121.488 503.27 122.341 503.782 123.28C504.379 124.389 504.55 125.669 504.294 127.12H518.374V134.8H491.238ZM539.11 218V159.12C539.11 157.925 539.11 156.816 539.11 155.792C539.11 154.683 538.769 153.787 538.086 153.104C537.489 152.336 536.379 151.781 534.758 151.44C533.137 151.099 530.747 151.056 527.59 151.312V144.4C528.87 144.315 530.363 144.272 532.07 144.272C533.777 144.187 535.569 144.187 537.446 144.272C539.323 144.357 541.201 144.571 543.078 144.912C545.041 145.168 546.918 145.595 548.71 146.192C550.929 147.045 552.806 148.283 554.342 149.904C555.963 151.525 556.774 153.573 556.774 156.048V218H539.11ZM605.169 218V211.728C603.718 213.776 601.713 215.397 599.153 216.592C596.678 217.787 593.99 218.555 591.089 218.896C588.273 219.323 585.372 219.365 582.385 219.024C579.484 218.768 576.838 218.171 574.449 217.232C572.06 216.293 570.097 215.099 568.561 213.648C567.11 212.112 566.385 210.405 566.385 208.528V144.912H584.049V205.968C584.049 207.419 584.902 208.656 586.609 209.68C588.316 210.704 590.449 211.216 593.009 211.216C595.74 211.301 598.172 210.789 600.305 209.68C602.524 208.485 603.633 206.864 603.633 204.816V144.912H621.425V218H605.169Z" fill="white"/>
</svg>
