<svg width="715" height="242" viewBox="0 0 715 242" fill="none" xmlns="http://www.w3.org/2000/svg">
<path d="M614.77 215.399V169.079L608.806 166.726V162.563L626.285 153.694H643.689L664.085 162.907V215.399H644.573V162.563L641.055 160.608H628.317L621.544 164.898L632.249 169.459V215.399H614.77ZM570.065 207.706L564.514 204.973L558.55 207.706L564.514 210.711L570.065 207.706ZM568.842 153.621H589.125L603.895 160.137V215.399H586.001V179.759L574.524 175.577V201.896L578.061 203.471V210.711L564.101 216.829L550.14 211.091V203.851L555.784 201.244V174.419L573.395 167.504L586.114 172.935V160.21L582.878 158.653H570.874L555.709 163.215V158.653L568.842 153.621ZM539.302 208.231L533.356 205.498L527.524 208.231L533.356 211.236L539.302 208.231ZM510.722 143.068L520.882 139.557H534.053C534.564 140.657 535.345 141.621 536.328 142.368C537.311 143.115 538.467 143.622 539.697 143.847C540.451 144.01 541.22 144.101 541.993 144.118C543.546 144.078 545.072 143.72 546.471 143.068V148.499C544.908 149.395 543.134 149.893 541.315 149.947C539.863 149.943 538.429 149.628 537.119 149.024C535.941 148.528 534.844 147.87 533.864 147.069C532.921 146.135 532.185 145.027 531.701 143.81H520.317L517.627 146.616L537.27 153.657V201.353L546.076 205.263V211.779L533.488 216.739L518.982 211.308V153.042L510.722 149.259V143.068ZM466.148 160.916L461.012 157.929L455.536 160.988L461.087 164.12L466.148 160.916ZM469.008 208.159L463.364 205.552L457.888 208.159L463.439 210.892L469.008 208.159ZM477.814 204.774V211.779L463.439 216.739L449.083 211.308V204.792L454.727 202.439L452.3 200.086V167.124L446.336 164.518V158.382L461.106 152.264L474.653 157.603V165.948L470.306 167.504V197.479L478.98 193.57L486.168 197.479V153.694H504.983V215.399H486.544V203.996L479.375 199.706L473.411 202.439L477.814 204.774ZM431.754 226.495L426.73 223.762L421.669 226.423L426.674 229.156L431.754 226.495ZM426.467 219.019L437.982 223.979V241.32H423.551V232.848L416.024 229.065V223.979L426.467 219.019ZM402.007 161.097L396.852 158.11L391.301 161.097L396.852 164.228L402.007 161.097ZM404.735 208.159L399.185 205.552L393.54 208.159L399.185 210.892L404.735 208.159ZM413.541 204.774V211.779L399.185 216.739L384.81 211.308V204.792L390.454 202.439L388.009 200.086V167.124L382.044 164.518V158.382L396.814 152.264L410.361 157.603V165.948L406.034 167.504V197.479L414.689 193.57L421.876 197.479V153.694H440.691V215.399H422.271V203.996L415.084 199.706L409.119 202.439L413.541 204.774ZM327.706 215.399V169.079L321.741 166.726V162.563L339.221 153.694H356.7L377.02 162.907V215.399H357.509V162.563L353.934 160.608H341.196L334.423 164.898L345.129 169.459V215.399H327.706ZM308.194 226.26L303.133 223.689L298.109 226.423L303.133 229.156L308.194 226.26ZM302.907 219.019L314.422 223.979V241.32H300.066V232.848L292.54 229.065V223.979L302.907 219.019ZM279.068 161.513L272.163 158.255L265.502 161.513L272.408 164.898L279.068 161.513ZM272.163 152.662L286.199 158.255V165.821L281.778 168.337V193.226L293.293 157.024L298.711 153.639H310.904L317.677 161.205V215.508H298.994V163.215L282.06 215.472H259.858V208.702H264.468V168.554L258.089 165.423V158.382L272.163 152.662ZM242.774 206.222L238.709 203.996L234.363 206.222L238.295 208.955L242.774 206.222ZM227.195 153.73H238.709L252.652 158.689V209.372L237.882 215.399L225.558 209.281V202.765L235.172 198.203V160.192H226.367L216.075 165.93V160.21L227.195 153.73ZM210.261 126.108H192.781V111.338H210.261V126.108ZM187.494 138.489L183.016 135.882L178.557 138.742L183.167 141.349L187.494 138.489ZM173.402 136.262L182.621 131.049L191.822 136.136V140.57H208.229L220.007 134.452L223.394 138.869L209.169 146.308H182.715L173.308 141.747L173.402 136.262ZM171.52 161.604L164.615 158.345L157.973 161.604L164.897 164.988L171.52 161.604ZM164.615 152.752L178.708 158.345V165.912L174.211 168.337V193.226L185.726 157.024L191.144 153.639H203.412L210.186 161.205V215.508H191.502V163.215L174.568 215.472H152.272V208.702H156.882V168.554L150.504 165.423V158.382L164.615 152.752ZM96.5978 215.399V169.079L90.6334 166.726V162.563L108.113 153.694H125.592L145.913 162.907V215.399H126.401V162.563L122.883 160.608H110.145L103.371 164.898L114.077 169.459V215.399H96.5978ZM61.0934 153.694H74.5087L85.7978 159.432V215.544H65.5714V158.128H63.5394L54.7715 162.907L52.0621 158.617L61.0934 153.694ZM23.0301 172.989L17.4796 170.147L11.2518 173.025L17.4796 176.41L23.0301 172.989ZM40.9235 171.179L39.2865 165.314L30.8949 159.196H14.6385L1.09155 165.188V159.757L12.8699 153.766H32.1932L43.8398 161.585L47.2266 172.446L33.943 192.9V215.399H16.3884V181.46L4.4783 176.501V169.26L17.4796 164.97L30.0859 170.039V187.777L40.9235 171.179Z" fill="white"/>
<path d="M707.021 98.7942L700.379 95.6628L694.02 98.7942L700.511 101.908L707.021 98.7942ZM672.476 53.687L665.834 50.4289L659.475 53.687L666.248 57.09L672.476 53.687ZM665.834 44.4375L680.473 50.1754V57.9226L677.218 59.7327V86.8839L687.792 83.1189L695.506 87.5355V45.0891H713.926V87.9699L708.507 91.8797L714.34 94.6129V101.853L700.925 107.718L685.609 101.853V95.337L692.383 91.9521L687.51 89.3456L677.349 93.6536V106.795H654.451V100.224H658.383V60.6015L651.347 57.9226V50.4289L665.834 44.4375ZM620.678 45.0891H634.074L645.363 50.8271V106.795H625.193V49.5238H623.161L614.356 54.3024L611.703 50.0487L620.678 45.0891ZM577.102 30.2284L570.874 26.8435L564.665 30.2284L570.761 33.6313L577.102 30.2284ZM559.02 27.8933L571.212 22.807L583.254 28.0201V31.9298L575.408 35.8396H590.705L603.311 29.0699L611.439 33.3598L596.124 40.6001H561.654V37.342H565.718V35.3147L559.02 31.9298V27.8933ZM565.925 53.2345L560.507 50.103L555.351 53.2345L560.902 56.565L565.925 53.2345ZM564.966 45.1434L574.674 48.8722V56.1125L570.742 58.4656V99.5545H587.393V45.0891H606.058V106.795H548.389V100.749H552.999V59.2983L546.753 56.1125V49.2704L556.386 45.0891L564.966 45.1434ZM532.679 98.7942L526.037 95.6628L519.659 98.7942L526.169 101.908L532.679 98.7942ZM498.134 53.687L491.492 50.4289L485.114 53.687L491.887 57.09L498.134 53.687ZM491.492 44.4375L506.112 50.1754V57.9226L502.875 59.7327V86.8839L513.431 83.1189L521.164 87.5355V45.0891H539.584V87.9699L534.165 91.8797L539.979 94.6129V101.853L526.583 107.718L511.267 101.853V95.337L518.04 91.9521L513.167 89.3456L503.007 93.6536V106.795H480.109V100.224H484.041V60.6015L476.986 57.9226V50.4289L491.492 44.4375ZM455.536 7.69284L449.308 4.07268L442.93 7.69284L449.158 11.0777L455.536 7.69284ZM437.379 5.21303L449.76 0L461.82 5.43024V9.37622L453.824 13.1593H469.271L481.727 6.26288L489.855 10.5528L474.69 17.9922H440.014V14.5893H444.247V12.6706L437.474 9.41242L437.379 5.21303ZM436.57 28.7441L425.281 34.482H450.475L436.57 28.7441ZM415.874 31.2239L436.57 21.8477L452.545 27.9658V22.2821H460.541V28.0201H463.382V22.2821H472.056V41.1793H415.892L415.874 31.2239ZM425.432 52.257L420.295 49.2704L415.14 52.257L420.295 54.9903L425.432 52.257ZM420.973 43.7859L434.651 49.2161V55.2075L432.488 56.7641V78.6661L442.366 47.0621L451.585 77.9602V45.0891H471.36V106.795H452.657L442.591 70.5932L431.885 106.795H409.119V99.9527H412.788V57.5968L406.692 55.7867V48.8722L420.973 43.7859ZM376.531 45.0891H389.946L401.235 50.8271V106.795H381.084V49.5238H379.052L370.247 54.3024L367.537 50.0125L376.531 45.0891ZM347.762 98.9209L342.118 95.9162L336.022 98.9209L342.118 102.432L347.762 98.9209ZM355.815 61.5428V101.365L342.268 107.881L328.721 102.541V95.9343L338.129 91.3729V63.0813L322.964 56.6917V50.5737L335.42 45.1434H350.867C351.351 46.2734 352.181 47.2351 353.246 47.901C354.311 48.567 355.561 48.9056 356.831 48.8722C358.219 48.9416 359.591 48.5722 360.74 47.8205C361.888 47.0687 362.749 45.9759 363.191 44.709V52.782C362.779 54.291 361.817 55.6077 360.482 56.4926C359.12 57.4281 357.488 57.9284 355.815 57.9226C354.01 57.695 352.366 56.8068 351.224 55.4428C350.318 54.7851 349.578 53.9387 349.06 52.967C348.542 51.9952 348.259 50.9233 348.233 49.8315H341.064L334.611 54.3024L355.815 61.5428ZM308.401 117.854L303.396 115.121L298.391 117.854L303.396 120.588L308.401 117.854ZM303.133 110.415L314.648 115.375V132.679H300.273V124.208L292.747 120.425V115.338L303.133 110.415ZM299.595 55.9496L291.618 60.1128L299.595 64.0226V55.9496ZM283.621 99.9889L277.657 97.2557L271.692 99.9889L277.581 103.175L283.621 99.9889ZM269.265 94.2328V63.208L295.136 52.0036L289.492 48.9989H279.614L265.653 55.1351V50.5737L276.772 45.1434H296.284L302.643 48.6731V44.8357H316.999V49.3971L312.672 52.0036L316.999 54.7369V106.795H299.52V70.1225L286.801 63.6062V95.0112L291.542 96.5678V103.482L277.581 108.822L263.225 103.175V96.6583L269.265 94.2328ZM249.34 117.764L244.335 115.031L239.161 117.818L244.184 120.551L249.34 117.764ZM243.977 110.415L255.492 115.375V132.679H241.136V124.208L233.61 120.425V115.338L243.977 110.415ZM244.128 98.9571L238.483 95.9524L232.387 98.9571L238.483 102.469L244.128 98.9571ZM252.106 61.5428V101.365L238.559 107.881L225.012 102.541V95.9343L234.419 91.3729V63.0813L219.254 56.6917V50.5737L231.71 45.1434H247.157C247.646 46.2852 248.487 47.2552 249.567 47.9221C250.647 48.589 251.914 48.9206 253.197 48.8722C254.584 48.9416 255.957 48.5722 257.105 47.8205C258.254 47.0687 259.115 45.9759 259.556 44.709V52.782C259.144 54.291 258.183 55.6077 256.847 56.4926C255.458 57.4235 253.798 57.9052 252.106 57.8683C250.301 57.6407 248.656 56.7525 247.515 55.3885C246.608 54.7308 245.869 53.8844 245.351 52.9127C244.832 51.9409 244.55 50.869 244.523 49.7772H237.279L230.976 54.3024L252.106 61.5428ZM164.878 106.795V60.4748L158.914 58.1217V53.9585L176.393 45.0891H193.854L214.174 54.3024V106.795H194.681V53.9585L191.144 52.0036H178.425L171.652 56.2935L182.339 60.8549V106.795H164.878ZM126.119 64.9095L120.474 62.0315L114.98 64.9095L120.625 67.6427L126.119 64.9095ZM102.411 100.224V77.5439L98.2156 74.8107V54.0852L115.695 45.0348H135.677L154.492 52.782V106.795H136.147V52.6553L133.795 51.2253H116.862L103.992 56.565V71.1543L106.965 73.5074L111.763 70.5932L107.454 67.6427V62.303L120.192 56.4383L133.062 62.303V68.2944L121.772 73.1092V106.795H98.2156V100.224H102.411ZM60.4158 21.902L46.8688 27.8933H80.6046L60.4158 21.902ZM60.2841 14.2091L92.7969 25.3411V33.6856H39.9636V23.2052L60.2841 14.2091ZM52.8897 53.5603L46.5301 50.4289L40.1706 53.687L46.3984 57.09L52.8897 53.5603ZM46.8688 44.709L61.0931 50.3022V57.3434L55.9566 60.0766V99.8984H74.1133V37.5411H93.0791V106.795H32.8703V101.527H37.3295V60.2033L31.5156 56.6917V50.3022L46.8688 44.709ZM19.6431 100.224L14.0926 97.3462L8.2599 100.224L14.0926 103.482L19.6431 100.224ZM19.0222 45.0891V92.9296L27.0187 96.5497V103.356L14.1491 108.044L0 102.831V45.0891H19.0222Z" fill="white"/>
</svg>
