<svg width="741" height="569" viewBox="0 0 741 569" fill="none" xmlns="http://www.w3.org/2000/svg">
<g clip-path="url(#clip0_344_10621)">
<path d="M718.855 446.72H710.219L708.637 454.885H717.273L718.855 446.72ZM740.62 401.2C741.188 399.137 741.188 396.959 740.62 394.896C740.154 393.457 739.261 392.192 738.058 391.27C736.792 390.358 735.329 389.754 733.787 389.505C732.126 389.217 730.443 389.07 728.757 389.064C726.945 389.07 725.136 389.218 723.347 389.505C721.592 389.802 719.901 390.4 718.349 391.27C716.757 392.18 715.377 393.415 714.3 394.896C713.023 396.794 712.171 398.945 711.8 401.2L710.219 408.262H718.982L720.469 401.673C720.555 400.789 720.828 399.934 721.27 399.162C721.711 398.391 722.312 397.721 723.031 397.197C724.301 396.377 725.79 395.96 727.302 395.999C728.651 395.934 729.977 396.36 731.035 397.197C732.047 397.985 732.3 399.466 731.857 401.673L730.465 407.694C730.181 408.829 729.896 409.743 729.674 410.468C729.456 411.177 729.17 411.863 728.82 412.517C728.586 413.037 728.214 413.484 727.745 413.81L723.316 418.223L719.646 421.88C718.654 422.854 717.744 423.908 716.925 425.032C716.472 425.523 716.127 426.102 715.913 426.734C715.499 427.579 715.15 428.454 714.869 429.351C714.405 430.799 714.025 432.272 713.73 433.764L712.718 438.524H720.469L721.481 433.89C721.723 432.691 722.05 431.512 722.462 430.36C722.735 429.586 723.051 428.828 723.411 428.09C723.643 427.524 723.999 427.018 724.455 426.608C725.291 425.878 726.083 425.099 726.827 424.275C728.051 423.036 729.379 421.775 730.813 420.493L736.286 415.386C736.895 414.922 737.348 414.284 737.583 413.557C737.924 412.748 738.21 411.916 738.438 411.067C738.76 410.038 738.993 408.984 739.134 407.915L740.62 401.2ZM705.663 400.759C706.177 398.694 706.231 396.542 705.821 394.454C705.505 393.035 704.726 391.761 703.607 390.829C702.442 389.939 701.071 389.354 699.621 389.127C698.005 388.811 696.363 388.652 694.717 388.654C693.019 388.649 691.324 388.807 689.656 389.127C688.041 389.395 686.494 389.973 685.1 390.829C683.594 391.748 682.308 392.986 681.335 394.454C680.089 396.363 679.26 398.511 678.899 400.759L677.634 406.78H685.954L687.188 401.2C687.398 399.495 688.191 397.914 689.434 396.724C690.525 395.904 691.865 395.481 693.23 395.526C693.812 395.497 694.394 395.588 694.938 395.794C695.483 396 695.979 396.317 696.394 396.724C697.122 397.512 697.248 399.025 696.773 401.2L693.831 414.818H686.998C685.212 414.755 683.431 415.046 681.758 415.674C680.086 416.301 678.555 417.254 677.254 418.475C674.706 420.887 672.943 424.006 672.193 427.428L668.207 446.594C667.913 447.527 667.806 448.508 667.893 449.481C667.98 450.455 668.258 451.402 668.713 452.268C669.494 453.706 670.76 454.823 672.288 455.421C673.876 455.995 675.577 456.189 677.254 455.988C678.896 455.849 680.48 455.32 681.873 454.444L683.012 448.895C682.295 449.092 681.545 449.137 680.81 449.029C680.075 448.92 679.37 448.66 678.741 448.265C677.476 447.477 677.096 446.027 677.539 443.883L681.082 427.207C681.203 426.443 681.482 425.712 681.901 425.061C682.32 424.409 682.871 423.852 683.518 423.424C684.689 422.654 685.984 422.089 687.346 421.754C689.036 421.448 690.756 421.342 692.471 421.438L685.29 455.137H694.053L705.663 400.759ZM672.509 393.509C671.692 392.099 670.437 390.993 668.934 390.356C666.297 389.364 663.426 389.166 660.677 389.789C660.424 391.018 660.203 392.027 659.981 392.941C659.76 393.855 659.665 394.517 659.538 395.116C659.412 395.715 659.349 396.03 659.538 396.03C660.752 395.831 661.996 395.906 663.177 396.251C663.486 396.332 663.771 396.486 664.007 396.7C664.244 396.914 664.426 397.182 664.537 397.48C664.802 398.138 664.802 398.872 664.537 399.529L652.674 455.137H661.183L667.099 427.239C667.859 423.74 668.586 420.335 669.251 417.025C669.915 413.715 670.579 410.72 671.18 408.041C671.781 405.361 672.509 402.114 673.142 399.309C673.476 397.432 673.234 395.498 672.446 393.761M657.64 390.356H648.877L637.583 443.568C637.4 445.288 636.589 446.88 635.306 448.044C634.228 448.844 632.916 449.265 631.573 449.242C630.985 449.276 630.397 449.18 629.85 448.962C629.303 448.744 628.811 448.41 628.409 447.981C628.045 447.311 627.825 446.571 627.765 445.811C627.705 445.051 627.806 444.287 628.061 443.568L639.355 390.356H630.497L619.108 443.946C618.57 446.007 618.505 448.162 618.918 450.251C619.235 451.687 620.013 452.982 621.133 453.939C622.274 454.861 623.637 455.47 625.087 455.704C626.754 456.031 628.45 456.189 630.149 456.177C631.889 456.178 633.626 456.02 635.337 455.704C637.008 455.425 638.609 454.826 640.051 453.939C641.586 453.008 642.893 451.748 643.879 450.251C645.098 448.329 645.926 446.187 646.315 443.946L657.64 390.356ZM610.187 458.668H601.519L600.506 463.869L595.476 458.447L588.2 463.869L583.202 458.447L581.715 465.256L586.713 470.678L594.116 465.004L599.02 470.457H607.688L610.187 458.668ZM625.657 386.164H617.02L616.229 389.82C611.555 388.93 606.723 389.401 602.31 391.176C600.409 392.198 598.786 393.664 597.58 395.448C596.373 397.233 595.619 399.282 595.381 401.421L593.452 410.437H602.088L603.923 401.988C604.188 400.271 605.01 398.688 606.264 397.48C607.328 396.681 608.634 396.269 609.965 396.314C610.575 396.261 611.19 396.338 611.768 396.539C612.346 396.74 612.874 397.061 613.319 397.48C614.046 398.3 614.141 399.782 613.604 401.988L610.282 417.592H603.227L601.74 424.528H608.827L602.31 455.169H610.978L625.657 386.164ZM598.45 377.873H590.257C589.812 377.901 589.368 377.803 588.977 377.591C588.585 377.379 588.261 377.062 588.042 376.675C587.784 376.265 587.624 375.802 587.575 375.321C587.526 374.84 587.588 374.354 587.757 373.901H578.931L578.14 377.778C577.971 378.502 577.886 379.242 577.887 379.985C577.889 380.754 578.132 381.504 578.583 382.129C579.129 382.847 579.862 383.403 580.703 383.736C581.989 384.197 583.355 384.4 584.72 384.335H597.027L598.45 377.873ZM590.604 401.358C591.108 399.295 591.205 397.153 590.889 395.053C590.623 393.673 589.938 392.408 588.928 391.428C587.923 390.522 586.685 389.911 585.353 389.663C583.81 389.365 582.242 389.217 580.671 389.221C579.016 389.219 577.364 389.367 575.736 389.663C574.207 389.958 572.755 390.559 571.465 391.428C570.088 392.389 568.925 393.623 568.048 395.053C566.919 397.003 566.147 399.138 565.771 401.358L564.157 408.64C563.801 410.082 563.673 411.571 563.778 413.053C563.949 414.506 564.435 415.904 565.201 417.151L572.382 429.414C573.061 430.495 573.684 431.611 574.249 432.755C574.657 433.908 574.657 435.165 574.249 436.317L572.762 443.473C572.559 445.101 571.926 446.646 570.927 447.95C570.518 448.365 570.023 448.687 569.477 448.894C568.931 449.1 568.346 449.187 567.764 449.148C567.267 449.224 566.759 449.143 566.311 448.917C565.862 448.691 565.497 448.331 565.264 447.887C564.835 446.447 564.835 444.913 565.264 443.473L567.289 433.827H558.526L556.375 443.915C555.847 445.974 555.729 448.115 556.027 450.219C556.216 451.623 556.873 452.922 557.893 453.908C558.902 454.826 560.154 455.438 561.5 455.673C563.028 455.997 564.588 456.156 566.15 456.146C567.796 456.149 569.439 455.991 571.054 455.673C572.609 455.403 574.088 454.801 575.388 453.908C576.793 452.933 577.978 451.677 578.868 450.219C580.026 448.277 580.819 446.14 581.209 443.915L582.791 436.097C583.154 434.707 583.345 433.278 583.36 431.841C583.273 430.273 582.759 428.758 581.873 427.459L574.692 415.67C574.038 414.749 573.457 413.779 572.952 412.769C572.365 411.471 572.264 410.006 572.667 408.64L574.122 401.831C574.338 400.217 574.946 398.68 575.894 397.354C576.294 396.926 576.787 396.596 577.336 396.388C577.884 396.18 578.473 396.101 579.057 396.156C579.555 396.091 580.06 396.17 580.515 396.382C580.969 396.594 581.352 396.932 581.62 397.354C582.062 398.814 582.062 400.371 581.62 401.831L579.785 410.342H588.548L590.604 401.358ZM560.646 398.206C561.232 396.324 561.062 394.29 560.171 392.531C559.451 391.104 558.238 389.985 556.754 389.379C555.255 388.803 553.635 388.608 552.041 388.811C550.441 388.96 548.9 389.49 547.549 390.356L546.41 395.904C547.079 395.707 547.785 395.66 548.474 395.77C549.164 395.879 549.82 396.14 550.396 396.535C551.535 397.323 551.883 398.741 551.408 400.79L541.506 447.319L543.562 389.663H535.369L532.964 454.916H540.241C542.05 455.151 543.885 454.749 545.429 453.782C546.679 452.945 547.753 451.874 548.592 450.629C549.48 449.186 550.132 447.611 550.522 445.964L560.646 398.206ZM528.63 401.358C529.137 399.287 529.137 397.124 528.63 395.053C528.242 393.649 527.45 392.389 526.353 391.428C525.192 390.518 523.822 389.911 522.367 389.663C520.748 389.372 519.107 389.225 517.463 389.221C515.693 389.222 513.926 389.37 512.18 389.663C510.52 389.945 508.93 390.544 507.498 391.428C506.02 392.383 504.741 393.614 503.733 395.053C502.492 396.964 501.662 399.111 501.297 401.358L499.368 410.342H508.131L509.934 401.831C510.184 400.023 511.096 398.373 512.496 397.197C513.581 396.365 514.925 395.941 516.293 395.999C516.875 395.961 517.459 396.049 518.005 396.256C518.551 396.462 519.045 396.783 519.456 397.197C520.184 397.985 520.31 399.466 519.836 401.673L510.978 443.316C510.767 445.027 509.961 446.611 508.7 447.792C507.606 448.582 506.286 449.001 504.935 448.99C504.322 449.048 503.703 448.964 503.127 448.745C502.551 448.527 502.033 448.179 501.614 447.729C501.249 447.058 501.032 446.318 500.977 445.556C500.922 444.795 501.032 444.031 501.297 443.316L505.283 424.402H510.155L511.769 417.372H498.102L492.408 443.915C491.869 445.975 491.804 448.13 492.218 450.219C492.546 451.659 493.334 452.953 494.464 453.908C495.593 454.83 496.946 455.439 498.387 455.673C500.054 455.999 501.75 456.158 503.449 456.146C505.189 456.146 506.925 455.988 508.637 455.673C510.309 455.399 511.911 454.799 513.35 453.908C514.885 452.976 516.193 451.716 517.178 450.219C518.411 448.304 519.24 446.159 519.614 443.915L528.63 401.358ZM498.102 390.135H489.339L477.95 443.473C477.767 445.193 476.956 446.786 475.672 447.95C474.587 448.756 473.262 449.178 471.908 449.148C471.32 449.186 470.73 449.092 470.183 448.874C469.635 448.656 469.144 448.318 468.744 447.887C468.372 447.219 468.148 446.479 468.088 445.718C468.028 444.956 468.133 444.191 468.396 443.473L474.439 415.102C474.78 413.449 475.435 411.876 476.368 410.468C477.248 409.153 478.243 407.919 479.342 406.78C480.376 405.687 481.43 404.636 482.506 403.628C483.483 402.665 484.362 401.609 485.132 400.475C485.835 399.479 486.3 398.336 486.492 397.134C486.643 395.693 486.38 394.238 485.733 392.941C485.488 392.279 485.108 391.674 484.619 391.164C484.129 390.654 483.539 390.25 482.885 389.978C481.402 389.426 479.803 389.252 478.235 389.473C475.464 389.991 472.827 391.064 470.484 392.626L468.997 399.656C470.945 398.31 473.076 397.249 475.324 396.503C475.75 396.345 476.205 396.28 476.658 396.313C477.111 396.345 477.552 396.475 477.95 396.692C478.488 397.134 478.583 398.016 478.298 399.309C477.769 400.585 476.878 401.68 475.736 402.461C474.565 403.281 473.331 404.258 472.034 405.361C470.604 406.611 469.32 408.018 468.206 409.554C466.753 411.772 465.763 414.259 465.296 416.867L459.602 443.757C459.087 445.822 459.033 447.974 459.443 450.062C459.76 451.498 460.538 452.793 461.658 453.75C462.791 454.666 464.142 455.274 465.581 455.515C467.259 455.841 468.965 455.999 470.674 455.988C472.404 455.989 474.13 455.83 475.831 455.515C477.512 455.236 479.123 454.637 480.576 453.75C482.1 452.817 483.397 451.557 484.372 450.062C485.616 448.149 486.456 446.004 486.84 443.757L498.102 390.135ZM465.075 390.135H456.312L444.828 444.261C444.451 445.631 443.621 446.834 442.473 447.675C441.325 448.516 439.925 448.946 438.501 448.895C437.938 448.949 437.372 448.852 436.86 448.613C436.348 448.375 435.91 448.004 435.59 447.54C435.28 447.083 435.074 446.564 434.987 446.019C434.9 445.475 434.933 444.918 435.084 444.388L446.568 390.262H437.805L425.846 446.657C425.553 447.623 425.467 448.638 425.592 449.639C425.717 450.64 426.051 451.603 426.572 452.468C427.094 453.332 427.791 454.078 428.62 454.657C429.448 455.236 430.39 455.636 431.383 455.831C433.497 456.26 435.691 456.085 437.71 455.326C440.203 454.463 442.398 452.911 444.037 450.85L443.12 455.042H451.218L465.075 390.135ZM437.741 377.747H429.548C429.104 377.771 428.661 377.671 428.27 377.46C427.88 377.249 427.555 376.933 427.333 376.549C427.076 376.139 426.916 375.676 426.866 375.195C426.817 374.714 426.879 374.228 427.049 373.775H418.159L417.368 377.652C417.21 378.377 417.136 379.117 417.147 379.859C417.137 380.625 417.37 381.375 417.811 382.002C418.364 382.714 419.095 383.268 419.931 383.61C421.229 384.07 422.604 384.274 423.98 384.209H436.286L437.741 377.747ZM430.465 398.521C430.769 397.498 430.839 396.421 430.669 395.368C430.499 394.315 430.095 393.313 429.485 392.437C428.376 390.851 426.721 389.729 424.834 389.284C422.724 388.855 420.536 389.008 418.507 389.726C416.01 390.564 413.811 392.108 412.18 394.171L412.971 389.978H404.935L391.142 454.759H399.905L411.421 400.633C411.736 399.242 412.573 398.023 413.762 397.228C414.879 396.36 416.269 395.914 417.684 395.967C418.244 395.977 418.795 396.11 419.298 396.355C419.801 396.6 420.243 396.952 420.595 397.386C420.897 397.846 421.098 398.365 421.186 398.908C421.273 399.451 421.244 400.007 421.101 400.538L409.586 454.664H418.349L430.465 398.521ZM402.563 374.815H394.496L392.471 384.272H400.538L402.563 374.815ZM399.399 390.135H390.604L379.121 444.261C378.79 445.488 378.096 446.587 377.128 447.414C376.182 448.289 374.938 448.773 373.648 448.769C373.014 448.876 372.364 448.829 371.752 448.631C371.141 448.434 370.586 448.092 370.136 447.634C369.703 447.194 369.395 446.646 369.245 446.048C369.095 445.449 369.108 444.822 369.282 444.23L380.766 390.104H372.003L358.241 454.885H366.308L367.226 450.692C367.594 451.699 368.17 452.617 368.916 453.388C369.663 454.16 370.563 454.766 371.56 455.169C373.564 455.993 375.777 456.17 377.887 455.673C380.126 455.171 382.19 454.082 383.866 452.521C385.699 450.933 386.946 448.78 387.409 446.405L399.399 390.135ZM368.523 380.678C368.63 379.736 368.63 378.784 368.523 377.841C368.413 376.941 368.179 376.061 367.827 375.225C367.396 374.268 366.733 373.434 365.897 372.798C364.781 371.996 363.491 371.467 362.132 371.253C360.1 370.927 358.028 370.927 355.995 371.253C355.742 372.451 355.521 373.491 355.299 374.405C355.17 375.139 355.001 375.865 354.793 376.58C354.603 377.179 354.54 377.463 354.603 377.463C355.83 377.277 357.083 377.364 358.273 377.715C358.872 377.93 359.361 378.372 359.633 378.945C359.862 379.609 359.862 380.33 359.633 380.994L343.815 454.979H352.61L368.523 380.678ZM346.758 401.799C347.266 399.728 347.266 397.566 346.758 395.494C346.403 394.067 345.606 392.788 344.48 391.838C343.317 390.938 341.947 390.342 340.494 390.104C338.879 389.786 337.236 389.628 335.59 389.631H331.224H326.827H321.924L308.067 454.885H316.83L329.263 396.44H334.135C334.769 396.352 335.414 396.414 336.019 396.622C336.624 396.83 337.171 397.179 337.615 397.638C338.226 399.057 338.294 400.649 337.805 402.114L326.511 454.885H335.337L346.758 401.799ZM313.983 400.885C314.445 398.809 314.445 396.657 313.983 394.58C313.666 393.162 312.888 391.887 311.769 390.955C310.603 390.065 309.233 389.48 307.783 389.253C306.167 388.937 304.525 388.778 302.879 388.78C301.18 388.775 299.485 388.933 297.817 389.253C296.203 389.521 294.655 390.099 293.262 390.955C291.755 391.874 290.47 393.112 289.497 394.58C288.251 396.489 287.421 398.637 287.061 400.885L285.796 406.906H294.211L295.445 401.326C295.655 399.621 296.448 398.04 297.691 396.85C298.782 396.03 300.121 395.607 301.487 395.652C302.069 395.623 302.65 395.714 303.195 395.92C303.74 396.126 304.235 396.443 304.651 396.85C305.378 397.638 305.505 399.151 305.03 401.326L302.088 414.945H295.318C293.532 414.881 291.751 415.172 290.078 415.8C288.406 416.428 286.875 417.38 285.574 418.601C283.026 421.013 281.263 424.132 280.513 427.554L276.527 446.72C276.233 447.653 276.126 448.634 276.213 449.608C276.3 450.581 276.578 451.528 277.033 452.394C277.814 453.832 279.08 454.949 280.608 455.547C282.196 456.121 283.897 456.315 285.574 456.114C287.216 455.976 288.8 455.446 290.193 454.57L291.332 449.021C290.615 449.218 289.865 449.263 289.13 449.155C288.395 449.046 287.69 448.786 287.061 448.391C285.796 447.603 285.416 446.153 285.859 444.009L289.402 427.333C289.523 426.569 289.802 425.838 290.221 425.187C290.64 424.535 291.191 423.978 291.838 423.55C293.009 422.78 294.304 422.215 295.666 421.88C297.356 421.574 299.076 421.469 300.791 421.564L293.61 455.263H302.373L313.983 400.885ZM293.578 371.379C291.098 370.798 288.513 370.837 286.051 371.491C283.59 372.146 281.329 373.396 279.469 375.13C278.011 376.73 276.854 378.577 276.052 380.584L260.234 454.916H268.902L284.72 380.931C284.95 380.154 285.375 379.449 285.954 378.882C286.577 378.293 287.339 377.871 288.168 377.652C289.416 377.325 290.716 377.239 291.996 377.4L293.578 371.379ZM268.27 390.293H259.412L247.928 444.419C247.598 445.646 246.903 446.745 245.935 447.571C244.989 448.446 243.745 448.931 242.455 448.927C241.839 448.996 241.215 448.921 240.632 448.708C240.05 448.494 239.526 448.148 239.102 447.697C238.668 447.257 238.361 446.709 238.21 446.111C238.06 445.512 238.073 444.885 238.247 444.293L249.921 390.104H241.095L227.333 454.885H235.4L236.318 450.787C236.686 451.793 237.262 452.712 238.008 453.483C238.755 454.254 239.655 454.861 240.652 455.263C242.656 456.088 244.869 456.264 246.979 455.768C249.218 455.265 251.282 454.177 252.958 452.615C254.697 450.991 255.853 448.842 256.248 446.5L268.27 390.293ZM232.838 393.698C232.021 392.288 230.766 391.182 229.263 390.545C226.626 389.553 223.755 389.356 221.006 389.978C220.753 391.207 220.532 392.216 220.31 393.13C220.089 394.044 219.994 394.706 219.867 395.305C219.741 395.904 219.677 396.22 219.867 396.22C221.081 396.02 222.325 396.095 223.505 396.44C223.814 396.521 224.099 396.675 224.336 396.889C224.573 397.103 224.754 397.371 224.866 397.67C225.131 398.327 225.131 399.061 224.866 399.719L212.844 454.885H221.639L227.555 426.986C228.314 423.487 229.042 420.083 229.706 416.773C230.37 413.463 231.035 410.468 231.636 407.789C232.237 405.109 232.964 401.862 233.597 399.057C233.932 397.18 233.689 395.246 232.901 393.509M215.881 394.58C215.424 393.232 214.667 392.003 213.667 390.987C212.46 390.068 211.049 389.452 209.554 389.19L204.208 391.68L199.874 389.19C198.178 389.468 196.554 390.079 195.097 390.987C193.406 392.12 191.96 393.58 190.846 395.28C189.732 396.98 188.972 398.886 188.611 400.885L178.931 446.594C178.351 448.473 178.51 450.501 179.374 452.268C180.094 453.696 181.307 454.815 182.79 455.421C184.312 455.997 185.952 456.192 187.567 455.988C189.188 455.846 190.751 455.316 192.123 454.444L193.262 448.895C192.582 449.096 191.866 449.144 191.166 449.035C190.465 448.926 189.798 448.663 189.212 448.265C188.137 447.477 187.789 446.027 188.263 443.883L198.165 397.134L202.594 399.529L207.846 397.134L195.539 455.137H204.303L209.997 428.121C210.693 424.717 211.389 421.407 212.117 418.191C212.844 414.976 213.477 412.107 213.983 409.554C214.489 407.001 215.122 404.163 215.818 401.011C216.407 398.951 216.407 396.767 215.818 394.706M182.854 401.326C183.357 399.263 183.454 397.122 183.138 395.022C182.872 393.642 182.187 392.377 181.177 391.396C180.172 390.49 178.934 389.879 177.602 389.631C176.059 389.333 174.491 389.185 172.92 389.19C171.265 389.187 169.613 389.335 167.985 389.631C166.456 389.927 165.004 390.527 163.714 391.396C162.337 392.358 161.174 393.592 160.297 395.022C159.168 396.971 158.396 399.106 158.02 401.326L156.406 408.608C156.05 410.051 155.922 411.54 156.027 413.022C156.198 414.474 156.684 415.872 157.45 417.12L164.632 429.382C165.31 430.464 165.933 431.579 166.498 432.724C166.906 433.876 166.906 435.133 166.498 436.286L165.011 443.442C164.808 445.069 164.175 446.614 163.176 447.918C162.767 448.333 162.272 448.655 161.726 448.862C161.18 449.069 160.596 449.156 160.013 449.116C159.516 449.192 159.008 449.112 158.56 448.886C158.112 448.66 157.746 448.299 157.514 447.855C157.085 446.415 157.085 444.882 157.514 443.442L159.538 433.796H151.123L148.972 443.883C148.445 445.942 148.326 448.084 148.624 450.188C148.813 451.591 149.47 452.89 150.49 453.876C151.5 454.794 152.751 455.407 154.097 455.641C155.625 455.966 157.185 456.124 158.747 456.114C160.393 456.118 162.036 455.959 163.651 455.641C165.206 455.371 166.685 454.769 167.985 453.876C169.39 452.901 170.575 451.645 171.465 450.188C172.623 448.245 173.416 446.109 173.806 443.883L175.388 436.065C175.751 434.675 175.942 433.246 175.957 431.81C175.87 430.241 175.356 428.727 174.47 427.428L167.289 415.638C166.635 414.717 166.054 413.747 165.549 412.738C164.962 411.439 164.861 409.974 165.264 408.608L166.719 401.799C166.935 400.186 167.543 398.649 168.491 397.323C168.891 396.895 169.384 396.564 169.933 396.357C170.481 396.149 171.07 396.07 171.655 396.125C172.104 396.088 172.556 396.167 172.966 396.355C173.376 396.543 173.731 396.833 173.996 397.197C174.437 398.656 174.437 400.213 173.996 401.673L172.161 410.184H180.955L182.854 401.326ZM152.104 393.635C151.273 392.225 150.009 391.119 148.497 390.482C145.861 389.486 142.989 389.289 140.24 389.915C140.019 391.144 139.798 392.153 139.576 393.067C139.355 393.981 139.26 394.643 139.102 395.242C138.943 395.841 138.912 396.156 139.102 396.156C140.316 395.958 141.559 396.033 142.74 396.377C143.047 396.463 143.329 396.619 143.565 396.832C143.801 397.045 143.984 397.311 144.1 397.607C144.366 398.264 144.366 398.998 144.1 399.656L132.11 454.885H140.873L146.789 426.986C147.548 423.498 148.276 420.093 148.972 416.773C149.636 413.431 150.301 410.468 150.902 407.789C151.503 405.109 152.23 401.862 152.831 399.057C153.19 397.183 152.958 395.245 152.167 393.509M134.957 401.673C135.466 399.602 135.466 397.439 134.957 395.368C134.608 394.019 133.885 392.796 132.869 391.838C131.707 390.938 130.336 390.342 128.883 390.104C127.268 389.788 125.626 389.629 123.98 389.631H119.582H115.217H110.313L96.362 454.885H105.125L117.526 396.44H122.43C123.063 396.357 123.708 396.421 124.312 396.629C124.916 396.837 125.463 397.183 125.91 397.638C126.535 399.055 126.591 400.657 126.068 402.114L114.805 454.885H123.569L134.957 401.673ZM102.151 401.2C102.658 399.129 102.658 396.967 102.151 394.896C101.763 393.492 100.971 392.232 99.8735 391.27C98.7133 390.36 97.343 389.753 95.8874 389.505C94.2691 389.215 92.6283 389.067 90.9839 389.064C89.2136 389.064 87.4465 389.212 85.7008 389.505C84.0405 389.787 82.4506 390.387 81.0187 391.27C79.5406 392.225 78.2622 393.456 77.2541 394.896C76.0124 396.806 75.1829 398.953 74.8181 401.2L72.8884 410.184H81.6514L83.4546 401.673C83.657 399.966 84.4514 398.382 85.7008 397.197C86.7855 396.365 88.1296 395.941 89.497 395.999C90.0797 395.961 90.6636 396.049 91.2093 396.256C91.7551 396.462 92.25 396.783 92.6606 397.197C93.3882 397.985 93.5148 399.466 93.0402 401.673L84.1823 443.316C83.9714 445.027 83.1655 446.611 81.9045 447.792C80.8102 448.582 79.4909 449.001 78.1399 448.99C77.5262 449.048 76.9074 448.964 76.3314 448.745C75.7554 448.527 75.2376 448.179 74.8181 447.729C74.4531 447.058 74.2361 446.318 74.1815 445.556C74.127 444.795 74.2362 444.031 74.5018 443.316L78.4879 424.402H83.3597L84.9732 417.372H71.528L65.8336 443.915C65.2952 445.975 65.2304 448.13 65.6438 450.219C65.9715 451.659 66.7598 452.953 67.8899 453.908C69.0187 454.83 70.372 455.439 71.8128 455.673C73.4798 455.999 75.1756 456.158 76.8744 456.146C78.6147 456.146 80.3514 455.988 82.0627 455.673C83.7352 455.399 85.3371 454.799 86.7764 453.908C88.311 452.976 89.6186 451.716 90.6043 450.219C91.8371 448.304 92.6658 446.159 93.0402 443.915L102.151 401.2ZM75.0396 373.649H69.1237L68.4594 377.274H65.6122L66.2765 373.649H60.3607L59.6647 377.274H47.4534L45.8399 384.178H72.7618L75.0396 373.649ZM69.2503 401.2C69.7879 399.142 69.8849 396.994 69.535 394.896C69.2792 393.519 68.6056 392.253 67.6052 391.27C66.5876 390.365 65.3402 389.754 63.9988 389.505C62.4668 389.207 60.9092 389.059 59.3483 389.064C57.6827 389.06 56.0202 389.208 54.3815 389.505C52.8531 389.801 51.4003 390.401 50.1107 391.27C48.7335 392.231 47.5704 393.466 46.6941 394.896C45.5643 396.845 44.793 398.98 44.4163 401.2L42.8346 408.482C42.4698 409.923 42.3311 411.412 42.4233 412.895C42.6243 414.341 43.108 415.733 43.8469 416.994L51.0282 429.256C51.7069 430.338 52.3299 431.453 52.8947 432.598C53.3023 433.75 53.3023 435.007 52.8947 436.16L51.4078 443.316C51.2138 444.94 50.5916 446.485 49.6046 447.792C49.1927 448.204 48.6976 448.524 48.1522 448.73C47.6067 448.937 47.0234 449.025 46.441 448.99C45.9449 449.062 45.4386 448.979 44.9913 448.753C44.544 448.528 44.1775 448.17 43.9418 447.729C43.5129 446.289 43.5129 444.756 43.9418 443.316L45.9981 433.67H37.4565L35.3053 443.757C34.7943 445.818 34.6762 447.957 34.9573 450.062C35.1548 451.469 35.8237 452.769 36.8554 453.75C37.8528 454.667 39.0936 455.28 40.4303 455.515C41.9694 455.84 43.5391 455.998 45.1123 455.988C46.7479 455.99 48.3797 455.832 49.9842 455.515C51.5398 455.245 53.0183 454.643 54.3183 453.75C55.7306 452.784 56.9175 451.526 57.7982 450.062C58.9564 448.119 59.7497 445.983 60.1392 443.757L61.721 435.939C62.0845 434.549 62.2757 433.12 62.2904 431.684C62.2203 430.112 61.7048 428.593 60.8036 427.302L53.7805 415.512C53.1046 414.6 52.5117 413.629 52.0089 412.612C51.4217 411.313 51.3207 409.848 51.7242 408.482L53.211 401.673C53.4199 400.063 54.0169 398.527 54.951 397.197C55.3509 396.769 55.8442 396.438 56.3927 396.231C56.9412 396.023 57.5304 395.944 58.1146 395.999C58.6125 395.926 59.1211 396 59.5768 396.213C60.0325 396.426 60.4152 396.768 60.677 397.197C61.1186 398.656 61.1186 400.213 60.677 401.673L58.8422 410.184H67.6368L69.2503 401.2ZM37.3616 407.221C37.6547 406.256 37.7415 405.24 37.6164 404.239C37.4914 403.239 37.1573 402.275 36.6358 401.411C36.1142 400.546 35.4166 399.801 34.5881 399.222C33.7596 398.642 32.8185 398.243 31.8254 398.048C29.7108 397.619 27.5175 397.793 25.4983 398.552C23.0228 399.385 20.8309 400.892 19.1712 402.903L21.8918 390.104H13.7931L0 454.885H8.76305L18.4435 409.491C18.7702 408.105 19.6053 406.89 20.7846 406.086C21.8999 405.217 23.2936 404.78 24.7074 404.857C25.2698 404.803 25.8363 404.901 26.3481 405.139C26.86 405.378 27.2984 405.748 27.6179 406.212C27.9219 406.672 28.1244 407.191 28.2116 407.734C28.2989 408.278 28.269 408.834 28.124 409.365L18.4435 454.885H27.2066L37.3616 407.221ZM40.3037 390.104H26.6372L25.3085 396.913H38.975L40.3037 390.104Z" fill="#221F20"/>
<path d="M618.286 261.866C618.865 259.987 618.707 257.959 617.843 256.192C617.123 254.765 615.909 253.645 614.426 253.04C612.926 252.465 611.306 252.27 609.712 252.472C608.102 252.621 606.551 253.15 605.188 254.017L604.05 259.565C604.719 259.367 605.425 259.321 606.114 259.43C606.804 259.539 607.46 259.801 608.036 260.195C609.174 260.994 609.522 262.413 609.08 264.451L599.178 311.106L601.076 253.449H592.882L590.51 318.703H597.912C599.721 318.932 601.554 318.531 603.1 317.568C604.35 316.732 605.425 315.661 606.264 314.416C607.138 312.966 607.789 311.393 608.194 309.75L618.286 261.866ZM594.148 241.533H585.954C585.509 241.561 585.066 241.463 584.674 241.252C584.282 241.04 583.958 240.722 583.74 240.336C583.482 239.926 583.322 239.463 583.273 238.982C583.223 238.501 583.286 238.015 583.455 237.561H574.565L573.774 241.439C573.616 242.164 573.542 242.904 573.553 243.646C573.543 244.412 573.776 245.162 574.217 245.789C574.77 246.501 575.501 247.055 576.337 247.397C577.634 247.859 579.01 248.063 580.386 247.996H592.661L594.148 241.533ZM586.302 264.577C586.78 262.503 586.78 260.347 586.302 258.272C586.006 256.845 585.224 255.564 584.087 254.647C582.922 253.757 581.552 253.172 580.101 252.945C578.486 252.627 576.844 252.469 575.198 252.472C573.499 252.469 571.804 252.627 570.136 252.945C568.521 253.213 566.974 253.792 565.581 254.647C564.115 255.656 562.885 256.968 561.974 258.493C560.741 260.408 559.913 262.553 559.538 264.798L558.273 270.819H566.593L567.858 265.239C568.044 263.534 568.829 261.948 570.073 260.763C571.164 259.943 572.504 259.52 573.869 259.565C574.451 259.535 575.033 259.627 575.577 259.833C576.122 260.039 576.617 260.356 577.033 260.763C577.76 261.551 577.887 263.064 577.444 265.239L574.47 278.857H567.637C565.851 278.796 564.071 279.088 562.398 279.715C560.726 280.343 559.195 281.294 557.893 282.514C555.345 284.926 553.581 288.045 552.832 291.467L548.845 310.633C548.266 312.518 548.447 314.554 549.352 316.307C550.145 317.747 551.422 318.863 552.958 319.46C554.535 320.035 556.226 320.229 557.893 320.027C559.536 319.895 561.122 319.364 562.512 318.482L563.651 312.934C562.934 313.129 562.184 313.173 561.449 313.065C560.714 312.956 560.01 312.697 559.38 312.304C558.115 311.516 557.735 310.066 558.178 307.922L561.721 291.246C561.849 290.484 562.131 289.756 562.55 289.106C562.968 288.455 563.515 287.897 564.157 287.463C565.328 286.693 566.623 286.128 567.985 285.793C569.675 285.487 571.395 285.381 573.11 285.477L565.929 319.176H574.692L586.302 264.577ZM552.009 270.882C552.302 269.919 552.39 268.905 552.267 267.906C552.144 266.907 551.813 265.945 551.294 265.081C550.776 264.217 550.082 263.471 549.257 262.89C548.432 262.309 547.495 261.907 546.504 261.709C544.39 261.284 542.198 261.459 540.177 262.213C537.71 263.062 535.522 264.566 533.85 266.563L536.602 253.765H528.314L514.521 318.545H523.316L532.996 273.152C533.309 271.768 534.134 270.552 535.305 269.747C536.43 268.873 537.836 268.436 539.26 268.518C539.817 268.47 540.377 268.57 540.883 268.808C541.389 269.046 541.822 269.414 542.139 269.873C542.448 270.33 542.656 270.848 542.749 271.391C542.842 271.935 542.817 272.492 542.676 273.025L532.996 318.419H541.759L552.009 270.882ZM554.983 253.765H541.316L539.956 260.574H553.622L554.983 253.765ZM520.184 257.169C519.362 255.752 518.095 254.644 516.577 254.017C513.941 253.021 511.069 252.823 508.32 253.449C508.099 254.679 507.877 255.688 507.656 256.602C507.434 257.516 507.34 258.178 507.181 258.777C507.023 259.376 506.992 259.691 507.181 259.691C508.395 259.491 509.639 259.567 510.819 259.912C511.126 259.998 511.409 260.153 511.645 260.367C511.881 260.58 512.064 260.845 512.18 261.141C512.43 261.801 512.43 262.53 512.18 263.19L500.316 318.798H509.08L515.027 290.899C515.786 287.4 516.482 283.996 517.178 280.686C517.874 277.376 518.507 274.381 519.108 271.701C519.709 269.022 520.437 265.775 521.038 262.969C521.396 261.096 521.164 259.158 520.373 257.421M510.566 242.195H504.239C504.53 241.355 504.606 240.456 504.461 239.579C504.278 238.931 503.942 238.336 503.48 237.845C503.123 237.523 502.702 237.281 502.243 237.134C501.785 236.987 501.301 236.94 500.823 236.994H495.128L493.736 243.299H497.975L496.678 247.996H509.333L510.566 242.195ZM503.29 264.672C503.768 262.597 503.768 260.442 503.29 258.367C502.995 256.94 502.212 255.659 501.076 254.742C499.91 253.852 498.54 253.267 497.09 253.04C495.475 252.722 493.832 252.563 492.186 252.567C490.488 252.563 488.793 252.722 487.124 253.04C485.51 253.308 483.963 253.886 482.569 254.742C481.068 255.709 479.794 256.989 478.836 258.493C477.603 260.408 476.774 262.553 476.4 264.798L475.135 270.819H483.455L484.72 265.239C484.906 263.534 485.69 261.948 486.935 260.763C488.026 259.943 489.365 259.52 490.731 259.565C491.313 259.535 491.894 259.627 492.439 259.833C492.983 260.039 493.479 260.356 493.894 260.763C494.622 261.551 494.749 263.064 494.306 265.239L491.332 278.857H484.499C482.713 278.796 480.932 279.088 479.26 279.715C477.588 280.343 476.057 281.294 474.755 282.514C472.206 284.926 470.443 288.045 469.693 291.467L465.707 310.633C465.128 312.518 465.309 314.554 466.213 316.307C467.007 317.747 468.284 318.863 469.82 319.46C471.397 320.035 473.088 320.229 474.755 320.027C476.398 319.895 477.983 319.364 479.374 318.482L480.513 312.934C479.796 313.129 479.046 313.173 478.311 313.065C477.576 312.956 476.871 312.697 476.242 312.304C474.976 311.516 474.597 310.066 475.04 307.922L478.583 291.246C478.711 290.484 478.993 289.756 479.411 289.106C479.83 288.455 480.377 287.897 481.019 287.463C482.19 286.693 483.484 286.128 484.847 285.793C486.537 285.487 488.257 285.381 489.972 285.477L482.79 319.176H491.553L503.29 264.672ZM478.456 226.339H471.37L469.44 235.512H476.495L478.456 226.339ZM476.052 237.467H469.44L468.776 241.092H448.371L446.789 247.996H473.774L476.052 237.467ZM470.801 262.307C471.1 261.286 471.17 260.212 471.006 259.16C470.842 258.109 470.448 257.106 469.851 256.223C468.731 254.636 467.065 253.514 465.169 253.071C463.06 252.637 460.871 252.789 458.842 253.512C456.343 254.347 454.144 255.892 452.515 257.957L453.338 253.765H445.239L431.509 318.703H440.304L451.788 264.577C452.114 263.191 452.949 261.977 454.129 261.173C455.247 260.307 456.636 259.861 458.051 259.912C458.62 259.902 459.182 260.028 459.691 260.28C460.2 260.533 460.64 260.903 460.975 261.361C461.31 261.818 461.53 262.349 461.616 262.909C461.701 263.469 461.651 264.041 461.468 264.577L449.984 318.703H458.716L470.801 262.307ZM418.412 312.083H413.54C411.769 312.083 410.63 311.705 410.123 310.917C409.589 309.461 409.589 307.864 410.123 306.409L411.136 301.302C411.452 300.041 411.705 298.843 411.958 297.803C412.211 296.763 412.275 296.164 412.275 296.101C412.592 294.089 413.532 292.227 414.964 290.773C416.051 289.739 417.36 288.963 418.792 288.504C420.368 288.024 422.024 287.863 423.663 288.031L418.412 312.083ZM439.734 253.922H430.971L425.277 280.812C423.654 281.088 421.996 281.088 420.373 280.812C419.233 280.501 418.203 279.879 417.4 279.015C416.957 278.355 416.675 277.6 416.576 276.812C416.477 276.024 416.564 275.224 416.83 274.476C416.891 273.996 416.986 273.522 417.115 273.057C417.305 272.237 417.495 271.386 417.653 270.504C417.811 269.621 418.127 268.234 418.444 266.847C418.729 265.282 419.308 263.784 420.152 262.434C420.659 261.61 421.366 260.926 422.208 260.448C423.021 260.083 423.916 259.941 424.802 260.038L426.194 253.733C424.099 253.392 421.962 253.392 419.867 253.733C418.016 254.144 416.257 254.892 414.679 255.94C412.743 257.321 411.364 259.344 410.788 261.645C410.345 263.915 409.934 265.933 409.554 267.666C409.385 268.423 409.227 269.148 409.079 269.842C408.921 270.504 408.795 271.166 408.637 271.765C408.478 272.363 408.32 273.089 408.162 273.687C407.661 275.375 407.661 277.17 408.162 278.857C408.612 280.118 409.311 281.276 410.218 282.262C410.882 283.011 411.689 283.622 412.591 284.059C412.96 284.193 413.311 284.373 413.635 284.595C412.004 285.242 410.471 286.112 409.079 287.18C407.729 288.224 406.536 289.455 405.536 290.836C404.359 292.44 403.579 294.297 403.259 296.258C403.175 296.853 403.059 297.442 402.911 298.024C402.689 299.127 402.436 300.325 402.12 301.617C401.803 302.91 401.455 304.77 400.981 306.945C400.453 309.014 400.453 311.181 400.981 313.25C401.336 314.668 402.133 315.937 403.259 316.875C404.395 317.785 405.745 318.392 407.181 318.64C408.807 318.952 410.461 319.099 412.117 319.081H420.911L425.783 318.892L439.734 253.922ZM404.303 257.327C403.486 255.917 402.231 254.811 400.728 254.174C398.05 253.087 395.105 252.835 392.281 253.449C392.113 254.513 391.88 255.566 391.585 256.602C391.478 257.334 391.33 258.06 391.142 258.777C391.142 259.376 390.952 259.691 391.142 259.691C392.367 259.492 393.62 259.567 394.812 259.912C395.119 259.998 395.401 260.153 395.637 260.367C395.874 260.58 396.057 260.845 396.172 261.141C396.438 261.798 396.438 262.533 396.172 263.19L384.34 318.798H393.104L399.019 290.899C399.779 287.411 400.506 284.006 401.202 280.686C401.867 277.344 402.531 274.381 403.132 271.701C403.733 269.022 404.461 265.775 405.062 262.969C405.411 261.093 405.167 259.155 404.366 257.421M389.56 254.017H380.797L369.314 308.143C368.983 309.37 368.288 310.468 367.321 311.295C366.375 312.17 365.131 312.654 363.841 312.651C363.224 312.72 362.6 312.645 362.018 312.431C361.436 312.218 360.912 311.872 360.487 311.421C360.054 310.981 359.746 310.433 359.596 309.834C359.446 309.236 359.459 308.608 359.633 308.017L371.117 253.891H362.354L348.561 318.672H356.659L357.577 314.479C357.945 315.486 358.521 316.404 359.267 317.175C360.014 317.946 360.914 318.553 361.911 318.955C363.914 319.782 366.128 319.958 368.238 319.46C370.477 318.957 372.541 317.869 374.217 316.307C376.042 314.718 377.279 312.565 377.729 310.192L389.56 254.017ZM352.831 271.103C353.124 270.137 353.211 269.121 353.086 268.121C352.961 267.12 352.627 266.156 352.106 265.292C351.584 264.428 350.886 263.682 350.058 263.103C349.229 262.524 348.288 262.124 347.295 261.929C345.181 261.5 342.987 261.675 340.968 262.434C338.493 263.266 336.301 264.773 334.641 266.784L337.362 253.985H329.295L315.47 318.703H324.233L333.913 273.309C334.24 271.923 335.075 270.709 336.254 269.905C337.37 269.036 338.763 268.599 340.177 268.675C340.74 268.622 341.306 268.719 341.818 268.957C342.33 269.196 342.768 269.566 343.088 270.031C343.392 270.49 343.594 271.009 343.681 271.553C343.769 272.096 343.739 272.652 343.594 273.183L333.913 318.577H342.676L352.831 271.103ZM355.774 253.985H342.107L340.747 260.794H354.318L355.774 253.985ZM321.164 265.554C321.672 263.483 321.672 261.321 321.164 259.25C320.785 257.833 319.992 256.56 318.887 255.593C317.724 254.693 316.353 254.097 314.9 253.859C313.294 253.566 311.662 253.429 310.029 253.449H305.631H301.265H296.362L282.569 318.703H291.332L303.701 260.258H308.605C309.239 260.175 309.883 260.24 310.487 260.448C311.091 260.656 311.638 261.001 312.085 261.456C312.659 262.894 312.659 264.495 312.085 265.933L298.988 327.435L291.047 322.454L280.797 327.435L279.247 334.15L289.624 329.169L297.691 334.15H306.485L321.164 265.554ZM288.263 265.554C288.774 263.484 288.774 261.32 288.263 259.25C287.908 257.823 287.111 256.543 285.986 255.593C284.829 254.682 283.456 254.085 281.999 253.859C280.384 253.541 278.742 253.383 277.096 253.386H272.73H268.333H263.429L249.636 318.703H258.399L270.832 260.258H275.736C276.364 260.172 277.005 260.236 277.604 260.444C278.204 260.653 278.745 260.999 279.184 261.456C279.795 262.875 279.863 264.468 279.374 265.933L268.08 318.703H276.874L288.263 265.554ZM248.497 302.248H242.581L243.594 297.929H235.052C234.831 299.158 234.641 300.136 234.451 300.892C234.261 301.649 234.103 302.342 233.977 302.941C233.85 303.54 233.977 303.887 233.977 303.95C233.753 304.6 233.688 305.293 233.787 305.973C233.886 306.653 234.146 307.3 234.546 307.859C235.018 308.338 235.586 308.711 236.213 308.956C236.84 309.2 237.512 309.31 238.184 309.278H247.169L248.497 302.248ZM255.9 267.572H249.921L250.838 263.348H242.455C242.233 264.577 242.044 265.554 241.854 266.311L241.316 268.36C241.316 268.959 241.095 269.306 241.095 269.369C240.872 270.022 240.813 270.72 240.923 271.402C241.033 272.083 241.309 272.727 241.727 273.278C242.194 273.745 242.752 274.112 243.367 274.356C243.982 274.6 244.641 274.716 245.302 274.696H254.318L255.9 267.572ZM237.267 257.327C236.45 255.917 235.195 254.811 233.692 254.174C231.055 253.182 228.184 252.985 225.435 253.607C225.214 254.836 224.96 255.845 224.739 256.759C224.518 257.673 224.454 258.335 224.296 258.934C224.138 259.533 224.106 259.849 224.296 259.849C225.51 259.649 226.754 259.724 227.934 260.069C228.245 260.155 228.532 260.311 228.773 260.524C229.014 260.737 229.203 261.002 229.326 261.299C229.592 261.956 229.592 262.69 229.326 263.348L217.083 318.703H225.846L231.762 290.805C232.521 287.306 233.249 283.901 233.913 280.591C234.578 277.281 235.242 274.286 235.875 271.607C236.507 268.927 237.203 265.68 237.805 262.875C238.189 261.014 238.001 259.08 237.267 257.327ZM220.184 265.018C220.721 262.96 220.818 260.812 220.468 258.714C220.095 257.397 219.335 256.222 218.285 255.341C217.276 254.441 216.04 253.831 214.711 253.575C213.168 253.278 211.6 253.13 210.028 253.134C208.363 253.133 206.701 253.281 205.062 253.575C203.566 253.883 202.147 254.483 200.886 255.341C199.524 256.319 198.364 257.55 197.469 258.966C196.339 260.916 195.568 263.051 195.191 265.271L193.61 272.553C193.261 273.996 193.122 275.483 193.198 276.966C193.399 278.412 193.883 279.804 194.622 281.064L201.803 293.169C202.657 294.525 203.258 295.628 203.701 296.511C204.106 297.664 204.106 298.92 203.701 300.073L202.246 307.229C202.034 308.854 201.402 310.396 200.411 311.705C200.002 312.12 199.507 312.442 198.961 312.649C198.415 312.856 197.831 312.942 197.248 312.903C196.751 312.979 196.243 312.899 195.795 312.672C195.347 312.446 194.981 312.086 194.749 311.642C194.332 310.2 194.332 308.67 194.749 307.229L196.805 297.582H188.263L186.08 307.67C185.577 309.733 185.47 311.872 185.764 313.975C185.953 315.378 186.61 316.677 187.631 317.663C188.632 318.574 189.871 319.186 191.205 319.428C192.745 319.752 194.314 319.911 195.887 319.901C197.533 319.903 199.176 319.744 200.791 319.428C202.345 319.152 203.822 318.551 205.125 317.663C206.52 316.686 207.694 315.43 208.573 313.975C209.745 312.039 210.54 309.9 210.914 307.67L212.528 299.852C212.891 298.462 213.082 297.033 213.097 295.596C213.011 294.028 212.496 292.513 211.61 291.215L204.429 279.425C203.765 278.505 203.172 277.535 202.657 276.525C202.078 275.187 202.01 273.684 202.468 272.3L203.954 265.491C204.128 263.883 204.704 262.343 205.631 261.015C206.028 260.583 206.521 260.25 207.07 260.042C207.62 259.834 208.21 259.757 208.795 259.817C209.293 259.744 209.801 259.818 210.257 260.032C210.713 260.245 211.095 260.587 211.357 261.015C211.816 262.472 211.816 264.034 211.357 265.491L209.554 274.003H218.317L220.184 265.018ZM192.85 253.922H184.72L169.124 308.269L177.317 253.922H166.055L150.237 308.269L158.684 253.922H150.68L141.569 318.703H153.875L170.041 261.961L160.93 318.703H173.236L192.85 253.922ZM146.061 253.922H137.109L123.379 318.703H132.142L146.061 253.922Z" fill="#221F20"/>
<path d="M579.406 128.395C579.9 126.323 579.9 124.163 579.406 122.091C579.11 120.664 578.327 119.383 577.191 118.465C576.032 117.565 574.659 116.978 573.205 116.763C571.59 116.445 569.948 116.287 568.301 116.29C566.53 116.287 564.761 116.445 563.018 116.763C561.353 117.03 559.754 117.607 558.305 118.465C556.772 119.373 555.464 120.612 554.477 122.091C553.231 123.999 552.401 126.147 552.041 128.395L542.36 174.231C541.781 176.11 541.939 178.138 542.803 179.905C543.523 181.332 544.737 182.452 546.22 183.057C547.741 183.633 549.382 183.828 550.997 183.625C552.618 183.482 554.181 182.952 555.552 182.08L556.786 176.532C556.106 176.733 555.391 176.78 554.69 176.671C553.99 176.562 553.322 176.299 552.737 175.901C551.661 175.113 551.313 173.663 551.788 171.52L560.899 128.963C561.098 127.261 561.88 125.68 563.113 124.486C564.216 123.667 565.566 123.244 566.941 123.289C567.523 123.257 568.105 123.348 568.65 123.554C569.195 123.76 569.691 124.078 570.105 124.486C570.832 125.275 570.959 126.788 570.516 128.963L559.001 182.773H567.764L579.406 128.395ZM554.35 105.352H546.157C545.712 105.379 545.268 105.282 544.876 105.07C544.485 104.858 544.161 104.54 543.942 104.154C543.684 103.744 543.525 103.281 543.475 102.8C543.426 102.319 543.488 101.833 543.657 101.38H534.641L533.85 105.257C533.681 105.98 533.596 106.721 533.597 107.464C533.599 108.233 533.843 108.983 534.293 109.607C534.84 110.326 535.573 110.881 536.413 111.215C537.7 111.676 539.065 111.879 540.431 111.814H552.737L554.35 105.352ZM546.378 129.246C546.886 127.175 546.886 125.013 546.378 122.942C545.974 121.597 545.195 120.395 544.132 119.474C542.969 118.574 541.599 117.978 540.146 117.74C538.531 117.424 536.888 117.266 535.242 117.268H530.845H526.479H521.576L507.783 182.521H516.546L528.947 124.077H533.85C534.484 123.993 535.128 124.058 535.732 124.266C536.336 124.474 536.884 124.819 537.33 125.275C537.956 126.692 538.012 128.293 537.488 129.751L526.226 182.521H534.989L546.378 129.246ZM498.545 108.756C498.001 109.118 497.364 109.315 496.71 109.324C496.149 109.339 495.604 109.135 495.192 108.756C494.97 108.52 494.814 108.229 494.742 107.913C494.67 107.597 494.683 107.268 494.78 106.959C494.83 106.583 494.957 106.221 495.153 105.896C495.349 105.571 495.61 105.289 495.919 105.068C496.449 104.671 497.091 104.451 497.754 104.437C498.037 104.435 498.317 104.489 498.578 104.597C498.839 104.706 499.076 104.866 499.273 105.068C499.5 105.321 499.658 105.628 499.73 105.959C499.802 106.291 499.786 106.636 499.684 106.959C499.633 107.322 499.505 107.67 499.308 107.98C499.112 108.29 498.852 108.554 498.545 108.756ZM513.35 121.145C512.534 119.736 511.279 118.629 509.776 117.993C507.139 117 504.267 116.803 501.519 117.425C501.266 118.655 501.044 119.663 500.823 120.578C500.601 121.492 500.506 122.154 500.38 122.753C500.253 123.352 500.19 123.667 500.38 123.667C501.594 123.467 502.837 123.543 504.018 123.887C504.327 123.969 504.612 124.123 504.849 124.337C505.085 124.551 505.267 124.818 505.378 125.117C505.644 125.774 505.644 126.509 505.378 127.166L493.293 182.521H502.088L508.004 154.623C508.763 151.124 509.491 147.719 510.155 144.409C510.82 141.099 511.484 138.105 512.085 135.425C512.686 132.746 513.414 129.499 514.046 126.693C514.381 124.816 514.138 122.882 513.35 121.145ZM502.689 102.231C502.147 101.713 501.507 101.307 500.807 101.036C500.106 100.766 499.359 100.636 498.608 100.655C496.892 100.684 495.226 101.234 493.831 102.231C493.01 102.779 492.306 103.485 491.763 104.308C491.22 105.131 490.847 106.054 490.668 107.022C490.397 107.832 490.345 108.698 490.517 109.533C490.69 110.369 491.08 111.145 491.648 111.782C492.746 112.826 494.213 113.392 495.729 113.359C497.454 113.324 499.129 112.775 500.538 111.782C501.358 111.24 502.06 110.539 502.603 109.721C503.146 108.904 503.52 107.986 503.702 107.022C503.975 106.208 504.028 105.337 503.856 104.496C503.684 103.654 503.292 102.873 502.721 102.231M496.394 128.9C496.901 126.829 496.901 124.666 496.394 122.595C496.005 121.191 495.214 119.931 494.116 118.97C492.956 118.059 491.586 117.453 490.13 117.204C488.512 116.914 486.871 116.767 485.226 116.763C483.488 116.768 481.753 116.916 480.038 117.204C478.38 117.493 476.791 118.092 475.356 118.97C473.881 119.917 472.612 121.15 471.623 122.595C470.37 124.503 469.53 126.65 469.156 128.9L467.226 137.884H475.894L477.697 129.246C477.904 127.547 478.685 125.968 479.912 124.77C481.01 123.941 482.363 123.518 483.74 123.572C484.352 123.515 484.97 123.593 485.55 123.8C486.129 124.007 486.656 124.338 487.093 124.77C487.821 125.558 487.947 127.071 487.504 129.278L484.341 145.04H477.286L475.704 151.943H482.759L476.115 182.521H484.752L496.394 128.9ZM464.758 129.373C465.286 127.304 465.286 125.137 464.758 123.068C464.403 121.641 463.606 120.361 462.48 119.411C461.324 118.5 459.951 117.903 458.494 117.677C456.89 117.361 455.258 117.202 453.622 117.204H449.225H444.828H439.956L426.036 182.238H434.831L447.232 123.793H452.136C452.769 123.709 453.414 123.774 454.018 123.982C454.622 124.19 455.169 124.535 455.616 124.991C456.216 126.413 456.273 128.006 455.774 129.467L444.575 182.521H453.338L464.758 129.373ZM419.614 185.989H411.769L410.851 190.528C410.791 190.798 410.668 191.049 410.492 191.263C410.316 191.477 410.092 191.646 409.839 191.758C409.309 192.07 408.713 192.253 408.099 192.294C407.52 192.314 406.945 192.195 406.422 191.947C406.193 191.849 406.011 191.666 405.916 191.436C405.821 191.206 405.821 190.947 405.916 190.717L406.834 186.178H395.002L393.863 191.852H397.944L397.722 192.987C397.62 193.448 397.618 193.926 397.716 194.388C397.814 194.85 398.011 195.286 398.292 195.667C398.875 196.33 399.614 196.839 400.443 197.148C401.462 197.506 402.528 197.718 403.607 197.779C404.746 197.779 405.884 197.779 407.023 197.779C408.166 197.778 409.307 197.704 410.44 197.558C411.603 197.415 412.748 197.15 413.857 196.77C414.854 196.417 415.792 195.918 416.641 195.288C417.425 194.703 417.966 193.85 418.159 192.893L419.614 185.989ZM431.794 129.246C432.302 127.175 432.302 125.013 431.794 122.942C431.439 121.515 430.642 120.235 429.516 119.285C428.353 118.385 426.983 117.789 425.53 117.551C423.951 117.305 422.351 117.21 420.753 117.268H416.387H411.99H407.087L393.199 182.521H406.865L408.352 175.712H403.448L414.426 124.077H419.298C419.932 123.988 420.577 124.05 421.182 124.259C421.787 124.467 422.334 124.815 422.778 125.275C423.389 126.693 423.457 128.286 422.968 129.751L411.642 182.521H420.405L431.794 129.246ZM399.589 125.621C400.159 123.738 399.989 121.71 399.114 119.947C398.395 118.52 397.181 117.4 395.698 116.795C394.198 116.219 392.578 116.024 390.984 116.227C389.383 116.37 387.841 116.9 386.492 117.772L385.353 123.32C386.022 123.122 386.728 123.076 387.418 123.185C388.107 123.294 388.764 123.556 389.339 123.951C390.478 124.739 390.794 126.157 390.351 128.206L380.449 174.735L382.506 117.078H374.28L371.908 182.332H379.184C380.993 182.561 382.826 182.16 384.372 181.197C385.622 180.361 386.696 179.29 387.536 178.045C388.41 176.595 389.061 175.022 389.466 173.379L399.589 125.621ZM367.574 128.774C368.081 126.702 368.081 124.54 367.574 122.469C367.185 121.065 366.394 119.805 365.296 118.844C364.136 117.933 362.766 117.327 361.31 117.078C359.692 116.788 358.051 116.64 356.406 116.637C354.626 116.638 352.848 116.785 351.092 117.078C349.441 117.361 347.862 117.96 346.441 118.844C344.956 119.79 343.676 121.023 342.677 122.469C341.421 124.373 340.591 126.523 340.241 128.774L338.501 137.821H347.295L349.099 129.31C349.305 127.61 350.086 126.031 351.313 124.833C352.411 124.004 353.764 123.581 355.141 123.635C355.724 123.598 356.307 123.685 356.853 123.892C357.399 124.099 357.894 124.42 358.305 124.833C358.695 125.505 358.932 126.255 358.998 127.029C359.063 127.803 358.956 128.582 358.684 129.31L349.795 170.952C349.611 172.672 348.801 174.265 347.517 175.428C346.44 176.228 345.127 176.649 343.784 176.626C343.196 176.66 342.608 176.565 342.061 176.347C341.515 176.129 341.023 175.794 340.62 175.365C340.256 174.695 340.037 173.956 339.977 173.196C339.917 172.435 340.017 171.671 340.272 170.952L344.258 152.038H349.162L350.775 145.008H337.109L331.414 171.551C330.876 173.612 330.811 175.767 331.224 177.856C331.542 179.292 332.319 180.587 333.439 181.544C334.58 182.466 335.943 183.075 337.393 183.309C339.06 183.636 340.756 183.794 342.455 183.782C344.195 183.783 345.932 183.625 347.643 183.309C349.314 183.03 350.915 182.431 352.357 181.544C353.892 180.613 355.199 179.353 356.185 177.856C357.404 175.934 358.232 173.791 358.621 171.551L367.574 128.774ZM341.949 105.856H335.622C335.922 105.018 336.008 104.119 335.875 103.24C335.692 102.592 335.356 101.997 334.894 101.506C334.509 101.219 334.068 101.015 333.6 100.907C333.132 100.798 332.646 100.787 332.174 100.875H326.479L325.087 107.18H329.295L328.282 111.814H340.684L341.949 105.856ZM334.704 122.154C334.26 120.799 333.501 119.568 332.49 118.56C331.297 117.638 329.896 117.021 328.409 116.763L323.031 119.254L318.728 116.763C317.023 117.042 315.389 117.652 313.92 118.56C312.494 119.555 311.234 120.768 310.187 122.154C308.809 124.025 307.869 126.179 307.435 128.458L297.754 174.168C297.168 176.049 297.338 178.083 298.229 179.842C298.949 181.269 300.162 182.388 301.645 182.994C303.166 183.573 304.807 183.768 306.422 183.562C308.043 183.419 309.606 182.889 310.978 182.017L312.117 176.532C311.437 176.735 310.721 176.784 310.02 176.675C309.319 176.566 308.652 176.301 308.067 175.901C306.96 175.113 306.644 173.663 307.087 171.52L317.02 124.77L321.449 127.166L326.701 124.77L314.394 182.773H323.157L328.852 155.758C329.548 152.353 330.244 149.043 330.971 145.828C331.699 142.612 332.3 139.744 332.838 137.19C333.376 134.637 333.977 131.8 334.673 128.648C335.265 126.587 335.265 124.403 334.673 122.343M301.487 121.271C300.67 119.862 299.415 118.755 297.912 118.119C295.275 117.126 292.404 116.929 289.655 117.551C289.402 118.781 289.181 119.789 288.959 120.704C288.738 121.618 288.643 122.28 288.516 122.879C288.39 123.478 288.327 123.793 288.516 123.793C289.73 123.593 290.974 123.669 292.155 124.014C292.464 124.095 292.749 124.249 292.985 124.463C293.222 124.677 293.404 124.944 293.515 125.243C293.781 125.9 293.781 126.635 293.515 127.292L281.557 182.521H290.351L296.267 154.623C297.026 151.124 297.754 147.719 298.418 144.409C299.083 141.099 299.747 138.105 300.348 135.425C300.949 132.746 301.677 129.499 302.31 126.693C302.644 124.816 302.401 122.882 301.614 121.145M284.53 128.837C285.068 126.778 285.165 124.63 284.815 122.532C284.559 121.155 283.886 119.89 282.885 118.907C281.868 118.001 280.62 117.39 279.279 117.141C277.747 116.842 276.189 116.694 274.628 116.7C272.963 116.698 271.301 116.845 269.662 117.141C268.133 117.437 266.68 118.037 265.391 118.907C264.014 119.868 262.85 121.102 261.974 122.532C260.844 124.482 260.073 126.617 259.696 128.837L258.115 136.119C257.766 137.562 257.627 139.049 257.703 140.532C257.904 141.978 258.388 143.37 259.127 144.63L266.308 156.893C266.987 157.974 267.61 159.089 268.175 160.234C268.598 161.384 268.598 162.646 268.175 163.796L266.688 170.952C266.494 172.577 265.872 174.121 264.885 175.428C264.473 175.84 263.978 176.16 263.432 176.367C262.887 176.573 262.304 176.662 261.721 176.626C261.22 176.7 260.709 176.619 260.256 176.393C259.804 176.168 259.431 175.809 259.19 175.365C258.777 173.923 258.777 172.394 259.19 170.952L261.247 161.306H252.673L250.491 171.393C249.979 173.455 249.861 175.593 250.143 177.698C250.34 179.106 251.009 180.405 252.041 181.386C253.042 182.298 254.281 182.91 255.615 183.152C257.155 183.476 258.724 183.635 260.298 183.625C261.944 183.626 263.586 183.468 265.201 183.152C266.747 182.882 268.215 182.28 269.503 181.386C270.916 180.42 272.103 179.162 272.983 177.698C274.156 175.762 274.95 173.623 275.324 171.393L276.906 163.576C277.27 162.186 277.461 160.756 277.476 159.32C277.403 157.754 276.9 156.238 276.02 154.938L268.902 143.148C268.238 142.228 267.646 141.259 267.131 140.248C266.544 138.95 266.443 137.485 266.846 136.119L268.27 129.246C268.471 127.629 269.081 126.089 270.041 124.77C270.435 124.334 270.927 123.998 271.478 123.79C272.028 123.581 272.62 123.507 273.205 123.572C273.703 123.499 274.211 123.574 274.667 123.787C275.123 124 275.505 124.342 275.767 124.77C276.226 126.227 276.226 127.789 275.767 129.246L273.964 137.758H282.506L284.53 128.837ZM256.248 117.74H247.422L233.629 182.521H242.423L256.248 117.74ZM241.791 117.74H232.964L221.449 171.866C221.14 173.102 220.441 174.207 219.456 175.019C218.514 175.899 217.268 176.384 215.976 176.374C215.36 176.441 214.736 176.365 214.155 176.151C213.573 175.938 213.049 175.594 212.623 175.145C212.203 174.696 211.904 174.148 211.755 173.552C211.605 172.957 211.61 172.333 211.769 171.74L223.284 117.614H214.521L200.728 182.521H208.795L209.681 178.329C210.054 179.341 210.635 180.265 211.386 181.041C212.138 181.818 213.044 182.429 214.046 182.837C216.051 183.659 218.263 183.835 220.373 183.341C222.617 182.85 224.684 181.761 226.353 180.189C228.185 178.601 229.433 176.448 229.896 174.073L241.791 117.74ZM210.914 108.283C211.021 107.341 211.021 106.389 210.914 105.446C210.82 104.543 210.585 103.661 210.218 102.83C209.788 101.873 209.124 101.039 208.289 100.402C207.176 99.5949 205.885 99.0652 204.524 98.8578C202.491 98.5321 200.419 98.5321 198.387 98.8578C198.215 99.9209 197.983 100.973 197.691 102.01C197.577 102.747 197.408 103.474 197.185 104.185C196.995 104.784 196.931 105.068 197.026 105.068C198.243 104.884 199.485 104.97 200.664 105.32C200.964 105.421 201.239 105.583 201.473 105.794C201.707 106.006 201.894 106.263 202.025 106.55C202.254 107.213 202.254 107.935 202.025 108.599L186.207 182.584H194.97L210.914 108.283ZM174.249 108.851C173.715 109.208 173.089 109.405 172.446 109.418C172.145 109.424 171.847 109.369 171.57 109.255C171.292 109.141 171.041 108.971 170.832 108.756C170.618 108.515 170.468 108.224 170.396 107.91C170.325 107.596 170.333 107.269 170.421 106.959C170.471 106.583 170.598 106.221 170.794 105.896C170.989 105.571 171.25 105.289 171.56 105.068C172.096 104.684 172.734 104.465 173.395 104.437C173.974 104.437 174.531 104.664 174.945 105.068C175.161 105.327 175.31 105.635 175.376 105.966C175.442 106.296 175.425 106.638 175.324 106.959C175.273 107.322 175.145 107.67 174.949 107.98C174.752 108.29 174.492 108.554 174.186 108.756M188.991 121.145C188.174 119.736 186.919 118.629 185.416 117.993C182.795 116.948 179.923 116.695 177.159 117.268C176.938 118.497 176.685 119.506 176.463 120.42C176.242 121.334 176.179 121.996 176.02 122.595C175.862 123.194 175.831 123.509 176.02 123.509C177.234 123.31 178.478 123.385 179.658 123.73C179.969 123.816 180.256 123.971 180.497 124.184C180.738 124.397 180.927 124.662 181.05 124.959C181.316 125.617 181.316 126.351 181.05 127.008L168.966 182.521H177.729L183.645 154.623C184.404 151.124 185.131 147.719 185.796 144.409C186.46 141.099 187.124 138.105 187.757 135.425C188.39 132.746 189.086 129.499 189.687 126.693C190.021 124.816 189.779 122.882 188.991 121.145ZM178.361 102.231C177.254 101.183 175.775 100.616 174.249 100.655C172.533 100.684 170.866 101.234 169.472 102.231C167.822 103.347 166.684 105.071 166.308 107.022C166.038 107.832 165.986 108.698 166.158 109.533C166.33 110.369 166.72 111.145 167.289 111.782C168.396 112.83 169.875 113.397 171.402 113.359C173.117 113.323 174.781 112.774 176.179 111.782C176.998 111.24 177.7 110.539 178.243 109.721C178.787 108.904 179.16 107.986 179.342 107.022C179.62 106.211 179.678 105.341 179.511 104.5C179.345 103.659 178.959 102.876 178.393 102.231M172.477 126.094C172.777 125.073 172.847 123.998 172.683 122.947C172.519 121.895 172.125 120.893 171.528 120.01C170.375 118.488 168.715 117.426 166.846 117.015C164.736 116.588 162.549 116.74 160.519 117.457C158.022 118.295 155.823 119.839 154.192 121.902L155.014 117.74H146.979L133.186 182.521H141.949L153.464 128.395C153.791 127.009 154.626 125.795 155.805 124.991C156.923 124.123 158.312 123.676 159.728 123.73C160.296 123.72 160.859 123.847 161.367 124.099C161.876 124.351 162.317 124.721 162.652 125.179C162.987 125.636 163.207 126.167 163.292 126.727C163.378 127.287 163.327 127.859 163.145 128.395L151.629 182.521H160.424L172.477 126.094Z" fill="#221F20"/>
<path d="M353.274 556.075L358.969 569H364.79L361.816 556.075H353.274ZM364.22 556.075L369.915 569H375.704L372.762 556.075H364.22Z" fill="#221F20"/>
<path d="M364.79 12.9247L361.816 0H353.274L358.969 12.9247H364.79ZM375.704 12.9247L372.762 0H364.22L369.915 12.9247H375.704Z" fill="#221F20"/>
</g>
<defs>
<clipPath id="clip0_344_10621">
<rect width="741" height="569" fill="white"/>
</clipPath>
</defs>
</svg>
