<svg width="762" height="438" viewBox="0 0 762 438" fill="none" xmlns="http://www.w3.org/2000/svg">
<g clip-path="url(#clip0_344_10628)">
<path d="M731.734 398.934C731.71 398.725 731.733 398.513 731.803 398.315C731.873 398.117 731.988 397.938 732.139 397.791C732.289 397.645 732.471 397.535 732.671 397.47C732.871 397.405 733.083 397.388 733.291 397.418C734.342 397.418 734.889 397.923 734.889 398.934C734.918 399.149 734.897 399.368 734.826 399.573C734.755 399.778 734.638 399.964 734.482 400.116C734.327 400.267 734.138 400.38 733.931 400.445C733.724 400.51 733.505 400.526 733.291 400.491C733.079 400.524 732.863 400.505 732.659 400.438C732.456 400.371 732.271 400.258 732.12 400.106C731.968 399.955 731.854 399.769 731.787 399.566C731.721 399.362 731.702 399.146 731.734 398.934ZM735.815 401.207C736.135 400.925 736.389 400.574 736.556 400.18C736.724 399.787 736.801 399.361 736.782 398.934C736.77 398.368 736.626 397.813 736.362 397.313C736.068 396.744 735.605 396.281 735.037 395.987L736.719 395.103C737.352 394.77 737.963 394.397 738.549 393.987C739.146 393.566 739.659 393.038 740.063 392.43L737.539 390.788C736.848 391.604 736.04 392.313 735.142 392.893C734.258 393.482 733.417 394.029 732.597 394.535C731.81 395.005 731.101 395.594 730.494 396.282C729.94 396.948 729.648 397.794 729.673 398.66C729.658 399.544 729.99 400.398 730.599 401.039C730.943 401.379 731.355 401.643 731.808 401.813C732.261 401.984 732.745 402.057 733.228 402.028C734.144 402.07 735.044 401.77 735.752 401.186M734.132 422.592C734.128 422.966 734.013 423.33 733.803 423.639C733.593 423.948 733.295 424.187 732.949 424.328C732.603 424.468 732.223 424.502 731.857 424.427C731.492 424.351 731.156 424.169 730.894 423.903C730.631 423.638 730.453 423.3 730.381 422.933C730.31 422.566 730.349 422.187 730.493 421.842C730.636 421.497 730.879 421.202 731.19 420.995C731.501 420.788 731.866 420.677 732.239 420.677C732.498 420.641 732.761 420.667 733.009 420.751C733.256 420.835 733.48 420.975 733.664 421.161C733.848 421.347 733.986 421.573 734.067 421.822C734.148 422.07 734.17 422.334 734.132 422.592ZM735.289 412.952C734.439 412.226 733.357 411.829 732.239 411.837L725.93 411.31V410.658C725.904 410.238 725.966 409.818 726.111 409.423C726.256 409.028 726.48 408.667 726.771 408.364C727.119 408.057 727.526 407.824 727.968 407.679C728.409 407.534 728.874 407.481 729.337 407.522C730.198 407.531 731.056 407.616 731.903 407.774C732.772 407.919 733.651 407.996 734.532 408.006H736.151C736.635 407.964 737.113 407.88 737.581 407.753L737.182 405.017C736.697 405.122 736.205 405.193 735.71 405.227C735.205 405.227 734.679 405.227 734.153 405.227C733.604 405.232 733.055 405.19 732.513 405.101C732.029 405.101 731.524 404.933 730.977 404.848C730.279 404.765 729.577 404.73 728.874 404.743C728.052 404.694 727.228 404.81 726.451 405.085C725.675 405.36 724.961 405.787 724.352 406.343C723.802 406.893 723.37 407.551 723.085 408.275C722.799 408.999 722.665 409.774 722.691 410.553V413.626L730.956 414.236C731.562 414.208 732.156 414.412 732.618 414.804C732.949 415.253 733.106 415.806 733.06 416.362V418.867H732.344C731.301 418.83 730.282 419.183 729.484 419.856C729.118 420.208 728.833 420.634 728.648 421.107C728.463 421.579 728.382 422.086 728.411 422.592C728.386 423.102 728.469 423.611 728.653 424.086C728.838 424.561 729.121 424.992 729.484 425.35C730.263 426.059 731.292 426.43 732.344 426.381C732.882 426.408 733.42 426.322 733.923 426.13C734.426 425.938 734.884 425.644 735.268 425.266C735.635 424.851 735.917 424.368 736.098 423.844C736.278 423.321 736.354 422.766 736.32 422.214V415.604C736.347 415.126 736.279 414.648 736.12 414.196C735.961 413.744 735.715 413.329 735.394 412.973M704.098 410.026C703.775 409.637 703.603 409.143 703.614 408.637C703.603 408.131 703.775 407.638 704.098 407.248C704.271 407.06 704.483 406.914 704.719 406.819C704.956 406.724 705.211 406.684 705.465 406.701C705.722 406.685 705.98 406.726 706.22 406.821C706.46 406.915 706.676 407.061 706.853 407.248C707.176 407.638 707.348 408.131 707.337 408.637C707.348 409.143 707.176 409.637 706.853 410.026C706.676 410.213 706.46 410.359 706.22 410.454C705.98 410.548 705.722 410.589 705.465 410.574C705.211 410.591 704.956 410.55 704.719 410.455C704.483 410.361 704.271 410.214 704.098 410.026ZM711.459 426.108C713.198 426.265 714.935 425.778 716.339 424.739C716.881 424.139 717.292 423.432 717.546 422.664C717.799 421.895 717.89 421.082 717.811 420.277V405.164H714.593V420.088C714.661 420.969 714.439 421.848 713.962 422.592C713.628 422.899 713.231 423.128 712.798 423.262C712.365 423.397 711.908 423.434 711.459 423.371H704.792V420.509C704.762 419.629 705.02 418.764 705.528 418.046C705.846 417.683 706.248 417.403 706.699 417.231C707.15 417.058 707.636 416.998 708.115 417.057H709.966V414.51H707.863C706.97 414.559 706.084 414.339 705.318 413.878C705.031 413.693 704.789 413.446 704.61 413.154C704.432 412.863 704.322 412.535 704.287 412.194C704.659 412.325 705.05 412.389 705.444 412.384C706.481 412.445 707.5 412.097 708.284 411.416C708.647 411.062 708.93 410.635 709.115 410.164C709.3 409.692 709.382 409.186 709.356 408.679C709.385 408.168 709.306 407.657 709.124 407.179C708.943 406.7 708.664 406.265 708.305 405.901C707.438 405.193 706.338 404.834 705.221 404.897C704.104 404.959 703.051 405.437 702.268 406.238C701.464 407.354 701.077 408.717 701.175 410.09C701.154 411.402 701.504 412.693 702.184 413.815C702.75 414.785 703.635 415.529 704.687 415.92C704.21 415.994 703.754 416.167 703.349 416.428C702.943 416.689 702.596 417.032 702.331 417.436C701.764 418.426 701.494 419.558 701.553 420.698V426.044L711.459 426.108ZM682.309 397.629C683.083 397.002 684.071 396.7 685.064 396.787C686.314 396.774 687.546 397.086 688.639 397.692C689.626 398.22 690.526 398.894 691.31 399.692H681.446C681.439 399.295 681.518 398.901 681.677 398.537C681.837 398.174 682.074 397.849 682.372 397.587M695.117 401.796V394.366H692.215V397.481C691.316 396.527 690.236 395.762 689.039 395.229C687.718 394.633 686.281 394.339 684.832 394.366C683.077 394.254 681.347 394.836 680.016 395.987C679.44 396.576 678.993 397.279 678.703 398.051C678.413 398.823 678.287 399.647 678.333 400.47V401.796H695.117ZM677.177 408.574C677.185 408.201 677.303 407.839 677.516 407.533C677.729 407.227 678.027 406.991 678.374 406.854C678.72 406.717 679.1 406.686 679.464 406.763C679.828 406.841 680.162 407.025 680.422 407.291C680.683 407.558 680.859 407.896 680.929 408.262C680.998 408.628 680.958 409.007 680.814 409.351C680.67 409.694 680.427 409.988 680.117 410.194C679.806 410.4 679.442 410.51 679.07 410.511C678.81 410.542 678.546 410.514 678.299 410.427C678.052 410.34 677.828 410.198 677.645 410.01C677.462 409.823 677.324 409.596 677.243 409.347C677.162 409.098 677.139 408.833 677.177 408.574ZM683.045 408.995C683.084 408.435 683.012 407.873 682.831 407.342C682.651 406.81 682.366 406.32 681.993 405.901C681.604 405.532 681.145 405.247 680.642 405.062C680.139 404.878 679.604 404.798 679.07 404.827C678.014 404.772 676.978 405.135 676.188 405.838C675.829 406.202 675.549 406.637 675.368 407.115C675.187 407.594 675.108 408.105 675.137 408.616C675.11 409.124 675.194 409.632 675.383 410.105C675.572 410.577 675.861 411.003 676.23 411.352C677.026 412.013 678.036 412.358 679.07 412.321H679.785V426.065H688.766C690.505 426.223 692.241 425.736 693.645 424.697C694.187 424.097 694.599 423.39 694.852 422.622C695.106 421.853 695.196 421.04 695.117 420.235V405.122H691.752V420.046C691.826 420.925 691.612 421.804 691.142 422.55C690.803 422.856 690.402 423.084 689.966 423.219C689.53 423.353 689.07 423.391 688.618 423.329H682.94L683.045 408.995ZM669.984 422.55C669.979 422.924 669.865 423.288 669.654 423.597C669.444 423.906 669.147 424.145 668.801 424.285C668.454 424.426 668.075 424.46 667.709 424.385C667.343 424.309 667.008 424.127 666.745 423.861C666.482 423.596 666.304 423.258 666.233 422.891C666.161 422.524 666.2 422.144 666.344 421.8C666.488 421.455 666.731 421.16 667.041 420.953C667.352 420.746 667.717 420.635 668.091 420.635C668.349 420.599 668.613 420.625 668.86 420.709C669.108 420.793 669.332 420.933 669.516 421.119C669.699 421.305 669.837 421.531 669.918 421.779C670 422.028 670.022 422.292 669.984 422.55ZM664.116 405.101V422.15C664.082 422.703 664.157 423.258 664.338 423.781C664.518 424.305 664.8 424.788 665.167 425.202C665.551 425.581 666.009 425.875 666.512 426.067C667.015 426.259 667.553 426.345 668.091 426.318C669.15 426.368 670.185 425.997 670.972 425.287C671.328 424.924 671.605 424.492 671.786 424.018C671.967 423.543 672.048 423.037 672.024 422.529C672.053 422.023 671.972 421.516 671.787 421.044C671.602 420.571 671.317 420.145 670.951 419.793C670.153 419.119 669.134 418.767 668.091 418.804H667.376V405.059L664.116 405.101ZM651.896 398.786C651.867 398.579 651.888 398.368 651.955 398.169C652.022 397.971 652.135 397.791 652.284 397.644C652.433 397.497 652.615 397.386 652.814 397.322C653.013 397.257 653.224 397.24 653.431 397.271C654.504 397.271 655.03 397.776 655.03 398.786C655.03 399.797 654.504 400.344 653.431 400.344C653.221 400.372 653.007 400.352 652.806 400.283C652.606 400.215 652.424 400.1 652.275 399.949C652.126 399.798 652.014 399.614 651.948 399.412C651.883 399.211 651.865 398.996 651.896 398.786ZM655.955 401.06C656.279 400.78 656.535 400.43 656.703 400.036C656.871 399.642 656.946 399.214 656.923 398.786C656.92 398.22 656.776 397.662 656.502 397.166C656.208 396.597 655.745 396.134 655.177 395.84L656.859 394.956C657.502 394.627 658.12 394.255 658.71 393.84C659.297 393.407 659.809 392.881 660.225 392.282L657.68 390.641C657.001 391.461 656.199 392.171 655.303 392.746C654.42 393.335 653.557 393.882 652.737 394.387C651.954 394.864 651.246 395.452 650.634 396.134C650.08 396.801 649.788 397.646 649.814 398.513C649.798 399.396 650.131 400.251 650.739 400.891C651.086 401.228 651.498 401.49 651.951 401.66C652.403 401.831 652.885 401.906 653.368 401.881C654.286 401.931 655.188 401.63 655.892 401.039M646.806 417.12C646.507 416.722 646.346 416.238 646.346 415.741C646.346 415.244 646.507 414.76 646.806 414.362C647.19 414.025 647.683 413.839 648.194 413.839C648.705 413.839 649.199 414.025 649.582 414.362C649.881 414.76 650.042 415.244 650.042 415.741C650.042 416.238 649.881 416.722 649.582 417.12C649.212 417.485 648.714 417.69 648.194 417.69C647.675 417.69 647.176 417.485 646.806 417.12ZM643.273 425.939L649.582 420.214C650.259 419.627 650.872 418.971 651.412 418.256C651.918 417.471 652.159 416.544 652.098 415.612C652.038 414.68 651.679 413.791 651.076 413.078C650.705 412.715 650.264 412.432 649.779 412.247C649.294 412.062 648.776 411.98 648.257 412.005C647.226 411.96 646.216 412.314 645.439 412.994C645.069 413.357 644.78 413.794 644.592 414.277C644.403 414.759 644.319 415.276 644.345 415.794C644.328 416.544 644.549 417.281 644.976 417.899C645.382 418.477 645.954 418.917 646.617 419.161L642.642 422.677V422.192C642.646 421.489 642.604 420.786 642.516 420.088C642.516 419.456 642.326 418.846 642.221 418.214C642.116 417.583 642.032 416.888 641.948 416.109C641.856 415.2 641.814 414.287 641.821 413.373C641.751 411.924 642.032 410.48 642.642 409.163C642.824 408.736 643.113 408.362 643.482 408.078C643.85 407.794 644.285 407.61 644.745 407.543L648.11 410.132H648.341L651.707 407.585C652.076 407.608 652.436 407.71 652.763 407.884C653.089 408.059 653.375 408.301 653.6 408.595C654.082 409.315 654.318 410.171 654.273 411.037V425.96H657.533V411.226C657.644 410.361 657.559 409.482 657.285 408.654C657.01 407.826 656.553 407.071 655.947 406.444C655.341 405.817 654.601 405.335 653.783 405.033C652.966 404.732 652.091 404.618 651.223 404.701L648.236 407.08L645.25 404.701C643.901 404.681 642.582 405.094 641.485 405.88C640.526 406.632 639.797 407.638 639.382 408.785C638.922 410.089 638.694 411.464 638.709 412.847C638.702 413.944 638.758 415.04 638.877 416.13C638.877 417.015 639.108 417.835 639.255 418.551C639.403 419.267 639.529 419.961 639.634 420.656C639.749 421.408 639.805 422.168 639.802 422.929V425.918L643.273 425.939ZM611.724 408.469C611.732 408.096 611.85 407.734 612.063 407.428C612.276 407.122 612.575 406.886 612.921 406.749C613.268 406.612 613.647 406.58 614.012 406.658C614.376 406.736 614.709 406.92 614.97 407.186C615.23 407.453 615.406 407.79 615.476 408.157C615.546 408.523 615.506 408.902 615.362 409.245C615.217 409.589 614.975 409.882 614.664 410.089C614.354 410.295 613.99 410.405 613.617 410.405C613.357 410.437 613.094 410.409 612.846 410.322C612.599 410.235 612.376 410.093 612.192 409.905C612.009 409.718 611.872 409.491 611.791 409.242C611.709 408.993 611.687 408.728 611.724 408.469ZM618.034 425.939L623.145 410.974H623.25L629.16 425.939H632.672V397.818H629.496V416.488C629.496 417.162 629.496 417.793 629.496 418.425C629.496 419.056 629.497 419.688 629.665 420.319H629.539L623.86 405.859H622.556L617.529 420.319C617.529 419.688 617.655 419.056 617.697 418.425C617.739 417.793 617.697 417.162 617.697 416.488V408.995C617.737 408.435 617.664 407.873 617.484 407.342C617.303 406.81 617.018 406.32 616.646 405.901C616.257 405.532 615.797 405.247 615.295 405.062C614.792 404.878 614.257 404.798 613.722 404.827C612.667 404.774 611.632 405.137 610.841 405.838C610.481 406.202 610.202 406.637 610.021 407.115C609.84 407.594 609.761 408.105 609.789 408.616C609.763 409.124 609.847 409.632 610.036 410.105C610.225 410.577 610.514 411.003 610.883 411.352C611.678 412.013 612.689 412.358 613.722 412.321C613.988 412.342 614.256 412.342 614.521 412.321V426.108L618.034 425.939ZM594.183 407.669C595.051 407.456 595.94 407.343 596.833 407.332C597.486 407.255 598.147 407.325 598.769 407.536C599.392 407.747 599.959 408.095 600.43 408.553C601.152 409.577 601.501 410.818 601.418 412.068V425.939H604.657V411.731C604.657 406.974 602.134 404.617 597.086 404.617C595.888 404.605 594.693 404.747 593.531 405.038C592.54 405.28 591.575 405.618 590.65 406.048L591.722 408.553C592.508 408.17 593.333 407.873 594.183 407.669ZM583.541 422.403C583.537 422.777 583.422 423.141 583.212 423.45C583.001 423.758 582.704 423.998 582.358 424.138C582.012 424.278 581.632 424.313 581.266 424.237C580.9 424.162 580.565 423.98 580.302 423.714C580.04 423.448 579.861 423.111 579.79 422.744C579.719 422.377 579.757 421.997 579.901 421.652C580.045 421.307 580.288 421.013 580.599 420.805C580.909 420.598 581.275 420.488 581.648 420.488C581.907 420.452 582.17 420.477 582.418 420.561C582.665 420.645 582.889 420.786 583.073 420.972C583.257 421.158 583.394 421.384 583.476 421.632C583.557 421.88 583.579 422.144 583.541 422.403ZM584.698 412.763C583.846 412.039 582.765 411.644 581.648 411.647L575.338 411.121V410.468C575.314 410.05 575.374 409.632 575.515 409.238C575.656 408.844 575.875 408.482 576.159 408.174C576.512 407.868 576.922 407.635 577.367 407.491C577.811 407.346 578.28 407.292 578.746 407.332C579.6 407.342 580.451 407.427 581.29 407.585C582.16 407.729 583.039 407.806 583.92 407.816H585.56C586.043 407.771 586.521 407.687 586.99 407.564L586.57 404.827C586.092 404.934 585.607 405.005 585.118 405.038C584.6 405.038 584.074 405.038 583.541 405.038C582.998 405.043 582.457 405 581.921 404.912C581.438 404.912 580.912 404.743 580.365 404.659C579.667 404.575 578.965 404.539 578.262 404.554C577.44 404.506 576.616 404.622 575.84 404.897C575.063 405.172 574.349 405.599 573.74 406.153C573.196 406.708 572.771 407.367 572.489 408.09C572.207 408.814 572.074 409.587 572.099 410.363V413.436L580.344 414.047C580.951 414.01 581.548 414.214 582.006 414.615C582.182 414.831 582.314 415.08 582.393 415.347C582.473 415.615 582.498 415.895 582.468 416.173V418.867H581.753C580.708 418.817 579.684 419.172 578.893 419.856C578.527 420.208 578.242 420.634 578.057 421.107C577.872 421.579 577.791 422.086 577.82 422.592C577.796 423.1 577.877 423.607 578.058 424.081C578.239 424.556 578.516 424.988 578.872 425.35C579.659 426.061 580.694 426.431 581.753 426.381C582.301 426.405 582.848 426.311 583.357 426.104C583.865 425.897 584.322 425.582 584.698 425.181C585.069 424.769 585.355 424.286 585.539 423.763C585.723 423.239 585.802 422.684 585.77 422.129V415.52C585.816 414.556 585.484 413.612 584.845 412.889M559.711 414.783C560.012 415.184 560.174 415.672 560.174 416.173C560.174 416.674 560.012 417.161 559.711 417.562C559.328 417.899 558.834 418.085 558.323 418.085C557.812 418.085 557.319 417.899 556.935 417.562C556.635 417.161 556.472 416.674 556.472 416.173C556.472 415.672 556.635 415.184 556.935 414.783C557.319 414.446 557.812 414.26 558.323 414.26C558.834 414.26 559.328 414.446 559.711 414.783ZM551.298 406.827C550.444 407.63 549.78 408.613 549.354 409.706C548.928 410.798 548.752 411.972 548.838 413.142C548.817 414.375 548.909 415.608 549.111 416.825C549.279 417.835 549.448 418.804 549.616 419.73C549.795 420.808 549.88 421.9 549.868 422.992V426.065H553.128V423.603C553.103 422.315 553.273 421.03 553.633 419.793C553.855 418.935 554.265 418.137 554.832 417.457C555.035 418.237 555.532 418.909 556.22 419.33C556.883 419.741 557.648 419.96 558.428 419.961C558.94 419.992 559.453 419.92 559.937 419.75C560.421 419.58 560.866 419.316 561.247 418.972C561.601 418.618 561.876 418.193 562.053 417.725C562.231 417.257 562.307 416.757 562.277 416.257C562.309 415.739 562.227 415.22 562.038 414.737C561.849 414.253 561.558 413.817 561.184 413.457C560.347 412.765 559.281 412.412 558.197 412.468C556.926 412.479 555.707 412.976 554.79 413.857C553.755 414.8 552.95 415.966 552.434 417.267C552.434 416.762 552.308 416.215 552.245 415.604C552.171 414.849 552.136 414.09 552.14 413.331C552.086 412.526 552.204 411.72 552.487 410.965C552.77 410.21 553.211 409.524 553.78 408.953C555.046 407.904 556.661 407.37 558.302 407.458C559.804 407.388 561.286 407.825 562.509 408.7C563.063 409.151 563.499 409.729 563.781 410.385C564.063 411.041 564.182 411.756 564.128 412.468V426.065H567.388V412.131C567.457 410.632 567.028 409.152 566.168 407.922C565.334 406.807 564.194 405.959 562.887 405.48C561.42 404.938 559.866 404.674 558.302 404.701C555.809 404.53 553.34 405.279 551.362 406.806M530.014 397.629C530.906 397.011 531.981 396.714 533.063 396.787C534.245 396.778 535.41 397.068 536.45 397.629C537.398 398.115 538.202 398.841 538.784 399.734H528.941C528.938 399.323 529.034 398.917 529.221 398.55C529.408 398.184 529.68 397.868 530.014 397.629ZM542.486 401.839L542.78 399.944C542.136 398.951 541.357 398.051 540.467 397.271C539.496 396.393 538.388 395.682 537.186 395.166C535.853 394.614 534.421 394.341 532.979 394.366C531.098 394.279 529.246 394.852 527.742 395.987C527.063 396.515 526.518 397.197 526.152 397.976C525.787 398.755 525.611 399.61 525.639 400.47L525.744 401.796L542.486 401.839ZM532.369 417.267C532.038 416.884 531.855 416.395 531.855 415.888C531.855 415.382 532.038 414.892 532.369 414.51C532.542 414.322 532.754 414.175 532.991 414.081C533.227 413.986 533.482 413.946 533.736 413.962C533.994 413.947 534.251 413.988 534.491 414.082C534.731 414.177 534.947 414.323 535.125 414.51C535.423 414.907 535.585 415.391 535.585 415.888C535.585 416.386 535.423 416.87 535.125 417.267C534.952 417.462 534.737 417.614 534.496 417.712C534.256 417.811 533.996 417.853 533.736 417.835C533.48 417.853 533.223 417.811 532.986 417.712C532.749 417.613 532.538 417.461 532.369 417.267ZM528.815 426.086L535.125 420.361C535.801 419.775 536.414 419.118 536.954 418.404C537.449 417.72 537.7 416.89 537.669 416.046C537.69 415.53 537.608 415.014 537.427 414.53C537.246 414.046 536.971 413.603 536.618 413.226C536.247 412.862 535.806 412.579 535.321 412.394C534.836 412.21 534.318 412.127 533.8 412.152C532.774 412.106 531.771 412.461 531.002 413.142C530.628 413.501 530.336 413.937 530.147 414.421C529.959 414.904 529.877 415.423 529.909 415.941C529.894 416.688 530.107 417.422 530.518 418.046C530.928 418.629 531.509 419.071 532.18 419.309L528.205 422.824V422.34C528.213 421.635 528.164 420.931 528.058 420.235C528.058 419.604 527.889 418.993 527.784 418.362C527.679 417.73 527.595 417.036 527.49 416.257C527.398 415.348 527.356 414.434 527.364 413.52C527.288 412.069 527.577 410.622 528.205 409.311C528.384 408.881 528.672 408.505 529.041 408.22C529.41 407.936 529.847 407.753 530.308 407.69L533.673 410.279H533.905L537.27 407.732C537.64 407.75 538.003 407.849 538.33 408.024C538.657 408.199 538.942 408.444 539.163 408.742C539.662 409.455 539.906 410.315 539.857 411.184V426.108H543.096V411.374C543.211 410.508 543.129 409.627 542.856 408.797C542.583 407.967 542.126 407.21 541.519 406.583C540.912 405.955 540.171 405.473 539.351 405.172C538.532 404.872 537.655 404.761 536.786 404.848L533.8 407.227L530.792 404.848C529.444 404.836 528.127 405.248 527.027 406.027C526.06 406.772 525.33 407.781 524.924 408.932C524.447 410.232 524.211 411.609 524.23 412.994C524.223 414.091 524.279 415.187 524.398 416.278C524.524 417.162 524.65 417.983 524.777 418.698C524.903 419.414 525.05 420.109 525.155 420.803C525.28 421.554 525.337 422.315 525.324 423.077V426.065L528.815 426.086ZM505.175 397.608C506.067 396.991 507.142 396.695 508.224 396.766C509.406 396.754 510.571 397.044 511.61 397.608C512.558 398.094 513.363 398.82 513.945 399.713H504.102C504.099 399.301 504.195 398.896 504.382 398.529C504.569 398.163 504.84 397.847 505.175 397.608ZM517.647 401.817L517.962 399.923C517.304 398.934 516.519 398.035 515.628 397.25C514.657 396.372 513.549 395.661 512.347 395.145C511.014 394.593 509.582 394.32 508.14 394.345C506.259 394.258 504.407 394.831 502.903 395.966C502.224 396.494 501.679 397.176 501.313 397.955C500.948 398.734 500.772 399.589 500.8 400.449L500.926 401.775L517.647 401.817ZM514.828 423.876C514.493 423.484 514.313 422.982 514.324 422.466C514.328 422.109 514.385 421.754 514.492 421.414C514.608 421.071 514.795 420.755 515.039 420.488C515.326 420.465 515.614 420.465 515.901 420.488C516.2 420.458 516.501 420.498 516.782 420.604C517.063 420.71 517.315 420.879 517.521 421.098C517.845 421.535 518.008 422.07 517.983 422.613C517.995 423.11 517.831 423.594 517.521 423.982C517.355 424.174 517.148 424.325 516.914 424.424C516.681 424.523 516.427 424.566 516.174 424.55C515.922 424.56 515.671 424.514 515.438 424.415C515.206 424.317 514.998 424.169 514.828 423.982M500.947 408.7C500.955 408.328 501.073 407.966 501.286 407.66C501.499 407.354 501.798 407.117 502.144 406.98C502.491 406.844 502.87 406.812 503.234 406.89C503.599 406.968 503.932 407.151 504.193 407.418C504.453 407.684 504.629 408.022 504.699 408.388C504.769 408.754 504.729 409.133 504.584 409.477C504.44 409.82 504.197 410.114 503.887 410.32C503.577 410.527 503.213 410.637 502.84 410.637C502.58 410.669 502.316 410.64 502.069 410.553C501.822 410.467 501.598 410.324 501.415 410.137C501.232 409.949 501.095 409.722 501.014 409.473C500.932 409.224 500.91 408.96 500.947 408.7ZM519.035 425.413C519.398 425.055 519.681 424.624 519.866 424.149C520.05 423.674 520.133 423.165 520.107 422.656C520.132 421.79 519.873 420.94 519.371 420.235C518.906 419.548 518.201 419.06 517.394 418.867C517.774 418.232 517.964 417.501 517.941 416.762V405.185H514.681V415.857C514.702 416.328 514.638 416.798 514.492 417.246C514.366 417.555 514.008 417.786 513.419 417.941C512.189 418.267 510.987 418.69 509.823 419.204C508.703 419.689 507.7 420.406 506.878 421.308V408.995C506.918 408.435 506.845 407.873 506.665 407.342C506.484 406.81 506.199 406.32 505.827 405.901C505.013 405.228 503.99 404.861 502.935 404.861C501.879 404.861 500.857 405.228 500.043 405.901C499.345 406.649 498.957 407.635 498.957 408.658C498.957 409.682 499.345 410.667 500.043 411.416C500.838 412.077 501.849 412.421 502.882 412.384H503.618V426.129H506.878C507.289 424.75 508.093 423.521 509.192 422.592C510.213 421.737 511.403 421.106 512.683 420.74C512.405 421.326 512.262 421.965 512.262 422.613C512.237 423.123 512.32 423.632 512.504 424.107C512.689 424.582 512.972 425.013 513.335 425.371C514.138 426.069 515.175 426.438 516.238 426.402C517.289 426.444 518.315 426.074 519.098 425.371M478.232 423.729C477.912 423.285 477.74 422.751 477.74 422.203C477.74 421.655 477.912 421.121 478.232 420.677C478.427 420.482 478.661 420.331 478.918 420.233C479.176 420.135 479.451 420.093 479.725 420.109C480.089 420.072 480.456 420.072 480.819 420.109C480.819 420.445 480.819 420.761 480.987 421.098C481.02 421.441 481.02 421.786 480.987 422.129C480.987 423.476 480.462 424.234 479.368 424.234C479.127 424.246 478.886 424.203 478.664 424.108C478.441 424.013 478.244 423.869 478.085 423.687M477.475 408.616C477.483 408.243 477.601 407.881 477.814 407.575C478.027 407.269 478.326 407.033 478.672 406.896C479.019 406.759 479.398 406.728 479.762 406.806C480.127 406.883 480.46 407.067 480.721 407.334C480.981 407.6 481.157 407.938 481.227 408.304C481.297 408.67 481.257 409.049 481.112 409.393C480.968 409.736 480.725 410.03 480.415 410.236C480.105 410.442 479.741 410.553 479.368 410.553C479.108 410.584 478.844 410.556 478.597 410.469C478.35 410.382 478.126 410.24 477.943 410.053C477.76 409.865 477.623 409.638 477.541 409.389C477.46 409.14 477.438 408.876 477.475 408.616ZM484.016 421.351C485.167 421.852 486.254 422.487 487.255 423.245C488.352 424.064 489.342 425.019 490.2 426.086H493.838V405.143H490.578V422.529C489.58 421.57 488.463 420.742 487.255 420.067C486.072 419.384 484.826 418.82 483.532 418.383C483.459 417.86 483.423 417.332 483.427 416.804V408.995C483.467 408.435 483.394 407.873 483.214 407.342C483.033 406.81 482.748 406.32 482.376 405.901C481.987 405.532 481.527 405.247 481.025 405.062C480.522 404.878 479.987 404.798 479.452 404.827C478.396 404.772 477.361 405.135 476.571 405.838C476.211 406.202 475.932 406.637 475.751 407.115C475.57 407.594 475.491 408.105 475.519 408.616C475.493 409.124 475.577 409.632 475.766 410.105C475.954 410.577 476.243 411.003 476.613 411.352C477.408 412.013 478.419 412.358 479.452 412.321H480.167V416.362C480.13 416.881 480.13 417.401 480.167 417.92H479.894C478.727 417.88 477.587 418.278 476.697 419.035C476.268 419.432 475.933 419.919 475.714 420.462C475.496 421.004 475.401 421.588 475.435 422.171C475.401 422.739 475.492 423.307 475.703 423.834C475.914 424.362 476.239 424.836 476.655 425.223C477.541 425.986 478.683 426.385 479.852 426.339C480.452 426.39 481.055 426.307 481.619 426.096C482.183 425.885 482.693 425.551 483.112 425.118C483.806 424.305 484.173 423.262 484.142 422.192C484.143 421.9 484.101 421.609 484.016 421.329M469.02 401.86L469.209 397.839V394.956H465.865V397.818L466.055 401.839L469.02 401.86ZM465.339 431.328C465.339 430.233 465.865 429.686 466.896 429.686C467.116 429.657 467.34 429.68 467.55 429.753C467.76 429.826 467.951 429.947 468.106 430.106C468.261 430.265 468.377 430.459 468.444 430.671C468.512 430.883 468.529 431.108 468.494 431.328C468.522 431.543 468.5 431.763 468.43 431.969C468.359 432.175 468.242 432.361 468.087 432.514C467.932 432.667 467.744 432.782 467.537 432.85C467.331 432.918 467.111 432.937 466.896 432.906C466.683 432.935 466.466 432.913 466.263 432.843C466.06 432.774 465.876 432.658 465.725 432.505C465.574 432.352 465.461 432.166 465.394 431.962C465.327 431.757 465.308 431.54 465.339 431.328ZM470.387 438.021V431.706C470.416 431.238 470.345 430.768 470.178 430.329C470.011 429.889 469.753 429.491 469.42 429.16C468.715 428.568 467.815 428.26 466.896 428.297C466.031 428.255 465.183 428.541 464.519 429.096C464.203 429.389 463.956 429.749 463.796 430.15C463.635 430.55 463.567 430.981 463.594 431.412C463.57 431.83 463.635 432.249 463.783 432.64C463.932 433.032 464.161 433.388 464.456 433.685C464.772 433.969 465.141 434.188 465.541 434.329C465.942 434.47 466.367 434.53 466.791 434.506C466.937 434.527 467.086 434.527 467.232 434.506V438.147L470.387 438.021ZM466.055 423.94C465.712 423.55 465.524 423.048 465.529 422.529C465.533 422.172 465.59 421.818 465.697 421.477C465.822 421.138 466.007 420.824 466.244 420.551C466.538 420.527 466.833 420.527 467.127 420.551C467.423 420.521 467.721 420.561 467.998 420.667C468.276 420.773 468.525 420.942 468.726 421.161C469.056 421.596 469.227 422.131 469.209 422.677C469.215 423.176 469.044 423.661 468.726 424.045C468.56 424.237 468.353 424.389 468.119 424.487C467.886 424.586 467.633 424.629 467.38 424.613C467.13 424.623 466.882 424.576 466.653 424.478C466.424 424.38 466.219 424.232 466.055 424.045M452.173 408.763C452.181 408.391 452.299 408.029 452.512 407.723C452.725 407.417 453.024 407.181 453.37 407.044C453.717 406.907 454.096 406.875 454.46 406.953C454.825 407.031 455.158 407.214 455.419 407.481C455.679 407.747 455.855 408.085 455.925 408.451C455.995 408.818 455.955 409.196 455.811 409.54C455.666 409.884 455.424 410.177 455.113 410.383C454.803 410.59 454.439 410.7 454.066 410.7C453.806 410.732 453.542 410.703 453.295 410.616C453.048 410.53 452.825 410.387 452.641 410.2C452.458 410.013 452.321 409.786 452.24 409.536C452.158 409.287 452.136 409.023 452.173 408.763ZM470.24 425.476C470.61 425.122 470.899 424.693 471.088 424.217C471.276 423.741 471.36 423.23 471.334 422.719C471.342 421.855 471.085 421.01 470.597 420.298C470.128 419.625 469.435 419.14 468.641 418.93C469.015 418.293 469.197 417.563 469.167 416.825V405.248H465.907V415.92C465.928 416.391 465.864 416.861 465.718 417.309C465.609 417.499 465.457 417.66 465.274 417.781C465.092 417.901 464.883 417.978 464.666 418.004C463.434 418.324 462.231 418.746 461.07 419.267C459.944 419.752 458.934 420.469 458.104 421.372V409.058C458.141 408.497 458.065 407.934 457.881 407.402C457.697 406.871 457.408 406.382 457.032 405.964C456.648 405.594 456.193 405.307 455.693 405.123C455.193 404.938 454.661 404.859 454.129 404.891C453.073 404.835 452.038 405.198 451.248 405.901C450.884 406.262 450.602 406.696 450.42 407.176C450.239 407.655 450.162 408.168 450.196 408.679C450.17 409.187 450.254 409.695 450.443 410.168C450.631 410.64 450.921 411.066 451.29 411.416C452.085 412.077 453.096 412.421 454.129 412.384H454.844V426.129H458.104C458.507 424.746 459.312 423.515 460.418 422.592C461.429 421.733 462.612 421.102 463.888 420.74C463.611 421.326 463.467 421.965 463.468 422.613C463.445 423.124 463.531 423.634 463.719 424.109C463.908 424.585 464.195 425.015 464.561 425.371C465.35 426.078 466.384 426.448 467.443 426.402C468.495 426.449 469.523 426.078 470.303 425.371M440.269 407.374C440.453 407.207 440.669 407.077 440.904 406.994C441.138 406.911 441.387 406.876 441.636 406.89C442.138 406.866 442.629 407.04 443.003 407.374C443.172 407.534 443.305 407.727 443.396 407.94C443.486 408.154 443.532 408.384 443.529 408.616C443.531 409.099 443.351 409.565 443.024 409.921C442.632 410.32 442.159 410.628 441.636 410.826C441.108 410.639 440.632 410.329 440.248 409.921C439.921 409.565 439.741 409.099 439.743 408.616C439.735 408.383 439.778 408.152 439.869 407.937C439.96 407.723 440.096 407.53 440.269 407.374ZM427.166 408.658C427.174 408.285 427.292 407.923 427.505 407.618C427.718 407.312 428.016 407.075 428.363 406.938C428.71 406.801 429.089 406.77 429.453 406.848C429.817 406.925 430.151 407.109 430.411 407.376C430.672 407.642 430.848 407.98 430.918 408.346C430.987 408.712 430.948 409.091 430.803 409.435C430.659 409.778 430.416 410.072 430.106 410.278C429.796 410.485 429.431 410.595 429.059 410.595C428.799 410.627 428.535 410.598 428.288 410.511C428.041 410.425 427.817 410.282 427.634 410.095C427.451 409.907 427.313 409.68 427.232 409.431C427.151 409.182 427.128 408.918 427.166 408.658ZM433.034 409.079C433.073 408.519 433.001 407.957 432.82 407.426C432.64 406.894 432.355 406.405 431.982 405.985C431.594 405.616 431.134 405.331 430.631 405.146C430.128 404.962 429.593 404.882 429.059 404.912C428.003 404.858 426.969 405.221 426.177 405.922C425.818 406.286 425.538 406.721 425.357 407.2C425.176 407.678 425.097 408.189 425.126 408.7C425.099 409.208 425.183 409.716 425.372 410.189C425.561 410.661 425.85 411.087 426.219 411.437C427.015 412.098 428.026 412.442 429.059 412.405H429.774V426.15H432.845C433.466 423.731 434.4 421.403 435.621 419.225C436.428 417.719 437.464 416.349 438.691 415.162C439.315 414.469 440.151 414.003 441.068 413.836C441.825 413.836 442.204 414.257 442.204 415.12V426.15H445.464V414.973C445.457 414.373 445.313 413.783 445.043 413.247C444.768 412.68 444.328 412.211 443.781 411.9C444.385 411.546 444.891 411.047 445.254 410.447C445.591 409.902 445.78 409.278 445.8 408.637C445.826 408.122 445.731 407.609 445.523 407.137C445.315 406.666 444.999 406.25 444.602 405.922C443.761 405.251 442.71 404.901 441.636 404.933C440.561 404.893 439.507 405.245 438.67 405.922C438.273 406.25 437.957 406.666 437.749 407.137C437.541 407.609 437.446 408.122 437.472 408.637C437.483 409.246 437.634 409.843 437.913 410.384C438.205 410.967 438.639 411.466 439.175 411.837C438.282 412.21 437.473 412.762 436.799 413.457C435.995 414.262 435.289 415.159 434.695 416.13C434.049 417.135 433.486 418.191 433.013 419.288C433.013 418.846 433.013 418.383 433.013 417.941C433.013 417.499 433.013 417.057 433.013 416.594L433.034 409.079ZM412.001 414.489H402.831V417.457H412.001V414.489ZM385.354 422.634C385.349 423.008 385.235 423.372 385.024 423.681C384.814 423.99 384.517 424.229 384.171 424.37C383.824 424.51 383.444 424.544 383.079 424.469C382.713 424.393 382.378 424.211 382.115 423.946C381.852 423.68 381.674 423.342 381.603 422.975C381.531 422.608 381.57 422.229 381.714 421.884C381.858 421.539 382.1 421.244 382.411 421.037C382.722 420.83 383.087 420.719 383.461 420.719C383.719 420.684 383.983 420.709 384.23 420.793C384.478 420.877 384.702 421.017 384.886 421.203C385.069 421.389 385.207 421.615 385.288 421.864C385.37 422.112 385.392 422.376 385.354 422.634ZM386.51 412.994C385.659 412.271 384.578 411.875 383.461 411.879L377.151 411.352V410.7C377.127 410.282 377.187 409.863 377.328 409.469C377.469 409.075 377.688 408.713 377.971 408.406C378.325 408.1 378.736 407.868 379.18 407.724C379.624 407.579 380.093 407.525 380.558 407.564C381.412 407.574 382.264 407.658 383.103 407.816C383.972 407.96 384.851 408.038 385.732 408.048H387.373C387.855 408.003 388.334 407.918 388.803 407.795L388.382 405.059C387.905 405.166 387.419 405.236 386.931 405.269C386.412 405.269 385.886 405.269 385.354 405.269C384.811 405.274 384.269 405.232 383.734 405.143C383.25 405.143 382.725 404.975 382.178 404.891C381.48 404.806 380.777 404.771 380.074 404.785C379.252 404.737 378.429 404.854 377.652 405.129C376.876 405.403 376.162 405.83 375.553 406.385C375.009 406.939 374.583 407.598 374.301 408.322C374.02 409.045 373.887 409.819 373.912 410.595V413.668L382.157 414.278C382.764 414.242 383.361 414.446 383.818 414.847C383.995 415.063 384.126 415.311 384.206 415.579C384.285 415.846 384.311 416.127 384.281 416.404V418.867H383.566C382.521 418.817 381.497 419.172 380.705 419.856C380.34 420.208 380.055 420.634 379.87 421.107C379.684 421.579 379.604 422.086 379.633 422.592C379.603 423.1 379.682 423.609 379.863 424.084C380.044 424.559 380.324 424.991 380.684 425.35C381.471 426.061 382.507 426.431 383.566 426.381C384.101 426.41 384.636 426.326 385.136 426.133C385.636 425.941 386.09 425.645 386.468 425.266C386.839 424.853 387.125 424.371 387.309 423.847C387.493 423.323 387.572 422.768 387.541 422.214V415.604C387.587 414.64 387.255 413.696 386.616 412.973M355.95 405.69C354.743 406.212 353.702 407.057 352.943 408.132C352.233 409.134 351.858 410.335 351.87 411.563V412.805L356.266 414.32C355.246 414.542 354.333 415.107 353.679 415.92C352.944 416.884 352.571 418.076 352.627 419.288V426.023H355.887V419.309C355.841 418.791 355.9 418.269 356.058 417.773C356.217 417.278 356.474 416.82 356.813 416.425C357.138 416.119 357.522 415.881 357.941 415.725C358.36 415.57 358.806 415.5 359.253 415.52L359.631 413.289L355.172 411.668C355.283 410.456 355.855 409.333 356.771 408.532C357.851 407.735 359.175 407.341 360.514 407.416C361.857 407.37 363.176 407.778 364.258 408.574C364.788 409.025 365.202 409.597 365.466 410.242C365.729 410.887 365.834 411.585 365.773 412.279V426.023H369.033V411.921C369.106 410.43 368.701 408.955 367.876 407.711C367.089 406.653 366.016 405.842 364.784 405.375C363.442 404.861 362.015 404.604 360.578 404.617C359.001 404.576 357.435 404.885 355.992 405.522M343.373 422.361C343.369 422.735 343.254 423.099 343.044 423.408C342.833 423.716 342.536 423.956 342.19 424.096C341.844 424.236 341.464 424.271 341.098 424.195C340.732 424.12 340.397 423.938 340.134 423.672C339.872 423.406 339.694 423.069 339.622 422.702C339.551 422.335 339.59 421.955 339.734 421.61C339.877 421.265 340.12 420.971 340.431 420.763C340.742 420.556 341.107 420.445 341.48 420.445C341.739 420.41 342.002 420.435 342.25 420.519C342.497 420.603 342.721 420.744 342.905 420.93C343.089 421.116 343.227 421.342 343.308 421.59C343.389 421.838 343.411 422.102 343.373 422.361ZM344.53 412.721C343.68 411.994 342.598 411.598 341.48 411.605L335.171 411.079V410.426C335.146 410.008 335.206 409.59 335.347 409.196C335.488 408.801 335.707 408.44 335.991 408.132C336.344 407.827 336.755 407.595 337.2 407.45C337.644 407.306 338.112 407.251 338.578 407.29C339.432 407.3 340.283 407.385 341.123 407.543C341.992 407.687 342.871 407.764 343.752 407.774H345.392C345.875 407.731 346.354 407.647 346.822 407.522L346.402 404.785C345.924 404.892 345.439 404.963 344.951 404.996C344.446 404.996 343.92 404.996 343.373 404.996C342.831 405 342.289 404.958 341.754 404.87C341.27 404.87 340.765 404.701 340.197 404.617C339.5 404.532 338.797 404.497 338.094 404.512C336.435 404.428 334.81 405.003 333.572 406.111C333.029 406.666 332.603 407.325 332.321 408.048C332.039 408.772 331.907 409.545 331.932 410.321V413.394L340.176 414.005C340.789 413.974 341.39 414.177 341.859 414.573C342.19 415.021 342.347 415.575 342.3 416.13V418.867H341.585C340.542 418.83 339.523 419.183 338.725 419.856C338.359 420.208 338.074 420.634 337.889 421.107C337.704 421.579 337.623 422.086 337.652 422.592C337.628 423.1 337.709 423.607 337.89 424.081C338.071 424.556 338.348 424.988 338.704 425.35C339.491 426.061 340.527 426.431 341.585 426.381C342.123 426.408 342.661 426.322 343.164 426.13C343.667 425.938 344.125 425.644 344.509 425.266C344.876 424.851 345.158 424.368 345.339 423.844C345.519 423.321 345.594 422.766 345.56 422.214V415.604C345.606 414.64 345.274 413.696 344.635 412.973M316.431 417.288C316.099 416.905 315.917 416.416 315.917 415.909C315.917 415.403 316.099 414.914 316.431 414.531C316.813 414.199 317.302 414.016 317.808 414.016C318.314 414.016 318.804 414.199 319.186 414.531C319.517 414.914 319.7 415.403 319.7 415.909C319.7 416.416 319.517 416.905 319.186 417.288C318.82 417.652 318.324 417.856 317.808 417.856C317.292 417.856 316.797 417.652 316.431 417.288ZM312.897 426.108L319.207 420.382C319.89 419.795 320.51 419.139 321.058 418.425C321.564 417.64 321.804 416.713 321.744 415.78C321.683 414.848 321.325 413.96 320.721 413.247C320.348 412.881 319.903 412.596 319.415 412.411C318.926 412.226 318.404 412.145 317.882 412.173C316.857 412.127 315.853 412.482 315.085 413.163C314.472 413.82 314.093 414.662 314.01 415.557C313.926 416.452 314.141 417.35 314.622 418.109C315.028 418.687 315.6 419.128 316.262 419.372L312.287 422.887V422.403C312.292 421.699 312.25 420.996 312.161 420.298C312.161 419.667 311.972 419.056 311.867 418.425C311.762 417.793 311.677 417.099 311.593 416.32C311.493 415.411 311.444 414.498 311.446 413.584C311.381 412.133 311.67 410.688 312.287 409.374C312.457 408.957 312.729 408.59 313.079 408.307C313.428 408.024 313.843 407.833 314.285 407.753L317.672 410.342H317.882L321.268 407.795C321.638 407.818 321.998 407.921 322.324 408.095C322.651 408.269 322.936 408.511 323.161 408.806C323.644 409.525 323.88 410.382 323.834 411.247V426.171H327.094V411.437C327.205 410.572 327.121 409.692 326.846 408.865C326.572 408.037 326.114 407.281 325.508 406.655C324.902 406.028 324.163 405.546 323.345 405.244C322.527 404.942 321.652 404.829 320.784 404.912L317.588 407.269L314.601 404.891C313.252 404.871 311.933 405.284 310.836 406.069C309.877 406.821 309.148 407.828 308.733 408.974C308.273 410.278 308.045 411.653 308.06 413.036C308.043 414.133 308.099 415.23 308.228 416.32C308.333 417.204 308.46 418.025 308.607 418.741L308.985 420.845C309.105 421.583 309.168 422.329 309.175 423.077V426.065L312.897 426.108ZM289.972 397.629C290.864 397.011 291.939 396.714 293.022 396.787C294.203 396.778 295.368 397.068 296.408 397.629C297.355 398.109 298.154 398.836 298.722 399.734H288.878C288.88 399.321 288.98 398.915 289.17 398.548C289.36 398.182 289.635 397.867 289.972 397.629ZM302.444 401.839L302.739 399.944C302.094 398.951 301.316 398.051 300.425 397.271C299.455 396.393 298.346 395.682 297.144 395.166C295.812 394.614 294.38 394.341 292.938 394.366C291.05 394.276 289.19 394.849 287.68 395.987C287.022 396.527 286.5 397.214 286.157 397.993C285.814 398.772 285.658 399.62 285.703 400.47L285.808 401.796L302.444 401.839ZM288.878 415.773C288.883 415.394 288.999 415.025 289.213 414.712C289.426 414.4 289.728 414.157 290.079 414.016C290.431 413.875 290.816 413.841 291.186 413.919C291.557 413.997 291.896 414.184 292.16 414.454C292.425 414.725 292.604 415.068 292.673 415.441C292.743 415.813 292.701 416.198 292.552 416.546C292.404 416.895 292.155 417.191 291.838 417.398C291.521 417.605 291.15 417.713 290.771 417.709C290.511 417.745 290.245 417.72 289.996 417.635C289.747 417.55 289.521 417.407 289.337 417.219C289.153 417.031 289.015 416.802 288.936 416.55C288.856 416.299 288.836 416.033 288.878 415.773ZM295.441 426.086C297.171 426.19 298.88 425.667 300.257 424.613C301.467 423.583 302.34 422.211 302.76 420.677C303.272 418.956 303.52 417.168 303.496 415.373C303.644 412.594 302.81 409.852 301.14 407.627C300.236 406.63 299.116 405.854 297.865 405.358C296.615 404.862 295.267 404.659 293.926 404.764C292.587 404.75 291.248 404.862 289.93 405.101C288.793 405.312 287.675 405.615 286.586 406.006L287.49 408.658C288.412 408.296 289.362 408.007 290.33 407.795C291.41 407.578 292.509 407.472 293.611 407.48C294.529 407.414 295.449 407.557 296.305 407.895C297.16 408.234 297.929 408.761 298.553 409.437C299.808 411.149 300.406 413.256 300.236 415.373C300.317 417.365 299.905 419.346 299.037 421.14C298.638 421.838 298.048 422.408 297.336 422.781C296.624 423.154 295.82 423.315 295.02 423.245H294.746V416.088C294.786 415.529 294.714 414.966 294.533 414.435C294.352 413.904 294.067 413.414 293.695 412.994C292.881 412.322 291.858 411.954 290.803 411.954C289.747 411.954 288.725 412.322 287.911 412.994C287.547 413.356 287.263 413.79 287.078 414.269C286.893 414.748 286.811 415.26 286.838 415.773C286.813 416.283 286.9 416.792 287.092 417.265C287.285 417.737 287.579 418.162 287.953 418.509C288.732 419.187 289.74 419.541 290.771 419.498H291.508V426.086H295.441ZM265.575 423.687C265.245 423.261 265.081 422.73 265.112 422.192C265.091 421.911 265.126 421.628 265.217 421.36C265.307 421.093 265.45 420.846 265.638 420.635C265.829 420.441 266.059 420.29 266.313 420.192C266.567 420.094 266.838 420.051 267.11 420.067C267.481 420.029 267.854 420.029 268.225 420.067C268.225 420.403 268.225 420.719 268.393 421.056C268.425 421.399 268.425 421.744 268.393 422.087C268.393 423.434 267.846 424.192 266.774 424.192C266.532 424.204 266.291 424.161 266.069 424.066C265.847 423.971 265.649 423.827 265.491 423.645M264.881 408.574C264.889 408.201 265.007 407.839 265.22 407.533C265.433 407.227 265.731 406.991 266.078 406.854C266.424 406.717 266.804 406.686 267.168 406.763C267.532 406.841 267.866 407.025 268.126 407.291C268.387 407.558 268.563 407.896 268.633 408.262C268.702 408.628 268.662 409.007 268.518 409.351C268.374 409.694 268.131 409.988 267.821 410.194C267.51 410.4 267.146 410.51 266.774 410.511C266.514 410.542 266.25 410.514 266.003 410.427C265.756 410.34 265.532 410.198 265.349 410.01C265.166 409.823 265.028 409.596 264.947 409.347C264.866 409.098 264.843 408.833 264.881 408.574ZM271.422 421.308C272.57 421.814 273.657 422.45 274.661 423.203C275.758 424.022 276.747 424.977 277.605 426.044H281.223V405.101H277.984V422.487C276.981 421.533 275.865 420.706 274.661 420.024C273.478 419.342 272.231 418.778 270.938 418.341C270.899 417.815 270.899 417.287 270.938 416.762V408.953C270.978 408.393 270.905 407.831 270.724 407.3C270.544 406.768 270.259 406.278 269.886 405.859C269.498 405.49 269.038 405.205 268.535 405.02C268.033 404.836 267.497 404.756 266.963 404.785C265.907 404.729 264.872 405.092 264.081 405.796C263.717 406.156 263.435 406.591 263.254 407.07C263.072 407.55 262.996 408.063 263.03 408.574C263.003 409.082 263.087 409.59 263.276 410.062C263.465 410.535 263.754 410.961 264.123 411.31C264.919 411.971 265.93 412.316 266.963 412.279H267.678V416.32C267.641 416.838 267.641 417.359 267.678 417.878H267.404C266.237 417.838 265.097 418.236 264.208 418.993C263.779 419.39 263.443 419.877 263.225 420.42C263.007 420.962 262.911 421.546 262.946 422.129C262.911 422.697 263.003 423.264 263.214 423.792C263.425 424.32 263.75 424.794 264.166 425.181C265.052 425.944 266.194 426.343 267.362 426.297C267.962 426.348 268.566 426.265 269.13 426.054C269.694 425.843 270.204 425.509 270.622 425.076C271.316 424.262 271.684 423.22 271.653 422.15C271.654 421.858 271.611 421.567 271.527 421.287M250.116 387.462C249.969 387.336 249.854 387.177 249.781 386.997C249.708 386.818 249.679 386.624 249.695 386.431C249.68 386.235 249.71 386.038 249.783 385.856C249.856 385.673 249.97 385.51 250.116 385.379C250.432 385.112 250.839 384.976 251.252 385C252.303 385 252.829 385.463 252.829 386.431C252.829 387.399 252.303 387.841 251.252 387.841C250.839 387.865 250.432 387.729 250.116 387.462ZM257.414 391.104C258.573 390.414 259.524 389.426 260.169 388.241C260.889 386.931 261.38 385.507 261.621 384.031L258.739 383.589C258.621 385.328 257.959 386.985 256.846 388.325C256.355 388.872 255.75 389.304 255.075 389.591C254.399 389.878 253.668 390.014 252.934 389.988C253.445 389.57 253.886 389.073 254.238 388.515C254.584 387.952 254.76 387.302 254.743 386.641C254.766 386.206 254.699 385.77 254.547 385.361C254.395 384.952 254.161 384.578 253.86 384.263C253.155 383.737 252.299 383.453 251.42 383.453C250.541 383.453 249.685 383.737 248.98 384.263C248.689 384.529 248.459 384.854 248.307 385.218C248.154 385.581 248.083 385.974 248.097 386.368C248.073 386.761 248.137 387.155 248.287 387.519C248.436 387.884 248.666 388.21 248.959 388.473C249.557 388.96 250.293 389.247 251.062 389.294C250.747 389.988 249.864 390.367 248.454 390.43V391.904L250.747 392.051H253.081C254.601 392.1 256.106 391.737 257.435 390.998M243.975 397.629C244.867 397.013 245.942 396.716 247.024 396.787C248.206 396.775 249.371 397.065 250.41 397.629C251.358 398.115 252.163 398.841 252.745 399.734H242.902C242.899 399.323 242.995 398.917 243.182 398.55C243.369 398.184 243.64 397.868 243.975 397.629ZM256.447 401.839L256.762 399.944C256.104 398.955 255.319 398.056 254.428 397.271C253.457 396.393 252.349 395.682 251.147 395.166C249.815 394.61 248.383 394.337 246.94 394.366C245.059 394.279 243.207 394.852 241.703 395.987C241.024 396.515 240.479 397.197 240.113 397.976C239.748 398.755 239.572 399.61 239.6 400.47L239.726 401.796L256.447 401.839ZM242.86 422.592C242.868 422.22 242.986 421.858 243.199 421.552C243.412 421.246 243.71 421.01 244.057 420.873C244.404 420.736 244.783 420.704 245.147 420.782C245.511 420.86 245.845 421.043 246.105 421.31C246.366 421.576 246.542 421.914 246.612 422.28C246.681 422.646 246.642 423.025 246.497 423.369C246.353 423.713 246.11 424.006 245.8 424.212C245.49 424.419 245.125 424.529 244.753 424.529C244.492 424.565 244.226 424.54 243.977 424.455C243.728 424.369 243.502 424.227 243.318 424.039C243.134 423.85 242.997 423.621 242.917 423.37C242.837 423.119 242.818 422.853 242.86 422.592ZM247.634 425.329C247.994 424.97 248.274 424.538 248.455 424.063C248.637 423.588 248.715 423.079 248.686 422.571C248.715 422.065 248.634 421.558 248.449 421.086C248.264 420.613 247.979 420.187 247.613 419.835C246.822 419.151 245.798 418.796 244.753 418.846C244.487 418.814 244.219 418.814 243.953 418.846V418.53C243.958 418.099 244.049 417.673 244.223 417.279C244.396 416.885 244.648 416.53 244.963 416.236C245.874 415.499 247.035 415.144 248.202 415.246C249.642 415.174 251.06 415.623 252.198 416.509C252.675 416.912 253.056 417.415 253.314 417.983C253.572 418.551 253.701 419.169 253.691 419.793V426.002H256.951V411.9C256.951 407.073 254.147 404.666 248.539 404.68C247.168 404.675 245.803 404.852 244.479 405.206C243.215 405.542 241.988 406.007 240.82 406.595L241.766 409.227C242.752 408.707 243.779 408.271 244.837 407.922C245.953 407.572 247.116 407.394 248.286 407.395C249.8 407.242 251.313 407.696 252.493 408.658C253.365 409.647 253.812 410.941 253.734 412.258V414.362C252.932 413.705 252 413.224 250.999 412.952C250.043 412.667 249.052 412.519 248.055 412.51C246.811 412.491 245.576 412.713 244.416 413.163C243.387 413.548 242.494 414.229 241.85 415.12C241.183 416.128 240.852 417.322 240.904 418.53V422.066C240.85 422.624 240.908 423.186 241.074 423.721C241.24 424.256 241.511 424.753 241.871 425.181C242.255 425.56 242.713 425.854 243.216 426.046C243.719 426.238 244.257 426.324 244.795 426.297C245.854 426.347 246.889 425.976 247.676 425.266M204.329 408.553C204.337 408.18 204.455 407.818 204.668 407.512C204.881 407.206 205.179 406.97 205.526 406.833C205.872 406.696 206.252 406.665 206.616 406.742C206.98 406.82 207.314 407.004 207.574 407.27C207.835 407.537 208.011 407.874 208.081 408.241C208.15 408.607 208.11 408.986 207.966 409.329C207.822 409.673 207.579 409.967 207.269 410.173C206.958 410.379 206.594 410.489 206.222 410.489C205.962 410.521 205.698 410.493 205.451 410.406C205.204 410.319 204.98 410.177 204.797 409.989C204.614 409.802 204.476 409.575 204.395 409.326C204.314 409.077 204.291 408.812 204.329 408.553ZM210.638 426.023L215.749 411.058H215.875L221.764 426.023H225.298V405.08H222.101V416.467C222.101 417.141 222.101 417.772 222.101 418.404C222.101 419.035 222.101 419.667 222.29 420.298H222.164L216.485 405.838H214.971L209.944 420.298C209.944 419.667 210.07 419.035 210.113 418.404C210.155 417.772 210.113 417.141 210.113 416.467V408.974C210.149 408.413 210.073 407.85 209.889 407.318C209.705 406.787 209.416 406.298 209.04 405.88C208.657 405.51 208.201 405.223 207.701 405.038C207.202 404.854 206.669 404.775 206.137 404.806C205.082 404.751 204.046 405.114 203.256 405.817C202.896 406.181 202.617 406.616 202.436 407.094C202.255 407.573 202.176 408.084 202.204 408.595C202.178 409.103 202.262 409.611 202.451 410.084C202.64 410.556 202.929 410.982 203.298 411.331C204.093 411.992 205.104 412.337 206.137 412.3C206.403 412.321 206.671 412.321 206.937 412.3V426.086L210.638 426.023ZM179.405 422.529C179.414 422.157 179.532 421.794 179.745 421.489C179.958 421.183 180.256 420.946 180.603 420.809C180.949 420.672 181.328 420.641 181.693 420.719C182.057 420.796 182.39 420.98 182.651 421.247C182.911 421.513 183.088 421.851 183.157 422.217C183.227 422.583 183.187 422.962 183.043 423.306C182.898 423.649 182.656 423.943 182.345 424.149C182.035 424.356 181.671 424.466 181.298 424.466C181.037 424.502 180.772 424.477 180.523 424.391C180.273 424.306 180.048 424.164 179.864 423.975C179.68 423.787 179.542 423.558 179.463 423.307C179.383 423.056 179.363 422.789 179.405 422.529ZM184.201 425.181C184.568 424.767 184.85 424.284 185.031 423.76C185.211 423.237 185.286 422.682 185.252 422.129V418.488C185.211 417.581 185.414 416.679 185.841 415.878C186.062 415.532 186.378 415.258 186.752 415.09C187.125 414.922 187.54 414.866 187.944 414.931L188.323 412.826L183.864 411.184C183.924 410.651 184.091 410.136 184.355 409.67C184.619 409.203 184.974 408.795 185.4 408.469C186.48 407.774 187.742 407.416 189.026 407.438C190.31 407.461 191.558 407.863 192.614 408.595C193.133 409.053 193.537 409.627 193.793 410.271C194.049 410.915 194.149 411.61 194.086 412.3V426.044H197.346V411.942C197.427 410.453 197.029 408.978 196.21 407.732C195.448 406.676 194.396 405.864 193.182 405.396C190.406 404.329 187.334 404.329 184.558 405.396C183.383 405.872 182.353 406.648 181.572 407.648C180.89 408.558 180.527 409.668 180.541 410.805V412.047L185.084 413.647C183.086 414.131 182.076 415.752 182.076 418.235V418.867H181.361C180.325 418.835 179.314 419.188 178.522 419.856C178.149 420.203 177.858 420.628 177.669 421.102C177.48 421.575 177.398 422.084 177.428 422.592C177.404 423.1 177.485 423.607 177.666 424.081C177.847 424.556 178.124 424.988 178.48 425.35C179.269 426.057 180.303 426.427 181.361 426.381C181.899 426.408 182.437 426.322 182.94 426.13C183.443 425.938 183.901 425.644 184.285 425.266M160.056 397.629C160.95 397.016 162.023 396.719 163.105 396.787C164.287 396.773 165.453 397.063 166.492 397.629C167.44 398.115 168.244 398.841 168.826 399.734H158.983C158.98 399.323 159.076 398.917 159.263 398.55C159.45 398.184 159.722 397.868 160.056 397.629ZM172.528 401.839L172.843 399.944C172.185 398.955 171.4 398.056 170.509 397.271C169.538 396.393 168.43 395.682 167.228 395.166C165.896 394.61 164.464 394.337 163.021 394.366C161.14 394.279 159.288 394.852 157.784 395.987C157.105 396.515 156.56 397.197 156.194 397.976C155.829 398.755 155.653 399.61 155.681 400.47L155.807 401.796L172.528 401.839ZM151.832 408.616C151.84 408.243 151.958 407.881 152.171 407.575C152.384 407.269 152.683 407.033 153.029 406.896C153.376 406.759 153.755 406.728 154.119 406.806C154.484 406.883 154.817 407.067 155.078 407.334C155.338 407.6 155.514 407.938 155.584 408.304C155.654 408.67 155.614 409.049 155.469 409.393C155.325 409.736 155.082 410.03 154.772 410.236C154.462 410.442 154.098 410.553 153.725 410.553C153.465 410.584 153.201 410.556 152.954 410.469C152.707 410.382 152.483 410.24 152.3 410.053C152.117 409.865 151.98 409.638 151.898 409.389C151.817 409.14 151.795 408.876 151.832 408.616ZM158.142 426.086L163.253 411.121H163.379L169.268 426.086H172.801V405.143H169.667V416.53C169.667 417.204 169.667 417.835 169.667 418.467C169.667 419.098 169.667 419.73 169.857 420.361H169.731L164.052 405.922H162.58L157.553 420.382C157.553 419.751 157.679 419.119 157.721 418.488C157.763 417.857 157.721 417.225 157.721 416.551V409.058C157.758 408.497 157.682 407.934 157.498 407.402C157.314 406.871 157.025 406.382 156.648 405.964C156.265 405.594 155.809 405.307 155.31 405.123C154.81 404.938 154.278 404.859 153.746 404.891C152.69 404.835 151.655 405.198 150.865 405.901C150.501 406.262 150.218 406.696 150.037 407.176C149.856 407.655 149.779 408.168 149.813 408.679C149.786 409.187 149.871 409.695 150.059 410.168C150.248 410.64 150.537 411.066 150.907 411.416C151.702 412.077 152.713 412.421 153.746 412.384C154.012 412.406 154.279 412.406 154.545 412.384V426.171L158.142 426.086ZM134.291 407.816C135.159 407.605 136.048 407.492 136.941 407.48C137.594 407.399 138.256 407.468 138.879 407.679C139.501 407.89 140.068 408.239 140.538 408.7C141.26 409.724 141.609 410.965 141.526 412.215V426.086H144.786V411.879C144.786 407.122 142.262 404.764 137.215 404.764C136.017 404.753 134.822 404.894 133.66 405.185C132.669 405.427 131.704 405.766 130.779 406.196L131.83 408.7C132.619 408.324 133.443 408.027 134.291 407.816ZM126.719 401.839L126.909 397.818V394.935H123.628V397.818L123.817 401.839H126.719ZM108.316 408.616C108.32 408.237 108.437 407.868 108.65 407.556C108.864 407.243 109.166 407.001 109.517 406.86C109.868 406.719 110.254 406.685 110.624 406.763C110.994 406.841 111.333 407.027 111.598 407.298C111.863 407.569 112.041 407.912 112.111 408.284C112.181 408.657 112.139 409.041 111.99 409.39C111.841 409.738 111.593 410.034 111.276 410.241C110.959 410.448 110.588 410.557 110.209 410.553C109.949 410.584 109.686 410.556 109.438 410.469C109.191 410.382 108.968 410.24 108.784 410.053C108.601 409.865 108.464 409.638 108.383 409.389C108.301 409.14 108.279 408.876 108.316 408.616ZM114.184 426.086V418.867C114.186 417.45 114.348 416.038 114.668 414.657C114.95 413.395 115.403 412.176 116.014 411.037C116.534 410.047 117.25 409.174 118.117 408.469C118.849 407.871 119.76 407.538 120.704 407.522C121.155 407.48 121.61 407.546 122.03 407.714C122.451 407.883 122.825 408.148 123.123 408.49C123.654 409.261 123.913 410.186 123.859 411.121V426.129H127.119V410.7C127.173 409.158 126.639 407.653 125.626 406.49C125.057 405.928 124.373 405.494 123.622 405.218C122.871 404.942 122.07 404.83 121.272 404.891C119.763 404.86 118.285 405.326 117.066 406.217C115.803 407.212 114.83 408.527 114.247 410.026V409.163C114.287 408.604 114.214 408.041 114.034 407.51C113.853 406.979 113.568 406.489 113.196 406.069C112.382 405.397 111.359 405.029 110.304 405.029C109.248 405.029 108.226 405.397 107.412 406.069C107.045 406.429 106.76 406.863 106.575 407.342C106.39 407.821 106.309 408.335 106.339 408.848C106.315 409.357 106.403 409.866 106.595 410.339C106.788 410.811 107.081 411.236 107.454 411.584C108.235 412.256 109.243 412.603 110.272 412.552H111.008V426.297L114.184 426.086ZM101.123 422.592C101.123 423.897 100.513 424.529 99.2303 424.529C97.9473 424.529 97.3584 423.897 97.3584 422.592C97.3305 422.328 97.3583 422.061 97.4402 421.809C97.5221 421.556 97.6561 421.323 97.8336 421.126C98.0111 420.928 98.2281 420.771 98.4705 420.663C98.713 420.554 98.9754 420.499 99.2408 420.499C99.5062 420.499 99.7686 420.554 100.011 420.663C100.253 420.771 100.47 420.928 100.648 421.126C100.825 421.323 100.959 421.556 101.041 421.809C101.123 422.061 101.151 422.328 101.123 422.592ZM95.2552 405.143V422.192C95.224 422.747 95.3027 423.302 95.4868 423.826C95.6709 424.35 95.9567 424.832 96.3278 425.245C96.7067 425.623 97.1608 425.918 97.6608 426.111C98.1607 426.303 98.6954 426.388 99.2303 426.36C99.7547 426.386 100.279 426.308 100.774 426.131C101.268 425.954 101.723 425.682 102.112 425.329C102.474 424.971 102.757 424.54 102.942 424.065C103.127 423.59 103.21 423.081 103.184 422.571C103.215 422.063 103.133 421.554 102.944 421.081C102.755 420.607 102.463 420.182 102.091 419.835C101.307 419.168 100.3 418.822 99.2723 418.867H98.5572V405.122L95.2552 405.143ZM74.9169 410.005C74.594 409.616 74.4222 409.122 74.4332 408.616C74.4222 408.11 74.594 407.617 74.9169 407.227C75.2993 406.895 75.7885 406.713 76.2945 406.713C76.8006 406.713 77.2897 406.895 77.6722 407.227C77.9951 407.617 78.1669 408.11 78.1559 408.616C78.1669 409.122 77.9951 409.616 77.6722 410.005C77.2897 410.337 76.8006 410.52 76.2945 410.52C75.7885 410.52 75.2993 410.337 74.9169 410.005ZM82.2782 426.086C84.0173 426.244 85.7535 425.757 87.1577 424.718C87.7039 424.12 88.1189 423.414 88.3761 422.645C88.6332 421.877 88.7269 421.063 88.651 420.256V405.143H85.4541V420.067C85.5279 420.946 85.3138 421.825 84.8442 422.571C84.5055 422.877 84.1041 423.105 83.6682 423.24C83.2323 423.374 82.7723 423.412 82.3203 423.35H75.7162V420.488C75.6856 419.608 75.9442 418.743 76.4523 418.025C76.777 417.664 77.1831 417.386 77.6367 417.214C78.0902 417.042 78.5783 416.981 79.0603 417.036H80.9111V414.489H78.8079C77.909 414.537 77.0159 414.318 76.242 413.857C75.9547 413.672 75.7129 413.425 75.5344 413.133C75.356 412.842 75.2456 412.514 75.2114 412.173C75.59 412.305 75.9886 412.369 76.3892 412.363C77.4248 412.417 78.4414 412.07 79.2285 411.395C79.8915 410.629 80.2565 409.65 80.2565 408.637C80.2565 407.624 79.8915 406.645 79.2285 405.88C78.3587 405.17 77.2553 404.811 76.1347 404.873C75.0141 404.936 73.9572 405.415 73.1712 406.217C72.3766 407.337 71.9905 408.697 72.0776 410.069C72.0536 411.384 72.4116 412.678 73.1081 413.794C73.6689 414.769 74.5552 415.514 75.611 415.899C75.1314 415.972 74.6723 416.145 74.2631 416.406C73.8539 416.667 73.5035 417.01 73.2343 417.414C72.6767 418.408 72.4072 419.538 72.4561 420.677V426.023L82.2782 426.086ZM55.399 407.816C56.2666 407.603 57.1557 407.49 58.049 407.48C58.7016 407.399 59.3639 407.468 59.9866 407.679C60.6092 407.89 61.1763 408.239 61.6455 408.7C62.3675 409.724 62.7164 410.965 62.6341 412.215V426.086H65.8941V411.879C65.8941 407.122 63.3702 404.764 58.3224 404.764C57.1176 404.753 55.9162 404.894 54.747 405.185C53.7626 405.427 52.8045 405.766 51.8866 406.196L52.9382 408.7C53.7267 408.324 54.5511 408.027 55.399 407.816ZM44.1677 423.918C43.8247 423.529 43.6375 423.027 43.6419 422.508C43.6435 422.149 43.7075 421.793 43.8312 421.456C43.9478 421.113 44.134 420.797 44.378 420.53C44.6649 420.505 44.9534 420.505 45.2404 420.53C45.539 420.5 45.8404 420.54 46.1212 420.646C46.402 420.752 46.6548 420.921 46.8598 421.14C47.1842 421.577 47.3477 422.112 47.3226 422.656C47.3344 423.152 47.1705 423.637 46.8598 424.024C46.6926 424.214 46.4847 424.363 46.2517 424.462C46.0186 424.56 45.7664 424.605 45.5138 424.592C45.2613 424.603 45.0096 424.558 44.7768 424.46C44.544 424.361 44.3359 424.212 44.1677 424.024M30.2864 408.742C30.2489 408.483 30.2716 408.219 30.3528 407.97C30.4341 407.72 30.5715 407.493 30.7546 407.306C30.9377 407.119 31.1615 406.976 31.4086 406.889C31.6557 406.803 31.9194 406.774 32.1793 406.806C32.6925 406.806 33.1847 407.01 33.5475 407.373C33.9104 407.736 34.1143 408.229 34.1143 408.742C34.1143 409.256 33.9104 409.749 33.5475 410.112C33.1847 410.475 32.6925 410.679 32.1793 410.679C31.9194 410.711 31.6557 410.682 31.4086 410.595C31.1615 410.509 30.9377 410.366 30.7546 410.179C30.5715 409.992 30.4341 409.765 30.3528 409.515C30.2716 409.266 30.2489 409.002 30.2864 408.742ZM48.3742 425.455C48.7369 425.097 49.02 424.666 49.2048 424.191C49.3897 423.716 49.4721 423.207 49.4468 422.698C49.4553 421.834 49.1983 420.989 48.7107 420.277C48.2408 419.604 47.5478 419.119 46.7547 418.909C47.1279 418.272 47.3104 417.542 47.2805 416.804V405.227H43.9995V415.899C44.0204 416.37 43.9563 416.84 43.8102 417.288C43.684 417.604 43.3474 417.835 42.7585 417.983C41.5266 418.303 40.3236 418.725 39.162 419.246C38.0428 419.731 37.0392 420.448 36.2175 421.351V409.037C36.2572 408.477 36.1846 407.915 36.004 407.384C35.8234 406.852 35.5384 406.363 35.1659 405.943C34.7773 405.574 34.3175 405.289 33.8148 405.104C33.3121 404.92 32.777 404.84 32.2424 404.87C31.1868 404.816 30.1523 405.179 29.361 405.88C29.0015 406.244 28.7221 406.679 28.541 407.158C28.3599 407.636 28.281 408.147 28.3094 408.658C28.2829 409.166 28.367 409.674 28.5558 410.147C28.7446 410.619 29.0337 411.045 29.403 411.395C30.1984 412.056 31.2092 412.4 32.2424 412.363H32.9575V426.108H36.2175C36.6201 424.725 37.4256 423.494 38.5311 422.571C39.5419 421.712 40.7254 421.081 42.0014 420.719C41.7303 421.306 41.5938 421.946 41.6018 422.592C41.5764 423.102 41.6589 423.611 41.8438 424.086C42.0286 424.561 42.3117 424.992 42.6744 425.35C43.4868 426.017 44.5051 426.381 45.5558 426.381C46.6066 426.381 47.6249 426.017 48.4373 425.35" fill="white"/>
<path d="M652.443 235.007L645.481 230.798L638.372 235.007L645.334 238.944L652.443 235.007ZM632.147 232.124L645.944 226.062L659.404 232.271V236.965L650.487 241.364H667.733L681.678 233.345L690.764 238.333L673.79 246.984H635.028V243.027H639.718V240.754L632.147 236.965V232.124ZM630.338 258.898L614.437 266.622H647.458L630.338 258.898ZM607.623 261.781L629.875 250.878L649.12 258.75V251.783H670.762V273.611H607.665L607.623 261.781ZM659.867 340.987L652.443 337.346L645.334 340.987L652.59 344.607L659.867 340.987ZM621.252 288.534L613.827 284.745L606.719 288.534L614.29 292.491L621.252 288.534ZM613.827 277.841L630.191 284.514V293.459L626.552 295.564V327.137L638.372 322.759L646.995 327.895V278.494H667.586V328.358L661.529 332.904L668.049 336.083V344.502L653.053 351.322L635.932 344.502V336.777L643.504 332.841L638.057 329.81L626.762 334.883V350.333H601.103V342.608H605.499V296.532L597.633 293.354V284.703L613.827 277.841ZM559.143 302.847L554.306 299.669L549.448 302.847L554.306 305.583L559.143 302.847ZM540.53 298.195L564.612 287.145L557.04 283.945L535.23 290.765V309.877L540.53 313.35V298.195ZM528.584 286.976L555.673 277.294L570.396 282.283C571.019 282.118 571.625 281.892 572.204 281.609C572.841 281.275 573.453 280.895 574.034 280.472C575.063 279.48 575.792 278.218 576.138 276.831H590.86C590.8 278.482 590.205 280.068 589.166 281.351C588.127 282.635 586.699 283.545 585.097 283.945L591.302 288.955V350.333H569.975V291.081L561.899 294.68L567.199 299.058V306.194L553.864 311.645V350.291H533.421V317.834L528.584 312.992V286.976ZM480.42 287.587L472.701 283.798L465.276 287.587L472.995 291.523L480.42 287.587ZM472.701 277.294L488.454 283.798V292.575L483.448 295.459V324.401L496.362 282.43L502.419 278.494H516.048L523.62 287.292V350.333H502.672V289.565L483.743 350.333H458.925V342.46H464.056V295.775L456.948 292.133V283.945L472.701 277.294ZM444.076 342.545L437.871 339.198L431.351 342.545L437.871 346.333L444.076 342.545ZM443.466 278.431V334.062L452.405 338.272V346.165L438.018 351.617L422.118 345.555V278.41L443.466 278.431ZM401.969 297.374L395.407 300.469L402.053 303.058L401.969 297.374ZM402.285 329.958L395.765 332.989L402.285 335.725V329.958ZM385.627 296.469L401.38 290.26L409.394 294.659V299.5L416.818 296.006V303.899L402.895 310.214L385.627 303.247V296.469ZM385.922 329.053L401.822 322.738L409.856 327.137V331.978L417.112 328.653V336.377L403.189 342.692L385.922 335.725V329.053ZM363.059 341.029L356.75 337.535L349.935 341.029L356.75 345.113L363.059 341.029ZM371.998 297.522V343.829L356.855 351.406L341.712 345.197V337.619L352.228 332.315V299.416L335.255 291.986V284.872L349.199 278.557H366.467C366.994 279.881 367.913 281.012 369.101 281.798C370.289 282.585 371.689 282.989 373.113 282.956C374.666 283.035 376.202 282.604 377.488 281.731C378.775 280.857 379.742 279.588 380.243 278.115V287.503C379.782 289.257 378.707 290.789 377.214 291.818C375.662 292.9 373.806 293.46 371.914 293.417C369.89 293.154 368.045 292.121 366.761 290.534C365.752 289.767 364.929 288.782 364.353 287.652C363.778 286.522 363.465 285.276 363.438 284.009H355.446L348.337 289.165L371.998 297.522ZM284.609 288.366L277.5 284.724L270.391 288.513L277.353 292.47L284.609 288.366ZM277.794 278.073L293.695 284.577V292.765L287.953 295.943V342.25H308.249V269.717H329.45V350.333H262.146V344.123H267.11V296.069L260.8 291.986V284.556L277.794 278.073ZM199.975 350.354V296.385L193.308 293.649V288.808L212.847 278.494H232.365L255.08 289.25V350.291H233.29V288.808L229.252 286.534H215.034L207.463 291.523L219.409 296.827V350.333L199.975 350.354ZM160.287 278.494H175.283L187.902 285.166V350.417H165.293V283.651H163.021L153.178 289.25L150.15 284.261L160.287 278.494ZM117.781 300.995L111.471 297.585L104.573 300.995L111.471 304.868L117.781 300.995ZM137.761 298.89L135.953 292.07L126.572 284.956H108.358L93.2151 291.923V285.608L106.381 278.641H127.876L140.916 287.734L144.702 300.363L129.853 324.148V350.522H110.314V310.782L97.0009 305.015V296.596L111.471 291.691L125.542 297.585V318.213L137.761 298.89Z" fill="white"/>
<path d="M729.821 176.45L724.983 173.272L720.125 176.45L724.983 179.187L729.821 176.45ZM711.186 171.904L735.268 160.853L727.717 157.654L705.907 164.474V183.586L711.207 187.059L711.186 171.904ZM699.24 160.685L726.329 151.003L741.052 155.991C741.675 155.826 742.281 155.6 742.861 155.318C743.498 154.984 744.109 154.604 744.69 154.181C745.719 153.189 746.448 151.927 746.794 150.539H761.516C761.456 152.19 760.862 153.777 759.822 155.06C758.783 156.343 757.355 157.253 755.753 157.654L761.958 162.663V224.041H740.652V164.789L732.639 168.389L737.939 172.767V179.902L724.605 185.354V223.999H704.161V191.542L699.324 186.701L699.24 160.685ZM655.471 160.853L650.108 157.864L644.808 160.895L650.108 164.074L655.471 160.853ZM634.271 216.464H638.351V183.88L645.923 179.481L635.785 174.177V157.338L650.024 150.224L665.167 157.338V164.453L655.471 169.315V174.156L663.338 178.555V183.396L657.89 186.133V215.98H672.129V152.202H693.624V224.041H634.355L634.271 216.464ZM614.122 214.801L607.917 211.307L601.103 214.801L607.917 218.884L614.122 214.801ZM623.061 171.293V217.6L607.917 225.178L592.774 218.863V211.286L603.29 205.981V173.125L586.338 165.694V158.58L600.262 152.265H617.529C618.055 153.595 618.977 154.73 620.17 155.517C621.363 156.304 622.768 156.705 624.196 156.665C625.747 156.745 627.282 156.316 628.565 155.442C629.849 154.567 630.811 153.297 631.305 151.823V161.211C630.822 162.927 629.75 164.418 628.277 165.421C626.724 166.503 624.868 167.063 622.977 167.021C621.02 166.727 619.242 165.714 617.992 164.179C616.983 163.412 616.16 162.427 615.584 161.297C615.009 160.167 614.696 158.922 614.669 157.654H606.634L599.526 162.811L623.061 171.293ZM537.585 161.295L529.867 157.507L522.442 161.295L530.161 165.231L537.585 161.295ZM529.867 151.003L545.62 157.507V166.284L540.53 169.189V198.13L553.402 156.138L559.459 152.202H573.088L580.66 161.001V224.146H559.754V163.274L540.824 224.041H516.006V216.169H521.138V169.483L514.029 165.842V157.654L529.867 151.003ZM498.213 214.696L490.789 211.054L483.743 214.696L490.999 218.316L498.213 214.696ZM459.598 162.2L452.194 158.412L445.085 162.2L452.657 166.158L459.598 162.2ZM452.194 151.55L468.557 158.222V167.168L464.919 169.273V200.846L476.739 196.467L485.362 201.603V152.202H505.953V202.066L499.896 206.613L506.416 209.791V218.211L491.42 225.03L474.299 218.211V210.486L481.871 206.55L476.424 203.519L465.066 208.528V223.978H439.449V216.253H443.781V170.241L435.915 167.063V158.412L452.194 151.55ZM398.141 175.356L391.832 172.009L385.774 175.356L392.084 178.534L398.141 175.356ZM371.641 216.422V189.942L366.95 186.764V162.663L386.468 152.139H408.868L429.774 161.085V223.978H409.331V161.001L406.596 159.338H387.667L373.281 165.652V182.618L376.604 185.354L382.073 181.86L377.214 178.534V172.22L391.453 165.4L405.923 172.22V179.187L393.199 184.786V224.041H366.929V216.316L371.641 216.422ZM354.226 215.811L347.538 212.591L341.018 215.769L347.538 219.263L354.226 215.811ZM322.278 140.036L333.635 135.953H348.358C348.93 137.232 349.803 138.353 350.901 139.222C352 140.09 353.292 140.68 354.668 140.941C355.517 141.133 356.384 141.239 357.255 141.257C358.984 141.21 360.683 140.794 362.239 140.036V146.351C360.499 147.39 358.523 147.97 356.497 148.035C354.873 148.033 353.271 147.666 351.807 146.961C350.487 146.391 349.26 145.625 348.169 144.688C347.107 143.608 346.283 142.317 345.75 140.899H333.131L330.102 144.078L352.06 152.265V207.665L361.903 212.212V219.642L347.811 225.409L331.616 219.095V151.55L322.383 147.151L322.278 140.036ZM305.599 214.696L298.175 211.054L291.045 214.696L298.322 218.316L305.599 214.696ZM266.984 162.2L259.56 158.412L252.388 162.2L259.959 166.158L266.984 162.2ZM259.56 151.55L275.902 158.222V167.168L272.284 169.273V200.846L284.083 196.467L292.727 201.603V152.202H313.381V202.066L307.324 206.613L313.823 209.791V218.211L298.848 225.03L281.728 218.211V210.486L289.299 206.55L283.852 203.519L272.494 208.528V223.978H246.835V216.253H251.231V170.241L243.344 167.063V158.412L259.56 151.55ZM199.807 173.567L194.128 170.494L188.828 173.525L194.128 177.019L199.807 173.567ZM217.222 152.202L236.445 160.622V224.125H175.052V216.548H179.448V171.293L193.686 163.421L208.83 169.483V179.334L200.417 182.512V216.927H216.464V162.369L211.606 157.212H196.883L179.448 164.179V158.875L194.591 152.202H217.222ZM130.989 133.259L118.37 139.931H146.595L130.989 133.259ZM107.854 136.142L130.989 125.239L148.867 132.353V125.681H157.742V132.353H160.939V125.681H170.614V147.656H107.812L107.854 136.142ZM126.488 160.685L120.725 157.212L114.416 160.685L120.725 164.326L126.488 160.685ZM129.664 215.559L123.354 212.528L117.045 215.559L123.354 218.737L129.664 215.559ZM139.507 211.622V219.642L123.46 225.409L107.412 219.095V211.517L113.722 208.781L110.987 206.045V167.82L104.341 164.789V157.654L120.831 150.539L135.974 156.854V166.557L131.136 168.368V203.119L140.832 198.572L148.698 203.119V152.202H169.731V224.041H149.161V210.696L141.127 205.708L134.48 208.886L139.507 211.622ZM89.9551 160.538L84.9494 157.97L79.6493 161.001L84.9494 164.179L89.9551 160.538ZM55.5673 161.001L50.2672 157.97L45.4298 161.001L50.2672 164.179L55.5673 161.001ZM50.2672 150.687L65.4104 157.507V165.547L61.4774 168.115V205.245L69.049 171.293L74.3492 168.578L69.049 165.084V158.769L84.655 150.729L99.7982 157.043V165.463L95.2553 168.031L97.9684 170.767V223.957H78.2822V169.946L75.2535 172.22L63.0969 224.041H36.491V216.464H40.4241V169.02L34.6823 165.084V157.507L50.2672 150.687ZM21.9577 216.316L15.7532 212.97L9.23318 216.316L15.7532 220.105L21.9577 216.316ZM21.3478 152.202V207.834L30.2865 212.043V219.937L15.9004 225.388L0 219.347V152.202H21.3478Z" fill="white"/>
<path d="M639.382 97.7496V43.8021L632.714 41.0658V36.2246L652.253 25.9108H671.792L694.507 36.6666V97.7075H672.739V36.2246L668.827 33.9514H654.588L647.016 38.9399L658.963 44.202V97.7496H639.382ZM599.757 25.9108H614.732L627.351 32.5832V97.8338H604.742V31.0677H602.47L592.627 36.6666L589.598 31.6781L599.757 25.9108ZM539.941 34.3302L534.22 30.9204L527.911 34.3934L534.22 38.0348L539.941 34.3302ZM543.117 89.2039L536.807 86.1729L530.498 89.2039L536.807 92.3822L543.117 89.2039ZM552.96 85.2678V93.2873L536.912 99.0546L520.844 92.7401V85.1626L527.153 82.4263L524.419 79.6899V41.5289L517.752 38.4979V31.3624L534.22 24.248L549.364 30.5625V40.2659L544.526 42.0761V76.8273L554.201 72.2808L562.235 76.8273V25.9108H583.268V97.7496H562.677V84.4048L554.643 79.4163L547.975 82.5947L552.96 85.2678ZM512.22 20.7539H492.681V3.64141H512.22V20.7539ZM473.227 34.5618L467.842 31.5729L462.542 34.6039L467.842 37.7822L473.227 34.5618ZM452.194 90.1721H456.275V57.5889L463.846 53.1898L453.709 47.8855V31.0467L467.926 23.9322L483.07 31.0467V38.1611L473.227 43.0444V47.8855L481.093 52.2847V57.1259L475.645 59.8622V89.7091H490.052V25.9108H511.547V97.7496H452.194V90.1721ZM441.131 90.0248L434.927 86.6781L428.26 90.0248L434.927 93.8135L441.131 90.0248ZM408.426 90.0248L402.116 86.6781L395.407 90.0248L401.906 93.8135L408.426 90.0248ZM440.374 25.9108V81.5422L449.313 85.7519V93.6662L435.074 99.1178L419.026 93.0558V25.9108H440.374ZM407.669 25.9108V81.5422L416.608 85.7519V93.6662L402.369 99.1178L386.321 93.0558V25.9108H407.669ZM325.643 97.7496V43.8021L318.997 41.0658V36.2246L338.515 25.9108H358.054L380.685 36.6666V97.7075H358.811V36.2246L354.878 33.9514H340.723L333.151 38.9399L345.035 44.202V97.7496H325.643ZM314.895 7.24071L308.544 4.20972L302.486 7.38805L308.544 11.1768L314.895 7.24071ZM279.729 7.11442L264.733 14.3972H297.186L279.729 7.11442ZM279.729 0L298.364 8.41943V4.54649L309.175 0L318.702 3.93609V11.2189L313.718 12.4187V21.3643H257.982V10.5243L279.729 0ZM293.821 38.4979L284.882 43.339L293.821 47.8855V38.4979ZM275.944 89.7091L269.276 86.5307L262.609 89.7091L269.276 93.3505L275.944 89.7091ZM259.896 83.0577V46.9804L288.815 33.9514L282.506 30.4573H271.443L255.858 37.5928V32.2885L268.267 25.974H290.246L297.355 30.0784V25.6161H313.381V30.9204L308.544 33.9514L313.381 37.1297V97.7496H293.863V55.021L279.729 47.4435V83.9628L285.03 85.773V93.8135L269.424 100.128L253.376 93.4557V85.8782L259.896 83.0577ZM215.413 8.62992L208.451 4.69383L201.489 8.62992L208.22 12.6292L215.413 8.62992ZM195.264 5.91465L208.893 0L222.374 6.06199V10.5243L213.604 15.155H230.703L244.795 7.28281L253.881 12.2713L236.76 20.6908H198.145V16.9652H202.688V14.5446L195.264 10.5243V5.91465ZM225.719 109.453L221.617 107.032L217.074 109.621L221.617 112.189L225.719 109.453ZM221.176 102.486L231.019 106.695V111.684L226.812 114.42V122.461H234.531V102.149H243.975V128.817H213.436V123.05H217.074V114.273L211.332 112V106.695L221.176 102.486ZM231.923 88.5514L225.613 85.0573L218.799 88.5514L225.719 92.6138L231.923 88.5514ZM240.862 45.044V91.3509L225.719 98.9283L210.575 92.6138V85.0363L221.091 79.732V46.8331L204.118 39.4029V32.2885L218.063 25.974H235.309C235.838 27.3015 236.76 28.4349 237.952 29.2215C239.145 30.0081 240.549 30.41 241.977 30.3731C243.529 30.4515 245.065 30.0214 246.352 29.1478C247.638 28.2743 248.605 27.0049 249.106 25.5319V34.9196C248.632 36.6512 247.559 38.158 246.078 39.1714C244.525 40.2538 242.669 40.8141 240.778 40.7711C238.784 40.487 236.973 39.4564 235.709 37.8875C234.696 37.1227 233.869 36.1384 233.29 35.0084C232.711 33.8784 232.394 32.632 232.365 31.3624H224.351L217.221 36.5193L240.862 45.044ZM154.629 34.5197L148.867 31.0467L142.662 34.5197L148.867 38.1611L154.629 34.5197ZM157.742 89.267L151.432 86.2992L145.123 89.3302L151.432 92.5085L157.742 89.267ZM167.585 85.331V93.3505L151.432 99.1178L135.364 92.8032V85.2257L141.674 82.4894L138.939 79.7531V41.5289L132.272 38.4979V31.3624L148.782 24.248L163.926 30.5625V40.2659L159.088 42.0761V76.8273L168.763 72.2808L176.797 76.8273V25.9108H197.83V97.7496H177.26V84.4048L169.226 79.4163L162.559 82.5947L167.585 85.331ZM90.2075 36.9192L83.8978 33.1305L77.5881 36.9192L83.8978 40.0975L90.2075 36.9192ZM83.6875 24.9426L98.5363 33.362V40.9395L89.7237 46.3069V85.331L97.2953 77.7535L104.11 85.4783V25.9108H126.362V97.7496H106.234L97.0009 87.6042L87.7467 97.7496H79.3338L68.8176 90.4668V32.8779L83.6875 24.9426Z" fill="white"/>
</g>
<defs>
<clipPath id="clip0_344_10628">
<rect width="762" height="438" fill="white"/>
</clipPath>
</defs>
</svg>
