<svg width="1410" height="347" viewBox="0 0 1410 347" fill="none" xmlns="http://www.w3.org/2000/svg">
<rect width="1921.75" height="347" transform="translate(-256.745)" fill="#3C87C9"/>
<path d="M960.77 267.399V221.079L954.806 218.726V214.563L972.285 205.694H989.689L1010.08 214.907V267.399H990.573V214.563L987.055 212.608H974.317L967.544 216.898L978.249 221.459V267.399H960.77ZM916.065 259.706L910.514 256.973L904.55 259.706L910.514 262.711L916.065 259.706ZM914.842 205.621H935.125L949.895 212.137V267.399H932.001V231.759L920.524 227.577V253.896L924.061 255.471V262.711L910.101 268.829L896.14 263.091V255.851L901.784 253.244V226.419L919.395 219.504L932.114 224.935V212.21L928.878 210.653H916.874L901.709 215.215V210.653L914.842 205.621ZM885.302 260.231L879.356 257.498L873.524 260.231L879.356 263.236L885.302 260.231ZM856.722 195.068L866.882 191.557H880.053C880.564 192.657 881.345 193.621 882.328 194.368C883.311 195.115 884.467 195.622 885.697 195.847C886.451 196.01 887.22 196.101 887.993 196.118C889.546 196.078 891.072 195.72 892.471 195.068V200.499C890.908 201.395 889.134 201.893 887.315 201.947C885.863 201.943 884.429 201.628 883.119 201.024C881.941 200.528 880.844 199.87 879.864 199.069C878.921 198.135 878.185 197.027 877.701 195.81H866.317L863.627 198.616L883.27 205.657V253.353L892.076 257.263V263.779L879.488 268.739L864.982 263.308V205.042L856.722 201.259V195.068ZM812.148 212.916L807.012 209.929L801.536 212.988L807.087 216.12L812.148 212.916ZM815.008 260.159L809.364 257.552L803.888 260.159L809.439 262.892L815.008 260.159ZM823.814 256.774V263.779L809.439 268.739L795.083 263.308V256.792L800.727 254.439L798.3 252.086V219.124L792.336 216.518V210.382L807.106 204.264L820.653 209.603V217.948L816.306 219.504V249.479L824.98 245.57L832.168 249.479V205.694H850.983V267.399H832.544V255.996L825.375 251.706L819.411 254.439L823.814 256.774ZM777.754 278.495L772.73 275.762L767.669 278.423L772.674 281.156L777.754 278.495ZM772.467 271.019L783.982 275.979V293.32H769.551V284.848L762.024 281.065V275.979L772.467 271.019ZM748.007 213.097L742.852 210.11L737.301 213.097L742.852 216.228L748.007 213.097ZM750.735 260.159L745.185 257.552L739.54 260.159L745.185 262.892L750.735 260.159ZM759.541 256.774V263.779L745.185 268.739L730.81 263.308V256.792L736.454 254.439L734.009 252.086V219.124L728.044 216.518V210.382L742.814 204.264L756.361 209.603V217.948L752.034 219.504V249.479L760.689 245.57L767.876 249.479V205.694H786.691V267.399H768.271V255.996L761.084 251.706L755.119 254.439L759.541 256.774ZM673.706 267.399V221.079L667.741 218.726V214.563L685.221 205.694H702.7L723.02 214.907V267.399H703.509V214.563L699.934 212.608H687.196L680.423 216.898L691.129 221.459V267.399H673.706ZM654.194 278.26L649.133 275.689L644.109 278.423L649.133 281.156L654.194 278.26ZM648.907 271.019L660.422 275.979V293.32H646.066V284.848L638.54 281.065V275.979L648.907 271.019ZM625.068 213.513L618.163 210.255L611.502 213.513L618.408 216.898L625.068 213.513ZM618.163 204.662L632.199 210.255V217.821L627.778 220.337V245.226L639.293 209.024L644.711 205.639H656.904L663.677 213.205V267.508H644.994V215.215L628.06 267.472H605.858V260.702H610.468V220.554L604.089 217.423V210.382L618.163 204.662ZM588.774 258.222L584.709 255.996L580.363 258.222L584.295 260.955L588.774 258.222ZM573.195 205.73H584.709L598.652 210.689V261.372L583.882 267.399L571.558 261.281V254.765L581.172 250.203V212.192H572.367L562.075 217.93V212.21L573.195 205.73ZM556.261 178.108H538.781V163.338H556.261V178.108ZM533.494 190.489L529.016 187.882L524.557 190.742L529.167 193.349L533.494 190.489ZM519.402 188.262L528.621 183.049L537.822 188.136V192.57H554.229L566.007 186.452L569.394 190.869L555.169 198.308H528.715L519.308 193.747L519.402 188.262ZM517.52 213.604L510.615 210.345L503.973 213.604L510.897 216.988L517.52 213.604ZM510.615 204.752L524.708 210.345V217.912L520.211 220.337V245.226L531.726 209.024L537.144 205.639H549.412L556.186 213.205V267.508H537.502V215.215L520.568 267.472H498.272V260.702H502.882V220.554L496.504 217.423V210.382L510.615 204.752ZM442.598 267.399V221.079L436.633 218.726V214.563L454.113 205.694H471.592L491.913 214.907V267.399H472.401V214.563L468.883 212.608H456.145L449.371 216.898L460.077 221.459V267.399H442.598ZM407.093 205.694H420.509L431.798 211.432V267.544H411.571V210.128H409.539L400.771 214.907L398.062 210.617L407.093 205.694ZM369.03 224.989L363.48 222.147L357.252 225.025L363.48 228.41L369.03 224.989ZM386.923 223.179L385.287 217.314L376.895 211.196H360.639L347.092 217.188V211.757L358.87 205.766H378.193L389.84 213.585L393.227 224.446L379.943 244.9V267.399H362.388V233.46L350.478 228.501V221.26L363.48 216.97L376.086 222.039V239.777L386.923 223.179Z" fill="white"/>
<path d="M1053.02 150.794L1046.38 147.663L1040.02 150.794L1046.51 153.908L1053.02 150.794ZM1018.48 105.687L1011.83 102.429L1005.47 105.687L1012.25 109.09L1018.48 105.687ZM1011.83 96.4375L1026.47 102.175V109.923L1023.22 111.733V138.884L1033.79 135.119L1041.51 139.536V97.0891H1059.93V139.97L1054.51 143.88L1060.34 146.613V153.853L1046.92 159.718L1031.61 153.853V147.337L1038.38 143.952L1033.51 141.346L1023.35 145.654V158.795H1000.45V152.224H1004.38V112.602L997.347 109.923V102.429L1011.83 96.4375ZM966.678 97.0891H980.074L991.363 102.827V158.795H971.193V101.524H969.161L960.356 106.302L957.703 102.049L966.678 97.0891ZM923.102 82.2284L916.874 78.8435L910.665 82.2284L916.761 85.6313L923.102 82.2284ZM905.02 79.8933L917.212 74.807L929.254 80.0201V83.9298L921.408 87.8396H936.705L949.311 81.0699L957.439 85.3598L942.124 92.6001H907.654V89.342H911.718V87.3147L905.02 83.9298V79.8933ZM911.925 105.234L906.507 102.103L901.351 105.234L906.902 108.565L911.925 105.234ZM910.966 97.1434L920.674 100.872V108.113L916.742 110.466V151.554H933.393V97.0891H952.058V158.795H894.389V152.749H898.999V111.298L892.753 108.113V101.27L902.386 97.0891L910.966 97.1434ZM878.679 150.794L872.037 147.663L865.659 150.794L872.169 153.908L878.679 150.794ZM844.134 105.687L837.492 102.429L831.114 105.687L837.887 109.09L844.134 105.687ZM837.492 96.4375L852.112 102.175V109.923L848.875 111.733V138.884L859.431 135.119L867.164 139.536V97.0891H885.584V139.97L880.165 143.88L885.979 146.613V153.853L872.583 159.718L857.267 153.853V147.337L864.04 143.952L859.167 141.346L849.007 145.654V158.795H826.109V152.224H830.041V112.602L822.986 109.923V102.429L837.492 96.4375ZM801.536 59.6928L795.308 56.0727L788.93 59.6928L795.158 63.0777L801.536 59.6928ZM783.379 57.213L795.76 52L807.82 57.4302V61.3762L799.824 65.1593H815.271L827.727 58.2629L835.855 62.5528L820.69 69.9922H786.014V66.5893H790.247V64.6706L783.474 61.4124L783.379 57.213ZM782.57 80.7441L771.281 86.482H796.475L782.57 80.7441ZM761.874 83.2239L782.57 73.8477L798.545 79.9658V74.2821H806.541V80.0201H809.382V74.2821H818.056V93.1793H761.892L761.874 83.2239ZM771.432 104.257L766.295 101.27L761.14 104.257L766.295 106.99L771.432 104.257ZM766.973 95.7859L780.651 101.216V107.207L778.488 108.764V130.666L788.366 99.0621L797.585 129.96V97.0891H817.36V158.795H798.657L788.591 122.593L777.885 158.795H755.119V151.953H758.788V109.597L752.692 107.787V100.872L766.973 95.7859ZM722.531 97.0891H735.946L747.235 102.827V158.795H727.084V101.524H725.052L716.247 106.302L713.537 102.013L722.531 97.0891ZM693.762 150.921L688.118 147.916L682.022 150.921L688.118 154.432L693.762 150.921ZM701.815 113.543V153.365L688.268 159.881L674.721 154.541V147.934L684.129 143.373V115.081L668.964 108.692V102.574L681.42 97.1434H696.867C697.351 98.2734 698.181 99.2351 699.246 99.901C700.311 100.567 701.561 100.906 702.831 100.872C704.219 100.942 705.591 100.572 706.74 99.8205C707.888 99.0687 708.749 97.9759 709.191 96.709V104.782C708.779 106.291 707.817 107.608 706.482 108.493C705.12 109.428 703.488 109.928 701.815 109.923C700.01 109.695 698.366 108.807 697.224 107.443C696.318 106.785 695.578 105.939 695.06 104.967C694.542 103.995 694.259 102.923 694.233 101.832H687.064L680.611 106.302L701.815 113.543ZM654.401 169.854L649.396 167.121L644.391 169.854L649.396 172.588L654.401 169.854ZM649.133 162.415L660.648 167.375V184.679H646.273V176.208L638.747 172.425V167.338L649.133 162.415ZM645.595 107.95L637.618 112.113L645.595 116.023V107.95ZM629.621 151.989L623.657 149.256L617.692 151.989L623.581 155.175L629.621 151.989ZM615.265 146.233V115.208L641.136 104.004L635.492 100.999H625.614L611.653 107.135V102.574L622.772 97.1434H642.284L648.643 100.673V96.8357H662.999V101.397L658.672 104.004L662.999 106.737V158.795H645.52V122.123L632.801 115.606V147.011L637.542 148.568V155.482L623.581 160.822L609.225 155.175V148.658L615.265 146.233ZM595.34 169.764L590.335 167.031L585.161 169.818L590.184 172.551L595.34 169.764ZM589.977 162.415L601.492 167.375V184.679H587.136V176.208L579.61 172.425V167.338L589.977 162.415ZM590.128 150.957L584.483 147.952L578.387 150.957L584.483 154.469L590.128 150.957ZM598.106 113.543V153.365L584.559 159.881L571.012 154.541V147.934L580.419 143.373V115.081L565.254 108.692V102.574L577.71 97.1434H593.157C593.646 98.2852 594.487 99.2552 595.567 99.9221C596.647 100.589 597.914 100.921 599.197 100.872C600.584 100.942 601.957 100.572 603.105 99.8205C604.254 99.0687 605.115 97.9759 605.556 96.709V104.782C605.144 106.291 604.183 107.608 602.847 108.493C601.458 109.423 599.798 109.905 598.106 109.868C596.301 109.641 594.656 108.753 593.515 107.388C592.608 106.731 591.869 105.884 591.351 104.913C590.832 103.941 590.55 102.869 590.523 101.777H583.279L576.976 106.302L598.106 113.543ZM510.878 158.795V112.475L504.914 110.122V105.959L522.393 97.0891H539.854L560.174 106.302V158.795H540.681V105.959L537.144 104.004H524.425L517.652 108.294L528.339 112.855V158.795H510.878ZM472.119 116.91L466.474 114.031L460.98 116.91L466.625 119.643L472.119 116.91ZM448.411 152.224V129.544L444.216 126.811V106.085L461.695 97.0348H481.677L500.492 104.782V158.795H482.147V104.655L479.795 103.225H462.862L449.992 108.565V123.154L452.965 125.507L457.763 122.593L453.454 119.643V114.303L466.192 108.438L479.062 114.303V120.294L467.772 125.109V158.795H444.216V152.224H448.411ZM406.416 73.902L392.869 79.8933H426.605L406.416 73.902ZM406.284 66.2091L438.797 77.3411V85.6856H385.964V75.2052L406.284 66.2091ZM398.89 105.56L392.53 102.429L386.171 105.687L392.398 109.09L398.89 105.56ZM392.869 96.709L407.093 102.302V109.343L401.957 112.077V151.898H420.113V89.5411H439.079V158.795H378.87V153.527H383.329V112.203L377.516 108.692V102.302L392.869 96.709ZM365.643 152.224L360.093 149.346L354.26 152.224L360.093 155.482L365.643 152.224ZM365.022 97.0891V144.93L373.019 148.55V155.356L360.149 160.044L346 154.831V97.0891H365.022Z" fill="white"/>
</svg>
