<svg width="374" height="126" viewBox="0 0 374 126" fill="none" xmlns="http://www.w3.org/2000/svg">
<path d="M372 124.454V83.3443H362V117.014C361.988 117.593 361.809 118.156 361.484 118.635C361.159 119.114 360.703 119.489 360.17 119.714C358.894 120.374 357.465 120.685 356.03 120.614C354.774 120.663 353.529 120.365 352.43 119.754C352.023 119.569 351.675 119.276 351.421 118.908C351.167 118.54 351.019 118.11 350.99 117.664V83.3443H341.05V119.124C341.055 119.66 341.169 120.189 341.386 120.68C341.602 121.17 341.917 121.61 342.31 121.974C343.254 122.874 344.374 123.569 345.6 124.014C347.047 124.552 348.561 124.888 350.1 125.014C351.728 125.21 353.373 125.21 355 125.014C356.573 124.806 358.104 124.358 359.54 123.684C360.876 123.078 362.031 122.133 362.89 120.944V124.474L372 124.454ZM335.64 124.454V89.6043C335.661 88.9694 335.555 88.3367 335.326 87.744C335.098 87.1512 334.752 86.6106 334.31 86.1543C333.409 85.2316 332.317 84.5181 331.11 84.0643C330.087 83.7231 329.036 83.4689 327.97 83.3043C326.91 83.1393 325.842 83.0325 324.77 82.9843C323.71 82.9843 322.71 82.9243 321.77 82.9843C320.83 83.0443 319.97 83.0443 319.25 83.0943V86.9843C320.581 86.8282 321.926 86.8517 323.25 87.0543C323.965 87.1467 324.633 87.4615 325.16 87.9543C325.524 88.3718 325.716 88.9109 325.7 89.4643V124.464L335.64 124.454ZM314.04 77.6543V73.3343H306.12C306.281 72.6026 306.178 71.8377 305.83 71.1743C305.428 70.5375 304.857 70.025 304.18 69.6943C303.003 69.1707 301.716 68.9375 300.43 69.0143H294.6V74.0143H298.78V77.6143L314.04 77.6543ZM313.9 83.3443H303.9V117.474C303.931 117.984 303.811 118.491 303.555 118.932C303.298 119.373 302.918 119.729 302.46 119.954C301.204 120.516 299.834 120.776 298.46 120.714C297.063 120.778 295.67 120.518 294.39 119.954C293.925 119.735 293.536 119.381 293.272 118.94C293.009 118.498 292.883 117.988 292.91 117.474V83.3443H283V118.014C282.985 118.619 283.091 119.222 283.313 119.785C283.535 120.348 283.867 120.861 284.29 121.294C285.266 122.253 286.431 122.999 287.71 123.484C289.296 124.107 290.957 124.521 292.65 124.714C294.584 124.958 296.531 125.079 298.48 125.074C300.43 125.075 302.378 124.942 304.31 124.674C306 124.462 307.656 124.039 309.24 123.414C310.52 122.93 311.685 122.184 312.66 121.224C313.082 120.804 313.414 120.304 313.638 119.752C313.861 119.2 313.971 118.609 313.96 118.014L313.9 83.3443ZM276.46 90.3443C276.532 88.9495 276.138 87.5704 275.34 86.4243C274.557 85.4095 273.523 84.6167 272.34 84.1243C270.906 83.5242 269.388 83.1465 267.84 83.0043C266.023 82.8081 264.197 82.7113 262.37 82.7143C260.553 82.7102 258.737 82.807 256.93 83.0043C255.383 83.154 253.867 83.5314 252.43 84.1243C251.224 84.6051 250.167 85.3991 249.37 86.4243C248.572 87.5704 248.178 88.9495 248.25 90.3443V96.0343H258.19V90.6343C258.129 90.116 258.187 89.5906 258.361 89.0983C258.534 88.6061 258.818 88.16 259.19 87.7943C260.185 87.2947 261.282 87.0345 262.395 87.0345C263.508 87.0345 264.606 87.2947 265.6 87.7943C265.972 88.16 266.256 88.6061 266.429 89.0983C266.603 89.5906 266.661 90.116 266.6 90.6343V117.114C266.661 117.633 266.603 118.158 266.429 118.65C266.256 119.143 265.972 119.589 265.6 119.954C264.64 120.539 263.52 120.805 262.4 120.714C261.271 120.812 260.141 120.53 259.19 119.914C258.823 119.553 258.543 119.113 258.37 118.629C258.197 118.144 258.135 117.626 258.19 117.114V114.014H248.25V117.394C248.171 118.815 248.565 120.221 249.37 121.394C250.156 122.44 251.215 123.249 252.43 123.734C253.867 124.327 255.383 124.705 256.93 124.854C260.543 125.241 264.187 125.241 267.8 124.854C269.347 124.706 270.864 124.328 272.3 123.734C273.515 123.249 274.574 122.44 275.36 121.394C276.165 120.221 276.559 118.815 276.48 117.394L276.46 90.3443ZM242.83 124.404V89.6043C242.851 88.9694 242.745 88.3367 242.516 87.744C242.288 87.1512 241.942 86.6106 241.5 86.1543C240.601 85.2296 239.508 84.5158 238.3 84.0643C237.28 83.7231 236.233 83.4689 235.17 83.3043C234.119 83.1508 233.061 83.054 232 83.0143C231 83.0143 229.94 82.9543 229 83.0143C228.06 83.0743 227.2 83.0743 226.48 83.1243V87.0143C227.81 86.8582 229.156 86.8817 230.48 87.0843C231.195 87.1767 231.863 87.4915 232.39 87.9843C232.754 88.4018 232.946 88.941 232.93 89.4943V124.494L242.83 124.404ZM221.11 101.124C221.136 100.341 220.975 99.5628 220.64 98.8543C220.349 98.279 219.932 97.7766 219.42 97.3843C218.922 97.0031 218.378 96.6872 217.8 96.4443C217.239 96.2095 216.661 96.0189 216.07 95.8743C216.84 95.7243 217.53 95.5743 218.16 95.4043C218.738 95.2583 219.277 94.9888 219.74 94.6143C220.193 94.2134 220.537 93.7042 220.74 93.1343C221.01 92.3225 221.132 91.4691 221.1 90.6143V80.6743H211.1V90.2543C211.159 90.8216 211.054 91.3938 210.799 91.9039C210.544 92.4139 210.149 92.8408 209.66 93.1343C208.597 93.6888 207.409 93.9608 206.21 93.9243V97.6743H207.54C208.096 97.7056 208.643 97.8272 209.16 98.0343C209.712 98.2728 210.187 98.6607 210.53 99.1543C210.948 99.82 211.147 100.6 211.1 101.384V117.084C211.166 117.669 211.05 118.259 210.767 118.775C210.484 119.29 210.048 119.706 209.52 119.964C208.289 120.478 206.963 120.724 205.63 120.684C204.284 120.719 202.946 120.46 201.71 119.924C201.18 119.676 200.74 119.269 200.45 118.761C200.16 118.252 200.035 117.667 200.09 117.084V99.3943C200.047 98.3469 200.296 97.3081 200.81 96.3943C201.275 95.6175 201.886 94.9383 202.61 94.3943C203.336 93.84 204.105 93.3451 204.91 92.9143C205.697 92.5048 206.443 92.0227 207.14 91.4743C207.787 90.9762 208.327 90.3541 208.73 89.6443C209.128 88.8288 209.255 87.9069 209.09 87.0143C208.855 86.2366 208.374 85.556 207.72 85.0743C206.676 84.2423 205.454 83.6608 204.15 83.3743C202.239 82.9424 200.274 82.7975 198.32 82.9443C195.517 83.1735 192.764 83.8172 190.15 84.8543V89.3143C191.06 88.9843 192.15 88.6143 193.35 88.2043C194.477 87.8195 195.635 87.5285 196.81 87.3343C197.719 87.1646 198.653 87.1919 199.55 87.4143C199.908 87.5147 200.217 87.741 200.421 88.0516C200.625 88.3622 200.71 88.7361 200.66 89.1043C200.647 89.3644 200.568 89.6169 200.43 89.8375C200.291 90.0581 200.099 90.2395 199.87 90.3643C199.252 90.7729 198.603 91.1339 197.93 91.4443C197.16 91.8043 196.32 92.2143 195.41 92.6643C194.5 93.1158 193.653 93.6839 192.89 94.3543C192.096 95.0603 191.435 95.9038 190.94 96.8443C190.384 97.9465 190.112 99.1703 190.15 100.404V117.404C190.111 118.158 190.222 118.912 190.476 119.622C190.73 120.333 191.122 120.986 191.63 121.544C192.666 122.619 193.951 123.423 195.37 123.884C196.986 124.434 198.667 124.77 200.37 124.884C202.2 125.034 203.95 125.104 205.63 125.104C207.31 125.104 209.06 125.034 210.89 124.884C212.594 124.78 214.277 124.443 215.89 123.884C217.299 123.399 218.578 122.599 219.63 121.544C220.139 120.993 220.532 120.345 220.787 119.639C221.041 118.933 221.151 118.184 221.11 117.434V101.124Z" fill="white"/>
<path d="M366.48 61.4366C367.96 57.5866 369.23 54.1166 370.26 50.9966C371.226 48.1168 372.017 45.1815 372.63 42.2066C373.171 39.5996 373.472 36.9485 373.53 34.2866C373.57 31.6437 373.342 29.0036 372.85 26.4066C372.292 23.4809 371.509 20.6024 370.51 17.7966C369.45 14.7766 368.117 11.3933 366.51 7.6466H359.88C361.507 11.8266 362.863 15.4933 363.95 18.6466C364.943 21.4815 365.738 24.3817 366.33 27.3266C366.813 29.7944 367.064 32.302 367.08 34.8166C367.066 37.3084 366.791 39.792 366.26 42.2266C365.623 45.1054 364.814 47.9437 363.84 50.7266C362.793 53.7999 361.46 57.3766 359.84 61.4566L366.48 61.4366ZM355.25 55.4366V20.6066C355.269 19.9711 355.161 19.3381 354.931 18.7454C354.7 18.1527 354.353 17.6124 353.91 17.1566C353.011 16.2319 351.918 15.518 350.71 15.0666C349.69 14.7254 348.643 14.4712 347.58 14.3066C346.517 14.1416 345.445 14.0348 344.37 13.9866C343.32 13.9366 342.31 13.9266 341.37 13.9866C340.43 14.0466 339.57 14.0466 338.85 14.0966V17.9866C340.18 17.8304 341.526 17.8539 342.85 18.0566C343.565 18.149 344.233 18.4638 344.76 18.9566C345.124 19.3741 345.316 19.9132 345.3 20.4666V55.4666L355.25 55.4366ZM333.65 8.63659V4.3366H325.73C325.881 3.60453 325.779 2.84298 325.44 2.17659C325.034 1.5394 324.459 1.02713 323.78 0.696595C322.594 0.166351 321.297 -0.0670416 320 0.0165949H314.17V5.01659H318.34V8.6166L333.65 8.63659ZM333.5 55.4366V21.1166C333.581 19.6627 333.105 18.2325 332.17 17.1166C331.22 16.0651 330.019 15.2706 328.68 14.8066C327.065 14.238 325.385 13.8752 323.68 13.7266C321.789 13.534 319.89 13.4372 317.99 13.4366C316.066 13.436 314.144 13.5328 312.23 13.7266C310.525 13.8752 308.845 14.238 307.23 14.8066C305.891 15.2706 304.69 16.0651 303.74 17.1166C302.805 18.2325 302.329 19.6627 302.41 21.1166V24.9266H312.41V21.3966C312.356 20.8179 312.48 20.2365 312.763 19.7294C313.047 19.2223 313.479 18.8133 314 18.5566C315.259 18.0054 316.626 17.7456 318 17.7966C319.374 17.7385 320.743 17.9986 322 18.5566C322.497 18.8328 322.902 19.2495 323.164 19.7547C323.425 20.2599 323.532 20.8311 323.47 21.3966V30.0166H315.7C311.467 30.0166 308.133 30.7733 305.7 32.2866C304.492 33.0203 303.509 34.071 302.857 35.3246C302.204 36.5781 301.908 37.9865 302 39.3966V49.5566C301.97 50.3462 302.137 51.1307 302.487 51.8395C302.836 52.5483 303.356 53.159 304 53.6166C305.43 54.6396 307.064 55.3422 308.79 55.6766C310.675 56.0583 312.603 56.1795 314.52 56.0366C316.191 55.9507 317.839 55.6136 319.41 55.0366V51.4966C318.541 51.6387 317.659 51.6856 316.78 51.6366C315.954 51.607 315.139 51.4379 314.37 51.1366C313.698 50.8837 313.095 50.476 312.61 49.9466C312.166 49.4057 311.947 48.7144 312 48.0166V38.1766C311.984 37.7122 312.085 37.2512 312.293 36.8356C312.501 36.42 312.809 36.0628 313.19 35.7966C314.08 35.1846 315.083 34.7562 316.14 34.5366C317.373 34.2667 318.628 34.1127 319.89 34.0766C321.223 34.0233 322.433 34.0233 323.52 34.0766V55.4566L333.5 55.4366ZM296.13 55.4366V25.2166C296.117 24.3933 295.874 23.5901 295.429 22.8975C294.983 22.2049 294.353 21.6504 293.61 21.2966C291.762 20.2553 289.72 19.6052 287.61 19.3866C285.209 19.1013 282.777 19.2094 280.41 19.7066C278.182 20.1022 276.09 21.0551 274.33 22.4766V14.3466H265.18V55.4566H275.12V27.2366C275.113 26.6793 275.289 26.1351 275.62 25.6866C275.985 25.2097 276.458 24.8259 277 24.5666C277.619 24.267 278.275 24.0485 278.95 23.9166C279.685 23.775 280.432 23.7047 281.18 23.7066C282.423 23.6587 283.656 23.9563 284.74 24.5666C285.196 24.8409 285.568 25.2346 285.817 25.7052C286.065 26.1758 286.181 26.7053 286.15 27.2366V55.4566L296.13 55.4366ZM295.27 14.3266H279.86V18.6466H295.27V14.3266ZM258.69 14.3266H248.76V55.4566H258.69V14.3266ZM243.14 61.4366C241.56 57.3433 240.227 53.7666 239.14 50.7066C238.143 47.9311 237.334 45.0913 236.72 42.2066C236.213 39.768 235.939 37.2869 235.9 34.7966C235.885 32.2904 236.136 29.7896 236.65 27.3366C237.269 24.3985 238.074 21.5026 239.06 18.6666C240.14 15.4999 241.497 11.8333 243.13 7.66659H236.44C234.75 11.3666 233.38 14.7366 232.3 17.7866C231.281 20.5998 230.486 23.4887 229.92 26.4266C229.428 29.0232 229.21 31.6644 229.27 34.3066C229.357 36.9686 229.671 39.6183 230.21 42.2266C230.827 45.2056 231.635 48.1417 232.63 51.0166C233.68 54.1366 234.96 57.6066 236.45 61.4566L243.14 61.4366ZM224.93 55.4366V14.3466H214.93V48.0166C214.917 48.5963 214.736 49.1599 214.41 49.6391C214.083 50.1182 213.625 50.4925 213.09 50.7166C211.814 51.379 210.385 51.6897 208.95 51.6166C207.694 51.6652 206.449 51.3677 205.35 50.7566C204.943 50.5711 204.595 50.2788 204.341 49.9107C204.087 49.5426 203.938 49.1127 203.91 48.6666V14.3466H194V50.1266C193.995 50.667 194.102 51.2026 194.314 51.6998C194.525 52.1971 194.837 52.6453 195.23 53.0166C196.172 53.899 197.285 54.5795 198.5 55.0166C199.949 55.5473 201.462 55.8836 203 56.0166C204.63 56.1887 206.275 56.1652 207.9 55.9466C209.47 55.7402 210.998 55.2915 212.43 54.6166C213.766 54.0099 214.92 53.0656 215.78 51.8766V55.4066L224.93 55.4366ZM173.81 3.54659V0.736595H162.14C160.846 0.693595 159.558 0.925356 158.36 1.41659C157.903 1.60638 157.516 1.93344 157.253 2.3526C156.989 2.77176 156.863 3.26235 156.89 3.75659V9.75659H162.36L167.97 7.75659L173.66 9.91659V6.91659L168 4.76659L162.39 6.8566V4.5866C162.393 4.48017 162.42 4.37586 162.471 4.28207C162.521 4.18827 162.593 4.10762 162.68 4.0466C163.012 3.85593 163.38 3.73354 163.76 3.68659C164.545 3.57821 165.338 3.5314 166.13 3.54659H173.81ZM187.56 3.90659H177.56V48.4766C177.606 49.0023 177.488 49.5294 177.221 49.9846C176.954 50.4398 176.551 50.8005 176.07 51.0166C173.485 51.9515 170.655 51.9515 168.07 51.0166C167.589 50.8027 167.185 50.4464 166.914 49.9957C166.642 49.545 166.515 49.0217 166.55 48.4966V14.3466H156.6V48.6866C156.557 50.0069 157.018 51.294 157.89 52.2866C158.837 53.3 160.008 54.0774 161.31 54.5566C162.903 55.1513 164.561 55.5509 166.25 55.7466C168.184 55.9907 170.131 56.1109 172.08 56.1066C174.03 56.1076 175.978 55.974 177.91 55.7066C179.6 55.4942 181.256 55.0709 182.84 54.4466C184.137 53.9578 185.306 53.1817 186.26 52.1766C187.134 51.2285 187.601 49.9753 187.56 48.6866V3.90659ZM150.12 14.3466H140.18V55.4566H150.12V14.3466ZM134.78 49.4766V45.0166H128.16V42.2766H118.51V46.0966C118.509 46.637 118.67 47.1653 118.971 47.6141C119.272 48.063 119.7 48.412 120.2 48.6166C121.589 49.2475 123.106 49.5422 124.63 49.4766H134.78ZM134.78 27.4766V23.0166H128.16V20.3166H118.51V24.1366C118.509 24.677 118.67 25.2053 118.971 25.6541C119.272 26.103 119.7 26.452 120.2 26.6566C121.589 27.2875 123.106 27.5822 124.63 27.5166L134.78 27.4766ZM114.19 55.4566V20.6066C114.211 19.9717 114.105 19.339 113.876 18.7463C113.648 18.1535 113.302 17.6129 112.86 17.1566C111.957 16.2317 110.861 15.5179 109.65 15.0666C108.63 14.7243 107.583 14.47 106.52 14.3066C105.46 14.1421 104.392 14.0353 103.32 13.9866C102.26 13.9366 101.25 13.9266 100.32 13.9866C99.39 14.0466 98.52 14.0466 97.8 14.0966V17.9866C99.1305 17.8312 100.476 17.8548 101.8 18.0566C102.512 18.149 103.177 18.464 103.7 18.9566C104.064 19.3741 104.256 19.9132 104.24 20.4666V55.4666L114.19 55.4566ZM92.37 43.4566C92.3936 42.446 92.1741 41.4446 91.73 40.5366C91.0838 39.485 90.1914 38.6065 89.13 37.9766L78.13 30.4966C76.88 29.6266 75.9 28.9066 75.13 28.3366C74.7871 28.0583 74.5144 27.7034 74.3337 27.3004C74.1531 26.8975 74.0696 26.4577 74.09 26.0166V21.6866C74.0289 21.1683 74.0873 20.6429 74.2607 20.1506C74.434 19.6584 74.7177 19.2123 75.09 18.8466C76.0472 18.2557 77.1694 17.9892 78.29 18.0866C79.4138 17.9892 80.5392 18.2556 81.5 18.8466C81.8705 19.2136 82.153 19.6598 82.3262 20.1517C82.4994 20.6437 82.5588 21.1684 82.5 21.6866V27.0866H92.43V21.3966C92.5006 20.0035 92.1105 18.6259 91.32 17.4766C90.5184 16.4558 89.4634 15.6628 88.26 15.1766C86.8065 14.5642 85.2694 14.1732 83.7 14.0166C81.8934 13.8196 80.0773 13.7228 78.26 13.7266C76.4194 13.7215 74.5799 13.8183 72.75 14.0166C71.2153 14.1623 69.7115 14.54 68.29 15.1366C67.1068 15.629 66.0727 16.4218 65.29 17.4366C64.4918 18.5827 64.0978 19.9618 64.17 21.3566V26.0166C64.1381 26.9893 64.3476 27.9547 64.78 28.8266C65.4601 29.8691 66.3572 30.7525 67.41 31.4166L78.5 39.1966C79.7 40.0066 80.66 40.7066 81.38 41.2866C81.7292 41.5571 82.0093 41.9067 82.197 42.3065C82.3848 42.7064 82.4749 43.1451 82.46 43.5866V48.1166C82.5188 48.6348 82.4594 49.1595 82.2862 49.6514C82.113 50.1433 81.8305 50.5896 81.46 50.9566C80.4973 51.543 79.3734 51.8091 78.25 51.7166C77.124 51.8141 75.9977 51.5325 75.05 50.9166C74.6833 50.5552 74.403 50.1158 74.2298 49.6309C74.0567 49.1461 73.9952 48.6285 74.05 48.1166V42.0166H64.15V48.4166C64.0713 49.837 64.4651 51.2436 65.27 52.4166C66.0563 53.4622 67.1149 54.2717 68.33 54.7566C69.7659 55.3519 71.2826 55.7294 72.83 55.8766C74.6332 56.0739 76.446 56.1707 78.26 56.1666C80.0773 56.1704 81.8934 56.0736 83.7 55.8766C85.247 55.7269 86.7633 55.3495 88.2 54.7566C89.4121 54.2664 90.4693 53.4579 91.26 52.4166C92.0573 51.2404 92.4472 49.8354 92.37 48.4166V43.4566ZM57.67 14.3466H47.73V48.3966C47.7957 48.8679 47.7648 49.3476 47.6393 49.8066C47.5138 50.2656 47.2963 50.6943 47 51.0666C46.3672 51.5378 45.5873 51.7682 44.8 51.7166C44.0156 51.7703 43.2381 51.5395 42.61 51.0666C42.3064 50.6978 42.0821 50.2703 41.9514 49.8109C41.8206 49.3515 41.7861 48.87 41.85 48.3966V14.3466H32.76V48.3966C32.8239 48.87 32.7894 49.3515 32.6586 49.8109C32.5279 50.2703 32.3036 50.6978 32 51.0666C31.3719 51.5395 30.5944 51.7703 29.81 51.7166C29.0359 51.7612 28.2709 51.531 27.65 51.0666C27.3345 50.704 27.0999 50.2783 26.962 49.8179C26.824 49.3575 26.7858 48.8729 26.85 48.3966V14.3466H16.92V48.3966C16.8692 49.4966 17.0813 50.5928 17.5387 51.5945C17.996 52.5962 18.6855 53.4745 19.55 54.1566C21.2967 55.5499 24.0667 56.2466 27.86 56.2466C29.6138 56.3118 31.3665 56.0923 33.05 55.5966C34.0622 55.2886 35.0107 54.8008 35.85 54.1566C36.3685 53.7722 36.7673 53.2486 37 52.6466C37.14 52.1666 37.24 51.8766 37.28 51.7866C37.3498 52.0421 37.4366 52.2927 37.54 52.5366C37.8141 53.1171 38.2219 53.6243 38.73 54.0166C39.5658 54.6791 40.5191 55.1779 41.54 55.4866C43.2245 55.9773 44.9765 56.1967 46.73 56.1366C48.3647 56.1494 49.9983 56.0526 51.62 55.8466C52.8139 55.7265 53.9673 55.3477 55 54.7366C55.8938 54.1658 56.5916 53.3353 57 52.3566C57.4831 51.0804 57.7041 49.72 57.65 48.3566L57.67 14.3466ZM10.44 14.3466H0.5V55.4566H10.44V14.3466Z" fill="white"/>
</svg>
