<svg width="272" height="124" viewBox="0 0 272 124" fill="none" xmlns="http://www.w3.org/2000/svg">
<path d="M12.7501 60.574V22.76L9.64211 24.314L6.46011 22.76V53.248C6.46011 54.6293 6.87944 55.5913 7.71811 56.134C8.55678 56.6273 9.46944 56.7507 10.4561 56.504V60.13C9.71611 60.6727 8.77878 60.9933 7.64411 61.092C6.55878 61.24 5.49811 61.1167 4.46211 60.722C3.47544 60.3767 2.61211 59.7353 1.87211 58.798C1.13211 57.8607 0.762109 56.6273 0.762109 55.098V25.276C0.762109 23.5493 1.05811 22.1927 1.65011 21.206C2.24211 20.17 2.88344 19.3807 3.57411 18.838C4.41278 18.246 5.37478 17.8513 6.46011 17.654L9.64211 19.282L12.7501 17.654C13.7861 17.8513 14.7481 18.246 15.6361 18.838C16.3268 19.3807 16.9681 20.17 17.5601 21.206C18.2014 22.1927 18.4974 23.5493 18.4481 25.276V60.574H12.7501ZM12.3107 14.398C11.1761 14.398 10.2881 14.2747 9.64673 14.028C8.95607 13.732 8.4134 13.3867 8.01873 12.992C7.62407 12.548 7.3774 12.0793 7.27873 11.586C7.13073 11.0433 7.05673 10.55 7.05673 10.106V7.59H12.8287C12.7794 8.28066 12.9767 8.89733 13.4207 9.44C13.8154 9.93333 14.3334 10.18 14.9747 10.18H20.3027V14.398H12.3107ZM38.2847 53.248C38.2847 54.9253 38.0627 56.282 37.6187 57.318C37.2241 58.354 36.6567 59.168 35.9167 59.76C35.1767 60.3027 34.3134 60.6727 33.3267 60.87C32.3401 61.0673 31.3041 61.166 30.2187 61.166C29.1334 61.166 28.0974 61.0673 27.1107 60.87C26.1241 60.6727 25.2607 60.3027 24.5207 59.76C23.7807 59.168 23.1887 58.354 22.7447 57.318C22.3501 56.282 22.1527 54.9253 22.1527 53.248V49.77H27.8507V52.952C27.8507 54.3333 28.0234 55.2953 28.3687 55.838C28.7634 56.3807 29.3801 56.652 30.2187 56.652C31.0574 56.652 31.6494 56.4053 31.9947 55.912C32.3894 55.3693 32.5867 54.3827 32.5867 52.952V25.794C32.5867 24.3633 32.3894 23.4013 31.9947 22.908C31.6494 22.3653 31.0574 22.094 30.2187 22.094C29.3801 22.094 28.7634 22.3653 28.3687 22.908C28.0234 23.4013 27.8507 24.3633 27.8507 25.794V31.344H22.1527V25.498C22.1527 23.8207 22.3501 22.4887 22.7447 21.502C23.1887 20.466 23.7807 19.6767 24.5207 19.134C25.2607 18.542 26.1241 18.1473 27.1107 17.95C28.0974 17.7527 29.1334 17.654 30.2187 17.654C31.3041 17.654 32.3401 17.7527 33.3267 17.95C34.3134 18.1473 35.1767 18.542 35.9167 19.134C36.6567 19.6767 37.2241 20.466 37.6187 21.502C38.0627 22.4887 38.2847 23.8207 38.2847 25.498V53.248ZM59.6395 53.248C59.6395 54.9253 59.3928 56.282 58.8995 57.318C58.4062 58.354 57.7402 59.168 56.9015 59.76C56.1122 60.3027 55.1748 60.6727 54.0895 60.87C53.0535 61.0673 51.9682 61.166 50.8335 61.166C49.6495 61.166 48.5148 61.0673 47.4295 60.87C46.3935 60.6727 45.4562 60.3027 44.6175 59.76C43.8282 59.168 43.1868 58.354 42.6935 57.318C42.2002 56.282 41.9535 54.9253 41.9535 53.248V35.932H50.8335V40.52H47.6515V52.952C47.6515 54.3333 47.9228 55.2953 48.4655 55.838C49.0575 56.3807 49.8468 56.652 50.8335 56.652C51.7708 56.652 52.5108 56.4053 53.0535 55.912C53.6455 55.3693 53.9415 54.3827 53.9415 52.952V25.794C53.9415 24.3633 53.6455 23.4013 53.0535 22.908C52.5108 22.3653 51.7708 22.094 50.8335 22.094C49.8468 22.094 49.0575 22.3653 48.4655 22.908C47.9228 23.4013 47.6515 24.3633 47.6515 25.794V31.344H41.9535V25.498C41.9535 23.8207 42.2002 22.4887 42.6935 21.502C43.1868 20.466 43.8282 19.6767 44.6175 19.134C45.4562 18.542 46.3935 18.1473 47.4295 17.95C48.5148 17.7527 49.6495 17.654 50.8335 17.654C51.9188 17.654 52.9795 17.7527 54.0155 17.95C55.1008 18.1473 56.0628 18.542 56.9015 19.134C57.7402 19.6767 58.4062 20.466 58.8995 21.502C59.3928 22.4887 59.6395 23.8207 59.6395 25.498V53.248ZM81.0301 60.5C81.0301 60.5 80.7095 60.5 80.0681 60.5C79.4761 60.5493 78.7361 60.574 77.8481 60.574C76.9601 60.6233 75.9981 60.648 74.9621 60.648C73.9755 60.648 73.0381 60.648 72.1501 60.648C71.0155 60.648 69.9301 60.5493 68.8941 60.352C67.8581 60.1547 66.9208 59.7847 66.0821 59.242C65.2435 58.65 64.5775 57.8607 64.0841 56.874C63.5908 55.838 63.3441 54.4813 63.3441 52.804V45.848C63.2948 44.4667 63.5168 43.2827 64.0101 42.296C64.5528 41.3093 65.1695 40.52 65.8601 39.928C66.6001 39.2373 67.4635 38.67 68.4501 38.226C68.4995 38.226 68.2528 38.1273 67.7101 37.93C67.1675 37.6833 66.5755 37.2887 65.9341 36.746C65.2928 36.154 64.7008 35.414 64.1581 34.526C63.6155 33.5887 63.3441 32.454 63.3441 31.122V23.278C63.5908 21.5513 64.1828 20.3427 65.1201 19.652C66.0575 18.912 67.0441 18.4187 68.0801 18.172C69.3135 17.9253 70.6701 17.9007 72.1501 18.098V22.168C72.1501 22.168 71.9775 22.168 71.6321 22.168C71.2868 22.1187 70.9168 22.2173 70.5221 22.464C70.1275 22.6613 69.7575 23.0807 69.4121 23.722C69.1161 24.3633 68.9681 25.3253 68.9681 26.608V31.566C68.9681 32.9473 69.2888 33.934 69.9301 34.526C70.6208 35.118 71.3608 35.5127 72.1501 35.71C73.0381 35.9073 74.0988 35.932 75.3321 35.784V18.246H81.0301V60.5ZM75.3321 40.52C74.0988 40.4213 73.0381 40.52 72.1501 40.816C71.3608 41.0627 70.6455 41.556 70.0041 42.296C69.3628 43.036 69.0421 44.1953 69.0421 45.774V52.508C69.0421 53.9387 69.2641 54.9253 69.7081 55.468C70.2015 55.9613 71.0155 56.208 72.1501 56.208H75.3321V40.52ZM75.7808 14.398V8.256H81.0348V14.398H75.7808ZM86.5848 60.5V24.24C86.6341 23.7467 86.5601 23.3027 86.3628 22.908C86.1654 22.5627 85.7954 22.2913 85.2528 22.094C84.7594 21.8967 83.9701 21.8473 82.8848 21.946C82.8354 21.946 82.8354 21.7487 82.8848 21.354C82.8848 20.9593 82.8848 20.4907 82.8848 19.948V17.95C85.2528 17.5553 87.0534 17.6787 88.2868 18.32C89.5694 18.912 90.5068 19.6273 91.0988 20.466C91.7894 21.4527 92.1841 22.6613 92.2828 24.092V60.5H86.5848ZM112.732 54.728C112.732 55.8627 112.535 56.874 112.14 57.762C111.795 58.502 111.252 59.168 110.512 59.76C109.772 60.352 108.712 60.5987 107.33 60.5H102.594L95.1202 17.95H100.448L107.108 55.542V25.202C107.108 23.87 106.689 22.9573 105.85 22.464C105.012 21.9213 104.099 21.7733 103.112 22.02V18.394C103.852 17.8513 104.765 17.5307 105.85 17.432C106.936 17.284 107.972 17.4073 108.958 17.802C109.994 18.1473 110.882 18.7887 111.622 19.726C112.362 20.6633 112.732 21.8967 112.732 23.426V54.728ZM128.447 60.648V38.596C127.165 38.5467 126.055 38.6207 125.117 38.818C124.279 39.0153 123.514 39.3853 122.823 39.928C122.182 40.4213 121.861 41.2353 121.861 42.37V53.248C121.861 54.6293 122.33 55.5913 123.267 56.134C124.205 56.6273 125.167 56.7507 126.153 56.504V60.13C125.413 60.6727 124.476 60.9933 123.341 61.092C122.207 61.24 121.097 61.1167 120.011 60.722C118.975 60.3767 118.063 59.7353 117.273 58.798C116.533 57.8607 116.163 56.6273 116.163 55.098V42.592C116.163 40.2733 116.829 38.3493 118.161 36.82C119.493 35.2413 121.442 34.452 124.007 34.452H128.447V25.572C128.447 24.1413 128.151 23.1793 127.559 22.686C127.017 22.1433 126.277 21.872 125.339 21.872C124.353 21.872 123.563 22.1433 122.971 22.686C122.429 23.1793 122.157 24.1413 122.157 25.572V29.198H116.755V25.276C116.755 21.872 117.767 19.6273 119.789 18.542C121.812 17.4073 124.698 17.1113 128.447 17.654V15.582H134.145V60.574L128.447 60.648ZM128.896 70.49V66.494H125.714V62.794H134.15V70.49H128.896ZM153.982 53.248C153.982 54.9253 153.76 56.282 153.316 57.318C152.921 58.354 152.354 59.168 151.614 59.76C150.874 60.3027 150.011 60.6727 149.024 60.87C148.037 61.0673 147.001 61.166 145.916 61.166C144.831 61.166 143.795 61.0673 142.808 60.87C141.821 60.6727 140.958 60.3027 140.218 59.76C139.478 59.168 138.886 58.354 138.442 57.318C138.047 56.282 137.85 54.9253 137.85 53.248V46.662H143.548V52.952C143.548 54.3333 143.721 55.2953 144.066 55.838C144.461 56.3807 145.077 56.652 145.916 56.652C146.755 56.652 147.347 56.4053 147.692 55.912C148.087 55.3693 148.284 54.3827 148.284 52.952V48.29C148.284 47.3033 148.087 46.5387 147.692 45.996C147.297 45.404 146.755 44.664 146.064 43.776L139.7 35.784C138.911 34.7973 138.393 33.9093 138.146 33.12C137.949 32.3307 137.85 31.3687 137.85 30.234V25.498C137.85 23.8207 138.047 22.4887 138.442 21.502C138.886 20.466 139.478 19.6767 140.218 19.134C140.958 18.542 141.797 18.1473 142.734 17.95C143.721 17.7527 144.781 17.654 145.916 17.654C147.001 17.654 148.037 17.7527 149.024 17.95C150.011 18.1473 150.874 18.542 151.614 19.134C152.354 19.6767 152.921 20.466 153.316 21.502C153.76 22.4887 153.982 23.8207 153.982 25.498V31.344H148.284V25.794C148.284 24.3633 148.087 23.4013 147.692 22.908C147.347 22.3653 146.755 22.094 145.916 22.094C145.077 22.094 144.461 22.3653 144.066 22.908C143.721 23.4013 143.548 24.3633 143.548 25.794V30.234C143.548 31.3193 143.795 32.232 144.288 32.972C144.831 33.6627 145.349 34.2793 145.842 34.822L152.132 42.518C152.971 43.554 153.489 44.516 153.686 45.404C153.883 46.2427 153.982 47.1553 153.982 48.142V53.248ZM159.501 60.5V24.24C159.55 23.7467 159.476 23.3027 159.279 22.908C159.081 22.5627 158.711 22.2913 158.169 22.094C157.675 21.8967 156.886 21.8473 155.801 21.946C155.751 21.946 155.751 21.7487 155.801 21.354C155.801 20.9593 155.801 20.4907 155.801 19.948V17.95C158.169 17.5553 159.969 17.6787 161.203 18.32C162.485 18.912 163.423 19.6273 164.015 20.466C164.705 21.4527 165.1 22.6613 165.199 24.092V60.5H159.501ZM180.912 60.5V25.202C180.912 24.3633 180.641 23.6727 180.098 23.13C179.556 22.538 178.865 22.2173 178.026 22.168C177.138 22.1187 176.349 22.39 175.658 22.982C174.968 23.574 174.622 24.314 174.622 25.202V60.5H168.924V18.246H174.178V20.984C175.066 19.5533 176.201 18.5913 177.582 18.098C179.013 17.6047 180.394 17.506 181.726 17.802C183.058 18.098 184.193 18.764 185.13 19.8C186.117 20.7867 186.61 22.094 186.61 23.722V60.5H180.912ZM180.177 14.398V11.364H177.439V7.146H179.289H181.139C181.978 7.146 182.619 7.34333 183.063 7.738C183.458 8.08333 183.729 8.45333 183.877 8.848C184.074 9.39066 184.148 9.958 184.099 10.55H188.243V14.398H180.177ZM208.001 53.248C208.001 54.9253 207.754 56.282 207.261 57.318C206.768 58.354 206.102 59.168 205.263 59.76C204.474 60.3027 203.536 60.6727 202.451 60.87C201.415 61.0673 200.33 61.166 199.195 61.166C198.011 61.166 196.876 61.0673 195.791 60.87C194.755 60.6727 193.818 60.3027 192.979 59.76C192.19 59.168 191.548 58.354 191.055 57.318C190.562 56.282 190.315 54.9253 190.315 53.248V35.932H199.195V40.52H196.013V52.952C196.013 54.3333 196.284 55.2953 196.827 55.838C197.419 56.3807 198.208 56.652 199.195 56.652C200.132 56.652 200.872 56.4053 201.415 55.912C202.007 55.3693 202.303 54.3827 202.303 52.952V25.794C202.303 24.3633 202.007 23.4013 201.415 22.908C200.872 22.3653 200.132 22.094 199.195 22.094C198.208 22.094 197.419 22.3653 196.827 22.908C196.284 23.4013 196.013 24.3633 196.013 25.794V31.344H190.315V25.498C190.315 23.8207 190.562 22.4887 191.055 21.502C191.548 20.466 192.19 19.6767 192.979 19.134C193.818 18.542 194.755 18.1473 195.791 17.95C196.876 17.7527 198.011 17.654 199.195 17.654C200.28 17.654 201.341 17.7527 202.377 17.95C203.462 18.1473 204.424 18.542 205.263 19.134C206.102 19.6767 206.768 20.466 207.261 21.502C207.754 22.4887 208.001 23.8207 208.001 25.498V53.248ZM228.429 54.728C228.429 55.8627 228.232 56.874 227.837 57.762C227.492 58.502 226.949 59.168 226.209 59.76C225.469 60.352 224.409 60.5987 223.027 60.5H218.291L210.817 17.95H216.145L222.805 55.542V25.202C222.805 23.87 222.386 22.9573 221.547 22.464C220.709 21.9213 219.796 21.7733 218.809 22.02V18.394C219.549 17.8513 220.462 17.5307 221.547 17.432C222.633 17.284 223.669 17.4073 224.655 17.802C225.691 18.1473 226.579 18.7887 227.319 19.726C228.059 20.6633 228.429 21.8967 228.429 23.426V54.728ZM244.145 60.5V26.09C244.145 24.6593 243.898 23.6973 243.405 23.204C242.961 22.6613 242.171 22.39 241.037 22.39H237.855V56.06H241.037V60.5H232.157V18.098C232.157 18.098 232.453 18.098 233.045 18.098C233.686 18.0487 234.451 18.024 235.339 18.024C236.227 18.024 237.164 18.024 238.151 18.024C239.187 17.9747 240.149 17.95 241.037 17.95C242.122 17.95 243.183 18.0487 244.219 18.246C245.304 18.4433 246.266 18.838 247.105 19.43C247.943 19.9727 248.609 20.762 249.103 21.798C249.596 22.7847 249.843 24.1167 249.843 25.794V60.5H244.145ZM232.161 14.398V9.81H249.699V14.398H232.161ZM245.259 6.258V0.263999H249.847V6.258H245.259ZM265.979 60.5V57.762C265.091 59.1927 263.932 60.1547 262.501 60.648C261.12 61.1907 259.763 61.314 258.431 61.018C257.099 60.722 255.94 60.056 254.953 59.02C254.016 57.984 253.547 56.652 253.547 55.024V18.246H259.245V53.544C259.245 54.3827 259.517 55.098 260.059 55.69C260.602 56.282 261.293 56.578 262.131 56.578C263.019 56.6273 263.809 56.356 264.499 55.764C265.19 55.172 265.535 54.432 265.535 53.544V18.246H271.233V60.5H265.979ZM21.1942 115.248C21.1942 116.925 20.9475 118.282 20.4542 119.318C19.9609 120.354 19.2949 121.168 18.4562 121.76C17.6669 122.303 16.7295 122.673 15.6442 122.87C14.6082 123.067 13.5229 123.166 12.3882 123.166C11.2042 123.166 10.0695 123.067 8.9842 122.87C7.9482 122.673 7.01087 122.303 6.1722 121.76C5.38287 121.168 4.74154 120.354 4.2482 119.318C3.75487 118.282 3.5082 116.925 3.5082 115.248V97.71C3.5082 95.638 3.77954 94.0593 4.3222 92.974C4.9142 91.8393 5.55554 90.9267 6.2462 90.236C6.93687 89.496 7.60287 88.8547 8.2442 88.312C8.93487 87.7693 9.3542 87.054 9.5022 86.166C9.5022 85.3273 9.30487 84.76 8.9102 84.464C8.56487 84.2173 7.97287 84.1927 7.1342 84.39C6.29554 84.538 5.08687 85.1793 3.5082 86.314V81.726C5.2842 80.542 6.78887 79.9007 8.0222 79.802C9.30487 79.654 10.3655 79.7527 11.2042 80.098C12.1415 80.4927 12.9062 81.134 13.4982 82.022C14.4849 83.6007 14.8055 84.908 14.4602 85.944C14.1642 86.98 13.6215 87.9913 12.8322 88.978C12.0429 89.9153 11.2289 90.9513 10.3902 92.086C9.60087 93.2207 9.2062 94.6513 9.2062 96.378V114.952C9.2062 116.333 9.47754 117.295 10.0202 117.838C10.6122 118.381 11.4015 118.652 12.3882 118.652C13.3255 118.652 14.0655 118.405 14.6082 117.912C15.2002 117.369 15.4962 116.383 15.4962 114.952V80.172H21.1942V115.248ZM42.5848 115.248C42.5848 116.925 42.3382 118.282 41.8448 119.318C41.3515 120.354 40.6855 121.168 39.8468 121.76C39.0575 122.303 38.1202 122.673 37.0348 122.87C35.9988 123.067 34.9135 123.166 33.7788 123.166C32.5948 123.166 31.4602 123.067 30.3748 122.87C29.3388 122.673 28.4015 122.303 27.5628 121.76C26.7735 121.168 26.1322 120.354 25.6388 119.318C25.1455 118.282 24.8988 116.925 24.8988 115.248V97.932H33.7788V102.52H30.5968V114.952C30.5968 116.333 30.8682 117.295 31.4108 117.838C32.0028 118.381 32.7922 118.652 33.7788 118.652C34.7162 118.652 35.4562 118.405 35.9988 117.912C36.5908 117.369 36.8868 116.383 36.8868 114.952V87.794C36.8868 86.3633 36.5908 85.4013 35.9988 84.908C35.4562 84.3653 34.7162 84.094 33.7788 84.094C32.7922 84.094 32.0028 84.3653 31.4108 84.908C30.8682 85.4013 30.5968 86.3633 30.5968 87.794V93.344H24.8988V87.498C24.8988 85.8207 25.1455 84.4887 25.6388 83.502C26.1322 82.466 26.7735 81.6767 27.5628 81.134C28.4015 80.542 29.3388 80.1473 30.3748 79.95C31.4602 79.7527 32.5948 79.654 33.7788 79.654C34.8642 79.654 35.9248 79.7527 36.9608 79.95C38.0462 80.1473 39.0082 80.542 39.8468 81.134C40.6855 81.6767 41.3515 82.466 41.8448 83.502C42.3382 84.4887 42.5848 85.8207 42.5848 87.498V115.248ZM63.0135 116.728C63.0135 117.863 62.8161 118.874 62.4215 119.762C62.0761 120.502 61.5335 121.168 60.7935 121.76C60.0535 122.352 58.9928 122.599 57.6115 122.5H52.8755L45.4015 79.95H50.7295L57.3895 117.542V87.202C57.3895 85.87 56.9701 84.9573 56.1315 84.464C55.2928 83.9213 54.3801 83.7733 53.3935 84.02V80.394C54.1335 79.8513 55.0461 79.5307 56.1315 79.432C57.2168 79.284 58.2528 79.4073 59.2395 79.802C60.2755 80.1473 61.1635 80.7887 61.9035 81.726C62.6435 82.6633 63.0135 83.8967 63.0135 85.426V116.728ZM84.4266 115.248C84.4266 116.925 84.18 118.282 83.6866 119.318C83.1933 120.354 82.5273 121.168 81.6886 121.76C80.8993 122.303 79.962 122.673 78.8766 122.87C77.8406 123.067 76.7553 123.166 75.6206 123.166C74.4366 123.166 73.302 123.067 72.2166 122.87C71.1806 122.673 70.2433 122.303 69.4046 121.76C68.6153 121.168 67.974 120.354 67.4806 119.318C66.9873 118.282 66.7406 116.925 66.7406 115.248V80.246H72.4386V114.952C72.4386 116.333 72.71 117.295 73.2526 117.838C73.8446 118.381 74.634 118.652 75.6206 118.652C76.558 118.652 77.298 118.405 77.8406 117.912C78.4326 117.369 78.7286 116.383 78.7286 114.952V69.516H84.4266V115.248ZM104.263 115.248C104.263 116.925 104.041 118.282 103.597 119.318C103.203 120.354 102.635 121.168 101.895 121.76C101.155 122.303 100.292 122.673 99.3053 122.87C98.3186 123.067 97.2826 123.166 96.1973 123.166C95.1119 123.166 94.0759 123.067 93.0893 122.87C92.1026 122.673 91.2393 122.303 90.4993 121.76C89.7593 121.168 89.1673 120.354 88.7232 119.318C88.3286 118.282 88.1313 116.925 88.1313 115.248V108.662H93.8293V114.952C93.8293 116.333 94.0019 117.295 94.3473 117.838C94.7419 118.381 95.3586 118.652 96.1973 118.652C97.0359 118.652 97.6279 118.405 97.9733 117.912C98.3679 117.369 98.5653 116.383 98.5653 114.952V110.29C98.5653 109.303 98.3679 108.539 97.9733 107.996C97.5786 107.404 97.0359 106.664 96.3453 105.776L89.9813 97.784C89.1919 96.7973 88.6739 95.9093 88.4273 95.12C88.2299 94.3307 88.1313 93.3687 88.1313 92.234V87.498C88.1313 85.8207 88.3286 84.4887 88.7232 83.502C89.1673 82.466 89.7593 81.6767 90.4993 81.134C91.2393 80.542 92.0779 80.1473 93.0153 79.95C94.0019 79.7527 95.0626 79.654 96.1973 79.654C97.2826 79.654 98.3186 79.7527 99.3053 79.95C100.292 80.1473 101.155 80.542 101.895 81.134C102.635 81.6767 103.203 82.466 103.597 83.502C104.041 84.4887 104.263 85.8207 104.263 87.498V93.344H98.5653V87.794C98.5653 86.3633 98.3679 85.4013 97.9733 84.908C97.6279 84.3653 97.0359 84.094 96.1973 84.094C95.3586 84.094 94.7419 84.3653 94.3473 84.908C94.0019 85.4013 93.8293 86.3633 93.8293 87.794V92.234C93.8293 93.3193 94.0759 94.232 94.5693 94.972C95.1119 95.6627 95.6299 96.2793 96.1233 96.822L102.413 104.518C103.252 105.554 103.77 106.516 103.967 107.404C104.165 108.243 104.263 109.155 104.263 110.142V115.248ZM110.818 93.788C109.733 93.7387 108.869 93.4427 108.228 92.9C107.636 92.308 107.34 91.4447 107.34 90.31V86.388H112.816V89.126H116.664V93.788H110.818ZM110.818 116.358C109.733 116.309 108.869 116.013 108.228 115.47C107.636 114.878 107.34 114.015 107.34 112.88V108.958H112.816V111.77H116.664V116.358H110.818ZM119.711 122.5V80.246H125.409V122.5H119.711ZM141.094 122.5V87.202C141.094 86.3633 140.823 85.6727 140.28 85.13C139.737 84.538 139.047 84.2173 138.208 84.168C137.32 84.1187 136.531 84.39 135.84 84.982C135.149 85.574 134.804 86.314 134.804 87.202V122.5H129.106V80.246H134.36V82.984C135.248 81.5533 136.383 80.5913 137.764 80.098C139.195 79.6047 140.576 79.506 141.908 79.802C143.24 80.098 144.375 80.764 145.312 81.8C146.299 82.7867 146.792 84.094 146.792 85.722V122.5H141.094ZM162.484 122.5V86.536C162.484 85.7467 162.139 85.1547 161.448 84.76C160.807 84.316 160.116 84.094 159.376 84.094C158.587 84.094 157.847 84.316 157.156 84.76C156.515 85.1547 156.194 85.7467 156.194 86.536V97.932H160.19V102.52H156.194V122.5H150.496V85.944C150.496 84.6613 150.891 83.576 151.68 82.688C152.47 81.7507 153.456 81.0353 154.64 80.542C155.824 80.0487 157.107 79.7527 158.488 79.654C159.919 79.5553 161.251 79.6787 162.484 80.024V77.508H168.182V122.5H162.484ZM183.875 122.574V84.76L180.767 86.314L177.585 84.76V115.248C177.585 116.629 178.004 117.591 178.843 118.134C179.682 118.627 180.594 118.751 181.581 118.504V122.13C180.841 122.673 179.904 122.993 178.769 123.092C177.684 123.24 176.623 123.117 175.587 122.722C174.6 122.377 173.737 121.735 172.997 120.798C172.257 119.861 171.887 118.627 171.887 117.098V87.276C171.887 85.5493 172.183 84.1927 172.775 83.206C173.367 82.17 174.008 81.3807 174.699 80.838C175.538 80.246 176.5 79.8513 177.585 79.654L180.767 81.282L183.875 79.654C184.911 79.8513 185.873 80.246 186.761 80.838C187.452 81.3807 188.093 82.17 188.685 83.206C189.326 84.1927 189.622 85.5493 189.573 87.276V122.574H183.875ZM184.324 76.398V70.256H189.578V76.398H184.324ZM195.128 122.5V86.24C195.177 85.7467 195.103 85.3027 194.906 84.908C194.708 84.5627 194.338 84.2913 193.796 84.094C193.302 83.8967 192.513 83.8473 191.428 83.946C191.378 83.946 191.378 83.7487 191.428 83.354C191.428 82.9593 191.428 82.4907 191.428 81.948V79.95C193.796 79.5553 195.596 79.6787 196.83 80.32C198.112 80.912 199.05 81.6273 199.642 82.466C200.332 83.4527 200.727 84.6613 200.826 86.092V122.5H195.128ZM221.275 116.728C221.275 117.863 221.078 118.874 220.683 119.762C220.338 120.502 219.795 121.168 219.055 121.76C218.315 122.352 217.255 122.599 215.873 122.5H211.137L203.663 79.95H208.991L215.651 117.542V87.202C215.651 85.87 215.232 84.9573 214.393 84.464C213.555 83.9213 212.642 83.7733 211.655 84.02V80.394C212.395 79.8513 213.308 79.5307 214.393 79.432C215.479 79.284 216.515 79.4073 217.501 79.802C218.537 80.1473 219.425 80.7887 220.165 81.726C220.905 82.6633 221.275 83.8967 221.275 85.426V116.728ZM262.89 122.5V84.76L259.708 86.314L256.6 84.76L256.526 89.644H250.902C250.656 87.2267 250.804 85.352 251.346 84.02C251.889 82.6387 252.555 81.6273 253.344 80.986C254.134 80.3447 254.874 79.9747 255.564 79.876C256.255 79.728 256.6 79.654 256.6 79.654L259.708 81.282L262.89 79.654C263.976 79.8513 264.938 80.246 265.776 80.838C266.467 81.3807 267.108 82.17 267.7 83.206C268.292 84.1927 268.564 85.5493 268.514 87.276V122.5H262.89Z" fill="#3C87C9"/>
</svg>
