<svg width="281" height="449" viewBox="0 0 281 449" fill="none" xmlns="http://www.w3.org/2000/svg">
<g clip-path="url(#clip0_141_13243)">
<path d="M94.7535 414.893C141.783 425.994 182.413 424.383 185.502 411.295C188.591 398.207 152.97 378.599 105.94 367.499C58.9097 356.399 18.2803 358.01 15.1913 371.097C12.1023 384.185 47.7235 403.793 94.7535 414.893Z" fill="#2D6076"/>
<path d="M214.385 201.114C212.174 189.336 210.645 185.216 202.868 175.873C197.358 169.269 188.553 162.481 185.645 158.908C182.747 155.337 184.533 147.77 185.651 143.033L195.999 99.1892C196.279 98.0022 198.649 98.5614 198.929 97.3744L202.844 80.7886C203.124 79.6016 204.308 79.8812 204.866 77.5178C205.424 75.1545 203.962 76.0513 204.519 73.6879C205.077 71.3245 207.596 60.6524 207.53 55.6355C207.463 50.6186 182.909 43.57 182.909 43.57C182.909 43.57 157.794 38.8953 155.491 43.353C153.188 47.8107 150.669 58.4829 150.111 60.8463C149.554 63.2096 148.647 61.7536 148.089 64.117C147.531 66.4803 148.713 66.7705 148.436 67.9469L144.521 84.5328C144.241 85.7198 146.61 86.2789 146.33 87.4659L135.982 131.31C134.863 136.047 133.08 143.604 128.889 145.512C124.7 147.41 113.779 149.543 105.898 152.986C94.753 157.863 91.5564 160.856 84.3096 170.413C78.022 178.696 76.505 182.332 73.9886 192.994L34.5517 360.082C32.8732 367.193 33.0062 377.227 42.8062 383.299C52.6087 389.361 98.027 403.247 98.027 403.247C98.027 403.247 144.859 411.145 156.34 410.096C167.818 409.057 172.426 400.131 174.104 393.02L213.541 225.932C216.058 215.27 216.327 211.339 214.406 201.119L214.385 201.114Z" fill="#D2D4D3"/>
<path d="M97.6414 404.834L97.5357 404.809C95.6724 404.235 51.802 390.793 41.9329 384.682C30.6398 377.698 31.4508 366.029 32.9442 359.702L72.3811 192.615C74.9025 181.932 76.4142 178.082 82.9922 169.419C90.4309 159.617 93.8288 156.481 105.225 151.485C109.795 149.486 115.201 147.965 119.985 146.622C123.476 145.644 126.491 144.79 128.203 144.019C131.666 142.453 133.369 135.236 134.385 130.933L144.64 87.4812C144.558 87.4057 144.456 87.3147 144.371 87.2498C143.737 86.7197 142.551 85.735 142.924 84.1559L146.839 67.5701C146.839 67.5701 146.782 67.4335 146.738 67.3338C146.477 66.6903 146.047 65.6266 146.494 63.7295C146.857 62.1928 147.427 61.5776 148.238 61.0753C148.277 61.051 148.314 61.0373 148.345 60.9999C148.345 60.9999 148.422 60.8615 148.52 60.4482C150.563 51.7897 152.467 45.6155 154.034 42.5728C156.609 37.5753 175.29 40.4628 183.194 41.9367L183.268 41.9542L183.342 41.9717C191.071 44.1875 209.071 49.9576 209.14 55.5792C209.183 58.9908 208.123 65.3752 206.079 74.0338C205.974 74.4789 205.992 74.6398 205.992 74.6398C205.992 74.6398 206.027 74.6815 206.054 74.7102C206.555 75.5221 206.789 76.327 206.426 77.8637C205.978 79.7608 205.118 80.5199 204.597 80.9786C204.513 81.0484 204.432 81.1076 204.38 81.1849L200.476 97.7284C200.114 99.31 198.623 99.6631 197.819 99.8537C197.714 99.8736 197.593 99.9122 197.475 99.9403L187.219 143.392C186.204 147.695 184.5 154.912 186.897 157.861C188.073 159.313 190.401 161.418 193.085 163.864C196.752 167.202 200.918 170.982 204.112 174.813C212.071 184.378 213.711 188.692 215.979 200.796C217.987 211.496 217.62 215.606 215.099 226.288L175.662 393.376C174.169 399.703 169.687 410.505 156.452 411.7C144.892 412.753 99.6413 405.161 97.7205 404.831L97.6147 404.806L97.6414 404.834ZM146.198 84.5258C146.28 84.6013 146.382 84.6923 146.467 84.7572C147.101 85.2873 148.287 86.272 147.914 87.8511L137.566 131.695C136.338 136.899 134.479 144.773 129.551 147.011C127.625 147.888 124.493 148.76 120.879 149.786C116.203 151.099 110.905 152.59 106.547 154.493C95.6017 159.283 92.6224 162.16 85.6038 171.412C79.6222 179.298 78.1217 182.58 75.5728 193.379L36.1359 360.467C34.5575 367.154 34.587 376.302 43.6587 381.912C52.9537 387.664 95.9967 400.922 98.4024 401.658C100.873 402.073 145.312 409.462 156.198 408.474C166.833 407.504 170.94 399.333 172.516 392.656L211.952 225.568C214.501 214.769 214.627 211.162 212.803 201.434C210.662 190.02 209.281 186.125 201.634 176.936C198.59 173.275 194.515 169.583 190.92 166.318C188.133 163.792 185.735 161.603 184.393 159.955C180.984 155.76 182.842 147.886 184.073 142.672L194.421 98.8279C194.794 97.2488 196.295 96.8982 197.099 96.7076C197.204 96.6877 197.325 96.6491 197.443 96.621L201.265 80.4273C201.5 79.4311 202.092 78.9107 202.475 78.5647C202.84 78.2481 203.08 78.0362 203.29 77.146C203.395 76.7009 203.378 76.54 203.378 76.54C203.378 76.54 203.343 76.4982 203.316 76.4695C202.815 75.6577 202.581 74.8528 202.944 73.316C204.897 65.039 205.954 58.7655 205.917 55.6576C205.703 53.5821 194.79 48.6791 182.555 45.1648C170.029 42.8349 158.086 42.3432 156.964 44.1147C155.544 46.8675 153.684 52.9513 151.73 61.2283C151.367 62.765 150.798 63.3802 149.987 63.8825C149.948 63.9068 149.911 63.9205 149.88 63.9579C149.88 63.9579 149.802 64.0963 149.705 64.5097C149.497 65.3893 149.617 65.6861 149.799 66.1431C149.998 66.6263 150.284 67.354 150.049 68.3502L146.227 84.5439L146.198 84.5258Z" fill="black"/>
<path d="M149.866 64.5359C149.866 64.5359 163.156 66.4196 173.796 68.931C184.437 71.4424 203.079 77.0955 203.079 77.0955C203.079 77.0955 208.675 56.3192 206.305 54.2943C203.933 52.28 188.221 44.8121 182.9 43.5564C177.58 42.3007 155.483 43.3395 155.483 43.3395L149.855 64.5334L149.866 64.5359Z" fill="#F09B5C"/>
<path d="M147.814 65.8983L154.221 41.7781L155.418 41.7248C156.332 41.6832 177.805 40.6873 183.284 41.9805C188.763 43.2736 204.756 50.8301 207.378 53.0602C208.159 53.7256 210.529 55.7505 204.663 77.5261L204.223 79.1563L202.619 78.6658C202.431 78.6103 183.903 72.9953 173.432 70.5238C162.96 68.0524 149.771 66.17 149.641 66.1506L147.827 65.8902L147.814 65.8983ZM174.169 67.3525C182.905 69.4146 197.153 73.6277 201.93 75.0572C204.098 66.6742 205.84 57.3067 205.136 55.4624C202.655 53.534 187.653 46.3681 182.533 45.1599C178.599 44.2312 163.596 44.6395 156.761 44.9284L151.913 63.1961C155.933 63.8093 165.898 65.4003 174.179 67.355L174.169 67.3525Z" fill="black"/>
<path d="M148.92 71.1934L202.143 83.7554L199.954 90.9027L172.087 84.1687L147.252 78.3071L148.93 71.1959L148.92 71.1934Z" fill="#F09B5C"/>
<path d="M201.057 92.8537L171.69 85.7547L145.28 79.5211L147.708 69.2305L204.211 82.5664L201.057 92.8537ZM149.203 77.0906L172.451 82.5778L198.838 88.9623L200.065 84.9444L150.131 73.1588L149.203 77.0906Z" fill="black"/>
<path d="M172.786 43.7879L151.088 125.5C151.088 125.5 156.44 129.269 161.168 130.385C165.896 131.501 175.922 131.361 175.922 131.361L193.823 48.5182L182.909 43.5703L172.783 43.7985L172.786 43.7879Z" fill="#F3F1DD"/>
<path d="M160.792 131.975C155.811 130.799 150.376 126.999 150.145 126.844L149.217 126.188L171.531 42.1944L183.252 41.9286L195.698 47.5739L177.248 132.984L175.948 133.001C175.535 133.004 165.668 133.126 160.803 131.978L160.792 131.975ZM152.963 124.79C154.651 125.871 158.306 128.032 161.543 128.796C165.044 129.622 171.786 129.725 174.607 129.742L191.958 49.4658L182.576 45.2153L174.056 45.4083L152.974 124.793L152.963 124.79Z" fill="black"/>
<path d="M67.7715 264.8L47.3328 353.477C46.8725 355.427 47.9444 357.414 49.8225 358.115C59.1462 361.568 86.3544 371.425 104.441 375.884C122.63 380.379 151.037 382.082 160.552 382.549C162.428 382.645 164.118 381.399 164.603 379.578L187.483 292.719C188.086 290.445 186.605 288.159 184.285 287.768L170.156 285.418C169.459 285.298 168.801 285.009 168.263 284.546C165.012 281.81 151.954 271.612 132.899 266.902C113.263 262.055 90.4418 265.071 85.5768 265.813C84.94 265.909 84.3065 265.849 83.6975 265.638L72.9601 261.929C70.7199 261.154 68.3143 262.5 67.7821 264.802L67.7715 264.8Z" fill="#F3F1DD"/>
<path d="M105.134 377.726C104.764 377.638 104.404 377.554 104.045 377.469C86.1591 373.057 59.7646 363.538 49.2489 359.646C46.6107 358.665 45.1066 355.86 45.7333 353.11L66.172 264.433C66.5372 262.886 67.5351 261.544 68.9225 260.775C70.31 260.006 71.9743 259.862 73.4729 260.372L84.2103 264.081C84.5705 264.211 84.9427 264.243 85.3242 264.187C89.8183 263.503 113.213 260.376 133.277 265.301C152.522 270.056 165.712 280.263 169.299 283.28C169.616 283.545 169.987 283.722 170.407 283.788L184.536 286.138C186.082 286.402 187.467 287.3 188.325 288.632C189.183 289.965 189.435 291.591 189.041 293.12L166.161 379.979C165.493 382.529 163.09 384.289 160.462 384.161C149.721 383.64 123.139 381.964 105.137 377.715L105.134 377.726ZM72.1775 263.4C71.6064 263.265 71.0275 263.353 70.5038 263.632C69.9122 263.962 69.5052 264.504 69.3501 265.161L48.9114 353.838C48.6387 354.993 49.2784 356.162 50.3776 356.567C60.8429 360.436 87.0919 369.909 104.819 374.284C122.998 378.776 152.14 380.485 160.618 380.897C161.721 380.956 162.724 380.208 163.008 379.145L185.888 292.286C186.064 291.634 185.953 290.97 185.584 290.402C185.216 289.834 184.665 289.469 184 289.357L169.871 287.007C168.883 286.84 167.965 286.422 167.203 285.773C163.757 282.867 151.057 273.045 132.497 268.463C132.265 268.408 132.021 268.35 131.778 268.293C112.486 263.739 90.1339 266.755 85.8029 267.411C84.9003 267.544 84.003 267.467 83.1476 267.164L72.4102 263.455C72.3256 263.435 72.254 263.407 72.1694 263.387L72.1775 263.4Z" fill="black"/>
<path d="M128.373 144.953C127.12 146.571 127.488 148.705 129.172 149.897C131.002 151.179 133.119 150.347 134.949 149.549C136.005 149.093 136.917 148.682 137.877 149.49C138.639 150.14 139.227 150.961 140.114 151.461C140.921 151.92 141.803 152.062 142.7 151.904C143.387 151.786 144.597 150.964 145.253 151.164C145.91 151.364 146.405 152.342 146.817 152.82C147.446 153.561 148.147 154.185 149.061 154.524C150.896 155.215 152.682 154.461 154.428 153.878C155.168 153.627 155.956 153.366 156.731 153.582C157.757 153.869 158.618 154.811 159.457 155.423C161.441 156.853 163.757 157.31 166.136 157.637C172.16 158.466 178.187 159.284 184.224 160.105C186.278 160.388 187.052 157.203 184.974 156.925C180.204 156.269 175.443 155.627 170.674 154.971C168.455 154.671 166.162 154.499 163.991 153.953C161.819 153.407 160.565 151.813 158.647 150.857C157.018 150.047 155.34 150.155 153.647 150.706C152.305 151.139 150.718 152.141 149.519 150.974C148.32 149.807 147.675 148.379 146.004 147.985C145.21 147.797 144.392 147.906 143.615 148.17C142.838 148.435 142.186 148.974 141.443 148.43C140.701 147.885 140.155 147.074 139.379 146.533C138.496 145.922 137.464 145.656 136.397 145.729C135.181 145.822 134.131 146.391 133.016 146.855C132.583 147.032 132.122 147.237 131.653 147.283C131.448 147.301 131.228 147.238 131.041 147.228C130.679 147.198 131.093 146.725 130.722 147.208C131.995 145.551 129.646 143.296 128.36 144.962L128.373 144.953Z" fill="black"/>
<path d="M132.042 141.569C132.498 143.422 134.523 144.113 136.239 143.701C137.53 143.391 139.022 141.516 140.291 142.431C141.645 143.411 142.396 145.009 143.891 145.865C145.74 146.928 147.527 146.31 149.46 145.972C151.841 145.538 154.285 146.819 156.462 147.624C158.64 148.429 160.882 149.619 163.184 149.658C165.141 149.695 166.541 148.493 168.317 147.972C169.11 147.734 169.3 147.969 169.697 148.656C170.187 149.51 170.578 150.363 171.41 150.951C173.483 152.436 176.021 151.144 178.318 151.585C180.551 152.012 182.487 153.319 183.721 155.233C184.856 157 187.639 155.285 186.494 153.515C184.361 150.204 180.614 148.1 176.651 148.193C175.741 148.214 174.401 148.737 173.54 148.41C172.761 148.115 172.484 146.83 172.009 146.192C170.882 144.673 169.119 144.29 167.37 144.84C165.621 145.389 164.204 146.71 162.229 146.233C159.955 145.696 157.729 144.623 155.541 143.815C153.375 143.013 151.233 142.34 148.911 142.765C148.024 142.925 147.026 143.372 146.117 143.247C145.317 143.136 144.728 142.416 144.225 141.849C143.056 140.555 141.934 139.116 140.09 138.882C138.973 138.741 137.95 139.104 136.992 139.661C136.579 139.899 136.18 140.264 135.729 140.426C135.618 140.467 135.514 140.532 135.39 140.536C134.99 140.576 135.13 140.452 135.164 140.595C134.663 138.552 131.544 139.516 132.047 141.548L132.042 141.569Z" fill="black"/>
<path d="M181.36 156.957C181.36 156.957 175.727 154.374 178.283 169.992C180.839 185.61 191.676 203.183 197.311 205.755C202.946 208.327 216.447 204.017 217.287 200.456C218.128 196.895 210.498 176.331 200.629 165.253C190.762 154.164 188.737 157.445 181.36 156.957Z" fill="#F3F1DD"/>
<path d="M198.363 207.828C197.75 207.683 197.17 207.49 196.637 207.242C190.076 204.239 179.217 185.766 176.681 170.253C175.403 162.422 175.918 157.732 178.288 155.92C179.502 154.987 180.88 155.066 181.711 155.329C183.099 155.41 184.287 155.344 185.438 155.291C190.649 155.022 193.977 155.304 201.859 164.157C211.974 175.517 219.915 196.468 218.887 200.824C218.517 202.392 216.941 203.866 214.2 205.211C210.286 207.129 203.255 208.96 198.379 207.809L198.363 207.828ZM180.662 158.449C180.545 158.422 180.39 158.418 180.236 158.55C179.918 158.81 178.401 160.601 179.896 169.736C182.369 184.854 192.926 201.958 197.994 204.284C201.26 205.771 208.396 204.445 212.763 202.31C214.998 201.215 215.654 200.329 215.706 200.107C216.352 197.372 209.302 177.471 199.417 166.366C192.188 158.249 189.714 158.37 185.599 158.585C184.355 158.649 182.943 158.719 181.26 158.613L180.964 158.587L180.733 158.477C180.733 158.477 180.702 158.47 180.68 158.465L180.662 158.449Z" fill="black"/>
<path d="M161.783 120.305C164.506 119.649 166.779 117.4 167.217 114.594C167.656 111.789 166.367 109.113 164.088 107.512C163.447 107.059 162.79 107.855 162.913 108.466C163.782 112.732 165.725 116.614 168.553 119.911C169 120.43 169.722 120.019 169.911 119.504C171.7 114.623 171.004 109.1 168.126 104.784C167.935 104.504 167.537 104.298 167.193 104.43C166.06 104.878 165.778 106.311 166.675 107.194C168.263 108.744 169.094 106.031 169.494 104.95C171.116 100.489 171.419 95.7044 170.577 91.0415C170.478 90.5146 169.772 90.3368 169.366 90.5879C167.075 92.0163 168.754 95.3104 171.195 95.0921C175.248 94.7172 174.58 89.5025 176.817 87.3117C177.468 86.6822 176.538 85.4668 175.796 86.0527C173.497 87.8932 172.795 90.9161 174.102 93.5629C174.375 94.1085 175.26 94.0489 175.507 93.5253C177.767 88.8225 177.48 83.2725 174.727 78.8522C174.353 78.2605 173.392 78.403 173.24 79.0944C172.935 80.3873 172.651 81.6853 172.356 82.9807C172.131 83.9345 173.356 84.2796 173.861 83.5597C177.425 78.538 178.962 72.3108 178.159 66.2027C178.08 65.5911 177.224 65.0534 176.755 65.6699C175.624 67.1484 175.046 68.7462 174.988 70.6009C174.963 71.5124 176.433 71.6693 176.593 70.756C176.888 69.0802 177.175 67.3913 177.47 65.7156L176.285 66.2415C179.662 67.9225 183.875 66.2091 184.698 62.3869C185.109 60.4587 184.431 58.7883 183.506 57.1266C182.729 55.7349 180.952 52.4289 183.358 51.5536L182.408 50.3781C180.878 53.6421 179.595 56.9978 178.558 60.4452C178.254 61.4477 179.841 61.8221 180.144 60.8197C181.149 57.5101 182.376 54.2977 183.841 51.164C184.129 50.5606 183.599 49.7307 182.89 49.9886C179.715 51.1412 180.438 54.9369 181.723 57.254C182.713 59.0653 183.785 60.8624 182.815 62.9382C181.786 65.1232 179.193 65.8426 177.094 64.799C176.644 64.5807 176.003 64.7875 175.91 65.3249C175.615 67.0007 175.328 68.6895 175.033 70.3653L176.637 70.5203C176.675 69.1306 177.115 67.8807 177.958 66.7706L176.554 66.2378C177.327 72.0928 175.88 77.9385 172.456 82.7469L173.961 83.3259C174.266 82.0329 174.55 80.735 174.845 79.4395L173.358 79.6817C175.805 83.6044 176.102 88.5416 174.102 92.7126L175.506 92.6749C174.632 90.891 175.115 88.6554 176.671 87.4114L175.65 86.1524C174.429 87.3522 174.032 88.892 173.525 90.473C173.213 91.4623 172.814 92.5875 171.856 93.1447C171.39 93.4151 170.817 93.5708 170.349 93.2366C169.939 92.9384 169.667 92.2925 170.23 91.9441L169.019 91.4906C169.495 94.1092 169.577 96.7913 169.189 99.4296C169.019 100.62 168.765 101.791 168.424 102.953C168.225 103.655 167.986 104.337 167.726 105.014C167.611 105.311 167.485 105.606 167.349 105.899C167.799 105.837 167.905 105.862 167.656 105.971L166.724 105.617C169.398 109.616 169.967 114.583 168.319 119.106L169.677 118.699C167.033 115.614 165.288 111.935 164.473 107.961L163.299 108.915C167.244 111.692 165.845 117.616 161.299 118.713C160.279 118.965 160.76 120.522 161.777 120.281L161.783 120.305Z" fill="black"/>
<path d="M184.004 164.394C186.114 165.53 188.7 165.077 190.269 163.255C190.745 162.707 190.37 161.88 189.645 161.877C186.914 161.859 183.995 164.101 185.164 167.096C186.153 169.623 190.203 169.449 190.52 166.592C190.574 166.079 190.272 165.56 189.695 165.592C187.601 165.713 186.047 168.322 187.409 170.121C188.838 172.013 191.868 171.05 192.435 168.935L190.848 168.56L190.022 172.438C189.908 172.97 190.309 173.446 190.847 173.438L196.607 173.399C197.379 173.391 197.715 172.206 196.969 171.862C195.506 171.204 193.733 171.099 192.434 172.202C191.375 173.093 191.012 174.63 191.548 175.909C192.766 178.792 197.282 177.161 196.301 174.222C196.189 173.893 195.853 173.613 195.487 173.649C191.975 174.006 189.121 177.439 189.807 181.013C190.493 184.588 194.56 186.756 197.946 185.653L196.996 184.478C196.615 185.194 196.234 185.909 195.842 186.622C195.538 187.2 195.973 187.817 196.585 187.827C198.739 187.877 200.282 185.88 200.069 183.805C199.855 181.729 197.909 179.379 195.718 179.388C193.986 179.393 192.463 181.495 193.805 182.953C195.537 184.839 197.641 182.549 198.364 180.997L196.86 180.418C196.153 182.657 195.446 184.895 194.725 187.142C194.548 187.704 195.067 188.107 195.55 188.142C196.875 188.253 198.2 188.365 199.514 188.474L198.671 187.693C198.79 188.135 198.658 188.506 198.285 188.81C197.613 189.479 198.52 190.51 199.305 190.069C200.169 189.579 201.035 189.079 201.909 188.591L200.889 187.332C198.46 190.149 200.864 194.107 204.462 193.389L203.429 192.419L203.211 194.146C203.161 194.548 203.341 195.061 203.817 195.128C205.689 195.38 207.551 195.629 209.423 195.881L209.372 194.302C206.505 195.472 204.244 197.623 203.042 200.495C202.896 200.829 202.916 201.215 203.189 201.48C203.954 202.209 205.085 202.196 205.784 201.366C206.482 200.535 205.279 199.434 204.599 200.236L204.307 200.29L204.454 201.275C205.493 198.813 207.345 196.878 209.829 195.865C210.495 195.597 210.665 194.406 209.777 194.286C207.905 194.034 206.043 193.785 204.171 193.533L204.777 194.516L204.995 192.788C205.079 192.148 204.606 191.689 203.962 191.817C201.958 192.217 200.748 189.962 202.055 188.447C202.655 187.749 201.859 186.722 201.035 187.188L198.43 188.665L199.451 189.924C200.104 189.284 200.382 188.533 200.284 187.626C200.23 187.143 199.902 186.876 199.441 186.845C198.116 186.734 196.791 186.623 195.477 186.514L196.301 187.514C197.008 185.275 197.715 183.037 198.436 180.79C198.709 179.915 197.318 179.374 196.931 180.211C196.705 180.695 196.07 182.201 195.334 181.96C194.812 181.523 194.867 181.29 195.483 181.234C195.859 180.965 196.224 180.984 196.586 181.293C196.982 181.51 197.337 181.851 197.623 182.198C198.708 183.517 198.824 186.241 196.514 186.188L197.257 187.393C197.638 186.677 198.019 185.961 198.411 185.248C198.745 184.634 198.137 183.852 197.46 184.073C195.026 184.875 192.05 183.434 191.432 180.849C190.813 178.264 192.967 175.527 195.542 175.262L194.728 174.69C194.931 175.297 194.276 176.038 193.617 175.849C192.958 175.659 192.837 174.848 192.954 174.305C193.267 172.835 195.065 172.789 196.173 173.297L196.536 171.76L190.776 171.799L191.601 172.799L192.427 168.922C192.648 167.889 191.114 167.527 190.84 168.547C190.614 169.411 189.063 169.974 188.602 168.948C188.257 168.184 188.983 167.236 189.75 167.205L188.925 166.205C188.84 166.99 188.092 167.462 187.358 167.166C186.675 166.893 186.44 166.088 186.574 165.381C186.854 163.959 188.429 163.481 189.689 163.487L189.066 162.109C187.972 163.384 186.258 163.74 184.761 162.939C183.839 162.442 183.054 163.879 183.975 164.376L184.004 164.394Z" fill="black"/>
<path d="M198.756 176.973C201.83 181.122 204.904 185.271 207.989 189.423C208.606 190.262 210.003 189.406 209.375 188.564C206.301 184.415 203.227 180.266 200.142 176.114C199.525 175.275 198.128 176.131 198.756 176.973Z" fill="black"/>
<path d="M193.799 190.784C195.307 193.714 197.413 196.337 199.942 198.444C200.277 198.724 200.773 198.752 201.098 198.415C201.382 198.112 201.404 197.547 201.071 197.256C198.635 195.226 196.642 192.742 195.188 189.915C194.99 189.522 194.42 189.432 194.067 189.65C193.674 189.894 193.604 190.38 193.801 190.774L193.799 190.784Z" fill="black"/>
<path d="M78.8736 292.18C78.5661 292.253 78.2661 292.294 77.9655 292.29C77.6649 292.286 77.3588 292.259 77.052 292.186C75.7934 291.889 74.9802 291.172 74.5887 290.039C74.1973 288.906 74.2433 287.339 74.7136 285.347C75.1838 283.354 75.8844 281.852 76.7959 280.971C77.7074 280.09 78.8055 279.79 80.1065 280.097C80.3921 280.164 80.649 280.258 80.8904 280.371C81.1317 280.484 81.3575 280.616 81.5546 280.774L81.1969 282.29C80.9917 282.118 80.779 281.978 80.58 281.875C80.3809 281.773 80.1769 281.691 79.9865 281.646C79.1086 281.439 78.3759 281.657 77.7989 282.304C77.2218 282.951 76.7407 284.091 76.358 285.712C76.0003 287.228 75.928 288.386 76.1362 289.207C76.3444 290.028 76.8517 290.528 77.6555 290.718C77.8882 290.773 78.1284 290.796 78.3786 290.777C78.6288 290.757 78.9077 290.711 79.2202 290.617L78.8525 292.175L78.8736 292.18Z" fill="black"/>
<path d="M82.2697 293.262L85.0637 281.424L86.7137 281.813L85.6506 286.317L88.6016 287.014L89.6647 282.51L91.3147 282.899L88.5207 294.737L86.8707 294.348L88.2514 288.498L85.3004 287.801L83.9197 293.651L82.2697 293.262Z" fill="black"/>
<path d="M91.7361 295.495L97.3965 284.333L98.9513 284.7L99.0236 297.215L97.3524 296.82L97.3104 294.349L94.5181 293.69L93.3966 295.887L91.7255 295.492L91.7361 295.495ZM97.4563 287.581L95.1375 292.438L97.3481 292.959L97.4563 287.581Z" fill="black"/>
<path d="M102.25 297.977L105.044 286.139L106.694 286.528L104.247 296.893L107.791 297.729L107.443 299.202L102.25 297.977Z" fill="black"/>
<path d="M111.438 293.914C111.951 291.742 112.591 290.259 113.353 289.444C114.126 288.63 115.124 288.374 116.362 288.666C117.599 288.958 118.367 289.631 118.684 290.702C119.001 291.772 118.91 293.384 118.395 295.568C117.88 297.751 117.242 299.223 116.483 300.028C115.723 300.833 114.725 301.09 113.498 300.8C112.271 300.511 111.482 299.832 111.152 298.77C110.822 297.707 110.925 296.087 111.436 293.925L111.438 293.914ZM113.117 294.277C112.721 295.952 112.579 297.171 112.702 297.927C112.825 298.684 113.208 299.143 113.863 299.298C114.519 299.453 115.052 299.231 115.482 298.639C115.912 298.047 116.321 296.88 116.734 295.131C117.147 293.382 117.279 292.205 117.162 291.473C117.045 290.74 116.659 290.291 116.014 290.139C115.369 289.986 114.802 290.211 114.367 290.824C113.932 291.437 113.517 292.581 113.117 294.277Z" fill="black"/>
<path d="M120.812 302.359L123.606 290.521L125.129 290.88L126.435 299.871L128.377 291.647L129.942 292.016L127.148 303.854L125.593 303.487L124.313 294.435L122.357 302.723L120.791 302.354L120.812 302.359Z" fill="black"/>
<path d="M139.477 300.061C139.441 300.31 139.394 300.556 139.347 300.803C139.3 301.049 139.247 301.271 139.197 301.483C138.787 303.221 138.188 304.434 137.411 305.123C136.634 305.813 135.638 306.014 134.422 305.727C133.205 305.439 132.374 304.751 132.036 303.675C131.698 302.6 131.788 300.988 132.296 298.836C132.804 296.685 133.465 295.163 134.245 294.362C135.026 293.562 136.056 293.313 137.347 293.617C138.256 293.832 138.936 294.216 139.388 294.759C139.841 295.303 140.074 296.018 140.088 296.905L138.468 297.239C138.49 296.628 138.378 296.155 138.139 295.796C137.9 295.437 137.53 295.205 137.023 295.085C136.303 294.915 135.729 295.126 135.275 295.724C134.821 296.322 134.393 297.474 133.983 299.212C133.572 300.95 133.445 302.151 133.584 302.888C133.723 303.626 134.15 304.085 134.859 304.252C135.493 304.402 136.04 304.262 136.477 303.829C136.915 303.395 137.264 302.672 137.502 301.665C137.537 301.517 137.564 301.4 137.584 301.315C137.604 301.23 137.619 301.167 137.624 301.101L135.868 300.686L136.198 299.287L139.509 300.069L139.477 300.061Z" fill="black"/>
<path d="M146.906 308.518L149.7 296.68L151.963 297.214C153.158 297.496 153.971 297.934 154.398 298.538C154.824 299.142 154.909 299.968 154.661 301.017C154.476 301.801 154.204 302.386 153.837 302.758C153.47 303.13 152.977 303.327 152.363 303.372C152.973 303.673 153.371 304.069 153.567 304.563C153.763 305.057 153.756 305.704 153.568 306.499C153.293 307.664 152.815 308.458 152.125 308.877C151.434 309.296 150.502 309.366 149.307 309.084L146.906 308.518ZM150.152 302.146L150.754 302.288C151.378 302.435 151.868 302.394 152.224 302.165C152.58 301.935 152.838 301.504 152.988 300.868C153.145 300.201 153.118 299.702 152.919 299.364C152.719 299.026 152.276 298.776 151.62 298.621L151.017 298.479L150.152 302.146ZM148.911 307.402L149.461 307.532C150.222 307.712 150.773 307.696 151.126 307.478C151.479 307.259 151.732 306.804 151.902 306.083C152.072 305.362 152.047 304.808 151.812 304.428C151.578 304.049 151.111 303.759 150.413 303.595L149.841 303.46L148.911 307.402Z" fill="black"/>
<path d="M155.494 310.544L161.155 299.382L162.709 299.749L162.782 312.264L161.11 311.869L161.068 309.398L158.276 308.739L157.155 310.936L155.484 310.541L155.494 310.544ZM161.214 302.63L158.896 307.486L161.106 308.008L161.214 302.63Z" fill="black"/>
<path d="M169.935 308.638L168.747 313.672L167.044 313.27L168.232 308.236L167.532 300.888L169.235 301.289L169.494 304.83C169.507 305.057 169.516 305.35 169.513 305.696C169.509 306.042 169.498 306.42 169.469 306.827C169.605 306.49 169.743 306.187 169.892 305.886C170.041 305.586 170.183 305.317 170.348 305.043L172.168 301.97L173.892 302.377L169.948 308.63L169.935 308.638Z" fill="black"/>
<path d="M118.922 310.414C96.6995 305.169 73.7475 299.137 73.5173 299.071C73.2212 299.001 73.0591 298.694 73.1266 298.408C73.1967 298.112 73.495 297.936 73.7886 298.016C74.0213 298.071 96.9602 304.112 119.172 309.354C141.384 314.597 166.938 320.013 167.194 320.062C167.469 320.127 167.67 320.41 167.611 320.709C167.541 321.006 167.264 321.186 166.965 321.127C166.711 321.067 141.133 315.657 118.911 310.412L118.922 310.414Z" fill="black"/>
<path d="M115.533 322.123C93.3106 316.878 70.3586 310.846 70.1284 310.78C69.8322 310.71 69.6702 310.403 69.7377 310.117C69.8077 309.821 70.1166 309.647 70.3997 309.725C70.6324 309.78 93.5713 315.821 115.783 321.063C137.995 326.306 163.549 331.722 163.805 331.771C164.091 331.839 164.292 332.121 164.222 332.418C164.152 332.715 163.875 332.895 163.576 332.836C163.322 332.776 137.744 327.366 115.522 322.121L115.533 322.123Z" fill="black"/>
<path d="M72.3759 303.434L72.4234 303.233L73.0263 303.375L72.9663 303.63L72.9028 303.615L72.3653 303.432L72.3759 303.434ZM72.5035 305.59L72.4435 305.845L71.8406 305.702L71.8881 305.501L72.4506 305.578L72.5141 305.593L72.5035 305.59ZM72.4338 304.466C72.5264 304.074 72.6189 303.682 72.6984 303.298L73.3542 303.453C73.2536 303.832 73.161 304.224 73.0685 304.616L73.0385 304.743C72.9434 305.146 72.8508 305.538 72.7689 305.933L72.1131 305.778C72.2137 305.399 72.3063 305.007 72.4013 304.604L72.4313 304.477L72.4338 304.466ZM72.4935 305.633L72.9378 305.737C73.3714 305.84 73.7234 305.531 73.876 304.885C74.0285 304.238 73.8517 303.805 73.4286 303.705L72.9738 303.598L73.0263 303.375L73.534 303.495C74.3379 303.685 74.7038 304.263 74.5237 305.026C74.3436 305.79 73.7021 306.142 72.8771 305.947L72.4329 305.842L72.4854 305.62L72.4935 305.633Z" fill="black"/>
<path d="M75.3692 304.141L75.4167 303.939L76.6331 304.227L76.5856 304.428L76.0125 304.349L75.9067 304.324L75.3692 304.141ZM75.5497 306.309L76.0978 306.494L76.0503 306.696L74.8339 306.409L74.8815 306.207L75.444 306.284L75.5497 306.309ZM75.4272 305.173C75.5197 304.78 75.6123 304.388 75.6917 304.004L76.3475 304.159C76.2469 304.538 76.1543 304.93 76.0618 305.322L76.0293 305.46C75.9367 305.852 75.8442 306.244 75.7647 306.628L75.1089 306.474C75.2096 306.095 75.3021 305.703 75.3947 305.31L75.4272 305.173Z" fill="black"/>
<path d="M78.0744 306.637C78.1219 306.435 78.0467 306.328 77.8391 306.167L77.6979 306.056C77.3012 305.749 77.0999 305.467 77.1999 305.043C77.3075 304.587 77.7322 304.397 78.3033 304.532C78.5677 304.594 78.8147 304.731 78.967 304.89L78.8102 305.412L78.4611 305.33L78.501 304.735L78.7827 304.913L78.7377 305.104C78.5717 304.908 78.4518 304.802 78.2508 304.754C78.0393 304.704 77.8269 304.8 77.7794 305.001C77.7319 305.202 77.8232 305.336 78.0228 305.483L78.1826 305.611C78.6085 305.935 78.7595 306.194 78.6694 306.576C78.5644 307.021 78.1509 307.259 77.5057 307.107C77.2201 307.039 76.9178 306.901 76.7388 306.713L76.8925 306.157L77.2415 306.239L77.1916 306.876L76.9286 306.713L76.9711 306.533C77.1844 306.718 77.3149 306.827 77.5582 306.884C77.8226 306.947 78.0082 306.823 78.0557 306.621L78.0744 306.637Z" fill="black"/>
<path d="M79.7457 305.186L80.0707 305.039L79.8104 305.716L79.4931 305.641L79.6582 304.941L81.8794 305.466L81.7143 306.165L81.4181 306.095L81.488 305.373L81.7024 305.648L79.7457 305.186ZM80.3306 307.438L80.8893 307.626L80.8417 307.828L79.5513 307.523L79.5989 307.322L80.172 307.401L80.3412 307.441L80.3306 307.438ZM80.1869 306.297C80.2795 305.905 80.372 305.513 80.4515 305.129L81.1073 305.283C81.0066 305.662 80.9141 306.055 80.8215 306.447L80.789 306.584C80.6965 306.977 80.6039 307.369 80.5244 307.753L79.8687 307.598C79.9693 307.219 80.0618 306.827 80.1544 306.435L80.1869 306.297Z" fill="black"/>
<path d="M82.4664 305.817L82.5139 305.615L83.7303 305.902L83.6828 306.104L83.1097 306.024L83.0039 305.999L82.4664 305.817ZM82.6469 307.985L83.195 308.17L83.1475 308.372L81.9311 308.085L81.9786 307.883L82.5411 307.96L82.6469 307.985ZM82.5243 306.848C82.6169 306.456 82.7094 306.064 82.7889 305.68L83.4447 305.835C83.3441 306.214 83.2515 306.606 83.159 306.998L83.1264 307.136C83.0339 307.528 82.9413 307.92 82.8619 308.304L82.2061 308.149C82.3067 307.77 82.3993 307.378 82.4918 306.986L82.5243 306.848Z" fill="black"/>
<path d="M84.3598 306.262L84.4073 306.061L85.6448 306.353L85.5973 306.555L85.0242 306.475L84.8867 306.443L84.3492 306.26L84.3598 306.262ZM84.4874 308.418L84.4274 308.673L83.8245 308.53L83.872 308.329L84.4345 308.406L84.498 308.421L84.4874 308.418ZM84.6823 306.126L85.3381 306.281C85.2375 306.66 85.1449 307.052 85.0524 307.444L85.0048 307.645C84.9273 307.974 84.8347 308.366 84.7528 308.761L84.097 308.606C84.1976 308.227 84.2902 307.835 84.3652 307.517L84.4177 307.294C84.5103 306.902 84.6028 306.51 84.6823 306.126ZM85.975 308.266L85.7576 308.998L84.4143 308.681L84.4643 308.469L85.6807 308.756L85.3451 308.901L85.6682 308.194L85.975 308.266Z" fill="black"/>
<path d="M86.9406 306.872L86.9881 306.67L88.2256 306.963L88.1781 307.164L87.605 307.085L87.4675 307.052L86.93 306.869L86.9406 306.872ZM87.0682 309.028L87.0082 309.282L86.4053 309.14L86.4528 308.938L87.0153 309.015L87.0788 309.03L87.0682 309.028ZM87.2631 306.735L87.9189 306.89C87.8183 307.269 87.7257 307.661 87.6332 308.053L87.5856 308.255C87.5081 308.583 87.4155 308.975 87.3336 309.37L86.6778 309.215C86.7784 308.836 86.871 308.444 86.946 308.126L86.9985 307.904C87.0911 307.511 87.1836 307.119 87.2631 306.735ZM88.5558 308.875L88.3384 309.607L86.9951 309.29L87.0451 309.078L88.2615 309.365L87.9259 309.51L88.2491 308.803L88.5558 308.875Z" fill="black"/>
<path d="M89.5319 307.483L89.5794 307.282L90.1823 307.424L90.1223 307.678L90.0588 307.663L89.5213 307.481L89.5319 307.483ZM89.6595 309.639L89.5995 309.893L88.9966 309.751L89.0441 309.55L89.6066 309.627L89.6701 309.642L89.6595 309.639ZM89.5899 308.515C89.6824 308.123 89.7749 307.731 89.8544 307.347L90.5102 307.501C90.4096 307.881 90.317 308.273 90.2245 308.665L90.1945 308.792C90.0994 309.195 90.0068 309.587 89.9249 309.981L89.2691 309.827C89.3697 309.448 89.4623 309.055 89.5548 308.663L89.5874 308.526L89.5899 308.515ZM91.1025 307.641L91.3275 307.918L90.1429 307.639L90.1929 307.427L91.5044 307.736L91.3836 308.39L91.0663 308.315L91.1025 307.641ZM90.7077 308.935L89.8827 308.741L89.9352 308.518L90.7603 308.713L90.7077 308.935ZM91.1775 309.595L90.9931 310.234L89.6076 309.907L89.6576 309.695L90.9268 309.994L90.6018 310.141L90.8707 309.522L91.188 309.597L91.1775 309.595ZM90.6289 308.749L90.7668 308.401L90.9889 308.454L90.7963 309.27L90.5742 309.217L90.6114 308.823L90.6289 308.749Z" fill="black"/>
<path d="M92.1972 308.112L92.2447 307.911L92.8476 308.053L92.7876 308.307L92.7241 308.292L92.1866 308.11L92.1972 308.112ZM92.3248 310.268L92.2648 310.522L91.6619 310.38L91.7094 310.179L92.2719 310.255L92.3354 310.27L92.3248 310.268ZM92.2551 309.144C92.3477 308.752 92.4402 308.36 92.5197 307.976L93.1755 308.13C93.0749 308.509 92.9823 308.902 92.8898 309.294L92.8597 309.421C92.7647 309.824 92.6721 310.216 92.5902 310.61L91.9344 310.456C92.035 310.077 92.1276 309.684 92.2226 309.282L92.2526 309.154L92.2551 309.144ZM92.3148 310.31L92.759 310.415C93.1927 310.518 93.5447 310.209 93.6973 309.563C93.8498 308.916 93.673 308.483 93.2499 308.383L92.7951 308.276L92.8476 308.053L93.3553 308.173C94.1591 308.363 94.5251 308.941 94.345 309.704C94.1649 310.467 93.5234 310.819 92.6984 310.625L92.2542 310.52L92.3067 310.297L92.3148 310.31Z" fill="black"/>
<path d="M96.5126 309.132L96.5601 308.93L97.163 309.073L97.103 309.327L97.0395 309.312L96.502 309.129L96.5126 309.132ZM96.7566 311.315L97.2941 311.498L97.2466 311.699L95.9773 311.4L96.0248 311.198L96.5873 311.275L96.7566 311.315ZM96.5706 310.163C96.6631 309.771 96.7557 309.379 96.8351 308.995L97.4909 309.15C97.3903 309.529 97.2977 309.921 97.2052 310.313L97.1752 310.44C97.0801 310.843 96.9876 311.235 96.9056 311.63L96.2498 311.475C96.3504 311.096 96.443 310.704 96.5355 310.312L96.5681 310.174L96.5706 310.163ZM98.1044 309.295L98.3294 309.572L97.113 309.284L97.163 309.073L98.5063 309.39L98.3749 310.041L98.0576 309.966L98.0938 309.292L98.1044 309.295ZM97.6884 310.584L96.8529 310.387L96.9054 310.164L97.741 310.361L97.6884 310.584ZM97.6096 310.397L97.7475 310.05L97.9697 310.102L97.7695 310.95L97.5474 310.897L97.5846 310.503L97.6096 310.397Z" fill="black"/>
<path d="M99.1041 309.744L99.1516 309.542L99.7545 309.685L99.6945 309.939L99.631 309.924L99.0935 309.741L99.1041 309.744ZM99.2952 311.915L99.8327 312.097L99.7852 312.299L98.5794 312.014L98.6269 311.813L99.1894 311.89L99.3058 311.917L99.2952 311.915ZM99.1726 310.778C99.2652 310.386 99.3577 309.994 99.4372 309.61L100.082 309.762C99.9818 310.141 99.8892 310.533 99.7942 310.936L99.7667 311.053C99.6716 311.455 99.5791 311.847 99.4996 312.231L98.8544 312.079C98.955 311.7 99.0476 311.308 99.1401 310.916L99.1726 310.778ZM99.5 310.811L99.9442 310.915C100.314 311.003 100.483 310.808 100.541 310.564C100.613 310.257 100.477 310.079 100.17 310.006L99.7045 309.897L99.757 309.674L100.37 309.819C100.963 309.959 101.236 310.269 101.143 310.661C101.076 310.947 100.794 311.194 100.12 311.069L100.13 311.026C100.717 311.187 100.831 311.416 100.799 311.833L100.757 312.439L100.495 312.176L101.041 312.371L100.993 312.573C100.804 312.573 100.738 312.568 100.568 312.528C100.251 312.454 100.083 312.313 100.108 312.017L100.137 311.565C100.155 311.301 100.098 311.164 99.8649 311.109L99.4313 311.007L99.4813 310.795L99.5 310.811Z" fill="black"/>
<path d="M104.171 312.024C103.966 312.893 103.292 313.193 102.668 313.045C102.044 312.898 101.576 312.329 101.781 311.46C101.986 310.591 102.67 310.294 103.284 310.438C103.897 310.583 104.376 311.155 104.171 312.024ZM102.718 312.833C103.099 312.923 103.357 312.492 103.505 311.867C103.652 311.241 103.614 310.74 103.234 310.65C102.853 310.56 102.595 310.992 102.447 311.617C102.299 312.242 102.337 312.744 102.718 312.833Z" fill="black"/>
<path d="M104.476 313.193L104.922 313.243L105.028 313.268L105.386 313.408L105.338 313.609L104.418 313.392L104.465 313.191L104.476 313.193ZM105.043 310.933L105.582 311.06L105.522 311.314L105.469 311.302L104.995 311.134L105.043 310.933ZM105.371 311.01L105.582 311.06L105.306 312.371L105.031 313.537L104.788 313.479L105.373 310.999L105.371 311.01ZM105.392 311.015L106.027 311.165L106.271 313.158L106.144 313.128L107.211 311.444L107.455 311.502L106.002 313.777L105.716 313.71L105.381 311.013L105.392 311.015ZM106.454 313.66L106.953 313.722L107.122 313.762L107.66 313.945L107.612 314.146L106.417 313.864L106.464 313.662L106.454 313.66ZM106.95 312.837L107.277 311.449L107.922 311.601C107.822 311.98 107.729 312.372 107.637 312.764L107.604 312.902C107.512 313.294 107.419 313.686 107.34 314.07L106.684 313.916C106.784 313.537 106.866 313.142 106.952 312.827L106.95 312.837ZM107.595 311.524L108.187 311.664L108.139 311.865L107.598 311.793L107.535 311.778L107.595 311.524Z" fill="black"/>
<path d="M112.226 314.988L112.171 315.221L110.161 314.746L110.216 314.513L110.896 314.517L111.658 314.697L112.226 314.988ZM112.294 311.86L112.355 311.93L112.167 312.635L111.834 314.045C111.754 314.384 111.669 314.744 111.599 315.086L110.764 314.889C110.846 314.539 110.94 314.192 111.02 313.853L111.41 312.199L110.913 312.127L110.981 311.841L112.294 311.86Z" fill="black"/>
<path d="M116.002 314.458C115.729 315.613 115.051 315.979 114.427 315.832C113.803 315.684 113.371 315.057 113.643 313.901C113.916 312.746 114.584 312.378 115.208 312.525C115.832 312.672 116.275 313.303 116.002 314.458ZM114.49 315.567C114.723 315.622 114.978 315.391 115.241 314.278C115.503 313.166 115.38 312.834 115.148 312.779C114.915 312.725 114.662 312.945 114.394 314.079C114.127 315.213 114.247 315.509 114.49 315.567Z" fill="black"/>
<path d="M119.291 315.235C119.019 316.391 118.341 316.756 117.717 316.609C117.093 316.462 116.66 315.834 116.933 314.679C117.205 313.523 117.873 313.155 118.497 313.302C119.121 313.45 119.564 314.08 119.291 315.235ZM117.779 316.344C118.012 316.399 118.267 316.168 118.53 315.056C118.793 313.943 118.67 313.612 118.437 313.557C118.204 313.502 117.951 313.722 117.684 314.856C117.416 315.99 117.536 316.287 117.779 316.344Z" fill="black"/>
<path d="M121.978 315.21C121.812 315.909 121.367 316.14 120.976 316.047C120.585 315.955 120.289 315.55 120.454 314.85C120.62 314.151 121.057 313.907 121.459 314.002C121.861 314.097 122.145 314.5 121.978 315.21ZM121.016 315.878C121.164 315.913 121.318 315.781 121.48 315.092C121.643 314.404 121.567 314.206 121.419 314.172C121.271 314.137 121.127 314.271 120.962 314.97C120.797 315.67 120.878 315.845 121.016 315.878ZM120.643 317.222L123.666 314.445L123.861 314.658L120.838 317.436L120.643 317.222ZM124.004 316.986C123.839 317.685 123.393 317.916 123.002 317.823C122.611 317.731 122.316 317.326 122.481 316.626C122.646 315.927 123.083 315.683 123.485 315.778C123.887 315.873 124.171 316.276 124.004 316.986ZM123.042 317.654C123.19 317.689 123.344 317.557 123.507 316.868C123.669 316.18 123.593 315.983 123.445 315.948C123.297 315.913 123.153 316.047 122.988 316.746C122.823 317.446 122.905 317.621 123.042 317.654Z" fill="black"/>
<path d="M126.509 316.211L126.556 316.009L127.159 316.151L127.099 316.406L127.036 316.391L126.498 316.208L126.509 316.211ZM126.753 318.394L127.29 318.577L127.243 318.778L125.974 318.479L126.021 318.277L126.584 318.354L126.753 318.394ZM126.567 317.242C126.659 316.85 126.752 316.458 126.831 316.074L127.487 316.229C127.387 316.608 127.294 317 127.201 317.392L127.146 317.625C127.074 317.933 126.984 318.314 126.902 318.709L126.246 318.554C126.347 318.175 126.439 317.783 126.532 317.391L126.564 317.253L126.567 317.242ZM127.222 317.777L126.799 317.678L126.849 317.466L127.272 317.565C127.6 317.643 127.824 317.45 127.904 317.111C127.984 316.771 127.85 316.538 127.522 316.461L127.109 316.363L127.162 316.141L127.574 316.238C128.357 316.423 128.604 316.795 128.499 317.24C128.394 317.685 128.039 317.959 127.225 317.767L127.222 317.777Z" fill="black"/>
<path d="M129.185 316.843L129.233 316.641L130.46 316.931L130.412 317.132L129.839 317.053L129.733 317.028L129.185 316.843ZM130.161 319.188C130.5 319.268 130.753 319.093 130.888 318.52L131.221 317.111L131.464 317.168L131.132 318.578C130.944 319.373 130.494 319.624 129.87 319.477C129.309 319.345 128.972 318.974 129.145 318.243L129.242 317.83C129.33 317.459 129.42 317.077 129.5 316.693L130.155 316.848C130.057 317.216 129.967 317.598 129.877 317.98L129.81 318.266C129.674 318.838 129.804 319.092 130.164 319.177L130.161 319.188ZM131.23 317.359L130.835 317.232L130.883 317.031L131.782 317.243L131.734 317.444L131.335 317.384L131.23 317.359Z" fill="black"/>
<path d="M132.316 317.582L132.363 317.38L132.966 317.523L132.906 317.777L132.843 317.762L132.305 317.579L132.316 317.582ZM132.507 319.753L133.044 319.935L132.997 320.137L131.791 319.852L131.839 319.651L132.401 319.728L132.517 319.755L132.507 319.753ZM132.384 318.616C132.477 318.224 132.569 317.832 132.649 317.448L133.294 317.6C133.193 317.979 133.101 318.371 133.006 318.774L132.978 318.89C132.883 319.293 132.791 319.685 132.711 320.069L132.066 319.917C132.167 319.538 132.259 319.146 132.352 318.754L132.384 318.616ZM132.712 318.648L133.156 318.753C133.526 318.841 133.695 318.646 133.752 318.402C133.825 318.094 133.688 317.917 133.382 317.844L132.916 317.735L132.969 317.512L133.582 317.657C134.174 317.797 134.447 318.107 134.355 318.499C134.287 318.785 134.006 319.032 133.332 318.907L133.342 318.864C133.929 319.025 134.043 319.254 134.011 319.671L133.969 320.277L133.707 320.013L134.253 320.209L134.205 320.411C134.015 320.411 133.949 320.406 133.78 320.366C133.463 320.291 133.295 320.151 133.32 319.855L133.349 319.403C133.366 319.139 133.309 319.002 133.077 318.947L132.643 318.845L132.693 318.633L132.712 318.648Z" fill="black"/>
<path d="M135.309 318.288L135.357 318.086L135.959 318.229L135.899 318.483L135.836 318.468L135.298 318.285L135.309 318.288ZM135.437 320.444L135.377 320.698L134.774 320.556L134.821 320.354L135.384 320.431L135.447 320.446L135.437 320.444ZM135.367 319.32C135.46 318.928 135.552 318.535 135.632 318.151L136.287 318.306C136.187 318.685 136.094 319.077 136.002 319.469L135.972 319.597C135.877 319.999 135.784 320.391 135.702 320.786L135.046 320.631C135.147 320.252 135.239 319.86 135.332 319.468L135.364 319.33L135.367 319.32ZM136.88 318.446L137.105 318.723L135.92 318.443L135.97 318.231L137.282 318.541L137.15 319.192L136.833 319.117L136.869 318.443L136.88 318.446ZM136.485 319.74L135.66 319.545L135.712 319.323L136.537 319.518L136.485 319.74ZM136.955 320.399L136.781 321.041L135.385 320.711L135.435 320.499L136.704 320.799L136.379 320.946L136.637 320.324L136.955 320.399ZM136.406 319.554L136.544 319.206L136.766 319.258L136.573 320.074L136.351 320.022L136.388 319.628L136.406 319.554Z" fill="black"/>
<path d="M140.024 321.258C140.071 321.057 139.996 320.949 139.788 320.788L139.647 320.677C139.25 320.371 139.049 320.088 139.149 319.664C139.257 319.208 139.681 319.018 140.253 319.153C140.517 319.215 140.764 319.352 140.916 319.511L140.759 320.033L140.41 319.951L140.45 319.356L140.732 319.534L140.687 319.725C140.521 319.529 140.401 319.423 140.2 319.375C139.988 319.325 139.776 319.421 139.729 319.622C139.681 319.823 139.772 319.957 139.972 320.105L140.132 320.232C140.558 320.556 140.709 320.815 140.619 321.197C140.514 321.642 140.1 321.88 139.455 321.728C139.169 321.66 138.867 321.522 138.688 321.334L138.842 320.778L139.191 320.86L139.141 321.497L138.878 321.334L138.92 321.154C139.134 321.339 139.264 321.448 139.507 321.505C139.772 321.568 139.957 321.444 140.005 321.242L140.024 321.258Z" fill="black"/>
<path d="M141.571 319.767L141.618 319.565L142.845 319.855L142.798 320.056L142.224 319.977L142.119 319.952L141.571 319.767ZM142.547 322.112C142.885 322.192 143.139 322.016 143.274 321.444L143.607 320.035L143.85 320.092L143.517 321.502C143.33 322.296 142.879 322.548 142.255 322.401C141.695 322.269 141.358 321.898 141.53 321.167L141.628 320.754C141.716 320.383 141.806 320.001 141.885 319.617L142.541 319.772C142.443 320.14 142.353 320.522 142.263 320.903L142.195 321.19C142.06 321.762 142.19 322.016 142.549 322.101L142.547 322.112ZM143.615 320.283L143.221 320.156L143.268 319.955L144.167 320.167L144.12 320.368L143.721 320.308L143.615 320.283Z" fill="black"/>
<path d="M146.306 323.121C146.007 323.207 145.735 323.221 145.397 323.142C144.625 322.959 144.211 322.347 144.406 321.52C144.601 320.694 145.211 320.334 146.057 320.534C146.3 320.591 146.552 320.707 146.747 320.876L146.609 321.459L146.334 321.394L146.347 320.77L146.599 320.886L146.552 321.087C146.407 320.896 146.261 320.806 146.091 320.766C145.679 320.668 145.26 320.928 145.083 321.68C144.905 322.433 145.151 322.86 145.574 322.96C145.732 322.997 145.848 322.98 146.027 322.932L145.684 323.109L145.751 322.822C145.824 322.515 145.891 322.229 145.953 321.919L146.577 322.066C146.505 322.374 146.435 322.67 146.362 322.978L146.325 323.137L146.306 323.121ZM145.57 322.03L145.617 321.829L146.76 322.098L146.712 322.3L146.253 322.258L146.01 322.201L145.57 322.03Z" fill="black"/>
<path d="M146.921 323.21L147.325 323.25L147.389 323.265L147.736 323.402L147.688 323.604L146.874 323.412L146.921 323.21ZM148.528 321.184L148.919 321.276L149.18 323.956L148.534 323.804L148.367 321.627L148.55 321.469L147.308 323.514L147.085 323.461L148.517 321.181L148.528 321.184ZM147.76 322.636L148.776 322.876L148.808 323.118L147.644 322.844L147.76 322.636ZM148.22 323.528L148.655 323.575L148.909 323.635L149.383 323.802L149.338 323.993L148.175 323.719L148.22 323.528Z" fill="black"/>
<path d="M150.455 321.863L150.503 321.662L151.106 321.804L151.046 322.058L150.982 322.043L150.445 321.86L150.455 321.863ZM150.646 324.034L151.184 324.217L151.136 324.418L149.93 324.133L149.978 323.932L150.54 324.009L150.657 324.036L150.646 324.034ZM150.524 322.897C150.616 322.505 150.709 322.113 150.788 321.729L151.433 321.881C151.333 322.26 151.24 322.652 151.145 323.055L151.118 323.172C151.023 323.574 150.93 323.967 150.851 324.351L150.205 324.198C150.306 323.819 150.399 323.427 150.491 323.035L150.524 322.897ZM150.851 322.93L151.295 323.035C151.665 323.122 151.834 322.927 151.892 322.683C151.964 322.376 151.828 322.198 151.521 322.126L151.056 322.016L151.108 321.793L151.722 321.938C152.314 322.078 152.587 322.388 152.494 322.78C152.427 323.067 152.145 323.313 151.471 323.188L151.481 323.146C152.069 323.307 152.182 323.535 152.151 323.952L152.108 324.558L151.846 324.295L152.392 324.491L152.345 324.692C152.155 324.692 152.089 324.688 151.92 324.648C151.602 324.573 151.434 324.432 151.46 324.136L151.488 323.684C151.506 323.42 151.449 323.283 151.216 323.228L150.782 323.126L150.832 322.914L150.851 322.93Z" fill="black"/>
<path d="M154.881 324.922L154.836 325.113L154.57 325.106L154.837 324.543L155.122 324.61L154.985 325.193C154.735 325.257 154.453 325.269 154.136 325.194C153.416 325.024 152.924 324.461 153.132 323.581C153.339 322.701 154.063 322.425 154.772 322.592C155.058 322.659 155.275 322.778 155.468 322.957L155.33 323.54L155.055 323.475L155.068 322.852L155.307 322.975L155.257 323.187C155.115 322.986 154.984 322.877 154.815 322.837C154.413 322.742 153.986 322.988 153.804 323.762C153.621 324.536 153.885 324.933 154.286 325.028C154.477 325.073 154.674 325.041 154.886 324.946L154.881 324.922Z" fill="black"/>
<path d="M155.531 325.243L155.935 325.283L155.998 325.298L156.345 325.436L156.298 325.637L155.484 325.445L155.531 325.243ZM157.137 323.217L157.528 323.309L157.789 325.989L157.144 325.837L156.977 323.66L157.159 323.502L155.917 325.547L155.695 325.495L157.127 323.214L157.137 323.217ZM156.37 324.669L157.385 324.909L157.417 325.152L156.254 324.877L156.37 324.669ZM156.83 325.561L157.265 325.608L157.519 325.668L157.993 325.836L157.948 326.026L156.784 325.752L156.83 325.561Z" fill="black"/>
<path d="M158.567 325.959L158.981 326.001L159.087 326.026L159.561 326.194L159.513 326.395L158.519 326.16L158.567 325.959ZM159.273 323.866L159.47 324.024L159.065 323.895L159.113 323.694L159.959 323.893L160.875 326.068L160.727 326.693L160.41 326.618L159.273 323.866ZM159.432 323.758L159.628 324.017L159.093 326.285L158.849 326.227L159.435 323.747L159.432 323.758ZM160.638 324.043L161.632 324.277L161.585 324.479L161.192 324.442L161.086 324.417L160.591 324.244L160.638 324.043ZM161.072 324.145L161.315 324.202L160.73 326.682L160.544 326.381L161.072 324.145Z" fill="black"/>
<path d="M162.196 324.634L162.243 324.432L162.846 324.574L162.786 324.829L162.723 324.814L162.185 324.631L162.196 324.634ZM162.323 326.789L162.263 327.044L161.66 326.902L161.708 326.7L162.27 326.777L162.334 326.792L162.323 326.789ZM162.254 325.665C162.346 325.273 162.439 324.881 162.518 324.497L163.174 324.652C163.073 325.031 162.981 325.423 162.888 325.815L162.858 325.942C162.763 326.345 162.671 326.737 162.589 327.132L161.933 326.977C162.034 326.598 162.126 326.206 162.219 325.814L162.251 325.676L162.254 325.665ZM163.766 324.792L163.991 325.069L162.807 324.789L162.857 324.577L164.168 324.887L164.037 325.538L163.72 325.463L163.756 324.789L163.766 324.792ZM163.372 326.086L162.547 325.891L162.599 325.669L163.424 325.863L163.372 326.086ZM163.841 326.745L163.668 327.386L162.271 327.057L162.321 326.845L163.591 327.145L163.266 327.292L163.524 326.67L163.841 326.745ZM163.293 325.899L163.431 325.552L163.653 325.604L163.46 326.42L163.238 326.368L163.275 325.974L163.293 325.899Z" fill="black"/>
<path d="M84.3416 323.892L84.8642 321.867L84.1198 321.994L85.0936 323.734C85.2582 324.03 85.6342 323.951 85.8025 323.711L86.2607 323.047L85.9206 323.258C86.6145 323.298 87.2066 323.628 87.6092 324.193C87.7005 324.327 87.9077 324.443 88.0702 324.369C89.1816 323.871 88.1906 322.44 87.3682 323.275C87.1756 323.476 87.2506 323.773 87.4633 323.913C88.375 324.497 89.76 326.435 91.0098 325.209C91.7076 324.523 91.0906 323.068 90.0746 323.399C89.8828 323.455 89.8005 323.614 89.7897 323.802C89.7437 324.328 89.8869 324.809 90.1982 325.241C90.3001 325.377 90.4861 325.488 90.6592 325.417C91.8366 324.923 92.5746 323.877 92.6427 322.595L91.8311 322.628C91.8533 323.338 91.8861 324.05 91.9058 324.771C91.9112 324.985 92.1089 325.188 92.3273 325.162C92.8433 325.104 93.2114 324.822 93.3234 324.3C93.411 323.929 92.8874 323.593 92.6306 323.924C91.9743 324.765 92.2695 326.211 93.4013 326.478C94.533 326.745 95.441 325.594 95.2325 324.538L94.5655 324.951C95.3649 325.823 96.6024 326.115 97.7013 325.669C98.1838 325.47 97.9551 324.688 97.462 324.885C96.6121 325.222 95.7423 325.028 95.1195 324.355C94.8174 324.026 94.3794 324.415 94.4525 324.768C94.5478 325.216 94.0754 325.798 93.5808 325.67C93.0862 325.542 92.9245 324.855 93.215 324.476L92.5221 324.1L92.2984 324.338L92.7199 324.728C92.6977 324.018 92.6649 323.306 92.6452 322.585C92.6252 322.054 91.856 322.097 91.8336 322.617C91.7921 323.502 91.2511 324.281 90.4329 324.625L90.8939 324.801C90.6472 324.474 90.5747 324.166 90.6038 323.759L90.3189 324.162C90.4539 324.205 90.521 324.299 90.5097 324.442C90.4254 324.657 90.2685 324.754 90.0544 324.715C89.7333 324.751 89.3739 324.476 89.15 324.289C88.7129 323.917 88.3568 323.486 87.8599 323.178L87.955 323.816L87.8358 323.564L88.2968 323.74C87.8942 323.175 87.3694 322.749 86.6944 322.534C86.4536 322.466 86.038 322.335 85.7809 322.43C85.474 322.548 85.2562 323.045 85.0879 323.285L85.7968 323.262L84.8229 321.522C84.6422 321.199 84.1691 321.312 84.0784 321.648L83.5559 323.673C83.4252 324.179 84.2185 324.366 84.3491 323.86L84.3416 323.892Z" fill="black"/>
<path d="M109.431 328.863C112.652 329.645 115.873 330.428 119.094 331.21C119.613 331.333 119.782 330.567 119.282 330.416C116.098 329.429 112.741 329.129 109.429 329.533C108.958 329.59 108.921 330.174 109.35 330.343C112.386 331.484 115.505 332.366 118.687 332.983C119.2 333.081 119.393 332.31 118.875 332.188C116.574 331.623 114.284 331.06 111.983 330.494L112.246 331.082C113.196 329.471 114.603 328.193 116.312 327.432L115.805 327.167C116.408 329.156 114.753 331.059 112.955 331.675C110.624 332.467 108.058 331.559 105.834 330.811L105.646 331.606C110.394 332.446 115.24 332.639 120.045 332.151C120.561 332.094 120.54 331.283 120.013 331.338C115.279 331.809 110.519 331.637 105.834 330.811C105.308 330.72 105.151 331.433 105.646 331.606C108.201 332.466 111.209 333.444 113.803 332.199C115.742 331.269 117.243 329.118 116.577 326.924C116.522 326.732 116.272 326.561 116.071 326.659C114.16 327.517 112.595 328.893 111.532 330.701C111.398 330.938 111.552 331.232 111.795 331.289C114.096 331.855 116.386 332.417 118.687 332.983L118.875 332.188C115.693 331.571 112.571 330.7 109.538 329.548L109.458 330.357C112.714 329.951 115.971 330.25 119.092 331.221L119.279 330.426C116.058 329.644 112.837 328.861 109.616 328.078C109.109 327.959 108.921 328.753 109.429 328.873L109.431 328.863Z" fill="black"/>
<path d="M127.924 335.005L128.128 333.196L127.34 333.223C127.388 333.492 127.444 333.773 127.493 334.042C127.535 334.242 127.811 334.397 128 334.307C129.887 333.5 131.945 333.583 133.745 334.567C134.14 334.783 134.589 334.207 134.224 333.908C133.148 333.072 131.813 332.958 130.63 333.664C130.513 333.737 130.433 333.886 130.435 334.02C130.513 335.247 131.49 336.362 132.779 336.341C134.068 336.321 134.997 335.176 135.042 333.944L134.239 334.079C134.541 334.743 134.829 335.416 135.13 336.08C135.208 336.266 135.411 336.448 135.637 336.345C136.381 336.028 136.86 335.515 137.069 334.725L136.682 335.036C137.605 335.008 138.312 335.466 138.712 336.276C138.864 336.581 139.255 336.483 139.421 336.253C140.544 334.616 142.294 336.808 142.901 337.735L143.525 337.222C143.046 336.695 142.581 336.16 142.102 335.633C141.819 335.32 141.309 335.681 141.435 336.046C142.111 338.197 145.036 338.105 145.567 335.903L144.759 335.824L144.825 337.629C144.838 338.046 145.374 338.14 145.586 337.809C145.902 337.324 146.206 336.837 146.522 336.352L146.071 336.559C147.161 336.671 147.222 337.927 146.144 338.142C145.629 338.244 145.87 339.017 146.383 338.926C148.232 338.568 148.144 335.963 146.259 335.764C146.063 335.74 145.916 335.795 145.808 335.971C145.492 336.456 145.188 336.943 144.872 337.428L145.634 337.608L145.568 335.802C145.555 335.34 144.868 335.268 144.761 335.724C144.431 337.122 142.639 337.192 142.205 335.814L141.538 336.227C142.016 336.754 142.482 337.289 142.96 337.816C143.271 338.158 143.839 337.688 143.584 337.303C142.968 336.363 142.23 335.283 141.069 334.998C140.138 334.778 139.243 335.07 138.699 335.859L139.408 335.836C138.87 334.758 137.834 334.178 136.653 334.213C136.474 334.215 136.318 334.357 136.267 334.524C136.128 335.018 135.872 335.348 135.389 335.548L135.896 335.813C135.595 335.149 135.307 334.477 135.006 333.813C134.824 333.401 134.229 333.462 134.204 333.948C134.131 335.911 131.347 335.925 131.227 333.973L131.032 334.329C131.877 333.824 132.861 333.866 133.633 334.473L134.112 333.814C132.137 332.722 129.823 332.589 127.736 333.484L128.243 333.749C128.195 333.481 128.138 333.199 128.09 332.93C128.014 332.543 127.35 332.565 127.302 332.957L127.099 334.766C127.044 335.279 127.835 335.477 127.892 334.953L127.924 335.005Z" fill="black"/>
<path d="M70.4724 329.713C76.7834 331.975 83.2138 333.873 89.7423 335.403C90.25 335.523 90.4376 334.728 89.9299 334.608C83.4039 333.068 76.9711 331.18 70.66 328.919C70.1648 328.746 69.9772 329.541 70.4724 329.713Z" fill="black"/>
<path d="M99.7293 337.325C106.563 339.453 113.576 340.918 120.694 341.703C121.206 341.757 121.404 340.964 120.881 340.908C113.764 340.123 106.751 338.658 99.9169 336.53C99.4167 336.379 99.2291 337.174 99.7293 337.325Z" fill="black"/>
<path d="M96.6284 347.009C103.695 348.956 110.856 350.501 118.091 351.638C118.609 351.716 118.797 350.921 118.279 350.843C111.046 349.696 103.885 348.151 96.816 346.214C96.3133 346.073 96.1257 346.868 96.6284 347.009Z" fill="black"/>
<path d="M133.129 343.798C139.508 345.538 145.973 346.908 152.521 347.883C153.039 347.96 153.227 347.165 152.709 347.088C146.172 346.115 139.693 344.754 133.317 343.003C132.814 342.862 132.627 343.657 133.129 343.798Z" fill="black"/>
<path d="M129.765 354.551C136.514 355.338 143.215 356.562 149.803 358.218C150.311 358.338 150.496 357.553 149.991 357.423C143.392 355.765 136.704 354.533 129.953 353.756C129.441 353.703 129.242 354.495 129.765 354.551Z" fill="black"/>
<path d="M101.676 345.682C103.289 344.62 105.062 343.919 106.961 343.585L106.549 342.917C105.948 343.524 105.164 343.82 104.308 343.708L104.571 344.296C104.808 343.815 105.662 343.602 106.019 344.123C106.422 344.733 105.619 345.438 105.029 345.288L105.34 345.675C105.387 344.768 106.647 344.819 106.662 345.752C106.662 345.987 106.95 346.234 107.189 346.122C107.563 345.953 107.936 345.795 108.311 345.626L107.804 345.361C107.935 345.75 108.059 346.126 108.19 346.515C108.259 346.744 108.474 346.828 108.697 346.78C110.054 346.519 111.34 346.274 112.549 345.552C113.642 344.893 114.535 343.996 115.212 342.925L114.455 342.634C113.823 344.365 113.194 346.085 112.562 347.815C112.404 348.248 113.114 348.505 113.32 348.106C113.862 347.037 115.213 346.707 116.21 347.356C116.646 347.638 117.038 346.925 116.602 346.643C115.246 345.764 113.346 346.289 112.606 347.725L113.363 348.016C113.995 346.285 114.624 344.565 115.256 342.835C115.419 342.381 114.728 342.184 114.498 342.544C113.844 343.564 112.977 344.4 111.925 344.98C110.872 345.559 109.66 345.777 108.466 346.009L108.973 346.275C108.841 345.885 108.718 345.51 108.586 345.12C108.521 344.926 108.281 344.758 108.079 344.855C107.705 345.024 107.332 345.183 106.957 345.351L107.484 345.722C107.464 343.726 104.648 343.732 104.539 345.709C104.531 345.886 104.694 346.048 104.85 346.096C106.069 346.417 107.396 345.052 106.79 343.835C106.184 342.618 104.41 342.803 103.868 343.917C103.76 344.138 103.859 344.475 104.131 344.505C105.28 344.653 106.332 344.309 107.142 343.482C107.451 343.163 107.103 342.745 106.73 342.814C104.762 343.155 102.913 343.893 101.258 344.991C100.822 345.279 101.25 345.973 101.686 345.685L101.676 345.682Z" fill="black"/>
<path d="M56.6463 346.803C61.3942 345.138 64.9425 340.986 65.8045 336.009C65.8759 335.612 65.4138 335.346 65.1116 335.633C63.3092 337.355 61.7897 339.346 60.6396 341.57C59.631 343.525 58.5915 345.942 58.4695 348.162C58.4047 349.288 59.1082 350.707 60.4116 349.963C61.3408 349.433 62.0244 348.05 62.649 347.202C63.5795 345.956 64.502 344.697 65.4326 343.451C65.7436 343.032 65.2469 342.534 64.8401 342.886C63.4242 344.107 62.8962 345.918 63.3541 347.715C63.4235 347.989 63.7327 348.051 63.9581 347.947C65.2602 347.304 66.5622 346.66 67.8749 346.019L67.3634 345.395C65.9512 347.12 65.9832 349.634 67.3186 351.403C68.7826 353.338 71.3919 353.495 73.3258 352.161C75.1943 350.868 76.0068 348.419 74.821 346.394C73.6353 344.369 71.2428 343.435 69.1011 344.182C68.9436 344.235 68.7903 344.411 68.8162 344.585C68.9342 345.362 69.0441 346.127 69.1621 346.904C69.1967 347.136 69.4267 347.392 69.6888 347.275C70.4752 346.923 70.375 346.922 71.045 347.159C71.5508 347.334 72.015 347.354 72.5374 347.175C73.4482 346.864 74.0553 346.09 73.9848 345.111C73.9596 344.792 73.5137 344.553 73.2775 344.844C72.8468 345.391 72.4056 345.936 71.9749 346.483C71.7362 346.785 71.92 347.141 72.2816 347.171C79.4054 347.834 86.49 344.169 90.1526 338.019L89.3949 337.728C88.4378 340.411 87.4832 343.083 86.5261 345.767C86.4549 345.973 86.6345 346.206 86.833 346.264C88.2372 346.607 89.3436 345.089 88.6766 343.846C88.5605 343.629 88.1934 343.576 88.0326 343.784C87.716 344.179 87.3994 344.574 87.0828 344.969C86.8908 345.215 87.0079 345.712 87.3894 345.657C88.8235 345.447 90.0825 344.939 91.2392 344.059C91.649 343.742 91.2316 343.051 90.8112 343.365L88.3153 345.283C87.9602 345.557 88.1786 346.145 88.6436 346.02C91.5627 345.243 94.4712 344.464 97.3902 343.688C97.9025 343.551 97.6632 342.767 97.1509 342.904L88.4043 345.236L88.7327 345.974C89.5655 345.331 90.3958 344.7 91.2286 344.057L90.8006 343.363C89.7747 344.161 88.6421 344.655 87.358 344.844L87.6646 345.532C87.9812 345.137 88.2978 344.741 88.6144 344.346L87.9704 344.284C88.1418 345.119 87.8146 345.511 87.0075 345.477L87.3144 345.975C88.2715 343.292 89.2261 340.619 90.1832 337.936C90.3461 337.482 89.65 337.262 89.4255 337.646C85.905 343.572 79.0865 347.009 72.2477 346.368L72.5543 347.056C72.985 346.509 73.4262 345.964 73.8569 345.417L73.1496 345.149C73.2379 346.289 71.7274 346.917 70.9628 346.087C70.8746 345.988 70.6842 345.943 70.5609 345.993L69.4283 346.486L69.955 346.857C69.837 346.079 69.7271 345.315 69.6091 344.537L69.3243 344.94C73.2559 343.563 76.5583 348.874 72.8817 351.441C71.2772 352.561 69.1091 352.475 67.8912 350.822C66.8448 349.389 66.7974 347.32 67.9291 345.931C68.2276 345.565 67.8367 345.092 67.4176 345.307C66.1156 345.95 64.8135 346.594 63.5009 347.235L64.1049 347.467C63.719 345.933 64.2222 344.463 65.4009 343.443L64.8084 342.878C63.6266 344.479 62.4449 346.08 61.255 347.667C60.8767 348.182 59.5439 350.139 59.2533 348.437C59.1136 347.609 59.5841 346.467 59.8271 345.674C60.8961 342.044 62.9585 338.794 65.6854 336.182L64.9925 335.806C64.1744 340.502 60.879 344.435 56.3858 346.015C55.8871 346.188 56.1264 346.972 56.6251 346.798L56.6463 346.803Z" fill="black"/>
<path d="M108.861 355.077C107.862 355.568 106.972 356.265 106.237 357.109C105.946 357.443 106.262 357.854 106.649 357.777C107.185 357.68 107.709 357.591 108.246 357.494C108.677 357.417 109.151 357.394 109.552 357.209C109.914 357.048 110.189 356.733 110.166 356.313C110.142 355.894 109.829 355.563 109.405 355.563C109.236 355.568 109.058 355.705 109.018 355.875C108.662 357.67 108.307 359.455 107.951 361.251C107.852 361.764 108.645 361.951 108.744 361.438C109.101 359.642 109.455 357.857 109.812 356.062L109.426 356.374C109.351 356.311 109.322 356.293 109.335 356.33C109.341 356.354 109.338 356.364 109.325 356.372C109.226 356.416 109.158 356.467 109.05 356.498C108.777 356.567 108.5 356.603 108.222 356.649C107.617 356.752 107.009 356.866 106.393 356.967L106.805 357.635C107.496 356.836 108.316 356.201 109.264 355.732C109.733 355.495 109.305 354.801 108.836 355.037L108.861 355.077Z" fill="black"/>
<path d="M111.103 356.601C111.103 356.836 110.971 357.063 110.845 357.268C110.7 357.502 110.547 357.723 110.443 357.978C110.233 358.488 110.22 359.112 110.676 359.499C111.102 359.868 111.732 359.849 112.06 359.356C112.345 358.908 112.221 358.297 112.136 357.807C112.03 357.212 111.862 356.646 111.626 356.087C111.539 355.887 111.348 355.753 111.119 355.822C110.927 355.877 110.757 356.128 110.854 356.33C111.025 356.74 111.173 357.155 111.271 357.592C111.323 357.795 111.355 357.992 111.387 358.19C111.396 358.293 111.407 358.385 111.417 358.488C111.417 358.533 111.42 358.567 111.421 358.612C111.416 358.633 111.411 358.654 111.416 358.678C111.416 358.678 111.415 358.778 111.417 358.723C111.407 358.765 111.397 358.808 111.387 358.85C111.369 358.924 111.392 358.829 111.374 358.903C111.374 358.903 111.338 358.962 111.369 358.924C111.388 358.895 111.364 358.945 111.354 358.943C111.354 358.943 111.299 358.986 111.338 358.962C111.341 358.951 111.341 358.951 111.338 358.962C111.315 358.967 111.315 358.967 111.338 358.962L111.349 358.964C111.349 358.964 111.307 358.954 111.338 358.962C111.375 358.948 111.338 358.962 111.328 358.959C111.396 358.953 111.349 358.964 111.307 358.954C111.37 358.969 111.317 358.957 111.275 358.947C111.275 358.947 111.216 358.911 111.254 358.942C111.291 358.973 111.235 358.926 111.227 358.913C111.208 358.897 111.139 358.814 111.182 358.869C111.155 358.84 111.141 358.803 111.125 358.777C111.155 358.84 111.128 358.766 111.111 358.74C111.111 358.74 111.103 358.682 111.106 358.717C111.101 358.738 111.108 358.661 111.11 358.651C111.103 358.492 111.193 358.301 111.288 358.133C111.564 357.628 111.912 357.195 111.92 356.593C111.928 356.371 111.712 356.197 111.498 356.202C111.272 356.216 111.105 356.401 111.108 356.625L111.103 356.601Z" fill="black"/>
<path d="M114.84 354.44L114.162 357.927C114.112 358.139 114.247 358.372 114.469 358.425C114.68 358.475 114.913 358.34 114.966 358.117L115.644 354.63C115.694 354.418 115.559 354.184 115.337 354.132C115.125 354.082 114.892 354.217 114.84 354.44Z" fill="black"/>
<path d="M113.591 356.607C114.099 356.727 114.287 355.932 113.779 355.813C113.271 355.693 113.084 356.488 113.591 356.607Z" fill="black"/>
<path d="M117.069 357.863C117.576 357.983 117.764 357.188 117.256 357.068C116.749 356.949 116.561 357.743 117.069 357.863Z" fill="black"/>
<path d="M131.499 359.837C131.735 359.591 132.162 359.11 132.52 359.34C132.619 359.397 132.635 359.468 132.55 359.593C132.384 359.823 132.085 359.954 131.85 360.099C130.715 360.794 129.579 361.488 128.442 362.193C127.997 362.468 128.425 363.162 128.87 362.887C129.589 362.441 130.319 361.998 131.038 361.552C131.404 361.326 131.757 361.107 132.124 360.88C132.45 360.677 132.817 360.495 133.075 360.209C133.332 359.923 133.475 359.554 133.362 359.181C133.26 358.855 132.989 358.634 132.676 358.538C131.962 358.302 131.354 358.796 130.893 359.281C130.524 359.663 131.119 360.218 131.486 359.846L131.499 359.837Z" fill="black"/>
<path d="M135.384 359.603C134.906 359.736 134.394 359.873 133.986 360.179C133.563 360.505 133.297 360.923 133.27 361.465C133.239 361.927 133.45 362.402 133.854 362.632C134.353 362.929 134.968 362.738 135.369 362.363C135.898 361.872 135.936 361.098 135.951 360.419C135.956 360.208 135.735 360.01 135.529 360.029C135.3 360.053 135.136 360.227 135.139 360.451C135.142 360.676 135.129 360.919 135.095 361.112C135.061 361.35 135.002 361.504 134.891 361.691C134.93 361.622 134.847 361.736 134.834 361.744C134.821 361.752 134.805 361.771 134.792 361.779C134.792 361.779 134.722 361.841 134.764 361.806C134.805 361.771 134.737 361.822 134.735 361.833C134.722 361.841 134.706 361.86 134.693 361.868C134.667 361.884 134.654 361.892 134.628 361.908C134.562 361.949 134.649 361.913 134.604 361.914C134.559 361.915 134.52 361.939 134.483 361.953C134.415 361.959 134.46 361.958 134.483 361.953C134.462 361.948 134.449 361.956 134.428 361.951C134.407 361.946 134.386 361.941 134.362 361.946C134.317 361.947 134.373 361.949 134.383 361.951C134.362 361.946 134.33 361.939 134.309 361.934C134.235 361.916 134.328 361.949 134.309 361.934C134.29 361.918 134.251 361.898 134.221 361.88C134.29 361.918 134.243 361.885 134.203 361.864C134.128 361.802 134.227 361.903 134.184 361.848C134.176 361.835 134.157 361.82 134.152 361.796C134.152 361.796 134.106 361.707 134.136 361.77C134.157 361.82 134.125 361.722 134.116 361.709C134.111 361.686 134.083 361.567 134.103 361.672C134.089 361.591 134.093 361.525 134.089 361.446C134.091 361.345 134.079 361.488 134.097 361.414C134.107 361.371 134.117 361.329 134.124 361.297C134.129 361.276 134.165 361.172 134.139 361.234C134.144 361.212 134.152 361.181 134.178 361.164C134.186 361.133 134.214 361.106 134.232 361.077C134.194 361.146 134.204 361.103 134.23 361.087C134.256 361.071 134.261 361.05 134.277 361.031C134.308 360.994 134.336 360.967 134.367 360.929C134.367 360.929 134.438 360.868 134.396 360.903C134.368 360.929 134.451 360.86 134.448 360.87C134.529 360.811 134.621 360.754 134.71 360.708C134.736 360.692 134.76 360.686 134.786 360.67C134.736 360.692 134.786 360.67 134.812 360.654C134.862 360.632 134.912 360.61 134.959 360.599C135.18 360.517 135.395 360.456 135.621 360.397C135.823 360.344 135.962 360.086 135.886 359.889C135.815 359.671 135.594 359.563 135.379 359.624L135.384 359.603Z" fill="black"/>
<path d="M139.724 360.044C138.799 359.893 137.844 360.674 137.981 361.658C138.095 362.546 139.086 363.127 139.925 362.833C140.156 362.753 140.238 362.548 140.19 362.325C140.059 361.555 138.709 361.93 139.001 362.682C139.085 362.892 139.279 363.016 139.508 362.947C141.052 362.506 142.147 361.131 142.298 359.544L141.487 359.576C141.401 360.462 140.528 361.084 140.405 361.984C140.306 362.687 140.638 363.504 141.414 363.62C142.075 363.709 142.816 363.168 142.573 362.45C142.373 361.877 141.547 361.593 141.118 362.085C140.921 362.307 141.007 362.696 141.316 362.758C142.625 363.033 143.977 362.983 145.269 362.617C145.773 362.467 145.532 361.694 145.03 361.833C143.879 362.166 142.675 362.206 141.504 361.963L141.702 362.637C141.729 362.665 141.776 362.654 141.798 362.704C141.814 362.73 141.773 362.765 141.689 362.79C141.311 362.925 141.172 362.422 141.203 362.15C141.242 361.7 141.559 361.305 141.778 360.943C142.05 360.503 142.252 360.07 142.298 359.544C142.317 359.324 142.08 359.145 141.877 359.154C141.629 359.162 141.505 359.357 141.487 359.576C141.365 360.801 140.437 361.846 139.268 362.163L139.775 362.428C139.906 362.772 139.444 362.741 139.41 362.554L139.675 362.046C139.324 362.165 138.876 361.981 138.789 361.591C138.697 361.178 139.137 360.778 139.536 360.839C140.054 360.916 140.242 360.121 139.724 360.044Z" fill="black"/>
<path d="M135.421 350.269C136.38 349.992 137.126 349.385 137.581 348.497L136.829 348.42C136.974 349.081 137.107 349.75 137.252 350.411C137.292 350.621 137.563 350.752 137.759 350.676C138.77 350.321 139.454 349.599 139.752 348.573C139.815 348.353 139.654 348.136 139.445 348.075C138.456 347.819 137.602 348.882 138.007 349.817C138.607 351.2 140.293 350.871 141.403 350.473L141.163 349.689C140.838 349.836 140.526 349.975 140.201 350.122C139.876 350.269 139.775 350.838 140.227 350.912C144.178 351.486 148.138 352.074 152.089 352.648C152.607 352.726 152.794 351.931 152.277 351.853C148.325 351.279 144.366 350.691 140.415 350.117L140.441 350.906C140.766 350.759 141.078 350.62 141.403 350.473C141.864 350.269 141.675 349.508 141.163 349.689C140.688 349.857 140.18 350.072 139.668 350.019C139.448 350 139.19 349.962 139.027 349.8C138.837 349.61 138.488 348.677 139.247 348.868L138.94 348.37C138.72 349.112 138.231 349.624 137.501 349.877L138.008 350.142C137.863 349.481 137.73 348.812 137.585 348.151C137.509 347.809 136.992 347.776 136.832 348.074C136.475 348.784 135.919 349.246 135.144 349.454C134.643 349.593 134.882 350.377 135.384 350.238L135.421 350.269Z" fill="black"/>
<path d="M148.444 370.316C146.299 368.142 146.474 364.659 147.566 362.019C148.658 359.379 150.991 356.73 154.018 356.158C156.659 355.662 159.798 356.84 160.974 359.377C162.474 362.629 160.443 366.122 158.035 368.283C155.559 370.496 150.637 373.418 147.927 369.903C147.611 369.492 146.907 369.919 147.234 370.332C149.729 373.573 154.065 372.235 156.884 370.227C159.891 368.083 162.731 364.804 162.214 360.845C161.784 357.51 158.788 355.393 155.565 355.236C152.107 355.08 149.107 357.427 147.473 360.33C145.684 363.511 145.104 368.095 147.882 370.899C148.25 371.277 148.815 370.683 148.446 370.305L148.444 370.316Z" fill="black"/>
<path d="M154.524 357.373C152.56 362.101 150.598 366.818 148.633 371.546L149.342 371.523L146.593 366.757L146.46 367.318C150.963 364.89 155.862 363.25 160.922 362.486L160.788 361.682C159.497 361.948 158.206 362.214 156.904 362.477C155.86 362.69 154.707 362.798 153.726 363.215C153.141 363.469 152.591 363.91 152.512 364.574C152.446 365.14 152.742 365.825 153.29 366.055C154.083 366.388 154.319 365.716 154.607 365.113C155.084 364.084 155.511 363.033 155.877 361.955C156.665 359.613 157.124 357.192 157.325 354.734C157.371 354.207 156.546 354.248 156.513 354.766C156.252 358.094 155.424 361.367 154.047 364.41C153.929 364.673 153.74 365.568 153.364 364.987C153.044 364.498 153.779 364.078 154.078 363.947C154.697 363.691 155.431 363.607 156.089 363.471C157.732 363.132 159.376 362.792 161.029 362.455C161.476 362.359 161.356 361.593 160.895 361.652C155.685 362.436 150.679 364.107 146.037 366.603C145.843 366.714 145.802 366.984 145.904 367.165L148.654 371.931C148.797 372.177 149.238 372.203 149.363 371.908C151.327 367.181 153.289 362.463 155.254 357.736C155.456 357.258 154.737 356.853 154.542 357.344L154.524 357.373Z" fill="black"/>
<path d="M71.5735 275.185C74.1505 275.289 76.4651 273.005 76.4774 270.446C76.4786 269.92 75.667 269.952 75.6658 270.478C75.6615 272.625 73.6654 274.459 71.5527 274.374C71.033 274.352 71.0645 275.165 71.5841 275.187L71.5735 275.185Z" fill="black"/>
<path d="M75.5256 268.376C74.0208 270.068 73.9987 272.48 75.4207 274.214C75.5251 274.339 75.7864 274.367 75.9117 274.263C76.9201 273.538 77.5092 272.603 77.6675 271.365C77.7321 270.855 77.0073 270.661 76.8742 271.178C76.6529 272.021 76.7074 272.783 77.042 273.59C77.1481 273.85 77.3944 273.941 77.646 273.822C78.3036 273.496 78.3498 272.779 77.8924 272.257C77.732 272.085 77.4743 272.136 77.3204 272.268C76.3866 273.054 73.6266 275.76 75.6344 276.715C77.0402 277.382 78.2248 276.006 77.828 274.659L77.2462 275.137C77.5566 275.289 77.8695 275.43 78.1798 275.581C78.3098 275.645 78.4654 275.648 78.5856 275.565C79.2521 275.107 79.3916 274.469 79.0476 273.75C78.8744 273.395 78.2282 273.579 78.2912 273.974C78.4568 274.975 79.4622 275.873 80.5324 275.454C81.6027 275.035 80.8238 273.699 79.9496 273.571C79.4425 273.496 79.2412 274.254 79.762 274.366C89.4992 276.541 99.2469 278.719 108.987 280.883L109.174 280.088L96.5625 277.839C95.5135 277.647 94.4619 277.466 93.4129 277.274C92.1815 277.051 91.2647 277.103 90.521 276.044C89.2944 274.333 88.4056 272.233 87.3883 270.393C87.31 270.251 87.0768 270.151 86.9273 270.217C84.5308 271.24 84.0979 274.304 85.6727 276.242C87.8876 278.969 91.6969 278.536 94.7501 277.948C95.2655 277.846 95.0237 277.073 94.5108 277.164C92.2282 277.61 89.6736 278.025 87.5566 276.776C85.4395 275.527 84.437 272.157 87.1667 271L86.7057 270.824C87.8417 272.872 88.9409 274.932 90.1055 276.953C90.5881 277.794 90.9318 277.662 91.9279 277.841L95.347 278.447C99.8998 279.264 104.455 280.071 109.008 280.888C109.523 280.976 109.716 280.205 109.195 280.093C99.4582 277.918 89.7104 275.74 79.9707 273.576L79.7831 274.371C79.3573 274.472 79.1421 274.343 79.1345 273.949L78.3781 274.173C78.2767 274.698 78.0351 274.775 77.6534 274.405C77.3325 274.251 76.9644 274.533 77.0716 274.883C75.8955 275.892 75.5382 275.987 76.0027 275.201C76.1337 274.93 76.2964 274.667 76.4567 274.414C76.8706 273.795 77.3678 273.297 77.9365 272.827L77.3646 272.838L77.2547 273.114L77.8588 273.346C77.5708 272.674 77.5235 272.07 77.7017 271.362L76.9084 271.175C76.7841 272.175 76.3513 272.968 75.5179 273.565L76.0089 273.614C74.8734 272.227 74.9485 270.254 76.1312 268.933C76.4795 268.545 75.887 267.98 75.5387 268.368L75.5256 268.376Z" fill="black"/>
<path d="M94.9603 272.089L95.2052 271.856L95.1876 272.545L94.8901 272.576L94.8261 271.901L96.9585 271.666L97.0436 272.346L96.7461 272.376L96.5795 271.71L96.8612 271.889L94.9815 272.094L94.9603 272.089ZM95.6962 272.945C95.6518 272.565 95.618 272.188 95.5606 271.817L96.1923 271.742C96.2181 272.106 96.2624 272.486 96.3068 272.865L96.3216 272.992C96.366 273.372 96.3998 273.749 96.4572 274.121L95.8255 274.195C95.7998 273.831 95.7554 273.451 95.711 273.072L95.6987 272.935L95.6962 272.945ZM96.183 273.91L96.7419 273.908L96.7628 274.103L95.523 274.247L95.502 274.052L96.0305 273.941L96.1911 273.923L96.183 273.91Z" fill="black"/>
<path d="M98.6594 271.698L98.649 271.505L99.7998 271.408L99.8208 271.603L99.2948 271.702L99.1921 271.712L98.6805 271.703L98.6594 271.698ZM99.0137 272.609C98.9799 272.232 98.9567 271.858 98.9123 271.478L99.5496 271.427C99.5623 271.799 99.5961 272.176 99.6274 272.564L99.6341 272.678C99.6629 273.076 99.6967 273.453 99.7411 273.833L99.1037 273.884C99.0911 273.512 99.0573 273.134 99.0235 272.757L99.0112 272.62L99.0137 272.609ZM99.4401 273.594L99.9728 273.608L99.9938 273.803L98.8429 273.901L98.8326 273.708L99.3349 273.614L99.4376 273.605L99.4401 273.594ZM99.3316 272.729L99.3156 272.513L100.704 272.404L100.72 272.62L99.3316 272.729ZM100.071 271.584L100.05 271.388L101.198 271.301L101.219 271.497L100.704 271.599L100.601 271.608L100.079 271.597L100.071 271.584ZM100.402 272.501C100.368 272.124 100.345 271.749 100.3 271.369L100.938 271.318C100.95 271.69 100.984 272.068 101.015 272.455L101.028 272.593C101.061 272.97 101.085 273.344 101.129 273.724L100.492 273.775C100.468 273.4 100.445 273.026 100.406 272.625L100.399 272.511L100.402 272.501ZM100.849 273.49L101.371 273.502L101.392 273.697L100.244 273.784L100.223 273.589L100.738 273.486L100.841 273.477L100.849 273.49Z" fill="black"/>
<path d="M102.944 271.378L102.934 271.185L103.522 271.156L103.53 271.404L103.477 271.392L102.944 271.378ZM103.275 272.295C103.252 271.92 103.231 271.535 103.205 271.171L103.838 271.141C103.85 271.513 103.863 271.886 103.884 272.271L103.888 272.395C103.909 272.78 103.929 273.166 103.953 273.54L103.32 273.57C103.308 273.198 103.295 272.826 103.274 272.44L103.273 272.306L103.275 272.295ZM104.407 271.097L104.686 271.285L103.532 271.349L103.524 271.146L104.791 271.075L104.844 271.703L104.538 271.721L104.396 271.094L104.407 271.097ZM103.633 273.286L103.642 273.534L103.054 273.563L103.044 273.371L103.565 273.292L103.617 273.305L103.633 273.286ZM104.386 272.367L103.582 272.412L103.566 272.196L104.37 272.151L104.386 272.367ZM104.98 272.832L104.988 273.46L103.642 273.534L103.634 273.331L104.856 273.261L104.603 273.481L104.674 272.849L104.98 272.832ZM104.265 272.216L104.303 271.866L104.517 271.861L104.555 272.642L104.342 272.648L104.271 272.284L104.265 272.216Z" fill="black"/>
<path d="M110.068 272.847C110.068 272.657 109.967 272.566 109.744 272.469L109.593 272.4C109.158 272.208 108.908 271.992 108.903 271.588C108.894 271.15 109.249 270.875 109.808 270.873C110.067 270.867 110.318 270.937 110.504 271.048L110.473 271.556L110.139 271.555L110.045 271.007L110.344 271.111L110.346 271.291C110.144 271.154 110.017 271.079 109.827 271.079C109.613 271.084 109.449 271.213 109.457 271.416C109.456 271.607 109.576 271.713 109.789 271.808L109.961 271.882C110.425 272.093 110.625 272.285 110.627 272.655C110.627 273.08 110.307 273.396 109.68 273.405C109.4 273.406 109.102 273.347 108.886 273.217L108.903 272.673L109.241 272.663L109.335 273.256L109.055 273.168L109.052 272.988C109.28 273.109 109.432 273.178 109.669 273.167C109.927 273.161 110.073 273.016 110.065 272.813L110.068 272.847Z" fill="black"/>
<path d="M112.324 271.141L112.327 270.94L112.915 270.956L112.913 271.202L112.86 271.189L112.327 271.131L112.324 271.141ZM112.581 272.086C112.592 271.708 112.603 271.33 112.593 270.947L113.226 270.962C113.207 271.327 113.196 271.705 113.193 272.096L113.185 272.318C113.181 272.619 113.173 272.986 113.172 273.366L112.539 273.351C112.559 272.987 112.57 272.609 112.572 272.218L112.571 272.083L112.581 272.086ZM112.977 273.108L113.507 273.177L113.505 273.378L112.284 273.347L112.286 273.146L112.821 273.105L112.987 273.11L112.977 273.108ZM113.29 272.443L112.878 272.436L112.881 272.235L113.292 272.242C113.614 272.251 113.778 272.032 113.789 271.7C113.801 271.367 113.619 271.19 113.308 271.183L112.907 271.178L112.912 270.967L113.313 270.972C114.067 270.993 114.369 271.277 114.354 271.721C114.346 272.133 114.065 272.47 113.277 272.451L113.29 272.443Z" fill="black"/>
<path d="M116.046 271.271L116.059 271.072L117.228 271.136L117.214 271.334L116.674 271.352L116.563 271.348L116.038 271.258L116.046 271.271ZM116.269 272.218C116.29 271.843 116.312 271.468 116.323 271.09L116.951 271.126C116.921 271.489 116.897 271.874 116.875 272.25L116.866 272.382C116.845 272.757 116.821 273.143 116.812 273.51L116.184 273.474C116.214 273.112 116.238 272.726 116.262 272.34L116.271 272.208L116.269 272.218ZM116.561 273.25L117.1 273.332L117.087 273.53L115.918 273.467L115.931 273.269L116.461 273.248L116.572 273.252L116.561 273.25Z" fill="black"/>
<path d="M118.969 271.469L118.993 271.273L119.571 271.332L119.545 271.583L119.492 271.57L118.969 271.469ZM119.155 272.431C119.198 272.06 119.233 271.677 119.254 271.302L119.875 271.37C119.832 271.74 119.789 272.11 119.752 272.504L119.727 272.61C119.703 272.996 119.668 273.38 119.636 273.752L119.013 273.695C119.066 273.327 119.099 272.954 119.133 272.571L119.142 272.439L119.155 272.431ZM119.411 273.476L119.929 273.598L119.908 273.783L118.741 273.664L118.765 273.468L119.29 273.469L119.396 273.494L119.411 273.476ZM119.469 272.426L119.894 272.471C120.253 272.511 120.39 272.308 120.411 272.078C120.436 271.782 120.294 271.625 119.999 271.6L119.553 271.551L119.568 271.342L120.157 271.403C120.725 271.458 121.021 271.718 120.978 272.089C120.947 272.361 120.716 272.631 120.075 272.603L120.082 272.571C120.645 272.648 120.777 272.847 120.795 273.243L120.839 273.813L120.557 273.589L121.086 273.714L121.064 273.899C120.891 273.925 120.822 273.932 120.658 273.915C120.352 273.888 120.177 273.779 120.168 273.486L120.147 273.056C120.138 272.808 120.055 272.688 119.836 272.67L119.421 272.628L119.448 272.421L119.469 272.426Z" fill="black"/>
<path d="M122.982 271.923L123.027 271.733L124.171 271.902L124.126 272.093L123.596 272.068L123.49 272.043L122.972 271.921L122.982 271.923ZM123.319 273.95L123.848 274.075L123.811 274.278L122.646 274.104L122.691 273.913L123.211 273.935L123.316 273.96L123.319 273.95ZM123.121 272.896C123.174 272.528 123.23 272.15 123.283 271.782L123.909 271.874C123.846 272.239 123.782 272.604 123.723 272.993L123.693 273.121C123.648 273.502 123.595 273.869 123.539 274.248L122.913 274.156C122.977 273.791 123.041 273.425 123.097 273.047L123.127 272.92L123.121 272.896Z" fill="black"/>
<path d="M125.978 272.429L126.282 272.277L126.05 272.927L125.754 272.857L125.909 272.2L128.008 272.629L127.885 273.293L127.588 273.223L127.625 272.549L127.844 272.802L125.991 272.421L125.978 272.429ZM126.598 274.533L127.128 274.703L127.082 274.894L125.869 274.641L125.914 274.45L126.45 274.498L126.609 274.536L126.598 274.533ZM126.426 273.464C126.503 273.09 126.58 272.717 126.644 272.351L127.263 272.475C127.178 272.835 127.101 273.209 127.024 273.582L126.994 273.709C126.917 274.083 126.85 274.459 126.786 274.824L126.168 274.7C126.253 274.34 126.33 273.967 126.407 273.593L126.437 273.466L126.426 273.464Z" fill="black"/>
<path d="M133.764 275.397C133.529 276.203 132.878 276.452 132.302 276.294C131.727 276.125 131.312 275.568 131.547 274.762C131.782 273.956 132.432 273.706 133.009 273.865C133.583 274.034 133.999 274.591 133.761 275.408L133.764 275.397ZM132.362 276.084C132.717 276.19 132.978 275.793 133.147 275.218C133.317 274.643 133.308 274.159 132.951 274.064C132.596 273.958 132.335 274.355 132.163 274.941C131.994 275.516 132.005 275.989 132.36 276.095L132.362 276.084Z" fill="black"/>
<path d="M135.738 277.015L136.223 277.23L136.157 277.416L134.997 277.03L135.064 276.844L135.582 276.966L135.74 277.004L135.738 277.015ZM135.691 274.945L135.757 274.759L136.315 274.947L136.237 275.185L136.184 275.173L135.701 274.947L135.691 274.945ZM135.661 275.922C135.778 275.569 135.897 275.206 136.003 274.851L136.604 275.048C136.477 275.399 136.36 275.752 136.241 276.115L136.213 276.232C136.081 276.603 135.964 276.956 135.855 277.322L135.254 277.124C135.382 276.774 135.498 276.421 135.618 276.058L135.648 275.93L135.661 275.922ZM136.677 276.397L135.909 276.149L135.98 275.942L136.745 276.201L136.674 276.408L136.677 276.397ZM137.165 275.226L137.345 275.503L136.226 275.138L136.294 274.942L137.528 275.345L137.351 275.952L137.062 275.85L137.155 275.223L137.165 275.226ZM136.619 276.215L136.784 275.896L136.979 275.965L136.718 276.742L136.522 276.674L136.586 276.308L136.611 276.202L136.619 276.215Z" fill="black"/>
<path d="M141.176 279.003L141.643 279.247L141.566 279.43L140.424 278.971L140.501 278.787L141.014 278.931L141.168 278.989L141.176 279.003ZM141.167 277.904C141.305 277.556 141.445 277.198 141.573 276.847L142.164 277.088C142.018 277.422 141.877 277.781 141.737 278.139L141.655 278.344C141.545 278.62 141.407 278.968 141.28 279.318L140.686 279.088C140.832 278.754 140.973 278.395 141.113 278.037L141.164 277.915L141.167 277.904ZM141.252 276.928L141.329 276.745L141.869 276.962L141.78 277.198L141.727 277.186L141.263 276.931L141.252 276.928ZM141.699 278.488L141.323 278.332L141.402 278.138L141.791 278.286C142.088 278.401 142.324 278.255 142.441 277.947C142.561 277.629 142.468 277.406 142.172 277.291L141.803 277.148L141.882 276.954L142.261 277.099C142.966 277.378 143.145 277.755 142.981 278.164C142.823 278.552 142.446 278.777 141.712 278.48L141.699 278.488Z" fill="black"/>
<path d="M144.459 280.37L144.921 280.636L144.845 280.819L143.792 280.358L143.869 280.175L144.356 280.335L144.457 280.381L144.459 280.37ZM144.554 279.307C144.702 278.962 144.861 278.619 144.999 278.271L145.575 278.53C145.418 278.862 145.259 279.205 145.108 279.561L145.062 279.662C144.898 280.026 144.749 280.372 144.611 280.72L144.036 280.461C144.193 280.128 144.352 279.786 144.503 279.43L144.554 279.307ZM144.681 278.342L144.758 278.158L145.811 278.619L145.734 278.803L145.226 278.638L145.125 278.592L144.684 278.331L144.681 278.342ZM144.773 279.561L144.863 279.369L146.136 279.938L146.046 280.129L144.773 279.561ZM145.743 280.942L146.194 281.205L146.117 281.388L145.065 280.927L145.142 280.744L145.639 280.906L145.729 280.95L145.743 280.942ZM145.818 279.863C145.967 279.518 146.126 279.175 146.264 278.827L146.839 279.086C146.683 279.418 146.524 279.761 146.373 280.117L146.321 280.239C146.173 280.585 146.014 280.928 145.876 281.275L145.301 281.016C145.457 280.684 145.616 280.341 145.772 279.964L145.818 279.863ZM145.956 278.9L146.033 278.717L147.086 279.178L147.009 279.361L146.511 279.199L146.421 279.155L145.97 278.892L145.956 278.9Z" fill="black"/>
<path d="M149.013 282.464C149.302 282.61 149.575 282.496 149.813 282.004L150.415 280.781L150.624 280.886L150.023 282.109C149.681 282.801 149.224 282.939 148.683 282.677C148.203 282.441 147.966 282.027 148.271 281.394L148.446 281.032C148.6 280.711 148.767 280.381 148.913 280.046L149.484 280.326C149.319 280.645 149.152 280.975 148.995 281.307L148.869 281.557C148.628 282.06 148.692 282.31 149.002 282.461L149.013 282.464ZM148.598 280.106L148.683 279.936L149.754 280.457L149.669 280.627L149.156 280.439L149.065 280.395L148.598 280.106ZM150.362 281.003L150.03 280.802L150.115 280.632L150.895 281.017L150.808 281.198L150.461 281.06L150.36 281.014L150.362 281.003Z" fill="black"/>
<path d="M151.937 283.983L152.331 284.255L152.235 284.423L151.253 283.9L151.349 283.732L151.836 283.937L151.927 283.981L151.937 283.983ZM152.1 282.914C152.278 282.587 152.458 282.249 152.628 281.908L153.164 282.192C152.976 282.516 152.798 282.844 152.618 283.181L152.54 283.32C152.378 283.628 152.198 283.966 152.028 284.307L151.492 284.023C151.678 283.709 151.858 283.371 152.038 283.034L152.1 282.914ZM152.294 281.953L152.389 281.785L153.4 282.326L153.305 282.493L152.825 282.302L152.738 282.248L152.294 281.953ZM152.149 283.463L154.035 282.666L154.274 282.789L152.031 283.681L152.152 283.452L152.149 283.463ZM152.53 284.358L152.988 284.544L153.057 284.583L153.451 284.855L153.356 285.023L152.424 284.523L152.519 284.355L152.53 284.358ZM153.278 283.08L153.265 284.979L152.681 284.662L152.722 283.307L153.278 283.08ZM153.562 282.632L153.658 282.465L154.401 282.864L154.306 283.032L153.906 282.881L153.805 282.835L153.552 282.63L153.562 282.632Z" fill="black"/>
<path d="M155.386 285.881L155.257 286.096L154.747 285.797L154.842 285.629L155.327 285.845L155.38 285.857L155.386 285.881ZM155.628 284.853C155.817 284.528 156.008 284.193 156.185 283.865L156.735 284.185C156.539 284.497 156.348 284.832 156.16 285.157L156.103 285.256C155.912 285.591 155.711 285.924 155.543 286.254L154.994 285.934C155.19 285.622 155.381 285.287 155.569 284.962L155.642 284.845L155.628 284.853ZM156.761 286.25L156.423 286.786L155.254 286.107L155.352 285.929L156.412 286.548L156.078 286.592L156.483 286.106L156.748 286.258L156.761 286.25ZM155.851 283.909L155.946 283.742L156.456 284.041L156.327 284.257L156.274 284.244L155.849 283.92L155.851 283.909ZM156.518 285.532L155.819 285.133L155.93 284.946L156.629 285.346L156.518 285.532ZM157.224 284.48L157.352 284.79L156.35 284.206L156.448 284.028L157.548 284.668L157.26 285.227L156.994 285.074L157.213 284.477L157.224 284.48ZM156.494 285.348L156.715 285.076L156.901 285.187L156.506 285.865L156.32 285.754L156.458 285.407L156.494 285.348Z" fill="black"/>
<path d="M158.933 288.027L159.367 288.364L159.261 288.529L158.211 287.868L158.317 287.702L158.805 287.952L158.941 288.04L158.933 288.027ZM159.102 285.84L159.434 285.807L158.987 286.328L158.735 286.168L159.102 285.605L160.909 286.748L160.561 287.326L160.308 287.165L160.59 286.538L160.705 286.856L159.102 285.84ZM159.149 286.97C159.347 286.648 159.557 286.328 159.745 286.003L160.279 286.342C160.072 286.651 159.874 286.973 159.664 287.293L159.592 287.41C159.393 287.733 159.183 288.052 158.995 288.377L158.461 288.038C158.668 287.729 158.867 287.407 159.076 287.087L159.149 286.97Z" fill="black"/>
<path d="M92.965 230.299C92.6581 230.417 92.3612 230.493 92.0611 230.534C91.7611 230.575 91.4475 230.579 91.1096 230.544C89.7897 230.411 88.8513 229.798 88.2943 228.705C87.7373 227.611 87.5456 226.011 87.7353 223.93C87.9244 221.804 88.4315 220.223 89.2542 219.197C90.0768 218.172 91.1969 217.732 92.6144 217.876C92.9206 217.903 93.2193 217.963 93.4787 218.046C93.7487 218.132 94.0031 218.237 94.2394 218.371C94.1684 219.003 94.1382 219.321 94.0671 219.953C93.8227 219.806 93.592 219.695 93.3668 219.609C93.1391 219.533 92.917 219.48 92.711 219.454C91.7633 219.353 91.0267 219.683 90.5087 220.411C89.9988 221.152 89.6582 222.358 89.5007 224.067C89.3495 225.653 89.4384 226.838 89.773 227.644C90.1075 228.45 90.6957 228.891 91.5352 228.977C91.7754 229 92.0231 228.992 92.2808 228.941C92.5385 228.89 92.8168 228.799 93.1262 228.67C93.0607 229.326 93.0174 229.652 92.9545 230.297L92.965 230.299Z" fill="#A5A5A5"/>
<path d="M96.5672 230.981C97.1422 226.037 97.4375 223.556 98.0126 218.612C98.7307 218.692 99.0872 218.743 99.8053 218.823C99.5735 220.704 99.4642 221.64 99.2324 223.521C100.502 223.675 101.131 223.757 102.398 223.922C102.641 222.043 102.761 221.109 103.014 219.233C103.729 219.324 104.086 219.375 104.801 219.465C104.129 224.397 103.802 226.871 103.129 231.803C102.437 231.707 102.091 231.658 101.396 231.573C101.716 229.131 101.869 227.914 102.189 225.472C100.932 225.31 100.303 225.228 99.0334 225.074C98.735 227.521 98.5817 228.738 98.2859 231.174C97.5914 231.089 97.2429 231.051 96.5485 230.966L96.5672 230.981Z" fill="#A5A5A5"/>
<path d="M106.501 232.275C108.418 227.513 109.39 225.147 111.388 220.416C112.057 220.518 112.389 220.574 113.068 220.679C113.526 225.788 113.738 228.344 114.117 233.457C113.419 233.337 113.073 233.289 112.376 233.169C112.289 232.164 112.241 231.66 112.154 230.655C110.981 230.468 110.389 230.373 109.214 230.196C108.828 231.123 108.639 231.593 108.25 232.531C107.55 232.422 107.204 232.374 106.501 232.275ZM111.736 223.721C110.927 225.778 110.528 226.803 109.74 228.866C110.667 229.007 111.14 229.085 112.067 229.225C111.939 227.024 111.875 225.924 111.736 223.721Z" fill="#A5A5A5"/>
<path d="M117.454 234.033C118.322 229.125 118.744 226.673 119.612 221.765C120.32 221.888 120.685 221.951 121.391 222.084C120.612 226.376 120.228 228.523 119.45 232.815C120.927 233.085 121.667 233.215 123.141 233.496C123.02 234.105 122.971 234.407 122.85 235.016C120.691 234.607 119.61 234.408 117.456 234.022L117.454 234.033Z" fill="#A5A5A5"/>
<path d="M126.754 229.447C127.203 227.215 127.803 225.667 128.585 224.811C129.368 223.955 130.419 223.666 131.738 223.944C133.057 224.222 133.888 224.91 134.258 225.993C134.628 227.076 134.557 228.749 134.063 230.982C133.572 233.204 132.941 234.745 132.163 235.579C131.396 236.416 130.379 236.702 129.103 236.435C127.826 236.167 127.011 235.505 126.63 234.419C126.261 233.336 126.292 231.688 126.744 229.445L126.754 229.447ZM128.522 229.764C128.17 231.493 128.064 232.744 128.219 233.507C128.371 234.282 128.778 234.736 129.47 234.877C130.152 235.015 130.698 234.786 131.122 234.17C131.547 233.554 131.953 232.352 132.334 230.551C132.712 228.806 132.83 227.547 132.684 226.796C132.537 226.046 132.12 225.589 131.428 225.448C130.725 225.305 130.153 225.55 129.723 226.187C129.283 226.822 128.89 228.016 128.535 229.755L128.522 229.764Z" fill="#A5A5A5"/>
<path d="M136.643 237.935C137.767 233.077 138.327 230.658 139.452 225.799C140.097 225.951 140.425 226.028 141.07 226.181C141.65 229.875 141.929 231.72 142.442 235.411C143.269 232.048 143.686 230.378 144.513 227.016C145.179 227.173 145.518 227.253 146.179 227.431C144.962 232.257 144.357 234.677 143.151 239.505C142.516 239.355 142.201 239.27 141.559 239.107C141.074 235.39 140.808 233.537 140.254 229.826C139.454 233.217 139.054 234.913 138.251 238.315C137.605 238.163 137.288 238.088 136.643 237.935Z" fill="#A5A5A5"/>
<path d="M156.009 236.027C155.949 236.281 155.889 236.536 155.831 236.779C155.774 237.023 155.719 237.256 155.645 237.474C155.143 239.224 154.475 240.442 153.648 241.109C152.818 241.785 151.787 241.945 150.549 241.608C149.268 241.261 148.479 240.537 148.162 239.422C147.842 238.317 147.966 236.657 148.539 234.465C149.119 232.241 149.833 230.732 150.68 229.936C151.526 229.14 152.626 228.929 153.97 229.291C154.925 229.55 155.639 229.976 156.095 230.554C156.561 231.134 156.776 231.878 156.751 232.789C156.066 232.897 155.719 232.949 155.038 233.045C155.082 232.429 154.978 231.924 154.731 231.552C154.484 231.18 154.098 230.922 153.575 230.776C152.821 230.564 152.204 230.765 151.707 231.353C151.222 231.943 150.744 233.117 150.273 234.875C149.808 236.611 149.634 237.868 149.754 238.634C149.875 239.401 150.298 239.881 151.033 240.077C151.684 240.253 152.246 240.14 152.716 239.714C153.185 239.287 153.566 238.572 153.853 237.543C153.891 237.384 153.918 237.268 153.936 237.193C153.956 237.109 153.973 237.034 153.988 236.971C153.266 236.767 152.898 236.669 152.176 236.465C152.332 235.897 152.41 235.614 152.566 235.047C153.94 235.427 154.622 235.61 155.993 236.001L156.009 236.027Z" fill="#A5A5A5"/>
<path d="M163.211 245.157C164.701 240.406 165.441 238.03 166.933 233.269C167.88 233.56 168.346 233.715 169.291 234.016C170.538 234.411 171.359 234.952 171.763 235.606C172.167 236.261 172.188 237.117 171.841 238.164C171.576 238.952 171.243 239.512 170.837 239.863C170.422 240.202 169.902 240.37 169.248 240.35C169.856 240.706 170.241 241.155 170.398 241.673C170.555 242.191 170.498 242.86 170.234 243.648C169.848 244.81 169.275 245.581 168.541 245.945C167.797 246.306 166.827 246.301 165.633 245.919C164.667 245.612 164.18 245.453 163.211 245.157ZM167.023 238.896C167.272 238.977 167.396 239.017 167.645 239.099C168.278 239.304 168.802 239.305 169.195 239.106C169.588 238.908 169.889 238.487 170.094 237.853C170.307 237.187 170.327 236.677 170.135 236.307C169.943 235.938 169.51 235.645 168.824 235.427C168.575 235.346 168.451 235.306 168.202 235.225C167.733 236.691 167.502 237.431 167.033 238.898L167.023 238.896ZM165.345 244.161C165.572 244.237 165.678 244.262 165.906 244.338C166.673 244.587 167.248 244.61 167.626 244.431C168.006 244.241 168.314 243.788 168.537 243.08C168.773 242.363 168.784 241.795 168.581 241.378C168.378 240.961 167.907 240.637 167.192 240.401C166.965 240.325 166.84 240.285 166.61 240.219C166.103 241.8 165.86 242.593 165.353 244.174L165.345 244.161Z" fill="#A5A5A5"/>
<path d="M171.836 247.976C174.589 243.647 175.98 241.491 178.809 237.214C179.448 237.443 179.768 237.552 180.406 237.781C179.926 242.892 179.668 245.45 179.103 250.541C178.435 250.294 178.105 250.183 177.448 249.938C177.54 248.931 177.592 248.428 177.684 247.421C176.562 247.021 176.005 246.823 174.88 246.434C174.335 247.279 174.055 247.705 173.51 248.55C172.84 248.313 172.509 248.202 171.836 247.976ZM178.551 240.532C177.383 242.404 176.805 243.342 175.645 245.227C176.532 245.537 176.974 245.698 177.872 246.01C178.155 243.817 178.289 242.73 178.551 240.532Z" fill="#A5A5A5"/>
<path d="M186.906 247.807C186.148 249.787 185.771 250.772 185.013 252.753C184.337 252.493 183.998 252.368 183.333 252.11C184.08 250.127 184.458 249.142 185.205 247.159C185.293 244.137 185.319 242.61 185.375 239.58C186.074 239.835 186.421 239.972 187.121 240.227C187.055 241.688 187.017 242.418 186.943 243.866C186.93 244.109 186.905 244.405 186.857 244.752C186.808 245.099 186.75 245.488 186.665 245.893C186.851 245.579 187.035 245.275 187.221 245.006C187.41 244.726 187.604 244.47 187.799 244.214C188.717 243.065 189.174 242.502 190.103 241.356C190.811 241.624 191.158 241.762 191.863 242.04C189.87 244.333 188.883 245.488 186.919 247.799L186.906 247.807Z" fill="#A5A5A5"/>
<path d="M140.965 161.431C140.467 159.758 138.814 158.719 137.096 158.996C131.729 159.878 120.441 162.427 113.109 168.987C106.459 174.925 100.685 183.587 97.594 188.642C96.3726 190.647 97.4631 193.265 99.7477 193.805L108.178 195.794C110.081 196.244 112.03 195.036 112.406 193.111C112.938 190.384 114.352 186.287 118.011 181.333C122.935 174.663 127.667 173.542 131.59 171.112C134.219 169.483 137.09 168.438 139.238 167.804C141.074 167.263 142.13 165.342 141.582 163.501L140.968 161.42L140.965 161.431Z" fill="#F3F1DD"/>
<path d="M114.826 161.381C115.075 160.466 114.295 159.611 113.361 159.782C110.618 160.287 105.734 161.394 103.28 163.321C99.4585 166.313 95.9127 170.455 94.1091 172.703C93.5226 173.437 93.9004 174.533 94.81 174.748L100.416 176.071C100.955 176.199 101.511 175.972 101.803 175.492C103.117 173.33 106.865 167.434 109.356 166.154C111.173 165.218 112.45 164.825 113.189 164.675C113.659 164.574 114.042 164.228 114.165 163.753L114.815 161.378L114.826 161.381Z" fill="#F3F1DD"/>
</g>
<defs>
<clipPath id="clip0_141_13243">
<rect width="190.303" height="415.684" fill="white" transform="translate(95.488) rotate(13.2802)"/>
</clipPath>
</defs>
</svg>
