<svg width="577" height="608" viewBox="0 0 577 608" fill="none" xmlns="http://www.w3.org/2000/svg">
<g clip-path="url(#clip0_141_13586)">
<path d="M178.222 487.988C269.007 536.241 351.565 558.496 362.621 537.694C373.677 516.893 309.045 460.913 218.26 412.66C127.475 364.406 44.9168 342.152 33.8606 362.953C22.8045 383.754 87.4372 439.734 178.222 487.988Z" fill="#2D6076"/>
<path d="M388.403 415.925C386.366 414.842 385.247 412.569 385.673 410.297C386.936 403.436 388.939 386.25 386.746 352.093C384.135 311.44 354.824 268.134 346.808 256.989C345.592 255.294 345.482 253.061 346.499 251.256L369.472 211.119C370.874 208.661 370.101 205.523 367.706 204.002L366.719 203.382C364.383 201.893 363.57 198.867 364.874 196.413L381.416 165.292C382.767 162.749 381.851 159.593 379.34 158.182L365.589 150.434L365.605 150.405L357.552 145.895L353.974 144.051L353.95 144.095L339.836 137.032C337.262 135.74 334.133 136.747 332.782 139.29L316.24 170.411C314.936 172.865 311.973 173.883 309.432 172.78L308.366 172.309C305.765 171.175 302.732 172.289 301.478 174.827L281.063 216.323C280.142 218.198 278.215 219.348 276.138 219.274C262.415 218.864 210.13 218.821 174.966 239.377C145.405 256.675 132.288 267.934 127.322 272.827C125.678 274.451 123.168 274.795 121.131 273.713C118.529 272.33 115.302 273.342 113.934 275.952L68.114 363.844C67.1498 365.658 67.344 367.84 68.5835 369.49C77.4795 381.313 116.058 429.355 180.86 466.163L180.757 466.356C253.032 506.469 322.621 512.277 338.458 513.085C340.497 513.196 342.407 512.114 343.386 510.308L390.603 423.158C392.001 420.564 391.035 417.323 388.433 415.94L388.403 415.925Z" fill="#D2D4D3"/>
<path d="M185.72 470.653C183.831 469.65 181.951 468.631 180.049 467.582L178.83 466.896L178.941 466.688C115.409 430.288 77.5613 383.778 67.4328 370.328C65.8945 368.271 65.6479 365.47 66.8422 363.187L112.662 275.295C113.508 273.704 114.901 272.518 116.631 271.989C118.347 271.452 120.181 271.625 121.772 272.471C123.274 273.269 125.103 273.021 126.308 271.831C131.605 266.637 144.85 255.35 174.235 238.168C209.423 217.568 261.141 217.424 276.158 217.874C277.678 217.919 279.101 217.073 279.767 215.711L300.183 174.215C301.77 170.978 305.602 169.582 308.895 171.027L309.961 171.498C311.816 172.313 313.997 171.546 314.946 169.762L331.487 138.64C333.21 135.399 337.136 134.148 340.425 135.782L358.155 144.653L367.835 150.084L367.82 150.114L379.995 156.986C383.197 158.783 384.349 162.751 382.626 165.993L366.084 197.114C365.136 198.899 365.736 201.143 367.434 202.218L368.42 202.837C371.461 204.759 372.439 208.73 370.652 211.842L347.679 251.979C346.923 253.293 347.017 254.945 347.905 256.18C356.679 268.376 385.471 311.331 388.104 352.015C390.293 385.998 388.363 403.299 387.015 410.572C386.702 412.237 387.52 413.892 389.022 414.69C390.613 415.536 391.782 416.958 392.297 418.681C392.812 420.404 392.638 422.238 391.777 423.821L344.56 510.97C343.336 513.237 340.883 514.623 338.31 514.476C325.077 513.792 256.876 508.493 185.667 470.644L185.72 470.653ZM182.647 465.778C184.126 466.583 185.59 467.381 187.062 468.163C257.751 505.735 325.388 510.982 338.531 511.656C340.013 511.738 341.434 510.93 342.145 509.629L389.362 422.48C389.852 421.558 389.969 420.514 389.67 419.497C389.364 418.495 388.691 417.68 387.769 417.19C385.167 415.807 383.777 412.932 384.316 410.053C385.639 402.899 387.525 385.861 385.365 352.18C384.705 342.084 379.93 305.43 345.703 257.813C344.166 255.68 344.027 252.822 345.326 250.557L368.299 210.42C369.339 208.608 368.763 206.319 367.013 205.198L366.027 204.578C363.075 202.704 362.064 198.83 363.7 195.752L380.242 164.63C381.238 162.757 380.572 160.458 378.722 159.417L363.404 150.779L356.918 147.123L353.377 145.355L339.262 138.291C337.365 137.34 335.087 138.074 334.091 139.948L317.55 171.069C315.914 174.147 312.122 175.469 308.932 174.079L307.867 173.608C305.967 172.77 303.739 173.588 302.819 175.463L282.403 216.959C281.244 219.319 278.805 220.787 276.178 220.706C261.349 220.262 210.293 220.414 175.771 240.625C146.653 257.663 133.586 268.758 128.389 273.871C126.304 275.928 123.144 276.385 120.541 275.002C119.619 274.512 118.567 274.41 117.565 274.717C116.563 275.023 115.74 275.711 115.265 276.64L69.4453 364.533C68.7419 365.856 68.8898 367.479 69.7869 368.662C79.8936 382.081 117.844 428.722 181.621 464.947L182.824 465.624L182.729 465.803L182.647 465.778Z" fill="black"/>
<path d="M334.598 299.299C337.346 297.86 340.7 298.69 342.475 301.235C347.973 309.153 358.677 326.686 359.403 344.12C360.05 359.911 356.166 377.946 353.547 388.111C352.505 392.152 347.819 393.972 344.319 391.73L331.373 383.438C328.445 381.557 327.571 377.603 329.563 374.752C332.375 370.717 335.846 363.865 337.643 353.093C340.045 338.599 335.635 331.182 333.875 323.191C332.698 317.835 330.486 312.884 328.63 309.38C327.039 306.38 328.194 302.665 331.201 301.097L334.613 299.307L334.598 299.299Z" fill="#F3F1DD"/>
<path d="M366.954 332.536C367.803 331.08 369.869 331.034 370.806 332.428C373.558 336.542 378.175 344.145 378.747 349.635C379.656 358.185 378.753 367.813 378.123 372.874C377.923 374.542 376.048 375.414 374.647 374.498L366.039 368.988C365.216 368.455 364.811 367.458 365.068 366.508C366.185 362.182 369.07 350.118 367.643 345.374C366.593 341.898 365.5 339.791 364.79 338.651C364.341 337.917 364.311 337.005 364.736 336.277L366.939 332.528L366.954 332.536Z" fill="#F3F1DD"/>
<path d="M121.116 273.704C121.116 273.704 183.076 329.636 242.113 360.176C301.15 390.716 390.574 423.142 390.574 423.142L348.164 501.138C348.164 501.138 255.929 486.917 195.515 454.806C139.369 424.963 71.8018 357.623 71.8018 357.623L113.911 275.958L121.108 273.719L121.116 273.704Z" fill="#F3F1DD"/>
<path d="M194.859 456.041C165.745 440.566 133.563 414.899 111.681 396.079C88.0069 375.715 70.9823 358.771 70.8057 358.601L70.0707 357.867L112.932 274.752L121.472 272.102L122.061 272.644C122.665 273.194 182.363 326.817 239.61 357.244C240.666 357.806 241.707 358.359 242.755 358.897C301.034 389.034 390.156 421.453 391.044 421.792L392.597 422.35L348.917 502.665L347.934 502.505C347.019 502.361 254.776 487.868 194.853 456.018L194.859 456.041ZM73.5418 357.328C81.0347 364.686 143.996 425.803 196.187 453.543C252.378 483.409 337.321 497.931 347.397 499.568L388.551 423.899C376.406 419.446 295.675 389.466 241.464 361.434C186.013 332.723 127.326 281.145 120.768 275.294L114.899 277.114L73.5418 357.328Z" fill="black"/>
<path d="M350.52 120.018L309.424 198.483C309.424 198.483 319.952 207.092 330.1 211.894C340.241 216.674 346.181 218.02 346.181 218.02L387.024 140.03L350.52 120.018Z" fill="#725D2D"/>
<path d="M326.647 211.717C317.472 206.841 308.945 199.887 308.546 199.56L307.653 198.838L349.95 118.074L388.937 139.444L346.947 219.628L345.891 219.391C345.636 219.332 339.689 217.963 329.518 213.167C328.558 212.714 327.613 212.231 326.662 211.725L326.647 211.717ZM311.235 198.091C313.983 200.238 322.53 206.726 330.712 210.598C338.165 214.121 343.36 215.757 345.462 216.359L385.142 140.593L351.135 121.946L311.249 198.098L311.235 198.091Z" fill="black"/>
<path d="M319.154 164.714C319.154 164.714 334.609 175.103 342.222 179.149C349.835 183.196 366.81 190.044 366.81 190.044L363.293 199.388C363.293 199.388 343.493 191.038 337.028 186.877C330.563 182.716 313.827 172.009 313.827 172.009L319.154 164.714Z" fill="#725D2D"/>
<path d="M339.885 190.149C338.472 189.398 337.224 188.697 336.275 188.078C329.81 183.917 313.074 173.21 313.074 173.21L311.806 172.403L318.818 162.799L319.944 163.551C320.1 163.652 335.437 173.94 342.886 177.9C350.336 181.859 367.176 188.674 367.332 188.738L368.623 189.253L364.105 201.268L362.748 200.7C362.063 200.411 348.033 194.48 339.885 190.149ZM315.856 171.637C319.882 174.216 332.406 182.226 337.788 185.698C343.104 189.114 357.927 195.563 362.473 197.521L364.99 190.849C360.866 189.172 348.004 183.843 341.551 180.413C335.097 176.983 323.21 169.139 319.49 166.665L315.848 171.652L315.856 171.637Z" fill="black"/>
<path d="M110.241 334.097C111.456 334.933 112.319 335.354 112.853 335.39C113.395 335.411 114.071 334.893 114.902 333.867C118.736 329.058 120.641 326.657 124.475 321.849C125.268 320.859 125.603 320.084 125.511 319.539C125.405 318.987 124.828 318.242 123.759 317.311C123.922 317.112 123.992 317.015 124.155 316.816C127.375 319.405 128.986 320.68 132.237 323.21C132.074 323.409 132.004 323.505 131.841 323.704C130.679 322.877 129.822 322.479 129.272 322.51C128.721 322.542 128.053 323.045 127.252 324.05C123.448 328.874 121.55 331.298 117.746 336.122C116.922 337.171 116.586 337.946 116.731 338.462C116.877 338.978 117.491 339.724 118.589 340.708C118.426 340.907 118.355 341.003 118.192 341.203C114.838 338.581 113.153 337.266 109.845 334.592C110.008 334.393 110.078 334.296 110.241 334.097Z" fill="black"/>
<path d="M125.189 345.8C126.361 346.537 127.204 346.852 127.704 346.736C128.219 346.629 128.898 345.998 129.755 344.851C133.362 340.075 135.161 337.694 138.768 332.918C139.493 331.949 139.835 331.196 139.765 330.682C139.703 330.154 139.185 329.478 138.257 328.641C138.405 328.434 138.498 328.331 138.646 328.123C141.714 330.46 143.252 331.62 146.367 333.905C147.979 335.105 149.177 336.295 149.962 337.475C151.45 339.734 151.456 341.912 149.973 343.984C148.966 345.375 147.735 346.113 146.264 346.189C144.793 346.265 143.184 345.849 141.415 344.908C141.686 349.457 141.847 351.736 142.201 356.31C142.251 357.005 142.395 357.596 142.624 358.061C142.854 358.526 143.234 358.995 143.772 359.453C143.624 359.66 143.546 359.771 143.397 359.979C141.517 358.636 140.577 357.965 138.691 356.6C138.272 351.037 138.099 348.276 137.8 342.739C137.282 342.387 137.022 342.23 136.503 341.878C134.867 344.06 134.056 345.154 132.428 347.321C131.657 348.341 131.344 349.11 131.467 349.632C131.589 350.155 132.152 350.855 133.184 351.747C133.036 351.954 132.958 352.065 132.795 352.264C129.577 349.887 127.98 348.694 124.808 346.265C124.957 346.058 125.05 345.955 125.198 345.747L125.189 345.8ZM142.105 343.502C144.066 344.01 145.648 343.402 146.88 341.73C148.058 340.124 148.18 338.53 147.285 336.949C146.802 336.101 145.972 335.259 144.795 334.386C144.004 333.794 143.477 333.494 143.221 333.473C142.966 333.451 142.675 333.64 142.37 334.069C140.329 336.798 139.323 338.152 137.282 340.881C139.37 342.334 140.99 343.195 142.12 343.51L142.105 343.502Z" fill="black"/>
<path d="M164.994 350.347C167.913 349.877 170.662 350.518 173.248 352.255C175.848 354 177.486 356.3 178.16 359.195C178.903 362.317 178.275 365.435 176.285 368.534C174.256 371.67 171.611 373.525 168.337 374.016C165.41 374.463 162.609 373.813 159.993 372.061C157.192 370.191 155.499 367.708 154.912 364.65C154.32 361.531 155.049 358.544 157.042 355.656C159.144 352.635 161.802 350.863 164.986 350.362L164.994 350.347ZM157.618 365.802C157.863 368.068 158.882 369.811 160.682 371.016C162.438 372.197 164.42 372.487 166.604 371.894C168.788 371.301 170.884 369.439 172.935 366.334C174.994 363.176 175.867 360.494 175.553 358.286C175.239 356.079 174.256 354.412 172.567 353.285C170.84 352.12 168.881 351.86 166.703 352.476C164.526 353.092 162.402 354.9 160.346 357.907C158.298 360.9 157.373 363.536 157.618 365.802Z" fill="black"/>
<path d="M177.922 382.352C179.246 383.018 180.227 383.253 180.85 383.05C181.473 382.847 182.263 381.971 183.221 380.42C186.445 375.25 188.046 372.668 191.263 367.513C191.225 367.225 191.191 367.074 191.153 366.787C191.029 366.015 190.862 365.469 190.644 365.162C190.411 364.847 190.005 364.498 189.412 364.107C189.545 363.892 189.624 363.781 189.757 363.566C191.76 364.821 192.776 365.456 194.786 366.696C195.872 375.13 196.482 379.364 197.845 387.85C200.174 383.9 201.353 381.934 203.689 377.969C204.648 376.343 205.04 375.14 204.84 374.367C204.71 373.859 204.123 373.242 203.08 372.477C203.198 372.254 203.276 372.143 203.41 371.928C206.2 373.602 207.611 374.428 210.44 376.066C210.322 376.289 210.259 376.408 210.125 376.623C208.911 376.073 207.989 375.907 207.358 376.124C206.727 376.342 205.937 377.219 205.032 378.778C201.343 385.037 199.502 388.178 195.813 394.436C195.59 394.318 195.486 394.262 195.294 394.122C193.668 384.371 192.953 379.51 191.681 369.813C188.847 374.39 187.427 376.668 184.594 381.245C183.604 382.855 183.198 384.05 183.374 384.831C183.505 385.339 184.068 386 185.104 386.78C184.985 387.003 184.907 387.114 184.774 387.329C181.895 385.57 180.463 384.675 177.622 382.879C177.756 382.664 177.834 382.553 177.967 382.338L177.922 382.352Z" fill="black"/>
<path d="M220.588 407.203C221.884 407.816 222.819 408.065 223.357 407.95C223.894 407.836 224.475 407.21 225.076 406.08C227.96 400.652 229.399 397.946 232.283 392.519C232.876 391.404 233.085 390.58 232.887 390.056C232.704 389.539 232.004 388.919 230.801 388.203C230.92 387.98 230.983 387.861 231.102 387.638C234.529 389.479 236.246 390.373 239.689 392.183C242.158 393.458 243.909 394.865 244.963 396.398C246.017 397.931 246.064 399.672 245.089 401.614C244.352 403.072 243.292 403.919 241.869 404.155C241.075 404.286 240.015 404.199 238.712 403.888C239.974 404.959 240.923 406.15 241.553 407.477C242.168 408.795 242.141 410.173 241.42 411.602C240.215 414.012 238.23 415.093 235.472 414.828C234.021 414.687 232.4 414.149 230.63 413.246C226.487 411.102 224.413 410.018 220.295 407.791C220.413 407.568 220.476 407.449 220.595 407.226L220.588 407.203ZM238.232 402.317C239.864 402.403 241.08 401.657 241.873 400.095C242.807 398.265 242.682 396.635 241.489 395.219C240.838 394.434 239.654 393.614 237.951 392.728C237.311 392.388 236.878 392.234 236.666 392.274C236.462 392.299 236.222 392.572 235.969 393.048C234.507 395.798 233.787 397.189 232.339 399.948C233.545 400.55 234.133 400.844 235.33 401.461C236.387 401.985 237.344 402.265 238.194 402.316L238.232 402.317ZM234.271 412.531C235.688 412.483 236.833 411.585 237.712 409.86C238.591 408.134 238.546 406.641 237.606 405.36C236.666 404.078 235.21 402.942 233.255 401.922C232.779 401.669 232.481 401.511 232.348 401.44C232.214 401.368 232.02 401.266 231.768 401.131C230.17 404.173 229.379 405.697 227.774 408.753C227.497 409.274 227.479 409.703 227.697 410.009C227.916 410.316 228.605 410.778 229.728 411.356C231.356 412.202 232.868 412.586 234.278 412.554L234.271 412.531Z" fill="black"/>
<path d="M247.869 421.857C247.988 421.634 248.051 421.515 248.155 421.284C249.021 421.592 249.805 421.589 250.46 421.289C251.123 420.974 252.505 419.916 254.6 418.093C260.189 413.245 262.955 410.805 268.426 405.857C268.664 405.983 268.806 406.039 269.052 406.151C268.906 414.712 268.883 418.991 268.939 427.602C268.949 429.019 269.062 429.956 269.254 430.382C269.447 430.809 269.918 431.25 270.638 431.69C270.534 431.921 270.486 432.048 270.382 432.279C267.044 430.809 265.383 430.06 262.068 428.546C262.187 428.323 262.235 428.196 262.339 427.965C263.332 428.321 263.983 428.496 264.322 428.504C264.646 428.505 264.915 428.286 265.122 427.824C265.201 427.675 265.261 427.383 265.325 426.94C265.404 426.505 265.431 426.023 265.436 425.511C265.465 424.058 265.482 423.343 265.511 421.89C262.107 420.329 260.409 419.541 257.021 417.95C255.225 419.607 254.138 420.612 253.752 420.979C253.381 421.354 253.117 421.672 252.998 421.932C252.751 422.469 252.792 422.929 253.143 423.345C253.355 423.591 253.822 423.934 254.557 424.344L254.287 424.925C251.71 423.708 250.43 423.104 247.869 421.857ZM265.542 420.361C265.645 416.221 265.711 414.158 265.859 410.041C262.799 412.82 261.251 414.19 258.169 416.939C261.11 418.33 262.6 419.008 265.542 420.361Z" fill="black"/>
<path d="M278.098 434.911C279.354 435.311 280.24 435.438 280.718 435.292C281.196 435.146 281.702 434.481 282.199 433.295C284.592 427.645 285.793 424.812 288.194 419.147C288.673 418.029 288.807 417.203 288.608 416.716C288.409 416.229 287.73 415.677 286.592 415.092C286.696 414.861 286.744 414.734 286.848 414.503C290.455 416.039 292.259 416.807 295.891 418.299C295.787 418.53 295.739 418.657 295.65 418.895C294.448 418.466 293.562 418.339 293.023 418.491C292.485 418.643 291.995 419.241 291.562 420.308C289.014 426.429 287.725 429.5 285.177 435.622C285.025 435.979 284.98 436.28 285.019 436.529C285.058 436.779 285.27 437.025 285.686 437.246C285.924 437.373 286.177 437.507 286.445 437.649C286.72 437.777 287.235 437.993 287.988 438.298C290.933 439.501 293.028 440.081 294.257 440.029C295.487 439.976 296.975 439.185 298.702 437.623C299.03 437.759 299.209 437.817 299.537 437.953C298.011 439.926 297.241 440.909 295.716 442.882C288.532 440.037 284.968 438.562 277.872 435.515C277.976 435.284 278.025 435.157 278.128 434.926L278.098 434.911Z" fill="black"/>
<path d="M305.059 445.828C306.346 446.169 307.21 446.265 307.696 446.104C308.182 445.943 308.644 445.254 309.096 444.045C311.258 438.291 312.346 435.418 314.508 429.663C314.944 428.522 315.054 427.703 314.833 427.223C314.611 426.743 313.916 426.221 312.74 425.672C312.828 425.433 312.877 425.306 312.966 425.068C316.63 426.462 318.473 427.156 322.161 428.506C322.072 428.744 322.023 428.871 321.935 429.11C320.709 428.726 319.822 428.636 319.29 428.811C318.759 428.986 318.291 429.615 317.895 430.682C315.593 436.915 314.439 440.02 312.122 446.245C311.993 446.595 311.94 446.91 311.993 447.168C312.047 447.425 312.267 447.657 312.677 447.855C312.915 447.982 313.175 448.101 313.459 448.214C313.742 448.326 314.265 448.528 315.034 448.803C318.035 449.902 320.147 450.377 321.377 450.287C322.6 450.174 324.06 449.329 325.728 447.698C326.064 447.82 326.243 447.877 326.579 447.998C325.135 450.034 324.409 451.04 322.95 453.068C315.654 450.506 312.011 449.18 304.803 446.416C304.892 446.178 304.94 446.051 305.029 445.812L305.059 445.828Z" fill="black"/>
<path d="M336.263 450.266C336.35 451.933 336.624 453.319 337.108 454.453C337.948 456.425 339.384 457.741 341.402 458.394C342.493 458.745 343.541 458.711 344.545 458.292C345.55 457.872 346.241 457.076 346.609 455.88C346.952 454.804 346.843 453.754 346.297 452.701C345.944 452.036 345.083 450.93 343.75 449.383C342.828 448.32 342.359 447.766 341.437 446.704C340.749 445.881 340.241 445.115 339.912 444.406C339.313 443.058 339.217 441.767 339.632 440.519C340.185 438.868 341.202 437.673 342.674 436.949C344.146 436.225 345.79 436.145 347.628 436.741C348.375 436.986 349.23 437.459 350.184 438.176C351.123 438.885 351.686 439.26 351.836 439.302C352.247 439.425 352.571 439.425 352.778 439.287C352.984 439.149 353.209 438.906 353.398 438.587C353.674 438.677 353.809 438.71 354.085 438.8C353.501 441.693 353.209 443.14 352.64 446.041C352.311 445.943 352.161 445.901 351.84 445.788C351.95 443.5 351.541 441.758 350.607 440.537C349.673 439.316 348.623 438.529 347.45 438.153C346.538 437.859 345.657 437.867 344.82 438.185C343.969 438.496 343.388 439.121 343.078 440.063C342.801 440.907 342.826 441.721 343.146 442.483C343.473 443.267 344.069 444.155 344.955 445.179C345.899 446.273 346.376 446.812 347.335 447.913C348.829 449.622 349.841 451.056 350.309 452.22C350.777 453.385 350.799 454.636 350.405 455.914C349.865 457.648 348.749 458.886 347.029 459.612C345.308 460.337 343.393 460.387 341.279 459.702C340.217 459.367 339.176 458.813 338.156 458.042C337.128 457.286 336.528 456.872 336.363 456.822C335.96 456.684 335.658 456.715 335.442 456.905C335.227 457.095 335.056 457.31 334.921 457.562C334.615 457.457 334.465 457.416 334.174 457.318C334.699 454.393 334.961 452.931 335.486 450.006C335.792 450.111 335.957 450.161 336.263 450.266Z" fill="black"/>
<path d="M166.398 390.148C166.351 390.237 166.327 390.281 166.272 390.385C165.937 390.189 165.692 390.077 165.557 390.044C165.302 389.985 165.112 390.055 164.979 390.27C164.915 390.389 164.866 390.554 164.815 390.794C164.764 391.033 164.716 391.447 164.641 392.017C164.357 394.345 164.208 395.524 163.939 397.86C165.898 396.327 166.873 395.568 168.832 394.035C169.055 393.867 169.232 393.713 169.356 393.588C169.494 393.471 169.58 393.345 169.65 393.249C169.793 392.982 169.798 392.756 169.631 392.533C169.528 392.403 169.344 392.247 169.047 392.052C169.095 391.962 169.119 391.918 169.174 391.814C170.257 392.466 170.792 392.788 171.875 393.44C171.828 393.529 171.804 393.574 171.749 393.678C171.451 393.558 171.196 393.499 170.992 393.524C170.682 393.569 170.285 393.777 169.785 394.179C166.829 396.441 165.355 397.564 162.368 399.81C162.279 399.763 162.249 399.747 162.16 399.699C162.599 396.004 162.833 394.164 163.286 390.477C163.396 389.696 163.401 389.184 163.325 388.934C163.248 388.683 163.065 388.452 162.762 388.234C162.809 388.145 162.833 388.1 162.888 387.996C164.283 388.852 164.988 389.284 166.383 390.14L166.398 390.148Z" fill="black"/>
<path d="M187.754 404.073C189.027 403.758 190.266 403.94 191.469 404.618C192.673 405.295 193.47 406.272 193.853 407.524C194.271 408.891 194.078 410.295 193.281 411.721C192.469 413.177 191.347 414.068 189.93 414.402C188.665 414.702 187.426 414.521 186.245 413.836C184.968 413.119 184.157 412.097 183.813 410.77C183.463 409.42 183.67 408.062 184.449 406.703C185.269 405.269 186.368 404.385 187.77 404.043L187.754 404.073ZM185.015 411.199C185.194 412.19 185.688 412.911 186.505 413.383C187.315 413.832 188.18 413.892 189.108 413.546C190.05 413.208 190.924 412.318 191.736 410.862C192.556 409.39 192.872 408.185 192.663 407.216C192.453 406.247 191.974 405.534 191.194 405.1C190.384 404.651 189.519 404.592 188.583 404.952C187.648 405.313 186.768 406.18 185.956 407.599C185.153 409.003 184.837 410.208 185.015 411.199Z" fill="black"/>
<path d="M206.702 424.538C207.232 424.762 207.606 424.847 207.826 424.792C208.038 424.752 208.286 424.465 208.555 423.959C209.843 421.535 210.483 420.331 211.772 417.907C212.032 417.417 212.132 417.05 212.054 416.837C211.985 416.609 211.697 416.361 211.215 416.048C211.271 415.944 211.294 415.899 211.35 415.795C212.822 416.577 213.55 416.965 215.022 417.747C216.256 418.403 217.195 419.15 217.844 420.009C219.011 421.545 219.103 423.273 218.122 425.154C217.759 425.838 217.285 426.406 216.693 426.874C216.102 427.341 215.409 427.64 214.615 427.771C214.115 427.849 213.633 427.86 213.175 427.788C212.334 427.684 211.409 427.345 210.375 426.814C208.843 426 208.085 425.597 206.553 424.783C206.609 424.679 206.632 424.634 206.688 424.53L206.702 424.538ZM209.658 425.651C209.722 425.781 209.944 425.937 210.286 426.119C211.357 426.688 212.368 426.939 213.273 426.886C214.677 426.793 215.79 425.955 216.62 424.393C217.362 422.996 217.455 421.71 216.964 420.553C216.536 419.563 215.698 418.736 214.479 418.088C214.167 417.922 213.958 417.849 213.799 417.86C213.663 417.864 213.525 417.981 213.398 418.219C211.928 420.985 211.193 422.367 209.723 425.133C209.605 425.356 209.585 425.537 209.658 425.651Z" fill="black"/>
<path d="M231.961 437.544C232.557 437.785 232.955 437.863 233.161 437.762C233.381 437.67 233.616 437.337 233.909 436.749C235.091 434.345 235.686 433.155 236.86 430.766C237.106 430.267 237.183 429.908 237.113 429.68C237.036 429.467 236.741 429.196 236.229 428.904C236.284 428.8 236.308 428.756 236.363 428.652C237.933 429.429 238.722 429.81 240.292 430.588C240.237 430.692 240.213 430.736 240.158 430.84C239.599 430.6 239.202 430.523 238.974 430.592C238.746 430.662 238.498 430.95 238.252 431.448C237.689 432.579 237.426 433.145 236.863 434.276C238.076 433.967 239.077 433.699 239.874 433.455C241.294 433.008 242.071 432.658 242.191 432.398C242.286 432.219 242.26 432.053 242.12 431.921C241.98 431.79 241.758 431.633 241.467 431.498C241.523 431.394 241.546 431.349 241.602 431.245C243.053 431.96 243.782 432.309 245.241 433.008C245.186 433.112 245.162 433.157 245.107 433.261C244.644 433.091 244.247 433.014 243.938 433.021C243.614 433.021 243.137 433.129 242.468 433.346C240.897 433.827 240.108 434.056 238.537 434.536C239.171 436.609 239.484 437.633 240.133 439.714C240.433 440.655 240.652 441.248 240.796 441.515C240.94 441.783 241.205 442.038 241.62 442.297C241.573 442.386 241.549 442.431 241.494 442.535C239.774 441.716 238.911 441.295 237.199 440.462C237.246 440.372 237.27 440.328 237.325 440.224C237.728 440.4 237.996 440.504 238.162 440.516C238.319 440.542 238.434 440.47 238.505 440.336C238.545 440.262 238.563 440.119 238.538 439.915C238.528 439.719 238.474 439.461 238.384 439.165C237.86 437.495 237.603 436.652 237.102 434.975C236.851 435.052 236.723 435.079 236.472 435.155C235.98 436.153 235.734 436.651 235.243 437.648C234.989 438.162 234.912 438.521 235.004 438.742C235.097 438.963 235.399 439.219 235.904 439.525C235.857 439.615 235.833 439.659 235.777 439.763C234.199 439.001 233.403 438.597 231.833 437.82C231.881 437.73 231.905 437.686 231.96 437.582L231.961 437.544Z" fill="black"/>
<path d="M250.288 446.655C250.343 446.551 250.367 446.507 250.422 446.402C250.811 446.533 251.142 446.518 251.425 446.382C251.715 446.231 252.314 445.749 253.223 444.935C255.666 442.744 256.899 441.645 259.319 439.422C259.423 439.478 259.483 439.509 259.595 439.55C259.53 443.367 259.505 445.28 259.463 449.091C259.455 449.716 259.497 450.139 259.59 450.322C259.676 450.52 259.867 450.698 260.178 450.902C260.123 451.006 260.099 451.05 260.059 451.162C258.614 450.509 257.891 450.182 256.454 449.513C256.509 449.409 256.533 449.364 256.588 449.26C257.021 449.414 257.306 449.489 257.456 449.493C257.607 449.497 257.715 449.401 257.811 449.185C257.842 449.126 257.876 448.991 257.903 448.796C257.931 448.601 257.951 448.383 257.957 448.157C257.973 447.517 257.988 447.201 258.012 446.546C256.522 445.869 255.778 445.511 254.288 444.834C253.494 445.575 253.023 446.03 252.853 446.207C252.69 446.369 252.574 446.516 252.525 446.643C252.407 446.866 252.439 447.093 252.593 447.27C252.688 447.378 252.895 447.526 253.214 447.715C253.159 447.819 253.135 447.864 253.08 447.968C251.963 447.45 251.397 447.188 250.28 446.67L250.288 446.655ZM258.021 445.884C258.082 444.047 258.112 443.129 258.173 441.292C256.824 442.539 256.138 443.147 254.774 444.386C256.077 444.984 256.717 445.286 258.006 445.876L258.021 445.884Z" fill="black"/>
<path d="M256.978 251.769C256.633 248.687 254.069 246.371 250.967 246.324C241.328 246.197 220.807 247.132 205.95 256.284C192.5 264.582 179.724 277.891 172.764 285.748C169.997 288.873 171.11 293.775 174.926 295.422L189.042 301.513C192.239 302.889 196.005 301.401 197.254 298.155C199.025 293.566 202.763 286.857 210.687 279.34C221.356 269.24 229.971 268.747 237.579 265.735C242.677 263.715 248.018 262.778 251.961 262.356C255.337 261.996 257.771 258.96 257.388 255.591L256.963 251.761L256.978 251.769Z" fill="#F3F1DD"/>
<path d="M211.315 243.535C212.045 242.017 210.929 240.279 209.249 240.282C204.299 240.302 195.414 240.729 190.544 243.327C182.948 247.356 175.473 253.491 171.631 256.845C170.36 257.943 170.686 259.985 172.229 260.634L181.612 264.687C182.514 265.071 183.567 264.849 184.211 264.104C187.172 260.757 195.558 251.618 200.287 250.146C203.757 249.072 206.114 248.8 207.456 248.75C208.316 248.711 209.089 248.226 209.454 247.467L211.329 243.543L211.315 243.535Z" fill="#F3F1DD"/>
</g>
<defs>
<clipPath id="clip0_141_13586">
<rect width="401.025" height="474.731" fill="white" transform="translate(222.81) rotate(27.9913)"/>
</clipPath>
</defs>
</svg>
