<svg width="615" height="282" viewBox="0 0 615 282" fill="none" xmlns="http://www.w3.org/2000/svg">
<path d="M126.564 127.558C126.564 127.558 144.334 129.154 154.913 128.439C164.674 127.776 195.613 118.855 203.125 115.083C211.093 111.094 216.087 109.467 220.325 107.644C224.562 105.82 238.312 97.5726 240.695 100.754L240.861 124.844C240.861 124.844 239.69 127.372 247.699 125.217C255.605 123.103 256.745 122.43 259.18 121.735C262.133 120.896 273.437 118.057 272.878 125.901C272.287 134.283 263.832 139.122 256.465 142.054C248.767 145.121 250.238 144.157 242.488 147.349C234.064 150.82 216.543 161.233 206.44 160.86C196.587 160.497 191.52 153.079 185.407 154.021C178.516 155.078 172.237 156.84 169.347 158.135C166.881 159.233 153.4 164.704 133.672 176.837L122.42 183.033L126.564 127.558Z" fill="#F0AFAF"/>
<path d="M122.42 184.08C122.223 184.08 122.026 184.029 121.86 183.915C121.539 183.707 121.363 183.345 121.384 182.961L125.528 127.487C125.549 127.207 125.684 126.948 125.891 126.772C126.098 126.596 126.378 126.502 126.658 126.533C126.834 126.554 144.469 128.119 154.841 127.414C164.29 126.772 195.105 117.954 202.658 114.162C208.326 111.323 212.554 109.644 215.952 108.308C217.372 107.748 218.677 107.23 219.92 106.702C220.812 106.318 222.179 105.624 223.765 104.806C232.178 100.506 239.317 97.1899 241.534 100.143C241.669 100.319 241.742 100.537 241.742 100.754L241.907 124.844C241.907 124.844 241.907 124.938 241.907 124.979C242.322 125.093 243.658 125.238 247.451 124.233C252.735 122.814 254.973 122.057 256.61 121.498C257.429 121.218 258.102 120.99 258.921 120.752C262.464 119.747 268.878 118.441 272.09 121.052C273.468 122.171 274.09 123.839 273.945 125.995C273.437 133.092 267.863 138.667 256.88 143.039C253.232 144.49 251.657 145.039 250.134 145.567C248.518 146.127 246.984 146.655 242.912 148.334C240.757 149.225 238.032 150.551 234.872 152.095C225.65 156.602 214.139 162.197 206.44 161.917C201.073 161.721 197.146 159.565 193.675 157.669C190.732 156.053 188.194 154.665 185.604 155.069C178.537 156.157 172.455 157.918 169.802 159.099C169.585 159.192 169.295 159.327 168.911 159.483C164.777 161.265 152.209 166.684 134.253 177.729L122.959 183.956C122.803 184.039 122.627 184.08 122.461 184.08H122.42ZM127.518 128.689L123.591 181.21L133.165 175.936C151.214 164.839 163.886 159.369 168.041 157.576L168.911 157.203C171.688 155.97 177.988 154.136 185.241 153.017C188.525 152.509 191.489 154.136 194.628 155.856C197.892 157.649 201.602 159.669 206.471 159.856C213.642 160.146 225.381 154.405 233.919 150.24C237.11 148.686 239.866 147.339 242.084 146.427C246.207 144.728 247.772 144.189 249.419 143.619C250.922 143.101 252.466 142.562 256.071 141.133C266.236 137.081 271.396 132.087 271.831 125.87C271.935 124.409 271.582 123.363 270.743 122.679C268.961 121.228 264.733 121.259 259.449 122.762C258.672 122.979 258.03 123.207 257.242 123.466C255.584 124.036 253.305 124.813 247.948 126.243C243.524 127.424 241.12 127.435 240.146 126.285C239.711 125.767 239.68 125.155 239.804 124.699L239.649 101.21C237.711 100.019 228.313 104.806 224.687 106.66C223.07 107.489 221.672 108.204 220.718 108.608C219.465 109.147 218.138 109.675 216.698 110.245C213.341 111.572 209.155 113.229 203.57 116.027C195.696 119.975 164.829 128.823 154.965 129.497C145.899 130.108 131.486 129.02 127.507 128.699L127.518 128.689Z" fill="black"/>
<path d="M214.17 131.725C225.008 125.093 242.415 126.088 242.415 126.088L214.17 131.725Z" fill="#F0AFAF"/>
<path d="M214.17 132.76C213.818 132.76 213.476 132.584 213.289 132.263C212.989 131.776 213.144 131.133 213.631 130.833C224.614 124.108 241.752 125.01 242.477 125.041C243.047 125.072 243.482 125.559 243.451 126.129C243.42 126.699 242.902 127.123 242.363 127.103C242.187 127.103 225.153 126.201 214.719 132.584C214.553 132.688 214.367 132.739 214.18 132.739L214.17 132.76Z" fill="black"/>
<path d="M461.589 174.164C461.506 174.164 461.413 174.154 461.33 174.133L454.046 172.237C453.632 172.134 453.321 171.771 453.279 171.346C453.238 170.921 453.456 170.507 453.839 170.31L456.896 168.766C457.414 168.507 458.025 168.714 458.284 169.222C458.543 169.73 458.336 170.351 457.828 170.61L457.217 170.921L461.848 172.123C462.397 172.268 462.729 172.838 462.594 173.387C462.47 173.854 462.056 174.164 461.589 174.164Z" fill="black"/>
<path d="M376.512 46.3164H240.861V236.769H376.512V46.3164Z" fill="#F2F0DC"/>
<path d="M377.548 237.804H239.825V45.2793H377.548V237.804ZM241.897 235.732H375.476V47.3516H241.897V235.732Z" fill="black"/>
<path d="M484.508 161.781C484.508 161.781 467.93 168.371 457.59 170.692C448.036 172.837 415.844 173.075 407.565 171.604C398.789 170.039 393.359 170.205 388.956 169.366C384.552 168.527 376.512 165.926 376.512 168.982V192.803C376.512 192.803 376.004 193.777 367.715 194.005C359.529 194.223 358.245 193.902 355.716 193.933C352.639 193.964 341.003 194.461 343.77 201.828C346.723 209.703 356.203 211.93 364.099 212.645C372.347 213.391 370.668 212.894 379.009 213.744C388.075 214.666 407.834 219.67 417.408 216.448C426.754 213.298 429.5 204.74 435.623 203.911C442.535 202.968 449.052 202.875 452.191 203.279C454.865 203.631 469.35 205.04 491.71 211.06L504.268 213.806L484.519 161.802L484.508 161.781Z" fill="#F0AFAF"/>
<path d="M409.067 218.552C402.384 218.552 394.468 217.226 387.681 216.086C384.21 215.506 381.216 215.008 378.895 214.77C374.512 214.324 372.896 214.252 371.186 214.169C369.58 214.096 367.912 214.024 364.006 213.672C352.235 212.604 345.303 208.843 342.806 202.191C342.05 200.171 342.174 198.399 343.179 196.928C345.511 193.519 352.038 192.939 355.717 192.897C356.566 192.897 357.271 192.918 358.141 192.949C359.871 193.021 362.224 193.115 367.694 192.97C372.792 192.835 374.782 192.41 375.486 192.182V168.983C375.486 168.247 375.776 167.626 376.325 167.19C377.942 165.906 381.309 166.558 386.272 167.709C387.308 167.947 388.303 168.175 389.163 168.341C391.007 168.693 393.08 168.869 395.494 169.076C398.706 169.346 402.716 169.688 407.762 170.589C416.082 172.071 448.13 171.76 457.372 169.688C467.516 167.408 483.97 160.891 484.136 160.829C484.395 160.725 484.685 160.735 484.933 160.839C485.192 160.953 485.389 161.16 485.483 161.419L505.231 213.423C505.366 213.775 505.294 214.179 505.045 214.469C504.796 214.76 504.413 214.884 504.04 214.801L491.482 212.055C471.07 206.564 457.486 204.947 453.02 204.409C452.616 204.357 452.295 204.326 452.057 204.295C449.176 203.922 442.845 203.953 435.758 204.927C433.158 205.279 431.116 207.341 428.754 209.724C425.967 212.532 422.817 215.713 417.719 217.422C415.305 218.231 412.331 218.552 409.057 218.552H409.067ZM356.038 194.959C355.934 194.959 355.831 194.959 355.727 194.959C350.235 195.021 346.174 196.192 344.879 198.088C344.267 198.979 344.226 200.078 344.744 201.456C346.94 207.289 353.302 210.615 364.192 211.599C368.057 211.952 369.694 212.024 371.279 212.097C373.02 212.169 374.668 212.252 379.113 212.698C381.496 212.946 384.521 213.444 388.023 214.034C397.39 215.609 410.228 217.754 417.077 215.454C421.698 213.9 424.672 210.895 427.293 208.253C429.811 205.714 432.194 203.31 435.479 202.865C442.752 201.87 449.311 201.839 452.326 202.233L453.269 202.347C457.776 202.885 471.474 204.523 491.979 210.035L502.61 212.356L483.908 163.118C480.178 164.569 466.666 169.708 457.807 171.698C448.171 173.863 416.051 174.164 407.378 172.62C402.426 171.739 398.478 171.408 395.297 171.138C392.831 170.931 390.697 170.744 388.749 170.382C387.868 170.216 386.853 169.978 385.785 169.729C383.081 169.097 378.543 168.061 377.589 168.817C377.558 168.838 377.538 168.859 377.538 168.983V192.804C377.538 192.97 377.496 193.135 377.424 193.28C377.206 193.695 376.636 194.804 367.736 195.042C362.203 195.187 359.799 195.094 358.038 195.021C357.312 194.99 356.711 194.969 356.027 194.969L356.038 194.959Z" fill="black"/>
<path d="M401.701 190.69C389.422 187.415 375.932 193.135 375.932 193.135L401.701 190.69Z" fill="#F0AFAF"/>
<path d="M375.932 194.171C375.528 194.171 375.144 193.932 374.978 193.539C374.761 193.01 374.999 192.409 375.528 192.181C376.098 191.943 389.495 186.358 401.97 189.695C402.519 189.84 402.851 190.41 402.706 190.959C402.561 191.508 401.991 191.839 401.441 191.694C389.671 188.555 376.471 194.036 376.346 194.088C376.212 194.14 376.077 194.171 375.942 194.171H375.932Z" fill="black"/>
<path d="M143.681 115.031L152.178 172.34L41.4454 213.63C36.0989 215.63 30.5038 211.454 29.9443 205.061L24.7947 146.022C24.3284 140.717 27.5819 135.92 32.1927 135.091L143.681 115.031Z" fill="#EF9A5C"/>
<path d="M38.6998 215.164C36.8451 215.164 35.0007 214.553 33.4051 213.361C30.9287 211.517 29.3331 208.522 29.0429 205.165L23.8933 146.126C23.3856 140.282 26.9707 134.977 32.0477 134.065L143.536 114.006C144.023 113.923 144.489 114.296 144.572 114.855L153.069 172.164C153.141 172.672 152.882 173.159 152.457 173.325L41.7253 214.615C40.7306 214.988 39.7152 215.164 38.6998 215.164ZM142.935 116.213L32.3379 136.106C28.2037 136.853 25.2921 141.163 25.7066 145.919L30.8562 204.958C31.0945 207.693 32.3897 210.118 34.3998 211.62C36.4099 213.123 38.8863 213.485 41.1761 212.636L151.162 171.625L142.946 116.213H142.935Z" fill="black"/>
<path d="M471.515 157.058L476.126 214.864L580.382 222.842C586.703 223.329 591.739 216.532 590.713 208.927L583.356 154.654C582.507 148.416 577.823 144.044 572.663 144.676L471.526 157.058H471.515Z" fill="#38424A"/>
<path d="M581.015 223.909C580.787 223.909 580.559 223.909 580.331 223.878L476.074 215.899C475.66 215.868 475.318 215.475 475.277 214.967L470.666 157.161C470.624 156.591 470.956 156.083 471.433 156.031L572.57 143.65C578.176 142.976 583.273 147.722 584.196 154.488L591.552 208.76C592.091 212.698 591.138 216.656 588.931 219.619C586.89 222.375 584.03 223.909 581.004 223.909H581.015ZM476.903 213.889L580.434 221.816C583.19 222.033 585.822 220.718 587.667 218.231C589.511 215.744 590.319 212.418 589.863 209.102L582.507 154.829C581.73 149.141 577.45 145.131 572.736 145.722L472.448 158L476.903 213.91V213.889Z" fill="black"/>
<path d="M272.048 83.7925C271.292 83.7925 270.567 83.7407 269.883 83.6267C269.199 83.5127 268.65 83.378 268.235 83.2123V80.7773C268.712 80.9846 269.241 81.1503 269.831 81.2643C270.422 81.3887 270.961 81.4508 271.448 81.4508C272.183 81.4508 272.701 81.399 273.012 81.2954C273.323 81.1918 273.478 80.9846 273.478 80.6737C273.478 80.4147 273.385 80.2178 273.209 80.0728C273.033 79.9277 272.753 79.793 272.37 79.6583C271.986 79.5236 271.499 79.3578 270.898 79.1506C269.987 78.819 269.282 78.4357 268.795 78.0005C268.308 77.5653 268.059 76.954 268.059 76.1354C268.059 75.1925 268.432 74.4362 269.168 73.8456C269.904 73.2653 271.033 72.9648 272.535 72.9648C273.167 72.9648 273.8 73.0167 274.421 73.1099C275.053 73.2032 275.561 73.3171 275.944 73.4311V75.8453C275.53 75.6692 275.053 75.5345 274.514 75.4412C273.976 75.348 273.499 75.3065 273.085 75.3065C272.535 75.3065 272.069 75.3583 271.696 75.4723C271.323 75.5863 271.137 75.8039 271.137 76.1354C271.137 76.353 271.24 76.5292 271.437 76.6639C271.634 76.7986 271.924 76.9229 272.308 77.0369C272.691 77.1508 273.136 77.3063 273.665 77.5031C274.4 77.7725 274.981 78.0419 275.395 78.3113C275.81 78.5807 276.12 78.9019 276.297 79.2749C276.473 79.6479 276.556 80.1246 276.556 80.7048C276.556 81.6995 276.162 82.4559 275.364 82.9843C274.577 83.5127 273.468 83.7718 272.038 83.7718L272.048 83.7925Z" fill="black"/>
<path d="M273.043 72.1052V68.8828H276.152V72.1052H273.043Z" fill="black"/>
<path d="M281.633 83.6062V77.3168C281.633 76.6433 281.508 76.146 281.249 75.8248C280.99 75.5036 280.503 75.3378 279.788 75.3378C279.353 75.3378 278.908 75.3896 278.462 75.4932C278.017 75.5968 277.613 75.7211 277.24 75.8558V73.6592C277.623 73.4831 278.11 73.3277 278.69 73.193C279.27 73.0686 279.851 72.9961 280.441 72.9961C281.954 72.9961 283.052 73.3277 283.726 73.9908C284.399 74.6539 284.741 75.6486 284.741 76.9852V83.5958H281.633V83.6062Z" fill="black"/>
<path d="M291.196 83.7937C290.834 83.7937 290.44 83.7626 289.994 83.7108C289.549 83.659 289.165 83.5761 288.844 83.4621L285.995 76.4371H289.02L291.103 81.5452C292.605 81.4727 293.362 80.3122 293.362 78.0742C293.362 77.0795 293.206 76.4164 292.885 76.0641C292.574 75.7118 292.025 75.5356 291.238 75.5356H290.461V73.1836H291.777C294.885 73.1836 296.439 74.8207 296.439 78.0845C296.439 79.4212 296.222 80.5091 295.776 81.3587C295.33 82.198 294.719 82.8197 293.921 83.2134C293.134 83.6071 292.222 83.804 291.196 83.804V83.7937Z" fill="black"/>
<path d="M303.589 83.6066L301.33 73.1934H304.2L305.278 79.348L306.759 75.0273V73.1934H308.914L310.707 79.348L311.764 73.1934H314.613L312.334 83.6066H309.712L308.013 78.0943L306.179 83.6066H303.558H303.589Z" fill="black"/>
<path d="M315.649 83.6057V81.3262H318.136V83.6057H315.649Z" fill="black"/>
<path d="M323.317 83.7925C322.56 83.7925 321.835 83.7407 321.151 83.6267C320.467 83.5127 319.918 83.378 319.504 83.2123V80.7773C319.98 80.9846 320.509 81.1503 321.099 81.2643C321.69 81.3887 322.229 81.4508 322.716 81.4508C323.451 81.4508 323.969 81.399 324.28 81.2954C324.591 81.1918 324.746 80.9846 324.746 80.6737C324.746 80.4147 324.653 80.2178 324.477 80.0728C324.301 79.9277 324.021 79.793 323.638 79.6583C323.254 79.5236 322.767 79.3578 322.166 79.1506C321.255 78.819 320.55 78.4357 320.063 78.0005C319.576 77.5653 319.327 76.954 319.327 76.1354C319.327 75.1925 319.7 74.4362 320.436 73.8456C321.172 73.2653 322.301 72.9648 323.804 72.9648C324.436 72.9648 325.068 73.0167 325.689 73.1099C326.321 73.2032 326.829 73.3171 327.212 73.4311V75.8453C326.798 75.6692 326.321 75.5345 325.783 75.4412C325.244 75.348 324.767 75.3065 324.353 75.3065C323.804 75.3065 323.337 75.3583 322.964 75.4723C322.591 75.5863 322.405 75.8039 322.405 76.1354C322.405 76.353 322.508 76.5292 322.705 76.6639C322.902 76.7986 323.192 76.9229 323.576 77.0369C323.959 77.1508 324.404 77.3063 324.933 77.5031C325.669 77.7725 326.249 78.0419 326.663 78.3113C327.078 78.5807 327.389 78.9019 327.565 79.2749C327.741 79.6479 327.824 80.1246 327.824 80.7048C327.824 81.6995 327.43 82.4559 326.632 82.9843C325.845 83.5127 324.736 83.7718 323.306 83.7718L323.317 83.7925Z" fill="black"/>
<path d="M329.026 83.6057V81.3262H331.512V83.6057H329.026Z" fill="black"/>
<path d="M338.248 83.7937C336.683 83.7937 335.429 83.4206 334.497 82.685C333.564 81.9493 333.098 80.8199 333.098 79.2968V73.1836H336.206V79.3901C336.206 80.0946 336.372 80.6231 336.704 80.9546C337.035 81.2862 337.553 81.452 338.248 81.452C338.942 81.452 339.439 81.2862 339.771 80.9546C340.102 80.6231 340.268 80.0946 340.268 79.3901V73.1836H343.387V79.2968C343.387 80.8096 342.92 81.939 341.988 82.685C341.055 83.4206 339.802 83.7937 338.237 83.7937H338.248Z" fill="black"/>
<path d="M345.034 83.6057V81.3262H347.521V83.6057H345.034Z" fill="black"/>
<path d="M261.78 103.479C261.128 103.479 260.527 103.376 259.977 103.169C259.428 102.961 258.993 102.619 258.672 102.143C258.351 101.666 258.195 101.034 258.195 100.236C258.195 99.1691 258.548 98.3401 259.263 97.7392C259.977 97.1382 260.983 96.8377 262.278 96.8377H265.075V96.4544C265.075 95.9363 264.899 95.5737 264.536 95.3457C264.174 95.1178 263.594 95.0038 262.785 95.0038C262.164 95.0038 261.573 95.0452 260.993 95.1385C260.413 95.2317 259.843 95.3664 259.273 95.5426V93.3045C259.812 93.1284 260.454 92.973 261.179 92.8486C261.905 92.7243 262.63 92.6621 263.335 92.6621C263.676 92.6621 264.008 92.6828 264.319 92.7139C264.63 92.745 264.92 92.7968 265.21 92.859H269.085L268.93 95.1696H267.79C267.914 95.3768 268.018 95.6462 268.08 95.9674C268.142 96.299 268.173 96.6305 268.173 96.9828V103.272H265.065V99.0344H262.775C262.288 99.0344 261.905 99.1069 261.625 99.2623C261.345 99.4177 261.21 99.7182 261.21 100.174C261.21 100.589 261.324 100.868 261.563 101.024C261.801 101.179 262.184 101.252 262.713 101.252C262.92 101.252 263.127 101.252 263.335 101.221C263.542 101.19 263.718 101.169 263.873 101.117V103.2C263.335 103.376 262.63 103.469 261.77 103.469L261.78 103.479Z" fill="black"/>
<path d="M266.07 108.204V106.1H264.909L265.023 104.152H268.629V108.204H266.06H266.07Z" fill="black"/>
<path d="M274.276 103.48C273.52 103.48 272.795 103.428 272.111 103.314C271.427 103.2 270.878 103.066 270.463 102.9V100.465C270.94 100.672 271.468 100.838 272.059 100.952C272.65 101.076 273.188 101.138 273.675 101.138C274.411 101.138 274.929 101.087 275.24 100.983C275.551 100.879 275.706 100.672 275.706 100.361C275.706 100.102 275.613 99.9053 275.437 99.7603C275.261 99.6152 274.981 99.4805 274.597 99.3458C274.214 99.2111 273.727 99.0453 273.126 98.8381C272.214 98.5065 271.51 98.1232 271.023 97.688C270.536 97.2528 270.287 96.6415 270.287 95.8229C270.287 94.88 270.66 94.1237 271.396 93.5331C272.131 92.9528 273.261 92.6523 274.763 92.6523C275.395 92.6523 276.027 92.7042 276.649 92.7974C277.281 92.8907 277.789 93.0046 278.172 93.1186V95.5328C277.758 95.3567 277.281 95.222 276.742 95.1287C276.203 95.0355 275.727 94.994 275.312 94.994C274.763 94.994 274.297 95.0458 273.924 95.1598C273.551 95.2738 273.364 95.4914 273.364 95.8229C273.364 96.0405 273.468 96.2167 273.665 96.3514C273.862 96.4861 274.152 96.6104 274.535 96.7244C274.919 96.8383 275.364 96.9938 275.893 97.1906C276.628 97.46 277.209 97.7294 277.623 97.9988C278.037 98.2682 278.348 98.5894 278.524 98.9624C278.701 99.3354 278.783 99.8121 278.783 100.392C278.783 101.387 278.39 102.143 277.592 102.672C276.804 103.2 275.696 103.459 274.266 103.459L274.276 103.48Z" fill="black"/>
<path d="M283.861 103.294V97.0043C283.861 96.3308 283.736 95.8335 283.477 95.5123C283.218 95.1911 282.731 95.0253 282.016 95.0253C281.581 95.0253 281.135 95.0771 280.69 95.1807C280.244 95.2843 279.84 95.4086 279.467 95.5433V93.3467C279.851 93.1706 280.338 93.0152 280.918 92.8805C281.498 92.7561 282.078 92.6836 282.669 92.6836C284.182 92.6836 285.28 93.0152 285.954 93.6783C286.627 94.3414 286.969 95.3361 286.969 96.6727V103.283H283.861V103.294Z" fill="black"/>
<path d="M289.01 103.292V99.9975C289.01 99.4587 289.114 98.9614 289.321 98.5262C289.528 98.091 289.901 97.7698 290.461 97.5937L288.606 97.0756V94.4542C289.155 94.019 289.88 93.6149 290.782 93.2523C291.683 92.8896 292.709 92.7031 293.87 92.7031C295.59 92.7031 296.885 93.0554 297.755 93.7496C298.625 94.4542 299.061 95.5421 299.061 97.0342V103.303H295.952V97.0549C295.952 96.3192 295.776 95.8012 295.424 95.4903C295.071 95.1795 294.491 95.0241 293.693 95.0241C293.196 95.0241 292.73 95.0966 292.295 95.2417C291.859 95.3867 291.518 95.5629 291.258 95.7805V95.998L293.341 96.599V98.2361C292.875 98.3604 292.554 98.5677 292.377 98.8371C292.201 99.1065 292.108 99.5106 292.108 100.049V103.313H289L289.01 103.292Z" fill="black"/>
<path d="M294.108 91.7197V90.0412H292.605V88H296.139V89.6578H300.231L300.117 91.7197H294.118H294.108Z" fill="black"/>
<path d="M304.573 103.294V97.0043C304.573 96.3308 304.449 95.8335 304.19 95.5123C303.931 95.1911 303.444 95.0253 302.729 95.0253C302.293 95.0253 301.848 95.0771 301.402 95.1807C300.957 95.2843 300.553 95.4086 300.18 95.5433V93.3467C300.563 93.1706 301.05 93.0152 301.63 92.8805C302.211 92.7561 302.791 92.6836 303.381 92.6836C304.894 92.6836 305.992 93.0152 306.666 93.6783C307.339 94.3414 307.681 95.3361 307.681 96.6727V103.283H304.573V103.294Z" fill="black"/>
<path d="M312.717 103.48C312.043 103.48 311.411 103.428 310.821 103.324C310.22 103.221 309.671 103.055 309.173 102.827V100.516C309.588 100.713 310.033 100.858 310.52 100.982C311.007 101.107 311.494 101.159 311.971 101.159C313.059 101.159 313.846 100.92 314.333 100.444C314.82 99.9671 315.059 99.1796 315.059 98.0916C315.059 97.0037 314.82 96.2266 314.333 95.75C313.857 95.263 313.069 95.0247 311.992 95.0247C311.515 95.0247 311.028 95.0765 310.531 95.1905C310.033 95.3044 309.577 95.4495 309.173 95.6256V93.3461C310.23 92.9109 311.422 92.6934 312.738 92.6934C316.333 92.6934 318.136 94.4962 318.136 98.0916C318.136 101.687 316.333 103.49 312.717 103.49V103.48Z" fill="black"/>
<path d="M319.618 103.293V92.8795H322.726V95.8636H324.881C325.451 95.8636 325.835 95.7392 326.062 95.4802C326.28 95.2212 326.394 94.8378 326.394 94.3197V92.8691H329.513V94.3923C329.513 94.9829 329.409 95.5113 329.212 95.9879C329.015 96.4542 328.653 96.8065 328.145 97.0241C328.632 97.2313 328.974 97.5421 329.171 97.9462C329.368 98.3503 329.461 98.8373 329.461 99.3761V103.293H326.332V99.7802C326.332 99.2103 326.218 98.8166 326 98.5886C325.783 98.3607 325.389 98.2467 324.829 98.2467H322.726V103.303H319.618V103.293Z" fill="black"/>
<path d="M335.139 103.479C334.051 103.479 333.17 103.148 332.518 102.495C331.865 101.842 331.533 100.91 331.533 99.718V92.8691H334.642V99.4486C334.642 100.039 334.776 100.474 335.046 100.744C335.315 101.013 335.73 101.148 336.279 101.148C336.704 101.148 337.108 101.055 337.501 100.878C337.895 100.702 338.206 100.485 338.434 100.246V92.8795H341.553V103.293H338.683L338.548 102.381C338.113 102.712 337.605 102.982 337.045 103.179C336.476 103.376 335.844 103.479 335.139 103.479Z" fill="black"/>
<path d="M336.61 91.7197V90.0412H335.108V88H338.641V89.6578H342.734L342.62 91.7197H336.621H336.61Z" fill="black"/>
<path d="M347.075 103.294V97.0043C347.075 96.3308 346.951 95.8335 346.692 95.5123C346.433 95.1911 345.946 95.0253 345.231 95.0253C344.796 95.0253 344.35 95.0771 343.905 95.1807C343.459 95.2843 343.055 95.4086 342.682 95.5433V93.3467C343.066 93.1706 343.552 93.0152 344.133 92.8805C344.713 92.7561 345.293 92.6836 345.884 92.6836C347.397 92.6836 348.495 93.0152 349.168 93.6783C349.842 94.3414 350.184 95.3361 350.184 96.6727V103.283H347.075V103.294Z" fill="black"/>
<path d="M358.017 103.293V93.7292L355.976 94.0608V91.4601L361.125 90.6934V103.303H358.017V103.293Z" fill="black"/>
<path d="M306.883 226.561C320.772 226.561 332.031 223.434 332.031 219.577C332.031 215.72 320.772 212.594 306.883 212.594C292.995 212.594 281.736 215.72 281.736 219.577C281.736 223.434 292.995 226.561 306.883 226.561Z" fill="#3A5F74"/>
<path d="M325.917 157.399C324.519 154.259 323.824 153.213 321.027 151.109C319.048 149.628 316.136 148.312 315.09 147.504C314.043 146.695 314.043 144.468 314.043 143.069V130.148C314.043 129.796 314.737 129.796 314.737 129.454V124.564C314.737 124.211 315.09 124.211 315.09 123.517C315.09 122.823 314.737 123.165 314.737 122.47C314.737 121.776 314.737 118.626 314.385 117.228C314.033 115.829 306.697 115.477 306.697 115.477C306.697 115.477 299.361 115.829 299.009 117.228C298.657 118.626 298.657 121.766 298.657 122.47C298.657 123.175 298.304 122.823 298.304 123.517C298.304 124.211 298.657 124.211 298.657 124.564V129.454C298.657 129.806 299.351 129.806 299.351 130.148V143.069C299.351 144.468 299.351 146.695 298.304 147.504C297.258 148.312 294.336 149.628 292.367 151.109C289.57 153.202 288.875 154.249 287.477 157.399C286.264 160.124 286.078 161.243 286.078 164.382V213.64C286.078 215.733 286.772 218.531 289.922 219.577C293.061 220.624 306.687 221.505 306.687 221.505C306.687 221.505 320.312 220.624 323.451 219.577C326.591 218.531 327.295 215.733 327.295 213.64V164.382C327.295 161.243 327.109 160.124 325.897 157.399H325.917Z" fill="#D1D3D2"/>
<path d="M306.707 222.003H306.676C306.117 221.962 292.947 221.102 289.787 220.045C286.15 218.833 285.601 215.507 285.601 213.642V164.384C285.601 161.234 285.767 160.053 287.041 157.193C288.482 153.96 289.217 152.862 292.087 150.707C293.237 149.847 294.647 149.059 295.9 148.375C296.812 147.868 297.6 147.432 298.024 147.111C298.884 146.448 298.884 144.334 298.884 143.07V130.274C298.884 130.274 298.833 130.243 298.812 130.232C298.594 130.129 298.19 129.922 298.19 129.445V124.554C298.19 124.554 298.169 124.534 298.149 124.513C298.035 124.347 297.838 124.078 297.838 123.508C297.838 123.052 297.962 122.824 298.159 122.638C298.159 122.638 298.18 122.627 298.18 122.617C298.18 122.617 298.18 122.575 298.18 122.461C298.18 119.902 298.304 118.058 298.542 117.105C298.936 115.519 304.366 115.094 306.686 114.98H306.728C309.049 115.084 314.478 115.519 314.872 117.105C315.11 118.058 315.235 119.912 315.235 122.461C315.235 122.586 315.245 122.627 315.255 122.627C315.255 122.627 315.255 122.627 315.276 122.627C315.463 122.814 315.597 123.042 315.597 123.498C315.597 124.067 315.4 124.337 315.286 124.503C315.266 124.523 315.255 124.544 315.245 124.575V129.445C315.245 129.922 314.851 130.129 314.634 130.232C314.613 130.232 314.582 130.264 314.561 130.274V143.07C314.561 144.251 314.561 146.448 315.421 147.111C315.846 147.432 316.633 147.878 317.545 148.375C318.789 149.069 320.208 149.847 321.358 150.707C324.218 152.851 324.964 153.96 326.404 157.193C327.679 160.053 327.844 161.223 327.844 164.384V213.642C327.844 215.517 327.306 218.833 323.658 220.045C320.488 221.102 307.329 221.962 306.769 222.003H306.728H306.707ZM299.164 129.31C299.164 129.31 299.216 129.341 299.237 129.352C299.454 129.455 299.858 129.663 299.858 130.139V143.06C299.858 144.604 299.858 146.925 298.615 147.878C298.128 148.251 297.309 148.696 296.367 149.225C295.144 149.898 293.766 150.665 292.668 151.484C289.922 153.546 289.279 154.54 287.932 157.576C286.782 160.166 286.575 161.182 286.575 164.363V213.621C286.575 215.579 287.186 218.128 290.077 219.092C293.051 220.086 305.951 220.946 306.686 220.998C307.422 220.946 320.322 220.086 323.296 219.092C326.197 218.128 326.798 215.579 326.798 213.621V164.363C326.798 161.182 326.591 160.166 325.441 157.576C324.094 154.53 323.451 153.535 320.705 151.484C319.617 150.665 318.229 149.898 317.006 149.225C316.053 148.696 315.245 148.251 314.758 147.878C313.515 146.925 313.515 144.593 313.515 143.06V130.139C313.515 129.663 313.919 129.455 314.136 129.352C314.157 129.352 314.188 129.321 314.209 129.31V124.554C314.209 124.254 314.344 124.067 314.426 123.943C314.509 123.839 314.551 123.767 314.551 123.508C314.551 123.384 314.54 123.342 314.53 123.342C314.53 123.342 314.53 123.342 314.509 123.342C314.323 123.156 314.188 122.928 314.188 122.472C314.188 120.037 314.074 118.213 313.857 117.353C313.618 116.794 310.261 116.151 306.645 115.986C303.039 116.162 299.672 116.804 299.433 117.364C299.216 118.224 299.102 120.037 299.102 122.482C299.102 122.938 298.978 123.166 298.781 123.352C298.781 123.352 298.76 123.363 298.76 123.373C298.76 123.373 298.76 123.415 298.76 123.529C298.76 123.777 298.812 123.85 298.884 123.964C298.978 124.088 299.102 124.275 299.102 124.575V129.331L299.164 129.31Z" fill="black"/>
<path d="M298.843 123.507C298.843 123.507 302.687 123.154 305.826 123.154C308.966 123.154 314.561 123.507 314.561 123.507C314.561 123.507 314.758 117.331 313.96 116.927C313.162 116.523 308.272 115.477 306.697 115.477C305.122 115.477 299.009 117.228 299.009 117.228L298.833 123.517L298.843 123.507Z" fill="#F2F0DE"/>
<path d="M298.335 124.057L298.532 116.846L298.884 116.742C299.133 116.669 305.08 114.98 306.707 114.98C308.334 114.98 313.307 116.037 314.188 116.493C314.903 116.856 315.193 119.229 315.058 123.529L315.038 124.036L314.53 124.005C314.478 124.005 308.925 123.653 305.826 123.653C302.728 123.653 298.926 123.995 298.884 124.005L298.335 124.057ZM305.826 122.669C308.396 122.669 312.624 122.907 314.085 122.99C314.136 120.524 314.002 117.83 313.691 117.353C312.852 116.98 308.21 115.975 306.697 115.975C305.536 115.975 301.392 117.073 299.496 117.602L299.351 122.979C300.532 122.886 303.402 122.669 305.826 122.669Z" fill="black"/>
<path d="M299.019 125.434H314.737L314.592 127.578L306.345 127.537H299.009V125.444L299.019 125.434Z" fill="#F2F0DE"/>
<path d="M315.069 128.067L306.365 128.025H298.532V124.938H315.276L315.069 128.067ZM299.517 127.03H306.355L314.136 127.072L314.209 125.922H299.506V127.03H299.517Z" fill="black"/>
<path d="M303.889 116.202L303.216 140.448C303.216 140.448 304.967 141.142 306.355 141.142C307.744 141.142 310.541 140.448 310.541 140.448L310.085 116.13L306.707 115.467L303.889 116.202Z" fill="#6A8C65"/>
<path d="M306.355 141.65C304.884 141.65 303.101 140.945 303.029 140.914C302.832 140.842 302.708 140.645 302.718 140.438L303.392 116.202C303.392 115.974 303.547 115.788 303.765 115.726L306.583 114.99C306.655 114.969 306.728 114.969 306.801 114.99L310.178 115.653C310.406 115.695 310.572 115.892 310.572 116.13L311.028 140.448C311.028 140.676 310.873 140.883 310.655 140.935C310.541 140.966 307.785 141.65 306.345 141.65H306.355ZM303.713 140.117C304.262 140.303 305.412 140.666 306.355 140.666C307.381 140.666 309.246 140.262 310.044 140.075L309.598 116.555L306.718 115.985L304.366 116.596L303.713 140.117Z" fill="black"/>
<path d="M306.355 141.651C304.884 141.651 303.101 140.946 303.029 140.915L302.708 140.791L303.402 115.83L306.687 114.98L310.572 115.747L311.049 140.853L310.665 140.946C310.551 140.977 307.795 141.661 306.355 141.661V141.651ZM303.713 140.117C304.262 140.304 305.412 140.666 306.355 140.666C307.381 140.666 309.246 140.262 310.044 140.076L309.598 116.555L306.718 115.986L304.366 116.597L303.713 140.117Z" fill="black"/>
<path d="M309.204 149.836C309.484 149.349 310.075 149.152 310.593 149.359C312.209 150.033 315.545 151.659 317.359 154.25C318.996 156.591 320.167 159.72 320.757 161.534C320.996 162.249 320.457 162.984 319.7 162.984H316.913C316.281 162.984 315.763 162.466 315.794 161.834C315.825 160.943 315.691 159.555 314.913 157.741C313.867 155.296 312.468 154.602 311.422 153.555C310.717 152.851 309.899 152.312 309.277 151.96C308.738 151.659 308.552 150.975 308.862 150.447L309.204 149.846V149.836Z" fill="#F2F0DE"/>
<path d="M317.39 151.742C317.39 151.441 317.69 151.224 317.97 151.348C318.789 151.711 320.239 152.415 320.861 153.203C321.835 154.415 322.643 155.98 323.037 156.809C323.172 157.078 322.964 157.399 322.664 157.399H320.809C320.633 157.399 320.478 157.285 320.415 157.119C320.167 156.353 319.431 154.229 318.747 153.648C318.25 153.224 317.877 153.006 317.659 152.902C317.514 152.84 317.421 152.695 317.421 152.54L317.39 151.752V151.742Z" fill="#F2F0DE"/>
<path d="M306.345 162.57C306.345 162.57 299.278 166.725 297.724 168.093C296.17 169.461 292.16 173.004 292.16 173.004L286.42 173.999V209.456C286.42 209.456 297.548 212.543 306.883 212.595C316.219 212.647 327.005 210.015 327.005 210.015L327.13 173.377L319.732 172.497C319.783 172.621 317.131 169.979 314.416 167.813C311.867 165.793 306.345 162.581 306.345 162.581V162.57Z" fill="#E6B2B0"/>
<path d="M307.153 213.082C307.06 213.082 306.966 213.082 306.873 213.082C297.579 213.03 286.399 209.953 286.285 209.922C286.067 209.86 285.922 209.663 285.922 209.445V173.988C285.922 173.75 286.099 173.543 286.337 173.501L291.942 172.528C292.585 171.958 296.004 168.932 297.403 167.699C298.936 166.363 305.433 162.518 306.065 162.145C306.22 162.031 306.448 162.031 306.614 162.135C307.018 162.363 312.22 165.409 314.727 167.399C316.623 168.901 318.447 170.611 319.431 171.522C319.638 171.709 319.825 171.895 319.939 171.989L327.202 172.859C327.451 172.89 327.637 173.097 327.637 173.346L327.513 209.984C327.513 210.212 327.358 210.409 327.14 210.461C327.036 210.492 316.395 213.061 307.174 213.061L307.153 213.082ZM286.917 209.072C288.896 209.59 298.656 212.056 306.883 212.098C315.079 212.139 324.529 210.077 326.508 209.611L326.622 173.802L319.825 172.983C319.597 173.056 319.4 172.869 318.737 172.248C317.763 171.346 315.96 169.657 314.095 168.176C311.909 166.435 307.443 163.783 306.334 163.13C305.07 163.886 299.382 167.274 298.035 168.445C296.501 169.792 292.512 173.325 292.481 173.356C292.409 173.419 292.326 173.46 292.232 173.47L286.896 174.393V209.051L286.917 209.072Z" fill="black"/>
<path d="M307.142 213.091H306.873C297.579 213.04 286.399 209.962 286.285 209.931L285.922 209.828V173.583L291.932 172.547C292.574 171.977 295.983 168.962 297.382 167.729C298.957 166.351 305.785 162.331 306.075 162.155L306.324 162.01L306.573 162.155C306.801 162.29 312.157 165.408 314.706 167.429C316.602 168.942 318.499 170.703 319.421 171.563C319.618 171.749 319.804 171.926 319.918 172.019L327.617 172.941L327.492 210.408L327.119 210.501C327.016 210.532 316.374 213.102 307.142 213.102V213.091ZM286.907 209.071C288.886 209.6 298.646 212.055 306.873 212.097H307.132C315.266 212.097 324.539 210.066 326.498 209.61L326.612 173.801L319.814 172.982C319.586 173.055 319.39 172.868 318.737 172.257C317.763 171.345 315.96 169.656 314.085 168.175C311.898 166.434 307.422 163.771 306.314 163.129C305.049 163.875 299.361 167.273 298.014 168.444C296.46 169.812 292.46 173.355 292.46 173.355L292.357 173.449L286.886 174.392V209.05L286.907 209.071Z" fill="black"/>
<path d="M310.821 174.443L315.411 171.325C315.763 171.086 316.24 171.252 316.375 171.667C316.903 173.293 317.835 177.044 316.478 179.707C316.323 179.997 315.991 180.121 315.691 180.007C314.292 179.469 310.5 177.759 310.531 174.982C310.531 174.765 310.645 174.557 310.821 174.433V174.443Z" fill="#E29D67"/>
<path d="M315.919 180.153C315.825 180.153 315.742 180.133 315.66 180.102C314.976 179.843 313.66 179.273 312.52 178.413C311.121 177.366 310.417 176.206 310.437 174.983C310.437 174.734 310.562 174.496 310.769 174.361L315.359 171.243C315.556 171.108 315.784 171.077 316.012 171.149C316.24 171.232 316.406 171.408 316.478 171.636C316.976 173.17 317.97 177.024 316.571 179.749C316.447 179.998 316.188 180.153 315.919 180.153ZM315.774 171.315C315.67 171.315 315.566 171.346 315.473 171.408L310.883 174.527C310.728 174.631 310.634 174.807 310.634 174.983C310.603 177.729 314.53 179.449 315.732 179.915C315.981 180.008 316.271 179.905 316.395 179.656C317.763 177.004 316.779 173.201 316.292 171.699C316.24 171.522 316.116 171.398 315.95 171.336C315.898 171.315 315.836 171.305 315.774 171.305V171.315Z" fill="black"/>
<path d="M313.162 175.458L315.514 174.029C315.618 173.966 315.753 174.008 315.805 174.132C316.043 174.733 316.613 176.557 315.991 179.043C315.95 179.209 315.742 179.251 315.639 179.116L313.111 175.769C313.111 175.769 313.069 175.686 313.069 175.645C313.069 175.572 313.1 175.5 313.173 175.469L313.162 175.458Z" fill="#CA5F3E"/>
<path d="M315.794 179.294C315.701 179.294 315.618 179.252 315.556 179.18L313.028 175.833C312.986 175.781 312.966 175.719 312.966 175.646C312.966 175.543 313.017 175.439 313.111 175.387L315.463 173.957C315.535 173.916 315.628 173.906 315.711 173.926C315.794 173.957 315.867 174.02 315.898 174.103C316.157 174.766 316.706 176.589 316.095 179.076C316.064 179.19 315.981 179.273 315.867 179.304C315.846 179.304 315.825 179.304 315.805 179.304L315.794 179.294ZM315.618 174.103C315.618 174.103 315.587 174.103 315.566 174.113L313.214 175.543C313.214 175.543 313.162 175.595 313.162 175.636C313.162 175.657 313.162 175.677 313.183 175.698L315.711 179.045C315.711 179.045 315.794 179.086 315.805 179.076C315.836 179.076 315.867 179.045 315.877 179.003C316.478 176.569 315.95 174.807 315.691 174.154C315.691 174.123 315.66 174.103 315.628 174.092C315.628 174.092 315.608 174.092 315.597 174.092L315.618 174.103Z" fill="black"/>
<path d="M302.045 174.008L297.486 171.273C297.123 171.055 296.657 171.252 296.553 171.677C296.118 173.397 295.299 177.417 296.284 180.287C296.418 180.671 296.853 180.837 297.195 180.629C298.698 179.749 302.386 177.324 302.376 174.558C302.376 174.33 302.252 174.112 302.055 173.998L302.045 174.008Z" fill="#E29D67"/>
<path d="M296.864 180.826C296.781 180.826 296.688 180.805 296.615 180.784C296.408 180.712 296.242 180.536 296.17 180.329C295.175 177.407 296.025 173.293 296.439 171.656C296.501 171.418 296.657 171.231 296.874 171.138C297.092 171.045 297.32 171.066 297.517 171.19L302.076 173.925C302.304 174.06 302.438 174.309 302.449 174.568C302.459 177.365 298.791 179.811 297.216 180.722C297.102 180.784 296.978 180.826 296.854 180.826H296.864ZM297.154 171.293C297.092 171.293 297.019 171.304 296.957 171.335C296.802 171.397 296.677 171.542 296.636 171.708C296.232 173.324 295.382 177.396 296.356 180.256C296.408 180.411 296.532 180.536 296.677 180.588C296.822 180.639 296.988 180.629 297.123 180.546C301.765 177.842 302.252 175.459 302.252 174.568C302.252 174.371 302.148 174.195 301.982 174.101L297.423 171.366C297.34 171.314 297.247 171.293 297.154 171.293Z" fill="black"/>
<path d="M296.771 179.49C296.771 179.49 296.605 176.921 297.092 174.734C297.185 174.341 297.631 174.165 297.942 174.403C298.491 174.817 299.309 175.429 300.014 175.988" fill="#CA5F3E"/>
<path d="M296.677 179.501C296.677 179.501 296.512 176.89 296.999 174.724C297.05 174.496 297.206 174.32 297.413 174.237C297.61 174.165 297.838 174.196 298.014 174.331C298.573 174.745 299.382 175.367 300.086 175.916L299.962 176.071C299.257 175.522 298.449 174.911 297.89 174.486C297.776 174.393 297.62 174.372 297.486 174.424C297.34 174.476 297.237 174.6 297.195 174.766C296.719 176.911 296.874 179.47 296.874 179.491H296.677V179.501Z" fill="black"/>
<path d="M294.906 183.086C294.906 183.086 296.418 182.06 296.553 181.003C296.822 178.744 298.884 173.657 306.293 173.398C315.369 173.077 316.561 181.355 316.561 181.355C316.561 181.355 316.81 182.671 317.815 182.764C317.815 182.764 314.893 182.785 317.815 184.205C317.815 184.205 314.654 193.229 306.158 192.908C299.599 192.66 296.543 187.355 294.657 184.464C294.657 184.464 297.91 183.863 294.906 183.096V183.086Z" fill="#E29D67"/>
<path d="M306.593 193.001C306.448 193.001 306.303 193.001 306.158 193.001C299.9 192.763 296.771 187.904 294.895 184.992C294.792 184.826 294.688 184.671 294.584 184.515C294.564 184.484 294.564 184.453 294.584 184.422C294.605 184.391 294.626 184.37 294.657 184.36C295.341 184.236 296.087 183.966 296.097 183.759C296.097 183.697 296.014 183.479 294.895 183.189C294.854 183.189 294.823 183.148 294.823 183.106C294.823 183.065 294.823 183.023 294.864 183.003C294.885 183.003 296.346 181.987 296.46 180.993C296.781 178.247 299.216 173.543 306.303 173.294C311.038 173.128 313.608 175.325 314.924 177.2C316.354 179.221 316.675 181.314 316.675 181.334C316.675 181.334 316.913 182.578 317.835 182.661C317.887 182.661 317.929 182.712 317.929 182.764C317.929 182.816 317.887 182.858 317.825 182.858C317.369 182.858 316.675 182.961 316.623 183.168C316.602 183.241 316.654 183.51 317.866 184.101C317.908 184.122 317.939 184.173 317.918 184.225C317.918 184.246 317.1 186.525 315.255 188.722C313.608 190.691 310.79 192.991 306.593 192.991V193.001ZM294.833 184.526C294.906 184.64 294.988 184.764 295.061 184.878C296.035 186.391 297.247 188.277 299.029 189.862C301.122 191.727 303.464 192.691 306.168 192.794C310.52 192.96 313.421 190.608 315.1 188.608C316.727 186.671 317.535 184.681 317.701 184.246C316.768 183.79 316.364 183.427 316.437 183.127C316.499 182.858 316.934 182.744 317.307 182.692C316.664 182.308 316.488 181.407 316.478 181.366C316.478 181.345 316.157 179.293 314.758 177.304C313.463 175.48 310.945 173.335 306.313 173.491C299.371 173.729 296.978 178.33 296.667 181.013C296.563 181.894 295.569 182.733 295.154 183.044C295.952 183.272 296.315 183.49 296.304 183.759C296.294 184.173 295.279 184.432 294.854 184.515L294.833 184.526Z" fill="black"/>
<path d="M306.024 173.438V176.753C306.024 176.753 306.024 177.893 306.842 177.893C307.661 177.893 307.609 176.681 307.609 176.681V173.459C307.609 173.459 306.842 173.272 306.013 173.438H306.024Z" fill="#CA5F3E"/>
<path d="M306.852 177.988C306.624 177.988 306.428 177.905 306.272 177.76C305.92 177.407 305.92 176.775 305.92 176.744V173.429C305.92 173.429 305.951 173.335 306.003 173.325C306.842 173.159 307.609 173.325 307.64 173.346C307.681 173.346 307.723 173.397 307.723 173.449V176.672C307.723 176.672 307.754 177.387 307.402 177.76C307.257 177.915 307.07 177.988 306.852 177.988ZM306.127 173.511V176.744C306.127 176.744 306.127 177.324 306.417 177.615C306.531 177.728 306.676 177.791 306.852 177.791C307.029 177.791 307.153 177.739 307.257 177.625C307.547 177.314 307.516 176.692 307.516 176.682V173.532C307.319 173.491 306.738 173.408 306.127 173.511Z" fill="black"/>
<path d="M305.505 173.512V176.206C305.505 176.206 305.485 176.776 304.77 176.776C304.055 176.776 304.096 176.226 304.096 176.226V173.698L305.505 173.522V173.512Z" fill="#CA5F3E"/>
<path d="M304.759 176.868C304.49 176.868 304.272 176.796 304.138 176.651C303.961 176.464 303.982 176.226 303.982 176.216V173.698C303.982 173.698 304.013 173.604 304.065 173.594L305.474 173.418C305.474 173.418 305.526 173.418 305.557 173.439C305.578 173.459 305.588 173.48 305.588 173.511V176.205C305.588 176.205 305.557 176.868 304.749 176.868H304.759ZM304.189 173.781V176.216C304.189 176.216 304.189 176.381 304.293 176.506C304.386 176.609 304.542 176.661 304.759 176.661C305.36 176.661 305.391 176.236 305.391 176.195V173.625L304.179 173.781H304.189Z" fill="black"/>
<path d="M308.168 173.48V176.216C308.168 176.216 308.189 176.775 308.904 176.775C309.619 176.775 309.577 176.237 309.577 176.237L309.65 173.74L308.168 173.491V173.48Z" fill="#CA5F3E"/>
<path d="M308.904 176.868C308.096 176.868 308.065 176.216 308.065 176.216V173.48C308.065 173.48 308.075 173.428 308.096 173.408C308.117 173.387 308.148 173.377 308.179 173.387L309.66 173.636C309.66 173.636 309.743 173.687 309.743 173.739L309.671 176.236C309.671 176.236 309.671 176.485 309.515 176.651C309.381 176.796 309.173 176.868 308.894 176.868H308.904ZM308.272 173.594V176.205C308.272 176.205 308.313 176.661 308.904 176.661C309.122 176.661 309.277 176.609 309.37 176.506C309.484 176.392 309.474 176.236 309.474 176.236L309.536 173.812L308.262 173.594H308.272Z" fill="black"/>
<path d="M301.993 181.282C301.889 181.282 301.796 181.199 301.796 181.095C301.796 180.981 301.868 180.888 301.982 180.878C304.283 180.691 304.728 179.324 304.728 179.303C304.759 179.199 304.873 179.137 304.977 179.168C305.08 179.199 305.143 179.313 305.112 179.417C305.091 179.489 304.583 181.064 302.003 181.272H301.982L301.993 181.282Z" fill="black"/>
<path d="M302.957 180.972C302.957 180.972 302.656 182.899 304.065 182.899C305.474 182.899 304.749 179.801 304.749 179.801C304.749 179.801 304.697 180.298 302.957 180.961V180.972Z" fill="black"/>
<path d="M304.065 183.003C303.692 183.003 303.402 182.878 303.184 182.63C302.687 182.049 302.843 181.003 302.843 180.951C302.843 180.92 302.874 180.889 302.905 180.868C304.521 180.246 304.635 179.791 304.635 179.78C304.635 179.739 304.687 179.697 304.739 179.697C304.78 179.697 304.832 179.728 304.842 179.77C304.863 179.853 305.329 181.904 304.718 182.681C304.552 182.889 304.335 182.992 304.065 182.992V183.003ZM303.05 181.044C303.029 181.262 302.967 182.06 303.35 182.495C303.526 182.692 303.765 182.795 304.076 182.795C304.283 182.795 304.449 182.723 304.573 182.567C305.008 182.018 304.822 180.651 304.718 180.081C304.531 180.309 304.086 180.651 303.06 181.044H303.05Z" fill="black"/>
<path d="M311.391 181.281H311.37C308.8 181.074 308.293 179.489 308.261 179.427C308.23 179.323 308.293 179.209 308.396 179.178C308.5 179.147 308.614 179.209 308.645 179.313C308.666 179.375 309.111 180.701 311.391 180.888C311.505 180.888 311.587 180.991 311.577 181.105C311.577 181.209 311.484 181.292 311.38 181.292L311.391 181.281Z" fill="black"/>
<path d="M310.427 180.972C310.427 180.972 310.727 182.899 309.318 182.899C307.909 182.899 308.634 179.801 308.634 179.801C308.634 179.801 308.686 180.298 310.427 180.961V180.972Z" fill="black"/>
<path d="M309.318 183.003C309.049 183.003 308.831 182.899 308.666 182.692C308.044 181.915 308.521 179.863 308.541 179.78C308.541 179.728 308.593 179.697 308.645 179.697C308.697 179.697 308.738 179.739 308.738 179.791C308.738 179.791 308.842 180.246 310.468 180.868C310.5 180.878 310.531 180.91 310.531 180.951C310.531 180.992 310.696 182.039 310.189 182.63C309.981 182.878 309.681 183.003 309.308 183.003H309.318ZM308.686 180.081C308.583 180.651 308.386 182.018 308.831 182.567C308.956 182.723 309.111 182.795 309.329 182.795C309.64 182.795 309.878 182.692 310.054 182.495C310.437 182.06 310.375 181.262 310.354 181.044C309.339 180.651 308.894 180.309 308.697 180.081H308.686Z" fill="black"/>
<path d="M308.065 186.826C307.702 186.826 307.391 186.733 307.132 186.546C306.883 186.36 306.728 186.111 306.635 185.883C306.541 186.08 306.396 186.287 306.179 186.453C305.795 186.743 305.277 186.816 304.635 186.66C304.552 186.64 304.5 186.557 304.521 186.484C304.542 186.401 304.625 186.349 304.697 186.37C305.246 186.494 305.681 186.443 305.992 186.215C306.448 185.873 306.5 185.241 306.5 185.241C306.5 185.158 306.572 185.096 306.655 185.096C306.738 185.096 306.8 185.168 306.8 185.251V185.344C306.8 185.344 306.842 185.976 307.308 186.318C307.619 186.546 308.054 186.598 308.603 186.474C308.686 186.453 308.769 186.505 308.779 186.588C308.79 186.671 308.748 186.754 308.665 186.764C308.448 186.816 308.241 186.836 308.054 186.836L308.065 186.826Z" fill="black"/>
<path d="M305.609 184.516C305.381 184.112 305.661 183.594 306.117 183.594H307.194C307.65 183.594 307.93 184.101 307.702 184.516C307.567 184.754 307.298 185.241 307.163 185.48C306.407 186.412 305.941 185.086 305.599 184.516H305.609Z" fill="black"/>
<path d="M306.666 185.955H306.614C306.179 185.914 305.889 185.344 305.65 184.888C305.588 184.774 305.536 184.671 305.485 184.588C305.35 184.339 305.35 184.049 305.485 183.811C305.619 183.583 305.858 183.438 306.117 183.438H307.194C307.453 183.438 307.692 183.572 307.826 183.811C307.971 184.049 307.971 184.339 307.826 184.588C307.754 184.712 307.65 184.909 307.547 185.085L307.287 185.551C307.287 185.551 307.287 185.562 307.277 185.572C307.07 185.821 306.863 185.955 306.645 185.955H306.666ZM305.744 184.443C305.795 184.536 305.858 184.639 305.92 184.764C306.106 185.137 306.376 185.634 306.645 185.665C306.769 185.676 306.904 185.593 307.049 185.406L307.298 184.95C307.401 184.764 307.505 184.567 307.578 184.443C307.66 184.297 307.66 184.121 307.578 183.966C307.495 183.831 307.36 183.748 307.205 183.748H306.127C305.972 183.748 305.837 183.831 305.754 183.966C305.671 184.111 305.661 184.287 305.754 184.432L305.744 184.443Z" fill="black"/>
<path d="M295.393 185.55L295.942 185.229C295.942 185.229 296.75 184.804 297.144 185.281C298.055 186.369 296.346 186.897 296.346 186.897L295.393 185.55Z" fill="#CA5F3E"/>
<path d="M296.304 187.011L295.248 185.519L295.89 185.146C295.89 185.146 296.771 184.68 297.216 185.219C297.475 185.53 297.558 185.82 297.475 186.11C297.299 186.711 296.408 186.991 296.367 186.991L296.294 187.011H296.304ZM295.538 185.581L296.377 186.773C296.574 186.7 297.154 186.452 297.278 186.048C297.341 185.83 297.278 185.602 297.061 185.354C296.719 184.949 295.994 185.322 295.983 185.322L295.538 185.581Z" fill="black"/>
<path d="M296.594 187.313L297.216 186.992C297.216 186.992 297.941 186.505 298.346 186.992C298.781 187.52 298.024 188.049 298.024 188.049L297.506 188.453L296.594 187.313Z" fill="#CA5F3E"/>
<path d="M297.486 188.597L296.429 187.282L297.154 186.909C297.434 186.722 298.055 186.494 298.418 186.929C298.542 187.085 298.594 187.25 298.574 187.427C298.522 187.82 298.097 188.121 298.076 188.131L297.486 188.587V188.597ZM296.75 187.354L297.527 188.318L297.973 187.976C297.973 187.976 298.346 187.717 298.387 187.406C298.408 187.282 298.366 187.168 298.283 187.064C297.941 186.65 297.289 187.085 297.289 187.085L296.781 187.354H296.75Z" fill="black"/>
<path d="M304.77 184.65C303.64 184.65 302.438 184.069 301.268 183.5C300.77 183.261 300.304 183.033 299.838 182.847C299.786 182.826 299.755 182.764 299.786 182.712C299.807 182.66 299.869 182.64 299.921 182.66C300.387 182.847 300.863 183.075 301.361 183.313C302.532 183.883 303.754 184.463 304.853 184.432C304.904 184.432 304.956 184.474 304.956 184.536C304.956 184.598 304.915 184.639 304.853 184.639H304.77V184.65Z" fill="black"/>
<path d="M301.578 187.127C300.988 187.127 300.449 186.992 300.035 186.754C299.983 186.723 299.972 186.66 299.993 186.619C300.014 186.578 300.086 186.557 300.128 186.578C301.185 187.168 303.008 187.106 304.697 185.635C304.739 185.604 304.801 185.604 304.842 185.635C304.884 185.666 304.873 185.738 304.842 185.78C303.744 186.733 302.573 187.116 301.589 187.116L301.578 187.127Z" fill="black"/>
<path d="M303.371 185.417C302.677 185.417 301.92 185.283 301.154 185.013C301.102 184.993 301.071 184.941 301.091 184.889C301.112 184.837 301.164 184.806 301.216 184.827C302.521 185.272 303.765 185.345 304.739 185.003C304.79 184.982 304.842 185.003 304.863 185.065C304.884 185.127 304.863 185.169 304.801 185.189C304.366 185.335 303.889 185.417 303.371 185.417Z" fill="black"/>
<path d="M304.303 181.853C304.59 181.853 304.822 181.612 304.822 181.314C304.822 181.017 304.59 180.775 304.303 180.775C304.017 180.775 303.785 181.017 303.785 181.314C303.785 181.612 304.017 181.853 304.303 181.853Z" fill="#F1EFDD"/>
<path d="M304.303 181.945C303.961 181.945 303.682 181.655 303.682 181.303C303.682 180.95 303.961 180.66 304.303 180.66C304.645 180.66 304.925 180.95 304.925 181.303C304.925 181.655 304.645 181.945 304.303 181.945ZM304.303 180.867C304.075 180.867 303.889 181.064 303.889 181.303C303.889 181.541 304.075 181.738 304.303 181.738C304.531 181.738 304.718 181.541 304.718 181.303C304.718 181.064 304.531 180.867 304.303 180.867Z" fill="black"/>
<path d="M308.676 184.577H308.593C308.541 184.577 308.49 184.535 308.49 184.473C308.49 184.411 308.541 184.37 308.593 184.37C309.691 184.401 310.914 183.81 312.085 183.251C312.582 183.012 313.059 182.784 313.525 182.598C313.577 182.577 313.629 182.598 313.66 182.65C313.681 182.701 313.66 182.753 313.608 182.784C313.152 182.96 312.675 183.188 312.178 183.437C311.007 183.997 309.805 184.587 308.676 184.587V184.577Z" fill="black"/>
<path d="M311.867 187.054C310.883 187.054 309.723 186.67 308.614 185.717C308.572 185.686 308.572 185.614 308.614 185.572C308.655 185.531 308.717 185.531 308.759 185.572C310.448 187.033 312.271 187.106 313.328 186.515C313.38 186.484 313.432 186.515 313.463 186.556C313.494 186.598 313.463 186.66 313.422 186.691C313.007 186.929 312.468 187.064 311.878 187.064L311.867 187.054Z" fill="black"/>
<path d="M310.085 185.354C309.567 185.354 309.091 185.282 308.655 185.126C308.604 185.106 308.572 185.054 308.593 185.002C308.614 184.95 308.666 184.919 308.718 184.94C309.681 185.271 310.935 185.209 312.24 184.764C312.292 184.743 312.344 184.764 312.365 184.826C312.385 184.888 312.365 184.929 312.303 184.95C311.525 185.22 310.779 185.354 310.085 185.354Z" fill="black"/>
<path d="M317.328 185.239L316.924 185.032C316.924 185.032 316.147 184.556 315.753 185.032C314.841 186.12 316.592 186.659 316.592 186.659L317.328 185.239Z" fill="#CA5F3E"/>
<path d="M316.644 186.775L316.561 186.744C316.561 186.744 315.597 186.433 315.411 185.832C315.328 185.552 315.411 185.251 315.66 184.951C316.105 184.412 316.934 184.91 316.965 184.93L317.452 185.179L316.634 186.764L316.644 186.775ZM316.23 184.91C316.084 184.91 315.929 184.951 315.825 185.086C315.618 185.334 315.546 185.562 315.608 185.78C315.732 186.194 316.323 186.453 316.54 186.526L317.183 185.272L316.872 185.106C316.872 185.106 316.54 184.91 316.23 184.91Z" fill="black"/>
<path d="M316.323 187.105L315.68 186.732C315.68 186.732 314.955 186.245 314.551 186.732C314.116 187.26 314.872 187.789 314.872 187.789L315.463 188.317L316.323 187.115V187.105Z" fill="#CA5F3E"/>
<path d="M315.483 188.462L314.81 187.871C314.758 187.84 314.375 187.55 314.323 187.177C314.292 187.001 314.354 186.835 314.478 186.68C314.841 186.234 315.463 186.473 315.742 186.659L316.478 187.084L315.494 188.462H315.483ZM315.027 186.618C314.882 186.618 314.737 186.659 314.634 186.794C314.54 186.897 314.509 187.022 314.53 187.136C314.572 187.447 314.934 187.695 314.934 187.706L315.442 188.161L316.178 187.136L315.628 186.814C315.628 186.814 315.318 186.618 315.027 186.618Z" fill="black"/>
<path d="M309.122 181.8C309.408 181.8 309.64 181.559 309.64 181.261C309.64 180.964 309.408 180.723 309.122 180.723C308.835 180.723 308.604 180.964 308.604 181.261C308.604 181.559 308.835 181.8 309.122 181.8Z" fill="#F1EFDD"/>
<path d="M309.121 181.904C308.78 181.904 308.5 181.614 308.5 181.262C308.5 180.909 308.78 180.619 309.121 180.619C309.463 180.619 309.743 180.909 309.743 181.262C309.743 181.614 309.463 181.904 309.121 181.904ZM309.121 180.826C308.893 180.826 308.707 181.023 308.707 181.262C308.707 181.5 308.893 181.697 309.121 181.697C309.349 181.697 309.536 181.5 309.536 181.262C309.536 181.023 309.349 180.826 309.121 180.826Z" fill="black"/>
<path d="M305.827 186.618C305.827 186.618 305.733 188.007 306.666 188.007C307.598 188.007 307.401 186.618 307.401 186.618C307.401 186.618 306.718 186.297 306.666 185.51C306.666 185.51 306.666 186.131 305.837 186.618H305.827Z" fill="#E5B1AF"/>
<path d="M306.666 188.153C306.407 188.153 306.2 188.059 306.034 187.883C305.63 187.448 305.682 186.64 305.682 186.598V186.515L305.754 186.474C306.5 186.039 306.511 185.521 306.511 185.5H306.811C306.863 186.173 307.443 186.464 307.464 186.474L307.536 186.505V186.588C307.536 186.588 307.661 187.438 307.277 187.883C307.122 188.059 306.915 188.153 306.656 188.153H306.666ZM305.982 186.702C305.982 186.899 306.003 187.407 306.251 187.676C306.355 187.79 306.49 187.852 306.666 187.852C306.842 187.852 306.966 187.8 307.06 187.686C307.277 187.438 307.288 186.951 307.267 186.712C307.122 186.629 306.832 186.412 306.656 186.039C306.542 186.246 306.334 186.484 305.992 186.702H305.982Z" fill="black"/>
<path d="M290.233 199.891C290.823 199.933 291.113 199.943 291.704 199.974C291.704 200.212 291.756 200.388 291.839 200.523C291.973 200.741 292.191 200.855 292.491 200.896C292.709 200.917 292.885 200.896 293.02 200.803C293.144 200.71 293.217 200.606 293.237 200.471C293.248 200.347 293.206 200.223 293.103 200.119C292.999 200.015 292.75 199.891 292.346 199.756C291.694 199.539 291.238 199.28 290.979 199.01C290.72 198.731 290.616 198.409 290.668 198.026C290.699 197.777 290.802 197.56 290.979 197.353C291.155 197.156 291.393 197 291.694 196.907C291.994 196.814 292.398 196.803 292.906 196.855C293.527 196.917 293.983 197.083 294.284 197.342C294.584 197.601 294.75 197.985 294.76 198.492C294.191 198.472 293.9 198.461 293.32 198.441C293.3 198.223 293.237 198.057 293.134 197.943C293.02 197.829 292.864 197.767 292.647 197.746C292.471 197.726 292.336 197.746 292.243 197.808C292.139 197.871 292.087 197.954 292.077 198.057C292.077 198.13 292.098 198.213 292.16 198.275C292.222 198.347 292.388 198.43 292.647 198.513C293.289 198.72 293.755 198.917 294.025 199.083C294.294 199.249 294.491 199.456 294.605 199.684C294.719 199.912 294.76 200.15 294.74 200.42C294.709 200.73 294.595 201.01 294.398 201.248C294.201 201.497 293.932 201.663 293.59 201.777C293.258 201.881 292.844 201.901 292.357 201.849C291.497 201.756 290.927 201.528 290.637 201.176C290.347 200.824 290.212 200.399 290.233 199.901V199.891Z" fill="#F2F0DE"/>
<path d="M298.511 201.465C297.807 201.424 297.454 201.403 296.75 201.351C296.626 201.662 296.574 201.818 296.439 202.129C295.807 202.077 295.486 202.056 294.854 201.994C295.786 200.129 296.232 199.196 297.102 197.311C297.755 197.362 298.087 197.383 298.739 197.425C299.351 199.404 299.672 200.398 300.335 202.367C299.682 202.336 299.361 202.325 298.698 202.284C298.615 201.963 298.573 201.797 298.491 201.476L298.511 201.465ZM298.263 200.398C298.086 199.683 298.004 199.331 297.827 198.626C297.568 199.31 297.434 199.642 297.164 200.326C297.6 200.357 297.817 200.367 298.252 200.398H298.263Z" fill="#F2F0DE"/>
<path d="M301.05 197.549C301.651 197.58 301.951 197.58 302.552 197.601C302.511 199.062 302.48 199.797 302.438 201.248C303.402 201.279 303.889 201.289 304.853 201.3C304.853 201.776 304.853 202.015 304.842 202.491C303.247 202.47 302.449 202.45 300.853 202.388C300.936 200.45 300.977 199.476 301.06 197.549H301.05Z" fill="#F2F0DE"/>
<path d="M305.568 197.664C306.355 197.664 306.749 197.664 307.547 197.664C307.868 198.846 308.023 199.426 308.355 200.607C308.645 199.426 308.79 198.825 309.07 197.644C309.857 197.623 310.251 197.613 311.038 197.592C311.111 199.529 311.142 200.503 311.215 202.441C310.707 202.462 310.448 202.472 309.94 202.482C309.899 201.001 309.878 200.265 309.836 198.783C309.495 200.275 309.318 201.011 308.956 202.503C308.489 202.503 308.262 202.513 307.795 202.524C307.391 201.053 307.194 200.306 306.801 198.835C306.801 200.317 306.801 201.053 306.801 202.534H305.526C305.536 200.597 305.547 199.623 305.557 197.685L305.568 197.664Z" fill="#F2F0DE"/>
<path d="M311.909 199.975C311.878 199.188 312.074 198.555 312.499 198.1C312.924 197.644 313.525 197.385 314.313 197.343C315.121 197.291 315.753 197.457 316.229 197.861C316.696 198.255 316.975 198.846 317.038 199.623C317.079 200.193 317.027 200.659 316.861 201.032C316.696 201.415 316.426 201.716 316.074 201.944C315.711 202.172 315.255 202.306 314.696 202.337C314.126 202.368 313.649 202.306 313.266 202.161C312.883 202.016 312.572 201.747 312.323 201.374C312.074 201.011 311.94 200.545 311.919 199.975H311.909ZM313.442 199.913C313.473 200.4 313.577 200.752 313.784 200.949C313.981 201.156 314.24 201.249 314.572 201.218C314.903 201.198 315.152 201.073 315.318 200.856C315.483 200.638 315.546 200.255 315.504 199.716C315.473 199.26 315.359 198.939 315.152 198.742C314.945 198.545 314.696 198.452 314.375 198.473C314.064 198.493 313.836 198.618 313.66 198.835C313.484 199.053 313.411 199.415 313.442 199.913Z" fill="#F2F0DE"/>
<path d="M317.649 197.166C318.208 197.114 318.488 197.093 319.048 197.031C319.887 198.026 320.312 198.523 321.182 199.497C321.058 198.43 320.996 197.902 320.871 196.834C321.431 196.772 321.721 196.731 322.28 196.658C322.529 198.585 322.643 199.549 322.892 201.466C322.301 201.538 322.011 201.569 321.431 201.642C320.56 200.668 320.125 200.181 319.286 199.197C319.39 200.254 319.441 200.782 319.555 201.839C318.965 201.901 318.675 201.922 318.094 201.974C317.918 200.036 317.835 199.072 317.659 197.145L317.649 197.166Z" fill="#F2F0DE"/>
<path d="M305.454 205.581C298.47 205.581 290.264 204.348 290.181 204.337C289.818 204.285 289.58 203.944 289.632 203.591C289.684 203.239 290.026 202.99 290.378 203.042C290.461 203.052 298.563 204.275 305.454 204.275C312.344 204.275 321.98 202.949 322.084 202.938C322.446 202.887 322.778 203.135 322.83 203.498C322.882 203.861 322.633 204.192 322.27 204.244C322.167 204.254 312.448 205.591 305.464 205.591L305.454 205.581Z" fill="#CB5F3E"/>
<path d="M295.372 207.082C295.32 207.185 295.258 207.268 295.175 207.331C295.092 207.403 295.009 207.465 294.927 207.538C295.04 207.631 295.134 207.735 295.196 207.869C295.258 208.004 295.289 208.159 295.268 208.325C295.227 209.04 295.206 209.392 295.165 210.107C294.937 210.097 294.823 210.087 294.595 210.076C294.616 209.745 294.626 209.579 294.647 209.258C294.647 209.123 294.647 208.999 294.595 208.874C294.553 208.76 294.491 208.657 294.398 208.574C294.305 208.491 294.212 208.418 294.087 208.367C293.973 208.315 293.839 208.284 293.694 208.273C293.497 208.263 293.32 208.294 293.175 208.377C293.03 208.46 292.927 208.564 292.875 208.698C292.958 208.667 293.051 208.667 293.165 208.667C293.372 208.688 293.538 208.76 293.662 208.905C293.787 209.051 293.839 209.216 293.828 209.392C293.828 209.486 293.797 209.569 293.756 209.651C293.714 209.734 293.652 209.797 293.58 209.859C293.507 209.911 293.434 209.962 293.341 209.993C293.248 210.024 293.165 210.035 293.061 210.024C292.813 210.004 292.616 209.911 292.46 209.745C292.305 209.579 292.243 209.341 292.264 209.051C292.274 208.895 292.315 208.76 292.388 208.626C292.46 208.491 292.554 208.377 292.668 208.284C292.782 208.191 292.937 208.108 293.103 208.066C293.279 208.014 293.466 208.004 293.694 208.014H293.725C293.818 207.973 293.911 207.911 294.035 207.828C294.149 207.745 294.263 207.662 294.357 207.579C294.212 207.507 294.056 207.476 293.89 207.455C293.642 207.434 293.434 207.486 293.258 207.59C293.093 207.693 292.979 207.838 292.916 208.004C292.688 207.983 292.574 207.973 292.347 207.963C292.398 207.828 292.471 207.704 292.574 207.61C292.678 207.517 292.792 207.434 292.927 207.372C293.061 207.31 293.217 207.268 293.383 207.248C293.548 207.217 293.725 207.217 293.911 207.227C294.17 207.248 294.388 207.289 294.564 207.362C294.657 207.258 294.73 207.154 294.761 207.051C295.009 207.072 295.123 207.071 295.362 207.092L295.372 207.082ZM293.548 209.372C293.548 209.258 293.517 209.154 293.445 209.061C293.372 208.968 293.269 208.926 293.155 208.916C293.041 208.905 292.937 208.947 292.844 209.019C292.751 209.092 292.699 209.196 292.699 209.31C292.699 209.424 292.73 209.527 292.802 209.62C292.885 209.714 292.979 209.755 293.103 209.765C293.227 209.776 293.331 209.734 293.414 209.662C293.507 209.589 293.559 209.486 293.559 209.372H293.548ZM294.709 208.159C294.709 208.004 294.678 207.869 294.585 207.755C294.512 207.807 294.429 207.859 294.336 207.921C294.243 207.973 294.149 208.025 294.056 208.077C294.212 208.118 294.336 208.18 294.44 208.253C294.543 208.325 294.626 208.408 294.699 208.481C294.699 208.356 294.709 208.294 294.719 208.159H294.709Z" fill="#F2F0DE"/>
<path d="M294.471 211.984C294.481 211.766 294.491 211.663 294.502 211.456C294.45 211.476 294.398 211.476 294.336 211.476C294.17 211.476 294.035 211.404 293.932 211.279C293.828 211.165 293.776 211.02 293.787 210.865C293.787 210.699 293.87 210.564 293.994 210.461C294.118 210.357 294.284 210.305 294.481 210.316C294.688 210.326 294.854 210.399 294.958 210.533C295.072 210.658 295.123 210.844 295.103 211.062C295.082 211.445 295.072 211.642 295.04 212.015C294.812 212.005 294.699 211.994 294.471 211.984ZM294.719 210.937C294.719 210.844 294.698 210.761 294.636 210.699C294.574 210.627 294.491 210.596 294.398 210.585C294.305 210.575 294.222 210.606 294.149 210.668C294.077 210.73 294.046 210.803 294.035 210.896C294.025 210.989 294.056 211.072 294.118 211.134C294.18 211.196 294.253 211.238 294.357 211.238C294.46 211.238 294.533 211.217 294.605 211.165C294.678 211.103 294.709 211.031 294.719 210.937Z" fill="#F2F0DE"/>
<path d="M298.563 207.528C298.532 207.714 298.449 207.839 298.304 207.901C298.159 207.963 298.004 207.994 297.828 207.984C297.724 207.984 297.62 207.963 297.537 207.932C297.455 207.901 297.372 207.87 297.299 207.839C297.227 207.808 297.144 207.776 297.071 207.745C296.999 207.714 296.916 207.704 296.823 207.694C296.657 207.694 296.522 207.725 296.429 207.828C296.325 207.922 296.263 208.046 296.242 208.191C297.071 208.232 297.486 208.253 298.315 208.295C298.294 208.782 298.283 209.03 298.263 209.517C298.263 209.766 298.159 209.963 297.983 210.097C297.807 210.232 297.6 210.294 297.351 210.284C297.247 210.284 297.164 210.253 297.082 210.222C296.999 210.18 296.926 210.128 296.864 210.077C296.802 210.025 296.76 209.942 296.729 209.869C296.698 209.787 296.688 209.704 296.688 209.61C296.688 209.517 296.719 209.434 296.75 209.362C296.791 209.279 296.843 209.217 296.905 209.165C296.968 209.113 297.05 209.072 297.133 209.041C297.216 209.009 297.31 208.999 297.403 208.999C297.517 208.999 297.62 209.03 297.703 209.072C297.703 208.854 297.724 208.74 297.734 208.522C296.885 208.481 296.47 208.46 295.621 208.408C295.662 208.056 295.766 207.808 295.942 207.631C296.118 207.455 296.377 207.393 296.719 207.403C296.833 207.403 296.937 207.435 297.03 207.455C297.113 207.486 297.196 207.517 297.268 207.559C297.341 207.59 297.403 207.631 297.465 207.662C297.527 207.694 297.589 207.704 297.651 207.714C297.734 207.714 297.797 207.704 297.838 207.662C297.879 207.621 297.91 207.569 297.921 207.497C298.19 207.507 298.315 207.517 298.584 207.528H298.563ZM297.797 209.673C297.797 209.559 297.765 209.455 297.683 209.372C297.6 209.289 297.506 209.237 297.382 209.237C297.268 209.237 297.164 209.268 297.071 209.341C296.978 209.414 296.937 209.517 296.926 209.631C296.916 209.745 296.957 209.849 297.04 209.932C297.123 210.015 297.216 210.066 297.341 210.066C297.455 210.066 297.558 210.035 297.651 209.963C297.745 209.89 297.786 209.787 297.797 209.673Z" fill="#F2F0DE"/>
<path d="M300.646 210.367C300.667 209.6 300.677 209.217 300.698 208.44C300.698 208.253 300.656 208.098 300.553 207.973C300.449 207.849 300.294 207.776 300.066 207.776C299.941 207.776 299.838 207.787 299.755 207.828C299.662 207.859 299.589 207.911 299.527 207.973C299.465 208.035 299.423 208.108 299.382 208.191C299.351 208.274 299.32 208.357 299.32 208.44C299.092 208.44 298.978 208.429 298.74 208.419C298.802 208.139 298.947 207.911 299.175 207.756C299.403 207.6 299.703 207.528 300.066 207.538C300.439 207.548 300.729 207.642 300.936 207.807C301.154 207.973 301.257 208.232 301.247 208.585C301.226 209.31 301.216 209.673 301.206 210.387L300.636 210.367H300.646Z" fill="#F2F0DE"/>
<path d="M303.578 209.848C303.578 210.014 303.516 210.159 303.381 210.283C303.257 210.408 303.081 210.47 302.863 210.46C302.625 210.46 302.428 210.387 302.283 210.252C302.138 210.118 302.065 209.931 302.076 209.693C302.096 208.874 302.107 208.46 302.117 207.631C302.345 207.631 302.449 207.631 302.677 207.631C302.666 208.273 302.656 208.584 302.646 209.227C302.728 209.195 302.822 209.185 302.915 209.185C303.008 209.185 303.091 209.206 303.174 209.237C303.257 209.268 303.319 209.32 303.381 209.372C303.443 209.434 303.485 209.496 303.516 209.579C303.547 209.662 303.557 209.745 303.557 209.827L303.578 209.848ZM303.309 209.848C303.309 209.745 303.278 209.651 303.195 209.568C303.122 209.486 303.029 209.454 302.915 209.444C302.811 209.444 302.708 209.475 302.635 209.558C302.552 209.631 302.511 209.724 302.511 209.827C302.511 209.931 302.542 210.024 302.625 210.107C302.708 210.19 302.801 210.221 302.905 210.221C303.008 210.221 303.112 210.19 303.184 210.118C303.267 210.045 303.298 209.952 303.309 209.848ZM305.288 209.859C305.288 210.024 305.226 210.169 305.101 210.294C304.977 210.418 304.801 210.48 304.583 210.48C304.345 210.48 304.148 210.408 304.003 210.273C303.858 210.138 303.785 209.952 303.785 209.713C303.785 208.895 303.796 208.48 303.806 207.652C304.034 207.652 304.138 207.652 304.366 207.652C304.366 208.294 304.366 208.605 304.355 209.247C304.438 209.216 304.521 209.206 304.625 209.206C304.728 209.206 304.801 209.227 304.884 209.258C304.966 209.289 305.039 209.34 305.091 209.392C305.153 209.454 305.194 209.517 305.236 209.6C305.277 209.682 305.288 209.765 305.288 209.848V209.859ZM305.018 209.859C305.018 209.755 304.977 209.662 304.904 209.579C304.821 209.496 304.728 209.465 304.625 209.465C304.521 209.465 304.428 209.496 304.345 209.579C304.262 209.662 304.22 209.745 304.22 209.859C304.22 209.973 304.262 210.055 304.334 210.128C304.417 210.2 304.511 210.242 304.614 210.242C304.718 210.242 304.811 210.211 304.894 210.128C304.977 210.045 305.008 209.962 305.008 209.859H305.018Z" fill="#F2F0DE"/>
<path d="M308.313 210.43C307.868 210.14 307.64 209.994 307.205 209.704V209.787C307.205 210.005 307.142 210.171 307.008 210.295C306.873 210.419 306.676 210.471 306.438 210.481C306.231 210.481 306.054 210.419 305.93 210.305C305.795 210.191 305.733 210.036 305.733 209.86C305.733 209.673 305.806 209.518 305.94 209.404C306.075 209.29 306.251 209.228 306.469 209.228H306.645V208.844C306.552 208.875 306.469 208.896 306.376 208.896C306.282 208.896 306.2 208.875 306.127 208.844C306.044 208.813 305.982 208.761 305.92 208.71C305.858 208.658 305.816 208.585 305.775 208.502C305.733 208.42 305.723 208.337 305.723 208.254C305.723 208.078 305.785 207.933 305.909 207.798C306.034 207.663 306.21 207.611 306.427 207.611C306.666 207.611 306.852 207.673 306.987 207.808C307.122 207.943 307.194 208.129 307.194 208.357C307.194 208.761 307.194 208.958 307.194 209.373C307.64 209.653 307.857 209.787 308.293 210.067C308.282 209.103 308.272 208.616 308.261 207.642C308.489 207.642 308.593 207.642 308.821 207.642L308.873 210.409C308.645 210.409 308.541 210.409 308.313 210.409V210.43ZM306.759 208.285C306.759 208.181 306.718 208.088 306.635 208.005C306.552 207.922 306.459 207.891 306.355 207.891C306.251 207.891 306.158 207.933 306.075 208.005C305.992 208.078 305.961 208.181 305.961 208.285C305.961 208.388 306.003 208.482 306.075 208.565C306.148 208.647 306.251 208.679 306.355 208.679C306.459 208.679 306.552 208.637 306.635 208.565C306.718 208.492 306.749 208.388 306.749 208.285H306.759ZM306.635 209.539C306.635 209.539 306.583 209.539 306.541 209.539H306.427C306.324 209.539 306.231 209.57 306.158 209.632C306.086 209.694 306.044 209.777 306.044 209.88C306.044 209.974 306.075 210.057 306.137 210.108C306.2 210.16 306.272 210.191 306.355 210.191C306.427 210.191 306.5 210.171 306.552 210.119C306.604 210.067 306.635 209.994 306.635 209.891V209.539Z" fill="#F2F0DE"/>
<path d="M311.95 209.569C311.95 209.818 311.878 210.014 311.722 210.17C311.556 210.325 311.349 210.398 311.111 210.408C311.007 210.408 310.924 210.398 310.842 210.367C310.759 210.336 310.686 210.294 310.614 210.232C310.551 210.18 310.5 210.108 310.458 210.035C310.417 209.963 310.406 209.869 310.396 209.786C310.396 209.693 310.406 209.61 310.437 209.538C310.469 209.465 310.52 209.382 310.583 209.331C310.645 209.268 310.717 209.227 310.8 209.185C310.883 209.154 310.976 209.134 311.069 209.123C311.183 209.123 311.287 209.134 311.38 209.175C311.38 208.885 311.37 208.74 311.36 208.439C311.36 208.253 311.287 208.108 311.152 207.984C311.018 207.859 310.831 207.807 310.583 207.818C310.448 207.818 310.334 207.849 310.241 207.89C310.147 207.932 310.064 207.984 309.992 208.056C309.93 208.118 309.878 208.201 309.836 208.284C309.795 208.367 309.774 208.45 309.774 208.533C309.546 208.533 309.432 208.533 309.194 208.543C309.236 208.253 309.381 208.025 309.619 207.859C309.857 207.693 310.168 207.6 310.572 207.59C310.769 207.59 310.956 207.59 311.111 207.631C311.266 207.673 311.411 207.725 311.525 207.797C311.639 207.87 311.733 207.973 311.805 208.098C311.878 208.222 311.909 208.377 311.919 208.553C311.94 208.968 311.94 209.175 311.95 209.6V209.569ZM311.515 209.745C311.515 209.631 311.463 209.527 311.38 209.455C311.287 209.372 311.194 209.341 311.069 209.341C310.956 209.341 310.852 209.393 310.769 209.476C310.686 209.558 310.645 209.662 310.655 209.776C310.665 209.89 310.707 209.994 310.79 210.066C310.883 210.149 310.976 210.18 311.101 210.18C311.215 210.18 311.318 210.128 311.401 210.045C311.484 209.963 311.525 209.859 311.515 209.745Z" fill="#F2F0DE"/>
<path d="M315.432 207.123C315.39 207.227 315.338 207.32 315.266 207.403C315.193 207.486 315.121 207.558 315.038 207.631C315.162 207.703 315.266 207.807 315.338 207.931C315.411 208.056 315.463 208.201 315.473 208.387C315.514 209.102 315.535 209.454 315.577 210.169L315.007 210.2C314.986 209.869 314.976 209.703 314.965 209.382C314.965 209.247 314.924 209.123 314.862 209.009C314.81 208.905 314.727 208.802 314.634 208.729C314.54 208.657 314.427 208.594 314.302 208.553C314.178 208.511 314.043 208.501 313.898 208.501C313.701 208.501 313.535 208.563 313.401 208.667C313.266 208.771 313.173 208.884 313.142 209.019C313.225 208.988 313.318 208.967 313.432 208.957C313.639 208.957 313.815 209.009 313.95 209.133C314.085 209.257 314.167 209.413 314.178 209.599C314.178 209.693 314.178 209.776 314.136 209.869C314.095 209.962 314.054 210.035 313.991 210.097C313.929 210.159 313.857 210.211 313.774 210.252C313.691 210.294 313.598 210.314 313.504 210.325C313.256 210.325 313.048 210.263 312.872 210.117C312.696 209.972 312.603 209.744 312.593 209.454C312.593 209.299 312.613 209.154 312.665 209.019C312.717 208.884 312.8 208.76 312.903 208.646C313.007 208.532 313.152 208.449 313.307 208.377C313.473 208.304 313.66 208.273 313.877 208.263H313.908C313.991 208.211 314.085 208.138 314.188 208.045C314.292 207.952 314.395 207.859 314.478 207.755C314.333 207.703 314.167 207.683 314.002 207.693C313.753 207.703 313.546 207.776 313.39 207.9C313.235 208.024 313.142 208.18 313.1 208.356C312.872 208.356 312.758 208.366 312.52 208.377C312.551 208.232 312.624 208.107 312.707 207.993C312.789 207.89 312.903 207.786 313.028 207.714C313.152 207.641 313.307 207.579 313.473 207.538C313.639 207.496 313.805 207.465 313.991 207.455C314.25 207.444 314.468 207.455 314.654 207.506C314.737 207.392 314.789 207.278 314.81 207.185C315.059 207.175 315.173 207.164 315.411 207.154L315.432 207.123ZM313.898 209.61C313.898 209.496 313.846 209.403 313.753 209.32C313.66 209.237 313.567 209.206 313.442 209.206C313.328 209.206 313.225 209.257 313.142 209.34C313.059 209.423 313.028 209.527 313.028 209.641C313.028 209.755 313.08 209.848 313.173 209.931C313.266 210.014 313.359 210.045 313.484 210.045C313.608 210.045 313.701 209.993 313.784 209.91C313.867 209.827 313.898 209.724 313.898 209.61ZM314.913 208.263C314.913 208.107 314.851 207.983 314.737 207.879C314.675 207.942 314.592 208.004 314.499 208.066C314.406 208.128 314.323 208.19 314.24 208.242C314.395 208.273 314.53 208.315 314.644 208.377C314.758 208.439 314.851 208.501 314.934 208.574C314.934 208.449 314.934 208.387 314.913 208.252V208.263Z" fill="#F2F0DE"/>
<path d="M315.773 205.89C315.753 206.004 315.711 206.129 315.639 206.263C315.566 206.398 315.452 206.523 315.317 206.647C315.183 206.771 315.007 206.875 314.799 206.958C314.603 207.051 314.364 207.103 314.095 207.134C314.157 207.072 314.219 206.999 314.281 206.906C314.344 206.823 314.385 206.74 314.406 206.688C314.375 206.688 314.333 206.709 314.292 206.709C314.157 206.709 314.043 206.678 313.95 206.605C313.857 206.533 313.805 206.429 313.805 206.315C313.805 206.201 313.836 206.098 313.919 206.004C314.002 205.911 314.116 205.859 314.261 205.859C314.406 205.859 314.52 205.89 314.623 205.973C314.716 206.056 314.768 206.17 314.779 206.315C314.779 206.409 314.779 206.491 314.737 206.574C314.696 206.657 314.675 206.73 314.634 206.782C314.717 206.74 314.799 206.678 314.872 206.605C314.944 206.533 315.007 206.46 315.048 206.377C315.1 206.295 315.141 206.222 315.162 206.139C315.183 206.056 315.203 205.984 315.214 205.922C315.431 205.911 315.545 205.901 315.763 205.89H315.773ZM314.509 206.263C314.509 206.201 314.478 206.149 314.426 206.108C314.375 206.067 314.323 206.056 314.261 206.056C314.188 206.056 314.136 206.087 314.084 206.129C314.043 206.17 314.022 206.232 314.022 206.295C314.022 206.346 314.053 206.398 314.095 206.44C314.147 206.481 314.198 206.502 314.271 206.491C314.333 206.491 314.385 206.46 314.437 206.419C314.478 206.377 314.499 206.326 314.499 206.263H314.509Z" fill="#F2F0DE"/>
<path d="M318.747 209.952C318.281 209.693 318.053 209.569 317.587 209.299C317.587 209.33 317.587 209.351 317.587 209.382C317.607 209.6 317.545 209.765 317.411 209.9C317.276 210.035 317.089 210.097 316.851 210.118C316.644 210.128 316.468 210.087 316.333 209.973C316.198 209.859 316.126 209.724 316.115 209.537C316.115 209.351 316.167 209.195 316.292 209.071C316.416 208.947 316.592 208.885 316.81 208.874C316.851 208.874 316.893 208.874 316.913 208.874H316.975C316.975 208.719 316.955 208.646 316.944 208.491C316.861 208.532 316.768 208.553 316.685 208.563C316.592 208.563 316.509 208.563 316.426 208.532C316.343 208.501 316.271 208.46 316.209 208.408C316.146 208.356 316.095 208.294 316.053 208.211C316.012 208.128 315.991 208.056 315.981 207.962C315.981 207.786 316.022 207.631 316.146 207.496C316.271 207.362 316.437 207.289 316.654 207.279C316.893 207.258 317.079 207.32 317.234 207.444C317.38 207.569 317.462 207.745 317.483 207.983C317.514 208.387 317.525 208.584 317.556 208.988C318.012 209.237 318.239 209.361 318.706 209.61C318.633 208.646 318.602 208.159 318.53 207.196C318.758 207.175 318.861 207.165 319.089 207.154C319.172 208.253 319.224 208.812 319.307 209.91C319.079 209.931 318.975 209.942 318.747 209.952ZM317.069 207.89C317.069 207.786 317.017 207.693 316.934 207.621C316.851 207.548 316.758 207.517 316.644 207.517C316.54 207.517 316.447 207.569 316.374 207.652C316.302 207.735 316.271 207.828 316.271 207.931C316.271 208.035 316.323 208.128 316.406 208.201C316.488 208.273 316.582 208.304 316.696 208.304C316.799 208.304 316.893 208.253 316.965 208.17C317.038 208.087 317.069 207.994 317.069 207.89ZM317.017 209.154C317.017 209.154 316.965 209.154 316.924 209.154C316.882 209.154 316.841 209.154 316.81 209.154C316.706 209.154 316.623 209.195 316.551 209.268C316.478 209.341 316.447 209.423 316.447 209.527C316.447 209.62 316.488 209.703 316.551 209.755C316.613 209.807 316.696 209.838 316.768 209.828C316.841 209.828 316.913 209.796 316.965 209.745C317.017 209.693 317.038 209.62 317.038 209.517C317.038 209.372 317.027 209.309 317.017 209.164V209.154Z" fill="#F2F0DE"/>
<path d="M272.981 125.6C272.39 133.993 263.936 138.821 256.569 141.754C248.87 144.821 250.341 143.857 242.591 147.048C234.167 150.519 216.646 160.932 206.544 160.559C196.701 160.207 191.634 152.778 185.51 153.721C180.475 154.498 174.786 159.503 171.491 160.57L171.274 159.554L163.71 124.025L163.482 122.999C176.641 120.026 197.623 117.58 203.228 114.772C211.186 110.783 216.19 109.157 220.428 107.333C224.666 105.509 238.405 97.2617 240.799 100.453L240.964 124.543C240.964 124.543 240.944 124.595 240.923 124.688C240.861 124.958 240.881 125.59 242.146 125.756C242.342 125.756 242.467 125.776 242.508 125.776H242.519C242.809 125.787 243.151 125.776 243.555 125.756C244.56 125.673 245.927 125.424 247.803 124.916C255.709 122.803 256.848 122.129 259.283 121.435C262.236 120.596 273.541 117.757 272.981 125.6Z" fill="#DB5632"/>
<path d="M170.725 161.917L162.259 122.233L163.264 122.005C168.341 120.855 174.579 119.788 180.62 118.752C189.883 117.166 199.457 115.519 202.772 113.861C208.419 111.032 212.647 109.364 216.045 108.017C217.475 107.447 218.791 106.929 220.034 106.401C220.925 106.018 222.293 105.323 223.878 104.505C232.292 100.205 239.431 96.8891 241.648 99.8421L241.855 100.112L242.021 124.678C242.083 124.699 242.177 124.72 242.301 124.73H242.477C242.84 124.751 243.151 124.741 243.524 124.73C244.529 124.647 245.896 124.378 247.554 123.922C252.849 122.502 255.087 121.746 256.724 121.187C257.543 120.907 258.216 120.679 259.024 120.451C262.568 119.446 268.992 118.151 272.194 120.751C273.572 121.87 274.193 123.539 274.038 125.694C273.541 132.791 267.956 138.366 256.973 142.738C253.325 144.189 251.678 144.759 250.238 145.256C248.621 145.816 247.088 146.344 243.016 148.023C240.871 148.903 238.156 150.23 235.007 151.773C225.775 156.281 214.294 161.886 206.533 161.617C201.177 161.43 197.239 159.275 193.779 157.379C190.836 155.763 188.287 154.374 185.697 154.768C182.837 155.213 179.656 157.172 176.848 158.902C174.911 160.094 173.242 161.119 171.833 161.575L170.745 161.928L170.725 161.917ZM186.588 152.613C189.396 152.613 192.007 154.043 194.742 155.545C198.006 157.337 201.705 159.358 206.585 159.534C213.786 159.814 225.526 154.084 234.074 149.908C237.255 148.354 239.99 147.018 242.197 146.106C246.321 144.406 247.886 143.868 249.533 143.298C251.036 142.78 252.579 142.241 256.185 140.811C266.35 136.76 271.51 131.766 271.945 125.549C272.049 124.088 271.696 123.041 270.857 122.368C269.075 120.917 264.858 120.948 259.563 122.451C258.786 122.668 258.144 122.886 257.366 123.155C255.709 123.725 253.429 124.502 248.062 125.932C246.29 126.409 244.798 126.709 243.627 126.802C243.161 126.823 242.788 126.834 242.467 126.823C242.467 126.823 242.405 126.823 242.301 126.823H242.073C241.13 126.688 240.519 126.367 240.156 125.86C239.876 125.455 239.783 124.968 239.897 124.481C239.897 124.461 239.897 124.44 239.907 124.419L239.742 100.909C237.804 99.7074 228.406 104.505 224.78 106.349C223.163 107.178 221.765 107.893 220.811 108.297C219.547 108.836 218.221 109.364 216.771 109.944C213.413 111.271 209.238 112.929 203.674 115.716C200.078 117.519 190.784 119.114 180.941 120.803C175.325 121.767 169.543 122.762 164.705 123.808L172.217 159.151C173.232 158.653 174.444 157.907 175.708 157.13C178.682 155.296 182.05 153.224 185.324 152.716C185.738 152.654 186.153 152.623 186.557 152.623L186.588 152.613Z" fill="black"/>
<path d="M272.163 120.731C268.961 118.131 262.537 119.436 258.993 120.441C258.185 120.669 257.512 120.897 256.693 121.177C255.056 121.736 252.818 122.503 247.534 123.923C244.819 124.638 243.358 124.772 242.602 124.741H242.581C242.508 124.741 242.436 124.741 242.374 124.731C242.197 124.731 242.073 124.689 241.99 124.669C242.001 124.627 242.001 124.575 242.001 124.534L241.835 100.444C241.835 100.226 241.762 100.008 241.628 99.8324C239.421 96.8794 232.271 100.195 223.858 104.495C222.272 105.303 220.905 105.997 220.014 106.381C218.781 106.92 217.475 107.427 216.056 107.997C212.657 109.344 208.419 111.012 202.762 113.851C197.146 116.67 176.258 119.042 163.264 121.985L163.482 123L163.71 124.026C176.9 121.042 197.83 118.638 203.684 115.706C209.269 112.908 213.455 111.251 216.812 109.924C218.252 109.354 219.579 108.826 220.832 108.287C221.786 107.883 223.184 107.168 224.801 106.339C228.427 104.485 237.825 99.6977 239.762 100.889L239.928 124.378C239.897 124.472 239.887 124.575 239.876 124.679C239.845 125.011 239.897 125.373 240.104 125.725C240.146 125.808 240.208 125.881 240.27 125.964C240.343 126.047 240.415 126.119 240.498 126.181C240.944 126.565 241.617 126.772 242.539 126.803C243.845 126.865 245.658 126.565 248.072 125.922C253.419 124.482 255.698 123.705 257.356 123.145C258.144 122.876 258.786 122.658 259.563 122.431C264.847 120.928 269.075 120.897 270.857 122.348C271.696 123.021 272.049 124.068 271.945 125.529C271.51 131.756 266.35 136.75 256.185 140.791C252.58 142.231 251.025 142.77 249.533 143.288C247.886 143.858 246.321 144.397 242.197 146.096C239.98 147.008 237.224 148.355 234.033 149.909C225.495 154.085 213.755 159.814 206.585 159.524C201.705 159.348 198.006 157.328 194.742 155.535C191.603 153.815 188.639 152.188 185.355 152.696C180.195 153.494 174.548 158.509 171.274 159.555L171.491 160.571L171.709 161.586C174.869 160.56 180.485 155.546 185.666 154.748C188.266 154.344 190.795 155.742 193.748 157.348C197.208 159.255 201.146 161.4 206.513 161.597C214.201 161.876 225.723 156.281 234.944 151.774C238.105 150.23 240.83 148.894 242.985 148.013C247.057 146.334 248.59 145.806 250.207 145.246C251.73 144.718 253.305 144.169 256.952 142.718C267.935 138.346 273.51 132.771 274.017 125.684C274.162 123.518 273.541 121.861 272.163 120.731Z" fill="black"/>
<path d="M214.284 131.414C225.122 124.783 242.529 125.778 242.529 125.778L214.284 131.414Z" fill="#DB5632"/>
<path d="M214.284 132.449C213.931 132.449 213.59 132.273 213.403 131.952C213.103 131.465 213.258 130.823 213.745 130.522C224.728 123.798 241.866 124.699 242.591 124.73C243.161 124.761 243.596 125.248 243.565 125.818C243.534 126.388 243.016 126.813 242.477 126.792C242.301 126.792 225.267 125.891 214.833 132.273C214.667 132.377 214.481 132.429 214.294 132.429L214.284 132.449Z" fill="black"/>
<path d="M451.104 177.864C451.104 177.864 453.279 189.997 452.191 202.928C452.191 202.928 462.522 204.43 463.092 204.7C463.662 204.969 465.205 182.184 461.392 175.242L451.104 177.874V177.864Z" fill="#DB5632"/>
<path d="M463.361 205.943L462.646 205.622C462.118 205.456 456.771 204.627 452.046 203.943L451.083 203.809L451.166 202.835C452.233 190.194 450.109 178.164 450.088 178.04L449.922 177.087L461.921 174.02L462.304 174.724C466.076 181.594 465.133 204.068 463.879 205.383L463.361 205.933V205.943ZM453.3 202.037C457.766 202.689 460.791 203.166 462.356 203.477C462.926 199.457 463.599 182.847 460.833 176.454L452.274 178.641C452.741 181.677 454.057 191.561 453.3 202.047V202.037Z" fill="black"/>
<path d="M456.255 177.559C463.172 176.795 468.48 173.474 468.112 170.141C467.744 166.808 461.839 164.725 454.923 165.489C448.006 166.252 442.698 169.573 443.066 172.906C443.434 176.239 449.339 178.322 456.255 177.559Z" fill="#DB5632"/>
<path d="M453.435 178.744C447.208 178.744 442.421 176.444 442.037 173.014C441.602 169.056 447.218 165.295 454.813 164.456C462.408 163.616 468.708 166.062 469.153 170.02C469.381 172.051 468.075 174.061 465.475 175.687C463.102 177.169 459.869 178.195 456.377 178.589C455.372 178.703 454.388 178.754 453.435 178.754V178.744ZM457.766 166.362C456.896 166.362 455.984 166.414 455.041 166.518C448.265 167.264 443.84 170.424 444.099 172.786C444.358 175.149 449.373 177.273 456.15 176.516C459.341 176.164 462.263 175.242 464.376 173.926C466.231 172.766 467.226 171.419 467.091 170.248C466.863 168.207 463.123 166.362 457.766 166.362Z" fill="black"/>
</svg>
