<svg width="174" height="256" viewBox="0 0 174 256" fill="none" xmlns="http://www.w3.org/2000/svg">
<path d="M35.9592 110.207C36.3892 106.837 37.7792 106.777 40.0592 104.017C43.3092 100.087 48.5092 96.9474 56.2992 94.5674C68.7592 90.7774 96.9492 84.8574 96.9492 84.8574L141.139 87.8574C141.139 87.8574 166.859 90.0874 169.439 115.767C171.559 136.837 171.449 163.577 172.049 180.147C172.089 181.297 172.199 182.987 172.279 184.017C172.529 187.127 172.789 195.687 169.259 202.697C166.979 207.227 162.529 210.427 157.369 211.507C153.329 212.347 147.409 213.387 143.759 213.127L148.289 254.427L16.9192 249.237L35.9692 110.197L35.9592 110.207Z" fill="#38424A"/>
<path d="M148.279 255.427C148.279 255.427 148.249 255.427 148.239 255.427L16.8693 250.237C16.5893 250.227 16.3193 250.097 16.1393 249.877C15.9593 249.657 15.8793 249.377 15.9193 249.097L34.9693 110.067C35.3093 107.367 36.2993 106.417 37.5393 105.217C38.0493 104.717 38.6293 104.167 39.2893 103.377C42.7793 99.1672 48.2493 95.9772 56.0093 93.6172C68.3593 89.8572 96.4593 83.9472 96.7493 83.8872C96.8393 83.8672 96.9293 83.8672 97.0193 83.8672L141.209 86.8672C141.489 86.8872 167.799 89.4772 170.429 115.677C171.959 130.877 172.339 149.337 172.639 164.157C172.759 169.987 172.869 175.487 173.039 180.117C173.079 181.287 173.189 182.977 173.269 183.937C173.549 187.307 173.789 195.917 170.149 203.147C167.779 207.847 163.079 211.337 157.569 212.487C153.749 213.277 148.669 214.167 144.979 214.167C144.949 214.167 144.909 214.167 144.879 214.167L149.289 254.327C149.319 254.617 149.229 254.907 149.029 255.117C148.839 255.317 148.569 255.437 148.299 255.437L148.279 255.427ZM18.0493 248.277L147.159 253.377L142.749 213.227C142.719 212.937 142.819 212.637 143.019 212.427C143.229 212.217 143.509 212.097 143.809 212.127C147.299 212.357 152.989 211.387 157.149 210.527C162.069 209.507 166.259 206.407 168.359 202.247C171.869 195.277 171.479 186.597 171.279 184.097C171.199 183.127 171.089 181.427 171.049 180.187C170.879 175.537 170.769 170.027 170.649 164.187C170.339 149.397 169.969 130.987 168.449 115.867C165.989 91.3372 142.079 88.9472 141.059 88.8572L97.0193 85.8672C94.8893 86.3172 68.4193 91.9272 56.5893 95.5272C49.2193 97.7672 44.0593 100.757 40.8293 104.647C40.0993 105.527 39.4493 106.147 38.9293 106.657C37.7793 107.767 37.1993 108.327 36.9493 110.327L18.0493 248.287V248.277Z" fill="black"/>
<path d="M84.805 177.345L77.6851 251.424L79.6759 251.615L86.7958 177.537L84.805 177.345Z" fill="black"/>
<path d="M66.6992 201.497C66.6992 201.497 57.3293 198.757 45.8693 203.367C35.8593 207.397 17.3493 202.087 11.2592 201.177C9.91925 200.977 4.76925 200.737 3.74925 199.027C2.71925 197.297 3.47925 194.487 14.7992 195.457C27.4992 196.547 20.6892 195.957 20.6892 195.957L5.47925 194.667C5.47925 194.667 0.699249 194.477 0.499249 191.557C0.349249 189.387 2.28925 188.697 7.09925 189.157C7.54925 189.197 8.03925 189.247 8.54925 189.287C13.6192 189.727 21.5492 190.207 21.5492 190.207C21.5492 190.207 7.54925 189.307 6.45925 186.177C5.67925 183.937 9.24925 181.867 15.1792 183.747C23.3692 186.337 26.6392 186.377 26.6392 186.377C26.6392 186.377 17.2493 185.137 17.2393 182.167C17.2393 180.767 18.9692 179.687 24.7292 181.157C30.4993 182.627 39.8993 183.137 43.2593 182.037C46.6193 180.937 56.7692 177.397 63.9393 183.237C63.9393 183.237 75.7692 194.137 66.6892 201.507L66.6992 201.497Z" fill="#F0AFAF"/>
<path d="M36.3493 205.357C29.2593 205.357 21.3793 203.727 15.9393 202.597C14.0193 202.197 12.3493 201.857 11.1893 201.677C10.9793 201.647 10.6693 201.617 10.2993 201.577C7.39932 201.267 4.22932 200.817 3.31932 199.287C2.80932 198.427 2.77932 197.557 3.23932 196.827C3.69932 196.097 4.60932 195.557 5.97932 195.217L5.44932 195.177C5.25932 195.177 0.239321 194.937 0.00932145 191.607C-0.0506786 190.747 0.179321 190.067 0.689321 189.557C1.65932 188.607 3.65932 188.337 7.14932 188.677C7.59932 188.717 8.07932 188.767 8.59932 188.807C9.08932 188.847 9.59932 188.887 10.1293 188.937C8.02932 188.307 6.36932 187.467 5.98932 186.367C5.68932 185.507 5.89932 184.627 6.56932 183.937C7.73932 182.727 10.7393 181.837 15.3293 183.287C16.2093 183.567 17.0293 183.807 17.7893 184.037C17.1493 183.507 16.7393 182.897 16.7393 182.187C16.7393 181.567 16.9893 181.037 17.4793 180.657C18.6693 179.737 21.1493 179.737 24.8493 180.687C30.6793 182.177 39.8893 182.617 43.0993 181.567L43.3593 181.487C47.0993 180.257 57.0393 176.987 64.2493 182.857C64.5393 183.127 70.7993 188.967 70.6093 195.147C70.5293 197.747 69.3093 200.017 66.9993 201.897C66.8693 201.997 66.6993 202.037 66.5393 201.987C66.4493 201.957 57.1793 199.357 46.0293 203.837C43.2793 204.947 39.8993 205.357 36.3193 205.357H36.3493ZM10.6393 195.767C5.69932 195.767 4.41932 196.817 4.07932 197.357C3.75932 197.867 3.95932 198.407 4.16932 198.777C4.89932 199.997 8.74932 200.407 10.3993 200.577C10.7893 200.617 11.1093 200.657 11.3293 200.687C12.5193 200.867 14.1993 201.217 16.1393 201.617C24.2193 203.287 37.7493 206.097 45.6793 202.907C56.2493 198.657 64.9593 200.537 66.5793 200.947C68.5293 199.297 69.5593 197.327 69.6193 195.107C69.7993 189.367 63.6693 183.657 63.6093 183.597C56.8493 178.097 47.2893 181.237 43.6893 182.427L43.4293 182.517C40.0793 183.617 30.5893 183.177 24.6193 181.647C20.1693 180.507 18.6293 181.027 18.1093 181.437C17.8693 181.627 17.7493 181.867 17.7493 182.177C17.7493 183.927 22.9993 185.407 26.7093 185.897C26.9693 185.937 27.1593 186.167 27.1393 186.427C27.1193 186.687 26.8993 186.887 26.6393 186.887C26.4993 186.887 23.1993 186.817 15.0293 184.237C11.1393 183.007 8.33932 183.547 7.28932 184.627C7.00932 184.917 6.71932 185.397 6.93932 186.027C7.64932 188.077 16.3093 189.377 21.5893 189.717C21.8693 189.737 22.0693 189.967 22.0593 190.247C22.0393 190.517 21.7893 190.747 21.5293 190.717C21.4493 190.717 13.5293 190.227 8.51932 189.797C7.99932 189.757 7.50932 189.707 7.05932 189.667C3.96932 189.367 2.10932 189.567 1.38932 190.267C1.08932 190.557 0.969321 190.957 1.00932 191.527C1.17932 193.967 5.46932 194.167 5.50932 194.177L20.7393 195.467C21.1793 195.507 21.5293 195.537 21.8193 195.567C22.3093 195.607 22.5193 195.627 22.5493 195.627V195.657C23.0493 195.747 23.0393 195.867 23.0193 196.167C22.9893 196.477 22.9793 196.597 22.4693 196.597V196.617C22.4693 196.617 22.1693 196.587 21.8493 196.567C21.5993 196.547 21.2893 196.527 20.9193 196.487L14.7593 195.957C13.1593 195.817 11.7993 195.757 10.6393 195.757V195.767Z" fill="black"/>
<path d="M80.1392 87.2073L89.6692 147.597L129.969 78.9573L80.5192 75.7773L80.1392 87.2073Z" fill="#2D6076"/>
<path d="M89.6692 148.596C89.6092 148.596 89.5492 148.596 89.4792 148.576C89.0592 148.496 88.7392 148.166 88.6792 147.746L79.1492 87.3564C79.1392 87.2964 79.1392 87.2264 79.1392 87.1664L79.5192 75.7364C79.5192 75.4664 79.6492 75.2064 79.8492 75.0264C80.0492 74.8464 80.3192 74.7564 80.5892 74.7664L130.039 77.9564C130.389 77.9764 130.699 78.1764 130.859 78.4864C131.019 78.7964 131.009 79.1664 130.839 79.4564L90.5392 148.086C90.3592 148.396 90.0292 148.576 89.6792 148.576L89.6692 148.596ZM81.1392 87.1464L90.2192 144.676L128.279 79.8564L81.4792 76.8364L81.1392 87.1464Z" fill="black"/>
<path d="M48.9893 136.996C47.7493 134.196 47.1293 133.266 44.6393 131.406C42.8793 130.086 40.2893 128.916 39.3593 128.206C38.4293 127.486 38.4293 125.506 38.4293 124.266V112.776C38.4293 112.466 39.0493 112.466 39.0493 112.156V107.806C39.0493 107.496 39.3593 107.496 39.3593 106.876C39.3593 106.256 39.0493 106.566 39.0493 105.946C39.0493 105.326 39.0493 102.526 38.7393 101.286C38.4293 100.046 31.8993 99.7363 31.8993 99.7363C31.8993 99.7363 25.3793 100.046 25.0593 101.286C24.7493 102.526 24.7493 105.326 24.7493 105.946C24.7493 106.566 24.4393 106.256 24.4393 106.876C24.4393 107.496 24.7493 107.496 24.7493 107.806V112.156C24.7493 112.466 25.3693 112.466 25.3693 112.776V124.266C25.3693 125.506 25.3693 127.486 24.4393 128.206C23.5093 128.926 20.9193 130.096 19.1593 131.406C16.6693 133.266 16.0493 134.206 14.8093 136.996C13.7293 139.426 13.5693 140.416 13.5693 143.206V187.006C13.5693 188.866 14.1893 191.356 16.9893 192.286C19.7893 193.216 31.8993 194.006 31.8993 194.006C31.8993 194.006 44.0093 193.226 46.8093 192.286C49.6093 191.346 50.2293 188.866 50.2293 187.006V143.206C50.2293 140.406 50.0693 139.416 48.9893 136.996Z" fill="#D1D3D2"/>
<path d="M31.8994 194.445H31.8694C31.3694 194.405 19.6694 193.645 16.8494 192.705C13.6194 191.625 13.1294 188.675 13.1294 187.005V143.205C13.1294 140.405 13.2794 139.355 14.4094 136.815C15.6894 133.945 16.3494 132.965 18.8994 131.055C19.9194 130.295 21.1794 129.595 22.2894 128.985C23.0994 128.535 23.7994 128.155 24.1794 127.865C24.9394 127.275 24.9394 125.395 24.9394 124.275V112.895C24.9394 112.895 24.8894 112.875 24.8694 112.855C24.6794 112.755 24.3194 112.575 24.3194 112.155V107.805C24.3194 107.805 24.2994 107.785 24.2794 107.765C24.1794 107.615 23.9994 107.375 23.9994 106.875C23.9994 106.465 24.1094 106.265 24.2794 106.095C24.2794 106.095 24.2894 106.085 24.2994 106.075C24.2994 106.075 24.2994 106.035 24.2994 105.945C24.2994 103.675 24.4094 102.025 24.6194 101.175C24.9694 99.7652 29.7994 99.3852 31.8594 99.2852H31.8994C33.9594 99.3852 38.7894 99.7652 39.1394 101.175C39.3494 102.025 39.4594 103.665 39.4594 105.945C39.4594 106.055 39.4694 106.095 39.4694 106.095C39.4694 106.095 39.4694 106.095 39.4794 106.095C39.6494 106.265 39.7594 106.465 39.7594 106.875C39.7594 107.375 39.5894 107.625 39.4794 107.765C39.4694 107.785 39.4494 107.805 39.4394 107.825V112.155C39.4394 112.585 39.0894 112.765 38.8894 112.855C38.8694 112.855 38.8494 112.875 38.8194 112.895V124.275C38.8194 125.325 38.8194 127.285 39.5794 127.865C39.9594 128.155 40.6594 128.545 41.4694 128.995C42.5794 129.605 43.8394 130.305 44.8594 131.065C47.4094 132.975 48.0694 133.955 49.3494 136.825C50.4794 139.365 50.6294 140.415 50.6294 143.215V187.015C50.6294 188.685 50.1494 191.635 46.9094 192.715C44.0894 193.655 32.3894 194.425 31.8894 194.455H31.8494L31.8994 194.445ZM25.1894 112.025C25.1894 112.025 25.2394 112.045 25.2594 112.065C25.4494 112.165 25.8094 112.345 25.8094 112.765V124.255C25.8094 125.625 25.8094 127.695 24.7094 128.545C24.2794 128.875 23.5494 129.275 22.7094 129.745C21.6194 130.345 20.3894 131.025 19.4194 131.755C16.9794 133.585 16.4094 134.465 15.2094 137.175C14.1894 139.485 13.9994 140.385 13.9994 143.205V187.005C13.9994 188.745 14.5394 191.005 17.1194 191.875C19.7694 192.755 31.2394 193.525 31.8894 193.565C32.5494 193.525 44.0094 192.755 46.6594 191.875C49.2394 191.015 49.7794 188.755 49.7794 187.005V143.205C49.7794 140.375 49.5994 139.475 48.5694 137.175C47.3694 134.475 46.7994 133.585 44.3594 131.755C43.3894 131.025 42.1594 130.345 41.0694 129.745C40.2294 129.275 39.4994 128.875 39.0694 128.545C37.9694 127.695 37.9694 125.625 37.9694 124.255V112.765C37.9694 112.335 38.3294 112.155 38.5194 112.065C38.5394 112.065 38.5594 112.045 38.5894 112.025V107.795C38.5894 107.525 38.7094 107.355 38.7894 107.255C38.8594 107.155 38.8994 107.095 38.8994 106.865C38.8994 106.755 38.8894 106.715 38.8894 106.715C38.8894 106.715 38.8894 106.715 38.8794 106.715C38.7094 106.545 38.5994 106.345 38.5994 105.935C38.5994 103.765 38.4894 102.155 38.2994 101.385C38.0894 100.895 35.0994 100.315 31.8894 100.165C28.6794 100.325 25.6894 100.895 25.4794 101.385C25.2894 102.145 25.1794 103.765 25.1794 105.935C25.1794 106.345 25.0694 106.545 24.8994 106.715C24.8994 106.715 24.8894 106.725 24.8794 106.735C24.8794 106.735 24.8794 106.775 24.8794 106.865C24.8794 107.095 24.9294 107.155 24.9894 107.255C25.0694 107.365 25.1894 107.535 25.1894 107.805V112.035V112.025Z" fill="black"/>
<path d="M24.9094 106.865C24.9094 106.865 28.3294 106.555 31.1194 106.555C33.9094 106.555 38.8894 106.865 38.8894 106.865C38.8894 106.865 39.0594 101.375 38.3494 101.015C37.6394 100.655 33.2894 99.7246 31.8994 99.7246C30.5094 99.7246 25.0594 101.275 25.0594 101.275L24.8994 106.865H24.9094Z" fill="#F2F0DE"/>
<path d="M24.4595 107.345L24.6395 100.935L24.9495 100.845C25.1795 100.785 30.4595 99.2754 31.9095 99.2754C33.3595 99.2754 37.7795 100.215 38.5595 100.615C39.1895 100.935 39.4495 103.045 39.3295 106.875V107.325L38.8595 107.295C38.8595 107.295 33.8695 106.985 31.1195 106.985C28.3695 106.985 24.9795 107.285 24.9495 107.295L24.4595 107.335V107.345ZM31.1295 106.105C33.4095 106.105 37.1695 106.315 38.4695 106.385C38.5095 104.195 38.3895 101.795 38.1195 101.375C37.3795 101.045 33.2495 100.145 31.9095 100.145C30.8795 100.145 27.1895 101.115 25.5095 101.595L25.3795 106.375C26.4295 106.295 28.9795 106.105 31.1395 106.105H31.1295Z" fill="black"/>
<path d="M25.0693 108.576H39.0493L38.9193 110.476L31.5893 110.436H25.0693V108.576Z" fill="#F2F0DE"/>
<path d="M39.3294 110.915L31.5894 110.875H24.6294V108.135H39.5194L39.3394 110.915H39.3294ZM25.4994 109.995H31.5794L38.4994 110.035L38.5694 109.015H25.4994V110.005V109.995Z" fill="black"/>
<path d="M29.3993 100.377L28.7993 121.937C28.7993 121.937 30.3493 122.557 31.5993 122.557C32.8493 122.557 35.3293 121.937 35.3293 121.937L34.9193 100.317L31.9093 99.7266L29.3993 100.377Z" fill="#6A8C65"/>
<path d="M31.5894 122.996C30.2794 122.996 28.6994 122.366 28.6294 122.346C28.4594 122.276 28.3494 122.106 28.3494 121.926L28.9494 100.376C28.9494 100.176 29.0894 100.006 29.2794 99.956L31.7894 99.306C31.8494 99.286 31.9194 99.286 31.9794 99.306L34.9894 99.896C35.1894 99.936 35.3394 100.116 35.3394 100.316L35.7494 121.936C35.7494 122.136 35.6194 122.316 35.4194 122.366C35.3194 122.396 32.8694 122.996 31.5894 122.996ZM29.2394 121.636C29.7294 121.806 30.7494 122.126 31.5894 122.126C32.4994 122.126 34.1594 121.766 34.8694 121.596L34.4694 100.686L31.9094 100.186L29.8194 100.726L29.2394 121.646V121.636Z" fill="black"/>
<path d="M31.5894 122.995C30.2794 122.995 28.6994 122.365 28.6294 122.345L28.3494 122.235L28.9694 100.035L31.8894 99.2754L35.3394 99.9554L35.7594 122.275L35.4194 122.355C35.3194 122.385 32.8694 122.995 31.5894 122.995ZM29.2394 121.635C29.7294 121.805 30.7494 122.125 31.5894 122.125C32.4994 122.125 34.1594 121.765 34.8694 121.595L34.4694 100.685L31.9094 100.185L29.8194 100.725L29.2394 121.645V121.635Z" fill="black"/>
<path d="M34.1195 130.275C34.3695 129.845 34.8995 129.665 35.3595 129.855C36.7895 130.455 39.7695 131.905 41.3795 134.205C42.8395 136.285 43.8795 139.075 44.3995 140.685C44.6095 141.325 44.1295 141.975 43.4595 141.975H40.9795C40.4195 141.975 39.9595 141.515 39.9795 140.955C40.0095 140.165 39.8895 138.935 39.1995 137.315C38.2695 135.145 37.0295 134.515 36.0895 133.585C35.4595 132.955 34.7395 132.485 34.1795 132.165C33.6995 131.895 33.5395 131.295 33.8095 130.815L34.1195 130.275Z" fill="#F2F0DE"/>
<path d="M41.3894 131.976C41.3894 131.706 41.6594 131.516 41.8994 131.626C42.6294 131.946 43.9194 132.576 44.4694 133.276C45.3394 134.356 46.0494 135.736 46.3994 136.486C46.5194 136.726 46.3394 137.006 46.0694 137.006H44.4194C44.2594 137.006 44.1194 136.906 44.0694 136.756C43.8494 136.076 43.1894 134.186 42.5794 133.666C42.1394 133.286 41.7994 133.096 41.6094 133.006C41.4794 132.946 41.3994 132.826 41.3994 132.686L41.3694 131.986L41.3894 131.976Z" fill="#F2F0DE"/>
<path d="M31.5694 141.596C31.5694 141.596 25.2894 145.286 23.8994 146.506C22.5094 147.726 18.9594 150.876 18.9594 150.876L13.8494 151.756V183.286C13.8494 183.286 23.7394 186.036 32.0394 186.076C40.3394 186.126 49.9294 183.776 49.9294 183.776L50.0394 151.196L43.4694 150.406C43.5194 150.516 41.1594 148.166 38.7394 146.246C36.4694 144.446 31.5594 141.596 31.5594 141.596H31.5694Z" fill="#E6B2B0"/>
<path d="M32.2894 186.516C32.2094 186.516 32.1294 186.516 32.0394 186.516C23.7794 186.476 13.8294 183.736 13.7294 183.706C13.5394 183.656 13.4094 183.476 13.4094 183.286V151.756C13.4094 151.546 13.5594 151.356 13.7694 151.326L18.7494 150.466C19.3194 149.956 22.3594 147.266 23.5994 146.176C24.9594 144.986 30.7394 141.566 31.2994 141.246C31.4394 141.146 31.6494 141.146 31.7894 141.236C32.1494 141.446 36.7794 144.146 38.9994 145.916C40.6794 147.256 42.3094 148.766 43.1794 149.586C43.3594 149.756 43.5294 149.916 43.6294 150.006L50.0794 150.776C50.2994 150.806 50.4694 150.986 50.4694 151.216L50.3594 183.796C50.3594 183.996 50.2194 184.176 50.0294 184.226C49.9294 184.246 40.4794 186.536 32.2694 186.536L32.2894 186.516ZM14.2894 182.946C16.0494 183.416 24.7294 185.596 32.0494 185.636C39.3294 185.676 47.7394 183.836 49.4994 183.426L49.6094 151.586L43.5594 150.866C43.3594 150.926 43.1794 150.756 42.5994 150.216C41.7394 149.406 40.1294 147.906 38.4694 146.596C36.5294 145.056 32.5494 142.686 31.5694 142.106C30.4394 142.776 25.3894 145.786 24.1894 146.836C22.8194 148.036 19.2794 151.176 19.2494 151.206C19.1894 151.256 19.1094 151.296 19.0294 151.306L14.2894 152.126V182.946Z" fill="black"/>
<path d="M32.2894 186.516H32.0494C23.7894 186.476 13.8394 183.736 13.7394 183.706L13.4194 183.616V151.386L18.7694 150.456C19.3394 149.956 22.3694 147.266 23.6194 146.166C25.0194 144.936 31.0994 141.366 31.3494 141.206L31.5694 141.076L31.7894 141.206C31.9894 141.326 36.7494 144.096 39.0194 145.896C40.7094 147.236 42.3994 148.816 43.2094 149.566C43.3894 149.726 43.5594 149.886 43.6494 149.976L50.4894 150.796L50.3794 184.106L50.0494 184.186C49.9494 184.206 40.4894 186.496 32.2894 186.496V186.516ZM14.2994 182.946C16.0594 183.416 24.7394 185.596 32.0594 185.636H32.2894C39.5294 185.636 47.7694 183.826 49.5094 183.426L49.6194 151.586L43.5694 150.856C43.3694 150.916 43.1894 150.756 42.6194 150.216C41.7594 149.406 40.1494 147.906 38.4894 146.586C36.5394 145.036 32.5594 142.676 31.5794 142.096C30.4594 142.756 25.3894 145.776 24.1994 146.826C22.8194 148.036 19.2594 151.196 19.2594 151.196L19.1694 151.276L14.3094 152.116V182.936L14.2994 182.946Z" fill="black"/>
<path d="M35.5595 152.155L39.6395 149.375C39.9595 149.165 40.3795 149.315 40.4995 149.685C40.9695 151.135 41.7995 154.465 40.5895 156.835C40.4595 157.095 40.1495 157.205 39.8895 157.105C38.6495 156.625 35.2695 155.105 35.2995 152.645C35.2995 152.445 35.3995 152.265 35.5595 152.155Z" fill="#E29D67"/>
<path d="M40.0895 157.225C40.0095 157.225 39.9295 157.215 39.8595 157.185C39.2495 156.955 38.0795 156.445 37.0695 155.685C35.8295 154.755 35.1995 153.725 35.2195 152.635C35.2195 152.415 35.3295 152.205 35.5195 152.075L39.5995 149.295C39.7695 149.175 39.9795 149.145 40.1795 149.215C40.3795 149.285 40.5295 149.445 40.5995 149.645C41.0395 151.005 41.9195 154.435 40.6795 156.865C40.5695 157.095 40.3395 157.225 40.0995 157.225H40.0895ZM39.9595 149.365C39.8695 149.365 39.7795 149.395 39.6995 149.445L35.6195 152.225C35.4895 152.315 35.3995 152.475 35.3995 152.635C35.3695 155.075 38.8595 156.605 39.9295 157.015C40.1595 157.095 40.4095 157.005 40.5195 156.785C41.7295 154.425 40.8595 151.045 40.4295 149.705C40.3795 149.555 40.2695 149.435 40.1195 149.385C40.0695 149.365 40.0195 149.355 39.9695 149.355L39.9595 149.365Z" fill="black"/>
<path d="M37.6393 153.065L39.7293 151.795C39.8193 151.735 39.9393 151.775 39.9793 151.885C40.1893 152.425 40.6993 154.035 40.1493 156.255C40.1093 156.405 39.9293 156.435 39.8393 156.325L37.5893 153.355C37.5893 153.355 37.5493 153.285 37.5493 153.245C37.5493 153.185 37.5793 153.115 37.6393 153.085V153.065Z" fill="#CA5F3E"/>
<path d="M39.9795 156.466C39.8995 156.466 39.8195 156.426 39.7695 156.356L37.5195 153.386C37.5195 153.386 37.4595 153.276 37.4595 153.216C37.4595 153.116 37.5095 153.036 37.5895 152.986L39.6795 151.716C39.7495 151.676 39.8295 151.666 39.8995 151.686C39.9695 151.716 40.0295 151.766 40.0595 151.846C40.2895 152.436 40.7795 154.056 40.2295 156.266C40.1995 156.366 40.1195 156.446 40.0295 156.466C40.0095 156.466 39.9895 156.466 39.9795 156.466ZM39.8195 151.846C39.8195 151.846 39.7895 151.846 39.7795 151.856L37.6895 153.126C37.6895 153.126 37.6495 153.176 37.6495 153.206C37.6495 153.226 37.6495 153.246 37.6695 153.266L39.9195 156.236C39.9195 156.236 39.9895 156.276 39.9995 156.266C40.0295 156.266 40.0595 156.236 40.0695 156.196C40.6095 154.026 40.1295 152.456 39.8995 151.886C39.8995 151.856 39.8695 151.846 39.8495 151.836C39.8495 151.836 39.8295 151.836 39.8195 151.836V151.846Z" fill="black"/>
<path d="M27.7494 151.776L23.6894 149.346C23.3694 149.156 22.9494 149.326 22.8594 149.706C22.4694 151.236 21.7394 154.806 22.6194 157.356C22.7394 157.696 23.1294 157.846 23.4294 157.666C24.7694 156.886 28.0494 154.726 28.0294 152.276C28.0294 152.076 27.9194 151.876 27.7494 151.776Z" fill="#E29D67"/>
<path d="M23.1493 157.826C23.0693 157.826 22.9993 157.816 22.9193 157.786C22.7393 157.716 22.5893 157.566 22.5293 157.376C21.6393 154.786 22.3993 151.126 22.7693 149.666C22.8193 149.456 22.9693 149.296 23.1593 149.206C23.3493 149.126 23.5593 149.146 23.7293 149.246L27.7893 151.676C27.9893 151.796 28.1093 152.016 28.1193 152.246C28.1293 154.736 24.8693 156.906 23.4693 157.716C23.3693 157.776 23.2593 157.806 23.1493 157.806V157.826ZM23.4093 149.356C23.3493 149.356 23.2893 149.366 23.2293 149.396C23.0893 149.456 22.9793 149.576 22.9493 149.726C22.5893 151.166 21.8293 154.786 22.6993 157.336C22.7493 157.476 22.8493 157.586 22.9793 157.636C23.1093 157.686 23.2593 157.676 23.3793 157.596C27.5093 155.196 27.9393 153.076 27.9393 152.276C27.9393 152.106 27.8493 151.946 27.6993 151.856L23.6393 149.426C23.5693 149.386 23.4793 149.356 23.3993 149.356H23.4093Z" fill="black"/>
<path d="M23.0693 156.645C23.0693 156.645 22.9193 154.365 23.3493 152.415C23.4293 152.065 23.8293 151.905 24.1093 152.115C24.5993 152.485 25.3193 153.035 25.9493 153.525" fill="#CA5F3E"/>
<path d="M22.9794 156.656C22.9794 156.656 22.8394 154.336 23.2594 152.406C23.2994 152.206 23.4394 152.046 23.6294 151.976C23.8094 151.916 24.0094 151.936 24.1594 152.056C24.6494 152.426 25.3694 152.976 25.9994 153.466L25.8894 153.606C25.2594 153.116 24.5394 152.566 24.0494 152.196C23.9394 152.116 23.8094 152.096 23.6894 152.136C23.5594 152.186 23.4594 152.296 23.4394 152.436C23.0194 154.346 23.1594 156.616 23.1594 156.636H22.9794V156.656Z" fill="black"/>
<path d="M21.4095 159.845C21.4095 159.845 22.7595 158.935 22.8695 157.985C23.1095 155.975 24.9495 151.445 31.5295 151.225C39.5995 150.945 40.6595 158.295 40.6595 158.295C40.6595 158.295 40.8795 159.465 41.7795 159.555C41.7795 159.555 39.1795 159.575 41.7795 160.835C41.7795 160.835 38.9695 168.855 31.4095 168.575C25.5795 168.355 22.8595 163.635 21.1895 161.065C21.1895 161.065 24.0895 160.535 21.4095 159.855V159.845Z" fill="#E29D67"/>
<path d="M31.7995 168.655C31.6695 168.655 31.5395 168.655 31.4095 168.655C25.8495 168.445 23.0595 164.125 21.3895 161.535C21.2895 161.385 21.1995 161.245 21.1095 161.105C21.0895 161.075 21.0895 161.045 21.1095 161.025C21.1295 161.005 21.1495 160.975 21.1795 160.975C21.7895 160.865 22.4495 160.625 22.4595 160.445C22.4595 160.395 22.3895 160.195 21.3895 159.935C21.3495 159.935 21.3295 159.895 21.3195 159.865C21.3095 159.835 21.3195 159.795 21.3595 159.775C21.3695 159.775 22.6695 158.875 22.7795 157.985C23.0695 155.545 25.2295 151.355 31.5295 151.135C35.7395 150.985 38.0195 152.945 39.1995 154.605C40.4695 156.405 40.7495 158.265 40.7595 158.285C40.7595 158.285 40.9695 159.385 41.7895 159.465C41.8395 159.465 41.8695 159.515 41.8695 159.555C41.8695 159.595 41.8295 159.635 41.7795 159.635C41.3695 159.635 40.7595 159.725 40.7095 159.915C40.6995 159.975 40.7295 160.225 41.8095 160.745C41.8495 160.765 41.8695 160.815 41.8595 160.855C41.8595 160.875 41.1295 162.895 39.4895 164.855C38.0295 166.605 35.5095 168.655 31.7895 168.655H31.7995ZM21.3395 161.125C21.4095 161.225 21.4695 161.335 21.5395 161.445C22.4095 162.795 23.4895 164.465 25.0595 165.875C26.9195 167.535 28.9995 168.395 31.4095 168.485C35.2795 168.635 37.8595 166.545 39.3495 164.765C40.7895 163.045 41.5095 161.265 41.6595 160.885C40.8295 160.475 40.4695 160.155 40.5295 159.895C40.5795 159.655 40.9695 159.555 41.2995 159.505C40.7295 159.165 40.5695 158.365 40.5695 158.325C40.5695 158.305 40.2895 156.475 39.0395 154.715C37.8895 153.095 35.6495 151.185 31.5295 151.325C25.3495 151.535 23.2295 155.625 22.9495 158.015C22.8595 158.805 21.9695 159.545 21.6095 159.825C22.3195 160.025 22.6395 160.225 22.6295 160.465C22.6195 160.835 21.7195 161.065 21.3395 161.145V161.125Z" fill="black"/>
<path d="M31.2893 151.265V154.205C31.2893 154.205 31.2893 155.215 32.0193 155.215C32.7493 155.215 32.6993 154.135 32.6993 154.135V151.265C32.6993 151.265 32.0193 151.105 31.2793 151.245L31.2893 151.265Z" fill="#CA5F3E"/>
<path d="M32.0295 155.305C31.8295 155.305 31.6495 155.235 31.5195 155.105C31.2095 154.795 31.2095 154.225 31.2095 154.205V151.265C31.2095 151.265 31.2395 151.185 31.2795 151.175C32.0195 151.025 32.7095 151.175 32.7295 151.195C32.7695 151.195 32.7995 151.245 32.7995 151.285V154.155C32.7995 154.155 32.8295 154.785 32.5195 155.115C32.3895 155.245 32.2295 155.315 32.0295 155.315V155.305ZM31.3895 151.325V154.195C31.3895 154.195 31.3895 154.705 31.6495 154.965C31.7495 155.065 31.8795 155.115 32.0395 155.115C32.1995 155.115 32.3095 155.065 32.3995 154.965C32.6595 154.695 32.6295 154.135 32.6295 154.135V151.335C32.4495 151.295 31.9395 151.225 31.3895 151.325Z" fill="black"/>
<path d="M30.8293 151.324V153.714C30.8293 153.714 30.8093 154.214 30.1693 154.214C29.5293 154.214 29.5693 153.724 29.5693 153.724V151.474L30.8293 151.314V151.324Z" fill="#CA5F3E"/>
<path d="M30.1693 154.316C29.9293 154.316 29.7393 154.246 29.6193 154.116C29.4593 153.946 29.4793 153.736 29.4793 153.726V151.486C29.4793 151.486 29.5093 151.406 29.5593 151.396L30.8193 151.236C30.8193 151.236 30.8693 151.236 30.8893 151.256C30.9093 151.276 30.9193 151.296 30.9193 151.326V153.716C30.9193 153.716 30.8893 154.306 30.1793 154.306L30.1693 154.316ZM29.6593 151.566V153.736C29.6593 153.736 29.6593 153.886 29.7493 153.996C29.8293 154.086 29.9793 154.136 30.1693 154.136C30.6993 154.136 30.7293 153.766 30.7293 153.716V151.426L29.6493 151.566H29.6593Z" fill="black"/>
<path d="M33.1995 151.295V153.725C33.1995 153.725 33.2195 154.225 33.8595 154.225C34.4995 154.225 34.4595 153.745 34.4595 153.745L34.5195 151.525L33.1995 151.295Z" fill="#CA5F3E"/>
<path d="M33.8494 154.315C33.1294 154.315 33.1094 153.735 33.1094 153.735V151.305C33.1094 151.305 33.1194 151.255 33.1394 151.235C33.1594 151.215 33.1894 151.215 33.2094 151.215L34.5294 151.445C34.5294 151.445 34.6094 151.495 34.5994 151.535L34.5394 153.755C34.5394 153.755 34.5394 153.975 34.3994 154.125C34.2794 154.255 34.0894 154.325 33.8494 154.325V154.315ZM33.2894 151.405V153.725C33.2894 153.725 33.3294 154.135 33.8494 154.135C34.0394 154.135 34.1794 154.085 34.2694 153.995C34.3694 153.885 34.3594 153.755 34.3594 153.755L34.4194 151.605L33.2794 151.405H33.2894Z" fill="black"/>
<path d="M27.7093 158.236C27.6193 158.236 27.5393 158.166 27.5293 158.076C27.5293 157.976 27.5893 157.896 27.6893 157.886C29.7393 157.716 30.1293 156.506 30.1293 156.486C30.1593 156.386 30.2593 156.336 30.3593 156.366C30.4593 156.396 30.5093 156.496 30.4793 156.596C30.4593 156.656 30.0093 158.056 27.7193 158.246H27.7093V158.236Z" fill="black"/>
<path d="M28.5593 157.966C28.5593 157.966 28.2993 159.686 29.5493 159.686C30.7993 159.686 30.1593 156.936 30.1593 156.936C30.1593 156.936 30.1193 157.376 28.5593 157.976V157.966Z" fill="black"/>
<path d="M29.5494 159.766C29.2194 159.766 28.9594 159.656 28.7694 159.436C28.3294 158.916 28.4594 157.986 28.4694 157.946C28.4694 157.916 28.4994 157.886 28.5294 157.876C29.9694 157.326 30.0694 156.916 30.0694 156.906C30.0694 156.866 30.1094 156.836 30.1594 156.836C30.1994 156.836 30.2394 156.866 30.2494 156.906C30.2694 156.986 30.6894 158.796 30.1394 159.496C29.9994 159.676 29.7994 159.766 29.5594 159.766H29.5494ZM28.6394 158.026C28.6194 158.226 28.5694 158.926 28.9094 159.316C29.0594 159.496 29.2794 159.586 29.5494 159.586C29.7294 159.586 29.8794 159.516 29.9894 159.386C30.3794 158.896 30.2094 157.676 30.1194 157.176C29.9494 157.376 29.5594 157.676 28.6494 158.026H28.6394Z" fill="black"/>
<path d="M36.0594 158.236H36.0494C33.7594 158.046 33.3094 156.646 33.2894 156.586C33.2594 156.486 33.3094 156.386 33.4094 156.356C33.4994 156.326 33.6094 156.376 33.6294 156.476C33.6494 156.526 34.0494 157.706 36.0694 157.876C36.1694 157.876 36.2394 157.976 36.2294 158.066C36.2294 158.156 36.1494 158.226 36.0494 158.226L36.0594 158.236Z" fill="black"/>
<path d="M35.2094 157.966C35.2094 157.966 35.4694 159.686 34.2194 159.686C32.9694 159.686 33.6094 156.936 33.6094 156.936C33.6094 156.936 33.6494 157.376 35.2094 157.976V157.966Z" fill="black"/>
<path d="M34.2193 159.766C33.9793 159.766 33.7793 159.676 33.6393 159.496C33.0893 158.806 33.5093 156.986 33.5293 156.906C33.5293 156.866 33.5793 156.836 33.6193 156.836C33.6593 156.836 33.6993 156.876 33.6993 156.916C33.6993 156.916 33.7993 157.326 35.2393 157.876C35.2693 157.886 35.2893 157.916 35.2993 157.946C35.2993 157.986 35.4393 158.916 34.9993 159.436C34.8093 159.656 34.5493 159.766 34.2193 159.766ZM33.6593 157.166C33.5693 157.666 33.3993 158.886 33.7893 159.376C33.8993 159.516 34.0393 159.576 34.2293 159.576C34.5093 159.576 34.7193 159.486 34.8693 159.306C35.2093 158.916 35.1593 158.206 35.1393 158.016C34.2293 157.666 33.8393 157.356 33.6693 157.166H33.6593Z" fill="black"/>
<path d="M33.1093 163.165C32.7893 163.165 32.5093 163.085 32.2793 162.915C32.0493 162.745 31.9193 162.525 31.8393 162.325C31.7593 162.505 31.6293 162.685 31.4393 162.835C31.0993 163.085 30.6293 163.155 30.0693 163.015C29.9993 162.995 29.9493 162.925 29.9693 162.855C29.9893 162.785 30.0593 162.735 30.1293 162.755C30.6193 162.865 31.0093 162.825 31.2793 162.615C31.6893 162.315 31.7293 161.755 31.7293 161.745C31.7293 161.675 31.7993 161.615 31.8693 161.615C31.9393 161.615 31.9993 161.675 31.9993 161.745V161.825C31.9993 161.825 32.0393 162.385 32.4493 162.685C32.7293 162.885 33.1093 162.935 33.5993 162.825C33.6693 162.805 33.7393 162.855 33.7593 162.925C33.7793 162.995 33.7293 163.065 33.6593 163.085C33.4693 163.135 33.2893 163.155 33.1193 163.155L33.1093 163.165Z" fill="black"/>
<path d="M30.9293 161.115C30.7293 160.755 30.9793 160.295 31.3793 160.295H32.3393C32.7393 160.295 32.9993 160.745 32.7893 161.115C32.6693 161.325 32.4293 161.765 32.3093 161.975C31.6393 162.805 31.2193 161.625 30.9193 161.115H30.9293Z" fill="black"/>
<path d="M31.8595 162.396H31.8095C31.4195 162.356 31.1595 161.856 30.9495 161.446C30.8995 161.346 30.8495 161.256 30.7995 161.176C30.6795 160.956 30.6795 160.696 30.7995 160.486C30.9195 160.286 31.1295 160.156 31.3595 160.156H32.3195C32.5495 160.156 32.7595 160.276 32.8795 160.486C33.0095 160.696 33.0095 160.956 32.8795 161.176C32.8195 161.286 32.7195 161.456 32.6295 161.616L32.3995 162.026V162.046C32.2095 162.276 32.0195 162.386 31.8295 162.386L31.8595 162.396ZM31.0395 161.046C31.0895 161.126 31.1395 161.226 31.1895 161.326C31.3595 161.656 31.5895 162.106 31.8395 162.126C31.9495 162.136 32.0695 162.056 32.1995 161.896L32.4295 161.496C32.5195 161.326 32.6195 161.156 32.6795 161.046C32.7495 160.916 32.7495 160.756 32.6795 160.626C32.6095 160.506 32.4795 160.426 32.3495 160.426H31.3895C31.2495 160.426 31.1295 160.496 31.0595 160.626C30.9795 160.756 30.9795 160.916 31.0595 161.046H31.0395Z" fill="black"/>
<path d="M21.8394 162.035L22.3294 161.755C22.3294 161.755 23.0394 161.375 23.3994 161.795C24.2094 162.765 22.6894 163.225 22.6894 163.225L21.8394 162.035Z" fill="#CA5F3E"/>
<path d="M22.6495 163.335L21.7095 162.005L22.2795 161.675C22.2795 161.675 23.0695 161.265 23.4595 161.735C23.6895 162.005 23.7595 162.275 23.6895 162.525C23.5295 163.055 22.7395 163.305 22.7095 163.315L22.6495 163.335ZM21.9695 162.065L22.7195 163.125C22.8995 163.065 23.4095 162.845 23.5195 162.475C23.5795 162.285 23.5195 162.075 23.3195 161.855C23.0195 161.495 22.3695 161.825 22.3595 161.835L21.9595 162.065H21.9695Z" fill="black"/>
<path d="M22.9094 163.595L23.4594 163.315C23.4594 163.315 24.1094 162.875 24.4694 163.315C24.8594 163.785 24.1794 164.255 24.1794 164.255L23.7194 164.615L22.9094 163.595Z" fill="#CA5F3E"/>
<path d="M23.7093 164.734L22.7693 163.564L23.4193 163.234C23.6693 163.064 24.2193 162.864 24.5393 163.254C24.6493 163.394 24.6993 163.544 24.6793 163.694C24.6293 164.044 24.2593 164.304 24.2393 164.314L23.7093 164.724V164.734ZM23.0493 163.624L23.7393 164.484L24.1293 164.184C24.1293 164.184 24.4593 163.954 24.4993 163.674C24.5093 163.564 24.4793 163.464 24.3993 163.364C24.0993 162.994 23.5193 163.374 23.5093 163.384L23.0593 163.624H23.0493Z" fill="black"/>
<path d="M30.1794 161.235C29.1794 161.235 28.0994 160.715 27.0594 160.215C26.6194 160.005 26.1994 159.795 25.7894 159.635C25.7394 159.615 25.7194 159.565 25.7394 159.515C25.7594 159.465 25.8094 159.445 25.8594 159.465C26.2794 159.625 26.6994 159.835 27.1394 160.045C28.1894 160.545 29.2694 161.065 30.2494 161.045C30.2994 161.045 30.3394 161.085 30.3394 161.135C30.3394 161.185 30.2994 161.225 30.2494 161.225H30.1794V161.235Z" fill="black"/>
<path d="M27.3395 163.435C26.8095 163.435 26.3395 163.315 25.9695 163.105C25.9295 163.085 25.9095 163.025 25.9295 162.985C25.9495 162.945 26.0095 162.925 26.0495 162.945C26.9895 163.465 28.6095 163.415 30.1095 162.105C30.1495 162.075 30.1995 162.075 30.2395 162.105C30.2795 162.135 30.2695 162.195 30.2395 162.235C29.2595 163.085 28.2295 163.425 27.3495 163.425L27.3395 163.435Z" fill="black"/>
<path d="M28.9295 161.915C28.3095 161.915 27.6395 161.795 26.9495 161.555C26.8995 161.535 26.8795 161.485 26.8895 161.445C26.8995 161.405 26.9595 161.375 26.9995 161.385C28.1595 161.785 29.2695 161.845 30.1295 161.545C30.1795 161.525 30.2295 161.545 30.2395 161.605C30.2495 161.665 30.2395 161.705 30.1795 161.715C29.7995 161.845 29.3695 161.915 28.9095 161.915H28.9295Z" fill="black"/>
<path d="M29.7593 158.735C30.0134 158.735 30.2193 158.52 30.2193 158.255C30.2193 157.99 30.0134 157.775 29.7593 157.775C29.5053 157.775 29.2993 157.99 29.2993 158.255C29.2993 158.52 29.5053 158.735 29.7593 158.735Z" fill="#F1EFDD"/>
<path d="M29.7595 158.826C29.4595 158.826 29.2095 158.576 29.2095 158.256C29.2095 157.936 29.4595 157.686 29.7595 157.686C30.0595 157.686 30.3095 157.936 30.3095 158.256C30.3095 158.576 30.0595 158.826 29.7595 158.826ZM29.7595 157.866C29.5595 157.866 29.3895 158.036 29.3895 158.256C29.3895 158.476 29.5595 158.646 29.7595 158.646C29.9595 158.646 30.1295 158.476 30.1295 158.256C30.1295 158.036 29.9595 157.866 29.7595 157.866Z" fill="black"/>
<path d="M33.6495 161.166H33.5795C33.5795 161.166 33.4895 161.126 33.4895 161.076C33.4895 161.026 33.5295 160.986 33.5795 160.986C34.5595 161.006 35.6395 160.496 36.6895 159.986C37.1295 159.776 37.5595 159.566 37.9695 159.406C38.0195 159.386 38.0695 159.406 38.0895 159.456C38.1095 159.506 38.0895 159.556 38.0395 159.576C37.6295 159.736 37.2095 159.936 36.7695 160.156C35.7295 160.656 34.6595 161.176 33.6495 161.176V161.166Z" fill="black"/>
<path d="M36.4893 163.366C35.6093 163.366 34.5793 163.026 33.5993 162.176C33.5593 162.146 33.5593 162.086 33.5993 162.046C33.6393 162.006 33.6893 162.006 33.7293 162.046C35.2293 163.346 36.8493 163.406 37.7893 162.886C37.8293 162.866 37.8893 162.886 37.9093 162.926C37.9293 162.966 37.9093 163.026 37.8693 163.046C37.4993 163.256 37.0193 163.376 36.4993 163.376L36.4893 163.366Z" fill="black"/>
<path d="M34.8994 161.856C34.4394 161.856 34.0094 161.796 33.6294 161.656C33.5794 161.636 33.5594 161.586 33.5694 161.546C33.5794 161.506 33.6394 161.476 33.6794 161.486C34.5394 161.786 35.6494 161.726 36.8094 161.326C36.8594 161.306 36.9094 161.326 36.9194 161.386C36.9294 161.446 36.9194 161.486 36.8594 161.496C36.1694 161.736 35.4994 161.856 34.8794 161.856H34.8994Z" fill="black"/>
<path d="M41.3495 161.756L40.9895 161.566C40.9895 161.566 40.2995 161.146 39.9395 161.566C39.1295 162.536 40.6895 163.016 40.6895 163.016L41.3395 161.756H41.3495Z" fill="#CA5F3E"/>
<path d="M40.7395 163.126L40.6695 163.106C40.6695 163.106 39.8095 162.836 39.6495 162.296C39.5795 162.046 39.6495 161.786 39.8795 161.516C40.2795 161.036 41.0095 161.476 41.0395 161.496L41.4695 161.726L40.7395 163.136V163.126ZM40.3695 161.476C40.2395 161.476 40.1095 161.516 40.0095 161.636C39.8295 161.856 39.7595 162.066 39.8195 162.246C39.9295 162.616 40.4595 162.846 40.6495 162.916L41.2195 161.796L40.9395 161.646C40.9395 161.646 40.6395 161.466 40.3695 161.466V161.476Z" fill="black"/>
<path d="M40.4495 163.416L39.8795 163.086C39.8795 163.086 39.2295 162.646 38.8695 163.086C38.4795 163.556 39.1595 164.026 39.1595 164.026L39.6895 164.496L40.4495 163.426V163.416Z" fill="#CA5F3E"/>
<path d="M39.6995 164.615L39.0995 164.085C39.0995 164.085 38.7095 163.795 38.6595 163.465C38.6395 163.305 38.6795 163.155 38.7995 163.025C39.1195 162.625 39.6795 162.845 39.9195 163.005L40.5695 163.385L39.6895 164.615H39.6995ZM39.2895 162.975C39.1595 162.975 39.0395 163.015 38.9395 163.135C38.8595 163.235 38.8295 163.335 38.8395 163.445C38.8795 163.725 39.1995 163.945 39.1995 163.945L39.6495 164.345L40.2995 163.435L39.8095 163.145C39.8095 163.145 39.5295 162.965 39.2695 162.965L39.2895 162.975Z" fill="black"/>
<path d="M34.0494 158.696C34.3034 158.696 34.5094 158.481 34.5094 158.216C34.5094 157.951 34.3034 157.736 34.0494 157.736C33.7953 157.736 33.5894 157.951 33.5894 158.216C33.5894 158.481 33.7953 158.696 34.0494 158.696Z" fill="#F1EFDD"/>
<path d="M34.0495 158.785C33.7495 158.785 33.4995 158.535 33.4995 158.215C33.4995 157.895 33.7495 157.645 34.0495 157.645C34.3495 157.645 34.5995 157.895 34.5995 158.215C34.5995 158.535 34.3495 158.785 34.0495 158.785ZM34.0495 157.825C33.8495 157.825 33.6795 157.995 33.6795 158.215C33.6795 158.435 33.8495 158.605 34.0495 158.605C34.2495 158.605 34.4195 158.435 34.4195 158.215C34.4195 157.995 34.2495 157.825 34.0495 157.825Z" fill="black"/>
<path d="M31.1193 162.986C31.1193 162.986 31.0393 164.216 31.8593 164.216C32.6793 164.216 32.5193 162.986 32.5193 162.986C32.5193 162.986 31.9093 162.696 31.8593 161.996C31.8593 161.996 31.8593 162.546 31.1193 162.986Z" fill="#E5B1AF"/>
<path d="M31.8593 164.346C31.6293 164.346 31.4394 164.266 31.2994 164.106C30.9394 163.716 30.9794 162.996 30.9894 162.966V162.896L31.0594 162.856C31.7194 162.466 31.7394 162.006 31.7394 161.986H32.0094C32.0494 162.586 32.5693 162.836 32.5893 162.856L32.6494 162.886V162.956C32.6494 162.956 32.7594 163.716 32.4194 164.106C32.2794 164.266 32.0994 164.346 31.8694 164.346H31.8593ZM31.2493 163.056C31.2493 163.226 31.2694 163.686 31.4894 163.926C31.5894 164.026 31.6993 164.076 31.8593 164.076C32.0193 164.076 32.1194 164.026 32.2094 163.926C32.3994 163.706 32.4093 163.276 32.3893 163.056C32.2593 162.986 31.9994 162.796 31.8494 162.456C31.7394 162.636 31.5594 162.856 31.2594 163.046L31.2493 163.056Z" fill="black"/>
<path d="M17.2495 174.785C17.7695 174.825 18.0295 174.835 18.5595 174.865C18.5595 175.075 18.5995 175.235 18.6795 175.355C18.7995 175.545 18.9895 175.655 19.2595 175.685C19.4595 175.705 19.6095 175.685 19.7295 175.605C19.8395 175.525 19.9095 175.425 19.9195 175.315C19.9295 175.205 19.8895 175.095 19.7995 175.005C19.7095 174.905 19.4795 174.805 19.1295 174.685C18.5495 174.495 18.1395 174.265 17.9195 174.015C17.6895 173.765 17.5995 173.475 17.6395 173.145C17.6695 172.925 17.7595 172.725 17.9095 172.545C18.0595 172.365 18.2795 172.235 18.5495 172.155C18.8195 172.075 19.1795 172.055 19.6295 172.105C20.1795 172.165 20.5895 172.305 20.8595 172.545C21.1295 172.775 21.2695 173.115 21.2895 173.565C20.7795 173.545 20.5295 173.535 20.0095 173.515C19.9995 173.315 19.9395 173.165 19.8395 173.075C19.7395 172.975 19.5995 172.915 19.4095 172.895C19.2495 172.875 19.1295 172.895 19.0495 172.955C18.9595 173.015 18.9195 173.085 18.8995 173.185C18.8995 173.255 18.9195 173.315 18.9795 173.385C19.0395 173.445 19.1795 173.515 19.4095 173.595C19.9795 173.785 20.3995 173.955 20.6395 174.105C20.8795 174.255 21.0595 174.435 21.1595 174.635C21.2595 174.835 21.2995 175.055 21.2795 175.285C21.2495 175.565 21.1495 175.805 20.9695 176.025C20.7895 176.245 20.5495 176.395 20.2595 176.495C19.9595 176.585 19.5995 176.605 19.1695 176.565C18.4095 176.485 17.8995 176.275 17.6395 175.965C17.3795 175.655 17.2595 175.275 17.2795 174.835L17.2495 174.785Z" fill="#F2F0DE"/>
<path d="M24.6194 176.186C23.9894 176.146 23.6794 176.126 23.0594 176.076C22.9494 176.356 22.8994 176.496 22.7894 176.766C22.2294 176.726 21.9394 176.696 21.3794 176.646C22.2094 174.986 22.6094 174.156 23.3794 172.486C23.9594 172.526 24.2494 172.546 24.8294 172.586C25.3694 174.346 25.6594 175.226 26.2494 176.976C25.6694 176.946 25.3794 176.936 24.7994 176.896C24.7294 176.606 24.6894 176.466 24.6194 176.176V176.186ZM24.3894 175.236C24.2294 174.606 24.1594 174.286 24.0094 173.656C23.7794 174.266 23.6594 174.566 23.4194 175.166C23.8094 175.196 23.9994 175.206 24.3894 175.226V175.236Z" fill="#F2F0DE"/>
<path d="M26.8695 172.705C27.3995 172.725 27.6695 172.735 28.1995 172.755C28.1595 174.055 28.1395 174.705 28.0995 176.005C28.9595 176.035 29.3895 176.045 30.2495 176.055C30.2495 176.475 30.2495 176.695 30.2395 177.115C28.8195 177.095 28.1095 177.075 26.6895 177.015C26.7595 175.295 26.7995 174.435 26.8695 172.705Z" fill="#F2F0DE"/>
<path d="M30.8894 172.806C31.5894 172.806 31.9394 172.806 32.6494 172.806C32.9294 173.856 33.0694 174.376 33.3594 175.416C33.6194 174.366 33.7494 173.836 33.9994 172.786C34.6994 172.776 35.0494 172.766 35.7494 172.736C35.8094 174.456 35.8394 175.316 35.9094 177.046C35.4594 177.066 35.2294 177.066 34.7694 177.086C34.7294 175.776 34.7194 175.116 34.6794 173.796C34.3794 175.116 34.2194 175.776 33.8894 177.096C33.4794 177.096 33.2694 177.106 32.8594 177.106C32.4994 175.796 32.3194 175.136 31.9794 173.826C31.9794 175.136 31.9794 175.796 31.9794 177.116H30.8394L30.8694 172.806H30.8894Z" fill="#F2F0DE"/>
<path d="M36.5193 174.856C36.4893 174.156 36.6693 173.596 37.0393 173.186C37.4093 172.776 37.9493 172.546 38.6493 172.506C39.3693 172.466 39.9293 172.616 40.3493 172.966C40.7693 173.316 41.0093 173.846 41.0693 174.536C41.1093 175.036 41.0593 175.456 40.9093 175.796C40.7593 176.136 40.5293 176.406 40.2093 176.606C39.8893 176.806 39.4793 176.926 38.9793 176.956C38.4693 176.986 38.0493 176.936 37.7093 176.796C37.3693 176.656 37.0893 176.426 36.8693 176.096C36.6493 175.776 36.5293 175.356 36.5093 174.856H36.5193ZM37.8793 174.796C37.8993 175.226 37.9993 175.536 38.1793 175.716C38.3593 175.896 38.5893 175.976 38.8793 175.956C39.1793 175.936 39.3993 175.826 39.5493 175.636C39.6993 175.446 39.7493 175.096 39.7193 174.616C39.6893 174.216 39.5893 173.926 39.4093 173.746C39.2293 173.566 38.9993 173.496 38.7193 173.506C38.4493 173.526 38.2393 173.636 38.0793 173.826C37.9193 174.016 37.8593 174.346 37.8793 174.786V174.796Z" fill="#F2F0DE"/>
<path d="M41.6294 172.366C42.1294 172.326 42.3794 172.296 42.8694 172.246C43.6094 173.126 43.9894 173.566 44.7594 174.446C44.6494 173.496 44.5994 173.026 44.4894 172.076C44.9894 172.016 45.2394 171.986 45.7394 171.926C45.9594 173.636 46.0594 174.496 46.2794 176.206C45.7594 176.266 45.4994 176.306 44.9794 176.366C44.1994 175.506 43.8194 175.066 43.0694 174.196C43.1594 175.136 43.2094 175.606 43.3094 176.546C42.7894 176.596 42.5294 176.626 42.0094 176.666C41.8594 174.946 41.7794 174.086 41.6294 172.376V172.366Z" fill="#F2F0DE"/>
<path d="M30.7795 179.836C24.5695 179.836 17.2795 178.736 17.1995 178.726C16.8795 178.676 16.6595 178.376 16.7095 178.056C16.7595 177.736 17.0595 177.516 17.3795 177.566C17.4495 177.576 24.6595 178.656 30.7795 178.656C36.8995 178.656 45.4795 177.476 45.5695 177.466C45.8895 177.426 46.1795 177.646 46.2295 177.966C46.2795 178.286 46.0495 178.576 45.7295 178.626C45.6395 178.636 36.9895 179.826 30.7795 179.826V179.836Z" fill="#CB5F3E"/>
<path d="M21.8194 181.176C21.7694 181.266 21.7094 181.336 21.6394 181.406C21.5694 181.466 21.4994 181.526 21.4194 181.586C21.5194 181.666 21.5994 181.766 21.6594 181.886C21.7194 182.006 21.7394 182.136 21.7294 182.296C21.6894 182.926 21.6694 183.246 21.6294 183.876C21.4294 183.866 21.3294 183.856 21.1294 183.846C21.1494 183.556 21.1594 183.406 21.1794 183.116C21.1794 182.996 21.1794 182.886 21.1294 182.776C21.0894 182.676 21.0294 182.586 20.9594 182.506C20.8894 182.426 20.7894 182.366 20.6894 182.316C20.5794 182.266 20.4694 182.236 20.3394 182.236C20.1594 182.226 20.0094 182.256 19.8794 182.336C19.7494 182.416 19.6594 182.506 19.6094 182.616C19.6794 182.596 19.7694 182.586 19.8694 182.596C20.0494 182.606 20.1994 182.676 20.3094 182.806C20.4194 182.936 20.4694 183.076 20.4594 183.246C20.4594 183.326 20.4294 183.406 20.3894 183.476C20.3494 183.546 20.2994 183.606 20.2394 183.656C20.1794 183.706 20.1094 183.746 20.0294 183.776C19.9494 183.806 19.8694 183.816 19.7794 183.806C19.5594 183.796 19.3794 183.706 19.2394 183.556C19.0994 183.406 19.0394 183.196 19.0594 182.936C19.0694 182.806 19.1094 182.676 19.1694 182.556C19.2294 182.436 19.3194 182.336 19.4194 182.256C19.5194 182.176 19.6594 182.106 19.8094 182.056C19.9594 182.016 20.1294 181.996 20.3294 182.006H20.3594C20.4394 181.966 20.5294 181.916 20.6394 181.836C20.7494 181.766 20.8394 181.696 20.9294 181.616C20.7994 181.556 20.6694 181.516 20.5094 181.506C20.2894 181.496 20.0994 181.526 19.9494 181.626C19.7994 181.716 19.6994 181.846 19.6494 181.996C19.4494 181.986 19.3394 181.976 19.1394 181.956C19.1894 181.836 19.2494 181.726 19.3394 181.636C19.4294 181.546 19.5294 181.476 19.6594 181.426C19.7794 181.366 19.9194 181.336 20.0694 181.316C20.2194 181.296 20.3694 181.286 20.5394 181.306C20.7694 181.316 20.9594 181.366 21.1194 181.426C21.1994 181.336 21.2594 181.246 21.2894 181.156C21.5094 181.166 21.6094 181.176 21.8294 181.196L21.8194 181.176ZM20.1994 183.206C20.1994 183.106 20.1794 183.016 20.1094 182.936C20.0394 182.856 19.9494 182.816 19.8494 182.806C19.7494 182.796 19.6494 182.826 19.5694 182.896C19.4894 182.966 19.4394 183.046 19.4394 183.146C19.4394 183.246 19.4594 183.336 19.5294 183.416C19.5994 183.496 19.6894 183.536 19.7894 183.546C19.8894 183.556 19.9894 183.526 20.0694 183.456C20.1494 183.386 20.1994 183.306 20.1994 183.206ZM21.2294 182.126C21.2294 181.996 21.1994 181.876 21.1194 181.766C21.0594 181.806 20.9794 181.856 20.8894 181.906C20.8094 181.956 20.7194 181.996 20.6394 182.036C20.7694 182.076 20.8894 182.136 20.9794 182.196C21.0694 182.256 21.1494 182.326 21.2094 182.396C21.2094 182.286 21.2194 182.226 21.2294 182.116V182.126Z" fill="#F2F0DE"/>
<path d="M21.0194 185.534C21.0294 185.344 21.0394 185.254 21.0494 185.064C21.0094 185.074 20.9594 185.084 20.8994 185.074C20.7594 185.074 20.6394 185.004 20.5394 184.904C20.4394 184.794 20.3994 184.674 20.4094 184.534C20.4094 184.394 20.4794 184.274 20.5894 184.174C20.6994 184.074 20.8394 184.034 21.0194 184.044C21.1994 184.054 21.3494 184.124 21.4494 184.234C21.5494 184.344 21.5994 184.504 21.5794 184.704C21.5594 185.044 21.5494 185.214 21.5294 185.554C21.3294 185.544 21.2194 185.534 21.0194 185.524V185.534ZM21.2394 184.604C21.2394 184.524 21.2194 184.454 21.1594 184.394C21.0994 184.334 21.0294 184.304 20.9494 184.294C20.8694 184.284 20.7894 184.314 20.7294 184.364C20.6694 184.414 20.6394 184.484 20.6294 184.564C20.6194 184.644 20.6494 184.714 20.6994 184.774C20.7494 184.834 20.8194 184.864 20.9094 184.874C20.9994 184.884 21.0694 184.854 21.1294 184.804C21.1894 184.754 21.2294 184.684 21.2294 184.604H21.2394Z" fill="#F2F0DE"/>
<path d="M24.6593 181.576C24.6293 181.736 24.5493 181.856 24.4293 181.906C24.2993 181.966 24.1593 181.986 23.9993 181.986C23.8993 181.986 23.8193 181.966 23.7393 181.936C23.6593 181.906 23.5893 181.886 23.5293 181.856C23.4693 181.826 23.3993 181.796 23.3293 181.776C23.2593 181.756 23.1893 181.736 23.1093 181.736C22.9593 181.736 22.8493 181.766 22.7593 181.856C22.6693 181.936 22.6093 182.046 22.5893 182.176C23.3193 182.216 23.6893 182.236 24.4293 182.266C24.4093 182.706 24.3993 182.916 24.3793 183.356C24.3793 183.576 24.2893 183.746 24.1293 183.876C23.9693 184.006 23.7893 184.056 23.5693 184.046C23.4793 184.046 23.3993 184.026 23.3293 183.986C23.2593 183.946 23.1993 183.906 23.1393 183.856C23.0793 183.806 23.0393 183.736 23.0193 183.666C22.9893 183.596 22.9793 183.516 22.9793 183.436C22.9793 183.356 22.9993 183.286 23.0393 183.216C23.0793 183.146 23.1193 183.086 23.1793 183.036C23.2393 182.986 23.3093 182.956 23.3793 182.926C23.4493 182.896 23.5393 182.886 23.6193 182.886C23.7293 182.886 23.8093 182.916 23.8893 182.956C23.8893 182.756 23.8993 182.656 23.9093 182.466C23.1593 182.426 22.7793 182.406 22.0293 182.366C22.0693 182.056 22.1593 181.826 22.3193 181.676C22.4793 181.526 22.6993 181.466 23.0093 181.476C23.1093 181.476 23.1993 181.496 23.2793 181.526C23.3593 181.556 23.4293 181.586 23.4893 181.616C23.5493 181.646 23.6093 181.676 23.6593 181.706C23.7093 181.736 23.7693 181.746 23.8293 181.746C23.8993 181.746 23.9593 181.736 23.9893 181.696C24.0193 181.656 24.0493 181.616 24.0693 181.556C24.3093 181.566 24.4193 181.576 24.6593 181.586V181.576ZM23.9793 183.486C23.9793 183.386 23.9493 183.296 23.8793 183.216C23.8093 183.136 23.7193 183.096 23.6193 183.096C23.5093 183.096 23.4193 183.126 23.3393 183.196C23.2593 183.266 23.2193 183.356 23.2093 183.456C23.1993 183.556 23.2393 183.646 23.3093 183.726C23.3793 183.806 23.4693 183.846 23.5793 183.846C23.6893 183.846 23.7793 183.816 23.8593 183.746C23.9393 183.676 23.9793 183.586 23.9893 183.486H23.9793Z" fill="#F2F0DE"/>
<path d="M26.5093 184.105C26.5293 183.425 26.5393 183.085 26.5593 182.395C26.5593 182.235 26.5193 182.095 26.4293 181.975C26.3393 181.855 26.1993 181.805 25.9893 181.795C25.8793 181.795 25.7893 181.805 25.7093 181.835C25.6293 181.865 25.5693 181.915 25.5093 181.965C25.4493 182.015 25.4093 182.085 25.3793 182.155C25.3493 182.225 25.3293 182.305 25.3193 182.375C25.1193 182.375 25.0093 182.365 24.8093 182.355C24.8693 182.105 24.9893 181.905 25.1993 181.765C25.3993 181.625 25.6693 181.565 25.9993 181.575C26.3293 181.585 26.5893 181.665 26.7793 181.815C26.9693 181.965 27.0593 182.195 27.0593 182.505C27.0393 183.145 27.0293 183.465 27.0193 184.105H26.5193V184.085L26.5093 184.105Z" fill="#F2F0DE"/>
<path d="M29.1194 183.636C29.1194 183.786 29.0594 183.916 28.9494 184.026C28.8394 184.136 28.6794 184.196 28.4894 184.186C28.2794 184.186 28.0994 184.116 27.9694 183.996C27.8394 183.876 27.7794 183.706 27.7894 183.506C27.7994 182.776 27.8094 182.406 27.8294 181.676C28.0294 181.676 28.1294 181.676 28.3294 181.676C28.3194 182.246 28.3194 182.526 28.2994 183.096C28.3694 183.066 28.4494 183.056 28.5394 183.056C28.6194 183.056 28.6994 183.076 28.7694 183.106C28.8394 183.136 28.8994 183.176 28.9594 183.226C29.0094 183.276 29.0494 183.336 29.0794 183.406C29.1094 183.476 29.1194 183.546 29.1194 183.626V183.636ZM28.8794 183.636C28.8794 183.546 28.8494 183.456 28.7794 183.386C28.7094 183.316 28.6294 183.276 28.5294 183.276C28.4294 183.276 28.3494 183.306 28.2794 183.376C28.2094 183.446 28.1694 183.526 28.1694 183.616C28.1694 183.706 28.1994 183.796 28.2694 183.866C28.3394 183.936 28.4194 183.976 28.5194 183.976C28.6194 183.976 28.6994 183.946 28.7694 183.876C28.8394 183.806 28.8794 183.726 28.8794 183.636ZM30.6394 183.646C30.6394 183.796 30.5794 183.926 30.4694 184.036C30.3594 184.146 30.2094 184.206 30.0094 184.206C29.7994 184.206 29.6194 184.146 29.4894 184.026C29.3594 183.906 29.2994 183.746 29.2994 183.536C29.2994 182.806 29.3094 182.436 29.3194 181.706C29.5194 181.706 29.6194 181.706 29.8194 181.706C29.8194 182.276 29.8194 182.556 29.8094 183.126C29.8794 183.096 29.9594 183.086 30.0494 183.086C30.1394 183.086 30.2094 183.096 30.2794 183.126C30.3494 183.156 30.4094 183.196 30.4694 183.246C30.5194 183.296 30.5694 183.356 30.5994 183.426C30.6294 183.496 30.6394 183.566 30.6394 183.646ZM30.3994 183.646C30.3994 183.556 30.3594 183.466 30.2994 183.396C30.2294 183.326 30.1494 183.286 30.0494 183.286C29.9494 183.286 29.8694 183.316 29.7994 183.386C29.7294 183.456 29.6894 183.536 29.6894 183.636C29.6894 183.736 29.7294 183.816 29.7994 183.876C29.8694 183.946 29.9594 183.976 30.0494 183.976C30.1394 183.976 30.2294 183.946 30.2994 183.876C30.3694 183.806 30.4094 183.726 30.4094 183.636L30.3994 183.646Z" fill="#F2F0DE"/>
<path d="M33.3293 184.146C32.9293 183.896 32.7293 183.766 32.3393 183.506V183.576C32.3393 183.766 32.2793 183.916 32.1593 184.026C32.0393 184.136 31.8693 184.186 31.6493 184.186C31.4693 184.186 31.3093 184.136 31.1993 184.026C31.0793 183.916 31.0293 183.786 31.0293 183.636C31.0293 183.466 31.0893 183.336 31.2093 183.236C31.3293 183.136 31.4893 183.086 31.6793 183.086H31.8393V182.746C31.7593 182.776 31.6793 182.796 31.5993 182.796C31.5193 182.796 31.4393 182.786 31.3693 182.746C31.2993 182.716 31.2393 182.676 31.1893 182.626C31.1393 182.576 31.0993 182.516 31.0593 182.446C31.0193 182.376 31.0093 182.306 31.0093 182.226C31.0093 182.066 31.0693 181.936 31.1793 181.826C31.2893 181.716 31.4393 181.656 31.6393 181.656C31.8493 181.656 32.0193 181.716 32.1393 181.836C32.2593 181.956 32.3193 182.116 32.3293 182.326C32.3293 182.686 32.3293 182.866 32.3293 183.226C32.7193 183.476 32.9193 183.596 33.3093 183.836C33.2993 182.976 33.2893 182.546 33.2793 181.686C33.4793 181.686 33.5793 181.686 33.7793 181.686L33.8193 184.146C33.6193 184.146 33.5193 184.146 33.3193 184.146H33.3293ZM31.9493 182.236C31.9493 182.146 31.9093 182.056 31.8393 181.986C31.7693 181.916 31.6793 181.886 31.5893 181.886C31.4993 181.886 31.4093 181.926 31.3393 181.996C31.2693 182.066 31.2293 182.146 31.2293 182.246C31.2293 182.346 31.2693 182.426 31.3393 182.496C31.4093 182.566 31.4993 182.606 31.5893 182.596C31.6793 182.586 31.7693 182.556 31.8393 182.486C31.9093 182.416 31.9493 182.336 31.9493 182.236ZM31.8393 183.356C31.8393 183.356 31.7893 183.356 31.7593 183.356H31.6593C31.5693 183.356 31.4893 183.386 31.4193 183.436C31.3493 183.496 31.3193 183.566 31.3193 183.666C31.3193 183.746 31.3493 183.826 31.3993 183.866C31.4493 183.906 31.5193 183.946 31.5893 183.946C31.6593 183.946 31.7193 183.926 31.7693 183.886C31.8193 183.846 31.8493 183.776 31.8393 183.686V183.376V183.356Z" fill="#F2F0DE"/>
<path d="M36.5594 183.396C36.5594 183.616 36.4994 183.796 36.3594 183.926C36.2194 184.056 36.0294 184.126 35.8194 184.136C35.7294 184.136 35.6494 184.126 35.5794 184.096C35.5094 184.066 35.4394 184.026 35.3794 183.976C35.3194 183.926 35.2694 183.866 35.2394 183.796C35.2094 183.726 35.1894 183.656 35.1894 183.566C35.1894 183.486 35.1994 183.416 35.2294 183.336C35.2594 183.256 35.2994 183.206 35.3594 183.146C35.4194 183.096 35.4794 183.046 35.5494 183.016C35.6194 182.986 35.6994 182.966 35.7894 182.966C35.8994 182.966 35.9794 182.976 36.0594 183.016C36.0594 182.756 36.0494 182.626 36.0394 182.366C36.0394 182.206 35.9694 182.066 35.8594 181.956C35.7394 181.846 35.5694 181.796 35.3494 181.806C35.2294 181.806 35.1294 181.826 35.0394 181.866C34.9494 181.906 34.8794 181.946 34.8194 182.006C34.7594 182.066 34.7094 182.136 34.6794 182.206C34.6494 182.276 34.6294 182.356 34.6194 182.426C34.4194 182.426 34.3094 182.426 34.1094 182.436C34.1494 182.186 34.2794 181.976 34.4894 181.826C34.6994 181.676 34.9794 181.596 35.3394 181.586C35.5194 181.586 35.6794 181.586 35.8194 181.626C35.9594 181.666 36.0894 181.706 36.1894 181.776C36.2894 181.846 36.3794 181.936 36.4394 182.046C36.4994 182.156 36.5294 182.296 36.5394 182.456C36.5494 182.826 36.5594 183.016 36.5694 183.386L36.5594 183.396ZM36.1794 183.546C36.1794 183.446 36.1394 183.356 36.0594 183.286C35.9794 183.216 35.8894 183.176 35.7894 183.186C35.6794 183.186 35.5994 183.226 35.5194 183.306C35.4394 183.386 35.4094 183.466 35.4094 183.576C35.4094 183.686 35.4494 183.766 35.5294 183.836C35.6094 183.906 35.6994 183.946 35.8094 183.936C35.9194 183.936 35.9994 183.896 36.0794 183.816C36.1594 183.736 36.1894 183.646 36.1894 183.546H36.1794Z" fill="#F2F0DE"/>
<path d="M39.6593 181.215C39.6193 181.305 39.5793 181.395 39.5093 181.465C39.4393 181.535 39.3793 181.605 39.3093 181.665C39.4193 181.735 39.5093 181.825 39.5793 181.935C39.6493 182.045 39.6893 182.175 39.6993 182.335C39.7393 182.965 39.7593 183.285 39.7893 183.915L39.2893 183.945C39.2793 183.655 39.2693 183.505 39.2493 183.215C39.2493 183.095 39.2093 182.985 39.1593 182.885C39.1093 182.785 39.0393 182.705 38.9593 182.635C38.8793 182.565 38.7793 182.515 38.6693 182.475C38.5593 182.435 38.4393 182.425 38.3093 182.435C38.1293 182.435 37.9893 182.495 37.8693 182.585C37.7493 182.675 37.6693 182.785 37.6393 182.895C37.7093 182.865 37.7993 182.845 37.8893 182.835C38.0693 182.835 38.2293 182.875 38.3493 182.995C38.4693 183.115 38.5393 183.245 38.5493 183.415C38.5493 183.495 38.5493 183.575 38.5093 183.655C38.4693 183.735 38.4393 183.795 38.3793 183.855C38.3193 183.915 38.2593 183.965 38.1793 183.995C38.1093 184.035 38.0193 184.055 37.9393 184.055C37.7193 184.055 37.5293 184.005 37.3793 183.875C37.2293 183.745 37.1393 183.545 37.1293 183.285C37.1293 183.155 37.1393 183.025 37.1893 182.895C37.2393 182.775 37.3093 182.665 37.3993 182.565C37.4993 182.465 37.6193 182.385 37.7593 182.325C37.9093 182.265 38.0793 182.225 38.2693 182.215H38.2993C38.3693 182.165 38.4593 182.105 38.5493 182.015C38.6393 181.925 38.7293 181.845 38.8093 181.765C38.6793 181.715 38.5393 181.695 38.3793 181.705C38.1593 181.715 37.9793 181.775 37.8393 181.885C37.6993 181.995 37.6093 182.135 37.5793 182.285C37.3793 182.285 37.2693 182.295 37.0693 182.305C37.0993 182.175 37.1593 182.065 37.2293 181.965C37.3093 181.865 37.3993 181.785 37.5193 181.715C37.6293 181.645 37.7693 181.595 37.9093 181.555C38.0593 181.515 38.2093 181.495 38.3693 181.485C38.5993 181.475 38.7893 181.485 38.9593 181.535C39.0293 181.435 39.0793 181.335 39.0993 181.245C39.3193 181.235 39.4193 181.225 39.6393 181.215H39.6593ZM38.2893 183.425C38.2893 183.325 38.2393 183.235 38.1593 183.165C38.0793 183.095 37.9893 183.065 37.8793 183.065C37.7693 183.065 37.6893 183.115 37.6093 183.185C37.5293 183.255 37.4993 183.355 37.5093 183.455C37.5193 183.555 37.5593 183.645 37.6393 183.715C37.7193 183.785 37.8093 183.815 37.9193 183.815C38.0293 183.815 38.1093 183.765 38.1893 183.695C38.2693 183.625 38.2993 183.525 38.2893 183.425ZM39.1893 182.235C39.1893 182.105 39.1293 181.985 39.0293 181.895C38.9693 181.945 38.8993 182.005 38.8193 182.065C38.7393 182.125 38.6593 182.175 38.5893 182.225C38.7293 182.255 38.8493 182.295 38.9493 182.345C39.0493 182.405 39.1293 182.455 39.1993 182.525C39.1993 182.415 39.1993 182.355 39.1893 182.245V182.235Z" fill="#F2F0DE"/>
<path d="M39.9595 180.116C39.9495 180.216 39.8995 180.326 39.8395 180.446C39.7695 180.566 39.6795 180.676 39.5495 180.786C39.4195 180.896 39.2695 180.986 39.0895 181.066C38.9095 181.146 38.6995 181.196 38.4695 181.226C38.5295 181.166 38.5795 181.106 38.6395 181.026C38.6995 180.946 38.7395 180.886 38.7495 180.826C38.7195 180.826 38.6795 180.836 38.6395 180.846C38.5195 180.846 38.4095 180.826 38.3295 180.756C38.2495 180.696 38.1995 180.606 38.1995 180.496C38.1995 180.396 38.2295 180.306 38.2995 180.216C38.3695 180.126 38.4795 180.086 38.5995 180.086C38.7295 180.086 38.8295 180.116 38.9195 180.186C38.9995 180.266 39.0495 180.366 39.0595 180.486C39.0595 180.566 39.0595 180.646 39.0195 180.716C38.9795 180.786 38.9595 180.846 38.9295 180.896C39.0095 180.856 39.0795 180.806 39.1395 180.736C39.1995 180.666 39.2595 180.606 39.2995 180.536C39.3395 180.466 39.3795 180.396 39.3995 180.326C39.4195 180.256 39.4395 180.196 39.4395 180.136L39.9295 180.106L39.9595 180.116ZM38.8395 180.446C38.8395 180.386 38.8095 180.346 38.7695 180.306C38.7295 180.266 38.6795 180.256 38.6195 180.256C38.5595 180.256 38.5095 180.276 38.4695 180.316C38.4295 180.356 38.4095 180.406 38.4095 180.456C38.4095 180.506 38.4395 180.546 38.4795 180.586C38.5195 180.626 38.5795 180.636 38.6395 180.636C38.6995 180.636 38.7495 180.616 38.7895 180.576C38.8295 180.536 38.8495 180.496 38.8495 180.446H38.8395Z" fill="#F2F0DE"/>
<path d="M42.5994 183.736C42.1894 183.506 41.9794 183.386 41.5694 183.156C41.5694 183.186 41.5694 183.196 41.5694 183.226C41.5794 183.416 41.5294 183.576 41.4194 183.686C41.3094 183.796 41.1394 183.866 40.9194 183.876C40.7394 183.886 40.5794 183.846 40.4594 183.746C40.3394 183.646 40.2694 183.516 40.2594 183.366C40.2594 183.196 40.2994 183.066 40.4194 182.956C40.5394 182.846 40.6894 182.786 40.8794 182.776C40.9194 182.776 40.9494 182.776 40.9794 182.776H41.0394C41.0394 182.646 41.0294 182.576 41.0194 182.436C40.9394 182.476 40.8594 182.496 40.7894 182.496C40.7094 182.496 40.6294 182.496 40.5594 182.466C40.4894 182.436 40.4194 182.406 40.3694 182.356C40.3194 182.306 40.2694 182.246 40.2394 182.186C40.2094 182.126 40.1794 182.046 40.1794 181.966C40.1794 181.806 40.2194 181.676 40.3194 181.556C40.4194 181.436 40.5694 181.376 40.7694 181.356C40.9794 181.346 41.1494 181.396 41.2794 181.496C41.4094 181.606 41.4794 181.766 41.4994 181.976C41.5194 182.336 41.5394 182.516 41.5594 182.876C41.9694 183.096 42.1694 183.206 42.5794 183.436C42.5194 182.576 42.4794 182.146 42.4194 181.286C42.6194 181.276 42.7194 181.266 42.9094 181.246C42.9894 182.226 43.0294 182.716 43.0994 183.696C42.8994 183.706 42.7994 183.716 42.5994 183.736ZM41.0994 181.906C41.0994 181.816 41.0494 181.736 40.9794 181.666C40.8994 181.606 40.8194 181.576 40.7294 181.576C40.6294 181.576 40.5494 181.626 40.4894 181.696C40.4294 181.766 40.3894 181.856 40.3994 181.946C40.3994 182.036 40.4494 182.116 40.5194 182.186C40.5994 182.246 40.6794 182.276 40.7694 182.276C40.8694 182.276 40.9494 182.226 41.0094 182.156C41.0694 182.086 41.1094 181.996 41.0994 181.906ZM41.0594 183.026C41.0594 183.026 41.0094 183.026 40.9794 183.026C40.9494 183.026 40.9094 183.026 40.8794 183.026C40.7894 183.026 40.7094 183.066 40.6494 183.126C40.5894 183.186 40.5594 183.256 40.5594 183.356C40.5594 183.436 40.5994 183.506 40.6594 183.556C40.7194 183.606 40.7894 183.626 40.8594 183.616C40.9294 183.616 40.9894 183.586 41.0294 183.536C41.0794 183.486 41.0994 183.426 41.0894 183.336C41.0894 183.206 41.0794 183.146 41.0694 183.026H41.0594Z" fill="#F2F0DE"/>
<path d="M8.91931 181.286C8.91931 181.286 7.51931 185.696 13.7893 185.976C13.7893 185.976 17.2693 186.026 17.6693 183.386C18.0693 180.746 13.4493 179.986 13.4493 179.986L10.5293 178.896C10.5293 178.896 9.41931 179.926 8.91931 181.286Z" fill="#F0AFAF"/>
<path d="M13.8594 186.467H13.7894C11.4294 186.367 9.79941 185.687 8.93941 184.457C7.88941 182.947 8.41941 181.207 8.43941 181.127V181.107C8.97941 179.657 10.1394 178.567 10.1894 178.527C10.3294 178.397 10.5294 178.357 10.6994 178.427L13.6194 179.517C13.7394 179.517 18.6194 180.377 18.1594 183.467C17.7994 185.857 15.2194 186.477 13.8494 186.477L13.8594 186.467ZM9.39941 181.437C9.36941 181.557 9.02941 182.837 9.76941 183.887C10.4394 184.847 11.8094 185.377 13.8194 185.467C13.9094 185.487 16.8594 185.467 17.1794 183.307C17.4994 181.187 13.4194 180.477 13.3694 180.467L10.6594 179.467C10.3394 179.817 9.71941 180.557 9.39941 181.437Z" fill="black"/>
<path d="M8.84926 173.638C8.84926 173.638 7.72926 176.368 10.0793 177.748C12.4293 179.128 18.7393 180.528 18.7393 180.528C18.7393 180.528 23.1793 181.458 23.5293 178.028C23.8693 174.598 20.3993 175.368 17.2493 173.508C14.0993 171.648 12.0693 171.428 12.0293 170.918C11.9893 170.408 9.89926 170.868 8.84926 173.638Z" fill="#F0AFAF"/>
<path d="M20.0093 181.147C19.2493 181.147 18.6793 181.027 18.6293 181.017C18.3593 180.957 12.2093 179.577 9.81935 178.177C7.66935 176.917 7.93935 174.537 8.37935 173.447C9.27935 171.057 10.9893 170.127 11.8693 170.237C12.1893 170.277 12.4293 170.477 12.4993 170.747C12.6493 170.847 13.0893 171.017 13.4793 171.167C14.3993 171.527 15.7893 172.057 17.4993 173.067C18.5093 173.667 19.5793 173.987 20.5293 174.267C22.4593 174.837 24.2793 175.387 24.0093 178.067C23.9093 179.067 23.4893 179.837 22.7693 180.367C21.9293 180.977 20.8493 181.127 19.9993 181.127L20.0093 181.147ZM11.6093 171.247C11.1693 171.327 10.0193 171.967 9.31935 173.817C9.27935 173.927 8.39935 176.187 10.3393 177.317C12.5893 178.637 18.7893 180.027 18.8493 180.037C18.8693 180.037 20.9793 180.467 22.1993 179.577C22.6893 179.217 22.9593 178.697 23.0293 177.987C23.2093 176.207 22.3093 175.857 20.2493 175.247C19.2493 174.947 18.1093 174.607 16.9893 173.947C15.3493 172.977 14.0093 172.457 13.1193 172.117C12.3093 171.807 11.7993 171.607 11.5993 171.247H11.6093Z" fill="black"/>
<path d="M9.49909 166.086C9.49909 166.086 8.15909 169.036 10.7291 170.506C13.2991 171.976 19.0791 174.596 22.3091 174.876C25.5391 175.156 26.2591 172.626 26.2191 170.416C26.1791 168.206 20.7691 167.186 18.3891 166.066C16.0091 164.946 13.9591 164.236 14.3591 163.286L10.7991 162.736L9.48909 166.086H9.49909Z" fill="#F0AFAF"/>
<path d="M22.7991 175.397C22.6291 175.397 22.4591 175.396 22.2791 175.376C18.7291 175.076 12.6991 172.207 10.4891 170.947C8.1491 169.607 8.5191 167.066 9.0391 165.906L10.3491 162.567C10.4391 162.347 10.6691 162.227 10.8891 162.257L14.4491 162.807C14.5991 162.827 14.7391 162.927 14.8091 163.057C14.8791 163.187 14.8891 163.356 14.8291 163.496C14.6791 163.836 16.4391 164.636 17.4891 165.106C17.8491 165.266 18.2291 165.437 18.6091 165.617C19.2291 165.907 20.0991 166.206 21.0091 166.516C23.6791 167.426 26.6991 168.456 26.7291 170.416C26.7491 171.686 26.5391 173.417 25.3991 174.477C24.7391 175.097 23.8591 175.406 22.7891 175.406L22.7991 175.397ZM11.1391 163.296L9.9691 166.276V166.296C9.9091 166.396 8.8491 168.846 10.9891 170.076C13.3791 171.446 19.1691 174.106 22.3691 174.386C23.3891 174.476 24.1791 174.256 24.7291 173.746C25.5991 172.936 25.7591 171.497 25.7491 170.427C25.7291 169.167 22.8291 168.177 20.7091 167.457C19.7691 167.137 18.8791 166.836 18.2091 166.516C17.8291 166.336 17.4591 166.167 17.0991 166.007C15.3991 165.237 13.9891 164.597 13.8391 163.707L11.1491 163.287L11.1391 163.296Z" fill="black"/>
<path d="M13.7392 157.066C13.7392 157.066 13.7992 158.516 14.8892 158.706C16.8492 159.046 19.8292 159.776 19.4192 163.046C19.0092 166.316 15.0492 166.376 10.6292 164.256C6.20917 162.126 7.38917 157.956 10.0692 156.916C12.7492 155.876 13.7092 156.016 13.7092 156.016L13.7392 157.076V157.066Z" fill="#F0AFAF"/>
<path d="M15.9292 166.207C14.3692 166.207 12.4692 165.697 10.4092 164.707C8.28922 163.687 7.10922 162.047 7.17922 160.217C7.23922 158.567 8.32922 157.057 9.88922 156.447C12.6092 155.387 13.6692 155.497 13.7892 155.517C14.0292 155.557 14.2092 155.757 14.2192 155.997L14.2492 157.047C14.2492 157.107 14.3292 158.097 14.9892 158.217C16.4792 158.477 20.4292 159.167 19.9292 163.107C19.7792 164.277 19.1992 165.177 18.2592 165.687C17.6292 166.027 16.8392 166.197 15.9492 166.197L15.9292 166.207ZM13.2192 156.527C12.7292 156.587 11.7892 156.777 10.2492 157.377C9.05922 157.837 8.22922 158.997 8.17922 160.247C8.11922 161.687 9.06922 162.947 10.8392 163.797C13.7592 165.197 16.3492 165.577 17.7592 164.807C18.4192 164.447 18.8092 163.837 18.9192 162.977C19.2492 160.347 17.1392 159.597 14.7992 159.197C13.6292 158.987 13.2692 157.777 13.2392 157.087L13.2192 156.527Z" fill="black"/>
<path d="M47.1392 160.658C47.1392 160.658 41.9292 163.008 43.3392 166.088C44.7492 169.168 47.7692 169.448 51.0092 166.898C53.2492 165.138 53.3592 163.238 53.2092 162.238C53.1392 161.778 52.9092 161.358 52.5492 161.018C51.6592 160.188 50.9792 158.988 47.1292 160.658H47.1392Z" fill="#F0AFAF"/>
<path d="M46.8992 169.127C46.5592 169.127 46.2192 169.087 45.8892 169.007C44.5892 168.697 43.5592 167.757 42.8892 166.297C42.5392 165.527 42.5092 164.727 42.7992 163.937C43.6292 161.717 46.7992 160.267 46.9292 160.207C50.4592 158.667 51.6192 159.407 52.6692 160.447L52.8892 160.657C53.3292 161.077 53.6092 161.597 53.6992 162.167C53.8592 163.257 53.7692 165.367 51.3192 167.297C49.7792 168.507 48.2692 169.127 46.8992 169.127ZM47.3392 161.117C47.2392 161.157 44.4092 162.477 43.7292 164.287C43.5292 164.827 43.5492 165.347 43.7892 165.877C44.3292 167.067 45.1192 167.787 46.1192 168.027C47.4092 168.337 49.0392 167.797 50.6992 166.497C52.7492 164.887 52.8392 163.177 52.7092 162.307C52.6592 161.957 52.4792 161.637 52.2092 161.377L51.9692 161.147C51.2292 160.417 50.5292 159.717 47.3392 161.117Z" fill="black"/>
<path d="M42.9595 197.827C42.9595 197.827 38.9795 199.807 35.8895 198.427C33.5695 197.397 31.1295 197.377 29.5095 197.317C27.8895 197.257 25.4195 196.857 26.7895 194.117C28.1595 191.377 31.5395 191.007 35.9395 191.097C39.9795 191.177 40.8595 190.647 42.8195 189.167C45.5695 187.097 50.0095 186.727 53.5095 187.347" fill="#F0AFAF"/>
<path d="M38.3894 199.427C37.4894 199.427 36.5694 199.287 35.6894 198.897C33.6394 197.987 31.4694 197.897 29.8794 197.837H29.4994C28.3694 197.777 26.7994 197.587 26.1594 196.507C25.7594 195.827 25.8294 194.957 26.3594 193.897C27.9594 190.707 31.9794 190.527 35.9694 190.607C39.8194 190.697 40.6194 190.237 42.5294 188.777C45.5894 186.467 50.4094 186.307 53.6094 186.867C53.8794 186.917 54.0594 187.177 54.0194 187.447C53.9794 187.717 53.7094 187.897 53.4394 187.857C50.4394 187.327 45.9394 187.457 43.1394 189.577C41.1494 191.087 40.1594 191.677 35.9494 191.607C31.4694 191.507 28.4594 191.937 27.2494 194.347C26.8794 195.077 26.8094 195.637 27.0194 195.997C27.3094 196.487 28.1494 196.757 29.5394 196.817L29.9194 196.837C31.5894 196.897 33.8694 196.987 36.0994 197.977C38.9494 199.247 42.7094 197.397 42.7494 197.387C42.9994 197.267 43.2994 197.367 43.4194 197.607C43.5394 197.857 43.4394 198.157 43.1994 198.277C43.0794 198.337 40.8594 199.417 38.3994 199.417L38.3894 199.427Z" fill="black"/>
<path d="M85.8094 182.366C85.3694 182.366 84.9794 182.076 84.8494 181.646L69.1694 127.796C69.0994 127.566 69.1194 127.316 69.2194 127.096L73.9194 116.836L61.9694 108.446C61.7494 108.286 61.5994 108.046 61.5594 107.776C61.5194 107.506 61.5894 107.236 61.7494 107.016L76.7594 87.3359C76.9394 87.0959 77.2194 86.9559 77.5094 86.9459C77.8094 86.9359 78.0894 87.0559 78.2894 87.2759C79.9694 89.1359 81.1394 89.7859 81.1494 89.7859C81.4194 89.9359 81.6194 90.2059 81.6694 90.5159L90.6494 147.436C90.6594 147.526 90.6694 147.616 90.6494 147.706L86.7794 181.486C86.7294 181.956 86.3494 182.326 85.8694 182.366C85.8394 182.366 85.8094 182.366 85.7794 182.366H85.8094ZM71.1994 127.586L85.3794 176.316L88.6694 147.616L79.7794 91.2759C79.3294 90.9759 78.5794 90.4059 77.6494 89.4759L63.9794 107.396L75.7594 115.666C76.1494 115.946 76.2994 116.466 76.0894 116.896L71.1994 127.576V127.586Z" fill="black"/>
<path d="M85.8095 182.366C85.6995 182.366 85.5895 182.346 85.4795 182.306C85.0395 182.156 84.7595 181.716 84.8095 181.246L88.6795 147.466C88.6995 147.326 88.7395 147.196 88.8095 147.076L121.929 90.9055C121.999 90.7955 122.079 90.6955 122.189 90.6155L127.379 86.6955C127.659 86.4855 128.019 86.4355 128.339 86.5655C128.659 86.6855 128.899 86.9755 128.959 87.3155L133.209 109.586C133.289 109.976 133.119 110.376 132.789 110.606L116.999 121.226L118.099 130.786C118.129 131.006 118.079 131.236 117.959 131.426L86.6495 181.886C86.4595 182.186 86.1395 182.356 85.7995 182.356L85.8095 182.366ZM90.6495 147.916L87.3195 177.046L116.089 130.666L114.959 120.846C114.919 120.476 115.079 120.106 115.399 119.896L131.139 109.306L127.319 89.2655L123.569 92.0955L90.6595 147.906L90.6495 147.916Z" fill="black"/>
<path d="M137.419 133.066L139.659 180.056L108.289 178.356L61.2094 174.536L59.6194 206.096L145.069 210.916" fill="#38424A"/>
<path d="M145.009 211.906L58.5693 207.046L60.2693 173.456L108.369 177.366L138.609 179.006L136.419 133.106L138.419 133.016L140.709 181.116L108.239 179.356L62.1593 175.616L60.6693 205.156L145.119 209.916L145.009 211.906Z" fill="black"/>
<path d="M99.4791 97.5352L90.8792 104.535L96.0691 114.515L104.639 106.365L99.4791 97.5352Z" fill="#CA5F3E"/>
<path d="M96.0692 115.516C96.0192 115.516 95.9592 115.516 95.9092 115.506C95.5992 115.456 95.3292 115.256 95.1892 114.986L89.9892 105.006C89.7692 104.586 89.8792 104.066 90.2492 103.766L98.8592 96.7657C99.0892 96.5857 99.3792 96.5057 99.6692 96.5557C99.9592 96.6057 100.209 96.7857 100.359 97.0357L105.509 105.866C105.739 106.266 105.669 106.776 105.339 107.096L96.7792 115.246C96.5892 115.426 96.3492 115.526 96.0892 115.526L96.0692 115.516ZM92.1292 104.796L96.3392 112.876L103.369 106.186L99.1992 99.0457L92.1292 104.796Z" fill="black"/>
<path d="M96.2793 114.215L85.8093 123.095L89.6693 147.595L102.689 125.415L96.2793 114.215Z" fill="#CA5F3E"/>
<path d="M89.6694 148.596C89.6094 148.596 89.5494 148.595 89.4794 148.575C89.0694 148.495 88.7394 148.165 88.6794 147.745L84.8094 123.245C84.7594 122.905 84.8794 122.555 85.1494 122.325L95.6294 113.446C95.8594 113.256 96.1494 113.176 96.4494 113.226C96.7394 113.276 96.9994 113.455 97.1494 113.715L103.559 124.915C103.739 125.225 103.739 125.605 103.559 125.915L90.5394 148.096C90.3594 148.406 90.0294 148.586 89.6794 148.586L89.6694 148.596ZM86.8794 123.495L90.2194 144.676L101.529 125.405L96.0094 115.756L86.8794 123.495Z" fill="black"/>
<path d="M105.344 105.535L103.591 106.498L108.181 114.85L109.934 113.887L105.344 105.535Z" fill="black"/>
<path d="M90.8441 103.349L83.5244 108.586L84.6881 110.213L92.0078 104.976L90.8441 103.349Z" fill="black"/>
<path d="M135.809 41.8162C135.809 41.8162 149.359 37.0562 146.879 53.0662C144.399 69.0762 135.419 62.1762 135.419 62.1762L135.819 41.8162H135.809Z" fill="#F0AFAF"/>
<path d="M138.579 64.5859C136.469 64.2559 134.889 63.0559 134.789 62.9859L134.389 62.6759L134.809 41.1059L135.469 40.8759C135.719 40.7859 141.589 38.7759 145.329 41.8859C147.849 43.9859 148.709 47.8059 147.869 53.2359C146.929 59.3359 144.909 63.0459 141.879 64.2559C140.729 64.7159 139.599 64.7559 138.579 64.5959V64.5859ZM136.429 61.6459C137.259 62.1459 139.249 63.1359 141.139 62.3659C143.429 61.4459 145.059 58.1759 145.879 52.9159C146.599 48.2359 145.989 45.0459 144.049 43.4359C141.809 41.5759 138.259 42.2059 136.799 42.5759L136.429 61.6459Z" fill="black"/>
<path d="M65.2196 41.7975C65.2196 41.7975 51.9496 36.7875 54.1796 53.5775C56.4196 70.3675 65.3496 63.1475 65.3496 63.1475L65.2196 41.7975Z" fill="#F0AFAF"/>
<path d="M60.6595 65.6868C60.1395 65.6468 59.6195 65.5268 59.0795 65.3168C56.0295 64.0968 54.0495 60.1968 53.1795 53.7168C52.3995 47.8668 53.3595 43.8268 56.0395 41.6968C59.7895 38.7168 65.3395 40.7668 65.5695 40.8568L66.2195 41.0968L66.3595 63.6268L65.9795 63.9368C65.8595 64.0368 63.4695 65.9368 60.6495 65.6868H60.6595ZM62.0395 42.1568C60.5295 42.0268 58.6895 42.1768 57.2995 43.2868C55.2195 44.9468 54.5095 48.3668 55.1895 53.4568C55.9395 59.0668 57.5395 62.5268 59.8295 63.4368C61.6295 64.1668 63.5495 63.1468 64.3495 62.6368L64.2295 42.5468C63.7195 42.4068 62.9395 42.2268 62.0495 42.1568H62.0395Z" fill="black"/>
<path d="M106.549 100.426C102.179 101.496 97.6195 101.606 93.2495 100.556C82.2395 97.9264 62.5695 88.9864 64.4295 58.8064C67.7395 5.20639 67.2695 16.7164 103.629 10.7864C135.819 5.53639 135.599 57.8364 135.599 57.8364C135.599 57.8364 143.869 91.2464 106.539 100.426H106.549Z" fill="#F0AFAF"/>
<path d="M97.0194 102.187C95.6594 102.067 94.3194 101.857 93.0094 101.537C81.1494 98.6967 61.5294 89.3667 63.4194 58.7467L63.6094 55.6867C64.8194 35.8967 65.2994 21.6367 69.8794 14.7367C74.6194 7.59673 87.5594 15.2767 103.299 9.83672C110.289 7.41672 116.499 8.03672 121.769 11.6767C128.989 16.6567 131.879 19.7867 135.559 34.8667C137.889 44.4267 137.069 46.6867 137.509 56.7467C137.229 60.0067 139.739 72.3467 132.449 84.4067C127.409 92.7467 118.779 98.4667 106.779 101.407C103.529 102.207 100.219 102.467 97.0094 102.187H97.0194ZM112.769 10.4867C110.029 10.2467 107.079 10.6667 103.959 11.7467C87.2694 17.5167 75.7194 9.58672 71.5594 15.8567C67.2794 22.3067 66.8094 36.3867 65.6194 55.8067L65.4294 58.8767C63.6294 88.0267 82.2294 96.8967 93.4694 99.5867C97.5494 100.567 101.979 100.517 106.289 99.4567C121.359 95.7567 130.709 87.6967 134.069 75.5167C136.589 66.3667 135.569 59.6467 135.499 58.8567L135.409 55.8967C135.329 55.0567 136.889 24.5767 120.619 13.3467C118.229 11.6967 115.599 10.7467 112.759 10.4967L112.769 10.4867Z" fill="black"/>
<path d="M122.909 23.8059C122.909 23.8059 112.669 35.0459 85.7695 33.3559C67.8495 32.2359 64.6195 55.7859 64.6195 55.7859C64.6195 55.7859 49.6695 1.94595 99.7395 0.525947C147.489 -0.824053 135.929 47.2659 135.929 47.2659L122.909 23.7959V23.8059Z" fill="black"/>
<path d="M64.7895 58.2562L64.1395 55.9262C64.0695 55.6662 57.0895 29.8362 69.1595 13.4662C75.4495 4.94616 85.7295 0.426164 99.7295 0.0261643C113.699 -0.353836 123.999 3.40616 130.359 11.2562C141.609 25.1162 136.469 47.1662 136.419 47.3862L136.119 48.6362L122.79 24.6162C120.45 26.7962 109.689 35.3462 85.7395 33.8462C68.4795 32.7462 65.1395 55.6162 65.1095 55.8462L64.7795 58.2462L64.7895 58.2562ZM101.689 1.00616C101.049 1.00616 100.409 1.00616 99.7595 1.03616C86.0895 1.42616 76.0695 5.80616 69.9695 14.0662C60.2395 27.2562 63.2095 46.8562 64.5895 53.4262C65.9895 47.4362 71.0495 31.9662 85.8095 32.8662C99.5595 33.7262 108.819 31.1262 114.159 28.7862C119.939 26.2562 122.52 23.4962 122.54 23.4662L123.009 22.9562L135.71 45.8462C136.6 40.9462 138.95 23.4362 129.579 11.8862C123.719 4.66616 114.339 1.00616 101.689 1.00616Z" fill="black"/>
<path d="M86.9594 59.8543C88.2572 59.8543 89.3094 58.8022 89.3094 57.5043C89.3094 56.2064 88.2572 55.1543 86.9594 55.1543C85.6615 55.1543 84.6094 56.2064 84.6094 57.5043C84.6094 58.8022 85.6615 59.8543 86.9594 59.8543Z" fill="black"/>
<path d="M86.9594 60.855C85.1494 60.855 83.6494 59.405 83.6094 57.585C83.5594 55.735 85.0294 54.195 86.8794 54.145C88.7294 54.115 90.2694 55.565 90.3194 57.415C90.3694 59.265 88.8994 60.805 87.0494 60.855C87.0194 60.855 86.9894 60.855 86.9594 60.855ZM86.9594 56.145C86.9594 56.145 86.9394 56.145 86.9194 56.145C86.1694 56.165 85.5794 56.785 85.5994 57.535C85.6194 58.285 86.2594 58.885 86.9894 58.855C87.7394 58.835 88.3294 58.215 88.3094 57.465C88.2894 56.725 87.6894 56.145 86.9594 56.145Z" fill="black"/>
<path d="M113.799 59.1746C115.097 59.1746 116.149 58.1225 116.149 56.8246C116.149 55.5267 115.097 54.4746 113.799 54.4746C112.502 54.4746 111.449 55.5267 111.449 56.8246C111.449 58.1225 112.502 59.1746 113.799 59.1746Z" fill="black"/>
<path d="M113.799 60.1748C111.989 60.1748 110.489 58.7248 110.449 56.9048C110.399 55.0548 111.869 53.5148 113.719 53.4648C113.749 53.4648 113.779 53.4648 113.809 53.4648C115.619 53.4648 117.119 54.9148 117.159 56.7348C117.209 58.5848 115.739 60.1248 113.889 60.1748C113.859 60.1748 113.829 60.1748 113.799 60.1748ZM113.799 55.4648C113.799 55.4648 113.779 55.4648 113.759 55.4648C113.009 55.4848 112.419 56.1048 112.439 56.8548C112.459 57.6048 113.069 58.2048 113.829 58.1748C114.579 58.1548 115.169 57.5348 115.149 56.7848C115.129 56.0448 114.529 55.4648 113.799 55.4648Z" fill="black"/>
<path d="M79.2595 54.1862C79.1495 54.1862 79.0495 54.1662 78.9395 54.1362C78.4195 53.9562 78.1394 53.3862 78.3094 52.8662C78.3994 52.6062 80.5395 46.4562 85.6795 46.3262C85.7495 46.3262 85.8295 46.3262 85.8995 46.3262C90.8695 46.3262 92.6295 50.6462 92.6995 50.8362C92.8995 51.3462 92.6495 51.9262 92.1395 52.1362C91.6295 52.3362 91.0495 52.0862 90.8395 51.5762C90.7895 51.4462 89.4795 48.3362 85.8795 48.3362C85.8295 48.3362 85.7695 48.3362 85.7195 48.3362C81.9595 48.4262 80.2195 53.4662 80.1995 53.5162C80.0595 53.9362 79.6695 54.1962 79.2495 54.1962L79.2595 54.1862Z" fill="black"/>
<path d="M120.859 53.1252C120.459 53.1252 120.089 52.8852 119.929 52.4952C119.909 52.4452 117.869 47.4952 114.149 47.6052C110.429 47.6952 109.249 50.9652 109.199 51.1052C109.019 51.6252 108.449 51.9052 107.929 51.7252C107.409 51.5452 107.129 50.9852 107.309 50.4652C107.369 50.2752 108.959 45.7452 114.099 45.6152C114.149 45.6152 114.209 45.6152 114.259 45.6152C119.279 45.6152 121.679 51.5152 121.779 51.7752C121.979 52.2852 121.729 52.8652 121.219 53.0752C121.099 53.1252 120.969 53.1452 120.849 53.1452L120.859 53.1252Z" fill="black"/>
<path d="M98.5996 71.1653C97.4496 71.1653 96.3596 71.1053 95.5296 70.9253C94.8696 70.7853 94.3996 70.3653 94.2196 69.7753C93.5796 67.6253 97.9396 62.8353 100.59 60.1753C100.98 59.7853 101.61 59.7853 102 60.1753C102.39 60.5653 102.39 61.1953 102 61.5853C99.0396 64.5553 96.4696 67.8553 96.1696 69.0153C98.4896 69.4153 103.23 68.9453 104.92 68.7253C105.48 68.6453 105.97 69.0353 106.04 69.5853C106.11 70.1353 105.73 70.6353 105.18 70.7053C104.98 70.7353 101.59 71.1753 98.5896 71.1753L98.5996 71.1653Z" fill="black"/>
<path d="M100.27 83.4647C91.8595 83.4647 85.7995 77.3747 85.5395 77.1147C85.1495 76.7247 85.1595 76.0847 85.5495 75.7047C85.9395 75.3147 86.5795 75.3247 86.9595 75.7147C87.0195 75.7747 92.7095 81.4647 100.26 81.4647H100.34C105 81.4347 109.439 79.2647 113.539 75.0147C113.919 74.6147 114.56 74.6047 114.95 74.9847C115.35 75.3647 115.36 76.0047 114.98 76.3947C110.49 81.0647 105.56 83.4347 100.33 83.4647H100.249H100.27Z" fill="black"/>
</svg>
