<svg width="324" height="426" viewBox="0 0 324 426" fill="none" xmlns="http://www.w3.org/2000/svg">
<g clip-path="url(#clip0_141_13094)">
<path d="M238.045 375.113C276.286 357.281 303.272 334.215 298.319 323.593C293.366 312.972 258.35 318.817 220.109 336.649C181.868 354.482 154.882 377.548 159.835 388.169C164.788 398.791 199.804 392.945 238.045 375.113Z" fill="#2D6076"/>
<path d="M201.665 160.258C193.786 153.395 190.512 151.413 180.125 149.228C172.785 147.685 163.069 147.813 159.152 146.937C155.234 146.06 152.373 139.925 150.581 136.082L133.989 100.5C133.541 99.5395 135.463 98.6435 135.015 97.6828L128.734 84.2151C128.286 83.2544 129.247 82.8065 128.351 80.8851C127.455 78.9637 126.943 80.3724 126.047 78.451C125.151 76.5296 121.115 67.8744 118.358 64.4706C115.605 61.0758 94.9514 69.5262 94.9514 69.5262C94.9514 69.5262 75.2069 79.9028 76.0333 84.2068C76.8645 88.4975 80.9005 97.1528 81.8007 99.0832C82.7008 101.014 81.288 100.492 82.1839 102.413C83.0799 104.335 84.0405 103.887 84.4885 104.847L90.7686 118.315C91.2166 119.276 93.138 118.38 93.5859 119.34L110.178 154.922C111.97 158.765 114.831 164.901 112.984 168.465C111.138 172.029 104.794 179.39 101.258 186.004C96.2555 195.365 95.678 199.143 95.8622 209.595C96.0305 218.663 96.9515 221.963 100.987 230.618L164.22 366.22C166.912 371.993 172.421 378.792 182.42 377.638C192.419 376.484 231.055 361.425 231.055 361.425C231.055 361.425 267.425 341.508 274.737 334.59C282.048 327.672 280.381 319.081 277.689 313.308L214.457 177.707C210.421 169.051 208.481 166.216 201.646 160.267L201.665 160.258Z" fill="#D2D4D3"/>
<path d="M231.711 362.786L231.621 362.828C230.029 363.438 192.679 377.964 182.608 379.129C171.038 380.464 165.278 372.016 162.873 366.86L99.6413 231.258C95.5927 222.575 94.5461 219.124 94.3761 209.626C94.1866 198.879 94.8142 194.902 99.9485 185.302C102.008 181.462 104.891 177.492 107.451 173.992C109.315 171.434 110.923 169.228 111.674 167.786C113.185 164.874 110.468 159.047 108.841 155.557L92.4179 120.338C92.3285 120.336 92.2391 120.333 92.1588 120.327C91.4211 120.307 90.0444 120.264 89.4316 118.95L83.1514 105.483C83.1514 105.483 83.0626 105.458 82.9878 105.415C82.4592 105.11 81.5737 104.607 80.8468 103.048C80.2552 101.78 80.3255 101.008 80.606 100.237C80.6157 100.21 80.6344 100.179 80.6399 100.144C80.6399 100.144 80.5988 100.008 80.4636 99.7185C77.1841 92.6855 75.1491 87.4224 74.5894 84.4947C73.6441 79.6282 88.0398 71.481 94.2807 68.2067L94.3441 68.1771L94.4076 68.1475C100.927 65.4714 116.422 59.6806 119.542 63.5328C121.416 65.8477 124.149 70.7854 127.428 77.8184C127.589 78.1628 127.676 78.2546 127.689 78.2595C127.668 78.2365 127.707 78.251 127.743 78.2565C128.514 78.537 129.155 78.9885 129.742 80.2482C130.469 81.8071 130.285 82.8087 130.179 83.4097C130.163 83.4943 130.148 83.5789 130.141 83.6592L136.405 97.046C137.023 98.3692 136.166 99.4419 135.707 100.02C135.656 100.077 135.605 100.156 135.549 100.226L151.972 135.445C153.489 138.699 156.312 144.753 159.518 145.476C161.106 145.828 163.834 146.023 166.991 146.239C171.313 146.541 176.212 146.871 180.478 147.762C191.123 150.003 194.583 152.075 202.693 159.128C209.86 165.364 211.831 168.384 215.88 177.066L279.112 312.668C281.516 317.825 284.285 327.667 275.826 335.672C268.464 342.647 233.328 361.922 231.833 362.74L231.743 362.782L231.711 362.786ZM91.9639 117.306C92.0533 117.308 92.1427 117.311 92.2231 117.318C92.9607 117.338 94.3375 117.38 94.9503 118.694L111.542 154.276C113.52 158.517 116.508 164.925 114.317 169.146C113.462 170.792 111.793 173.081 109.855 175.74C107.359 179.165 104.533 183.043 102.577 186.703C97.6684 195.888 97.1774 199.449 97.3575 209.56C97.5157 218.181 98.2554 221.234 102.334 229.98L165.566 365.582C168.085 370.984 173.024 377.198 182.242 376.144C191.707 375.052 228.328 360.877 230.417 360.057C232.384 358.975 266.786 340.042 273.707 333.493C280.444 327.119 278.854 319.331 276.335 313.93L213.103 178.328C209.02 169.573 207.157 167.044 200.658 161.39C193.038 154.749 189.994 152.836 179.803 150.692C175.742 149.838 170.955 149.51 166.726 149.22C163.444 148.996 160.617 148.803 158.808 148.4C154.165 147.365 151.177 140.957 149.199 136.716L132.607 101.134C131.99 99.811 132.847 98.7383 133.306 98.1603C133.357 98.1035 133.408 98.0244 133.464 97.9543L127.353 84.8491C126.964 84.0153 127.086 83.3297 127.174 82.8802C127.252 82.4797 127.295 82.217 126.969 81.5191C126.809 81.1747 126.722 81.0828 126.709 81.078C126.721 81.1052 126.69 81.0865 126.655 81.081C125.884 80.8005 125.243 80.349 124.656 79.0892C121.524 72.3735 118.865 67.5228 117.16 65.4272C115.802 64.1956 105.715 66.7475 95.5582 70.899C85.8491 76.0113 77.4107 82.0977 77.4857 83.9385C77.9996 86.5787 80.0062 91.7336 83.1378 98.4494C83.7295 99.7182 83.6592 100.49 83.3786 101.261C83.369 101.288 83.3502 101.318 83.3448 101.354C83.3448 101.354 83.3858 101.489 83.5211 101.779C83.8465 102.477 84.0845 102.609 84.4324 102.811C84.8377 103.041 85.4411 103.389 85.8299 104.223L91.941 117.328L91.9639 117.306Z" fill="black"/>
<path d="M83.6298 101.729C83.6298 101.729 93.7584 95.8362 102.414 91.8002C111.069 87.7642 126.906 81.5488 126.906 81.5488C126.906 81.5488 119.517 64.3062 116.804 64.2142C114.086 64.1131 99.2836 67.5069 94.9515 69.527C90.6193 71.5471 76.0333 84.2076 76.0333 84.2076L83.6249 101.742L83.6298 101.729Z" fill="#F3F1DD"/>
<path d="M82.9273 103.865L74.229 83.7684L75.0629 83.0485C75.6678 82.5237 89.8635 70.2328 94.3316 68.1493C98.7997 66.0658 113.873 62.5899 116.872 62.7031C119.299 62.7963 123.144 68.9365 128.296 80.9552L128.906 82.3811L127.468 82.9413C127.309 83.0041 111.576 89.1821 103.066 93.1505C94.5556 97.1188 84.5001 102.955 84.3998 103.024L82.9406 103.87L82.9273 103.865ZM101.785 90.4267C108.854 87.1303 120.791 82.3473 124.916 80.7108C121.886 73.8591 118.054 66.6097 116.602 65.6977C113.818 65.738 99.7413 68.9369 95.5904 70.8725C92.4092 72.3558 82.3971 80.6988 77.8523 84.6056L84.3416 99.5867C87.4818 97.8024 95.1052 93.5414 101.785 90.4267Z" fill="black"/>
<path d="M86.574 106.788L129.85 86.6083L132.208 92.6811L109.454 103.137L89.2619 112.552L86.5698 106.779L86.574 106.788Z" fill="#F3F1DD"/>
<path d="M134.128 93.4631L110.097 104.515L88.5449 114.564L84.585 106.072L130.671 84.5821L134.128 93.4631ZM89.996 110.578L108.829 101.796L130.309 91.9227L129.038 88.6534L88.5717 107.523L89.996 110.578Z" fill="black"/>
<path d="M88.1365 75.143L117.404 142.759C117.404 142.759 123.113 142.436 126.956 140.644C130.798 138.852 137.597 133.343 137.597 133.343L105.114 66.9948L94.9521 69.5043L88.1323 75.1339L88.1365 75.143Z" fill="#3C87C9"/>
<path d="M127.594 142.013C123.534 143.906 117.735 144.249 117.489 144.264L116.445 144.321L86.3099 74.7037L94.2602 68.1386L105.926 65.2586L139.469 133.761L138.54 134.514C138.261 134.743 131.554 140.166 127.585 142.017L127.594 142.013ZM118.356 141.179C120.105 141.003 123.725 140.507 126.326 139.294C129.145 137.979 133.759 134.459 135.725 132.925L104.301 68.7529L95.6435 70.892L89.9543 75.5861L118.347 141.183L118.356 141.179Z" fill="black"/>
<path d="M145.939 160.911C146.075 159.215 147.457 157.897 149.155 157.823C154.458 157.601 165.758 157.793 174.065 162.592C181.587 166.941 188.833 174.055 192.775 178.274C194.34 179.95 193.814 182.656 191.739 183.623L184.071 187.199C182.331 188.01 180.241 187.242 179.506 185.477C178.465 182.983 176.296 179.349 171.824 175.344C165.802 169.954 161.054 169.829 156.828 168.291C153.984 167.256 151.048 166.826 148.873 166.66C147.007 166.515 145.629 164.884 145.778 163.027L145.952 160.916L145.939 160.911Z" fill="#F3F1DD"/>
<path d="M170.921 155.661C170.505 154.84 171.087 153.863 172.004 153.843C174.731 153.774 179.618 153.868 182.346 155.222C186.588 157.315 190.798 160.571 192.964 162.352C193.678 162.935 193.53 164.063 192.697 164.452L187.603 166.827C187.114 167.055 186.535 166.95 186.161 166.551C184.483 164.751 179.732 159.861 177.099 159.136C175.176 158.609 173.873 158.489 173.144 158.487C172.669 158.487 172.238 158.225 172.021 157.807L170.93 155.679L170.921 155.661Z" fill="#F3F1DD"/>
<path d="M154.397 199.635C154.397 199.635 140.199 220.18 137.653 225.935C135.107 231.691 128.601 246.63 128.601 246.63L114.017 256.763L159.533 354.372C159.533 354.372 194.243 348.547 220.109 336.651C245.979 324.764 272.403 303.605 272.403 303.605L225.705 202.585L204.14 209.673C204.445 209.95 193.715 206.082 183.43 203.64C173.78 201.354 154.406 199.631 154.406 199.631L154.397 199.635Z" fill="#F3F1DD"/>
<path d="M221.477 337.667C221.232 337.781 220.988 337.895 220.734 338.013C194.986 349.854 160.129 355.791 159.779 355.845L158.655 356.038L112.125 256.253L127.402 245.643C128.442 243.26 133.988 230.544 136.282 225.337C138.853 219.515 152.576 199.633 153.163 198.785L153.657 198.07L154.522 198.151C155.317 198.222 174.119 199.904 183.76 202.194C190.943 203.898 198.464 206.327 202.078 207.499C202.859 207.753 203.622 207.993 204.048 208.126L226.493 200.749L274.243 304.047L273.328 304.783C273.062 304.995 246.967 325.792 221.463 337.684L221.477 337.667ZM160.411 352.681C166.557 351.569 196.686 345.762 219.48 335.277C219.725 335.163 219.969 335.048 220.205 334.939C242.691 324.453 265.704 306.914 270.536 303.149L224.894 204.418L205.049 210.936C204.522 211.413 203.732 211.164 201.16 210.333C197.311 209.082 190.14 206.766 183.072 205.096C174.787 203.134 158.997 201.571 155.128 201.201C152.598 204.886 141.222 221.566 139.028 226.539C136.486 232.304 129.98 247.221 129.98 247.221L129.809 247.61L115.904 257.26L160.398 352.676L160.411 352.681Z" fill="black"/>
<path d="M232.706 237.948L177.043 243.536C176.02 243.638 175.064 244.072 174.311 244.777L134.026 282.562C132.543 283.949 132.125 286.13 132.992 287.965L145.141 313.735C145.978 315.53 147.877 316.597 149.847 316.396L201.597 311.077C202.566 310.978 203.481 310.573 204.219 309.931L247.542 271.679C249.064 270.329 249.548 268.15 248.722 266.284L237.441 240.694C236.623 238.847 234.708 237.721 232.698 237.93L232.706 237.948ZM244.545 266.08C245.253 267.692 244.761 269.621 243.314 270.847L202.451 305.548C201.764 306.133 200.912 306.508 200.015 306.618L152.223 312.595C150.401 312.827 148.694 311.935 147.958 310.381L137.419 288.041C136.675 286.446 137.104 284.525 138.503 283.266L176.557 249.048C177.263 248.409 178.155 248.004 179.103 247.883L230.509 241.565C232.368 241.339 234.105 242.272 234.808 243.875L244.554 266.076L244.545 266.08Z" fill="#3C87C9"/>
<path d="M201.257 305.025C200.677 305.295 200.064 305.471 199.417 305.552L152.923 311.068C150.822 311.319 148.821 310.2 147.93 308.288L138.755 288.612C138.091 287.189 138.423 285.511 139.58 284.442L176.784 250.058C177.394 249.497 178.156 249.142 178.977 249.035L228.56 242.851C230.835 242.573 233.017 243.774 233.989 245.858L242.809 264.773C243.633 266.54 243.186 268.68 241.71 269.964L202.678 304.097C202.248 304.475 201.765 304.788 201.257 305.025ZM178.02 249.868C177.702 250.016 177.406 250.209 177.145 250.452L139.941 284.837C138.963 285.745 138.678 287.169 139.24 288.375L148.415 308.05C149.205 309.745 150.994 310.743 152.853 310.516L199.348 305C200.456 304.869 201.48 304.414 202.318 303.68L241.35 269.547C242.633 268.419 243.033 266.555 242.306 264.996L233.486 246.082C232.616 244.215 230.659 243.141 228.621 243.385L179.039 249.569C178.684 249.613 178.333 249.711 178.015 249.859L178.02 249.868Z" fill="#3C87C9"/>
<path d="M167.28 284.522C167.449 284.366 167.716 284.44 167.777 284.666C167.916 285.13 168.071 285.864 167.969 286.474C167.832 287.244 167.074 287.961 166.753 288.243C166.666 288.317 166.544 288.341 166.447 288.298L163.888 287.306C163.818 287.273 163.761 287.222 163.718 287.154L161.101 281.732C161.051 281.623 161.068 281.494 161.137 281.406L163.753 278.167C163.846 278.058 164.004 278.017 164.136 278.088L166.614 279.426C166.865 279.563 167.154 279.307 167.04 279.04L165.484 275.396C165.442 275.305 165.368 275.241 165.279 275.216C165.141 275.181 164.918 275.175 164.645 275.346C164.558 275.397 164.46 275.399 164.367 275.365C163.801 275.122 161.845 274.335 161.118 275.048C160.259 275.902 160.49 276.776 161.247 277.052C161.646 277.197 162.167 277.131 162.567 277.043C162.846 276.979 163.052 277.302 162.872 277.53C162.668 277.779 162.357 278.035 161.869 278.196C160.953 278.48 159.396 277.981 158.754 277.74C158.595 277.682 158.51 277.5 158.568 277.341C158.938 276.407 160.164 273.474 161.236 273.195C162.223 272.945 163.474 272.67 163.987 272.563C164.127 272.531 164.233 272.404 164.232 272.261C164.217 271.661 164.151 270.147 163.734 269.702C163.473 269.427 163.27 269.179 163.136 269.01C163.023 268.864 163.056 268.65 163.22 268.552C163.883 268.176 165.439 267.395 165.845 268.266C166.25 269.136 165.897 271.099 165.73 271.828C165.694 271.988 165.792 272.152 165.952 272.187L167.254 272.518C167.343 272.543 167.417 272.608 167.455 272.689L172.208 283.261C172.238 283.325 172.245 283.41 172.22 283.476L171.627 285.375C171.573 285.543 171.401 285.624 171.237 285.579L169.349 284.937C169.202 284.883 169.112 284.738 169.148 284.578L169.377 283.555C169.393 283.47 169.382 283.376 169.326 283.303L168.23 281.828C168.23 281.828 168.165 281.759 168.121 281.736C167.843 281.589 166.713 281.013 165.984 280.536C165.5 280.232 164.57 280.225 164.014 280.263C163.799 280.275 163.663 280.504 163.756 280.704L165.494 284.362L165.883 285.195C165.968 285.377 166.19 285.428 166.354 285.307L166.597 285.117C166.597 285.117 166.606 285.112 166.615 285.108L167.266 284.517L167.28 284.522Z" fill="#3C87C9"/>
<path d="M171.994 265.079C172.248 265.269 172.595 264.997 172.451 264.711C172.079 263.936 171.494 263.061 170.761 263.028C169.43 262.964 166.456 265.223 165.622 266.108C164.788 266.994 162.343 269.182 161.868 268.422C161.49 267.825 162.179 267.338 162.752 267.171C162.968 267.114 163.038 266.839 162.895 266.674C162.635 266.376 162.191 266.086 161.568 266.454C160.491 267.078 159.465 268.736 160.173 269.708C160.871 270.685 161.394 271.003 162.765 270.607C164.127 270.215 167.035 267.932 168.119 266.731C169.18 265.552 170.34 264.206 171.21 264.606C171.48 264.734 171.748 264.907 171.998 265.088L171.994 265.079Z" fill="#3C87C9"/>
<path d="M171.301 277.341C171.16 277.583 171.385 277.876 171.656 277.794C172.518 277.513 173.923 277.167 174.908 277.48C176.416 277.946 177.427 277.938 178.129 278.78C178.554 279.288 178.828 279.734 178.986 280.003C179.067 280.152 179.021 280.339 178.872 280.42L178.626 280.556C178.495 280.629 178.437 280.788 178.491 280.929L178.583 281.173C178.625 281.263 178.69 281.332 178.779 281.357L180.829 281.968C180.993 282.013 181.17 281.919 181.215 281.755L181.73 279.782C181.745 279.72 181.743 279.644 181.713 279.581C181.242 278.498 176.852 268.541 176.224 267.951C175.561 267.333 174.1 267.087 173.565 267.525C173.029 267.962 172.32 270.014 172.277 270.585C172.263 270.791 172.367 271.062 172.499 271.321C172.631 271.579 173.031 271.514 173.07 271.22C173.109 270.926 173.221 270.62 173.448 270.47C173.963 270.13 174.529 270.54 174.695 270.683C174.73 270.711 174.756 270.743 174.773 270.779L176.8 275.008C176.927 275.28 176.643 275.545 176.382 275.413C175.567 274.966 174.336 274.48 173.46 274.966C172.583 275.452 171.76 276.597 171.305 277.35L171.301 277.341Z" fill="#3C87C9"/>
<path d="M181.178 266.059L180.794 267.199C180.774 267.274 180.776 267.35 180.81 267.423L185.201 276.839C185.243 276.93 185.327 276.99 185.411 277.006L185.989 277.134C186.074 277.149 186.155 277.134 186.232 277.087C186.277 277.065 186.323 277.022 186.387 276.97C186.612 276.788 186.941 276.999 186.876 277.283C186.775 277.683 186.611 278.135 186.318 278.547L185.717 279.412C185.638 279.526 185.502 279.567 185.374 279.528L183.21 278.816C183.13 278.787 183.06 278.731 183.026 278.659L177.981 267.981C177.947 267.908 177.945 267.832 177.964 267.756L178.651 265.561C178.695 265.419 178.841 265.329 178.992 265.346L180.948 265.659C181.139 265.691 181.25 265.882 181.187 266.055L181.178 266.059Z" fill="#3C87C9"/>
<path d="M190.157 273.6C190.229 273.28 190.684 273.31 190.756 273.63C190.776 273.72 190.822 273.82 190.905 273.903C191.257 274.279 192.006 274.062 192.413 273.895C192.571 273.832 192.648 273.642 192.576 273.487L188.691 265.038C188.624 264.893 188.447 264.821 188.302 264.888C187.799 265.089 186.738 265.463 186.157 265.259C185.387 264.979 184.367 265.134 184.421 265.937C184.475 266.739 184.684 267.612 185.412 267.659C185.809 267.683 186.258 267.651 186.581 267.611C186.832 267.582 187.017 267.86 186.872 268.07C186.756 268.246 186.558 268.438 186.219 268.563C185.351 268.901 183.376 268.664 183.191 267.724C183.006 266.784 184.884 262.245 185.468 261.84C186.052 261.436 189.288 262.177 189.894 261.961C190.499 261.745 190.758 262.584 190.758 262.584L195.558 272.594C195.596 272.675 195.598 272.774 195.56 272.858L194.208 275.805C194.152 275.919 194.033 275.997 193.904 275.98C193.212 275.916 191.091 275.626 190.481 274.674C190.185 274.205 190.087 273.876 190.148 273.605L190.157 273.6Z" fill="#3C87C9"/>
<path d="M186.628 255.22L186.59 255.304C186.561 255.383 186.559 255.473 186.593 255.545L187.566 257.751C187.638 257.905 187.815 257.977 187.978 257.901L188.386 257.71C188.386 257.71 187.866 259.365 186.581 259.898C185.287 260.435 182.638 260.126 181.546 260.127C180.455 260.129 179.752 260.964 180.47 261.534C180.781 261.775 181.234 261.895 181.649 261.955C181.943 261.995 182.008 262.395 181.74 262.531C181.259 262.777 180.671 263.007 180.192 263.021C179.176 263.042 178.228 262.524 178.536 261.41C178.844 260.295 179.977 258.299 181.603 258.049C182.686 257.886 183.876 258.048 184.534 258.182C184.766 258.229 184.96 258.006 184.876 257.78L184.275 256.064C184.275 256.064 184.253 256.018 184.254 255.996C184.244 255.857 184.243 255.405 184.914 255.092C185.376 254.877 185.951 254.807 186.349 254.787C186.574 254.771 186.737 255.003 186.647 255.211L186.628 255.22Z" fill="#3C87C9"/>
<path d="M197.363 261.701C197.363 261.701 197.392 259.823 196.591 259.358C195.943 258.987 194.486 258.773 193.96 258.709C193.844 258.697 193.726 258.752 193.661 258.849L192.35 260.983C192.303 261.071 192.286 261.178 192.329 261.268L194.316 265.649C194.371 265.767 194.494 265.842 194.62 265.827L195.382 265.759C195.584 265.742 195.741 265.912 195.708 266.103C195.653 266.504 195.529 267.114 195.304 267.461C195.244 267.544 195.241 267.656 195.283 267.747L197.055 271.665C197.102 271.765 197.203 271.839 197.314 271.842L202.49 272.176C202.615 272.184 202.729 272.12 202.786 272.005L205.206 266.949C205.244 266.865 205.242 266.766 205.204 266.685L201.113 258.055C201.088 258 201.081 257.937 201.087 257.88L201.198 257.077C201.225 256.921 201.122 256.771 200.966 256.744L199.361 256.356C199.197 256.311 199.029 256.423 198.988 256.596L198.499 258.954C198.499 258.954 198.491 259.079 198.516 259.133L202.489 268.789C202.573 268.993 202.414 269.221 202.187 269.206L198.863 269.012C198.752 269.009 198.651 268.935 198.6 268.826L197.796 266.983C197.75 266.884 197.762 266.768 197.831 266.68C197.989 266.474 198.292 266.035 198.621 265.297C198.773 264.961 198.848 264.672 198.885 264.445C198.928 264.182 198.629 263.991 198.415 264.146C198.264 264.249 198.055 264.369 197.784 264.473C197.282 264.674 196.982 264.693 196.808 264.675C196.705 264.667 196.617 264.598 196.571 264.498L195.143 261.435C195.058 261.254 195.167 261.037 195.36 261.002C195.607 260.964 195.94 260.92 196.257 260.937C197.119 260.988 197.535 261.312 197.331 261.727L197.363 261.701Z" fill="#3C87C9"/>
<path d="M204.398 256.887C204.326 256.733 204.149 256.661 203.995 256.733C203.442 256.991 202.238 257.508 202.31 257.309C202.388 257.096 203.062 255.016 203.262 254.404C203.301 254.298 203.388 254.224 203.496 254.196L205.763 253.757C205.902 253.725 206.039 253.805 206.098 253.932L209.441 261.1C209.551 261.336 209.882 261.336 209.991 261.098C210.267 260.506 210.698 259.632 211.054 259.212C211.452 258.74 211.893 258.291 212.119 258.064C212.211 257.977 212.232 257.835 212.177 257.717L209.956 253.048C209.922 252.976 209.916 252.891 209.945 252.811L210.724 250.671C210.777 250.525 210.918 250.448 211.064 250.479L212.747 250.798C212.903 250.825 213.019 250.98 212.993 251.136L212.804 252.482C212.804 252.482 212.801 252.594 212.826 252.648L214.615 256.58C214.675 256.707 214.82 256.783 214.96 256.751C215.351 256.667 216.141 256.564 216.73 256.973C217.151 257.262 217.444 257.534 217.631 257.723C217.775 257.865 217.736 258.115 217.559 258.209C217.01 258.498 216.028 259.088 216.197 259.616C216.383 260.181 217.001 261.625 217.271 262.227C217.338 262.372 217.506 262.448 217.665 262.385C217.868 262.302 218.087 262.464 218.081 262.688C218.058 263.206 217.995 264.041 217.825 264.528C217.767 264.688 217.599 264.777 217.426 264.714L215.251 263.952C215.171 263.923 215.114 263.873 215.076 263.791L213.1 259.648C213.007 259.449 212.735 259.41 212.596 259.585C212.004 260.303 210.743 261.928 210.59 263.091C210.584 263.149 210.596 263.199 210.612 263.258L211.426 265.096C211.497 265.25 211.674 265.322 211.838 265.246L211.955 265.191C212.191 265.081 212.445 265.294 212.384 265.543L211.934 267.275C211.889 267.44 211.726 267.538 211.561 267.493L209.062 266.794C208.973 266.769 208.903 266.714 208.865 266.632L204.412 256.87L204.398 256.887Z" fill="#3C87C9"/>
<path d="M160.811 293.984L224.668 264.107C224.668 264.107 223.949 265.381 217.352 268.744C210.755 272.107 195.917 278.927 189.022 282.241C182.127 285.556 168.819 291.849 164.868 293.218C160.916 294.586 160.811 293.984 160.811 293.984Z" fill="#3C87C9"/>
<path d="M169.144 301.937L168.153 303.315L169.188 305.536L171.835 306.431L173.629 305.451L174.711 302.685L173.235 299.566L167.519 298.359L166.469 296.013L167.216 294.373L169.52 294.888L170.864 297.77L171.698 296.057L170.581 293.875L167.667 293.093L166.323 293.83L165.176 296.505L166.581 299.613L172.052 300.769L173.231 303.154L172.751 304.823L170.754 304.397L169.382 301.573L169.144 301.937Z" fill="#3C87C9"/>
<path d="M175.758 289.738L174.162 291.309L176.916 304.336L178.176 302.921L177.684 299.311L180.427 297.976L183.021 301.434L183.644 299.433L175.754 289.729L175.758 289.738ZM177.202 297.615L176.322 292.84L179.249 296.562L177.202 297.615Z" fill="#3C87C9"/>
<path d="M185.018 300.249L179.876 289.009L180.87 287.354L188.539 294.359L184.903 286.775L186.083 285.188L191.285 296.345L190.358 298.024L182.642 290.941L186.031 298.541L185.018 300.249Z" fill="#3C87C9"/>
<path d="M221.615 283.185L216.482 271.94L217.466 270.29L225.144 277.291L221.5 269.711L222.679 268.124L227.882 279.28L226.954 280.959L219.247 273.873L222.637 281.472L221.615 283.185Z" fill="#3C87C9"/>
<path d="M194.147 286.559L192.911 284.31L190.766 283.755L189.812 285.756L193.64 293.846L195.694 294.632L196.585 294.128L197.085 292.67L195.283 288.71L192.546 289.987L193.546 288.108L196.073 286.974L198.31 292.055L197.09 294.786L195.538 295.598L192.842 294.88L188.693 286.079L190.05 283.427L191.711 282.564L194.289 283.337L195.137 285.06L194.147 286.559Z" fill="#3C87C9"/>
<path d="M195.796 280.913L202.241 289.317L199.945 278.857L201.195 278.153L204.016 290.828L202.656 292.786L195.098 282.375L195.796 280.913Z" fill="#3C87C9"/>
<path d="M208.312 276.401L204.661 278.203L206.288 282.001L210.079 280.145L210.009 281.888L206.896 283.494L208.971 287.944L213.609 285.726L213.326 287.557L207.943 290.068L202.79 278.734L203.636 276.761L208.6 274.7L208.312 276.401Z" fill="#3C87C9"/>
<path d="M210.502 275.468L210.613 273.695L214.877 271.552L214.549 273.404L213.553 273.99L217.727 283.673L219.431 282.879L219.322 284.562L215.371 286.548L215.604 284.917L216.653 284.328L212.206 274.673L210.502 275.468Z" fill="#3C87C9"/>
<path d="M180.484 328.955C180.484 328.955 181.331 324.831 185.019 322.471C188.707 320.111 194.141 315.768 203.799 311.374C213.466 306.977 219.713 304.164 222.539 303.386C225.37 302.596 230.985 300.937 233.407 300.878C235.829 300.819 238.047 301.694 238.047 301.694C238.047 301.694 238.188 291.94 238.122 290.901C238.057 289.861 236.522 287.918 233.88 287.98C231.248 288.037 222.585 289.098 210.922 293.996C199.263 298.903 192.337 302.552 188.618 304.397C184.899 306.241 174.945 313.431 173.907 315.085C172.868 316.739 171.322 317.99 171.704 319.732C172.086 321.473 174.958 323.753 176.39 325.215C177.822 326.676 180.471 328.95 180.471 328.95L180.484 328.955Z" fill="#3C87C9"/>
<path d="M239.045 292.004L239.08 301.189C239.08 301.189 239.971 301.988 239.879 302.902C239.787 303.817 238.365 305.429 237.518 305.647C237.518 305.647 247.57 307.47 249.245 307.726C250.92 307.982 255.159 307.749 255.159 307.749L260.732 294.216C260.732 294.216 257.35 295.528 254.866 295.219C252.383 294.909 246.517 293.12 244.876 292.584C243.236 292.047 239.054 291.999 239.054 291.999L239.045 292.004Z" fill="#3C87C9"/>
<path d="M251.918 293.583C251.918 293.583 255.649 294.414 256.359 294.281L257.217 291.697C257.217 291.697 253.615 290.739 253.143 289.988L251.927 293.579L251.918 293.583Z" fill="#3C87C9"/>
<path d="M257.725 293.898L258.482 291.095C258.482 291.095 256.267 290.771 255.261 290.412C254.256 290.054 253.286 289.204 253.729 288.357C254.173 287.51 256.526 287.185 258.186 287.692C259.845 288.198 261.11 288.711 261.463 289.893C261.824 291.07 261.716 291.783 260.953 292.514C259.929 293.488 257.73 293.884 257.73 293.884L257.725 293.898Z" fill="#3C87C9"/>
<path d="M172.547 322.77L179.561 328.702C179.561 328.702 179.6 329.897 180.36 330.415C181.12 330.932 183.269 330.879 183.98 330.37C183.98 330.37 178.915 339.242 178.035 340.69C177.154 342.138 174.251 345.235 174.251 345.235L160.302 340.805C160.302 340.805 163.481 339.058 164.84 336.956C166.2 334.855 168.6 329.212 169.243 327.61C169.886 326.008 172.538 322.774 172.538 322.774L172.547 322.77Z" fill="#3C87C9"/>
<path d="M165.472 333.65C165.472 333.65 163.711 337.042 163.152 337.501L160.621 336.497C160.621 336.497 162.203 333.122 161.931 332.278L165.463 333.654L165.472 333.65Z" fill="#3C87C9"/>
<path d="M161.981 338.301L159.347 337.079C159.347 337.079 160.522 335.174 160.894 334.173C161.266 333.172 161.239 331.883 160.305 331.679C159.371 331.474 157.609 333.068 156.931 334.664C156.252 336.261 155.831 337.56 156.51 338.59C157.189 339.619 157.796 339.998 158.846 339.884C160.25 339.726 161.967 338.296 161.967 338.296L161.981 338.301Z" fill="#3C87C9"/>
<path d="M221.225 222.934L220.802 221.719L216.252 221.711L214.909 218.641L218.827 218.668L218.576 217.229L164.888 215.199L166.029 217.811L174.422 218.3L175.994 221.671L167.745 221.137L168.936 224.212L177.16 224.173L178.838 227.771L170.708 227.656L172.424 230.651L179.979 230.218L181.243 232.928L173.4 233.098L174.947 236.25L182.439 235.493L183.871 238.565L176.367 239.295L177.528 242.141L226.661 235.869L226.061 234.582L222.033 234.959L220.69 231.889L224.852 231.493L224.193 230.388L220.134 230.626L218.875 227.737L222.917 227.485L222.431 226.443L218.361 226.565L216.816 223.037L221.203 222.911L221.225 222.934ZM177.029 218.331L213.294 218.633L214.687 221.713L178.517 221.687L177.029 218.331ZM220.758 235.112L185.952 238.389L184.582 235.31L219.37 232.041L220.758 235.112ZM218.775 230.741L183.465 232.819L182.251 230.097L217.467 227.864L218.775 230.741ZM216.914 226.633L181.193 227.71L179.591 224.11L215.311 223.099L216.91 226.623L216.914 226.633Z" fill="#3C87C9"/>
<path d="M227.645 238.666C227.081 238.024 227.04 237.061 226.757 236.288C226.44 235.421 226.029 234.586 225.636 233.743C224.842 232.039 223.957 230.355 223.339 228.58C223.053 227.754 222.803 226.91 222.526 226.08C222.228 225.204 221.775 224.399 221.296 223.608C220.315 222.002 219.538 220.312 218.798 218.583C218.626 218.189 218.462 217.791 218.289 217.397C218.151 217.075 217.989 216.753 218.017 216.387C218.057 215.905 218.425 215.557 218.866 215.439C220.241 215.074 221.069 216.685 221.529 217.695C221.859 218.402 222.107 219.147 222.409 219.867C222.741 220.672 223.131 221.461 223.48 222.258C224.264 224.033 225.071 225.787 225.972 227.507C226.98 229.431 227.938 231.368 228.855 233.335C229.303 234.295 229.729 235.255 230.195 236.208C230.593 237.037 231.161 237.831 231.301 238.77C231.334 239.03 231.743 238.961 231.71 238.701C231.586 237.843 231.115 237.092 230.719 236.338C230.264 235.458 229.873 234.548 229.455 233.651C228.597 231.811 227.725 229.989 226.786 228.187C225.846 226.385 224.909 224.494 224.066 222.592C223.683 221.722 223.268 220.857 222.894 219.983C222.561 219.222 222.296 218.441 221.968 217.689C221.484 216.58 220.724 215.07 219.335 215C218.352 214.951 217.468 215.705 217.614 216.729C217.663 217.071 217.824 217.393 217.959 217.705C218.16 218.185 218.362 218.665 218.569 219.131C218.943 220.005 219.34 220.879 219.754 221.745C220.199 222.652 220.749 223.499 221.253 224.367C221.757 225.235 222.117 226.149 222.422 227.11C222.727 228.072 223.047 229.114 223.473 230.074C223.931 231.129 224.445 232.158 224.935 233.21C225.425 234.261 225.896 235.2 226.302 236.235C226.64 237.126 226.686 238.219 227.337 238.953C227.515 239.145 227.826 238.89 227.653 238.684L227.645 238.666Z" fill="#3C87C9"/>
<path d="M227.549 239.075C227.961 239.037 228.35 238.877 228.632 238.558C228.882 238.265 228.999 237.879 229.055 237.501C229.165 236.721 229.008 235.934 229.087 235.157L228.863 235.339C229.43 235.395 229.837 236.032 230.098 236.473C230.415 237.01 230.668 237.576 230.902 238.151L231.156 237.867C230.593 237.699 230.189 237.093 229.893 236.624C229.571 236.101 229.274 235.511 229.175 234.896L228.791 235.019C229.239 235.98 229.728 236.933 230.426 237.744C230.573 237.918 230.883 237.73 230.767 237.53C230.447 236.984 230.136 236.412 229.724 235.931C229.598 235.78 229.331 235.893 229.361 236.1C229.466 236.702 229.674 237.267 229.882 237.832L230.224 237.618C229.655 236.967 229.288 236.178 228.783 235.476C228.646 235.275 228.362 235.495 228.442 235.69C228.797 236.617 229.261 237.493 229.679 238.39C229.789 238.626 230.16 238.452 230.051 238.217C229.877 237.845 229.708 237.483 229.535 237.111L229.163 237.284C229.32 237.62 229.445 237.959 229.488 238.336L229.872 238.212C229.728 237.904 229.584 237.596 229.372 237.33C229.238 237.161 228.997 237.307 229.01 237.499C229.033 237.786 229.066 238.069 229.098 238.352L229.461 238.183C229.239 237.944 229.113 237.65 228.996 237.351C228.899 237.121 228.6 237.26 228.612 237.475C228.632 237.753 228.576 238.154 228.753 238.392C228.93 238.629 229.267 238.571 229.519 238.52C229.843 238.457 230.234 238.396 230.495 238.175C230.811 237.907 230.646 237.531 230.421 237.261C230.3 237.119 230.087 237.207 230.056 237.376C229.984 237.884 230.023 238.395 230.094 238.903L230.365 238.677C230.241 238.625 230.203 238.521 230.139 238.407C230.011 238.18 229.64 238.353 229.768 238.58C229.887 238.79 229.99 238.962 230.224 239.063C230.375 239.125 230.517 238.981 230.494 238.837C230.427 238.361 230.395 237.891 230.457 237.409L230.092 237.525C230.239 237.699 230.321 237.826 230.094 237.932C229.868 238.037 229.593 238.088 229.346 238.126C229.252 238.137 229.167 238.143 229.077 238.141C229.069 238.123 229.069 238.123 229.056 238.096C228.999 237.879 229.02 237.616 229.013 237.388L228.629 237.511C228.763 237.846 228.911 238.163 229.159 238.434C229.298 238.59 229.538 238.467 229.521 238.265C229.489 237.982 229.465 237.695 229.433 237.413L229.07 237.582C229.26 237.824 229.378 238.1 229.514 238.368C229.611 238.576 229.931 238.482 229.898 238.244C229.842 237.84 229.718 237.456 229.536 237.089C229.426 236.853 229.054 237.026 229.164 237.262C229.337 237.634 229.506 237.996 229.68 238.368L230.051 238.194C229.633 237.297 229.169 236.421 228.814 235.494L228.473 235.709C228.968 236.416 229.336 237.204 229.913 237.851C230.074 238.03 230.338 237.84 230.254 237.636C230.05 237.103 229.858 236.574 229.762 236.012L229.399 236.181C229.789 236.639 230.079 237.166 230.387 237.685L230.729 237.47C230.052 236.682 229.585 235.775 229.15 234.841C229.052 234.633 228.723 234.731 228.766 234.965C228.877 235.653 229.208 236.315 229.577 236.893C229.915 237.43 230.368 238.069 231.011 238.265C231.18 238.319 231.336 238.158 231.265 237.982C230.991 237.348 230.718 236.714 230.349 236.136C230.019 235.617 229.552 234.996 228.883 234.932C228.767 234.92 228.675 235.007 228.659 235.114C228.538 236.252 229.17 238.506 227.47 238.67C227.206 238.694 227.275 239.103 227.54 239.079L227.549 239.075Z" fill="#3C87C9"/>
<path d="M225.205 232.155C225.875 231.534 226.703 231.06 227.594 230.842C227.675 230.827 227.767 230.762 227.765 230.664C227.763 230.257 227.654 229.811 227.224 229.647C226.875 229.512 226.469 229.635 226.147 229.774C225.826 229.913 225.494 230.101 225.211 230.321C225.014 230.468 224.788 230.573 224.604 230.747C224.388 230.947 224.278 231.208 224.293 231.499C224.308 231.768 224.424 232.089 224.689 232.208C224.999 232.351 225.229 232.111 225.361 231.851C225.484 231.617 225.099 231.477 224.976 231.71C224.905 231.843 224.868 231.882 224.791 231.764C224.697 231.609 224.676 231.398 224.752 231.23C224.828 231.062 225.001 230.96 225.147 230.87C225.292 230.78 225.429 230.671 225.571 230.572C225.785 230.417 226.021 230.285 226.275 230.167C226.502 230.061 226.782 229.975 227.018 230.008C227.116 230.029 227.2 230.067 227.255 230.162C227.328 230.272 227.354 230.469 227.359 230.621L227.529 230.443C226.566 230.671 225.671 231.166 224.941 231.848C224.748 232.026 225.017 232.342 225.21 232.164L225.205 232.155Z" fill="#3C87C9"/>
<path d="M221.824 225.093C222.029 224.634 222.274 224.166 222.677 223.846C223.079 223.526 223.601 223.415 224.091 223.33C224.181 223.31 224.246 223.236 224.262 223.151C224.331 222.755 224.294 222.275 223.93 222.037C223.626 221.837 223.233 221.844 222.886 221.906C222.163 222.034 221.169 222.387 221.118 223.249C221.087 223.727 221.298 224.202 221.502 224.615C221.611 224.85 221.983 224.677 221.873 224.442C221.624 223.907 221.264 223.159 221.853 222.719C222.109 222.533 222.443 222.422 222.74 222.349C222.997 222.285 223.312 222.226 223.573 222.314C223.693 222.357 223.776 222.418 223.827 222.526C223.911 222.708 223.888 222.917 223.856 223.109L224.026 222.93C223.459 223.04 222.883 223.176 222.412 223.539C221.942 223.902 221.668 224.427 221.439 224.953C221.329 225.192 221.715 225.332 221.824 225.093Z" fill="#3C87C9"/>
<path d="M218.67 218.874C218.714 218.566 218.811 218.278 219.054 218.065C219.251 217.896 219.504 217.8 219.739 217.713C220.25 217.53 220.76 217.347 220.968 216.798C221.064 216.554 220.678 216.414 220.582 216.658C220.394 217.153 219.783 217.24 219.349 217.42C219.1 217.525 218.85 217.653 218.661 217.862C218.412 218.133 218.305 218.47 218.25 218.826C218.216 219.085 218.622 219.127 218.656 218.869L218.67 218.874Z" fill="#3C87C9"/>
<path d="M221.546 222.486C221.732 221.892 221.625 221.214 221.49 220.615C221.354 220.016 221.143 219.375 220.864 218.799L220.522 219.014C220.921 219.49 221.086 220.174 221.307 220.744C221.529 221.314 221.784 221.956 222.326 222.266C222.551 222.393 222.788 222.051 222.554 221.928C222.034 221.641 221.825 220.955 221.624 220.431C221.412 219.857 221.237 219.221 220.838 218.745C220.691 218.571 220.391 218.755 220.497 218.959C220.755 219.49 220.95 220.05 221.083 220.617C221.211 221.153 221.341 221.787 221.174 222.329C221.092 222.577 221.481 222.726 221.56 222.469L221.546 222.486Z" fill="#3C87C9"/>
<path d="M222.614 223.998C222.727 224.309 222.898 224.582 223.161 224.791C223.371 224.958 223.61 225.067 223.811 225.238C224.069 225.46 224.203 225.772 224.325 226.08C224.463 226.424 224.574 226.78 224.721 227.12C224.835 227.364 225.194 227.186 225.093 226.946C224.611 225.748 224.016 224.591 223.363 223.472C223.235 223.245 222.908 223.397 222.991 223.645C223.086 223.921 223.182 224.196 223.228 224.484C223.261 224.744 223.67 224.675 223.637 224.415C223.592 224.082 223.471 223.775 223.372 223.468L223 223.641C223.654 224.76 224.254 225.903 224.73 227.115L225.102 226.942C224.819 226.313 224.689 225.535 224.188 225.029C223.996 224.832 223.763 224.709 223.539 224.56C223.262 224.369 223.098 224.136 222.982 223.815C222.89 223.571 222.519 223.744 222.61 223.988L222.614 223.998Z" fill="#3C87C9"/>
<path d="M225.342 230.273C224.86 229.239 224.092 228.373 223.601 227.344C223.508 227.145 223.143 227.238 223.217 227.468C223.348 227.914 223.673 228.303 223.973 228.638C224.255 228.959 224.589 229.344 224.987 229.511C225.137 229.574 225.28 229.43 225.257 229.286C225.212 228.976 225.121 228.687 224.945 228.428C224.799 228.209 224.483 228.478 224.629 228.696C224.762 228.888 224.818 229.126 224.848 229.355L225.118 229.13C224.804 229.001 224.505 228.644 224.271 228.378C224.032 228.103 223.707 227.736 223.608 227.407L223.225 227.531C223.716 228.559 224.493 229.422 224.965 230.459C225.075 230.695 225.447 230.522 225.337 230.286L225.342 230.273Z" fill="#3C87C9"/>
<path d="M225.581 231.826C226.132 231.989 226.494 232.338 226.753 232.847C227.012 233.355 227.159 233.86 227.423 234.332C227.556 234.569 227.878 234.407 227.795 234.159C227.77 234.105 227.808 234.186 227.791 234.15C227.774 234.114 227.766 234.073 227.762 234.042C227.738 233.943 227.705 233.848 227.681 233.749C227.608 233.474 227.54 233.186 227.476 232.907C227.412 232.605 227.349 232.304 227.317 231.999C227.303 231.873 227.292 231.756 227.291 231.658C227.292 231.613 227.289 231.559 227.299 231.51C227.3 231.488 227.3 231.466 227.31 231.439C227.314 231.448 227.314 231.448 227.32 231.413C227.33 231.364 227.324 231.399 227.324 231.399C227.352 231.387 227.306 231.408 227.306 231.408L227.279 231.42C227.167 231.44 227.261 231.429 227.261 231.429C227.252 231.433 227.27 231.425 227.261 231.429L227.288 231.439C227.257 231.42 227.279 231.42 227.288 231.439C227.305 231.452 227.332 231.462 227.353 231.485C227.388 231.513 227.449 231.573 227.497 231.628C227.632 231.775 227.89 231.665 227.86 231.459C227.83 231.252 227.764 231.018 227.557 230.927C227.393 230.86 227.23 230.936 227.088 231.035C226.965 231.125 226.823 231.247 226.723 231.316C226.641 231.354 226.596 231.375 226.537 231.391C226.537 231.391 226.502 231.386 226.493 231.39C226.453 231.375 226.439 231.371 226.404 231.343C226.326 231.269 226.206 231.248 226.119 231.322C226.041 231.391 226.019 231.534 226.097 231.607C226.429 231.916 226.785 231.805 227.11 231.554C227.174 231.503 227.229 231.455 227.297 231.412C227.37 231.356 227.366 231.369 227.434 231.326C227.456 231.327 227.403 231.307 227.394 231.312C227.398 231.321 227.386 231.294 227.398 231.321C227.407 231.339 227.415 231.357 227.424 231.375C227.445 231.42 227.452 231.483 227.464 231.533L227.827 231.364C227.67 231.194 227.413 230.927 227.155 231.059C226.928 231.165 226.925 231.464 226.927 231.684C226.941 232.351 227.106 233.013 227.272 233.653C227.333 233.878 227.389 234.117 227.463 234.347L227.835 234.174C227.54 233.66 227.381 233.083 227.087 232.569C226.788 232.024 226.343 231.636 225.739 231.454C225.486 231.385 225.346 231.77 225.599 231.84L225.581 231.826Z" fill="#3C87C9"/>
<path d="M173.625 243.993C172.863 243.091 172.769 241.777 172.369 240.706C171.918 239.504 171.355 238.343 170.814 237.183C169.715 234.827 168.504 232.49 167.614 230.036C167.202 228.893 166.849 227.733 166.446 226.586C166.023 225.371 165.405 224.258 164.746 223.153C163.416 220.915 162.335 218.573 161.299 216.187C161.064 215.635 160.833 215.092 160.588 214.544C160.399 214.091 160.17 213.646 160.192 213.15C160.219 212.498 160.666 212.036 161.238 211.89C162.981 211.464 164.119 213.692 164.761 215.092C165.208 216.075 165.574 217.096 165.994 218.091C166.46 219.209 166.99 220.297 167.483 221.402C168.574 223.861 169.694 226.286 170.926 228.668C172.312 231.332 173.634 234.026 174.906 236.753C175.523 238.077 176.126 239.417 176.761 240.732C177.32 241.884 178.082 242.996 178.302 244.273C178.359 244.632 178.876 244.557 178.818 244.197C178.622 243.02 177.98 241.973 177.436 240.925C176.803 239.709 176.265 238.437 175.686 237.195C174.498 234.649 173.283 232.115 171.996 229.614C170.709 227.114 169.42 224.493 168.249 221.862C167.709 220.657 167.151 219.461 166.62 218.252C166.166 217.206 165.784 216.126 165.316 215.075C164.642 213.536 163.599 211.44 161.814 211.28C160.546 211.165 159.463 212.155 159.698 213.557C159.775 214.029 160 214.465 160.194 214.904C160.48 215.565 160.766 216.226 161.048 216.878C161.578 218.087 162.122 219.301 162.698 220.489C163.308 221.749 164.055 222.924 164.742 224.137C165.442 225.355 165.927 226.608 166.369 227.935C166.824 229.312 167.269 230.693 167.855 232.02C168.491 233.478 169.203 234.911 169.879 236.361C170.555 237.811 171.213 239.127 171.774 240.542C172.255 241.763 172.37 243.265 173.237 244.295C173.466 244.575 173.856 244.227 173.627 243.948L173.625 243.993Z" fill="#3C87C9"/>
<path d="M173.534 244.555C174.068 244.516 174.565 244.328 174.894 243.898C175.2 243.513 175.331 242.989 175.376 242.471C175.481 241.418 175.242 240.338 175.302 239.284L175.027 239.522C175.758 239.623 176.311 240.524 176.661 241.133C177.097 241.878 177.442 242.666 177.779 243.458L178.093 243.091C177.366 242.834 176.808 241.991 176.414 241.336C175.973 240.604 175.566 239.779 175.41 238.947L174.914 239.09C175.535 240.422 176.215 241.738 177.141 242.873C177.341 243.111 177.727 242.875 177.57 242.585C177.134 241.817 176.704 241.035 176.154 240.354C175.977 240.139 175.651 240.291 175.701 240.565C175.862 241.384 176.154 242.175 176.459 242.948L176.888 242.66C176.121 241.749 175.609 240.652 174.938 239.663C174.754 239.385 174.397 239.662 174.51 239.951C175.007 241.231 175.641 242.447 176.233 243.693C176.389 244.029 176.861 243.809 176.704 243.474C176.468 242.966 176.231 242.459 175.99 241.942L175.519 242.162C175.739 242.633 175.909 243.094 175.994 243.606L176.49 243.463C176.291 243.037 176.093 242.611 175.799 242.241C175.613 242.008 175.312 242.192 175.345 242.452C175.397 242.847 175.445 243.233 175.506 243.624L175.959 243.413C175.659 243.078 175.492 242.671 175.324 242.264C175.194 241.938 174.804 242.12 174.828 242.407C174.862 242.788 174.807 243.332 175.048 243.661C175.29 243.99 175.712 243.925 176.031 243.876C176.44 243.806 176.952 243.744 177.26 243.458C177.645 243.101 177.427 242.585 177.128 242.206C176.972 242.014 176.697 242.109 176.673 242.341C176.609 243.033 176.684 243.737 176.799 244.434L177.134 244.134C176.979 244.063 176.921 243.914 176.835 243.755C176.665 243.437 176.19 243.647 176.364 243.974C176.526 244.274 176.667 244.506 176.976 244.649C177.171 244.735 177.35 244.552 177.311 244.349C177.199 243.706 177.136 243.051 177.199 242.405L176.743 242.54C176.934 242.782 177.049 242.96 176.759 243.095C176.469 243.23 176.119 243.283 175.809 243.328C175.688 243.352 175.585 243.345 175.46 243.337C175.46 243.337 175.429 243.318 175.464 243.346C175.456 243.328 175.451 243.319 175.435 243.282C175.353 242.989 175.363 242.632 175.34 242.322L174.844 242.465C175.033 242.918 175.235 243.375 175.561 243.742C175.747 243.953 176.055 243.809 176.014 243.531C175.962 243.136 175.905 242.754 175.853 242.359L175.4 242.57C175.655 242.904 175.824 243.289 176.01 243.665C176.145 243.955 176.551 243.832 176.506 243.522C176.423 242.965 176.232 242.436 175.986 241.933C175.83 241.598 175.358 241.817 175.515 242.153C175.751 242.66 175.988 243.168 176.229 243.684L176.7 243.465C176.121 242.223 175.484 240.998 174.977 239.722L174.549 240.01C175.22 240.999 175.727 242.087 176.498 243.007C176.706 243.263 177.043 243.018 176.926 242.719C176.638 241.982 176.372 241.246 176.214 240.481L175.76 240.692C176.284 241.342 176.68 242.073 177.094 242.795L177.523 242.507C176.622 241.405 175.968 240.143 175.377 238.852C175.241 238.562 174.822 238.68 174.881 238.995C175.061 239.926 175.514 240.851 176.011 241.656C176.47 242.402 177.085 243.296 177.918 243.592C178.14 243.665 178.329 243.455 178.232 243.225C177.858 242.351 177.47 241.472 176.969 240.658C176.519 239.93 175.899 239.072 175.038 238.954C174.896 238.933 174.772 239.045 174.763 239.193C174.667 240.738 175.585 243.841 173.411 243.983C173.079 244.005 173.185 244.563 173.517 244.541L173.534 244.555Z" fill="#3C87C9"/>
<path d="M170.189 235.015C171.021 234.197 172.053 233.594 173.192 233.339C173.291 233.315 173.405 233.229 173.4 233.099C173.375 232.548 173.217 231.926 172.665 231.687C172.209 231.491 171.7 231.63 171.284 231.802C170.867 231.974 170.462 232.218 170.11 232.503C169.868 232.694 169.582 232.838 169.352 233.055C169.086 233.312 168.951 233.662 168.985 234.065C169.011 234.428 169.186 234.876 169.522 235.051C169.927 235.259 170.209 234.94 170.357 234.595C170.496 234.277 169.991 234.07 169.853 234.389C169.772 234.57 169.726 234.613 169.614 234.445C169.486 234.24 169.454 233.935 169.54 233.718C169.627 233.501 169.85 233.364 170.036 233.244C170.223 233.124 170.392 232.99 170.566 232.865C170.835 232.662 171.131 232.491 171.452 232.352C171.742 232.217 172.08 232.114 172.396 232.177C172.521 232.207 172.626 232.268 172.708 232.395C172.811 232.546 172.853 232.824 172.861 233.03L173.068 232.79C171.84 233.065 170.718 233.688 169.821 234.58C169.577 234.815 169.937 235.254 170.18 235.02L170.189 235.015Z" fill="#3C87C9"/>
<path d="M165.513 225.223C165.753 224.603 166.035 223.975 166.551 223.569C167.068 223.162 167.711 223.028 168.34 222.933C168.462 222.91 168.54 222.818 168.548 222.693C168.616 222.153 168.549 221.512 168.062 221.154C167.663 220.866 167.153 220.861 166.722 220.93C165.792 221.065 164.55 221.501 164.513 222.677C164.495 223.325 164.791 223.982 165.074 224.566C165.231 224.902 165.702 224.682 165.546 224.347C165.19 223.608 164.695 222.57 165.444 222C165.764 221.762 166.188 221.631 166.566 221.543C166.895 221.467 167.295 221.402 167.631 221.532C167.782 221.594 167.904 221.691 167.972 221.836C168.086 222.081 168.065 222.367 168.031 222.625L168.239 222.385C167.52 222.499 166.786 222.676 166.205 223.134C165.624 223.593 165.296 224.309 165.031 225.017C164.906 225.34 165.41 225.546 165.535 225.223L165.513 225.223Z" fill="#3C87C9"/>
<path d="M161.181 216.595C161.219 216.18 161.333 215.785 161.64 215.521C161.888 215.295 162.199 215.183 162.502 215.075C163.139 214.855 163.79 214.618 164.033 213.886C164.145 213.558 163.637 213.343 163.529 213.68C163.309 214.345 162.537 214.44 161.986 214.653C161.669 214.779 161.356 214.958 161.129 215.229C160.829 215.579 160.7 216.036 160.651 216.523C160.619 216.88 161.149 216.952 161.181 216.595Z" fill="#3C87C9"/>
<path d="M165.042 221.658C165.252 220.854 165.085 219.928 164.879 219.108C164.673 218.288 164.371 217.403 163.99 216.61L163.562 216.898C164.107 217.57 164.341 218.498 164.646 219.294C164.951 220.09 165.316 220.968 166.02 221.412C166.319 221.603 166.604 221.15 166.305 220.959C165.623 220.538 165.318 219.599 165.033 218.871C164.733 218.084 164.479 217.209 163.947 216.541C163.744 216.294 163.379 216.53 163.519 216.829C163.87 217.559 164.144 218.336 164.342 219.116C164.532 219.855 164.737 220.719 164.538 221.452C164.443 221.794 164.948 222 165.042 221.658Z" fill="#3C87C9"/>
<path d="M166.488 223.764C166.655 224.194 166.877 224.576 167.227 224.876C167.502 225.112 167.82 225.273 168.082 225.526C168.417 225.844 168.607 226.274 168.783 226.699C168.981 227.17 169.133 227.662 169.339 228.128C169.496 228.463 169.945 228.243 169.811 227.908C169.136 226.248 168.316 224.655 167.423 223.096C167.24 222.774 166.836 222.973 166.952 223.316C167.085 223.696 167.231 224.08 167.296 224.48C167.353 224.839 167.87 224.764 167.813 224.404C167.735 223.955 167.581 223.53 167.423 223.096L166.952 223.316C167.844 224.875 168.664 226.468 169.339 228.128L169.811 227.908C169.418 227.043 169.215 225.968 168.554 225.261C168.293 224.986 167.999 224.803 167.7 224.589C167.332 224.32 167.113 223.992 166.95 223.549C166.825 223.21 166.354 223.43 166.479 223.769L166.488 223.764Z" fill="#3C87C9"/>
<path d="M170.272 232.449C169.605 231.017 168.573 229.799 167.896 228.371C167.765 228.091 167.31 228.203 167.4 228.515C167.594 229.119 168.027 229.668 168.425 230.144C168.802 230.597 169.239 231.133 169.765 231.384C169.959 231.47 170.139 231.287 170.099 231.085C170.035 230.662 169.894 230.265 169.658 229.9C169.46 229.595 169.07 229.943 169.268 230.248C169.439 230.521 169.533 230.841 169.583 231.16L169.918 230.86C169.511 230.675 169.105 230.158 168.802 229.792C168.477 229.403 168.052 228.895 167.904 228.434L167.408 228.577C168.093 230.001 169.125 231.219 169.784 232.655C169.94 232.991 170.411 232.771 170.255 232.435L170.272 232.449Z" fill="#3C87C9"/>
<path d="M170.662 234.584C171.371 234.827 171.858 235.328 172.219 236.032C172.559 236.712 172.785 237.434 173.156 238.088C173.34 238.411 173.743 238.212 173.628 237.869C173.589 237.787 173.644 237.905 173.619 237.85C173.598 237.805 173.586 237.756 173.57 237.697C173.529 237.562 173.487 237.426 173.456 237.287C173.354 236.904 173.249 236.512 173.156 236.124C173.064 235.715 172.969 235.296 172.908 234.883C172.882 234.708 172.868 234.56 172.858 234.421C172.86 234.354 172.853 234.291 172.864 234.219C172.869 234.184 172.866 234.152 172.875 234.126C172.875 234.148 172.875 234.148 172.885 234.099C172.9 234.037 172.899 234.082 172.89 234.086C172.926 234.069 172.872 234.094 172.863 234.099L172.826 234.115C172.683 234.138 172.795 234.119 172.795 234.119C172.777 234.128 172.813 234.111 172.795 234.119L172.826 234.138C172.791 234.11 172.804 234.115 172.826 234.138C172.857 234.157 172.878 234.18 172.909 234.198C172.962 234.24 173.031 234.318 173.101 234.396C173.274 234.602 173.609 234.468 173.554 234.185C173.499 233.901 173.409 233.568 173.144 233.449C172.932 233.349 172.724 233.446 172.55 233.571C172.395 233.688 172.23 233.853 172.089 233.93C171.993 233.985 171.939 234.011 171.854 234.017C171.854 234.017 171.809 234.016 171.796 234.011C171.743 233.992 171.725 233.978 171.686 233.941C171.581 233.835 171.43 233.795 171.311 233.895C171.219 233.982 171.192 234.183 171.296 234.288C171.731 234.725 172.187 234.59 172.589 234.27C172.672 234.21 172.741 234.144 172.818 234.075C172.906 234.001 172.901 234.015 172.987 233.963C173.014 233.973 172.947 233.949 172.934 233.944C172.938 233.953 172.921 233.917 172.942 233.962C172.955 233.989 172.968 234.016 172.98 234.044C173.01 234.107 173.017 234.192 173.037 234.26L173.49 234.049C173.278 233.806 172.943 233.443 172.621 233.604C172.34 233.735 172.347 234.152 172.361 234.443C172.408 235.348 172.66 236.267 172.891 237.142C172.972 237.457 173.057 237.781 173.17 238.093L173.641 237.873C173.24 237.156 173.006 236.371 172.614 235.649C172.206 234.89 171.617 234.337 170.837 234.061C170.509 233.949 170.343 234.468 170.671 234.58L170.662 234.584Z" fill="#3C87C9"/>
<path d="M133.268 261.014L134.976 264.465L132.267 267.505L132.753 268.547L135.544 265.613L136.948 268.434L134.156 271.391L134.579 272.606L137.559 269.672L139.047 272.674L136.169 275.517L136.769 276.804L173.825 243.569L172.049 240.116L166.344 245.745L164.911 242.673L170.595 237.33L169.35 234.611L163.72 240.094L162.456 237.385L167.976 231.523L166.792 228.676L161.311 234.929L159.633 231.33L164.869 225.546L163.396 222.978L158.467 228.829L156.894 225.458L162.118 219.315L160.354 216.739L127.683 258.598L128.624 259.715L131.122 256.696L132.61 259.699L129.692 263.189L130.351 264.294L133.268 261.014ZM156.839 230.78L133.609 258.505L132.144 255.458L155.224 227.483L156.839 230.78ZM138.51 268.732L163.375 244.183L164.854 247.212L139.971 271.769L138.51 268.732ZM136.521 264.584L160.867 239.041L162.172 241.721L137.884 267.435L136.521 264.584ZM134.261 259.878L157.995 233.165L159.723 236.706L135.937 263.378L134.265 259.887L134.261 259.878Z" fill="#3C87C9"/>
<path d="M138.275 279.323C138.146 278.479 137.434 277.828 137.024 277.115C136.563 276.315 136.188 275.463 135.795 274.621C135 272.917 134.279 271.157 133.317 269.542C132.867 268.792 132.382 268.058 131.924 267.312C131.444 266.52 131.119 265.657 130.821 264.781C130.221 262.997 129.425 261.316 128.577 259.637C128.386 259.252 128.186 258.871 127.995 258.485C127.838 258.172 127.695 257.842 127.397 257.628C127.002 257.349 126.499 257.406 126.125 257.669C124.962 258.487 125.663 260.157 126.141 261.159C126.471 261.866 126.882 262.535 127.239 263.229C127.643 264.001 127.997 264.807 128.383 265.587C129.239 267.328 130.063 269.073 130.802 270.869C131.628 272.878 132.496 274.857 133.413 276.824C133.861 277.784 134.323 278.728 134.753 279.697C135.132 280.535 135.375 281.481 136.004 282.192C136.182 282.384 135.866 282.653 135.688 282.46C135.111 281.814 134.839 280.97 134.516 280.182C134.133 279.268 133.688 278.384 133.27 277.486C132.412 275.647 131.576 273.807 130.8 271.93C130.002 270.006 129.177 268.118 128.262 266.25C127.842 265.398 127.445 264.523 127.017 263.675C126.648 262.931 126.22 262.226 125.855 261.491C125.316 260.407 124.648 258.855 125.488 257.746C126.082 256.961 127.228 256.769 127.918 257.539C128.148 257.796 128.291 258.126 128.444 258.43C128.682 258.893 128.92 259.356 129.144 259.814C129.573 260.662 129.988 261.528 130.384 262.402C130.793 263.326 131.089 264.292 131.43 265.236C131.775 266.189 132.24 267.043 132.78 267.895C133.337 268.782 133.913 269.661 134.375 270.605C134.888 271.634 135.347 272.689 135.837 273.74C136.327 274.792 136.744 275.756 137.276 276.732C137.741 277.564 138.549 278.302 138.692 279.272C138.725 279.532 138.33 279.607 138.283 279.341L138.275 279.323Z" fill="#3C87C9"/>
<path d="M138.654 279.522C138.36 279.814 137.987 280.01 137.562 280.021C137.177 280.023 136.806 279.866 136.48 279.664C135.812 279.248 135.31 278.621 134.664 278.183L134.947 278.128C134.626 278.598 134.852 279.32 135.023 279.804C135.23 280.391 135.501 280.948 135.79 281.498L135.41 281.51C135.644 280.97 135.439 280.271 135.27 279.743C135.076 279.161 134.815 278.554 134.407 278.082L134.749 277.868C135.197 278.828 135.613 279.815 135.785 280.871C135.824 281.096 135.481 281.212 135.402 280.995C135.19 280.399 134.951 279.793 134.848 279.168C134.813 278.975 135.071 278.843 135.21 278.999C135.604 279.466 135.903 279.989 136.202 280.511L135.819 280.635C135.685 279.781 135.318 278.993 135.103 278.155C135.038 277.92 135.389 277.845 135.487 278.031C135.969 278.899 136.342 279.817 136.76 280.714C136.87 280.95 136.499 281.123 136.389 280.888C136.215 280.516 136.046 280.154 135.873 279.782L136.245 279.609C136.401 279.944 136.58 280.258 136.841 280.533L136.5 280.748C136.356 280.439 136.213 280.131 136.146 279.798C136.102 279.587 136.369 279.496 136.508 279.629C136.713 279.832 136.909 280.038 137.104 280.245L136.742 280.414C136.701 280.091 136.557 279.805 136.404 279.524C136.289 279.301 136.588 279.162 136.745 279.309C136.946 279.503 137.289 279.718 137.357 280.006C137.425 280.294 137.164 280.515 136.963 280.675C136.706 280.883 136.409 281.143 136.071 281.201C135.662 281.27 135.48 280.903 135.418 280.557C135.387 280.373 135.591 280.266 135.741 280.351C136.177 280.622 136.543 280.981 136.886 281.362L136.54 281.424C136.579 281.296 136.523 281.2 136.477 281.078C136.386 280.834 136.757 280.661 136.849 280.905C136.932 281.131 136.999 281.32 136.925 281.564C136.876 281.72 136.674 281.737 136.579 281.627C136.258 281.269 135.917 280.942 135.509 280.68L135.832 280.474C135.87 280.699 135.916 280.843 136.142 280.738C136.369 280.632 136.584 280.455 136.772 280.29C136.841 280.224 136.901 280.164 136.956 280.093C136.948 280.075 136.948 280.075 136.935 280.048C136.806 279.866 136.591 279.712 136.421 279.56L136.762 279.345C136.932 279.663 137.08 279.981 137.128 280.344C137.158 280.551 136.91 280.656 136.766 280.513C136.57 280.307 136.365 280.104 136.17 279.897L136.532 279.728C136.596 280.03 136.731 280.298 136.849 280.574C136.946 280.782 136.668 280.967 136.508 280.788C136.234 280.485 136.02 280.144 135.856 279.768C135.746 279.532 136.117 279.359 136.227 279.595C136.4 279.966 136.57 280.329 136.743 280.701L136.371 280.874C135.953 279.977 135.58 279.058 135.098 278.191L135.482 278.067C135.705 278.901 136.073 279.689 136.197 280.547C136.23 280.785 135.915 280.866 135.813 280.671C135.536 280.171 135.254 279.685 134.886 279.249L135.248 279.08C135.348 279.674 135.565 280.234 135.765 280.804L135.381 280.927C135.212 279.903 134.817 278.961 134.382 278.028C134.285 277.819 134.572 277.63 134.723 277.813C135.179 278.34 135.473 279.019 135.679 279.674C135.873 280.279 136.072 281.036 135.809 281.655C135.741 281.818 135.517 281.835 135.428 281.667C135.118 281.05 134.808 280.433 134.603 279.779C134.417 279.192 134.241 278.436 134.623 277.882C134.688 277.786 134.814 277.771 134.906 277.827C135.855 278.466 137.176 280.399 138.394 279.202C138.583 279.015 138.852 279.331 138.663 279.518L138.654 279.522Z" fill="#3C87C9"/>
<path d="M134.857 273.271C133.95 273.385 133.055 273.714 132.315 274.258C132.251 274.31 132.143 274.338 132.069 274.273C131.758 274.01 131.487 273.64 131.637 273.206C131.759 272.851 132.114 272.619 132.427 272.462C132.74 272.305 133.097 272.172 133.448 272.097C133.687 272.04 133.913 271.935 134.165 271.906C134.456 271.869 134.727 271.953 134.941 272.151C135.137 272.335 135.308 272.63 135.229 272.91C135.139 273.239 134.808 273.261 134.523 273.195C134.265 273.139 134.405 272.753 134.663 272.81C134.81 272.841 134.864 272.838 134.823 272.702C134.765 272.531 134.617 272.379 134.439 272.329C134.262 272.28 134.072 272.346 133.91 272.4C133.747 272.454 133.576 272.489 133.409 272.534C133.152 272.598 132.899 272.694 132.646 272.813C132.419 272.918 132.173 273.077 132.047 273.28C132 273.368 131.975 273.457 132.012 273.56C132.049 273.687 132.184 273.834 132.297 273.935L132.051 273.951C132.845 273.36 133.799 272.992 134.791 272.871C135.052 272.838 135.121 273.247 134.861 273.28L134.857 273.271Z" fill="#3C87C9"/>
<path d="M131.62 266.141C131.136 266.002 130.62 265.89 130.116 265.992C129.612 266.095 129.192 266.423 128.812 266.744C128.739 266.8 128.64 266.802 128.565 266.76C128.217 266.558 127.873 266.222 127.925 265.789C127.966 265.428 128.225 265.131 128.495 264.906C129.058 264.433 129.968 263.899 130.66 264.415C131.046 264.698 131.275 265.165 131.461 265.586C131.57 265.822 131.199 265.995 131.089 265.759C130.84 265.225 130.498 264.468 129.782 264.637C129.476 264.713 129.175 264.897 128.929 265.079C128.714 265.234 128.467 265.437 128.366 265.694C128.323 265.814 128.315 265.916 128.366 266.025C128.451 266.206 128.626 266.323 128.794 266.421L128.547 266.437C128.996 266.074 129.471 265.72 130.051 265.592C130.632 265.465 131.21 265.593 131.76 265.755C132.013 265.825 131.873 266.21 131.62 266.141Z" fill="#3C87C9"/>
<path d="M128.887 259.737C128.623 259.573 128.34 259.462 128.021 259.512C127.765 259.554 127.528 259.686 127.31 259.81C126.842 260.084 126.374 260.357 125.82 260.163C125.571 260.08 125.712 259.695 125.96 259.778C126.461 259.952 126.919 259.54 127.337 259.323C127.577 259.2 127.835 259.091 128.117 259.081C128.485 259.064 128.812 259.198 129.12 259.385C129.34 259.526 129.112 259.864 128.892 259.724L128.887 259.737Z" fill="#3C87C9"/>
<path d="M129.801 264.252C129.226 264.013 128.775 263.495 128.404 263.006C128.032 262.517 127.677 261.944 127.415 261.36L127.799 261.236C127.908 261.847 128.326 262.414 128.62 262.95C128.914 263.486 129.242 264.094 129.131 264.708C129.084 264.962 128.669 264.924 128.725 264.666C128.84 264.083 128.449 263.482 128.176 262.991C127.873 262.459 127.499 261.917 127.39 261.305C127.351 261.081 127.685 260.969 127.774 261.182C128.014 261.721 128.318 262.23 128.667 262.696C128.995 263.139 129.397 263.646 129.919 263.866C130.163 263.963 130.027 264.357 129.779 264.252L129.801 264.252Z" fill="#3C87C9"/>
<path d="M130.271 266.042C130.438 266.329 130.537 266.636 130.528 266.971C130.521 267.239 130.451 267.492 130.453 267.756C130.457 268.096 130.61 268.4 130.767 268.691C130.942 269.018 131.143 269.332 131.309 269.663C131.423 269.908 131.056 270.068 130.937 269.837C130.329 268.697 129.825 267.498 129.388 266.278C129.296 266.034 129.623 265.882 129.76 266.105C129.91 266.355 130.059 266.605 130.25 266.825C130.428 267.018 130.112 267.286 129.934 267.094C129.708 266.846 129.551 266.555 129.379 266.282L129.751 266.109C130.187 267.329 130.678 268.523 131.3 269.667L130.928 269.841C130.628 269.22 130.116 268.62 130.05 267.911C130.022 267.637 130.078 267.379 130.108 267.112C130.14 266.777 130.067 266.502 129.896 266.207C129.768 265.979 130.139 265.806 130.267 266.033L130.271 266.042Z" fill="#3C87C9"/>
<path d="M133.325 272.165C132.844 271.132 132.674 269.986 132.201 268.949C132.108 268.749 132.414 268.53 132.542 268.735C132.8 269.122 132.889 269.621 132.953 270.066C133.018 270.488 133.098 270.991 132.97 271.404C132.921 271.559 132.72 271.576 132.624 271.466C132.416 271.232 132.253 270.977 132.167 270.675C132.094 270.422 132.503 270.353 132.576 270.605C132.637 270.831 132.784 271.027 132.94 271.197L132.594 271.259C132.697 270.935 132.616 270.477 132.562 270.126C132.505 269.767 132.433 269.282 132.244 268.995L132.586 268.78C133.059 269.818 133.219 270.968 133.71 271.997C133.82 272.232 133.449 272.405 133.339 272.17L133.325 272.165Z" fill="#3C87C9"/>
<path d="M134.362 273.348C134.133 273.874 134.169 274.376 134.392 274.901C134.614 275.426 134.907 275.864 135.099 276.37C135.195 276.623 134.864 276.766 134.727 276.543C134.702 276.489 134.74 276.571 134.723 276.534C134.706 276.498 134.68 276.466 134.658 276.443C134.598 276.361 134.546 276.275 134.486 276.192C134.322 275.96 134.145 275.722 133.973 275.494C133.783 275.252 133.592 275.009 133.379 274.789C133.292 274.697 133.209 274.614 133.135 274.549C133.1 274.522 133.061 274.485 133.017 274.461C132.999 274.447 132.982 274.433 132.955 274.424C132.959 274.433 132.959 274.433 132.929 274.414C132.884 274.39 132.915 274.409 132.915 274.409C132.888 274.422 132.933 274.401 132.933 274.401L132.961 274.388C133.048 274.314 132.979 274.38 132.979 274.38C132.97 274.384 132.988 274.375 132.979 274.38L132.969 274.406C132.961 274.388 132.974 274.37 132.969 274.406C132.968 274.428 132.959 274.455 132.962 274.486C132.961 274.531 132.968 274.616 132.979 274.688C133.005 274.886 132.756 275.013 132.617 274.857C132.478 274.701 132.34 274.501 132.404 274.283C132.458 274.115 132.621 274.039 132.788 273.994C132.937 273.958 133.121 273.927 133.238 273.895C133.32 273.856 133.365 273.835 133.415 273.801C133.415 273.801 133.434 273.77 133.443 273.766C133.457 273.726 133.462 273.713 133.463 273.668C133.457 273.561 133.518 273.455 133.631 273.436C133.734 273.42 133.857 273.495 133.863 273.603C133.887 274.055 133.573 274.257 133.172 274.345C133.091 274.36 133.019 274.372 132.942 274.396C132.852 274.416 132.866 274.421 132.789 274.446C132.775 274.463 132.794 274.41 132.804 274.406C132.808 274.415 132.795 274.388 132.808 274.415C132.816 274.433 132.825 274.451 132.833 274.47C132.854 274.515 132.898 274.561 132.928 274.602L132.565 274.771C132.536 274.542 132.497 274.174 132.764 274.061C132.99 273.955 133.222 274.145 133.388 274.288C133.891 274.727 134.292 275.279 134.675 275.817C134.809 276.009 134.955 276.205 135.084 276.41L134.712 276.583C134.508 276.027 134.168 275.535 133.964 274.979C133.739 274.4 133.728 273.809 133.976 273.23C134.086 272.992 134.471 273.132 134.362 273.37L134.362 273.348Z" fill="#3C87C9"/>
<path d="M182.983 317.749C182.806 317.511 182.796 317.207 183.305 316.925C183.352 317.025 183.421 317.125 183.499 317.199C183.769 317.47 184.231 317.586 184.742 317.215C185.08 316.969 185.238 316.598 184.962 316.219C184.699 315.845 184.296 315.856 183.587 315.944C182.617 316.065 181.972 316.101 181.523 315.494C181.023 314.823 181.45 314.105 182.157 313.588C182.86 313.083 183.508 312.936 183.805 313.36C183.93 313.533 183.907 313.743 183.664 313.955C183.609 314.003 183.527 314.064 183.454 314.097C183.381 313.988 183.299 313.883 183.193 313.822C182.979 313.646 182.653 313.61 182.265 313.89C182.019 314.072 181.782 314.392 182.04 314.757C182.286 315.094 182.638 315.14 183.55 315.013C184.277 314.916 185.062 314.848 185.514 315.487C185.915 316.061 185.812 316.859 184.845 317.553C183.964 318.196 183.321 318.165 183.005 317.749L182.983 317.749Z" fill="#F3F1DD"/>
<path d="M189.311 313.904C189.457 314.123 189.396 314.372 189.109 314.561C188.781 314.78 188.43 314.712 188.133 314.288C188.262 314.801 188.12 315.231 187.664 315.555C187.071 315.963 186.582 315.86 186.031 315.058C185.756 314.657 185.609 314.46 185.334 314.059C185.226 313.9 185.006 313.616 184.751 313.448C184.795 313.306 184.871 313.138 185.063 313.005C185.305 312.837 185.577 312.853 185.741 313.086C186.119 313.638 186.313 313.912 186.692 314.463C187.096 315.047 187.363 315.287 187.691 315.068C188.024 314.835 188.004 314.248 187.428 313.392C186.933 312.662 186.809 312.467 186.483 312.265C186.504 312.167 186.599 311.969 186.809 311.827C187.054 311.668 187.34 311.689 187.503 311.944C187.972 312.642 188.204 312.997 188.677 313.703C188.818 313.913 188.907 313.96 189.007 313.891C189.052 313.87 189.103 313.813 189.11 313.733C189.207 313.776 189.277 313.831 189.324 313.909L189.311 313.904Z" fill="#F3F1DD"/>
<path d="M190.2 314.605C190.015 314.327 190.109 314.008 190.409 313.824C190.564 313.729 190.708 313.684 190.828 313.728C190.774 313.896 190.81 314.067 190.9 314.213C191.033 314.427 191.268 314.505 191.541 314.333C192.042 314.011 191.983 313.388 191.532 312.682C191.472 312.578 191.356 312.4 191.284 312.268C191.379 312.709 191.208 313.098 190.784 313.373C190.188 313.75 189.546 313.652 188.893 312.655C188.322 311.785 188.249 310.87 189.292 310.196C189.779 309.892 190.324 309.737 190.757 309.789C191.339 310.731 191.622 311.195 192.205 312.137C192.89 313.252 192.502 314.028 191.651 314.569C191.1 314.925 190.492 315.065 190.191 314.609L190.2 314.605ZM190.756 311.444C190.456 310.966 190.315 310.734 190.015 310.256C189.863 310.239 189.66 310.3 189.492 310.412C188.954 310.751 189.184 311.361 189.72 312.203C190.175 312.918 190.447 313.1 190.788 312.885C191.207 312.624 191.151 312.077 190.756 311.444Z" fill="#F3F1DD"/>
<path d="M195.692 309.937C195.815 310.155 195.718 310.443 195.391 310.64C195.036 310.849 194.693 310.777 194.332 310.24C194.384 310.8 194.186 311.345 193.662 311.666C193.221 311.927 192.771 311.884 192.509 311.465C192.188 310.942 192.526 310.342 192.936 309.92C193.194 309.645 193.477 309.447 193.7 309.31C193.67 309.246 193.658 309.219 193.614 309.173C193.251 308.559 192.935 308.309 192.54 308.549C192.308 308.69 192.185 308.924 192.369 309.224C192.463 309.379 192.607 309.521 192.826 309.518C192.795 309.665 192.658 309.796 192.503 309.89C192.134 310.117 191.788 310.013 191.608 309.722C191.334 309.276 191.672 308.722 192.435 308.277C193.308 307.76 193.909 307.888 194.417 308.766L194.99 309.756C195.105 309.956 195.224 310.022 195.356 309.95C195.401 309.929 195.466 309.854 195.472 309.774C195.57 309.817 195.639 309.895 195.682 309.963L195.692 309.937ZM193.864 309.52C193.632 309.661 193.377 309.847 193.25 310.049C193.11 310.269 193.066 310.554 193.208 310.786C193.323 310.986 193.539 311.117 193.753 310.962C194.05 310.746 194.198 310.093 193.864 309.52Z" fill="#F3F1DD"/>
<path d="M197.274 306.374C197.432 306.664 197.338 307.006 197.074 307.151C196.924 307.232 196.772 307.259 196.656 307.225C196.666 307.033 196.638 306.924 196.557 306.775C196.455 306.579 196.295 306.521 196.127 306.611C195.837 306.768 195.898 307.302 196.401 308.215C196.819 308.969 196.934 309.169 197.228 309.397C197.198 309.499 197.095 309.679 196.89 309.808C196.663 309.936 196.368 309.897 196.21 309.628C195.796 308.906 195.591 308.538 195.177 307.815C195.053 307.597 194.952 307.545 194.847 307.605C194.802 307.626 194.729 307.682 194.731 307.758C194.643 307.711 194.573 307.655 194.531 307.565C194.403 307.338 194.481 307.08 194.781 306.918C195.113 306.731 195.455 306.803 195.722 307.208C195.632 306.709 195.776 306.355 196.162 306.142C196.612 305.899 197.075 305.97 197.288 306.379L197.274 306.374Z" fill="#F3F1DD"/>
<path d="M198.055 307.125C197.535 306.154 197.757 305.256 198.76 304.733C199.513 304.338 200.054 304.505 200.263 304.904C200.42 305.217 200.295 305.54 199.982 305.697C199.818 305.773 199.638 305.813 199.496 305.769C199.568 305.614 199.555 305.444 199.448 305.24C199.291 304.927 199.068 304.898 198.841 305.026C198.442 305.235 198.436 305.789 198.84 306.561C199.299 307.428 199.826 307.612 200.385 307.319C200.811 307.098 201 306.723 200.921 306.363C201.028 306.357 201.12 306.435 201.18 306.683C201.27 307.16 200.967 307.621 200.395 307.91C199.447 308.407 198.609 308.125 198.059 307.112L198.055 307.125Z" fill="#F3F1DD"/>
<path d="M204.886 305.164C204.991 305.391 204.868 305.669 204.527 305.839C204.156 306.012 203.827 305.923 203.507 305.355C203.509 305.928 203.267 306.449 202.718 306.716C202.26 306.94 201.815 306.861 201.586 306.416C201.306 305.863 201.697 305.305 202.141 304.91C202.421 304.659 202.717 304.488 202.957 304.364C202.928 304.301 202.915 304.274 202.889 304.219C202.585 303.567 202.288 303.308 201.875 303.512C201.631 303.626 201.495 303.855 201.652 304.168C201.728 304.331 201.867 304.487 202.09 304.493C202.046 304.635 201.904 304.756 201.732 304.837C201.342 305.018 201.01 304.897 200.857 304.593C200.615 304.122 201.005 303.609 201.794 303.219C202.701 302.774 203.295 302.96 203.731 303.871C203.926 304.288 204.023 304.496 204.213 304.904C204.31 305.113 204.433 305.188 204.56 305.129C204.606 305.107 204.674 305.042 204.694 304.967C204.787 305.023 204.856 305.101 204.89 305.173L204.886 305.164ZM203.098 304.596C202.854 304.711 202.59 304.878 202.441 305.08C202.287 305.295 202.213 305.561 202.34 305.811C202.438 306.019 202.639 306.168 202.871 306.026C203.19 305.834 203.386 305.19 203.098 304.596Z" fill="#F3F1DD"/>
<path d="M208.361 303.907C208.294 304.048 208.174 304.192 207.975 304.285C207.721 304.404 207.459 304.338 207.341 304.084C207.066 303.473 206.932 303.161 206.658 302.549C206.383 301.96 206.15 301.65 205.765 301.818C205.384 301.995 205.297 302.566 205.719 303.494C206.095 304.301 206.184 304.514 206.454 304.763C206.42 304.856 206.295 305.036 206.086 305.133C205.823 305.255 205.544 305.176 205.421 304.913C205.066 304.152 204.884 303.762 204.529 303.001C204.424 302.774 204.327 302.709 204.218 302.76C204.173 302.781 204.096 302.828 204.089 302.909C204.006 302.848 203.945 302.788 203.902 302.698C203.792 302.462 203.889 302.219 204.206 302.071C204.577 301.897 204.91 302.018 205.152 302.49C205.117 301.966 205.33 301.547 205.868 301.306C206.562 300.994 207.055 301.272 207.409 302.078C207.607 302.526 207.703 302.757 207.901 303.205C207.986 303.386 208.134 303.704 208.352 303.911L208.361 303.907Z" fill="#F3F1DD"/>
<path d="M211.398 302.139C211.394 302.604 211.048 302.997 210.464 303.236C209.519 303.622 208.66 303.294 208.21 302.235C207.781 301.221 208.073 300.357 209.118 299.925C209.842 299.631 210.533 299.717 210.781 300.319C211.019 300.925 210.602 301.473 209.796 301.804C209.597 301.897 209.398 301.968 209.159 302.046C209.533 302.754 209.973 302.869 210.498 302.647C210.951 302.458 211.178 302.142 211.201 301.811C211.299 301.809 211.4 301.884 211.398 302.139ZM209.037 301.761C209.082 301.74 209.15 301.719 209.204 301.694C209.602 301.53 210.125 301.232 209.844 300.535C209.672 300.119 209.413 300.107 209.191 300.199C208.757 300.38 208.696 300.96 209.024 301.756L209.037 301.761Z" fill="#F3F1DD"/>
<path d="M213.169 301.158C213.065 300.887 213.136 300.589 213.694 300.461C213.709 300.565 213.755 300.687 213.806 300.773C213.985 301.109 214.403 301.344 214.991 301.136C215.379 300.999 215.625 300.675 215.476 300.237C215.322 299.812 214.94 299.703 214.241 299.599C213.278 299.452 212.651 299.314 212.376 298.604C212.079 297.827 212.681 297.248 213.499 296.944C214.308 296.644 214.969 296.689 215.139 297.172C215.21 297.371 215.133 297.561 214.834 297.701C214.771 297.73 214.68 297.773 214.595 297.779C214.558 297.653 214.503 297.535 214.416 297.443C214.266 297.216 213.956 297.095 213.504 297.262C213.219 297.361 212.908 297.617 213.058 298.033C213.208 298.426 213.526 298.564 214.436 298.692C215.158 298.797 215.932 298.943 216.189 299.684C216.421 300.348 216.102 301.082 214.99 301.49C213.973 301.865 213.361 301.665 213.178 301.176L213.169 301.158Z" fill="#F3F1DD"/>
<path d="M219.716 297.829C220.095 299.02 219.751 299.821 218.92 300.098C218.546 300.217 218.229 300.177 218.024 299.975C218.061 300.101 218.091 300.165 218.128 300.291C218.223 300.566 218.406 301.055 218.643 301.397C218.596 301.485 218.475 301.651 218.236 301.73C217.979 301.817 217.717 301.729 217.634 301.481C217.187 300.167 216.959 299.512 216.512 298.198C216.428 297.972 216.35 297.898 216.228 297.944C216.182 297.965 216.101 298.003 216.086 298.065C216.002 298.005 215.947 297.909 215.922 297.833C215.844 297.593 215.98 297.342 216.287 297.243C216.698 297.107 217.005 297.339 217.233 297.828C217.237 297.197 217.512 296.793 218.049 296.62C218.929 296.331 219.457 296.99 219.725 297.825L219.716 297.829ZM218.822 298.113C218.604 297.432 218.351 297.009 217.941 297.145C217.404 297.318 217.45 298.223 217.698 298.968C217.918 299.605 218.161 299.889 218.581 299.748C219.077 299.583 219.12 299.012 218.822 298.113Z" fill="#F3F1DD"/>
<path d="M221.89 298.966C221.834 299.059 221.7 299.221 221.47 299.295C221.208 299.373 220.956 299.281 220.878 299.019C220.622 298.211 220.499 297.805 220.253 296.993C220.175 296.754 220.066 296.474 219.88 296.241C219.931 296.161 220.061 295.991 220.305 295.921C220.584 295.835 220.837 295.927 220.919 296.197C221.165 297.009 221.288 297.415 221.544 298.223C221.613 298.467 221.713 298.751 221.899 298.984L221.89 298.966ZM219.597 295.28C219.52 295.018 219.666 294.74 219.946 294.654C220.216 294.572 220.494 294.718 220.572 294.98C220.65 295.242 220.499 295.51 220.229 295.592C219.949 295.679 219.671 295.532 219.588 295.284L219.597 295.28Z" fill="#F3F1DD"/>
<path d="M224.441 295.493C224.526 295.817 224.357 296.117 224.064 296.198C223.897 296.243 223.741 296.239 223.644 296.173C223.699 295.982 223.693 295.875 223.648 295.708C223.591 295.492 223.46 295.399 223.266 295.456C222.945 295.55 222.882 296.076 223.163 297.082C223.395 297.911 223.465 298.132 223.69 298.425C223.643 298.513 223.5 298.679 223.265 298.744C223.013 298.818 222.734 298.716 222.648 298.414C222.419 297.616 222.296 297.21 222.058 296.416C221.989 296.173 221.91 296.099 221.784 296.136C221.739 296.157 221.657 296.195 221.633 296.261C221.559 296.197 221.503 296.124 221.479 296.025C221.409 295.781 221.541 295.543 221.87 295.445C222.24 295.339 222.553 295.49 222.72 295.942C222.747 295.433 222.966 295.121 223.399 295.008C223.895 294.865 224.324 295.051 224.441 295.493Z" fill="#F3F1DD"/>
<path d="M226.674 297.631C226.617 297.723 226.47 297.88 226.236 297.945C225.979 298.01 225.722 297.909 225.653 297.643L225.11 295.602C225.04 295.358 224.95 295.069 224.773 294.832C224.833 294.749 224.967 294.587 225.206 294.531C225.49 294.453 225.738 294.559 225.806 294.824C226.021 295.64 226.126 296.054 226.341 296.87C226.401 297.118 226.492 297.407 226.678 297.64L226.674 297.631ZM224.531 293.863C224.462 293.598 224.622 293.325 224.91 293.256C225.185 293.183 225.453 293.334 225.526 293.609C225.591 293.866 225.431 294.139 225.166 294.207C224.882 294.285 224.613 294.134 224.535 293.873L224.531 293.863Z" fill="#F3F1DD"/>
<path d="M228.402 293.789C228.418 293.87 228.426 293.91 228.441 293.991C228.469 294.122 228.391 294.214 228.264 294.25C228.026 294.307 227.908 294.339 227.67 294.395C227.686 294.476 227.702 294.512 227.714 294.584C227.891 295.318 227.984 295.683 228.16 296.417C228.212 296.647 228.34 296.731 228.547 296.679C228.637 296.659 228.773 296.595 228.784 296.524C228.871 296.593 228.918 296.693 228.929 296.765C228.994 297.022 228.768 297.271 228.34 297.371C227.836 297.496 227.458 297.23 227.325 296.685C227.111 295.847 227.015 295.429 226.801 294.591C226.765 294.608 226.742 294.607 226.711 294.611C226.621 294.631 226.4 294.701 226.314 294.73C226.298 294.649 226.291 294.608 226.266 294.531C226.238 294.401 226.326 294.305 226.443 294.272C226.551 294.244 226.601 294.232 226.7 294.208C226.655 294.041 226.635 293.951 226.59 293.784C226.522 293.518 226.698 293.304 226.986 293.236C227.233 293.175 227.437 293.257 227.525 293.304C227.518 293.55 227.535 293.752 227.573 293.999C227.573 293.999 227.582 293.995 227.591 293.99C227.659 293.97 228.312 293.809 228.376 293.779L228.402 293.789Z" fill="#F3F1DD"/>
</g>
<defs>
<clipPath id="clip0_141_13094">
<rect width="176.86" height="386.99" fill="white" transform="translate(0 74.7441) rotate(-25)"/>
</clipPath>
</defs>
</svg>
