<svg width="395" height="554" viewBox="0 0 395 554" fill="none" xmlns="http://www.w3.org/2000/svg">
<g clip-path="url(#clip0_141_13180)">
<path d="M119.304 489.774C171.73 508.637 218.477 512.122 223.717 497.559C228.957 482.995 190.705 455.898 138.279 437.035C85.8532 418.172 39.1057 414.687 33.8658 429.251C28.6258 443.814 66.8777 470.912 119.304 489.774Z" fill="#2D6076"/>
<path d="M285.086 254.567C284.082 240.803 282.868 235.899 275.167 224.193C269.716 215.918 260.505 207.004 257.645 202.535C254.786 198.067 257.812 189.655 259.71 184.381L277.262 135.597C277.737 134.278 280.373 135.227 280.848 133.909L287.489 115.45C287.964 114.131 289.282 114.606 290.231 111.969C291.18 109.332 289.387 110.176 290.336 107.539C291.284 104.902 295.554 93.0355 296.133 87.2872C296.712 81.5388 269.5 70.2588 269.5 70.2588C269.5 70.2588 241.339 61.6157 238.123 66.4153C234.907 71.2149 230.637 83.0812 229.689 85.7182C228.74 88.3552 227.896 86.5623 226.947 89.1993C225.998 91.8363 227.317 92.3106 226.842 93.6291L220.201 112.088C219.726 113.406 222.363 114.355 221.889 115.674L204.336 164.458C202.439 169.732 199.412 178.144 194.361 179.766C189.31 181.389 176.531 182.39 167.057 185.296C153.664 189.412 149.604 192.418 140.061 202.387C131.781 211.039 129.569 214.993 125.299 226.86L58.4106 412.766C55.5643 420.677 54.406 432.174 64.8485 440.398C75.2911 448.623 125.509 470.459 125.509 470.459C125.509 470.459 178.127 485.623 191.416 485.937C204.705 486.251 211.137 476.652 213.983 468.741L280.872 282.834C285.141 270.968 285.956 266.51 285.086 254.567Z" fill="#D2D4D3"/>
<path d="M124.798 472.436L124.666 472.388C122.609 471.484 74.0762 450.344 63.5424 442.042C51.4074 432.479 53.8679 419.142 56.4201 412.049L123.309 226.142C127.597 214.223 129.842 210.012 138.531 200.928C148.36 190.66 152.668 187.504 166.427 183.281C171.936 181.585 178.339 180.553 183.993 179.653C188.117 178.993 191.672 178.425 193.713 177.76C197.786 176.455 200.76 168.189 202.359 163.745L219.707 115.528C219.643 115.46 219.578 115.392 219.526 115.329C218.891 114.653 217.55 113.248 218.223 111.376L224.836 92.9959C224.836 92.9959 224.8 92.8488 224.771 92.7639C224.55 91.9697 224.192 90.6493 224.97 88.4869C225.61 86.707 226.419 86.0302 227.423 85.5575C227.423 85.5575 227.555 85.441 227.711 85.0059C230.131 78.2816 233.598 69.3881 236.369 65.2472C239.929 59.9461 259.026 64.8515 270.101 68.2555L270.194 68.2887L270.286 68.3219C280.991 72.7543 298.849 81.1453 298.202 87.4948C297.7 92.4515 294.706 101.516 292.287 108.24C292.131 108.675 292.131 108.839 292.126 108.852C292.643 109.857 292.818 110.903 292.182 112.67C291.4 114.845 290.269 115.63 289.611 116.093C289.547 116.145 289.476 116.178 289.412 116.23L282.799 134.61C282.121 136.495 280.197 136.711 279.277 136.827C279.196 136.843 279.103 136.854 279.01 136.865L261.661 185.082C260.063 189.525 257.088 197.792 259.397 201.393C260.551 203.193 262.924 205.908 265.682 209.045C269.463 213.354 273.74 218.228 276.91 223.032C284.825 235.053 286.134 240.23 287.169 254.407C288.078 266.945 287.125 271.621 282.837 283.54L215.948 469.447C213.396 476.54 206.804 488.405 191.349 488.027C177.941 487.714 127.065 473.088 124.908 472.461L124.776 472.413L124.798 472.436ZM222.383 112.232C222.448 112.3 222.512 112.368 222.564 112.431C223.2 113.106 224.54 114.512 223.867 116.384L206.314 165.168C204.213 171.009 201.039 179.83 195.01 181.771C192.67 182.522 188.968 183.126 184.67 183.814C179.154 184.703 172.894 185.712 167.67 187.317C154.558 191.356 150.784 194.227 141.573 203.854C133.72 212.063 131.58 215.612 127.272 227.583L60.3837 413.49C57.7319 420.86 56.5782 431.227 66.1374 438.761C76.0014 446.525 123.426 467.266 126.216 468.494C129.144 469.338 178.912 483.567 191.466 483.854C203.634 484.137 209.349 475.412 212.001 468.042L278.89 282.135C283.197 270.163 283.808 266.064 282.986 254.734C282.019 241.445 280.954 236.832 273.407 225.361C270.404 220.796 266.222 216.03 262.536 211.829C259.675 208.566 257.188 205.751 255.868 203.667C252.457 198.33 255.631 189.509 257.733 183.668L275.285 134.884C275.963 132.999 277.887 132.783 278.808 132.667C278.888 132.651 278.981 132.64 279.074 132.629L285.512 114.737C285.934 113.564 286.709 113.024 287.227 112.659C287.665 112.355 287.926 112.166 288.253 111.256C288.41 110.821 288.409 110.657 288.414 110.644C287.897 109.639 287.723 108.593 288.358 106.826C291.665 97.6366 293.683 90.6192 294.038 87.0684C293.776 84.6511 281.991 77.7155 268.788 72.2357C255.121 68.048 241.601 65.8938 239.85 67.6165C237.888 70.5442 234.978 77.2259 231.666 86.4289C231.026 88.2089 230.217 88.8857 229.213 89.3584C229.213 89.3584 229.081 89.4749 228.925 89.91C228.598 90.8198 228.679 91.132 228.822 91.6451C228.989 92.2562 229.242 93.1664 228.82 94.3399L222.383 112.232Z" fill="black"/>
<path d="M123.679 234.466C123.679 234.466 200.766 257.734 201.953 262.629C203.141 267.524 203.497 270.63 203.497 270.63L215.705 273.534L221.519 269.669L250.22 279.996L247.018 284.8L251.408 284.89C251.408 284.89 254.611 280.086 258.526 281.495L276.786 288.065L221.639 445.434C221.639 445.434 160.215 427.801 129.377 415.217C98.5394 402.632 71.6303 391.461 70.443 386.567C69.2557 381.672 123.692 234.471 123.692 234.471L123.679 234.466Z" fill="#608E61"/>
<path d="M143.337 422.77C137.971 420.84 132.95 418.944 128.573 417.16C85.26 399.477 69.6518 392.282 68.388 387.062C68.0772 385.774 67.491 383.389 94.6259 307.972C107.937 270.975 121.573 234.11 121.706 233.741L122.375 231.882L124.28 232.463C124.465 232.529 143.793 238.367 163.024 244.72C202.973 257.932 203.558 260.361 203.99 262.14C204.721 265.158 205.14 267.513 205.364 268.918L215.293 271.285L221.223 267.343L253.445 278.936L251.929 281.205C253.801 279.645 256.385 278.505 259.22 279.525L279.444 286.801L222.948 448.004L221.046 447.454C220.518 447.308 175.462 434.344 143.332 422.783L143.337 422.77ZM72.5174 386.18C74.7604 390.666 108.052 404.252 130.155 413.262C157.485 424.421 209.683 439.761 220.291 442.848L274.097 289.33L257.788 283.462C255.521 282.646 253.145 286.021 253.131 286.06L252.492 287.007L243.132 286.826L246.973 281.075L221.791 272.014L216.095 275.803L201.555 272.343L201.381 270.881C201.381 270.881 201.034 267.956 199.97 263.463C196.22 259.94 159.131 247.429 124.947 237.066C103.871 294.113 73.2008 379.025 72.5127 386.193L72.5174 386.18Z" fill="black"/>
<path d="M228.925 89.9092C228.925 89.9092 243.901 93.8087 255.767 98.0779C267.633 102.347 288.253 111.255 288.253 111.255C288.253 111.255 297.361 88.2187 294.918 85.6124C292.476 83.0062 275.433 72.3917 269.5 70.2571C263.567 68.1225 238.123 66.4136 238.123 66.4136L228.925 89.9092Z" fill="#F09B5C"/>
<path d="M226.111 91.3554L236.739 64.2192L238.278 64.3264C239.327 64.3911 264.094 66.0796 270.224 68.2853C276.355 70.4911 293.753 81.2779 296.463 84.1742C299.818 87.7638 292.592 106.027 290.225 112.026L289.424 114.046L287.441 113.183C287.23 113.107 266.741 104.247 255.073 100.048C243.406 95.8503 228.57 91.9719 228.42 91.9329L226.134 91.3337L226.111 91.3554ZM256.492 96.1061C266.116 99.569 281.611 106.127 287.096 108.472C290.582 99.3622 293.686 89.1614 293.226 86.8812C290.508 84.2951 274.457 74.2758 268.801 72.2408C264.464 70.6801 247.457 69.1927 239.533 68.6199L231.759 88.4881C236.441 89.7554 247.421 92.8425 256.492 96.1061Z" fill="black"/>
<path d="M226.975 97.3984L286.303 118.745L282.868 126.637L251.815 115.271L224.128 105.309L226.975 97.3984Z" fill="#F09B5C"/>
<path d="M284.01 129.298L251.103 117.25L221.452 106.581L225.722 94.7148L289.137 117.532L284.01 129.298ZM226.831 104.049L252.54 113.299L281.738 123.983L283.495 119.969L228.254 100.093L226.831 104.049Z" fill="black"/>
<path d="M257.877 69.2032L222.392 159.799C222.392 159.799 228.036 164.808 233.309 166.705C238.583 168.603 250.079 169.761 250.079 169.761L281.356 77.3679L269.495 70.271L257.877 69.2032Z" fill="#608E61"/>
<path d="M232.603 168.67C227.013 166.658 221.247 161.576 221 161.353L219.906 160.379L256.499 66.95L270.178 68.2082L283.9 76.4217L251.551 172.003L249.884 171.835C249.411 171.784 238.066 170.62 232.621 168.661L232.603 168.67ZM224.908 159.14C226.73 160.615 230.519 163.453 234.026 164.714C237.836 166.085 245.312 167.077 248.64 167.471L278.821 78.2875L268.835 72.3119L259.265 71.4299L224.921 159.145L224.908 159.14Z" fill="black"/>
<path d="M144.108 284.258L149.382 286.155L144.638 299.34L158.61 289.476L166.521 292.322L152.548 302.186L157.033 318.692L150.441 316.32L146.695 306.037L142.635 309.044L141.212 312.999L134.62 310.628L144.108 284.258Z" fill="#F3F1DD"/>
<path d="M174.431 295.169L169.158 293.271L159.67 319.641L164.944 321.539L174.431 295.169Z" fill="#F3F1DD"/>
<path d="M178.387 296.592L184.979 298.964L177.863 318.741L192.366 323.959L189.994 330.551L168.899 322.962L178.387 296.592Z" fill="#F3F1DD"/>
<path d="M213.799 307.842C206.878 305.352 199.045 309.533 196.293 317.18C193.542 324.827 196.916 333.04 203.837 335.531C210.759 338.021 218.592 333.84 221.343 326.193C224.095 318.546 220.721 310.333 213.799 307.842ZM206.842 329.166C203.216 327.861 201.443 323.56 202.885 319.552C204.328 315.544 208.435 313.358 212.06 314.662C215.686 315.967 217.459 320.268 216.017 324.276C214.575 328.285 210.468 330.47 206.842 329.166Z" fill="#F3F1DD"/>
<path d="M168.049 283.936L173.902 280.085L239.823 303.803L201.292 415.03L98.4562 378.03L119.434 315.587L126.605 312.21L106.102 373.335L198.391 406.54L232.177 308.498L168.049 283.936Z" fill="#F3F1DD"/>
<path d="M141.614 368.378L145.345 369.72C146.1 370.022 146.49 370.386 146.529 370.816C146.579 371.132 146.503 371.552 146.313 372.079L144.634 376.746C144.472 377.195 144.118 377.559 143.575 377.825C141.948 378.624 139.945 378.604 137.558 377.745C135.449 376.986 133.901 375.536 132.919 373.38C131.938 371.225 131.848 369.034 132.659 366.779C133.47 364.524 134.935 362.937 137.058 362.003C139.18 361.069 141.323 360.991 143.472 361.764C145.146 362.367 146.516 363.485 147.612 365.115C147.895 365.53 147.966 365.913 147.837 366.269C147.709 366.625 147.409 366.963 146.918 367.293C146.094 367.845 145.46 368.034 145.012 367.873C144.748 367.778 144.384 367.424 143.928 366.828C143.473 366.232 142.832 365.778 142.015 365.484C140.947 365.1 139.847 365.136 138.746 365.589C137.645 366.041 136.862 366.892 136.426 368.105C135.989 369.318 136.032 370.524 136.58 371.69C137.116 372.85 137.926 373.618 139.007 374.007C139.785 374.287 140.532 374.407 141.241 374.379L142.071 372.072L140.397 371.469C139.962 371.313 139.665 371.146 139.523 370.961C139.381 370.776 139.319 370.575 139.347 370.332C139.375 370.089 139.453 369.789 139.59 369.407C139.728 369.025 139.859 368.744 140.005 368.544C140.152 368.343 140.328 368.228 140.527 368.21C140.825 368.169 141.192 368.226 141.614 368.378Z" fill="#F3F1DD"/>
<path d="M179.832 375.889C180.054 375.685 180.308 375.598 180.618 375.606C180.91 375.621 181.272 375.692 181.668 375.834C182.063 375.977 182.379 376.135 182.605 376.291C182.832 376.447 182.984 376.606 183.069 376.741C183.15 376.889 183.19 377.067 183.171 377.284C183.17 377.536 183.09 377.925 182.914 378.412L178.678 390.186C178.555 390.529 178.465 390.78 178.386 390.915C178.307 391.051 178.17 391.225 177.989 391.398C177.654 391.709 177.033 391.695 176.124 391.367C175.57 391.168 175.202 390.991 175.024 390.823C174.842 390.668 174.709 390.456 174.644 390.224C172.994 384.835 171.894 381.312 171.362 379.647L168.852 386.621C168.729 386.964 168.639 387.215 168.56 387.35C168.482 387.486 168.344 387.66 168.163 387.833C167.828 388.144 167.208 388.129 166.311 387.807C165.415 387.484 164.967 387.115 164.907 386.661C164.864 386.408 164.869 386.186 164.913 386.023C164.957 385.86 165.038 385.592 165.152 385.275L169.412 373.435C169.607 372.895 169.815 372.523 170.032 372.333C170.254 372.13 170.509 372.043 170.819 372.05C171.129 372.057 171.486 372.141 171.908 372.293C172.33 372.445 172.658 372.608 172.867 372.772C173.076 372.937 173.227 373.095 173.286 373.221C173.325 373.279 173.43 373.526 173.575 373.95C175.093 379.083 176.134 382.481 176.667 384.147L179.247 376.974C179.442 376.433 179.65 376.062 179.867 375.872L179.832 375.889Z" fill="#F3F1DD"/>
<path d="M154.85 333.824C154.882 334.149 154.839 334.476 154.72 334.805C154.601 335.135 154.426 335.414 154.195 335.644C153.968 335.86 153.716 336.023 153.448 336.105C152.908 336.283 152.403 336.28 151.954 336.118L150.992 335.772L150.679 336.642C150.636 336.761 150.603 336.853 150.584 336.906C150.565 336.959 150.51 337.028 150.434 337.075C150.316 337.197 150.081 337.187 149.751 337.068C149.395 336.94 149.218 336.772 149.223 336.55C149.23 336.448 149.251 336.307 149.312 336.136L150.849 331.864C150.892 331.745 150.925 331.653 150.944 331.6C150.963 331.547 151.018 331.478 151.095 331.431C151.213 331.31 151.447 331.319 151.777 331.438L153.425 332.031C153.873 332.192 154.264 332.512 154.568 332.993C154.722 333.227 154.817 333.5 154.85 333.824ZM152.958 334.737C153.145 334.671 153.281 334.541 153.367 334.303C153.452 334.066 153.43 333.879 153.328 333.709C153.225 333.538 153.086 333.428 152.928 333.371L151.965 333.025L151.477 334.383L152.452 334.734C152.611 334.791 152.775 334.79 152.962 334.724L152.958 334.737Z" fill="#F3F1DD"/>
<path d="M158.597 339.18C158.609 339.393 158.601 339.539 158.573 339.618C158.502 339.816 158.287 339.917 157.923 339.935C157.741 339.944 157.595 339.936 157.489 339.898C157.384 339.86 157.314 339.805 157.267 339.729C157.22 339.653 157.195 339.599 157.175 339.532C157.155 339.421 157.128 338.875 157.071 337.916L156.834 337.831L155.853 337.493L155.54 338.363C155.497 338.482 155.464 338.574 155.445 338.627C155.426 338.679 155.371 338.749 155.295 338.796C155.177 338.917 154.942 338.907 154.613 338.789C154.257 338.661 154.079 338.492 154.084 338.271C154.091 338.169 154.112 338.028 154.174 337.856L155.711 333.585C155.753 333.466 155.787 333.374 155.806 333.321C155.825 333.268 155.879 333.198 155.956 333.152C156.074 333.03 156.309 333.04 156.638 333.159L158.299 333.756C158.748 333.918 159.139 334.237 159.442 334.719C159.596 334.953 159.679 335.221 159.724 335.55C159.756 335.874 159.713 336.201 159.594 336.531C159.386 337.111 159.017 337.514 158.497 337.759C158.516 338.079 158.545 338.536 158.588 339.162L158.597 339.18ZM156.35 336.153L157.339 336.508C157.484 336.561 157.661 336.565 157.849 336.498C158.037 336.432 158.173 336.302 158.258 336.065C158.344 335.827 158.321 335.641 158.219 335.47C158.117 335.299 157.977 335.189 157.819 335.132L156.844 334.781L156.355 336.139L156.35 336.153Z" fill="#F3F1DD"/>
<path d="M160.642 339.454L163.015 340.308C163.134 340.351 163.226 340.384 163.279 340.403C163.331 340.422 163.401 340.477 163.448 340.553C163.569 340.671 163.559 340.906 163.441 341.236C163.313 341.592 163.144 341.769 162.923 341.764C162.821 341.757 162.68 341.736 162.508 341.675L159.463 340.579C159.107 340.451 158.929 340.282 158.934 340.061C158.937 339.972 158.958 339.831 159.024 339.646L160.566 335.361C160.661 335.098 160.775 334.945 160.905 334.873C161.031 334.814 161.234 334.828 161.511 334.927L164.544 336.018C164.662 336.061 164.755 336.094 164.807 336.113C164.86 336.132 164.93 336.187 164.977 336.263C165.098 336.381 165.088 336.616 164.969 336.946C164.841 337.302 164.673 337.48 164.452 337.474C164.35 337.467 164.208 337.446 164.037 337.385L161.677 336.536L161.397 337.314L162.927 337.864C163.045 337.906 163.138 337.94 163.19 337.959C163.243 337.978 163.313 338.032 163.36 338.109C163.481 338.227 163.471 338.462 163.352 338.791C163.224 339.147 163.056 339.325 162.835 339.32C162.733 339.313 162.591 339.292 162.42 339.23L160.917 338.689L160.637 339.467L160.642 339.454Z" fill="#F3F1DD"/>
<path d="M167.765 341.881L167.948 341.828C168.157 341.784 168.308 341.779 168.374 341.803C168.532 341.859 168.651 342.066 168.731 342.423C168.784 342.65 168.784 342.814 168.746 342.919C168.708 343.025 168.635 343.103 168.546 343.145C168.456 343.187 168.353 343.225 168.237 343.258C168.126 343.277 168.015 343.297 167.917 343.321C167.819 343.345 167.61 343.345 167.331 343.334C167.052 343.323 166.775 343.267 166.524 343.177C166.274 343.087 166.046 342.975 165.819 342.819C165.592 342.663 165.38 342.468 165.173 342.214C164.966 341.961 164.795 341.691 164.66 341.405C164.525 341.118 164.458 340.766 164.45 340.376C164.441 339.985 164.508 339.593 164.65 339.197C164.793 338.802 164.991 338.456 165.242 338.174C165.492 337.892 165.758 337.69 166.045 337.555C166.332 337.42 166.636 337.32 166.952 337.27C167.552 337.174 168.119 337.214 168.62 337.394C168.857 337.479 169.093 337.609 169.32 337.765C169.542 337.934 169.703 338.066 169.806 338.193L169.953 338.365C170.026 338.451 170.073 338.527 170.112 338.586C170.206 338.739 170.229 338.881 170.177 339.026C170.125 339.171 170.024 339.284 169.867 339.391C169.569 339.597 169.333 339.675 169.174 339.619C169.082 339.585 168.969 339.485 168.84 339.305C168.691 339.058 168.434 338.861 168.078 338.733C167.749 338.614 167.376 338.614 166.966 338.72C166.765 338.782 166.59 338.897 166.413 339.057C166.236 339.217 166.098 339.435 166.003 339.699C165.909 339.963 165.881 340.206 165.91 340.455C165.94 340.703 166.015 340.909 166.13 341.085C166.366 341.423 166.64 341.655 166.983 341.779C167.141 341.835 167.295 341.861 167.455 341.874C167.614 341.887 167.72 341.88 167.8 341.864L167.765 341.881Z" fill="#F3F1DD"/>
<path d="M170.718 339.013C170.761 338.894 170.794 338.802 170.813 338.749C170.832 338.697 170.887 338.627 170.963 338.58C171.081 338.459 171.316 338.469 171.646 338.587C172.002 338.715 172.179 338.884 172.174 339.105C172.167 339.207 172.133 339.343 172.071 339.515L170.529 343.8C170.487 343.919 170.454 344.011 170.435 344.064C170.416 344.116 170.366 344.173 170.284 344.233C170.166 344.354 169.932 344.344 169.602 344.226C169.246 344.098 169.068 343.929 169.073 343.708C169.076 343.619 169.097 343.478 169.163 343.293L170.705 339.008L170.718 339.013Z" fill="#F3F1DD"/>
<path d="M171.276 343.92C171.201 343.715 171.192 343.533 171.239 343.401C171.287 343.269 171.454 343.136 171.754 343.005C171.928 342.934 172.084 342.915 172.229 342.968C172.374 343.02 172.524 343.223 172.698 343.568C172.73 343.684 172.807 343.801 172.911 343.928C173.014 344.054 173.119 344.137 173.237 344.179C173.712 344.35 174.02 344.238 174.158 343.855C174.201 343.737 174.168 343.621 174.065 343.494C173.961 343.368 173.822 343.258 173.638 343.147C173.455 343.037 173.263 342.908 173.067 342.748C172.872 342.588 172.694 342.42 172.534 342.244C172.374 342.067 172.278 341.839 172.231 341.554C172.185 341.269 172.219 340.968 172.337 340.639C172.498 340.191 172.812 339.857 173.265 339.632C173.718 339.408 174.236 339.416 174.816 339.625C175.12 339.734 175.396 339.878 175.618 340.047C175.84 340.216 175.996 340.362 176.06 340.474L176.205 340.69C176.311 340.892 176.343 341.053 176.305 341.158C176.267 341.264 176.154 341.372 175.968 341.514C175.707 341.702 175.475 341.768 175.29 341.701C175.185 341.663 175.072 341.563 174.952 341.401C174.939 341.396 174.926 341.347 174.888 341.289C174.863 341.235 174.837 341.181 174.807 341.14C174.725 341.037 174.595 340.945 174.436 340.888C174.278 340.831 174.119 340.818 173.972 340.855C173.838 340.896 173.734 340.978 173.682 341.123C173.63 341.268 173.658 341.397 173.756 341.537C173.855 341.676 173.994 341.786 174.182 341.884C174.371 341.981 174.563 342.11 174.763 342.256C174.964 342.403 175.159 342.563 175.311 342.721C175.475 342.885 175.576 343.1 175.623 343.385C175.674 343.656 175.636 343.97 175.517 344.3C175.398 344.629 175.223 344.909 175.001 345.112C174.779 345.315 174.537 345.451 174.261 345.515C173.739 345.641 173.257 345.616 172.782 345.445C172.545 345.36 172.317 345.248 172.13 345.106C171.938 344.977 171.781 344.832 171.683 344.692C171.463 344.434 171.34 344.197 171.287 344.014L171.249 343.911L171.276 343.92Z" fill="#F3F1DD"/>
<path d="M177.254 345.431L179.627 346.285C179.746 346.327 179.838 346.361 179.891 346.379C179.944 346.398 180.013 346.453 180.06 346.53C180.182 346.648 180.172 346.883 180.053 347.212C179.925 347.568 179.757 347.746 179.535 347.741C179.434 347.734 179.292 347.713 179.121 347.651L176.075 346.555C175.719 346.427 175.542 346.259 175.547 346.038C175.549 345.949 175.57 345.808 175.636 345.623L177.178 341.338C177.273 341.074 177.387 340.922 177.518 340.85C177.643 340.79 177.847 340.804 178.124 340.904L181.156 341.995C181.275 342.037 181.367 342.071 181.42 342.09C181.472 342.109 181.542 342.163 181.589 342.24C181.71 342.358 181.7 342.593 181.582 342.922C181.454 343.278 181.285 343.456 181.064 343.451C180.962 343.444 180.821 343.423 180.649 343.361L178.289 342.512L178.01 343.29L179.539 343.84C179.658 343.883 179.75 343.916 179.803 343.935C179.855 343.954 179.925 344.009 179.972 344.085C180.093 344.204 180.083 344.438 179.965 344.768C179.837 345.124 179.668 345.302 179.447 345.296C179.345 345.29 179.204 345.268 179.032 345.207L177.529 344.666L177.249 345.444L177.254 345.431Z" fill="#F3F1DD"/>
<path d="M182.078 347.418L184.174 348.172C184.346 348.234 184.46 348.29 184.525 348.358C184.59 348.426 184.623 348.498 184.616 348.6C184.614 348.688 184.585 348.812 184.537 348.943C184.49 349.075 184.447 349.194 184.379 349.259C184.324 349.328 184.261 349.38 184.186 349.383C184.074 349.402 183.92 349.376 183.762 349.32L180.993 348.323C180.637 348.195 180.459 348.027 180.465 347.806C180.467 347.717 180.488 347.576 180.554 347.391L182.096 343.106C182.139 342.987 182.172 342.895 182.191 342.842C182.21 342.79 182.265 342.72 182.341 342.673C182.459 342.552 182.694 342.562 183.023 342.68C183.379 342.808 183.557 342.977 183.552 343.198C183.545 343.3 183.511 343.436 183.449 343.608L182.073 347.431L182.078 347.418Z" fill="#F3F1DD"/>
<path d="M190.347 345.421C190.536 345.683 190.606 345.901 190.544 346.073C190.511 346.165 190.406 346.291 190.226 346.42L187.668 348.314L187.137 349.791C187.094 349.91 187.061 350.002 187.042 350.055C187.023 350.107 186.968 350.177 186.892 350.224C186.824 350.289 186.739 350.318 186.624 350.306C186.522 350.299 186.381 350.278 186.209 350.217C186.038 350.155 185.924 350.099 185.833 350.022C185.75 349.962 185.695 349.868 185.683 349.774C185.672 349.681 185.67 349.606 185.68 349.535C185.691 349.464 185.732 349.39 185.78 349.258L186.302 347.808L185.537 344.718C185.48 344.504 185.48 344.34 185.513 344.248C185.57 344.089 185.745 343.974 186.026 343.896C186.303 343.832 186.489 343.81 186.595 343.848C186.7 343.886 186.757 343.936 186.808 343.999C186.882 344.085 186.936 344.224 186.971 344.415L187.483 346.758L189.371 345.278C189.52 345.153 189.646 345.094 189.73 345.065C189.815 345.036 189.917 345.043 190.009 345.076C190.102 345.109 190.236 345.232 190.387 345.435L190.347 345.421Z" fill="#F3F1DD"/>
<path d="M151.981 344.901L152.164 344.847C152.374 344.804 152.525 344.798 152.59 344.822C152.749 344.879 152.868 345.086 152.948 345.442C153 345.669 153.001 345.833 152.963 345.939C152.925 346.044 152.852 346.122 152.763 346.165C152.673 346.207 152.57 346.244 152.454 346.277C152.343 346.297 152.232 346.316 152.134 346.34C152.035 346.365 151.827 346.364 151.548 346.353C151.269 346.342 150.991 346.287 150.741 346.197C150.49 346.107 150.262 345.995 150.036 345.839C149.809 345.683 149.596 345.487 149.39 345.234C149.183 344.981 149.012 344.711 148.877 344.424C148.742 344.137 148.675 343.786 148.666 343.395C148.658 343.005 148.725 342.612 148.867 342.217C149.009 341.821 149.208 341.476 149.459 341.193C149.709 340.911 149.975 340.709 150.262 340.574C150.549 340.439 150.853 340.34 151.169 340.29C151.769 340.193 152.336 340.233 152.837 340.413C153.074 340.499 153.31 340.628 153.537 340.784C153.759 340.954 153.92 341.086 154.023 341.213L154.17 341.384C154.243 341.47 154.29 341.547 154.329 341.605C154.422 341.758 154.446 341.901 154.393 342.046C154.341 342.191 154.241 342.304 154.083 342.411C153.786 342.616 153.549 342.695 153.391 342.638C153.299 342.605 153.186 342.505 153.057 342.324C152.908 342.077 152.651 341.88 152.295 341.752C151.966 341.634 151.593 341.634 151.183 341.739C150.982 341.801 150.807 341.917 150.63 342.076C150.453 342.236 150.315 342.455 150.22 342.718C150.125 342.982 150.097 343.225 150.127 343.474C150.157 343.723 150.232 343.929 150.347 344.104C150.583 344.442 150.857 344.675 151.199 344.798C151.358 344.855 151.512 344.881 151.671 344.893C151.831 344.906 151.937 344.9 152.017 344.884L151.981 344.901Z" fill="#F3F1DD"/>
<path d="M157.804 347.59C157.816 347.803 157.808 347.949 157.78 348.028C157.709 348.226 157.494 348.327 157.13 348.345C156.948 348.354 156.802 348.346 156.696 348.308C156.591 348.27 156.521 348.216 156.474 348.139C156.427 348.063 156.402 348.009 156.382 347.942C156.362 347.831 156.335 347.285 156.278 346.326L156.041 346.241L155.06 345.903L154.747 346.773C154.704 346.892 154.671 346.984 154.652 347.037C154.633 347.09 154.578 347.159 154.502 347.206C154.384 347.327 154.149 347.317 153.82 347.199C153.464 347.071 153.286 346.903 153.291 346.681C153.298 346.579 153.319 346.438 153.381 346.267L154.918 341.995C154.96 341.876 154.994 341.784 155.013 341.731C155.032 341.678 155.086 341.609 155.163 341.562C155.281 341.44 155.516 341.45 155.845 341.569L157.506 342.167C157.955 342.328 158.346 342.647 158.649 343.129C158.803 343.363 158.886 343.631 158.931 343.96C158.963 344.284 158.92 344.611 158.801 344.941C158.593 345.521 158.224 345.924 157.704 346.169C157.723 346.489 157.752 346.946 157.795 347.572L157.804 347.59ZM155.557 344.563L156.546 344.919C156.691 344.971 156.868 344.975 157.056 344.908C157.244 344.842 157.38 344.712 157.465 344.475C157.551 344.238 157.528 344.051 157.426 343.88C157.324 343.709 157.184 343.6 157.026 343.543L156.051 343.192L155.562 344.55L155.557 344.563Z" fill="#F3F1DD"/>
<path d="M163.142 344.672L163.679 349.72C163.71 349.924 163.702 350.071 163.668 350.163C163.602 350.347 163.395 350.467 163.04 350.503C162.835 350.533 162.676 350.521 162.584 350.487C162.492 350.454 162.409 350.395 162.357 350.331C162.31 350.255 162.285 350.201 162.264 350.134C162.257 350.072 162.246 349.979 162.231 349.854L162.134 348.881L159.998 348.113L159.304 348.801C159.213 348.887 159.15 348.939 159.105 348.982C159.059 349.026 158.992 349.046 158.908 349.075C158.823 349.104 158.734 349.102 158.629 349.064C158.523 349.026 158.405 348.939 158.267 348.785C158.016 348.531 157.928 348.321 157.995 348.136C158.028 348.044 158.115 347.926 158.269 347.788L161.898 344.239C161.994 344.14 162.119 344.081 162.266 344.044C162.413 344.008 162.542 344.024 162.673 344.071C162.95 344.171 163.114 344.379 163.151 344.69L163.142 344.672ZM161.859 346.295L160.965 347.165L161.993 347.535L161.859 346.295Z" fill="#F3F1DD"/>
<path d="M169.657 346.554C169.776 346.597 169.868 346.63 169.921 346.649C169.974 346.668 170.043 346.723 170.09 346.799C170.155 346.867 170.184 346.952 170.173 347.067C170.166 347.169 170.145 347.31 170.083 347.482C170.021 347.653 169.966 347.767 169.888 347.858C169.829 347.941 169.747 348.001 169.659 347.999C169.565 348.01 169.49 348.013 169.437 347.994C169.385 347.975 169.292 347.942 169.16 347.894L166.8 347.045L166.521 347.823L168.037 348.369C168.155 348.411 168.248 348.445 168.314 348.468C168.38 348.492 168.436 348.542 168.483 348.619C168.586 348.745 168.581 348.967 168.462 349.296C168.334 349.652 168.166 349.83 167.945 349.825C167.856 349.823 167.719 349.788 167.535 349.722L166.032 349.181L165.51 350.632C165.467 350.75 165.434 350.842 165.415 350.895C165.396 350.948 165.346 351.004 165.265 351.065C165.147 351.186 164.912 351.176 164.583 351.057C164.227 350.929 164.049 350.761 164.054 350.54C164.056 350.451 164.077 350.31 164.144 350.125L165.685 345.84C165.78 345.576 165.895 345.424 166.025 345.352C166.15 345.292 166.354 345.306 166.631 345.406L169.663 346.497L169.657 346.554Z" fill="#F3F1DD"/>
<path d="M171.2 347.11L175.485 348.651C175.643 348.708 175.77 348.769 175.822 348.832C175.887 348.9 175.916 348.985 175.914 349.074C175.912 349.162 175.887 349.272 175.835 349.418C175.783 349.563 175.749 349.655 175.681 349.72C175.627 349.789 175.568 349.828 175.488 349.844C175.377 349.863 175.24 349.829 175.069 349.767L173.592 349.236L172.197 353.112C172.155 353.231 172.121 353.323 172.102 353.376C172.083 353.429 172.033 353.485 171.965 353.55C171.897 353.615 171.812 353.644 171.711 353.637C171.609 353.63 171.468 353.609 171.309 353.552C171.151 353.495 171.024 353.435 170.946 353.362C170.868 353.289 170.816 353.226 170.805 353.133C170.794 353.039 170.791 352.964 170.81 352.911C170.829 352.858 170.863 352.766 170.905 352.648L172.295 348.784L170.819 348.253C170.66 348.196 170.533 348.136 170.482 348.072C170.417 348.004 170.383 347.933 170.39 347.831C170.392 347.742 170.417 347.632 170.469 347.487C170.521 347.342 170.554 347.25 170.622 347.185C170.677 347.115 170.736 347.077 170.816 347.061C170.927 347.041 171.064 347.075 171.235 347.137L171.2 347.11Z" fill="#F3F1DD"/>
<path d="M176.277 353.775L178.65 354.628C178.768 354.671 178.861 354.704 178.913 354.723C178.966 354.742 179.036 354.797 179.083 354.873C179.204 354.992 179.194 355.226 179.076 355.556C178.947 355.912 178.779 356.09 178.558 356.084C178.456 356.078 178.315 356.057 178.143 355.995L175.098 354.899C174.742 354.771 174.564 354.603 174.569 354.381C174.571 354.293 174.592 354.151 174.659 353.967L176.201 349.682C176.295 349.418 176.41 349.266 176.54 349.193C176.666 349.134 176.869 349.148 177.146 349.248L180.178 350.339C180.297 350.381 180.389 350.414 180.442 350.433C180.495 350.452 180.564 350.507 180.611 350.584C180.733 350.702 180.723 350.936 180.604 351.266C180.476 351.622 180.308 351.8 180.086 351.795C179.985 351.788 179.843 351.767 179.672 351.705L177.312 350.856L177.032 351.634L178.561 352.184C178.68 352.227 178.772 352.26 178.825 352.279C178.878 352.298 178.947 352.353 178.994 352.429C179.116 352.547 179.106 352.782 178.987 353.112C178.859 353.468 178.691 353.645 178.469 353.64C178.368 353.633 178.226 353.612 178.055 353.551L176.552 353.01L176.272 353.788L176.277 353.775Z" fill="#F3F1DD"/>
<path d="M182.051 351.012L183.475 351.525C184.213 351.79 184.773 352.304 185.145 353.049C185.517 353.793 185.557 354.552 185.277 355.33C184.997 356.108 184.479 356.681 183.721 357.049C182.968 357.403 182.191 357.451 181.413 357.171L180.002 356.664C179.686 356.55 179.512 356.413 179.494 356.257C179.466 356.128 179.501 355.947 179.577 355.736L181.119 351.451C181.161 351.333 181.194 351.24 181.213 351.188C181.232 351.135 181.282 351.078 181.364 351.018C181.482 350.897 181.716 350.907 182.046 351.025L182.051 351.012ZM183.087 355.748C183.49 355.581 183.758 355.29 183.91 354.868C184.062 354.446 184.04 354.051 183.849 353.67C183.659 353.289 183.368 353.02 182.986 352.883L182.248 352.617L181.199 355.531L181.951 355.801C182.32 355.934 182.697 355.921 183.1 355.753L183.087 355.748Z" fill="#F3F1DD"/>
<path d="M232.261 203.35C233.975 201.897 236.492 201.938 238.154 203.445C243.334 208.168 253.74 218.852 257.055 231.079C260.068 242.155 260.221 255.553 260.01 263.176C259.921 266.197 256.902 268.253 254.055 267.229L243.547 263.448C241.174 262.594 239.916 259.923 240.862 257.583C242.204 254.268 243.555 248.857 243.082 240.943C242.447 230.291 238.122 225.756 235.59 220.378C233.894 216.774 231.526 213.629 229.65 211.435C228.046 209.562 228.254 206.748 230.14 205.148L232.266 203.337L232.261 203.35Z" fill="#F3F1DD"/>
<path d="M260.548 221.658C260.921 220.496 262.366 220.123 263.255 220.964C265.864 223.436 270.364 228.064 271.662 231.866C273.689 237.778 274.61 244.736 274.98 248.428C275.097 249.632 273.919 250.548 272.785 250.14L265.798 247.626C265.125 247.384 264.684 246.749 264.705 246.027C264.804 242.772 264.897 233.781 263.105 230.649C261.799 228.362 260.695 227.042 260.002 226.361C259.565 225.921 259.394 225.278 259.595 224.68L260.561 221.662L260.548 221.658Z" fill="#F3F1DD"/>
</g>
<defs>
<clipPath id="clip0_141_13180">
<rect width="238" height="503" fill="white" transform="translate(170.291) rotate(19.7886)"/>
</clipPath>
</defs>
</svg>
