<svg width="340" height="474" viewBox="0 0 340 474" fill="none" xmlns="http://www.w3.org/2000/svg">
<g clip-path="url(#clip0_141_13018)">
<path d="M242.811 421.177C285.339 404.231 316.002 380.924 311.299 369.121C306.595 357.317 268.307 361.486 225.779 378.432C183.251 395.378 152.588 418.684 157.291 430.488C161.995 442.291 200.283 438.123 242.811 421.177Z" fill="#2D6076"/>
<path d="M227.866 167.98C221.336 156.131 203.263 153.105 183.943 149.968C164.624 146.83 162.557 138.627 157.267 132.909C151.977 127.191 149.4 116.181 149.4 116.181C149.4 116.181 140.816 93.1146 137.185 88.5432C133.554 83.9719 121.497 89.9775 111.615 93.9153L111.627 93.9473C102.092 97.6355 90.8483 101.422 91.3313 106.864C91.8393 112.68 101.472 135.329 101.472 135.329C101.472 135.329 107.172 145.094 107.264 152.883C107.356 160.672 111.498 168.049 99.6307 183.613C87.7633 199.177 76.7247 213.804 80.1325 226.897C83.5403 239.99 144.591 396.22 150.5 406.508C156.409 416.797 161.175 422.724 172.296 421.896C183.411 421.083 224.171 405.436 234.042 401.502L235.191 400.995L236.228 400.581C246.1 396.648 286.446 379.964 295.079 372.921C303.711 365.878 303.105 358.293 300.319 346.76C297.533 335.227 234.408 179.824 227.877 167.976L227.866 167.98Z" fill="#D2D4D3"/>
<path d="M234.713 403.092C233.708 403.493 185.223 422.676 172.402 423.624C159.883 424.551 154.591 417.149 148.985 407.372C143.319 397.506 82.0102 241.033 78.4515 227.344C74.8015 213.332 86.1869 198.393 98.2514 182.577C107.385 170.604 106.633 164.019 105.908 157.658C105.728 156.12 105.549 154.52 105.53 152.917C105.448 145.681 100.025 136.301 99.9759 136.209L99.8736 136.015C99.4774 135.083 90.1392 113.047 89.6123 107.029C89.0623 100.734 98.5678 97.0952 108.638 93.256L110.026 92.7276L110.98 92.3227C112.37 91.7687 113.806 91.172 115.252 90.571C125.218 86.439 134.617 82.5328 138.546 87.4804C142.303 92.2121 150.679 114.631 151.032 115.58L151.091 115.792C151.119 115.892 153.633 126.431 158.55 131.741C159.638 132.917 160.609 134.202 161.536 135.442C165.385 140.559 169.363 145.846 184.233 148.267C203.857 151.456 222.392 154.459 229.383 167.152C236.214 179.538 299.32 335.295 301.992 346.354C304.635 357.312 305.895 366.32 296.169 374.257C286.165 382.429 237.359 401.988 236.867 402.184L235.83 402.597L234.734 403.083L234.724 403.088L234.713 403.092ZM103.014 134.565C103.658 135.683 108.891 145.052 108.981 152.867C108.993 154.299 109.16 155.743 109.341 157.256C110.109 163.971 110.981 171.573 101.003 184.663C89.4681 199.785 78.5775 214.068 81.8069 226.465C85.3549 240.096 146.359 395.837 151.993 405.653C158.096 416.273 162.456 420.9 172.158 420.18C182.535 419.413 220.805 404.919 233.393 399.903L235.59 398.978C248.178 393.962 285.928 378.165 293.988 371.584C301.523 365.425 301.52 359.073 298.636 347.171C295.975 336.17 233.153 181.154 226.354 168.818C220.172 157.598 202.443 154.719 183.669 151.674C167.423 149.034 162.828 142.914 158.767 137.512C157.843 136.282 156.975 135.13 156.011 134.078C150.702 128.343 148.057 117.942 147.755 116.688C145.356 110.263 138.661 93.1804 135.843 89.6225C133.532 86.7168 123.738 90.7807 116.583 93.7556C115.667 94.1328 114.762 94.5057 113.868 94.8744L113.877 94.8957L112.251 95.5435L109.868 96.4682C102.643 99.2358 92.7226 103.015 93.0437 106.714C93.4448 111.235 100.337 128.252 103.01 134.555L103.014 134.565Z" fill="black"/>
<path d="M106.027 146.887L154.353 128.3C154.353 128.3 147.531 97.8689 140.119 87.5724C133.484 78.3535 118.293 84.3324 111.02 87.4161C101.49 91.4611 91.994 97.4245 90.4902 102.048C88.9865 106.672 90.4093 112.544 94.9133 123.194C99.4174 133.844 106.032 146.898 106.032 146.898L106.027 146.887Z" fill="#F09B5C"/>
<path d="M156.365 129.367L105.192 149.052L104.489 147.66C104.423 147.525 97.7919 134.429 93.3134 123.843C88.409 112.25 87.2426 106.4 88.8323 101.494C90.6583 95.8751 101.138 89.7054 110.33 85.8076C116.745 83.0904 133.8 75.8487 141.508 86.5471C149.05 97.0146 155.753 126.651 156.033 127.914L156.365 129.367ZM106.873 144.716L152.326 127.224C150.873 121.091 144.926 97.209 138.711 88.578C133.249 80.9968 120.66 85.171 111.686 88.9943C101.509 93.3099 93.2783 99.0289 92.1247 102.572C90.8379 106.527 92.0221 111.925 96.5006 122.511C100.08 130.966 105.064 141.078 106.873 144.716Z" fill="black"/>
<path d="M100.815 135.686L102.036 138.914L152.526 119.809L151.304 116.581L100.815 135.686Z" fill="black"/>
<path d="M98.6032 130.102L99.8245 133.33L150.314 114.225L149.093 110.997L98.6032 130.102Z" fill="black"/>
<path d="M102.847 94.5239L130.328 169.524C130.328 169.524 136.527 169.53 140.805 167.826C145.083 166.121 152.787 160.575 152.787 160.575L121.739 86.7607L110.577 88.8556L102.847 94.5239Z" fill="#3C87C9"/>
<path d="M141.444 169.428C136.909 171.235 130.595 171.25 130.321 171.248L129.118 171.244L100.777 93.8995L109.879 87.2265L122.794 84.8044L154.918 161.162L153.801 161.966C153.482 162.192 145.867 167.653 141.45 169.413L141.444 169.428ZM131.522 167.76C133.446 167.674 137.322 167.356 140.167 166.222C143.257 164.991 148.398 161.531 150.659 159.961L120.684 88.7161L111.287 90.4795L104.918 95.1472L131.532 167.756L131.522 167.76Z" fill="black"/>
<path d="M222.815 369.842C230.483 366.787 272.83 349.058 275.835 341.422C277.573 337.014 230.938 229.588 226.662 218.859C222.387 208.13 178.042 213.38 160.548 221.539C143.053 229.699 113.778 251.432 116.417 261.042C119.057 270.652 163.752 380.548 166.615 385.277C170.493 391.681 207.467 375.958 222.815 369.842Z" fill="#F3F1DD"/>
<path d="M213.847 375.298C184.917 386.826 168.557 391.797 165.145 386.16C161.734 380.523 117.102 270.007 114.758 261.48C111.698 250.379 142.626 227.975 159.819 219.96C167.135 216.549 179.37 213.507 191.755 212.027C205.202 210.408 216.434 210.886 222.571 213.319C225.515 214.487 227.436 216.136 228.263 218.209C229.191 220.538 232.119 227.421 236.165 236.953C272.228 321.858 278.482 339.389 277.435 342.047C276.506 344.411 272.833 348.723 251.825 358.89C239.939 364.641 227.31 369.896 223.449 371.435C222.048 371.993 220.476 372.62 218.758 373.316C217.079 373.985 215.436 374.652 213.843 375.287L213.847 375.298ZM163.67 222.066C162.825 222.403 162.032 222.744 161.279 223.093C141.692 232.223 116.045 253.141 118.09 260.574C120.423 269.043 164.817 378.96 168.102 384.375C168.271 384.642 170.18 386.853 186.76 381.621C196.985 378.389 208.835 373.605 217.485 370.121C219.207 369.435 220.786 368.794 222.197 368.231C255.02 355.152 272.414 344.345 274.17 340.946C273.907 334.624 245.285 267.211 233.008 238.298C228.953 228.744 226.021 221.851 225.08 219.489C224.616 218.325 223.352 217.33 221.322 216.529C209.947 212.022 179.236 215.876 163.696 222.068L163.67 222.066Z" fill="black"/>
<path d="M203.485 270.543C203.015 269.145 203.404 267.603 203.829 266.245C204.255 264.887 204.773 263.293 205.621 262.064C207.449 259.404 210.625 258.014 213.643 257.22C216.444 256.476 219.749 256.248 222.357 257.723C223.683 258.47 224.953 259.512 226.128 260.468C227.302 261.424 227.988 262.897 228.595 264.327C230.194 268.061 232.165 274.593 227.514 276.979C225.169 278.186 223.929 276.909 222.808 274.904C221.357 272.288 219.664 269.408 217.519 267.291C215.776 265.559 210.695 263.819 210.035 267.574C209.677 269.599 211.409 272.017 212.148 273.778C212.25 274.034 212.062 273.564 212.054 273.543C211.935 273.244 211.811 272.934 211.688 272.624C211.249 271.585 210.541 270.617 210.526 269.459C210.504 268.13 211.468 267.065 212.734 266.758C216.074 265.935 218.532 269.055 220.225 271.376C221.191 272.713 222.134 274.083 222.942 275.52C223.458 276.441 223.916 277.497 224.701 278.224C226.398 279.777 229.165 278.105 230.142 276.452C232.275 272.816 229.958 267.622 228.524 264.119C228.192 263.286 227.835 262.45 227.438 261.642C226.661 260.033 225.561 259.171 224.184 258.109C222.807 257.048 221.611 256.101 219.949 255.661C218.438 255.26 216.854 255.235 215.313 255.44C211.828 255.9 207.841 257.34 205.539 260.115C204.474 261.394 203.903 263.008 203.387 264.576C202.872 266.144 202.431 267.743 202.942 269.273C203.078 269.677 203.351 270.237 203.457 270.566L203.485 270.543Z" fill="black"/>
<path d="M200.85 271.022C193.446 271.162 184.959 270.11 178.877 275.283C176.054 277.683 174.159 280.952 171.376 283.361C170.15 284.419 168.691 285.298 167.038 285.35C165.21 285.397 163.793 284.389 162.34 283.42C159.584 281.571 156.298 281.506 153.062 281.594C149.825 281.683 145.645 282.296 143.102 284.746C140.023 287.719 141.539 294.322 145.585 295.83C149.341 297.231 152.997 292.876 155.99 291.275C157.798 290.307 159.889 290.019 161.869 290.604C163.69 291.129 164.865 292.679 166.54 293.461C166.232 293.311 166.33 292.281 166.008 292.125C164.602 291.459 163.587 290.217 162.175 289.566C160.654 288.859 158.754 288.787 157.145 289.23C153.854 290.145 151.543 293.084 148.394 294.327C146.031 295.268 142.952 294.229 142.082 291.641C141.212 289.053 142.654 286.546 144.734 285.173C147.574 283.311 151.247 282.887 154.562 282.903C157.878 282.92 160.498 283.151 163.199 284.985C164.387 285.787 165.617 286.572 167.092 286.666C168.757 286.77 170.269 285.994 171.538 284.98C174.184 282.849 175.997 279.811 178.444 277.461C184.683 271.471 193.394 272.495 201.359 272.33C201.199 272.332 201.009 270.984 200.827 270.994L200.85 271.022Z" fill="black"/>
<path d="M161.557 295.917C163.327 296.314 164.8 297.46 166.027 298.767C167.448 300.281 168.202 301.677 168.402 303.764C168.625 306.065 169.068 308.328 169.266 310.627C169.463 312.926 169.151 315.131 169.171 317.389C169.206 325.003 175.196 330.269 181.246 334.037C184.479 336.055 188.99 338.356 192.885 337.027C192.874 337.032 192.384 335.679 192.352 335.692C188.92 336.874 185.036 335.152 182.061 333.502C178.608 331.584 175.204 328.953 172.558 326.045C170.952 324.283 169.95 322.577 169.761 320.175C169.583 317.955 169.89 315.74 169.872 313.518C169.861 311.158 169.264 308.882 169.054 306.551C168.913 304.923 168.792 303.374 168.189 301.831C166.978 298.698 164.491 295.379 161.034 294.602C161.292 294.66 161.292 295.874 161.566 295.938L161.557 295.917Z" fill="black"/>
<path d="M195.397 334.282C198.578 336.481 202.871 335.155 205.824 333.173C207.221 332.232 208.531 331.166 209.997 330.334C211.332 329.579 213.043 328.773 214.549 329.473C214.246 329.334 214.335 328.283 214.017 328.138C212.545 327.461 210.885 328.209 209.563 328.934C208.05 329.772 206.713 330.862 205.277 331.831C202.324 333.813 198.042 335.135 194.85 332.94C195.172 333.158 195.055 334.046 195.382 334.275L195.397 334.282Z" fill="black"/>
<path d="M182.93 327.473C184.167 328.058 185.415 328.576 186.798 328.595C188.531 328.622 190.261 328.019 191.876 327.438C193.938 326.703 195.964 325.846 198.119 325.408C200.275 324.97 202.41 324.887 204.559 324.774C208.71 324.556 212.904 325.003 217.043 324.629C220.25 324.342 223.936 323.579 226.438 321.43C226.567 321.317 225.795 320.188 225.906 320.094C223.404 322.243 219.722 323.017 216.51 323.293C212.367 323.656 208.178 323.22 204.027 323.438C201.878 323.551 199.7 323.652 197.587 324.072C195.474 324.493 193.406 325.367 191.344 326.102C189.778 326.651 188.117 327.239 186.426 327.257C184.983 327.275 183.68 326.741 182.387 326.142C182.695 326.292 182.597 327.321 182.92 327.477L182.93 327.473Z" fill="black"/>
<path d="M177.687 308.375C174.404 311.986 175.576 317.104 177.104 321.25C178.464 324.943 180.249 329.421 183.779 331.531C183.454 331.338 183.575 330.399 183.246 330.195C179.962 328.235 177.919 323.947 176.943 320.411C175.968 316.874 175.455 312.757 178.23 309.707C178.378 309.549 177.561 308.524 177.698 308.371L177.687 308.375Z" fill="black"/>
<path d="M191.588 308.148C193.342 310.31 194.518 312.888 195.829 315.337C196.73 317.009 197.794 319.148 199.703 319.836C199.629 319.804 199.474 319.259 199.439 319.174C199.397 319.067 199.276 318.545 199.175 318.511C197.272 317.808 196.202 315.684 195.301 314.012C193.99 311.563 192.814 308.985 191.06 306.823C191.351 307.178 191.303 307.804 191.593 308.159L191.588 308.148Z" fill="black"/>
<path d="M205.294 301.114C207.557 300.262 210.071 300.944 212.246 301.737C214.537 302.57 216.698 303.702 218.855 304.824C224.643 307.842 228.136 313.125 230.91 318.843C230.761 318.531 230.589 317.943 230.395 317.55C227.679 311.945 224.275 306.701 218.654 303.666C216.46 302.484 214.218 301.335 211.885 300.457C209.552 299.578 207.074 298.894 204.757 299.768C204.757 299.768 205.268 301.112 205.289 301.103L205.294 301.114Z" fill="black"/>
<path d="M234.204 320.391C237.739 319.342 238.408 314.023 238.76 310.923C239.191 307.061 238.607 303.17 237.183 299.565C235.989 296.536 234.621 293.911 231.418 292.686C229.357 291.898 227.235 291.394 225.334 290.232C223.434 289.069 221.758 287.446 220.669 285.49C219.426 283.274 219.14 280.317 219.091 277.798C219.047 275.76 219.247 273.463 220.703 271.892C220.851 271.734 220.041 270.695 220.171 270.557C217.653 273.256 218.449 278.301 219.19 281.56C219.93 284.819 221.351 287.794 223.733 289.978C225.349 291.451 227.274 292.455 229.333 293.145C231.237 293.786 233.372 294.261 234.821 295.751C237.759 298.741 238.459 303.638 238.367 307.637C238.31 309.951 237.898 312.307 237.245 314.524C236.684 316.444 235.753 318.462 233.691 319.073C233.723 319.06 234.17 320.43 234.223 320.408L234.204 320.391Z" fill="black"/>
<path d="M188.179 298.844C187.395 299.986 187.231 301.784 187.653 303.09C187.804 303.563 188.008 304.014 188.198 304.458C188.291 304.693 188.402 304.909 188.588 305.095C188.963 305.478 189.511 305.607 190.043 305.605C191.148 305.611 192.423 305.202 193.334 304.566C193.938 304.152 194.447 303.565 194.662 302.86C194.907 302.045 194.598 301.363 194.296 300.604C193.994 299.845 193.606 299.307 192.954 298.823C192.346 298.384 191.583 297.995 190.818 298.003C190.854 298 191.061 298.612 191.082 298.665C191.108 298.729 191.299 299.334 191.346 299.328C192.462 299.329 193.688 300.103 194.343 300.969C194.421 301.074 194.494 301.194 194.562 301.303C193.85 300.138 194.16 300.014 194.221 300.634C194.251 300.956 194.207 301.283 194.109 301.595C193.915 302.167 193.517 302.661 193.05 303.045C192.273 303.676 191.182 304.049 190.203 304.204C189.737 304.278 189.235 304.293 188.786 304.162C188.589 304.104 188.391 304.01 188.226 303.877C188.15 303.809 188.073 303.74 188.007 303.667C187.663 303.272 187.884 302.986 188.185 304.302C187.886 302.96 187.946 301.339 188.743 300.167C188.79 300.098 188.509 299.579 188.479 299.504C188.449 299.429 188.164 298.899 188.215 298.842L188.179 298.844Z" fill="black"/>
<path d="M171.208 299.143C172.824 297.942 175.056 297.511 177.008 297.278C178.062 297.155 179.11 297.047 180.153 296.867C181.013 296.722 181.958 296.544 182.813 296.76C183.238 296.863 183.49 297.06 183.791 297.349C184.034 297.71 183.955 297.482 183.559 296.674C183.587 296.774 183.599 296.868 183.601 296.966C183.62 297.169 183.603 297.374 183.575 297.584C183.447 298.353 183.016 299.044 182.342 299.437C181.26 300.079 179.269 300.277 178.592 298.95L178.788 299.442C179.196 300.468 178.935 299.594 178.925 299.226C178.917 298.957 178.934 298.628 179.084 298.382C179.438 297.808 180.363 298.046 180.904 297.756L180.372 296.42C180.147 296.882 180.287 297.42 179.936 297.845C179.741 298.071 179.191 298.464 179.001 298.019L179.495 299.259C179.495 299.259 179.468 299.158 179.457 299.101C179.419 298.942 178.869 297.812 178.925 297.765C178.597 298.031 178.492 298.234 178.635 298.623C178.778 299.012 178.907 299.555 179.167 299.897C179.587 300.485 180.767 300.646 181.424 300.459C181.36 300.485 181.02 299.196 180.891 299.123C179.892 298.605 179.344 298.007 178.873 296.981L178.864 296.959C178.881 297.436 179.111 297.889 179.296 298.323C179.432 298.665 179.547 299.015 179.825 299.276C180.39 299.794 181.29 299.906 182.021 299.812C182.658 299.732 183.51 299.442 183.718 298.752C183.813 298.43 183.719 298.133 183.6 297.834C183.4 297.331 183.234 296.791 182.959 296.318L183.491 297.654C183.589 297.776 183.642 297.941 183.73 298.067C183.73 298.067 183.828 298.251 183.839 298.246C183.881 298.229 183.769 297.667 183.767 297.631C183.686 297.18 183.274 296.737 183.235 296.295C183.295 296.977 183.476 297.71 182.802 298.164C182.303 298.499 181.58 298.737 180.997 298.859C180.697 298.916 180.349 298.943 180.073 298.781C179.941 298.697 179.892 298.543 179.775 298.466C180.113 299.409 180.198 299.623 180.026 299.097C180.009 299.054 179.987 299.001 179.981 298.954C179.76 298.274 179.496 297.612 179.2 296.962C179.349 297.274 179.532 297.857 179.715 298.255C179.37 297.327 179.272 297.081 179.421 297.517C179.468 297.635 179.498 297.772 179.534 297.894C179.577 298 179.613 298.122 179.645 298.233C179.798 298.618 179.955 299.013 180.109 299.398C180.366 300.014 180.721 300.343 181.45 300.214C182.042 300.114 182.72 299.856 183.246 299.56C183.991 299.127 183.817 298.379 183.76 297.646L183.228 296.31C183.251 296.462 183.341 296.686 183.298 296.827C183.255 296.968 183.302 296.9 183.206 296.752C183.119 296.626 183.076 296.457 182.967 296.34C183.249 296.673 183.274 297.295 183.5 297.676C183.63 297.909 183.598 297.797 183.389 297.336C183.238 296.863 183.176 296.739 183.233 296.977C183.227 297.054 183.25 297.143 183.244 297.22C183.233 297.348 183.207 297.47 183.151 297.579C183.031 297.837 182.802 298.04 182.558 298.174C181.951 298.516 181.175 298.59 180.497 298.476C180.166 298.422 179.839 298.317 179.555 298.133C179.423 298.049 179.307 297.947 179.203 297.84C179.156 297.784 179.117 297.688 179.06 297.637L179.469 298.663C179.469 298.663 179.435 298.577 179.443 298.537C179.368 298.442 179.407 298.415 179.486 298.458L179.644 298.791C179.763 299.028 179.904 299.257 180.062 299.466C180.431 299.926 180.928 300.211 181.443 300.476L180.911 299.141C180.243 299.332 179.004 299.145 178.614 298.508L178.81 298.999C178.81 298.999 178.793 298.957 178.78 298.925L179.116 299.769C179.048 299.474 179.256 299.28 179.472 299.107L178.94 297.771C179.027 298.145 179.193 298.5 179.334 298.853C179.427 299.088 179.51 299.513 179.822 299.55C180.134 299.586 180.474 299.228 180.607 299.001C180.826 298.617 180.726 298.149 180.915 297.752C180.984 297.613 180.301 296.461 180.383 296.416C179.923 296.661 179.38 296.543 178.918 296.752C178.516 296.925 178.43 297.331 178.416 297.732C178.383 298.55 178.734 299.277 179.028 300.014C179.639 301.517 181.585 301.485 182.832 300.79C183.581 300.367 184.054 299.597 184.152 298.753C184.241 297.95 183.836 297.12 183.504 296.411C182.635 294.541 179.816 295.552 178.276 295.732C175.734 296.04 172.816 296.212 170.671 297.797C170.567 297.876 171.287 299.062 171.204 299.133L171.208 299.143Z" fill="black"/>
<path d="M198.009 291.2C198.564 290.447 198.769 289.498 199.358 288.768C199.369 288.764 199.273 288.555 199.281 288.576C199.217 288.416 199.158 288.266 199.094 288.106C199.03 287.946 198.97 287.796 198.907 287.636C198.898 287.614 198.819 287.448 198.83 287.443C198.241 288.173 198.026 289.126 197.481 289.875C197.471 289.88 197.567 290.089 197.558 290.068C197.622 290.228 197.682 290.378 197.745 290.538C197.809 290.698 197.869 290.848 197.933 291.008C197.941 291.029 198.02 291.196 198.009 291.2Z" fill="black"/>
<path d="M199.611 288.346C200.52 286.398 201.674 284.255 203.542 283.064C204.83 282.254 206.484 281.645 208.016 281.727C208.762 281.764 209.51 282.024 209.981 282.616C209.994 282.648 210.152 282.858 210.152 282.858C210.083 282.872 209.876 281.853 209.965 282.387C209.998 282.597 210.037 282.817 210.049 283.035C210.078 283.543 210.002 284.069 209.833 284.545C209.549 285.327 208.95 286.061 208.037 285.855C207.236 285.679 206.551 284.986 206.109 284.345C205.99 284.169 205.613 283.378 205.941 284.139C206.269 284.9 205.977 284.075 205.946 283.84C205.893 283.428 205.906 282.964 206.213 282.644C206.808 282.023 208.187 282.031 208.756 282.683L208.224 281.347C207.646 281.639 206.958 281.716 206.393 282.04C205.719 282.432 205.904 282.99 206.136 283.603C206.473 284.447 206.751 285.24 207.571 285.743C208.391 286.246 209.484 286.343 210.052 285.436C210.099 285.368 209.822 284.859 209.788 284.774C209.762 284.709 209.479 284.154 209.524 284.111C208.693 285.074 207.598 284.878 206.67 284.134C206.375 283.892 206.167 283.368 206.524 284.266C206.959 285.356 206.637 284.518 206.546 284.257C206.356 283.751 206.141 283.242 205.941 282.74C205.928 282.708 205.915 282.676 205.903 282.644C205.883 283.06 205.694 283.458 205.809 283.87C205.932 284.304 206.126 284.821 206.345 285.216C206.367 285.27 206.388 285.323 206.441 285.364C206.642 285.556 206.614 285.332 206.621 285.131C206.628 284.93 206.515 284.43 206.68 284.439C206.885 284.456 207.126 284.843 207.248 284.993C207.444 285.237 207.63 285.423 207.916 285.581L207.907 285.56C207.746 285.092 207.558 284.622 207.354 284.171C207.29 284.01 207.222 283.839 207.137 283.688C206.987 283.376 207.062 283.594 207.401 284.35L207.373 284.188C207.399 284.004 207.386 283.848 207.438 283.667C207.477 283.515 206.835 282.371 206.906 282.331C206.206 282.721 206.637 283.429 206.862 283.995C207.105 284.604 207.35 285.126 207.877 285.547C207.786 285.472 207.69 285.077 207.647 284.97C207.55 284.724 207.462 284.474 207.354 284.233C207.213 283.942 207.057 283.645 206.878 283.382C206.622 282.989 207.163 284.717 207.202 284.194C207.202 284.132 207.187 284.064 207.198 283.997C207.218 283.829 207.293 283.675 207.398 283.534C208.068 282.573 209.146 282.478 210.173 282.787L209.641 281.451C208.479 281.271 207.438 281.054 206.293 281.51C206.283 281.514 206.826 282.846 206.826 282.846C207.959 282.394 208.996 282.6 210.173 282.787C210.122 282.783 209.935 282.189 209.909 282.125C209.871 282.028 209.742 281.486 209.645 281.462C208.945 281.258 208.229 281.172 207.576 281.556C207.146 281.814 206.609 282.301 206.674 282.869C206.727 283.343 207.019 283.858 207.204 284.292C207.389 284.726 207.656 285.115 207.862 285.541L207.339 284.226C207.063 284.002 206.908 283.704 206.66 283.456L207.026 284.375C207.026 284.375 207.022 284.303 207.02 284.266C207.035 284.211 207.027 284.128 207.042 284.072C207.1 283.876 207.254 283.765 207.427 283.671L206.895 282.335C206.673 283.179 207.268 284.205 207.628 284.953C208.037 285.793 207.277 284.226 207.23 284.171C207.121 284.053 206.978 283.974 206.865 283.845C206.709 283.672 206.566 283.469 206.389 283.304C206.365 283.277 206.111 283.044 206.073 283.071C206.034 283.099 206.07 283.469 206.081 283.526C206.081 283.65 206.125 283.855 206.074 283.975C205.977 284.199 205.973 284.127 205.826 283.913L206.32 285.152C206.196 284.842 206.389 284.518 206.405 284.215C206.439 283.804 205.92 282.687 206.139 283.33C206.177 283.426 206.215 283.522 206.243 283.623C206.42 284.097 206.575 284.642 206.837 285.082C207.123 285.551 207.755 285.893 208.264 286.049C208.984 286.27 209.555 285.993 210.03 285.445L209.498 284.109C209.067 284.801 208.317 284.939 207.584 284.686C207.197 284.555 206.834 284.328 206.537 284.05C206.433 283.943 206.332 283.847 206.245 283.721C206.19 283.644 206.13 283.556 206.081 283.464C206.366 284.366 206.479 284.618 206.405 284.215C206.487 283.674 206.697 283.454 207.221 283.245C207.713 283.049 208.254 282.945 208.728 282.707C208.728 282.707 208.271 281.465 208.196 281.371C207.622 280.708 206.115 280.689 205.578 281.424C205.04 282.158 205.536 283.248 205.821 283.964C206.179 284.862 206.511 285.695 207.218 286.38C207.843 286.985 208.864 287.618 209.675 286.948C210.486 286.278 210.692 284.896 210.514 283.89C210.433 283.439 210.256 283.026 210.09 282.61C209.911 282.161 209.752 281.667 209.453 281.291C208.244 279.779 205.784 280.45 204.3 281.078C201.711 282.172 200.233 284.556 199.083 287.021C199.034 287.114 199.309 287.587 199.347 287.683C199.385 287.779 199.66 288.252 199.611 288.346Z" fill="black"/>
<path d="M186.532 311.908C186.579 311.963 186.611 312.013 186.658 312.068C186.704 312.124 186.754 312.154 186.818 312.19C186.818 312.19 186.833 312.197 186.848 312.203C186.858 312.199 186.858 312.199 186.869 312.194C186.886 312.175 186.903 312.156 186.905 312.13C186.929 312.096 186.942 312.066 186.965 312.032C186.985 311.987 187.015 311.938 187.008 311.891C187.008 311.891 187.004 311.881 187 311.87C186.974 311.806 186.944 311.731 186.919 311.667C186.791 311.346 186.668 311.036 186.54 310.716C186.514 310.652 186.485 310.577 186.459 310.513C186.442 310.47 186.397 310.451 186.367 310.438C186.307 310.412 186.252 310.397 186.192 310.371C186.181 310.376 186.162 310.359 186.137 310.356L186.107 310.344L186.111 310.354C186.102 310.395 186.104 310.431 186.111 310.478C186.121 310.598 186.153 310.709 186.196 310.816C186.311 311.104 186.421 311.382 186.536 311.671C186.592 311.81 186.647 311.949 186.707 312.098C186.728 312.152 186.749 312.205 186.777 312.243C186.768 312.222 186.76 312.201 186.756 312.19C186.739 312.147 186.717 312.094 186.7 312.051C186.636 311.891 186.577 311.741 186.513 311.581C186.449 311.421 186.389 311.271 186.326 311.111C186.3 311.047 186.274 310.983 186.249 310.918C186.236 310.886 186.228 310.865 186.215 310.833L186.223 310.854C186.223 310.854 186.211 310.822 186.202 310.801C186.117 310.587 186.202 310.801 186.445 311.41C186.692 312.03 186.768 312.222 186.688 312.019C186.658 311.944 186.654 311.872 186.649 311.799C186.641 311.778 186.647 311.763 186.649 311.737C186.649 311.737 186.641 311.716 186.647 311.701C186.647 311.701 186.639 311.679 186.658 311.696C186.669 311.692 186.699 311.705 186.714 311.711C186.729 311.718 186.754 311.72 186.769 311.726C186.825 311.741 186.88 311.757 186.929 311.786C186.964 311.81 186.994 311.823 187.011 311.866L187.002 311.844L186.559 310.733C186.538 310.679 186.517 310.626 186.495 310.573L186.487 310.551C186.487 310.551 186.485 310.639 186.465 310.684C186.452 310.714 186.429 310.748 186.416 310.778C186.399 310.797 186.392 310.812 186.375 310.831C186.364 310.835 186.339 310.895 186.324 310.889C186.313 310.893 186.279 310.869 186.264 310.863C186.249 310.856 186.234 310.85 186.215 310.833C186.185 310.82 186.161 310.792 186.138 310.764C186.091 310.709 186.055 310.649 185.997 310.598C186.006 310.619 186.014 310.64 186.018 310.651C186.036 310.694 186.057 310.747 186.074 310.79C186.138 310.95 186.197 311.1 186.261 311.26C186.325 311.421 186.385 311.57 186.449 311.73L186.491 311.837C186.491 311.837 186.517 311.901 186.529 311.933L186.532 311.908Z" fill="black"/>
<path d="M183.838 318.678C184.214 318.813 184.682 319.084 185.016 318.741C185.016 318.741 184.926 318.516 184.939 318.548C184.875 318.388 184.816 318.239 184.752 318.078C184.688 317.918 184.628 317.768 184.564 317.608C184.539 317.544 184.509 317.469 184.488 317.416C184.419 317.307 184.315 317.2 184.187 317.189C184.058 317.178 183.926 317.219 183.793 317.259C183.793 317.259 184.04 317.879 184.057 317.922C184.074 317.964 184.321 318.584 184.321 318.584C184.439 318.537 184.582 318.492 184.715 318.514C184.858 318.531 184.947 318.632 185.016 318.741L184.483 317.405C184.139 317.753 183.667 317.47 183.306 317.342C183.306 317.342 183.391 317.556 183.382 317.534C183.446 317.694 183.506 317.844 183.57 318.004C183.634 318.165 183.693 318.314 183.757 318.475L183.8 318.581C183.8 318.581 183.825 318.646 183.838 318.678Z" fill="black"/>
<path d="M212.751 316.531C212.859 316.711 213.075 316.848 213.28 316.741C213.377 316.703 213.441 316.615 213.48 316.526C213.505 316.466 213.52 316.41 213.531 316.344C213.527 316.333 213.533 316.319 213.529 316.308C213.529 316.308 213.521 316.286 213.516 316.276C213.452 316.115 213.393 315.966 213.329 315.806C213.244 315.592 213.154 315.367 213.069 315.154C213.044 315.09 213.014 315.015 212.988 314.951C212.988 314.951 212.984 314.94 212.98 314.929C212.971 314.908 212.946 314.906 212.931 314.899C212.886 314.88 212.83 314.865 212.773 314.876C212.649 314.876 212.516 314.916 212.441 315.008C212.394 315.076 212.377 315.157 212.374 315.245C212.374 315.307 212.4 315.371 212.41 315.429C212.479 315.6 212.551 315.781 212.619 315.952C212.734 316.241 212.849 316.529 212.968 316.829C212.981 316.861 212.981 316.861 212.972 316.839C212.964 316.818 212.951 316.786 212.943 316.764C212.892 316.636 212.836 316.497 212.785 316.369C212.674 316.091 212.568 315.824 212.457 315.546C212.253 315.095 213.081 317.205 212.926 316.722L212.934 316.743C212.875 316.593 212.886 316.403 213.029 316.297C213.134 316.218 213.275 316.199 213.397 316.224C213.437 316.233 213.493 316.248 213.525 316.297L213.516 316.276C213.495 316.222 213.474 316.169 213.448 316.105L213.005 314.993L212.997 314.972C212.997 314.972 213.003 315.019 212.99 315.049C212.982 315.09 212.977 315.141 212.958 315.186C212.926 315.26 212.889 315.324 212.823 315.376C212.712 315.47 212.566 315.478 212.432 315.42C212.338 315.371 212.272 315.298 212.216 315.221C212.225 315.243 212.233 315.264 212.237 315.275C212.255 315.317 212.276 315.371 212.293 315.414C212.357 315.574 212.416 315.723 212.48 315.884C212.544 316.044 212.604 316.194 212.668 316.354C212.693 316.418 212.723 316.493 212.744 316.546L212.751 316.531Z" fill="black"/>
<path d="M219.491 314.911C219.893 314.8 220.665 314.654 220.534 314.075C220.508 314.011 220.478 313.936 220.457 313.882C220.393 313.722 220.333 313.572 220.27 313.412C220.206 313.252 220.146 313.102 220.082 312.942C220.057 312.878 220.016 312.807 220.006 312.75C220.137 313.329 219.376 313.471 218.963 313.586C218.963 313.586 219.21 314.206 219.227 314.249C219.291 314.409 219.351 314.558 219.414 314.719C219.423 314.74 219.491 314.911 219.491 314.911Z" fill="black"/>
<path d="M212.037 306.809C212.469 306.959 212.999 307.045 213.369 306.7C213.369 306.7 213.28 306.475 213.293 306.507C213.229 306.347 213.169 306.198 213.105 306.037C213.041 305.877 212.982 305.727 212.918 305.567C212.909 305.546 212.83 305.379 212.841 305.375C212.471 305.72 211.952 305.63 211.509 305.484C211.509 305.484 211.594 305.698 211.586 305.677C211.65 305.837 211.709 305.987 211.773 306.147C211.837 306.307 211.897 306.457 211.961 306.617L212.003 306.724C212.003 306.724 212.029 306.788 212.042 306.82L212.037 306.809Z" fill="black"/>
<path d="M136.385 255.574C136.449 255.548 136.494 255.505 136.535 255.452C136.576 255.399 136.571 255.326 136.542 255.251L134.315 249.662C134.285 249.588 134.242 249.543 134.18 249.543C134.114 249.532 134.056 249.542 133.992 249.568L133.903 249.344L136.191 248.432L136.281 248.656C136.281 248.656 136.199 248.701 136.165 248.739C136.131 248.778 136.127 248.829 136.144 248.872C136.161 248.914 136.203 248.959 136.261 249.011C136.319 249.062 136.38 249.124 136.449 249.171L139.472 251.657L139.98 247.801C139.991 247.673 140 247.57 140.011 247.504C140.017 247.427 140.007 247.37 139.985 247.316C139.951 247.231 139.876 247.199 139.769 247.241L139.68 247.017L141.947 246.113L142.037 246.338C141.973 246.363 141.923 246.395 141.883 246.449C141.842 246.502 141.838 246.553 141.867 246.628L144.094 252.217C144.124 252.292 144.167 252.337 144.237 252.358C144.308 252.38 144.366 252.369 144.43 252.343L144.519 252.568L142.594 253.335L142.505 253.11C142.729 253.021 142.806 252.904 142.747 252.754L141.125 248.682L141.103 248.691L140.44 254.181L140.408 254.194L136.19 250.636L136.169 250.645L137.795 254.727C137.855 254.877 138.002 254.905 138.227 254.815L138.316 255.04L136.477 255.773L136.387 255.548L136.385 255.574Z" fill="black"/>
<path d="M144.855 252.198C144.954 252.134 145.018 252.046 145.048 251.935C145.078 251.824 145.089 251.696 145.107 251.553L145.475 245.883C145.486 245.755 145.501 245.638 145.505 245.524C145.51 245.411 145.501 245.328 145.476 245.264C145.442 245.178 145.388 245.138 145.322 245.127C145.256 245.116 145.183 245.12 145.11 245.125L145.021 244.9L147.096 244.073L147.185 244.298C147.14 244.34 147.085 244.387 147.04 244.43C146.999 244.483 146.988 244.55 147.026 244.646C147.052 244.71 147.088 244.77 147.146 244.821C147.204 244.873 147.28 244.941 147.376 245.027L151.921 248.998C151.998 249.067 152.081 249.12 152.158 249.127C152.235 249.133 152.342 249.153 152.445 249.161L152.534 249.386L150.374 250.247L150.284 250.022C150.284 250.022 150.355 249.982 150.385 249.933C150.43 249.89 150.434 249.839 150.417 249.796C150.383 249.71 150.308 249.616 150.193 249.514L149.361 248.793L146.366 249.986L146.272 251.026C146.255 251.231 146.274 251.372 146.3 251.437C146.334 251.522 146.43 251.546 146.59 251.482L146.68 251.706L144.936 252.401L144.847 252.176L144.855 252.198ZM148.569 248.081L146.635 246.214L146.387 248.95L148.569 248.081Z" fill="black"/>
<path d="M152.118 249.305C152.216 249.241 152.28 249.154 152.31 249.043C152.341 248.932 152.351 248.803 152.369 248.66L152.737 242.991C152.748 242.863 152.763 242.745 152.767 242.632C152.772 242.519 152.763 242.435 152.738 242.371C152.704 242.286 152.651 242.245 152.584 242.234C152.518 242.224 152.445 242.228 152.373 242.232L152.283 242.008L154.358 241.181L154.447 241.405C154.402 241.448 154.347 241.495 154.302 241.538C154.261 241.591 154.25 241.657 154.289 241.753C154.314 241.817 154.351 241.877 154.408 241.929C154.466 241.98 154.543 242.048 154.639 242.134L159.183 246.106C159.26 246.174 159.343 246.228 159.42 246.234C159.497 246.241 159.604 246.26 159.707 246.269L159.796 246.493L157.636 247.354L157.546 247.13C157.546 247.13 157.617 247.089 157.647 247.04C157.692 246.997 157.696 246.946 157.679 246.903C157.645 246.818 157.571 246.724 157.455 246.621L156.623 245.9L153.628 247.094L153.535 248.134C153.517 248.339 153.536 248.48 153.562 248.544C153.596 248.63 153.692 248.653 153.852 248.589L153.942 248.814L152.199 249.508L152.109 249.284L152.118 249.305ZM155.831 245.188L153.897 243.321L153.649 246.057L155.831 245.188Z" fill="black"/>
<path d="M161.748 243.647L161.97 243.645C162.043 243.765 162.154 243.857 162.299 243.91C162.444 243.964 162.596 244.003 162.776 244.018C162.951 244.022 163.133 244.012 163.321 243.986C163.505 243.95 163.674 243.908 163.834 243.844C164.326 243.648 164.649 243.432 164.818 243.204C164.988 242.975 164.988 242.666 164.83 242.27L163.263 238.338C163.217 238.22 163.129 238.156 163.007 238.13C162.885 238.104 162.776 238.111 162.691 238.145L162.601 237.92L164.933 236.991L165.022 237.216C164.883 237.271 164.778 237.35 164.708 237.453C164.637 237.555 164.622 237.673 164.665 237.779L166.274 241.819C166.402 242.139 166.448 242.443 166.403 242.733C166.358 243.024 166.257 243.299 166.07 243.547C165.888 243.805 165.642 244.027 165.336 244.223C165.03 244.42 164.669 244.601 164.262 244.763C164.005 244.865 163.762 244.937 163.546 244.986C163.33 245.035 163.109 245.073 162.932 245.095C162.755 245.116 162.588 245.133 162.442 245.141C162.297 245.15 162.182 245.171 162.107 245.201C162.021 245.235 161.968 245.318 161.942 245.44L161.709 245.384L161.765 243.628L161.748 243.647Z" fill="black"/>
<path d="M167.411 243.211C167.51 243.147 167.574 243.06 167.604 242.949C167.634 242.838 167.645 242.71 167.662 242.567L168.03 236.897C168.041 236.769 168.056 236.651 168.061 236.538C168.065 236.425 168.057 236.342 168.031 236.277C167.997 236.192 167.944 236.151 167.878 236.141C167.811 236.13 167.739 236.134 167.666 236.138L167.577 235.914L169.651 235.087L169.741 235.311C169.696 235.354 169.64 235.401 169.595 235.444C169.555 235.497 169.544 235.563 169.582 235.66C169.608 235.724 169.644 235.784 169.702 235.835C169.759 235.886 169.836 235.955 169.932 236.04L174.477 240.012C174.554 240.081 174.637 240.134 174.714 240.141C174.791 240.147 174.898 240.166 175 240.175L175.09 240.399L172.929 241.26L172.84 241.036C172.84 241.036 172.91 240.995 172.94 240.946C172.985 240.904 172.99 240.852 172.973 240.81C172.939 240.724 172.864 240.63 172.749 240.527L171.916 239.807L168.922 241L168.828 242.04C168.811 242.245 168.83 242.386 168.855 242.45C168.889 242.536 168.985 242.559 169.146 242.495L169.235 242.72L167.492 243.415L167.403 243.19L167.411 243.211ZM171.124 239.094L169.191 237.227L168.943 239.964L171.124 239.094Z" fill="black"/>
<path d="M175.433 240.014C175.646 239.929 175.724 239.812 175.664 239.662L173.445 234.094C173.386 233.945 173.249 233.913 173.035 233.998L172.946 233.773L174.978 232.964L175.067 233.188C174.853 233.273 174.776 233.391 174.836 233.54L177.054 239.108C177.114 239.258 177.251 239.29 177.465 239.205L177.554 239.429L175.522 240.239L175.433 240.014Z" fill="black"/>
<path d="M182.896 229.821C183.346 229.642 183.788 229.54 184.235 229.51C184.671 229.485 185.094 229.552 185.49 229.704C185.885 229.856 186.241 230.098 186.564 230.44C186.886 230.782 187.159 231.218 187.38 231.774C187.602 232.329 187.703 232.834 187.705 233.304C187.706 233.774 187.614 234.194 187.431 234.577C187.249 234.959 186.994 235.283 186.654 235.58C186.32 235.862 185.928 236.092 185.468 236.275L181.394 237.899L181.304 237.674C181.497 237.598 181.552 237.489 181.493 237.339L179.274 231.772C179.215 231.622 179.089 231.586 178.907 231.658L178.817 231.434L182.892 229.81L182.896 229.821ZM184.551 235.403C184.936 235.249 185.254 235.085 185.518 234.906C185.781 234.727 185.969 234.515 186.094 234.268C186.218 234.02 186.268 233.74 186.257 233.435C186.247 233.129 186.145 232.749 185.975 232.321C185.805 231.894 185.621 231.558 185.414 231.319C185.207 231.079 184.979 230.91 184.722 230.827C184.462 230.732 184.18 230.709 183.865 230.759C183.551 230.81 183.207 230.91 182.822 231.064L180.918 231.822L182.647 236.161L184.551 235.403Z" fill="black"/>
<path d="M188.761 227.744C188.579 227.816 188.524 227.925 188.583 228.074L190.048 231.751C190.252 232.264 190.553 232.552 190.962 232.612C191.37 232.673 191.889 232.577 192.531 232.321C193.173 232.066 193.616 231.778 193.871 231.453C194.126 231.129 194.145 230.712 193.941 230.199L192.476 226.523C192.417 226.374 192.269 226.346 192.023 226.444L191.934 226.219L193.891 225.439L193.98 225.664C193.788 225.741 193.711 225.858 193.77 226.008L195.21 229.62C195.401 230.1 195.495 230.521 195.483 230.897C195.468 231.263 195.356 231.604 195.165 231.903C194.975 232.202 194.668 232.46 194.281 232.701C193.89 232.932 193.432 233.151 192.886 233.369C192.341 233.586 191.858 233.741 191.415 233.843C190.972 233.946 190.579 233.954 190.224 233.872C189.87 233.791 189.568 233.626 189.302 233.361C189.039 233.106 188.813 232.726 188.621 232.245L187.182 228.633C187.123 228.483 186.975 228.455 186.751 228.545L186.661 228.32L188.672 227.519L188.761 227.744Z" fill="black"/>
<path d="M197.346 231.283C197.411 231.257 197.456 231.214 197.496 231.161C197.537 231.108 197.533 231.035 197.503 230.96L195.276 225.371C195.246 225.297 195.204 225.252 195.142 225.252C195.075 225.241 195.018 225.251 194.953 225.277L194.864 225.053L197.153 224.141L197.242 224.365C197.242 224.365 197.161 224.41 197.127 224.448C197.092 224.487 197.088 224.538 197.105 224.581C197.122 224.623 197.165 224.668 197.222 224.72C197.28 224.771 197.342 224.833 197.41 224.88L200.433 227.366L200.942 223.51C200.952 223.382 200.961 223.279 200.972 223.213C200.979 223.136 200.968 223.079 200.947 223.025C200.913 222.94 200.838 222.908 200.731 222.95L200.641 222.726L202.909 221.822L202.998 222.047C202.934 222.072 202.885 222.104 202.844 222.158C202.803 222.211 202.799 222.262 202.829 222.337L205.056 227.926C205.086 228.001 205.128 228.046 205.199 228.067C205.269 228.089 205.327 228.078 205.391 228.052L205.481 228.277L203.556 229.044L203.466 228.819C203.691 228.73 203.768 228.613 203.708 228.463L202.086 224.391L202.065 224.4L201.402 229.89L201.37 229.903L197.151 226.345L197.13 226.354L198.757 230.436C198.816 230.586 198.964 230.614 199.188 230.524L199.278 230.749L197.438 231.481L197.349 231.257L197.346 231.283Z" fill="black"/>
<path d="M191.404 353.901C191.519 354.19 191.519 354.5 191.394 354.809C191.27 355.119 191.017 355.356 190.643 355.505C190.226 355.671 189.848 355.686 189.497 355.553C189.147 355.42 188.887 355.14 188.72 354.723L187.264 351.068L188.248 350.676L189.377 353.508C189.494 353.399 189.631 353.308 189.813 353.235C189.995 353.163 190.136 353.144 190.296 353.142C190.457 353.14 190.608 353.178 190.754 353.232C190.903 353.296 191.036 353.38 191.144 353.497C191.253 353.615 191.345 353.752 191.404 353.901ZM190.934 354.089C190.857 353.896 190.729 353.762 190.535 353.678C190.34 353.595 190.15 353.584 189.968 353.656C189.787 353.729 189.645 353.872 189.562 354.066C189.478 354.26 189.467 354.45 189.544 354.643C189.62 354.835 189.748 354.97 189.949 355.038C190.143 355.122 190.329 355.122 190.522 355.045C190.714 354.969 190.849 354.841 190.922 354.651C191.006 354.456 191.006 354.27 190.934 354.089Z" fill="#DC5632"/>
<path d="M197.118 352.814L196.147 350.378C196.096 350.25 196.015 350.171 195.897 350.155C195.78 350.14 195.66 350.151 195.553 350.194C195.361 350.27 195.164 350.398 194.99 350.554C194.81 350.725 194.66 350.908 194.528 351.135C194.401 351.346 194.32 351.577 194.283 351.827C194.242 352.066 194.263 352.305 194.356 352.54L194.833 353.737L193.849 354.129L192.73 351.319C192.595 351.447 192.458 351.538 192.297 351.602C192.137 351.666 191.985 351.69 191.82 351.681C191.656 351.672 191.508 351.644 191.359 351.58C191.209 351.516 191.088 351.428 190.968 351.315C190.849 351.201 190.757 351.064 190.697 350.915C190.574 350.605 190.574 350.295 190.709 349.981C190.845 349.667 191.097 349.431 191.482 349.277C191.899 349.111 192.278 349.096 192.607 349.238C192.946 349.375 193.196 349.659 193.362 350.076L193.835 351.262C193.867 351.187 193.906 351.098 193.961 350.989C194.017 350.88 194.088 350.777 194.173 350.681C194.259 350.585 194.341 350.479 194.426 350.383C194.523 350.282 194.612 350.197 194.7 350.137C194.544 350.088 194.423 350 194.324 349.878C194.226 349.756 194.154 349.637 194.103 349.508C193.983 349.209 193.984 348.899 194.113 348.6C194.241 348.302 194.488 348.08 194.851 347.935C195.215 347.79 195.546 347.782 195.845 347.91C196.144 348.039 196.358 348.263 196.477 348.562C196.554 348.755 196.585 348.928 196.562 349.086C196.553 349.25 196.499 349.396 196.411 349.517C196.584 349.547 196.738 349.622 196.868 349.731C196.999 349.84 197.105 349.984 197.178 350.165L198.076 352.42L197.092 352.812L197.118 352.814ZM192.548 350.178C192.471 349.985 192.332 349.855 192.138 349.771C191.943 349.688 191.757 349.688 191.565 349.764C191.372 349.841 191.238 349.969 191.154 350.163C191.07 350.358 191.059 350.548 191.136 350.74C191.212 350.933 191.341 351.067 191.546 351.147C191.74 351.23 191.926 351.23 192.118 351.154C192.311 351.077 192.446 350.949 192.53 350.754C192.613 350.56 192.624 350.37 192.548 350.178ZM196.011 348.761C195.934 348.568 195.795 348.438 195.601 348.354C195.406 348.271 195.216 348.26 195.024 348.337C194.831 348.413 194.701 348.552 194.617 348.746C194.533 348.941 194.522 349.131 194.599 349.323C194.676 349.515 194.804 349.65 195.009 349.729C195.203 349.813 195.393 349.824 195.586 349.747C195.778 349.67 195.913 349.542 195.993 349.337C196.076 349.143 196.087 348.953 196.011 348.761Z" fill="#DC5632"/>
<path d="M203.342 350.334L202.763 348.881C202.665 348.635 202.533 348.428 202.36 348.274C202.187 348.12 201.997 347.985 201.781 347.91C201.565 347.835 201.337 347.79 201.089 347.79C200.841 347.79 200.588 347.841 200.342 347.939C200 348.075 199.735 348.28 199.557 348.549C199.379 348.818 199.3 349.085 199.314 349.339C199.432 349.23 199.59 349.13 199.783 349.053C200.146 348.908 200.482 348.911 200.811 349.052C201.14 349.193 201.373 349.435 201.5 349.756C201.564 349.916 201.596 350.089 201.591 350.264C201.587 350.439 201.542 350.606 201.477 350.756C201.402 350.909 201.312 351.057 201.188 351.18C201.064 351.304 200.916 351.4 200.745 351.468C200.317 351.639 199.909 351.64 199.51 351.478C199.11 351.315 198.803 350.979 198.594 350.456C198.488 350.188 198.439 349.911 198.437 349.627C198.451 349.349 198.5 349.069 198.631 348.806C198.762 348.544 198.933 348.29 199.179 348.068C199.426 347.846 199.747 347.656 200.132 347.503C200.57 347.328 200.963 347.258 201.323 347.288C201.671 347.323 201.97 347.389 202.214 347.503L201.988 346.936C201.847 346.584 201.598 346.361 201.224 346.262C200.865 346.17 200.459 346.208 200.02 346.383C199.582 346.558 199.26 346.809 199.063 347.123C198.87 347.448 198.791 347.777 198.829 348.121L197.823 348.521C197.796 348.235 197.829 347.974 197.912 347.718C197.996 347.462 198.129 347.236 198.313 347.014C198.497 346.792 198.716 346.593 198.979 346.414C199.242 346.235 199.54 346.079 199.85 345.956C200.213 345.811 200.558 345.711 200.887 345.666C201.212 345.611 201.526 345.622 201.8 345.686C202.084 345.746 202.332 345.871 202.549 346.044C202.767 346.217 202.942 346.469 203.07 346.79L204.33 349.953L203.346 350.345L203.342 350.334ZM201.023 349.958C200.942 349.755 200.795 349.603 200.59 349.524C200.385 349.445 200.18 349.427 199.977 349.508C199.773 349.589 199.621 349.737 199.542 349.942C199.463 350.147 199.445 350.352 199.526 350.555C199.607 350.758 199.754 350.91 199.959 350.989C200.164 351.068 200.369 351.086 200.573 351.005C200.776 350.924 200.928 350.776 201.007 350.571C201.087 350.366 201.104 350.161 201.023 349.958Z" fill="#DC5632"/>
<path d="M202.09 342.09C202.128 342.31 202.117 342.563 202.072 342.853C202.026 343.144 201.893 343.432 201.717 343.737C201.542 344.042 201.285 344.331 200.976 344.614C200.668 344.898 200.285 345.15 199.834 345.355C199.909 345.201 199.975 345.026 200.033 344.829C200.091 344.633 200.126 344.47 200.126 344.346C200.07 344.393 199.995 344.423 199.931 344.449C199.685 344.547 199.457 344.564 199.251 344.484C199.036 344.409 198.893 344.268 198.808 344.055C198.722 343.841 198.729 343.64 198.83 343.426C198.931 343.213 199.1 343.047 199.346 342.948C199.592 342.85 199.84 342.851 200.06 342.936C200.284 343.033 200.451 343.202 200.553 343.458C200.617 343.619 200.648 343.792 200.64 343.956C200.631 344.121 200.614 344.264 200.588 344.385C200.718 344.247 200.819 344.095 200.911 343.922C201.003 343.749 201.059 343.578 201.1 343.401C201.141 343.224 201.165 343.066 201.163 342.906C201.161 342.745 201.153 342.6 201.117 342.478L202.101 342.086L202.09 342.09ZM200.044 343.55C199.997 343.432 199.92 343.364 199.816 343.319C199.7 343.278 199.591 343.284 199.474 343.331C199.356 343.378 199.266 343.463 199.206 343.561C199.15 343.67 199.156 343.779 199.199 343.886C199.237 343.982 199.314 344.051 199.423 344.106C199.538 344.147 199.652 344.152 199.78 344.1C199.898 344.054 199.977 343.972 200.033 343.864C200.088 343.755 200.082 343.646 200.044 343.55Z" fill="#DC5632"/>
<path d="M208.465 348.293L207.107 344.884C206.975 344.552 206.783 344.319 206.511 344.167C206.24 344.015 205.909 344.024 205.513 344.181C205.299 344.267 205.13 344.371 205.01 344.505C204.886 344.629 204.796 344.777 204.736 344.937C204.676 345.097 204.652 345.255 204.658 345.426C204.664 345.597 204.687 345.749 204.736 345.902L203.731 346.303C203.617 345.767 203.701 345.263 203.971 344.821C204.237 344.368 204.695 344.024 205.358 343.76C206.021 343.496 206.579 343.435 207.068 343.574C207.557 343.713 207.939 344.081 208.191 344.712L209.464 347.907L208.48 348.299L208.465 348.293Z" fill="#DC5632"/>
<path d="M214.54 345.872L213.177 342.453C213.045 342.121 212.795 341.899 212.443 341.792C212.09 341.685 211.695 341.718 211.278 341.885C210.86 342.051 210.512 342.326 210.316 342.676C210.111 343.031 210.099 343.406 210.261 343.813C210.355 344.048 210.444 344.272 210.562 344.473C210.668 344.678 210.775 344.883 210.866 345.082C210.969 345.277 211.069 345.497 211.165 345.706C211.265 345.926 211.354 346.151 211.441 346.401C211.57 346.288 211.69 346.153 211.805 346.008C211.932 345.859 212.037 345.718 212.133 345.556C212.23 345.393 212.315 345.235 212.401 345.077C212.476 344.924 212.536 344.763 212.575 344.612C212.502 344.678 212.425 344.733 212.318 344.776C211.976 344.912 211.655 344.916 211.352 344.777C211.049 344.638 210.835 344.413 210.712 344.104C210.588 343.794 210.593 343.495 210.733 343.191C210.872 342.888 211.097 342.675 211.428 342.543C211.76 342.411 212.08 342.407 212.397 342.516C212.713 342.625 212.937 342.845 213.069 343.177C213.158 343.401 213.199 343.658 213.205 343.952C213.2 344.251 213.152 344.568 213.041 344.909C212.929 345.251 212.749 345.608 212.507 345.964C212.264 346.321 211.939 346.686 211.526 347.048L210.692 347.381C210.577 347.03 210.464 346.716 210.343 346.443C210.221 346.169 210.098 345.921 209.982 345.694C209.867 345.468 209.748 345.231 209.637 345.015C209.526 344.799 209.418 344.557 209.32 344.312C209.201 344.012 209.169 343.715 209.214 343.425C209.26 343.134 209.376 342.865 209.547 342.611C209.718 342.357 209.95 342.129 210.215 341.924C210.491 341.715 210.789 341.559 211.109 341.431C211.43 341.304 211.764 341.208 212.082 341.168C212.407 341.112 212.707 341.117 212.98 341.181C213.254 341.246 213.504 341.344 213.721 341.517C213.939 341.691 214.106 341.922 214.225 342.221L215.515 345.459L214.531 345.851L214.54 345.872ZM212.575 343.398C212.498 343.206 212.37 343.071 212.176 342.988C211.981 342.904 211.795 342.904 211.603 342.981C211.41 343.057 211.275 343.186 211.192 343.38C211.108 343.574 211.108 343.76 211.184 343.952C211.261 344.145 211.389 344.279 211.584 344.363C211.778 344.447 211.964 344.447 212.156 344.37C212.349 344.293 212.484 344.165 212.567 343.971C212.651 343.777 212.651 343.591 212.575 343.398Z" fill="#DC5632"/>
<path d="M216.807 344.968L216.028 343.013C215.862 342.596 215.858 342.213 216.01 341.88C216.158 341.536 216.454 341.282 216.882 341.112C217.267 340.959 217.613 340.957 217.916 341.096C218.219 341.235 218.433 341.46 218.548 341.748C218.612 341.909 218.635 342.06 218.637 342.22C218.639 342.381 218.6 342.532 218.536 342.682C218.471 342.831 218.383 342.953 218.266 343.062C218.148 343.171 218.011 343.262 217.851 343.326C217.679 343.395 217.506 343.426 217.346 343.428L217.606 344.08L220.44 342.951L219.282 340.044C219.145 339.702 218.896 339.48 218.539 339.362C218.176 339.259 217.769 339.297 217.31 339.48C216.828 339.672 216.501 339.939 216.316 340.285C216.143 340.626 216.078 340.962 216.133 341.286L215.128 341.687C215.09 341.405 215.118 341.134 215.187 340.871C215.266 340.604 215.395 340.367 215.579 340.145C215.763 339.923 215.977 339.714 216.251 339.53C216.521 339.336 216.808 339.185 217.129 339.057C217.449 338.929 217.772 338.838 218.102 338.793C218.427 338.738 218.741 338.749 219.031 338.794C219.322 338.839 219.581 338.959 219.813 339.139C220.042 339.308 220.217 339.56 220.34 339.87L221.609 343.055L216.818 344.964L216.807 344.968ZM218.088 341.931C218.011 341.739 217.883 341.604 217.689 341.521C217.495 341.437 217.309 341.437 217.116 341.514C216.924 341.591 216.789 341.719 216.705 341.913C216.621 342.107 216.621 342.293 216.698 342.486C216.774 342.678 216.902 342.813 217.097 342.896C217.291 342.98 217.477 342.98 217.67 342.903C217.862 342.826 217.997 342.698 218.081 342.504C218.164 342.31 218.165 342.124 218.088 341.931Z" fill="#DC5632"/>
<path d="M226.475 341.115L225.108 337.685C224.964 337.322 224.725 337.095 224.381 337.009C224.037 336.923 223.662 336.949 223.245 337.115C222.828 337.281 222.518 337.529 222.314 337.857C222.111 338.186 222.087 338.53 222.231 338.893L223.001 338.587L223.129 338.907C222.821 339.191 222.735 339.535 222.892 339.93L223.791 342.185L222.807 342.577L221.951 340.429C221.917 340.344 221.9 340.239 221.905 340.126C221.909 340.012 221.924 339.895 221.969 339.79C222.01 339.675 222.07 339.577 222.162 339.466C222.243 339.359 222.355 339.265 222.485 339.188L221.32 339.653C221.213 339.324 221.188 339.012 221.24 338.706C221.281 338.405 221.393 338.126 221.553 337.876C221.714 337.626 221.92 337.395 222.189 337.201C222.444 337.001 222.752 336.841 223.084 336.709C223.383 336.589 223.695 336.502 224.01 336.451C224.324 336.4 224.619 336.394 224.899 336.444C225.179 336.493 225.418 336.596 225.642 336.754C225.866 336.912 226.033 337.143 226.148 337.432L227.468 340.745L226.484 341.137L226.475 341.115Z" fill="#DC5632"/>
<path d="M231.243 338.027C231.358 338.316 231.357 338.625 231.233 338.935C231.109 339.245 230.856 339.482 230.482 339.631C230.064 339.797 229.686 339.812 229.336 339.679C228.985 339.546 228.725 339.266 228.559 338.849L226.042 332.533L225.393 333.733C225.26 333.65 225.113 333.56 224.938 333.494C224.769 333.412 224.587 333.361 224.395 333.314C224.203 333.266 223.993 333.238 223.782 333.236C223.57 333.234 223.352 333.246 223.132 333.285L223.845 332.431C224.108 332.437 224.367 332.495 224.617 332.594C224.86 332.707 225.067 332.823 225.229 332.981L225.74 332.084L226.83 331.65L229.219 337.645C229.337 337.536 229.474 337.444 229.656 337.372C229.838 337.299 229.979 337.28 230.139 337.278C230.299 337.276 230.451 337.315 230.596 337.368C230.746 337.433 230.878 337.516 230.987 337.634C231.096 337.751 231.188 337.888 231.247 338.038L231.243 338.027ZM230.772 338.215C230.696 338.022 230.568 337.888 230.373 337.804C230.179 337.721 229.989 337.71 229.807 337.782C229.625 337.855 229.484 337.998 229.4 338.192C229.316 338.386 229.305 338.576 229.382 338.769C229.459 338.961 229.587 339.096 229.788 339.164C229.982 339.248 230.168 339.248 230.36 339.171C230.553 339.095 230.688 338.967 230.761 338.776C230.845 338.582 230.845 338.396 230.772 338.215Z" fill="#DC5632"/>
<path d="M236.892 336.965L234.458 336.424L234.518 336.574C234.671 336.958 234.673 337.304 234.523 337.612C234.373 337.919 234.084 338.158 233.656 338.329C233.292 338.474 232.961 338.482 232.651 338.358C232.341 338.233 232.132 338.02 232.009 337.71C231.877 337.378 231.888 337.064 232.053 336.763C232.218 336.462 232.479 336.247 232.843 336.102C232.928 336.068 232.993 336.042 233.035 336.025C233.078 336.008 233.121 335.991 233.153 335.978L232.885 335.305C232.75 335.433 232.613 335.525 232.453 335.589C232.292 335.653 232.14 335.676 231.976 335.667C231.811 335.659 231.664 335.631 231.514 335.566C231.365 335.502 231.243 335.414 231.123 335.301C231.004 335.188 230.912 335.051 230.853 334.901C230.729 334.591 230.73 334.282 230.865 333.968C231 333.654 231.253 333.417 231.638 333.263C232.055 333.097 232.433 333.083 232.762 333.224C233.102 333.361 233.351 333.646 233.517 334.062L234.229 335.847L236.63 336.339L234.923 332.053L235.907 331.661L237.861 336.566L236.888 336.954L236.892 336.965ZM232.696 334.179C232.62 333.987 232.492 333.852 232.297 333.768C232.103 333.685 231.917 333.685 231.724 333.761C231.532 333.838 231.397 333.966 231.313 334.16C231.23 334.355 231.229 334.541 231.306 334.733C231.383 334.925 231.511 335.06 231.705 335.144C231.9 335.227 232.085 335.227 232.278 335.151C232.471 335.074 232.605 334.946 232.689 334.751C232.773 334.557 232.773 334.371 232.696 334.179ZM233.351 336.506C233.351 336.506 233.251 336.534 233.182 336.549C233.118 336.574 233.043 336.604 232.979 336.63C232.797 336.702 232.669 336.815 232.572 336.977C232.486 337.135 232.482 337.311 232.559 337.503C232.627 337.674 232.735 337.792 232.881 337.845C233.03 337.909 233.176 337.901 233.315 337.846C233.443 337.794 233.544 337.705 233.606 337.581C233.668 337.457 233.666 337.297 233.598 337.126L233.351 336.506Z" fill="#DC5632"/>
<path d="M235.629 328.725C235.668 328.945 235.656 329.197 235.611 329.488C235.566 329.778 235.433 330.067 235.257 330.372C235.081 330.677 234.824 330.965 234.516 331.249C234.208 331.533 233.825 331.785 233.373 331.989C233.448 331.836 233.515 331.66 233.573 331.464C233.631 331.267 233.665 331.105 233.666 330.981C233.61 331.028 233.535 331.058 233.471 331.084C233.225 331.182 232.996 331.198 232.791 331.119C232.575 331.044 232.432 330.903 232.347 330.689C232.262 330.476 232.269 330.275 232.369 330.061C232.47 329.848 232.639 329.681 232.885 329.583C233.131 329.485 233.379 329.485 233.599 329.571C233.824 329.668 233.99 329.837 234.092 330.093C234.156 330.253 234.188 330.426 234.179 330.591C234.17 330.755 234.153 330.898 234.127 331.02C234.258 330.881 234.359 330.73 234.451 330.557C234.543 330.384 234.599 330.213 234.64 330.036C234.681 329.859 234.704 329.701 234.702 329.54C234.701 329.38 234.692 329.235 234.656 329.113L235.64 328.721L235.629 328.725ZM233.583 330.184C233.537 330.067 233.46 329.998 233.355 329.953C233.24 329.913 233.131 329.919 233.013 329.966C232.895 330.013 232.806 330.098 232.746 330.196C232.69 330.305 232.696 330.414 232.739 330.521C232.777 330.617 232.854 330.686 232.963 330.741C233.078 330.782 233.191 330.786 233.32 330.735C233.437 330.688 233.517 330.607 233.572 330.498C233.628 330.389 233.622 330.28 233.583 330.184Z" fill="#DC5632"/>
<path d="M200.084 366.788L198.819 363.614C198.751 363.443 198.64 363.351 198.493 363.323C198.345 363.295 198.193 363.319 198.044 363.379C197.787 363.481 197.541 363.641 197.305 363.858C197.07 364.076 196.873 364.328 196.71 364.603C196.547 364.879 196.433 365.184 196.386 365.5C196.338 365.816 196.363 366.128 196.483 366.428L197.104 367.988L195.832 368.495L194.375 364.84C194.206 365.007 194.02 365.13 193.817 365.211C193.614 365.292 193.404 365.326 193.192 365.324C192.981 365.322 192.778 365.279 192.594 365.191C192.415 365.114 192.244 364.996 192.086 364.849C191.939 364.697 191.819 364.521 191.738 364.318C191.576 363.912 191.579 363.515 191.749 363.101C191.923 362.697 192.259 362.39 192.751 362.194C193.296 361.976 193.783 361.956 194.217 362.142C194.651 362.328 194.981 362.692 195.194 363.226L195.812 364.775C195.846 364.675 195.898 364.556 195.981 364.423C196.065 364.291 196.159 364.154 196.253 364.018C196.348 363.881 196.472 363.757 196.592 363.623C196.716 363.499 196.834 363.39 196.949 363.307C196.748 363.238 196.582 363.131 196.456 362.971C196.33 362.811 196.23 362.652 196.166 362.492C196.008 362.097 196.016 361.71 196.189 361.306C196.357 360.918 196.671 360.619 197.142 360.432C197.613 360.244 198.042 360.234 198.435 360.411C198.824 360.579 199.11 360.861 199.268 361.256C199.366 361.502 199.408 361.733 199.38 361.942C199.352 362.151 199.294 362.348 199.186 362.514C199.415 362.56 199.614 362.654 199.793 362.793C199.962 362.936 200.096 363.118 200.19 363.353L201.361 366.292L200.088 366.799L200.084 366.788ZM194.13 363.353C194.032 363.107 193.861 362.928 193.607 362.818C193.353 362.709 193.105 362.709 192.859 362.807C192.613 362.905 192.433 363.076 192.323 363.33C192.214 363.584 192.214 363.832 192.312 364.078C192.409 364.323 192.58 364.503 192.834 364.612C193.089 364.721 193.337 364.722 193.583 364.624C193.828 364.526 194.008 364.355 194.118 364.101C194.227 363.847 194.228 363.599 194.13 363.353ZM198.637 361.508C198.539 361.262 198.368 361.082 198.114 360.973C197.86 360.864 197.612 360.864 197.366 360.962C197.12 361.06 196.94 361.23 196.83 361.484C196.721 361.739 196.721 361.986 196.818 362.232C196.916 362.478 197.087 362.658 197.341 362.767C197.596 362.876 197.843 362.876 198.089 362.778C198.335 362.68 198.515 362.509 198.625 362.255C198.734 362.001 198.735 361.753 198.637 361.508Z" fill="black"/>
<path d="M208.501 363.435L205.336 362.739L205.413 362.932C205.613 363.434 205.616 363.878 205.417 364.28C205.217 364.681 204.845 364.991 204.289 365.212C203.818 365.4 203.389 365.41 202.978 365.251C202.579 365.089 202.293 364.806 202.131 364.4C201.957 363.962 201.981 363.556 202.184 363.165C202.392 362.785 202.733 362.489 203.214 362.297C203.321 362.254 203.407 362.22 203.46 362.199C203.514 362.178 203.567 362.156 203.61 362.139L203.261 361.263C203.091 361.43 202.905 361.553 202.702 361.634C202.499 361.715 202.289 361.749 202.078 361.747C201.866 361.744 201.663 361.702 201.479 361.614C201.3 361.537 201.129 361.419 200.971 361.271C200.824 361.12 200.705 360.944 200.624 360.741C200.462 360.335 200.465 359.938 200.634 359.524C200.808 359.12 201.144 358.813 201.636 358.617C202.181 358.399 202.669 358.378 203.102 358.565C203.536 358.751 203.867 359.115 204.08 359.649L205.008 361.978L208.126 362.618L205.899 357.029L207.172 356.522L209.714 362.902L208.452 363.405L208.501 363.435ZM203.039 359.804C202.941 359.558 202.77 359.378 202.516 359.269C202.261 359.16 202.013 359.16 201.767 359.258C201.522 359.356 201.342 359.526 201.232 359.781C201.123 360.035 201.122 360.282 201.22 360.528C201.318 360.774 201.489 360.954 201.743 361.063C201.997 361.172 202.245 361.172 202.491 361.074C202.737 360.976 202.917 360.806 203.027 360.551C203.136 360.297 203.136 360.05 203.039 359.804ZM203.897 362.83C203.844 362.851 203.76 362.859 203.675 362.894C203.589 362.928 203.493 362.966 203.407 363C203.172 363.094 202.999 363.25 202.883 363.457C202.767 363.664 202.763 363.901 202.861 364.147C202.95 364.371 203.097 364.523 203.287 364.596C203.477 364.669 203.678 364.675 203.86 364.603C204.031 364.535 204.16 364.422 204.241 364.253C204.327 364.095 204.319 363.888 204.225 363.653L203.902 362.84L203.897 362.83Z" fill="black"/>
<path d="M215.153 360.784L213.386 356.349C213.216 355.922 212.958 355.616 212.607 355.421C212.257 355.226 211.827 355.237 211.303 355.445C211.025 355.556 210.807 355.693 210.653 355.866C210.494 356.028 210.374 356.224 210.306 356.425C210.237 356.626 210.198 356.839 210.2 357.061C210.202 357.284 210.235 357.493 210.301 357.69L208.997 358.21C208.85 357.5 208.952 356.853 209.305 356.279C209.655 355.694 210.252 355.233 211.108 354.892C211.963 354.551 212.688 354.473 213.335 354.636C213.983 354.799 214.467 355.299 214.795 356.122L216.456 360.29L215.183 360.797L215.153 360.784Z" fill="black"/>
<path d="M221.358 356.763C221.512 357.147 221.505 357.534 221.335 357.948C221.172 358.348 220.847 358.651 220.355 358.847C219.809 359.064 219.311 359.089 218.867 358.907C218.412 358.729 218.081 358.366 217.864 357.821L215.76 352.542C215.658 352.285 215.648 352.042 215.719 351.815C215.79 351.589 215.882 351.354 215.991 351.1C216.094 350.861 216.184 350.59 216.241 350.295C216.301 350.011 216.252 349.671 216.107 349.308C216.048 349.158 215.956 349.021 215.828 348.887C215.7 348.752 215.555 348.636 215.386 348.555C215.217 348.474 215.021 348.416 214.794 348.407C214.578 348.394 214.347 348.436 214.112 348.53C213.877 348.624 213.676 348.741 213.534 348.884C213.393 349.027 213.307 349.123 213.275 349.198C213.523 349.074 213.767 349.002 214 348.996C214.233 348.99 214.453 349.013 214.654 349.082C214.855 349.15 215.032 349.253 215.18 349.405C215.323 349.546 215.442 349.721 215.514 349.903C215.587 350.085 215.621 350.294 215.614 350.495C215.607 350.696 215.56 350.888 215.472 351.072C215.395 351.251 215.273 351.411 215.131 351.554C214.99 351.697 214.81 351.806 214.607 351.887C214.404 351.968 214.198 352.012 213.976 352.014C213.758 352.027 213.544 351.988 213.333 351.924C213.132 351.855 212.936 351.736 212.758 351.571C212.581 351.406 212.449 351.199 212.347 350.942C212.245 350.686 212.202 350.393 212.211 350.105C212.231 349.812 212.306 349.534 212.444 349.257C212.581 348.979 212.778 348.727 213.031 348.491C213.283 348.254 213.604 348.064 213.989 347.91C214.77 347.599 215.452 347.538 216.05 347.733C216.644 347.917 217.056 348.298 217.286 348.875C217.392 349.142 217.413 349.382 217.342 349.608C217.272 349.834 217.186 350.054 217.089 350.279C216.988 350.492 216.903 350.712 216.827 350.928C216.752 351.144 216.765 351.361 216.858 351.597L218.702 356.224C218.854 356.076 219.045 355.963 219.269 355.874C219.494 355.784 219.693 355.755 219.9 355.746C220.112 355.749 220.315 355.792 220.505 355.865C220.695 355.937 220.866 356.055 221.013 356.207C221.16 356.359 221.269 356.538 221.35 356.741L221.358 356.763ZM214.909 350.157C214.815 349.922 214.649 349.753 214.414 349.661C214.179 349.568 213.942 349.564 213.706 349.658C213.471 349.751 213.302 349.918 213.195 350.146C213.087 350.375 213.083 350.612 213.176 350.847C213.274 351.093 213.441 351.262 213.68 351.365C213.915 351.457 214.152 351.461 214.388 351.368C214.623 351.274 214.792 351.107 214.899 350.879C215.007 350.65 215.007 350.403 214.909 350.157ZM220.749 357.006C220.651 356.76 220.48 356.58 220.226 356.471C219.982 356.357 219.734 356.357 219.488 356.455C219.242 356.553 219.063 356.724 218.953 356.978C218.844 357.232 218.843 357.48 218.941 357.726C219.039 357.972 219.206 358.141 219.46 358.25C219.71 358.348 219.962 358.359 220.208 358.261C220.454 358.163 220.634 357.992 220.733 357.743C220.831 357.493 220.847 357.251 220.749 357.006Z" fill="black"/>
<path d="M227.417 351.254C227.532 351.542 227.645 351.857 227.745 352.201C227.845 352.545 227.953 352.91 228.051 353.28C228.148 353.65 228.261 354.026 228.365 354.38C228.474 354.746 228.591 355.071 228.71 355.37L227.448 355.873L225.779 354.111C225.708 354.337 225.593 354.544 225.436 354.743C225.276 354.931 225.066 355.088 224.788 355.199C224.339 355.378 223.92 355.384 223.527 355.206C223.134 355.029 222.858 354.742 222.701 354.347C222.543 353.951 222.546 353.554 222.709 353.155C222.872 352.755 223.18 352.472 223.63 352.293C223.972 352.156 224.305 352.122 224.645 352.197C224.981 352.262 225.299 352.469 225.606 352.805L226.921 354.238C226.789 353.907 226.665 353.473 226.525 352.934C226.385 352.396 226.198 351.864 225.98 351.319C225.81 350.891 225.509 350.603 225.073 350.442C224.637 350.281 224.122 350.325 223.513 350.568C223.235 350.679 222.984 350.828 222.768 351.001C222.556 351.185 222.378 351.392 222.239 351.633C222.1 351.874 222.031 352.137 222.011 352.43C221.987 352.712 222.049 353.022 222.172 353.331L220.782 353.885C220.661 353.426 220.64 353.001 220.73 352.606C220.81 352.215 220.971 351.841 221.205 351.525C221.434 351.199 221.738 350.904 222.095 350.65C222.453 350.396 222.853 350.187 223.291 350.013C224.297 349.612 225.156 349.53 225.88 349.761C226.605 349.993 227.125 350.491 227.428 351.25L227.417 351.254ZM225.116 353.409C225.018 353.163 224.847 352.984 224.593 352.875C224.339 352.765 224.091 352.765 223.845 352.863C223.599 352.961 223.408 353.136 223.309 353.386C223.211 353.636 223.199 353.888 223.297 354.134C223.395 354.38 223.566 354.559 223.82 354.668C224.064 354.782 224.322 354.778 224.568 354.68C224.814 354.582 225.005 354.407 225.104 354.157C225.202 353.907 225.214 353.655 225.116 353.409Z" fill="black"/>
<path d="M235.484 352.683L233.708 348.227C233.534 347.788 233.222 347.504 232.759 347.367C232.295 347.23 231.79 347.27 231.234 347.491C230.678 347.713 230.235 348.063 229.984 348.522C229.718 348.974 229.692 349.468 229.905 350.002C230.028 350.312 230.154 350.596 230.297 350.861C230.44 351.127 230.567 351.385 230.7 351.654C230.827 351.913 230.964 352.193 231.085 352.467C231.211 352.751 231.341 353.046 231.447 353.375C231.61 353.224 231.768 353.061 231.929 352.873C232.089 352.686 232.235 352.491 232.362 352.28C232.492 352.079 232.608 351.872 232.709 351.659C232.814 351.456 232.883 351.255 232.93 351.063C232.84 351.148 232.731 351.217 232.592 351.272C232.143 351.451 231.724 351.457 231.331 351.279C230.938 351.101 230.662 350.815 230.501 350.409C230.339 350.003 230.35 349.627 230.524 349.223C230.702 348.83 230.995 348.54 231.423 348.37C231.851 348.199 232.266 348.182 232.671 348.33C233.077 348.478 233.374 348.756 233.544 349.184C233.659 349.472 233.719 349.808 233.712 350.194C233.715 350.577 233.638 351.004 233.502 351.442C233.367 351.879 233.131 352.345 232.812 352.819C232.493 353.293 232.071 353.758 231.54 354.23L230.449 354.664C230.302 354.203 230.155 353.803 229.989 353.448C229.827 353.104 229.67 352.771 229.525 352.469C229.38 352.168 229.224 351.871 229.073 351.584C228.922 351.298 228.787 350.992 228.66 350.672C228.502 350.276 228.462 349.896 228.52 349.514C228.583 349.142 228.738 348.783 228.952 348.45C229.181 348.124 229.47 347.823 229.823 347.558C230.176 347.294 230.562 347.078 230.979 346.912C231.396 346.746 231.83 346.622 232.243 346.569C232.662 346.501 233.048 346.508 233.414 346.586C233.775 346.652 234.098 346.808 234.384 347.029C234.67 347.249 234.892 347.557 235.049 347.952L236.727 352.163L235.454 352.67L235.484 352.683ZM232.926 349.467C232.828 349.221 232.658 349.042 232.403 348.932C232.149 348.823 231.901 348.823 231.655 348.921C231.409 349.019 231.229 349.19 231.12 349.444C231.011 349.698 231.01 349.946 231.108 350.191C231.206 350.437 231.377 350.617 231.631 350.726C231.885 350.835 232.133 350.836 232.379 350.738C232.625 350.64 232.805 350.469 232.914 350.215C233.024 349.961 233.024 349.713 232.926 349.467Z" fill="black"/>
<path d="M234.122 343.357C234.195 343.539 234.231 343.722 234.224 343.923C234.213 344.113 234.176 344.301 234.095 344.47C234.018 344.649 233.902 344.794 233.761 344.937C233.615 345.07 233.45 345.185 233.258 345.262C233.065 345.338 232.871 345.379 232.67 345.372C232.469 345.365 232.285 345.34 232.106 345.263C231.93 345.196 231.775 345.085 231.636 344.954C231.497 344.824 231.393 344.655 231.32 344.473C231.248 344.292 231.212 344.108 231.219 343.907C231.225 343.706 231.266 343.529 231.348 343.36C231.429 343.192 231.541 343.036 231.682 342.893C231.827 342.761 231.992 342.645 232.185 342.569C232.377 342.492 232.572 342.452 232.773 342.458C232.974 342.465 233.162 342.501 233.337 342.568C233.512 342.634 233.668 342.745 233.807 342.876C233.945 343.006 234.05 343.175 234.122 343.357ZM233.581 343.585C233.492 343.36 233.329 343.202 233.094 343.11C232.859 343.018 232.626 343.024 232.391 343.118C232.156 343.212 231.983 343.367 231.875 343.596C231.768 343.824 231.759 344.051 231.849 344.275C231.938 344.5 232.1 344.658 232.335 344.75C232.57 344.842 232.803 344.836 233.038 344.742C233.274 344.648 233.443 344.482 233.554 344.264C233.662 344.036 233.671 343.809 233.581 343.585ZM242.158 350.024L240.391 345.589C240.22 345.162 239.962 344.856 239.612 344.661C239.262 344.467 238.832 344.477 238.308 344.686C238.03 344.797 237.811 344.933 237.657 345.106C237.499 345.268 237.379 345.465 237.31 345.665C237.241 345.866 237.203 346.08 237.204 346.302C237.206 346.524 237.24 346.733 237.306 346.93L236.001 347.45C235.855 346.741 235.956 346.093 236.31 345.519C236.659 344.934 237.256 344.473 238.112 344.132C238.968 343.791 239.692 343.713 240.34 343.876C240.987 344.039 241.472 344.54 241.8 345.362L243.46 349.53L242.188 350.037L242.158 350.024Z" fill="black"/>
<path d="M160.809 265.518C161.14 265.386 161.504 265.303 161.885 265.263C162.265 265.223 162.646 265.245 163.005 265.337C163.374 265.425 163.697 265.581 164.002 265.818C164.307 266.056 164.533 266.375 164.699 266.791C164.866 267.208 164.925 267.605 164.862 267.977C164.804 268.359 164.666 268.699 164.469 269.013C164.272 269.327 164.007 269.593 163.703 269.826C163.395 270.048 163.074 270.238 162.742 270.37C162.411 270.502 162.051 270.596 161.671 270.636C161.29 270.676 160.914 270.665 160.555 270.573C160.196 270.48 159.863 270.328 159.557 270.091C159.256 269.864 159.026 269.535 158.86 269.118C158.694 268.701 158.635 268.304 158.697 267.932C158.76 267.561 158.893 267.21 159.09 266.897C159.298 266.578 159.549 266.305 159.852 266.073C160.156 265.84 160.477 265.65 160.809 265.518ZM161.141 266.352C160.916 266.441 160.694 266.567 160.499 266.731C160.304 266.896 160.133 267.088 160.002 267.288C159.876 267.5 159.79 267.72 159.753 267.97C159.717 268.22 159.752 268.465 159.85 268.711C159.948 268.957 160.095 269.171 160.29 269.316C160.488 269.472 160.702 269.573 160.939 269.639C161.176 269.706 161.428 269.717 161.683 269.702C161.937 269.687 162.185 269.626 162.41 269.536C162.635 269.447 162.857 269.321 163.052 269.157C163.247 268.992 163.418 268.8 163.549 268.6C163.675 268.388 163.761 268.168 163.798 267.918C163.834 267.668 163.799 267.423 163.701 267.177C163.603 266.931 163.455 266.717 163.261 266.572C163.063 266.416 162.849 266.315 162.612 266.249C162.375 266.182 162.122 266.171 161.868 266.186C161.614 266.201 161.366 266.262 161.141 266.352Z" fill="black"/>
<path d="M167.493 262.918C167.782 262.802 168.057 262.717 168.314 262.677C168.571 262.637 168.804 262.63 169.022 262.68C169.235 262.719 169.423 262.817 169.581 262.965C169.739 263.112 169.878 263.305 169.98 263.561C170.138 263.956 170.143 264.313 169.989 264.61C169.839 264.917 169.573 265.184 169.207 265.417L171.102 266.656C171.17 266.703 171.236 266.713 171.294 266.703C171.352 266.692 171.409 266.682 171.463 266.66L171.527 266.821L169.837 267.494L169.773 267.334C169.826 267.312 169.869 267.295 169.899 267.246C169.934 267.208 169.936 267.182 169.923 267.15C169.91 267.118 169.887 267.09 169.848 267.056C169.81 267.022 169.746 266.985 169.677 266.938L168.121 265.924L166.827 266.44L167.47 268.053C167.491 268.107 167.529 268.141 167.581 268.145C167.636 268.16 167.705 268.145 167.812 268.103L167.875 268.263L166.314 268.885L166.25 268.725C166.421 268.657 166.496 268.565 166.454 268.458L164.818 264.355C164.776 264.248 164.669 264.228 164.487 264.301L164.423 264.141L167.514 262.909L167.493 262.918ZM168.101 265.127C168.315 265.042 168.488 264.948 168.625 264.856C168.762 264.765 168.847 264.669 168.912 264.581C168.972 264.483 169.01 264.393 169.008 264.295C169.006 264.197 168.994 264.103 168.955 264.006C168.917 263.91 168.862 263.833 168.795 263.761C168.729 263.688 168.64 263.649 168.528 263.619C168.417 263.589 168.283 263.593 168.131 263.617C167.968 263.644 167.789 263.691 167.564 263.781L166.003 264.403L166.535 265.739L168.096 265.116L168.101 265.127Z" fill="black"/>
<path d="M172.101 266.393C172.261 266.329 172.315 266.246 172.272 266.139L170.637 262.035C170.594 261.929 170.498 261.905 170.338 261.969L170.274 261.809L171.771 261.212L171.835 261.372C171.675 261.436 171.621 261.519 171.664 261.626L173.299 265.73C173.341 265.837 173.438 265.86 173.598 265.796L173.662 265.957L172.165 266.553L172.101 266.393Z" fill="black"/>
<path d="M177.552 260.606L177.349 260.625C177.349 260.625 177.34 260.541 177.328 260.509C177.294 260.424 177.206 260.36 177.059 260.332C176.922 260.3 176.747 260.295 176.558 260.321C176.366 260.335 176.161 260.38 175.955 260.425C175.75 260.469 175.547 260.55 175.365 260.623C175.141 260.712 174.929 260.834 174.74 260.983C174.552 261.132 174.387 261.31 174.271 261.517C174.151 261.713 174.08 261.939 174.059 262.196C174.037 262.452 174.086 262.73 174.205 263.029C174.324 263.328 174.475 263.553 174.668 263.724C174.86 263.895 175.067 264.011 175.293 264.081C175.516 264.141 175.751 264.172 175.997 264.135C176.247 264.11 176.473 264.057 176.698 263.967C177.04 263.831 177.338 263.675 177.594 263.511C177.851 263.347 178.061 263.189 178.228 263.048L177.917 262.268L176.762 262.728C176.676 262.763 176.621 262.809 176.591 262.859C176.561 262.908 176.573 263.002 176.599 263.128L176.438 263.192L175.979 262.038L176.139 261.974C176.192 262.076 176.25 262.128 176.301 262.132C176.357 262.147 176.425 262.132 176.511 262.098L178.778 261.194L178.842 261.355C178.733 261.423 178.666 261.474 178.643 261.508C178.619 261.543 178.63 261.6 178.66 261.675L179.068 262.701C179.094 262.765 179.128 262.789 179.169 262.797C179.209 262.806 179.261 262.81 179.323 262.81L179.382 262.96C179.234 263.18 179.078 263.378 178.888 263.553C178.697 263.728 178.502 263.892 178.299 264.035C178.096 264.178 177.884 264.3 177.663 264.4C177.443 264.5 177.223 264.6 177.009 264.686C176.581 264.856 176.185 264.952 175.79 264.986C175.405 265.015 175.042 264.974 174.715 264.869C174.384 264.753 174.093 264.584 173.835 264.34C173.577 264.097 173.376 263.78 173.227 263.406C173.078 263.032 173.006 262.665 173.026 262.31C173.046 261.955 173.136 261.622 173.301 261.321C173.462 261.009 173.698 260.73 173.997 260.487C174.297 260.243 174.656 260.026 175.084 259.855C175.352 259.749 175.617 259.668 175.865 259.606C176.124 259.54 176.355 259.498 176.553 259.468C176.752 259.438 176.93 259.417 177.075 259.409C177.22 259.4 177.3 259.381 177.332 259.368C177.385 259.347 177.424 259.319 177.447 259.285C177.471 259.251 177.494 259.217 177.507 259.187L177.64 259.209L177.582 260.619L177.552 260.606Z" fill="black"/>
<path d="M180.293 263.129C180.453 263.065 180.507 262.982 180.464 262.875L178.829 258.772C178.786 258.665 178.69 258.641 178.53 258.705L178.466 258.545L179.963 257.948L180.027 258.109C179.867 258.173 179.813 258.256 179.856 258.363L181.491 262.466C181.533 262.573 181.629 262.597 181.79 262.533L181.854 262.693L180.356 263.29L180.293 263.129Z" fill="black"/>
<path d="M182.699 262.17C182.817 262.123 182.849 262.049 182.807 261.942L181.171 257.838C181.129 257.731 181.054 257.699 180.936 257.746L180.873 257.586L182.423 256.968L182.487 257.128C182.487 257.128 182.425 257.19 182.446 257.244C182.468 257.297 182.562 257.346 182.73 257.428L186.402 259.085L185.257 256.21C185.214 256.104 185.118 256.08 184.958 256.144L184.894 255.984L186.263 255.438L186.327 255.598C186.209 255.645 186.177 255.72 186.219 255.827L187.855 259.93C187.897 260.037 187.972 260.069 188.09 260.022L188.153 260.183L186.688 260.767L186.624 260.606C186.699 260.576 186.729 260.527 186.708 260.474C186.691 260.431 186.623 260.384 186.477 260.331L182.573 258.555L183.769 261.558C183.812 261.665 183.897 261.693 184.036 261.638L184.1 261.798L182.763 262.331L182.699 262.17Z" fill="black"/>
<path d="M188.432 259.885C188.502 259.845 188.549 259.776 188.567 259.695C188.584 259.614 188.597 259.522 188.606 259.42L188.884 255.235C188.897 255.143 188.899 255.055 188.916 254.974C188.923 254.897 188.919 254.825 188.902 254.782C188.876 254.718 188.838 254.684 188.786 254.679C188.735 254.675 188.684 254.671 188.626 254.681L188.562 254.521L190.092 253.911L190.155 254.072C190.155 254.072 190.083 254.138 190.048 254.176C190.014 254.215 190.01 254.266 190.035 254.33C190.052 254.373 190.074 254.426 190.127 254.467C190.165 254.501 190.223 254.553 190.3 254.621L193.647 257.547C193.705 257.598 193.769 257.635 193.82 257.639C193.886 257.65 193.952 257.661 194.036 257.652L194.1 257.812L192.506 258.447L192.442 258.287C192.442 258.287 192.496 258.266 192.515 258.221C192.539 258.187 192.552 258.157 192.535 258.114C192.509 258.05 192.458 257.984 192.366 257.909L191.755 257.372L189.552 258.25L189.487 259.019C189.474 259.173 189.487 259.267 189.508 259.32C189.533 259.384 189.6 259.395 189.717 259.348L189.781 259.508L188.498 260.02L188.434 259.86L188.432 259.885ZM191.175 256.848L189.747 255.473L189.56 257.491L191.175 256.848Z" fill="black"/>
<path d="M198.932 256.098C198.897 256.013 198.844 255.972 198.786 255.983C198.729 255.993 198.649 256.012 198.553 256.051L194.243 257.768L194.179 257.608C194.361 257.535 194.425 257.448 194.383 257.341L192.748 253.237C192.705 253.131 192.598 253.111 192.416 253.184L192.353 253.023L193.914 252.401L193.978 252.562C193.807 252.63 193.742 252.717 193.785 252.824L195.22 256.425L198.225 255.228C198.311 255.194 198.377 255.143 198.424 255.074C198.461 255.01 198.472 254.944 198.442 254.869L198.602 254.805L199.096 256.045L198.936 256.109L198.932 256.098Z" fill="black"/>
<path d="M147.518 259.285C147.442 259.154 147.371 259.071 147.307 259.034C147.243 258.998 147.17 259.002 147.096 259.032L142.026 261.052L142.571 262.42L145.983 261.06C146.068 261.026 146.113 260.984 146.139 260.924C146.165 260.864 146.159 260.755 146.12 260.597L146.302 260.525L147.333 263.111L147.151 263.183C147.061 263.021 146.982 262.916 146.918 262.88C146.854 262.843 146.782 262.847 146.707 262.877L143.295 264.237L144.317 266.801C144.347 266.876 144.39 266.921 144.454 266.957C144.518 266.994 144.655 266.964 144.856 266.909L144.928 267.09L141.698 268.377L141.626 268.196C141.81 268.098 141.915 268.019 141.951 267.955C141.987 267.891 141.973 267.822 141.943 267.747L139.09 260.588C139.06 260.513 139.017 260.468 138.953 260.431C138.889 260.395 138.752 260.425 138.551 260.48L138.479 260.299L146.35 257.162C146.436 257.128 146.477 257.075 146.498 257.004C146.52 256.934 146.505 256.803 146.458 256.624L146.64 256.551L147.705 259.223L147.523 259.295L147.518 259.285Z" fill="#DC5632"/>
<path d="M158.072 259.674C158.157 259.64 158.198 259.586 158.219 259.516C158.241 259.445 158.226 259.315 158.179 259.135L158.361 259.063L159.421 261.724L159.24 261.796C159.154 261.645 159.08 261.55 159.024 261.535C158.968 261.52 158.896 261.525 158.821 261.554L150.8 264.751L150.727 264.569C150.911 264.471 151.016 264.392 151.053 264.328C151.089 264.264 151.074 264.196 151.044 264.121L148.191 256.961C148.162 256.886 148.119 256.841 148.055 256.805C147.991 256.768 147.854 256.798 147.653 256.854L147.581 256.672L150.746 255.41L150.819 255.592C150.635 255.69 150.53 255.769 150.493 255.833C150.468 255.893 150.472 255.966 150.502 256.04L152.792 261.79L158.076 259.684L158.072 259.674Z" fill="#DC5632"/>
<path d="M160.938 251.226C161.591 250.966 162.245 250.804 162.895 250.755C163.545 250.707 164.16 250.759 164.729 250.941C165.308 251.119 165.82 251.41 166.281 251.821C166.743 252.231 167.109 252.779 167.378 253.452C167.646 254.125 167.756 254.775 167.704 255.39C167.651 256.005 167.479 256.569 167.181 257.096C166.884 257.624 166.483 258.081 165.969 258.471C165.456 258.861 164.869 259.194 164.217 259.454C163.565 259.714 162.91 259.876 162.269 259.945C161.628 260.015 161.012 259.963 160.444 259.781C159.865 259.603 159.352 259.312 158.891 258.902C158.43 258.491 158.067 257.954 157.795 257.27C157.522 256.586 157.416 255.948 157.469 255.332C157.521 254.717 157.693 254.153 157.991 253.626C158.289 253.099 158.689 252.642 159.195 252.23C159.7 251.818 160.286 251.486 160.938 251.226ZM161.683 253.096C161.341 253.232 161.042 253.413 160.781 253.629C160.524 253.855 160.312 254.1 160.153 254.387C159.994 254.673 159.906 254.98 159.878 255.313C159.85 255.647 159.913 255.993 160.058 256.356C160.203 256.72 160.39 257.004 160.644 257.237C160.898 257.47 161.17 257.622 161.482 257.721C161.793 257.819 162.106 257.856 162.458 257.839C162.8 257.827 163.138 257.742 163.48 257.605C163.823 257.469 164.122 257.288 164.383 257.072C164.645 256.857 164.852 256.6 165.011 256.314C165.17 256.028 165.258 255.721 165.286 255.387C165.314 255.054 165.251 254.708 165.106 254.345C164.961 253.981 164.774 253.697 164.52 253.464C164.27 253.241 163.994 253.079 163.682 252.98C163.37 252.882 163.058 252.845 162.706 252.862C162.353 252.878 162.026 252.959 161.683 253.096Z" fill="#DC5632"/>
<path d="M171.215 256.394C171.292 256.338 171.347 256.291 171.403 256.244C171.459 256.197 171.465 256.12 171.423 256.013C171.414 255.992 171.339 255.898 171.19 255.71C171.045 255.532 170.842 255.304 170.603 255.015C170.354 254.731 170.083 254.393 169.778 254.031C169.473 253.67 169.159 253.287 168.835 252.909C168.51 252.53 168.186 252.152 167.877 251.78C167.567 251.408 167.286 251.074 167.032 250.779C166.778 250.484 166.577 250.23 166.413 250.035C166.249 249.84 166.155 249.729 166.142 249.697C166.063 249.592 165.988 249.56 165.924 249.586L165.852 249.404L168.665 248.283L168.737 248.465C168.649 248.525 168.583 248.576 168.527 248.623C168.472 248.67 168.461 248.736 168.495 248.822C168.508 248.854 168.582 248.948 168.708 249.108C168.834 249.268 169.003 249.474 169.214 249.724C169.425 249.974 169.645 250.246 169.899 250.541C170.142 250.84 170.396 251.135 170.65 251.43C170.904 251.725 171.128 252.007 171.347 252.279C171.567 252.551 171.755 252.773 171.889 252.955L171.921 252.942C171.909 252.724 171.881 252.438 171.858 252.1C171.835 251.763 171.804 251.404 171.77 251.008C171.741 250.624 171.712 250.239 171.678 249.844C171.645 249.449 171.617 249.1 171.588 248.778C171.559 248.455 171.54 248.19 171.506 247.981C171.483 247.767 171.462 247.652 171.449 247.62C171.415 247.534 171.351 247.498 171.267 247.506C171.184 247.515 171.101 247.523 171.039 247.523L170.966 247.341L174.624 245.884L174.696 246.066C174.63 246.117 174.585 246.16 174.54 246.202C174.495 246.245 174.495 246.307 174.529 246.392C174.529 246.392 174.597 246.501 174.727 246.672C174.857 246.843 175.02 247.064 175.224 247.329C175.429 247.594 175.647 247.891 175.898 248.212C176.15 248.533 176.387 248.847 176.609 249.155C176.841 249.458 177.055 249.745 177.249 250.014C177.453 250.279 177.596 250.482 177.707 250.636L177.739 250.624C177.72 250.483 177.697 250.269 177.687 249.963C177.677 249.658 177.639 249.314 177.62 248.925C177.602 248.536 177.572 248.152 177.545 247.741C177.518 247.331 177.493 246.957 177.476 246.605C177.46 246.252 177.433 245.966 177.422 245.722C177.401 245.483 177.382 245.342 177.374 245.321C177.335 245.225 177.282 245.184 177.205 245.177C177.128 245.171 177.045 245.179 176.951 245.192L176.878 245.01L179.466 243.979L179.539 244.161C179.453 244.195 179.417 244.259 179.395 244.329C179.385 244.396 179.378 244.473 179.391 244.567C179.403 244.599 179.401 244.748 179.422 244.987C179.437 245.242 179.458 245.543 179.476 245.932C179.495 246.321 179.515 246.746 179.543 247.218C179.57 247.69 179.594 248.188 179.609 248.69C179.633 249.188 179.654 249.675 179.681 250.147C179.708 250.619 179.733 251.055 179.758 251.429C179.783 251.803 179.798 252.119 179.814 252.348C179.831 252.576 179.846 252.707 179.854 252.728C179.893 252.824 179.946 252.865 180.019 252.861C180.091 252.856 180.171 252.837 180.239 252.822L180.311 253.004L177.114 254.278L177.041 254.097C177.232 253.984 177.309 253.866 177.266 253.759C177.219 253.642 177.064 253.407 176.814 253.06C176.565 252.714 176.257 252.316 175.903 251.863C175.549 251.41 175.172 250.929 174.77 250.42C174.369 249.911 174.003 249.425 173.648 248.972L173.616 248.985C173.667 249.485 173.726 250.068 173.778 250.728C173.83 251.389 173.874 252.027 173.92 252.641C173.966 253.254 174.004 253.784 174.033 254.23C174.073 254.672 174.103 254.933 174.133 255.008C174.188 255.147 174.325 255.179 174.56 255.085L174.632 255.267L171.317 256.588L171.244 256.406L171.215 256.394Z" fill="#DC5632"/>
<path d="M188.079 246.466C188.015 246.368 187.943 246.31 187.849 246.261C187.759 246.222 187.629 246.237 187.479 246.297L184.623 247.435L185.194 248.867L190.124 246.902C190.21 246.868 190.251 246.814 190.272 246.744C190.293 246.674 190.274 246.533 190.219 246.332L190.401 246.259L191.449 248.888L191.267 248.96C191.194 248.841 191.128 248.768 191.073 248.753C191.017 248.738 190.949 248.753 190.874 248.783L183.205 251.838L183.133 251.657C183.317 251.559 183.422 251.48 183.458 251.416C183.495 251.351 183.48 251.283 183.45 251.208L180.597 244.049C180.567 243.974 180.525 243.929 180.461 243.892C180.397 243.856 180.26 243.886 180.059 243.941L179.986 243.759L187.655 240.704C187.74 240.67 187.781 240.616 187.802 240.546C187.824 240.475 187.809 240.345 187.762 240.166L187.944 240.093L189.009 242.765L188.827 242.837C188.737 242.675 188.658 242.57 188.594 242.534C188.53 242.497 188.453 242.491 188.378 242.521L183.448 244.485L183.955 245.757L186.81 244.619C186.96 244.559 187.065 244.48 187.104 244.391C187.142 244.301 187.151 244.198 187.13 244.083L187.311 244.011L188.265 246.404L188.084 246.477L188.079 246.466Z" fill="#DC5632"/>
<path d="M194.847 246.655C194.877 246.73 194.919 246.775 194.983 246.811C195.043 246.837 195.184 246.818 195.385 246.763L195.458 246.944L192.292 248.206L192.22 248.024C192.404 247.926 192.508 247.847 192.545 247.783C192.581 247.719 192.566 247.651 192.537 247.576L189.684 240.416C189.654 240.341 189.611 240.296 189.547 240.26C189.483 240.224 189.346 240.253 189.145 240.309L189.073 240.127L194.698 237.885C195.832 237.434 196.736 237.309 197.416 237.521C198.095 237.733 198.607 238.272 198.952 239.137C199.233 239.843 199.252 240.479 198.992 241.041C198.732 241.603 198.323 242.1 197.761 242.522L200.596 244.352C200.786 244.487 200.974 244.523 201.156 244.451L201.229 244.632L198.031 245.907L197.958 245.725C198.183 245.635 198.258 245.482 198.19 245.311C198.181 245.289 198.109 245.232 197.987 245.144C197.855 245.06 197.699 244.949 197.498 244.819C197.312 244.695 197.097 244.558 196.866 244.414C196.635 244.271 196.42 244.134 196.208 244.008C195.997 243.881 195.811 243.757 195.649 243.661C195.487 243.565 195.38 243.483 195.331 243.453L193.823 244.054L194.849 246.63L194.847 246.655ZM195.747 241.418C196.196 241.239 196.472 241.03 196.575 240.791C196.678 240.551 196.687 240.325 196.597 240.101C196.508 239.876 196.346 239.718 196.106 239.615C195.867 239.512 195.523 239.55 195.074 239.729L192.496 240.756L193.169 242.445L195.747 241.418Z" fill="#DC5632"/>
<path d="M207.446 232.806L207.519 232.988C207.433 233.022 207.382 233.079 207.35 233.154C207.318 233.229 207.29 233.314 207.266 233.41L205.971 238.744L207.163 241.736C207.193 241.81 207.235 241.855 207.299 241.892C207.359 241.917 207.5 241.898 207.701 241.843L207.774 242.025L204.608 243.286L204.536 243.105C204.72 243.006 204.825 242.927 204.861 242.863C204.897 242.799 204.883 242.731 204.853 242.656L203.775 239.953L199.157 236.914C198.903 236.743 198.736 236.636 198.661 236.604C198.586 236.572 198.509 236.565 198.445 236.591L198.373 236.409L201.753 235.062L201.825 235.244C201.729 235.282 201.643 235.317 201.581 235.378C201.504 235.434 201.493 235.5 201.523 235.575C201.54 235.618 201.651 235.71 201.871 235.857C202.08 236.009 202.334 236.18 202.623 236.375C202.911 236.57 203.199 236.765 203.502 236.966C203.806 237.167 204.06 237.338 204.265 237.479C204.275 237.413 204.301 237.291 204.353 237.11C204.404 236.928 204.448 236.725 204.503 236.492C204.559 236.26 204.622 236.012 204.686 235.738C204.755 235.476 204.807 235.232 204.856 235.014C204.906 234.797 204.943 234.609 204.977 234.446C205.012 234.284 205.024 234.192 205.016 234.171C204.982 234.085 204.922 234.06 204.839 234.068C204.755 234.076 204.676 234.096 204.601 234.125L204.529 233.944L207.449 232.78L207.446 232.806Z" fill="#DC5632"/>
<path d="M127.965 183.405C126.518 182.261 124.453 182.365 123.13 183.648C119.006 187.668 110.755 196.727 108.371 206.853C106.201 216.026 106.444 227.024 106.828 233.274C106.984 235.75 109.519 237.353 111.829 236.432L120.353 233.036C122.278 232.269 123.237 230.041 122.396 228.148C121.203 225.465 119.944 221.063 120.115 214.556C120.343 205.797 123.769 201.955 125.7 197.471C126.994 194.466 128.852 191.819 130.332 189.966C131.598 188.384 131.349 186.081 129.756 184.821L127.961 183.394L127.965 183.405Z" fill="#F3F1DD"/>
<path d="M105.243 199.221C104.904 198.279 103.708 198.013 103.001 198.727C100.926 200.83 97.3587 204.753 96.3981 207.909C94.8961 212.817 94.3311 218.552 94.1296 221.592C94.066 222.584 95.0588 223.302 95.9786 222.936L101.647 220.677C102.192 220.46 102.537 219.926 102.5 219.334C102.329 216.666 102.005 209.291 103.39 206.671C104.4 204.758 105.27 203.643 105.82 203.065C106.167 202.692 106.29 202.16 106.109 201.675L105.232 199.225L105.243 199.221Z" fill="#F3F1DD"/>
</g>
<defs>
<clipPath id="clip0_141_13018">
<rect width="193.115" height="433.149" fill="white" transform="translate(0 71.4844) rotate(-21.7258)"/>
</clipPath>
</defs>
</svg>
