<?xml version="1.0" encoding="UTF-8"?><svg id="Layer_5" xmlns="http://www.w3.org/2000/svg" viewBox="0 0 286.76 144.78"><defs><style>.cls-1{fill:none;}.cls-2{fill:#f3f1dd;}.cls-3{fill:#f2f0dc;}.cls-4{fill:#f09b5c;}.cls-5{fill:#fff;}.cls-6{fill:#f0afaf;}.cls-7{fill:#ca5f3e;}.cls-8{fill:#dc5632;}.cls-9{fill:#231f20;}.cls-10{fill:#38424a;}.cls-11{fill:#2d6076;}.cls-12{fill:#608e61;}.cls-13{fill:#725d2d;}</style></defs><path class="cls-2" d="m119.19,82.31l94.39-53.4c.6-.34,1.35-.28,1.89.15l53.72,42.46c1.1.87.73,2.62-.62,2.98l-44.5,11.63c-.14.04-.29.06-.43.06l-105.82-.19s-3.63-1.73,1.17-3.59c.07-.03.14-.06.21-.1Z"/><path class="cls-9" d="m223.64,86.69l-105.93-.19-.1-.05c-.17-.08-1.64-.82-1.6-2.04.04-.95.95-1.75,2.8-2.47.05-.02.1-.04.14-.07h0s94.39-53.4,94.39-53.4c.78-.44,1.74-.37,2.45.19l53.72,42.46c.66.52.96,1.36.79,2.18-.17.82-.79,1.46-1.6,1.68l-44.5,11.63c-.18.05-.37.07-.56.07Zm-105.7-1.19l105.7.19c.1,0,.21-.01.3-.04l44.5-11.63c.45-.12.78-.46.87-.92.1-.46-.07-.9-.43-1.19l-53.72-42.46c-.38-.3-.91-.34-1.33-.1l-94.39,53.4s0,0,0,0h0c-.08.05-.18.09-.27.13-1.93.75-2.16,1.35-2.17,1.58-.02.41.57.85.93,1.05Z"/><path class="cls-2" d="m116.58,79.58l95.03-54.84c.61-.35,1.36-.29,1.9.15l54.08,43.61c1.11.89.74,2.7-.63,3.06l-44.8,11.95c-.14.04-.29.06-.44.06l-106.54-.19s-3.65-1.77,1.18-3.69c.07-.03.14-.06.21-.1Z"/><path class="cls-9" d="m221.73,84.06l-106.65-.19-.1-.05c-.17-.08-1.65-.84-1.6-2.08.04-.96.96-1.79,2.82-2.52.05-.02.1-.04.14-.07l95.03-54.84c.79-.46,1.76-.38,2.47.19l54.08,43.61c.66.54.97,1.39.79,2.23-.18.83-.79,1.48-1.6,1.7l-44.8,11.95c-.18.05-.37.07-.57.07Zm-106.41-1.19l106.41.19c.1,0,.21-.01.31-.04l44.8-11.95c.45-.12.78-.47.88-.94.1-.48-.06-.94-.44-1.25l-54.08-43.61c-.39-.31-.91-.35-1.34-.11l-95.03,54.84c-.09.05-.18.09-.27.13-1.95.77-2.18,1.4-2.19,1.63-.02.43.58.88.95,1.09Z"/><path class="cls-2" d="m110.77,76.98l94.39-53.4c.6-.34,1.35-.28,1.89.15l53.72,42.46c1.1.87.73,2.62-.62,2.98l-44.5,11.63c-.14.04-.29.06-.43.06l-105.82-.19s-3.63-1.73,1.17-3.59c.07-.03.14-.06.21-.1Z"/><path class="cls-9" d="m215.22,81.35h-.01l-105.93-.19-.1-.05c-.17-.08-1.64-.82-1.6-2.04.04-.95.95-1.75,2.8-2.47.05-.02.1-.04.14-.07h0s94.39-53.4,94.39-53.4c.78-.44,1.74-.37,2.45.19l53.72,42.46c.66.52.96,1.35.79,2.18-.17.82-.78,1.47-1.6,1.68l-44.5,11.63c-.18.05-.36.07-.55.07Zm-105.71-1.19l105.7.19c.11,0,.21-.01.3-.04l44.5-11.63c.45-.12.78-.46.87-.92.09-.46-.07-.9-.43-1.19l-53.72-42.46c-.38-.31-.91-.34-1.33-.1l-94.39,53.4c-.09.05-.18.09-.27.13-1.93.75-2.16,1.35-2.17,1.58-.02.41.57.85.93,1.05Z"/><path class="cls-10" d="m67.89,76.43c.12-.91.49-.93,1.11-1.68.88-1.06,2.29-1.92,4.4-2.56,3.38-1.03,11.01-2.63,11.01-2.63l11.97.81s6.97.6,7.67,7.56c.57,5.71.54,12.95.71,17.44.01.31.04.77.06,1.05.07.84.14,3.16-.82,5.06-.62,1.23-1.82,2.09-3.22,2.39-1.09.23-2.7.51-3.69.44l1.23,11.19-35.59-1.41,5.16-37.66h0Z"/><path d="m98.31,115.77h-.01l-35.59-1.41c-.08,0-.15-.04-.2-.1-.05-.06-.07-.14-.06-.21l5.16-37.66c.09-.73.36-.99.7-1.31.14-.14.3-.28.47-.5.95-1.14,2.43-2,4.53-2.64,3.35-1.02,10.96-2.62,11.04-2.64.02,0,.05,0,.07,0l11.97.81c.08,0,7.2.71,7.92,7.8.41,4.12.52,9.12.6,13.13.03,1.58.06,3.07.11,4.32.01.32.04.77.06,1.03.08.91.14,3.25-.85,5.2-.64,1.27-1.92,2.22-3.41,2.53-1.03.21-2.41.46-3.41.46h-.03l1.19,10.88c0,.08-.02.16-.07.21-.05.05-.12.09-.2.09h0Zm-35.28-1.94l34.97,1.38-1.19-10.88c0-.08.02-.16.07-.22.06-.06.13-.09.21-.08.95.06,2.49-.2,3.61-.43,1.33-.28,2.47-1.12,3.04-2.24.95-1.89.85-4.24.79-4.92-.02-.26-.05-.72-.06-1.06-.05-1.26-.08-2.75-.11-4.33-.08-4.01-.18-8.99-.6-13.09-.67-6.64-7.14-7.29-7.42-7.32l-11.93-.81c-.58.12-7.75,1.64-10.95,2.62-2,.61-3.39,1.42-4.27,2.47-.2.24-.37.41-.51.54-.31.3-.47.45-.54.99h0l-5.12,37.37h0Zm4.85-37.4h0Z"/><polygon class="cls-11" points="79.85 70.2 82.44 86.56 93.35 67.96 79.96 67.1 79.85 70.2"/><path d="m82.44,86.83s-.03,0-.05,0c-.11-.02-.2-.11-.22-.22l-2.58-16.36s0-.04,0-.05l.1-3.1c0-.07.04-.14.09-.19.05-.05.13-.07.2-.07l13.4.86c.09,0,.18.06.22.14s.04.18,0,.26l-10.92,18.59c-.05.08-.14.13-.23.13h0Zm-2.31-16.65l2.46,15.58,10.31-17.56-12.68-.82-.09,2.79Z"/><path d="m81.39,95.97c-.12,0-.22-.08-.26-.2l-4.25-14.59c-.02-.06-.01-.13.01-.19l1.27-2.78-3.24-2.27c-.06-.04-.1-.11-.11-.18s0-.15.05-.21l4.07-5.33c.05-.07.12-.1.2-.11.08,0,.16.03.21.09.46.5.77.68.77.68.07.04.13.11.14.2l2.43,15.42s0,.05,0,.07l-1.05,9.15c-.01.13-.12.23-.25.24h-.02,0Zm-3.96-14.84l3.84,13.2.89-7.77-2.41-15.26c-.12-.08-.33-.24-.58-.49l-3.7,4.85,3.19,2.24c.11.08.15.22.09.33l-1.32,2.89h0Z"/><path d="m81.39,95.97s-.06,0-.09-.02c-.12-.04-.2-.16-.18-.29l1.05-9.15s.02-.07.04-.11l8.97-15.22s.04-.06.07-.08l1.41-1.06c.08-.06.17-.07.26-.04.09.03.15.11.17.2l1.15,6.03c.02.11-.02.21-.11.28l-4.28,2.88.3,2.59c0,.06,0,.12-.04.17l-8.48,13.67c-.05.08-.14.13-.23.13h0Zm1.31-9.33l-.9,7.89,7.79-12.56-.31-2.66c-.01-.1.03-.2.12-.26l4.26-2.87-1.03-5.43-1.02.77-8.91,15.12h0Z"/><polyline class="cls-10" points="95.37 82.62 95.98 95.35 87.48 94.89 74.73 93.85 74.3 102.4 97.44 103.71"/><polygon points="97.43 103.98 74.01 102.66 74.47 93.56 87.5 94.62 95.69 95.06 95.1 82.63 95.64 82.61 96.26 95.64 87.47 95.16 74.98 94.15 74.58 102.15 97.46 103.44 97.43 103.98"/><polygon class="cls-7" points="85.09 73 82.76 74.89 84.17 77.6 86.49 75.39 85.09 73"/><path d="m84.17,77.87s-.03,0-.04,0c-.08-.01-.16-.07-.2-.14l-1.41-2.7c-.06-.11-.03-.25.07-.34l2.33-1.9c.06-.05.14-.07.22-.06s.15.06.19.13l1.4,2.39c.06.11.04.25-.05.33l-2.32,2.21c-.05.05-.12.08-.19.08h0Zm-1.07-2.9l1.14,2.19,1.9-1.81-1.13-1.93-1.92,1.56Z"/><polygon class="cls-7" points="84.23 77.51 81.39 79.92 82.44 86.56 85.96 80.55 84.23 77.51"/><path d="m82.44,86.83s-.03,0-.05,0c-.11-.02-.2-.11-.22-.22l-1.05-6.64c-.01-.09.02-.19.09-.25l2.84-2.41c.06-.05.14-.07.22-.06.08.01.15.06.19.13l1.74,3.03c.05.08.05.19,0,.27l-3.53,6.01c-.05.08-.14.13-.23.13h0Zm-.76-6.8l.9,5.74,3.06-5.22-1.5-2.61-2.47,2.1h0Z"/><rect x="86.8" y="75.13" width=".54" height="2.58" transform="translate(-26.04 51.38) rotate(-28.79)"/><rect x="80.7" y="75.23" width="2.44" height=".54" transform="translate(-28.63 61.76) rotate(-35.58)"/><path class="cls-12" d="m113.38,80.58l-2.36-22.26c-.29-2.78-2.6-4.91-5.39-4.98-9.73-.25-30.97-.37-35.46,3.12-7.25,5.63-16.38,16.63-16.41,24.16,0,.02-.02.04-.04.04l-33.66,3.89c-3.33.38-5.84,3.2-5.84,6.55v19.5c0,2.92,2.37,5.29,5.29,5.29h8.59s.05-.02.04-.05h0c-.73-7.09,3.37-13.91,10.09-16.27,11.18-3.93,21.6,4.26,21.6,14.88h0c0,.8.64,1.44,1.42,1.44h111.07s.05-.02.04-.05c-.05-.45-.07-.92-.07-1.39,0-10.63,10.45-18.83,21.62-14.87,6.7,2.38,10.79,9.18,10.06,16.26h0s.02.05.04.05h16.66c3.16,0,5.73-2.57,5.73-5.73v-17.57c0-3.32-2.69-6.01-6.01-6.01h-100.37c-3.43,0-6.31-2.59-6.67-6.01Zm-32.34,3.06c-6.67-.38-11.68-1.09-15.04-1.7-2.72-.49-4.06-3.59-2.54-5.89,3.6-5.42,10.02-13.12,13.19-14.61,3.02-1.43,14.98-1.38,22.14-1.21,3.09.07,5.58,2.53,5.72,5.62l.58,13.64c.12,2.8-2.17,5.11-4.97,5.02-4.44-.15-11.33-.43-19.08-.87Z"/><path class="cls-9" d="m220.7,116.4h-16.88l-.33-.35v-.26c.73-6.97-3.27-13.44-9.72-15.73-5.02-1.78-10.28-1.12-14.44,1.82-4.08,2.88-6.52,7.58-6.52,12.57,0,.49.02.93.06,1.34l.02.22-.31.36h-.26s-111.07.01-111.07.01c-1.06,0-1.92-.86-1.92-1.92,0-5-2.43-9.69-6.5-12.57-4.15-2.94-9.42-3.61-14.44-1.85-6.46,2.27-10.48,8.75-9.76,15.75l.02.22-.31.37h-.26s-8.59.01-8.59.01c-3.19,0-5.79-2.59-5.79-5.79v-19.5c0-3.6,2.7-6.63,6.28-7.05l33.26-3.84c.35-8.03,9.83-18.9,16.59-24.15,4.48-3.49,24.34-3.52,35.78-3.23,3.03.08,5.56,2.41,5.88,5.42l2.36,22.26c.34,3.17,2.99,5.56,6.18,5.56h100.38c3.59,0,6.51,2.92,6.51,6.51v17.57c0,3.44-2.79,6.23-6.23,6.23Zm-16.16-1h16.16c2.88,0,5.23-2.35,5.23-5.23v-17.57c0-3.04-2.47-5.51-5.51-5.51h-100.38c-3.7,0-6.78-2.77-7.17-6.45l-2.36-22.26c-.27-2.52-2.38-4.47-4.91-4.53-9.1-.23-30.74-.4-35.14,3.02-7.78,6.04-16.19,16.85-16.22,23.77v.43s-.47.1-.47.1l-33.67,3.89c-3.07.36-5.39,2.96-5.39,6.05v19.5c0,2.64,2.15,4.79,4.79,4.79h8.09c-.53-7.27,3.72-13.92,10.47-16.29,5.34-1.88,10.93-1.16,15.35,1.98,4.33,3.07,6.92,8.07,6.92,13.37,0,.53.42.94.92.94h110.57c-.02-.3-.03-.61-.03-.94,0-5.31,2.59-10.32,6.94-13.39,4.43-3.13,10.02-3.84,15.35-1.95,6.73,2.39,10.96,9.03,10.44,16.28Zm-104.26-30.39c-.06,0-.12,0-.18,0-4.42-.15-11.31-.43-19.09-.87h0c-5.47-.31-10.7-.9-15.1-1.7-1.45-.26-2.66-1.23-3.24-2.59-.57-1.34-.43-2.86.38-4.07,3.44-5.18,10.01-13.2,13.4-14.79,2.97-1.4,13.8-1.46,22.36-1.25,3.34.08,6.06,2.76,6.2,6.1l.58,13.64c.06,1.48-.5,2.92-1.54,3.97-1,1-2.36,1.57-3.77,1.57Zm-19.21-1.87c7.77.45,14.66.72,19.07.87,1.2.04,2.35-.41,3.21-1.27.86-.86,1.3-2.01,1.25-3.22l-.58-13.64c-.12-2.82-2.42-5.07-5.23-5.14-11.95-.29-19.73.13-21.91,1.16-2.91,1.37-9.18,8.71-12.99,14.44-.63.94-.73,2.08-.29,3.13.44,1.04,1.38,1.79,2.5,1.99,3.04.55,8.11,1.3,14.98,1.69h0Z"/><path class="cls-13" d="m43.69,101.07c-7.33,0-13.27,5.94-13.27,13.27s5.94,13.27,13.27,13.27,13.27-5.94,13.27-13.27-5.94-13.27-13.27-13.27Zm.24,18.86c-3.3,0-5.98-2.68-5.98-5.98s2.68-5.98,5.98-5.98,5.98,2.68,5.98,5.98-2.68,5.98-5.98,5.98Z"/><path class="cls-9" d="m43.69,128.1c-7.59,0-13.77-6.18-13.77-13.77s6.18-13.77,13.77-13.77,13.77,6.18,13.77,13.77-6.18,13.77-13.77,13.77Zm0-26.54c-7.04,0-12.77,5.73-12.77,12.77s5.73,12.77,12.77,12.77,12.77-5.73,12.77-12.77-5.73-12.77-12.77-12.77Zm.24,18.86c-3.57,0-6.48-2.91-6.48-6.48s2.91-6.48,6.48-6.48,6.48,2.91,6.48,6.48-2.91,6.48-6.48,6.48Zm0-11.95c-3.02,0-5.48,2.46-5.48,5.48s2.46,5.48,5.48,5.48,5.48-2.46,5.48-5.48-2.46-5.48-5.48-5.48Z"/><path class="cls-13" d="m188.41,101.07c-7.33,0-13.27,5.94-13.27,13.27s5.94,13.27,13.27,13.27,13.27-5.94,13.27-13.27-5.94-13.27-13.27-13.27Zm.24,18.86c-3.3,0-5.98-2.68-5.98-5.98s2.68-5.98,5.98-5.98,5.98,2.68,5.98,5.98-2.68,5.98-5.98,5.98Z"/><path class="cls-9" d="m188.41,128.1c-7.59,0-13.77-6.18-13.77-13.77s6.18-13.77,13.77-13.77,13.77,6.18,13.77,13.77-6.18,13.77-13.77,13.77Zm0-26.54c-7.04,0-12.77,5.73-12.77,12.77s5.73,12.77,12.77,12.77,12.77-5.73,12.77-12.77-5.73-12.77-12.77-12.77Zm.24,18.86c-3.57,0-6.48-2.91-6.48-6.48s2.91-6.48,6.48-6.48,6.48,2.91,6.48,6.48-2.91,6.48-6.48,6.48Zm0-11.95c-3.02,0-5.48,2.46-5.48,5.48s2.46,5.48,5.48,5.48,5.48-2.46,5.48-5.48-2.46-5.48-5.48-5.48Z"/><path class="cls-6" d="m80.62,89.34s3.6-2.9,3.23-6.74c-.24-2.43-1.8-7.04-3.81-6.62-2.02.43.92,5.07.92,5.07,0,0-1.46-3.53-2.4-2.45-.71.81.21,2.76.21,2.76,0,0-1.08-3.2-2.39-2.16-.64.51-.05,2.5-.05,2.5,0,0-.8-2.58-1.98-1.77-1.54,1.06.3,9.09,1.41,10.27s4.87-.85,4.87-.85h0Z"/><path d="m73.53,81.14c.09-.73.31-1.2.66-1.44.3-.21.62-.26.93-.15.26.09.48.28.68.52.01-.45.11-.86.41-1.09.39-.31.76-.29,1-.22.3.09.58.32.81.6.02-.35.11-.68.33-.94.26-.3.54-.32.73-.29.07,0,.13.03.2.06-.21-.69-.3-1.36-.11-1.83.14-.34.42-.56.81-.65.47-.1.93.02,1.38.35,1.5,1.1,2.57,4.49,2.77,6.51.38,3.94-3.17,6.86-3.33,6.98l-.04.03c-.4.22-3.99,2.09-5.2.8-.98-1.04-2.31-6.48-2.03-9.12l.02-.12h0Zm3.05.48l-.52.16c-.18-.57-.64-1.55-1.12-1.71-.09-.03-.23-.06-.44.08-.22.15-.37.56-.43,1.16-.28,2.58,1.09,7.85,1.88,8.69.7.74,3.13-.15,4.52-.89.27-.23,3.45-2.98,3.11-6.49-.18-1.87-1.19-5.13-2.54-6.12-.32-.24-.63-.32-.94-.25-.21.04-.35.15-.42.32-.22.53.1,1.55.53,2.5.51.71.89,1.61,1,1.87l-.49.25c-.1-.16-.58-.94-1-1.86-.26-.37-.52-.63-.73-.67-.04,0-.11-.02-.22.11-.35.4-.18,1.25.02,1.88.13.3.22.54.24.61l-.51.21c-.03-.07-.14-.3-.25-.62-.31-.68-.77-1.43-1.23-1.57-.1-.03-.27-.05-.5.13-.34.27-.18,1.48.04,2.21h0Z"/><path class="cls-10" d="m104.08,78.36c.29,2.26.62,9-1.77,13.45-2.25,4.17-6.24,6.6-9.72,6.62-6.1.03-9.67-1.37-14.61-5.19s-3.68-8.44-3.68-8.44l9.03.39s1.79,4.4,9.08,4.08c2.49-.11,2.32-4.05,2.8-8.49"/><path d="m92.37,98.68c-5.87,0-9.43-1.29-14.55-5.24-4.91-3.8-3.78-8.65-3.77-8.7l.05-.2,9.39.41.06.15c.07.17,1.83,4.23,8.83,3.92,1.85-.08,2.07-2.73,2.36-6.09.06-.7.12-1.43.2-2.18l.5.05c-.08.74-.14,1.47-.2,2.17-.3,3.6-.54,6.45-2.83,6.55-6.71.29-8.86-3.29-9.25-4.08l-8.66-.38c-.16.92-.52,4.78,3.63,7.98,5.01,3.87,8.5,5.14,14.24,5.14.07,0,.14,0,.22,0,3.6-.02,7.42-2.63,9.5-6.49,2.21-4.11,2.11-10.5,1.75-13.3l.5-.06c.04.34,1.04,8.32-1.8,13.6-2.16,4.02-6.16,6.73-9.94,6.76-.07,0-.15,0-.22,0Z"/><line class="cls-1" x1="73.78" y1="42.75" x2="76.05" y2="43.93"/><path d="m75.93,44.23h-.03s-2.27-1.19-2.27-1.19c-.16-.08-.22-.28-.14-.44.08-.16.28-.23.44-.14l2.27,1.18c.16.08.22.28.14.44-.08.15-.26.22-.41.16h0Z"/><line class="cls-1" x1="74.57" y1="39.47" x2="76.68" y2="42.34"/><path d="m76.56,42.65c-.05-.02-.11-.06-.14-.11l-2.11-2.87c-.11-.15-.08-.35.07-.46.15-.11.35-.08.46.07l2.11,2.87c.11.15.08.35-.07.46-.09.07-.22.08-.32.04h0Z"/><line class="cls-1" x1="77.74" y1="40.06" x2="78.09" y2="41.37"/><path d="m77.97,41.67c-.09-.04-.17-.12-.2-.22l-.36-1.31c-.05-.17.06-.36.23-.4.17-.05.36.06.4.23l.36,1.31c.05.17-.06.36-.23.4-.07.02-.14.01-.21-.01Z"/><line class="cls-1" x1="79.21" y1="38.1" x2="79.49" y2="40.65"/><path d="m79.37,40.95c-.11-.04-.19-.14-.2-.27l-.28-2.54c-.02-.18.11-.34.29-.36.18-.02.34.11.36.29l.28,2.54c.02.18-.11.34-.29.36-.06,0-.11,0-.16-.02h0Z"/><path class="cls-6" d="m99.15,56.21s4.64-.55,2.72,4.36c-1.92,4.91-4.29,2.09-4.29,2.09l1.56-6.44h0Z"/><path d="m98.42,63.64c-.64-.25-1.07-.75-1.09-.78l-.11-.13,1.65-6.83.23-.03c.08,0,2.09-.23,3.06,1.02.66.84.66,2.12,0,3.78-.73,1.87-1.63,2.91-2.68,3.08-.4.07-.76,0-1.07-.13Zm-.48-1.08c.23.22.79.67,1.44.56.79-.13,1.54-1.05,2.17-2.67.56-1.44.59-2.49.09-3.14-.58-.75-1.75-.8-2.24-.78,0,0-1.46,6.03-1.46,6.03Z"/><path class="cls-6" d="m77.09,50.17s-3.68-2.8-4.54,2.65c-.86,5.45,2.6,4.02,2.6,4.02,0,0,1.94-6.67,1.94-6.67Z"/><path d="m73.45,57.2c-.16-.06-.31-.15-.46-.26-.84-.66-1.1-2.06-.76-4.16.3-1.9.98-3.07,2.01-3.48,1.44-.58,2.99.57,3.05.62l.18.14-2.05,7.04-.15.06s-.97.39-1.83.05h0Zm2.61-7.22c-.46-.18-1.05-.3-1.59-.09-.8.33-1.34,1.32-1.6,2.98-.29,1.82-.11,3.05.52,3.55.49.39,1.19.25,1.48.17l1.83-6.28c-.15-.09-.37-.22-.64-.32h0Z"/><path class="cls-6" d="m84.54,72.3c-1.46-.07-2.89-.46-4.16-1.19-3.19-1.84-8.5-6.46-5.12-15.7,4.67-12.77,4.57-13.3,16.17-13.8,11.6-.51,6.13,20.11,6.13,20.11,0,0-.52,11.19-13.02,10.59h0Z"/><path d="m81.41,71.97c-.41-.16-.81-.36-1.19-.57-3.44-1.99-8.69-6.72-5.26-16.1l.34-.94c2.21-6.06,3.33-9.1,5.39-10.83,2.14-1.79,5.31-2.01,10.73-2.25,2.4-.11,4.29.66,5.59,2.29,1.79,2.23,2.48,5.98,2.05,11.16-.3,3.61-1.08,6.69-1.17,7.04-.03.47-.38,4.86-3.78,7.94-2.35,2.13-5.57,3.12-9.59,2.92h0c-1.09-.05-2.15-.28-3.12-.66h0Zm12.9-29.61c-.83-.33-1.79-.47-2.87-.43-5.74.25-8.45.53-10.33,2.1-1.93,1.62-3.03,4.6-5.2,10.56l-.34.94c-3.27,8.93,1.71,13.42,4.97,15.3,1.18.68,2.57,1.08,4.01,1.15h0c5.04.24,8.71-1.4,10.89-4.89,1.64-2.62,1.78-5.36,1.79-5.39v-.07c.04-.13,3.3-12.64-.74-17.65-.6-.74-1.32-1.28-2.19-1.62h0Z"/><path class="cls-3" d="m83.96,42.71s.03,5.74-6.52,7.2c-3.74.84,1.22-10.62,6.52-7.2Z"/><path d="m76.58,50.19c-.32-.13-.5-.36-.59-.54-.71-1.36.63-4.63,2.65-6.47,1.78-1.62,3.73-1.89,5.49-.75l.15.1v.18c0,.06-.04,6.02-6.78,7.52-.39.09-.7.06-.93-.03h0Zm6.5-7.57c-1.62-.64-3.04.18-3.99,1.04-1.88,1.71-3.03,4.69-2.52,5.68.05.1.19.37.78.24,5.58-1.25,6.19-5.75,6.26-6.7-.18-.11-.36-.2-.54-.27h0Z"/><path class="cls-3" d="m85.34,41.08s9.68-3.2,13.95,4.39c4.27,7.59-1.51,18.89-2.86,12.4-1.22-5.89,4.11-8.62-7.75-12.32,0,0-8.09-2.66-3.34-4.47h0Z"/><path d="m97.34,60.05c-.57-.22-.98-.94-1.22-2.12-.36-1.74-.17-3.2,0-4.49.4-3.02.67-5.02-7.53-7.58-.84-.28-5.03-1.74-5.07-3.44-.01-.67.54-1.21,1.71-1.65h.01c.1-.04,9.99-3.2,14.34,4.54,2.84,5.05,1.3,11.58-.35,13.82-.71.96-1.33,1.06-1.72.98-.06-.01-.11-.03-.16-.05h0Zm-5.75-13.84c5.54,2.19,5.59,4.21,5.18,7.31-.16,1.24-.35,2.64,0,4.27.29,1.39.71,1.62.89,1.67.28.06.67-.2,1.05-.73,1.57-2.12,3.01-8.31.31-13.11-4.05-7.19-13.27-4.33-13.55-4.24-.83.32-1.28.68-1.28,1.02.02.91,2.71,2.2,4.61,2.83,1.06.33,1.99.66,2.81.98Z"/><circle cx="84.37" cy="52.56" r=".39"/><path d="m84.11,53.23c-.36-.14-.54-.54-.41-.9.13-.37.54-.57.91-.44.38.14.57.54.44.91h0c-.13.37-.54.57-.91.44h-.02Zm.29-.72h0s-.07,0-.08.04,0,.07.03.08h0s.07,0,.08-.04h0s0-.07-.04-.08h0Z"/><circle cx="88.16" cy="53.07" r=".39"/><path d="m87.9,53.74c-.17-.07-.3-.19-.39-.36-.08-.17-.09-.37-.03-.55.06-.18.19-.33.37-.41s.37-.09.55-.03c.38.13.57.54.44.91h0c-.13.37-.54.57-.91.44h-.02s0,0,0,0Zm.29-.72h0s-.07,0-.08.04c0,.02,0,.04,0,.05s.01.02.03.03c.03.01.07,0,.08-.04h0s0-.07-.04-.08Z"/><path d="m82.12,51.46s-.08-.04-.11-.07c-.13-.13-.13-.33,0-.46.02-.02,1.9-1.92,4.12-.18.14.11.17.32.06.46-.11.14-.32.17-.46.06-1.75-1.37-3.19.06-3.25.12-.09.1-.24.13-.36.08h0Z"/><path d="m87.56,51.41c-.07-.03-.14-.08-.17-.16-.08-.16-.01-.36.15-.44.02-.01,2.43-1.17,3.94,1.22.1.16.05.36-.1.45s-.36.05-.45-.1c-1.19-1.88-3.02-1.02-3.1-.98-.09.04-.18.04-.27.01h0Z"/><path d="m83.92,60.36c-.13-.05-.27-.11-.41-.19-.87-.46-1.34-1.07-1.4-1.82-.13-1.94,2.76-4.03,2.88-4.12.15-.1.35-.07.46.07s.07.35-.07.46c-.76.54-2.7,2.24-2.61,3.54.03.51.38.93,1.05,1.28.86.45,1.54.44,2.07-.03,1.13-1.01,1.23-3.72.92-4.52-.07-.17.02-.36.19-.42.17-.07.36.02.42.19.41,1.06.23,4.07-1.09,5.25-.46.41-1.24.77-2.4.31h0Z"/><path class="cls-5" d="m80.44,61.41l7.75,1.41s-1.13,3.75-4.46,2.84c-3.34-.91-3.28-4.26-3.28-4.26h0Z"/><path d="m83.06,65.79c-2.97-1.17-2.95-4.35-2.95-4.39,0-.1.05-.19.12-.25s.17-.09.27-.07l7.75,1.41c.09.02.17.07.22.15s.06.18.03.26c-.01.04-1.26,4.04-4.86,3.06-.2-.06-.4-.12-.58-.19h0Zm-2.27-3.98c.1.86.6,2.89,3.02,3.54,1.25.34,2.31.01,3.15-.97.4-.47.65-.97.79-1.29l-6.95-1.27h0Zm-.35-.4h0Z"/><path d="m78.19,61.51s-.08-.04-.12-.08c-.12-.13-.12-.34.01-.46.07-.07,1.83-1.7,4.28-1.99.18-.02.34.11.37.29s-.11.34-.29.37c-2.23.27-3.89,1.81-3.91,1.82-.1.09-.23.11-.35.06Z"/><path d="m90.66,64.44c-.09-.03-.16-.11-.19-.2-.9-2.67-4.13-4.12-4.16-4.13-.17-.07-.24-.27-.17-.43s.27-.25.43-.17c.14.06,3.52,1.58,4.52,4.53.06.17-.04.36-.21.42-.08.03-.16.02-.22,0h0Z"/><path class="cls-8" d="m173.22,50.68l2.22-.37.74,4.42c.22,1.29.86,1.84,1.99,1.65s1.54-.91,1.33-2.2l-1.13-6.78,2.22-.37,1.19,7.12c.34,2.04-.78,3.61-3.3,4.03s-4.11-.7-4.45-2.73l-.8-4.77Z"/><path class="cls-8" d="m187.15,54.9l.28,1.66-1.29.22c-1.79.3-2.97-.22-3.23-1.77s.68-2.49,2.47-2.79l2.49-.42-.03-.17c-.17-1.03-.76-1.55-1.81-1.38-1.03.17-1.35.8-1.5,1.52l-2.13-.24c.16-1.52,1.1-2.69,3.32-3.06,2.54-.42,3.99.66,4.37,2.95l.76,4.57-2.22.37-.51-3.08-2.19.37c-.65.11-.84.44-.77.86s.35.67,1.01.56l.98-.16Z"/><path class="cls-8" d="m193.82,53.9c.65-.35.77-1.27.61-2.25l-.1-.58,1.72-.29.11.65c.21,1.28.15,3.65-2.55,4.1l-1.16.19c-.29.05-.52-.11-.57-.4l-.69-4.12c-.38-2.25.81-3.78,3.34-4.21s4.15.65,4.53,2.89l.77,4.6-2.12.35-.7-4.21c-.21-1.26-.94-1.89-2.15-1.69s-1.69,1.04-1.48,2.3l.44,2.66Z"/><path class="cls-8" d="m204.67,51.98l.28,1.66-1.29.22c-1.79.3-2.97-.22-3.23-1.77s.68-2.49,2.47-2.79l2.5-.42-.03-.17c-.17-1.03-.76-1.55-1.81-1.38s-1.35.8-1.5,1.52l-2.13-.24c.16-1.52,1.1-2.69,3.32-3.06,2.54-.42,3.99.66,4.37,2.95l.76,4.57-2.22.37-.51-3.08-2.19.37c-.65.11-.84.44-.77.86s.35.67,1.01.56l.98-.16Z"/><path class="cls-8" d="m203.46,42.85c.05.22.15.46.44.41.25-.04.32-.21.26-.56l1.55-.04c.17.7-.18,1.58-1.18,1.75-.5.08-.96-.01-1.32-.48-.19.56-.62.8-1.12.89-1.15.19-1.82-.65-1.96-1.47-.15-.89.04-2.04,1.93-2.36l3.49-.58.24,1.43-3.49.58c-.39.06-.5.34-.45.64.04.26.18.51.48.46s.32-.31.3-.53l.83-.14Z"/><path class="cls-8" d="m211.06,49.47c.13.85.83,1.29,1.85,1.11,1.34-.22,1.67-1.18,1.42-2.66-.24-1.44-1.08-2.21-2.2-2.02s-1.5.89-1.61,1.61l-2.16-.21c.16-1.52,1.18-2.81,3.47-3.19,2.59-.43,4.31.96,4.72,3.44.44,2.66-.85,4.4-3.34,4.82s-4.21-.66-4.5-3.42c-.03-.29.13-.68.52-.74l3.22-.54.25,1.52-1.64.27Z"/><path class="cls-8" d="m218.16,51.43l-.77-4.6c-.38-2.25.82-3.78,3.37-4.21s4.17.64,4.54,2.89l.77,4.6-2.22.37-.7-4.21c-.21-1.26-.97-1.89-2.07-1.71s-1.62,1.03-1.41,2.29l.23,1.4c.14-1.26,1.04-1.87,2.2-1.76l.04,1.8c-1.02-.03-2.16.45-1.86,2.23l.09.54-2.22.37Z"/><path class="cls-8" d="m155.48,72l1.46-.24.24,1.46c.05.33.23.6.57.54.41-.07.37-.43.3-.83l-.76-4.54,1.86-.31.78,4.68c.21,1.27-.13,2.25-1.45,2.47-.9.15-1.56-.16-1.85-.77-.06.67-.59,1.18-1.49,1.33-1.57.26-2.08-1.05-2.31-2.46l-.25-1.49c-.16-.97-.14-2.63,1.77-2.95l.99-.17.22,1.34-.44.07c-.83.14-.76.87-.66,1.5l.25,1.51c.09.56.21,1.09.65,1.02.34-.06.42-.37.36-.69l-.24-1.46Z"/><path class="cls-8" d="m164.35,72.71l.23,1.4-1.08.18c-1.5.25-2.5-.18-2.71-1.48s.57-2.09,2.07-2.34l2.1-.35-.02-.14c-.14-.86-.64-1.31-1.52-1.16s-1.13.67-1.26,1.28l-1.79-.2c.13-1.28.93-2.26,2.79-2.57,2.13-.36,3.35.55,3.67,2.47l.64,3.84-1.86.31-.43-2.58-1.84.31c-.55.09-.7.37-.65.72s.3.56.84.47l.83-.14Z"/><path class="cls-8" d="m160.21,67l-.22-1.33,5.97-1,.22,1.33-5.97,1Z"/><path class="cls-8" d="m169.95,71.88c.57-.29.69-1.07.55-1.91l-.08-.49,1.47-.25.09.55c.18,1.07.06,3.08-2.21,3.46l-.98.16c-.24.04-.43-.1-.48-.34l-.72-4.28c-.21-1.27.12-2.23,1.43-2.45.9-.15,1.46.17,1.73.79.06-.67.51-1.16,1.38-1.31,1.32-.22,1.94.59,2.15,1.85l.78,4.69-1.78.3-.76-4.55c-.07-.4-.24-.74-.67-.67-.33.05-.47.36-.46.66l-.93.16c-.07-.29-.3-.54-.65-.48-.43.07-.49.45-.42.85l.54,3.26Z"/><path class="cls-8" d="m179.39,71.63l-1.08.18c-1.5.25-2.5-.18-2.71-1.48-.22-1.29.57-2.09,2.07-2.34l2.09-.35-.02-.14c-.14-.86-.64-1.31-1.52-1.16s-1.13.67-1.26,1.28l-1.79-.2c.13-1.28.93-2.26,2.79-2.57.71-.12,1.28-.08,1.76.1l1.16-1.45,1.27,1.13-1.19,1.16c.33.38.57.9.68,1.54l.64,3.84-1.86.31-.43-2.58-1.84.31c-.55.09-.7.37-.65.72s.3.56.84.47l.83-.14.23,1.4Z"/><path class="cls-8" d="m181.14,74.77l-.2-1.22-1.19.2-.21-1.23,2.42-.4c.23-.04.42.1.47.35l.34,2.04-1.63.27Z"/><path class="cls-8" d="m184.45,68.47c.22.48.84.78,1.62.65.58-.1,1.02-.31.95-.78-.08-.49-.82-.45-2.04-.62-1.16-.16-2.14-.44-2.33-1.58-.24-1.42,1.09-2.26,2.46-2.49,1.76-.29,2.75.33,3.21,1.45l-1.52.7c-.2-.48-.68-.82-1.44-.69-.59.1-.94.35-.87.73.07.44.69.46,1.56.59,1.41.18,2.59.24,2.81,1.56.26,1.55-1.21,2.37-2.53,2.59-1.76.29-2.8-.31-3.3-1.42l1.45-.69Z"/><path class="cls-8" d="m193.63,69.25l-.64-3.84c-.17-.99-.62-1.34-1.34-1.22s-.97.55-1.04,1.31l-1.8-.19c.11-1.44.8-2.42,2.57-2.72,2.11-.35,3.15.59,3.47,2.51l.64,3.84-1.86.31Z"/><path class="cls-8" d="m197.28,68.64l-.48-2.86h-1.04s-.08-.48-.08-.48c-.38-2.28.79-3.55,2.82-3.89,2.26-.38,3.63.58,3.94,2.43l.64,3.84-1.86.31-.61-3.63c-.15-.92-.72-1.64-1.86-1.45s-1.47,1.01-1.32,1.92v.05s.71,0,.71,0c.25,0,.45.16.49.4l.51,3.06-1.86.31Z"/><path class="cls-8" d="m198.11,60.67l-.13-.79c.27-.15.55-.4.49-.76-.04-.21-.15-.41-.73-.31l-.54.09-.19-1.15.7-.12c1.58-.26,2.04.07,2.14.62.11.66-.41,1.04-.49,1.1.25-.16.81-.39,1.19-.45l1.46-.24.22,1.33-4.12.69Z"/><path class="cls-8" d="m205.15,64.6c.27.56.71,1.16,1.56,1.02,1.02-.17,1.28-1.12,1.1-2.21s-.74-1.9-1.76-1.73c-.85.14-1.07.86-1.14,1.47l-1.79-.18c.05-1.34.88-2.49,2.69-2.79,2.06-.34,3.5.76,3.86,2.92s-.64,3.68-2.7,4.03c-1.82.3-2.97-.53-3.46-1.78l1.63-.75Z"/><path class="cls-8" d="m211.03,66.35l-1.13-6.75,1.86-.31.39,2.33,1.04-.17c1.07-.18,1.41-.82,1.42-1.48l.03-1.25,1.86-.04-.02,1.22c-.02.89-.4,1.55-1.15,1.93.72.08,1.21.49,1.4,1.2l.63,2.26-1.87.31-.5-1.87c-.18-.64-.66-.93-1.53-.78l-1.04.17.49,2.91-1.86.31Z"/><path class="cls-8" d="m222.96,64.35l-.23-1.35c-.09.9-.86,1.63-1.98,1.81-1.4.23-2.59-.46-2.86-2.06l-.73-4.38,1.86-.31.65,3.86c.18,1.06.76,1.38,1.55,1.25.91-.15,1.39-.79,1.23-1.71l-.65-3.86,1.86-.31,1.13,6.75-1.84.31Z"/><path class="cls-8" d="m219.84,57.04l-.13-.79c.27-.15.55-.4.49-.76-.04-.21-.15-.41-.73-.31l-.54.09-.19-1.15.7-.12c1.58-.26,2.04.07,2.14.62.11.66-.41,1.04-.49,1.1.25-.16.81-.39,1.19-.45l1.46-.24.22,1.33-4.12.69Z"/><path class="cls-8" d="m229.46,63.27l-.64-3.84c-.17-.99-.62-1.34-1.34-1.22s-.97.55-1.04,1.31l-1.8-.19c.11-1.44.8-2.42,2.57-2.72,2.11-.35,3.15.59,3.47,2.51l.64,3.84-1.86.31Z"/><path d="m272.99,77.83c-.16,0-.31-.07-.41-.21-.16-.23-.1-.54.12-.7,1.71-1.2,2.68-2.92,2.82-5,.14-2.02-2.85-3.9-2.88-3.92-.23-.15-.31-.45-.16-.69.14-.23.45-.31.69-.16.14.09,3.53,2.21,3.35,4.84-.16,2.39-1.28,4.37-3.24,5.75-.09.06-.19.09-.29.09Z"/><path d="m276.49,76.92c-.14,0-.28-.06-.38-.17-.18-.21-.16-.52.05-.71,1.57-1.36,2.37-3.18,2.29-5.26-.06-1.69-2.38-3.17-3.27-3.61-.25-.12-.35-.42-.23-.67.12-.25.42-.35.67-.23.15.07,3.74,1.84,3.83,4.47.09,2.39-.83,4.48-2.64,6.05-.09.08-.21.12-.33.12Z"/><path d="m202.52,23.03c-.06,0-.12-.01-.19-.04-.26-.1-.38-.39-.28-.65.06-.16,1.58-3.86,4.19-4.13,2.38-.25,4.53.51,6.22,2.21.19.2.19.51,0,.71-.2.19-.51.2-.71,0-1.47-1.47-3.33-2.14-5.4-1.92-2.02.21-3.36,3.48-3.37,3.51-.08.2-.27.31-.46.31Z"/><path d="m201.26,20.71s-.09,0-.14-.02c-.27-.08-.42-.35-.34-.62.05-.16,1.17-4,3.74-4.54,2.34-.5,4.56.04,6.41,1.56.21.17.25.49.07.7-.18.21-.49.25-.7.07-1.61-1.32-3.54-1.79-5.57-1.35-1.65.35-2.72,2.89-2.99,3.84-.06.22-.26.36-.48.36Z"/><ellipse class="cls-4" cx="14.38" cy="95.23" rx="3.59" ry="7.7"/><path class="cls-9" d="m14.38,103.43c-2.29,0-4.09-3.6-4.09-8.2s1.8-8.2,4.09-8.2,4.09,3.6,4.09,8.2-1.8,8.2-4.09,8.2Zm0-15.4c-1.46,0-3.09,2.96-3.09,7.2s1.63,7.2,3.09,7.2,3.09-2.96,3.09-7.2-1.63-7.2-3.09-7.2Z"/><rect class="cls-12" x="216.24" y="108.63" width="16.89" height="7.12" rx="3.56" ry="3.56"/><path class="cls-9" d="m229.57,116.26h-9.76c-2.24,0-4.06-1.82-4.06-4.06s1.82-4.06,4.06-4.06h9.76c2.24,0,4.06,1.82,4.06,4.06s-1.82,4.06-4.06,4.06Zm-9.76-7.12c-1.69,0-3.06,1.37-3.06,3.06s1.37,3.06,3.06,3.06h9.76c1.69,0,3.06-1.37,3.06-3.06s-1.37-3.06-3.06-3.06h-9.76Z"/><path class="cls-9" d="m238.98,126.77h-37.59c-.28,0-.5-.22-.5-.5s.22-.5.5-.5h37.59c.28,0,.5.22.5.5s-.22.5-.5.5Z"/><path class="cls-9" d="m243.66,124.12h-37.59c-.28,0-.5-.22-.5-.5s.22-.5.5-.5h37.59c.28,0,.5.22.5.5s-.22.5-.5.5Z"/><path class="cls-9" d="m245.3,121.34h-24.24c-.28,0-.5-.22-.5-.5s.22-.5.5-.5h24.24c.28,0,.5.22.5.5s-.22.5-.5.5Z"/><path class="cls-9" d="m145.05,47.68h-37.59c-.28,0-.5-.22-.5-.5s.22-.5.5-.5h37.59c.28,0,.5.22.5.5s-.22.5-.5.5Z"/><path class="cls-9" d="m149.74,45.03h-37.59c-.28,0-.5-.22-.5-.5s.22-.5.5-.5h37.59c.28,0,.5.22.5.5s-.22.5-.5.5Z"/><path class="cls-9" d="m151.38,42.25h-24.24c-.28,0-.5-.22-.5-.5s.22-.5.5-.5h24.24c.28,0,.5.22.5.5s-.22.5-.5.5Z"/><path class="cls-9" d="m75.39,134.19h-37.59c-.28,0-.5-.22-.5-.5s.22-.5.5-.5h37.59c.28,0,.5.22.5.5s-.22.5-.5.5Z"/><path class="cls-9" d="m80.08,131.54h-37.59c-.28,0-.5-.22-.5-.5s.22-.5.5-.5h37.59c.28,0,.5.22.5.5s-.22.5-.5.5Z"/><path class="cls-9" d="m81.72,128.76h-24.24c-.28,0-.5-.22-.5-.5s.22-.5.5-.5h24.24c.28,0,.5.22.5.5s-.22.5-.5.5Z"/></svg>