<svg width="447" height="544" viewBox="0 0 447 544" fill="none" xmlns="http://www.w3.org/2000/svg">
<path d="M416.87 363.991L411.284 361.227L405.959 363.991L411.403 366.708L416.87 363.991ZM387.9 324.752L382.338 321.917L376.989 324.752L382.67 327.705L387.9 324.752ZM382.338 316.743L394.598 321.728V328.414L391.877 330.02V353.644L400.728 350.36L407.213 354.211V317.24H422.669V354.542L418.124 357.944L423 360.306V366.543L411.758 371.646L398.906 366.543V360.873L404.586 357.92L400.515 355.558L391.995 359.314V371.079H372.777V365.291H376.09V330.729L370.173 328.366V321.917L382.338 316.743ZM352.233 284.756L347.002 281.591L341.653 284.756L346.884 287.709L352.233 284.756ZM336.991 282.607L347.381 278L357.487 282.725V286.245L350.789 289.529H363.735L374.197 283.528L381.013 287.261L368.28 293.734H339.168V290.757H342.647V289.056L336.967 286.221L336.991 282.607ZM366.315 303.301L361.582 300.939L357.037 303.301L361.582 306.136L366.315 303.301ZM340.067 303.183L328.825 308.617H353.132L340.067 303.183ZM340.067 297.844L354.055 304.199V301.246L362.102 297.844L369.203 300.797V306.231L365.44 307.152V313.838H323.713V305.664L340.067 297.844ZM339.736 324.043L334.837 321.681L330.529 324.043L335.074 326.642L339.736 324.043ZM335.31 316.554L346.884 321.775V333.587L342.789 336.658V365.125H349.606V317.24H365.747V371.079H324.163V365.763H327.121V337.414L342.221 330.705L342.008 329.122L334.624 331.745L324.849 327.87V320.523L335.31 316.554ZM320.423 313.389H305.773V300.561H320.423V313.389ZM295.998 334.934L291.453 332.217L286.72 334.934L291.264 337.887L295.998 334.934ZM286.909 316.436L293.607 321.161L300.424 317.523H304.779L319.902 323.193V371.079H304.092V323.831L300.921 322.366L293.536 326.902L287.051 323.5L277.584 327.02V340.745L279.525 342.21L284.258 339.375L281.063 337.438V332.335L291.406 327.918L301.512 332.453V338.572L292.045 342.328V371.079H273.111V365.291H276.306V346.014L272.543 344.313V323.831L286.909 316.436ZM262.697 365.196L257.963 362.834L252.946 365.196L257.963 368.031L262.697 365.196ZM238.177 365.196L233.443 362.834L228.568 365.196L233.443 368.031L238.177 365.196ZM262.129 317.24V358.865L268.851 362.031V367.937L258.153 372L246.129 367.464V317.24H262.129ZM237.609 317.24V358.865L244.307 362.031V367.937L233.633 372L221.586 367.464V317.24H237.609ZM187.03 302.569L175.197 308.357H199.882L187.03 302.569ZM169.99 304.719L186.699 296.568L201.137 302.451V297.23H217.373V313.578H170.037L169.99 304.719ZM184.19 323.618L179.883 320.996L175.149 323.618L179.883 326.335L184.19 323.618ZM186.557 364.653L181.824 362.291L177.09 364.653L181.824 367.015L186.557 364.653ZM194.084 361.629V367.63L182.037 371.929L169.99 367.204V361.629L174.723 359.574L172.688 357.542V328.91L167.694 326.547V321.232L180.072 315.893L191.433 320.618V327.87L187.788 329.24V355.227L195.054 351.825L201.089 355.227V317.24H216.876V371.079H201.35V361.109L195.338 357.353L190.344 359.716L194.084 361.629ZM142.014 317.169H153.304L162.771 322.153V371.079H145.801V321.09H144.097L136.736 325.295L134.369 321.468L142.014 317.169ZM107.009 337.013L102.134 334.65L97.5893 337.013L102.465 339.73L107.009 337.013ZM100.997 317.169H114.181L129.896 323.831V371.079H113.991V324.161L111.837 322.673H101.045L88.5481 327.209V342.068L91.3883 345.352V334.698L102.063 329.713L112.405 334.816V340.486L103.435 344.454V371.079H87.7434V348.187L83.1992 344.431V324.256L100.997 317.169ZM57.9454 317.169H69.1877L78.6549 322.153V371.079H61.7323V321.09H60.0282L52.6438 325.295L50.277 321.539L57.9454 317.169ZM33.7805 363.991L29.0469 361.393L24.0056 363.991L29.1179 367.063L33.7805 363.991ZM40.4785 331.461V366.118L29.1179 371.787L17.7573 367.063V361.393L25.7097 357.424V332.879L13 327.327V322.012L23.4376 317.287H36.4076C36.8011 318.28 37.4916 319.128 38.3852 319.716C39.2788 320.303 40.332 320.602 41.4015 320.57C42.5813 320.648 43.7532 320.33 44.7309 319.666C45.7087 319.003 46.4362 318.032 46.7978 316.909V323.996C46.4279 325.325 45.5868 326.476 44.431 327.232C43.265 328.038 41.8723 328.452 40.4548 328.414C38.9368 328.197 37.5621 327.401 36.6206 326.193C35.8867 325.61 35.293 324.87 34.8834 324.028C34.4738 323.186 34.2587 322.263 34.2538 321.326H28.1002L22.7749 325.177L40.4785 331.461Z" fill="white"/>
<path d="M403.119 229.705L399.548 227.841L396.142 229.705L399.714 231.499L403.119 229.705ZM388.219 252.737V237.941L385.57 236.171V222.649L396.568 216.796H409.174L421 221.799V257.15H409.34V221.752L407.826 220.808H397.183L389.094 224.301V233.74L390.962 235.274L394.014 233.316L391.294 231.451V227.959L399.311 224.136L407.4 227.959V231.876L400.305 235.015V257.15H385.688V252.832L388.219 252.737ZM375.707 251.038L373.153 249.575L370.433 251.038L372.798 252.808L375.707 251.038ZM365.915 216.796H373.153L381.928 220.029V253.068L372.632 257.15L364.898 253.162V248.914L370.93 245.941V221.044H365.395L358.938 224.773V221.044L365.915 216.796ZM335.523 221.894L331.857 220.1L328.617 221.894L332.023 223.853L335.523 221.894ZM332.188 216.277L340.868 220.195V229.021L337.817 231.381V252.619H342.926V216.796H354.941V257.15H323.934V253.162H326.157V231.923L337.462 226.92L337.297 225.717L331.762 227.676L324.454 224.796V219.345L332.188 216.277ZM314.899 251.676L310.736 249.646L306.739 251.676L310.831 253.705L314.899 251.676ZM293.187 222.271L289.024 220.147L285.027 222.271L289.284 224.49L293.187 222.271ZM289.024 216.254L298.177 220.1V225.127L296.119 226.307V244.053L302.766 241.693L307.496 244.572V216.796H319.085V244.737L315.679 247.286L319.345 249.08V253.799L310.902 257.622L301.299 253.799V249.552L305.556 247.333L302.482 245.634L296.096 248.442V257.15H281.716V252.832H284.081V226.897L279.658 225.127V220.265L289.024 216.254ZM272.468 252.431L268.896 250.566L265.491 252.525L268.967 254.484L272.468 252.431ZM261.139 213.611L263.504 212.265L261.139 210.802L258.774 212.265L261.139 213.611ZM261.564 207.499H268.471L274.171 210.802V215.664L271.285 218.708V247.711L276.82 250.425V254.602L269.157 257.74L259.862 254.437V224.112L268.967 216.206C269.462 215.954 269.871 215.562 270.144 215.08C270.417 214.597 270.543 214.045 270.505 213.493C270.527 213.241 270.527 212.989 270.505 212.737C270.408 212.36 270.248 212.001 270.032 211.676C269.791 211.294 269.468 210.971 269.086 210.732C268.63 210.458 268.103 210.327 267.572 210.354C267.368 210.327 267.161 210.327 266.957 210.354V213.752L261.186 216.655L254.54 213.752V210.448L261.564 207.499ZM235.642 216.796H244.062L251.158 220.525V257.15H238.48V219.676H237.203L231.669 222.814L229.966 220.029L235.642 216.796ZM208.301 207.097L204.375 204.903L200.449 207.097L204.28 209.316L208.301 207.097ZM196.972 205.587L204.635 202.26L212.203 205.658V208.207L207.26 210.755H216.816L224.857 206.342L229.966 209.15L220.34 213.87H198.509V211.746H201.064V210.401L196.901 208.183L196.972 205.587ZM204.966 252.053L201.489 250.26L197.729 252.053L201.489 254.012L204.966 252.053ZM204.209 216.796H216.981L226.253 221.044V257.15H214.947V233.788L207.71 231.192V248.348L209.933 249.363V254.083L201.205 258L192.431 254.248V249.528L195.931 247.829V230.319L207 225.811L214.994 229.398V221.044L212.96 220.029H205.415L195.955 223.003V220.029L204.209 216.796ZM184.791 221.516L181.977 220.077L178.997 221.776L181.977 223.546L184.791 221.516ZM165.468 221.776L162.488 220.077L159.768 221.776L162.488 223.546L165.468 221.776ZM162.488 215.994L171.002 219.817V224.324L168.779 225.764V246.578L173.036 227.534L176.016 226.024L172.965 224.112V220.549L181.74 216.041L190.255 219.605V224.324L187.7 225.764L189.238 227.298V257.15H178.169V226.732L176.466 228.006L169.654 257.15H154.659V252.903H156.882V226.212L153.642 224.112V219.864L162.488 215.994ZM146.57 252.785L143.07 250.897L139.404 252.785L143.07 254.909L146.57 252.785ZM146.215 216.844V248.018L151.253 250.378V254.791L143.164 257.858L134.224 254.46V216.796L146.215 216.844ZM100.591 257.15V226.826L96.8545 225.292V222.578L107.829 216.796H118.827L131.599 222.814V257.15H119.324V222.578L117.124 221.304H109.106L104.849 224.112L111.589 227.086V257.15H100.591ZM80.0855 206.861L77.271 205.233L74.4564 207.097L77.3419 208.796L80.0855 206.861ZM71.1215 205.398L76.9162 202L82.8054 205.233V208.112H93.0939L100.521 204.124L102.649 207.003L93.7088 211.864H77.1527L71.1215 208.985V205.398ZM69.5132 221.54L66.3912 219.605L62.8908 221.54L66.3912 223.593L69.5132 221.54ZM71.2871 252.218L67.8103 250.519L64.3099 252.218L67.8103 253.988L71.2871 252.218ZM76.8216 250V254.507L67.8103 257.74L58.7754 254.248V250.071L62.2758 248.537L60.7385 247.003V225.528L57.0015 223.829V219.817L66.3912 215.853L74.9058 219.345V224.773L72.1859 225.788V245.351L77.6257 242.802L82.1196 245.351V216.796H93.9454V257.15H82.3797V249.67L77.8623 246.885L74.1253 248.655L76.8216 250ZM49.0782 221.469L46.2637 220.029L43.2836 221.729L46.2637 223.499L49.0782 221.469ZM29.7549 221.729L26.7748 220.029L24.0548 221.752L26.7748 223.522L29.7549 221.729ZM26.7748 215.947L35.2893 219.77V224.277L33.0661 225.717V246.531L37.3234 227.487L40.3035 225.976L37.3234 224.112V220.549L46.0981 216.041L54.6127 219.605V224.324L52.0583 225.764L53.5957 227.298V257.15H42.5267V226.732L40.8238 228.006L34.0121 257.15H19.088V252.903H21.3112V226.212L18 224.112V219.864L26.7748 215.947Z" fill="white"/>
<path d="M399.269 136.047L394.537 133.535L389.994 136.047L394.726 138.418L399.269 136.047ZM379.394 166.865V147.071L375.868 144.7V126.589L390.514 118.742H407.313L423 125.356V172.767H407.668V125.356L405.61 124.124H391.413L380.624 128.865V141.618L383.132 143.657L387.225 141.049L383.582 138.536V133.795L394.253 128.675L405.042 133.795V139.011L395.578 143.23V172.767H375.963V166.865H379.394ZM342.578 165.964L337.846 163.593L332.83 165.964L337.846 168.571L342.578 165.964ZM341.561 118.742H358.596L370.971 124.432V172.767H355.994V141.5L346.34 137.849V160.915L349.298 162.289V168.643L337.586 174L325.898 168.998V162.55L330.63 160.18V136.83L345.394 130.808L356.065 135.55V124.408L353.273 122.986H343.264L330.559 126.968V122.986L341.561 118.742ZM300.794 118.742H312.08L321.544 123.744V172.767H304.603V122.606H302.9L295.518 126.826L293.152 122.986L300.794 118.742ZM265.824 138.655L260.926 136.284L256.383 138.655L261.281 141.381L265.824 138.655ZM259.791 118.742H272.969L288.633 125.356V172.767H272.733V125.688L270.58 124.195H259.791L247.298 128.746V143.657L250.137 146.952V136.261L260.808 131.259L271.147 136.379V142.069L262.18 146.051V172.767H246.517V149.702L241.974 145.933V125.688L259.791 118.742ZM216.752 118.742H227.991L237.455 123.744V172.767H220.491V122.606H218.787L211.405 126.826L209.039 123.057L216.752 118.742ZM192.571 165.656L187.839 163.048L182.8 165.656L187.91 168.737L192.571 165.656ZM199.267 133.013V167.789L187.91 173.478L176.553 168.737V163.048L184.503 159.066V134.435L171.774 128.865V123.531L182.232 118.79H195.174C195.578 119.776 196.272 120.615 197.164 121.195C198.056 121.775 199.103 122.069 200.166 122.037C201.346 122.121 202.52 121.81 203.505 121.154C204.489 120.498 205.229 119.533 205.608 118.41V125.522C205.238 126.856 204.398 128.01 203.242 128.77C202.076 129.578 200.684 129.993 199.267 129.955C197.739 129.749 196.354 128.948 195.411 127.727C194.653 127.154 194.035 126.417 193.6 125.572C193.166 124.726 192.928 123.794 192.903 122.843H186.893L181.546 126.707L199.267 133.013ZM167.586 114.878H152.916V102.006H167.586V114.878ZM143.168 136.498L138.626 133.772L133.894 136.498L138.507 139.58L143.168 136.498ZM134.083 117.936L140.779 122.677L147.593 119.027H152.017L167.113 124.716V172.767H151.331V125.356L148.161 123.886L140.779 128.414L134.296 125.001L124.832 128.533V142.306L126.772 143.775L131.504 140.931L128.333 138.987V133.866L138.673 129.434L148.776 133.985V140.125L139.312 143.894V172.767H120.383V166.865H123.578V147.521L119.816 145.814V125.356L134.083 117.936ZM109.878 166.865L105.146 164.376L100.154 166.865L105.146 169.709L109.878 166.865ZM85.3424 166.865L80.6103 164.376L75.7126 166.865L80.6103 169.709L85.3424 166.865ZM109.31 118.742V160.512L116.006 163.688V169.614L105.335 173.692L93.2923 169.14V118.742H109.31ZM84.7745 118.742V160.512L91.4941 163.688V169.614L80.7996 173.692L68.7801 169.14V118.742H84.7745ZM34.3542 104.021L22.524 109.829H47.2018L34.3542 104.021ZM17.3187 106.178L34.023 98L48.4321 103.903V98.5926H64.6868V114.997H17.366L17.3187 106.178ZM31.6333 125.143L27.3271 122.512L22.595 125.143L27.3271 127.869L31.6333 125.143ZM33.9993 166.319L29.2672 163.949L24.5351 166.319L29.2672 168.69L33.9993 166.319ZM41.405 163.285V169.306L29.3619 173.621L17.3187 168.88V163.285L22.0508 161.223L20.016 159.184V130.453L15 128.082V122.843L27.3981 117.486L38.755 122.227V129.505L35.1113 130.88V156.956L42.3514 153.566L48.3848 156.979V118.742H64.119V172.767H48.6688V162.669L42.659 158.9L37.643 161.27L41.405 163.285Z" fill="white"/>
<path d="M393.698 23.7331L389.438 21.3503L385.343 23.7331L389.438 25.8777L393.698 23.7331ZM374.267 18.3241L383.734 54.2573V28.0937L379.9 26.2828V21.66L389.367 17.633L399 21.9222V26.3066L395.663 28.189V59.0707H378.882L368.373 18.3241H374.267ZM351.261 8.29229L348.445 6.64813L345.628 8.53058L348.539 10.2462L351.261 8.29229ZM342.386 6.81493L348.184 3.38364L353.983 6.64813V9.5552H364.302L371.711 5.5282L373.841 8.43527L364.894 13.3439H348.326L342.433 10.3415L342.386 6.81493ZM343.664 53.9238L340.184 52.1128L336.421 53.9238L340.184 55.9015L343.664 53.9238ZM342.906 18.3241H355.687L364.965 22.6132V59.0707H353.723V35.4805L346.48 32.8594V50.1827L348.705 51.2073V55.973L339.924 60L331.143 56.2113V51.4456L334.646 49.7299V31.9539L345.723 27.4027L353.723 31.0246V22.6132L351.687 21.5886H344.184L334.717 24.5909V21.5886L342.906 18.3241ZM311.049 33.336L307.38 31.6203L303.972 33.4075L307.641 35.4805L311.049 33.336ZM306.528 18.3241H316.398L328.232 23.3757V59.0707H316.398V23.5425L314.788 22.4464H306.694L297.227 25.8777V37.1009L299.357 39.4837V31.525L307.357 27.7601L315.12 31.6203V35.9095L308.374 38.9118V59.0707H296.54V41.6521L293.132 38.8165V23.5425L306.528 18.3241ZM284.209 53.6616L280.02 51.6124L276.02 53.6616L280.114 55.7109L284.209 53.6616ZM262.482 23.9714L258.292 21.8268L254.292 23.9714L258.553 26.2113L262.482 23.9714ZM258.292 17.8952L267.405 21.66V26.7355L265.369 27.9269V45.8459L271.996 43.4631L276.872 46.2748V18.3241H288.446V46.5369L285.037 49.1104L288.706 50.9214V55.6871L280.28 59.5473L270.647 55.6871V51.3979L274.907 49.1581L271.831 47.4424L265.44 50.278V59.0707H251.05V54.6148H253.417V28.4035L248.991 26.6164V21.8268L258.292 17.8952ZM241.724 54.4241L238.151 52.5417L234.742 54.5195L238.245 56.4972L241.724 54.4241ZM230.34 15.2264L232.707 13.8682L230.34 12.3908L227.973 13.8682L230.34 15.2264ZM230.766 9.03098H237.677L243.381 12.367V17.2756L240.494 20.3495V49.5393L246.103 52.2796V56.4972L238.435 59.6664L229.133 56.3304V25.7109L238.269 17.7284C238.757 17.4675 239.16 17.0699 239.429 16.5837C239.698 16.0975 239.821 15.5433 239.784 14.9881C239.818 14.7351 239.818 14.4786 239.784 14.2256C239.686 13.844 239.526 13.4816 239.31 13.1533C239.079 12.769 238.763 12.443 238.387 12.2002C237.922 11.9262 237.387 11.7938 236.849 11.8189C236.653 11.7912 236.453 11.7912 236.257 11.8189V15.2502L230.269 18.3241L223.618 15.3932V12.0572L230.766 9.03098ZM214.198 52.8753L211.642 51.3979L208.92 52.8753L211.287 54.6624L214.198 52.8753ZM204.352 18.3241H211.595L220.376 21.5886V54.9484L211.098 59.0707L203.335 55.0437V50.7546L209.394 47.7522V22.6132H203.855L197.37 26.3781V22.6132L204.352 18.3241ZM177.607 18.3241H186.033L193.134 22.089V59.0707H180.424V21.2311H179.146L173.607 24.4003L171.903 21.5886L177.607 18.3241ZM150.176 8.53058L146.247 6.31453L142.341 8.53058L146.176 10.7705L150.176 8.53058ZM138.839 7.00556L146.507 3.64575L154.081 7.07705V9.65052L149.063 12.224H158.767L166.696 7.76807L171.808 10.6037L162.176 15.3693H140.448V13.2248H143.004V11.8904L138.839 9.65052V7.00556ZM149.063 23.471L145.418 21.66L142.176 23.471L145.584 25.4488L149.063 23.471ZM145.75 17.7998L154.436 21.7554V30.6672L151.383 33.05V54.4956H156.4V18.3241H168.495V59.0707H137.395V54.9484H139.596V33.5028L150.933 28.4512L150.767 27.2359L145.229 29.2137L137.892 26.3066V20.8022L145.75 17.7998ZM108.827 23.6378L105.419 21.5886L102.2 23.6378L105.608 25.8777L108.827 23.6378ZM108.236 18.3241L114.295 20.7069V25.4726L111.809 27.0214V54.305H122.294V18.3241H134.129V59.0707H97.8452V54.9484H100.756V27.6648L96.8275 25.7109V21.0643L102.887 18.3241H108.236ZM90.8631 11.4138L88.8986 10.4607L86.8631 11.5806L88.8986 12.6052L90.8631 11.4138ZM69.9877 5.14694L76.2124 1.88245H86.4371L88.9933 0L91.3601 1.88245L87.7152 5.40905H76.4728L73.7509 7.1247V12.7006H76.6385L79.952 8.41144L82.9342 10.4607H84.6383L88.9933 7.7919L93.1589 10.4607V13.7252L88.6619 16.108L80.8041 12.0572L77.9165 15.5838H69.9877V5.14694ZM63.0055 59.0707V28.4512L59.266 26.9023V24.162L70.248 18.3241H81.2301L94.0109 24.4003V59.0707H81.7508V24.162L79.526 22.8753H71.5261L67.2658 25.7109L73.9876 28.7133V59.0707H63.0055ZM52.3548 54.7101L48.8519 52.8038L45.207 54.7101L48.8519 56.8546L52.3548 54.7101ZM52.0235 18.3241V49.8014L57.0411 52.1843V56.6878L48.9466 59.7855L40 56.3543V18.2288L52.0235 18.3241Z" fill="white"/>
<path d="M385.114 539.696C385.105 540.114 384.972 540.52 384.732 540.863C384.492 541.206 384.156 541.471 383.766 541.625C383.375 541.779 382.948 541.814 382.538 541.727C382.127 541.64 381.752 541.434 381.458 541.135C381.165 540.836 380.966 540.457 380.888 540.046C380.809 539.635 380.854 539.211 381.017 538.825C381.18 538.439 381.453 538.11 381.802 537.879C382.152 537.647 382.562 537.524 382.982 537.524C383.275 537.488 383.572 537.52 383.85 537.617C384.129 537.715 384.381 537.875 384.587 538.085C384.793 538.295 384.948 538.55 385.04 538.829C385.131 539.108 385.157 539.405 385.114 539.696ZM386.417 528.883C385.466 528.058 384.243 527.612 382.982 527.631L375.874 527.041V526.309C375.848 525.837 375.915 525.364 376.074 524.918C376.233 524.472 376.479 524.062 376.798 523.712C377.612 523.038 378.658 522.707 379.712 522.791C380.673 522.805 381.632 522.892 382.579 523.051C383.556 523.231 384.547 523.326 385.541 523.334C386.236 523.334 386.852 523.334 387.389 523.334C387.934 523.306 388.474 523.219 389 523.075L388.526 520.005C387.988 520.125 387.441 520.204 386.891 520.241C386.323 520.241 385.73 520.241 385.138 520.241C384.518 520.251 383.898 520.196 383.29 520.076C382.745 520.076 382.176 519.887 381.537 519.816C380.751 519.712 379.96 519.664 379.167 519.675C377.287 519.582 375.447 520.235 374.05 521.493C373.437 522.115 372.958 522.854 372.64 523.665C372.323 524.477 372.174 525.344 372.202 526.215V529.662L381.513 530.346C382.195 530.315 382.864 530.543 383.385 530.984C383.759 531.477 383.936 532.091 383.882 532.707V535.446C383.614 535.421 383.345 535.421 383.077 535.446C381.899 535.383 380.742 535.782 379.855 536.556C379.445 536.947 379.124 537.421 378.916 537.947C378.707 538.473 378.615 539.037 378.646 539.601C378.621 540.174 378.714 540.745 378.917 541.281C379.121 541.817 379.432 542.306 379.831 542.718C380.722 543.504 381.888 543.911 383.077 543.851C383.681 543.886 384.286 543.794 384.853 543.583C385.42 543.372 385.937 543.045 386.37 542.624C386.787 542.156 387.106 541.61 387.31 541.018C387.513 540.427 387.596 539.801 387.555 539.177V531.787C387.609 530.705 387.235 529.645 386.512 528.835M357.939 533.675C357.565 533.246 357.36 532.697 357.36 532.129C357.36 531.561 357.565 531.012 357.939 530.583C358.134 530.367 358.377 530.2 358.648 530.093C358.92 529.987 359.212 529.944 359.502 529.969C359.789 529.944 360.078 529.987 360.345 530.094C360.613 530.2 360.851 530.368 361.042 530.583C361.416 531.012 361.621 531.561 361.621 532.129C361.621 532.697 361.416 533.246 361.042 533.675C360.851 533.89 360.613 534.058 360.345 534.164C360.078 534.271 359.789 534.314 359.502 534.289C359.212 534.314 358.92 534.271 358.648 534.165C358.377 534.058 358.134 533.891 357.939 533.675ZM353.958 543.568L361.066 537.146C361.817 536.468 362.507 535.726 363.127 534.927C363.695 534.05 363.965 533.014 363.897 531.972C363.829 530.93 363.426 529.938 362.748 529.142C362.335 528.727 361.839 528.402 361.292 528.191C360.745 527.979 360.159 527.885 359.573 527.915C358.408 527.868 357.269 528.274 356.398 529.048C355.98 529.448 355.653 529.934 355.441 530.472C355.228 531.01 355.134 531.587 355.166 532.164C355.152 533.006 355.401 533.831 355.877 534.525C356.343 535.16 356.986 535.644 357.725 535.918L353.247 539.885V539.318C353.253 538.529 353.205 537.74 353.105 536.957C353.105 536.249 352.892 535.541 352.773 534.832C352.655 534.124 352.56 533.345 352.465 532.471C352.354 531.46 352.298 530.443 352.3 529.426C352.23 527.799 352.555 526.179 353.247 524.704C353.44 524.24 353.747 523.832 354.141 523.518C354.535 523.204 355.001 522.995 355.498 522.909L359.313 525.79H359.573L363.364 522.957C363.779 522.978 364.184 523.088 364.552 523.28C364.92 523.471 365.242 523.74 365.497 524.066C366.037 524.875 366.303 525.835 366.255 526.805V543.568H369.927V527.041C370.053 526.072 369.958 525.086 369.649 524.159C369.339 523.231 368.824 522.385 368.14 521.684C367.457 520.982 366.624 520.444 365.702 520.108C364.781 519.773 363.795 519.649 362.819 519.746L359.313 522.532L355.948 519.864C354.492 519.812 353.058 520.23 351.858 521.055C350.659 521.88 349.758 523.069 349.291 524.444C348.772 525.907 348.516 527.449 348.532 529.001C348.512 530.223 348.576 531.446 348.722 532.66C348.84 533.675 348.983 534.573 349.148 535.399C349.314 536.225 349.433 536.981 349.575 537.76C349.702 538.604 349.766 539.456 349.764 540.31V543.686L353.958 543.568ZM332.492 529.921C332.461 529.691 332.484 529.456 332.558 529.236C332.633 529.015 332.758 528.815 332.923 528.65C333.088 528.486 333.289 528.362 333.51 528.287C333.731 528.213 333.967 528.19 334.198 528.222C334.432 528.187 334.671 528.207 334.896 528.28C335.121 528.352 335.327 528.476 335.496 528.64C335.666 528.804 335.795 529.005 335.874 529.228C335.953 529.45 335.979 529.687 335.951 529.921C335.951 531.031 335.359 531.574 334.198 531.574C333.97 531.609 333.738 531.59 333.518 531.52C333.299 531.45 333.098 531.33 332.933 531.17C332.768 531.01 332.642 530.814 332.566 530.597C332.489 530.381 332.464 530.149 332.492 529.921ZM322.044 524.019C322.044 522.579 322.731 521.847 324.152 521.847C324.73 521.847 325.285 522.076 325.694 522.483C326.102 522.89 326.332 523.443 326.332 524.019C326.332 524.595 326.102 525.148 325.694 525.555C325.285 525.962 324.73 526.191 324.152 526.191C322.731 526.191 322.044 525.459 322.044 524.019ZM339.268 534.549V536.91C339.348 537.899 339.098 538.886 338.558 539.72C338.178 540.067 337.727 540.327 337.236 540.482C336.745 540.637 336.225 540.683 335.715 540.617H328.607V524.562C328.651 523.934 328.57 523.303 328.366 522.707C328.163 522.111 327.842 521.562 327.422 521.091C326.985 520.677 326.467 520.356 325.901 520.149C325.334 519.942 324.731 519.853 324.129 519.887C322.951 519.827 321.796 520.225 320.906 520.997C320.493 521.405 320.171 521.896 319.963 522.437C319.755 522.979 319.664 523.558 319.698 524.137C319.67 524.703 319.766 525.269 319.979 525.795C320.191 526.32 320.516 526.794 320.93 527.183C321.823 527.933 322.962 528.328 324.129 528.292H324.958V543.733H335.738C337.697 543.91 339.653 543.364 341.235 542.199C341.848 541.522 342.312 540.725 342.598 539.859C342.883 538.993 342.984 538.077 342.893 537.17V533.77C344.147 533.277 345.303 532.566 346.305 531.669C347.245 530.85 348.045 529.885 348.675 528.812L346.045 527.183C345.217 528.505 344.119 529.639 342.822 530.512V520.171H339.174V531.81C338.858 531.834 338.541 531.834 338.226 531.81C337.926 531.836 337.625 531.836 337.326 531.81C337.468 531.516 337.579 531.207 337.657 530.889C337.687 530.623 337.687 530.353 337.657 530.087C337.684 529.608 337.605 529.129 337.425 528.684C337.245 528.239 336.968 527.839 336.615 527.513C335.842 526.844 334.841 526.498 333.819 526.545C333.288 526.509 332.754 526.582 332.253 526.761C331.751 526.94 331.292 527.22 330.905 527.584C330.58 527.919 330.326 528.315 330.155 528.748C329.984 529.182 329.901 529.645 329.91 530.11C329.899 530.834 330.102 531.544 330.494 532.153C330.886 532.761 331.449 533.242 332.113 533.534C333.852 534.376 335.772 534.781 337.705 534.714C338.162 534.749 338.622 534.749 339.079 534.714M302.497 520.855C301.139 521.455 299.968 522.409 299.109 523.618C298.327 524.74 297.913 526.076 297.924 527.442V528.859L302.876 530.559C301.716 530.81 300.679 531.452 299.938 532.377C299.118 533.452 298.707 534.782 298.777 536.131V543.71H302.45V536.178C302.392 535.593 302.454 535.002 302.634 534.442C302.813 533.882 303.105 533.364 303.492 532.92C303.862 532.582 304.295 532.32 304.767 532.15C305.238 531.979 305.739 531.904 306.241 531.928L306.667 529.426L301.62 527.584C301.752 526.228 302.406 524.976 303.445 524.09C304.652 523.196 306.137 522.753 307.638 522.839C309.151 522.783 310.638 523.241 311.856 524.137C312.452 524.638 312.919 525.276 313.216 525.995C313.513 526.714 313.631 527.494 313.562 528.269V543.71H317.234V527.891C317.332 526.217 316.874 524.557 315.931 523.169C315.068 521.964 313.863 521.043 312.472 520.525C310.958 519.953 309.352 519.665 307.733 519.675C305.951 519.641 304.182 519.987 302.544 520.69M294.299 539.696C294.29 540.114 294.157 540.52 293.917 540.863C293.677 541.206 293.341 541.471 292.951 541.625C292.56 541.779 292.133 541.814 291.723 541.727C291.312 541.64 290.937 541.434 290.643 541.135C290.35 540.836 290.151 540.457 290.073 540.046C289.994 539.635 290.039 539.211 290.202 538.825C290.364 538.439 290.638 538.11 290.987 537.879C291.337 537.647 291.747 537.524 292.167 537.524C292.46 537.488 292.757 537.52 293.035 537.617C293.313 537.715 293.565 537.875 293.772 538.085C293.978 538.295 294.133 538.55 294.224 538.829C294.316 539.108 294.341 539.405 294.299 539.696ZM287.926 520.171V539.295C287.884 539.919 287.968 540.545 288.171 541.137C288.374 541.728 288.694 542.274 289.11 542.742C289.544 543.163 290.06 543.49 290.627 543.701C291.194 543.912 291.799 544.004 292.404 543.969C293.593 544.032 294.76 543.625 295.65 542.836C296.049 542.424 296.36 541.935 296.563 541.399C296.767 540.863 296.859 540.292 296.834 539.72C296.865 539.155 296.773 538.591 296.565 538.065C296.356 537.539 296.036 537.065 295.626 536.674C294.738 535.9 293.582 535.501 292.404 535.564C292.136 535.539 291.866 535.539 291.598 535.564V520.171H287.926ZM280.415 539.767C280.406 540.185 280.273 540.591 280.033 540.934C279.793 541.277 279.457 541.542 279.067 541.696C278.676 541.85 278.249 541.885 277.839 541.798C277.428 541.71 277.053 541.504 276.759 541.205C276.466 540.906 276.267 540.528 276.189 540.117C276.11 539.706 276.155 539.281 276.318 538.896C276.48 538.51 276.754 538.181 277.103 537.95C277.453 537.718 277.863 537.595 278.283 537.595C278.576 537.559 278.873 537.591 279.151 537.688C279.429 537.786 279.681 537.945 279.888 538.156C280.094 538.366 280.249 538.62 280.34 538.9C280.432 539.179 280.457 539.476 280.415 539.767ZM281.718 528.953C280.767 528.129 279.544 527.683 278.283 527.702L271.175 527.112V526.38C271.146 525.906 271.215 525.43 271.378 524.983C271.541 524.537 271.795 524.128 272.123 523.783C272.52 523.447 272.98 523.193 273.476 523.035C273.972 522.877 274.494 522.819 275.013 522.862C275.974 522.876 276.932 522.963 277.88 523.122C278.865 523.303 279.864 523.398 280.865 523.405C281.529 523.405 282.145 523.405 282.69 523.405C283.235 523.378 283.775 523.291 284.301 523.145L283.827 520.076C283.289 520.196 282.742 520.275 282.192 520.312C281.624 520.312 281.031 520.312 280.439 520.312C279.819 520.322 279.199 520.267 278.591 520.147C278.046 520.147 277.477 519.958 276.838 519.887C276.052 519.783 275.26 519.735 274.468 519.746C272.588 519.652 270.748 520.306 269.351 521.564C268.738 522.185 268.259 522.924 267.941 523.736C267.624 524.548 267.474 525.415 267.503 526.286V529.733L276.79 530.417C277.48 530.383 278.158 530.61 278.686 531.055C279.059 531.548 279.237 532.162 279.183 532.778V535.517C278.915 535.493 278.646 535.493 278.378 535.517C277.199 535.454 276.043 535.852 275.155 536.627C274.745 537.017 274.425 537.492 274.217 538.018C274.008 538.543 273.916 539.108 273.947 539.672C273.922 540.245 274.014 540.816 274.218 541.352C274.422 541.888 274.733 542.376 275.132 542.789C276.023 543.575 277.188 543.982 278.378 543.922C278.982 543.957 279.587 543.865 280.154 543.654C280.721 543.442 281.238 543.116 281.671 542.694C282.088 542.227 282.407 541.681 282.61 541.089C282.814 540.498 282.897 539.871 282.856 539.247V531.857C282.91 530.776 282.535 529.716 281.813 528.906M253.382 523.145C254.357 522.897 255.36 522.77 256.367 522.768C257.1 522.682 257.843 522.758 258.543 522.99C259.243 523.223 259.884 523.606 260.418 524.113C261.228 525.272 261.621 526.67 261.532 528.08V543.639H265.181V527.702C265.181 522.366 262.337 519.698 256.651 519.698C255.301 519.693 253.955 519.86 252.647 520.194C251.531 520.466 250.443 520.845 249.401 521.327L250.586 524.113C251.479 523.71 252.407 523.386 253.358 523.145M233.503 520.784C232.149 521.391 230.98 522.344 230.115 523.547C229.333 524.669 228.919 526.005 228.93 527.372V528.788L233.882 530.488C232.722 530.74 231.685 531.382 230.944 532.306C230.124 533.381 229.713 534.711 229.783 536.06V543.639H233.456V536.107C233.398 535.522 233.46 534.931 233.64 534.371C233.819 533.811 234.111 533.293 234.498 532.849C234.868 532.511 235.301 532.249 235.773 532.079C236.244 531.908 236.745 531.833 237.247 531.857L237.673 529.355L232.65 527.513C232.763 526.157 233.411 524.901 234.451 524.019C235.66 523.129 237.143 522.686 238.645 522.768C240.165 522.712 241.659 523.17 242.886 524.066C243.482 524.568 243.949 525.205 244.246 525.924C244.542 526.643 244.661 527.423 244.591 528.198V543.639H248.24V527.82C248.339 526.146 247.881 524.487 246.937 523.098C246.074 521.893 244.869 520.973 243.478 520.454C241.964 519.882 240.358 519.594 238.739 519.604C236.957 519.57 235.188 519.916 233.551 520.619M219.335 523.948C219.287 523.656 219.309 523.358 219.399 523.076C219.489 522.794 219.644 522.537 219.851 522.326C220.058 522.115 220.313 521.955 220.593 521.859C220.874 521.764 221.173 521.735 221.467 521.776C222.889 521.776 223.576 522.508 223.576 523.948C223.576 525.388 222.889 526.12 221.467 526.12C221.173 526.161 220.874 526.132 220.593 526.037C220.313 525.941 220.058 525.782 219.851 525.57C219.644 525.359 219.489 525.102 219.399 524.82C219.309 524.539 219.287 524.24 219.335 523.948ZM225.945 524.42C225.987 523.791 225.901 523.159 225.693 522.563C225.486 521.967 225.161 521.418 224.737 520.95C224.303 520.538 223.789 520.219 223.226 520.012C222.664 519.805 222.066 519.714 221.467 519.746C220.282 519.682 219.118 520.08 218.221 520.855C217.808 521.263 217.486 521.754 217.278 522.296C217.069 522.837 216.979 523.416 217.013 523.995C216.985 524.562 217.081 525.127 217.293 525.653C217.506 526.179 217.831 526.652 218.245 527.041C219.144 527.797 220.292 528.192 221.467 528.151H222.273V537.595C222.337 538.362 222.137 539.129 221.704 539.767C221.445 540.037 221.125 540.242 220.771 540.366C220.417 540.489 220.038 540.526 219.666 540.475H217.818C217.241 537.903 216.448 535.384 215.449 532.944C214.489 530.472 213.381 528.059 212.132 525.719L208.886 527.088C211.575 532.344 213.649 537.889 215.07 543.615H219.643C221.258 543.7 222.855 543.234 224.168 542.293C224.762 541.735 225.22 541.05 225.508 540.289C225.795 539.528 225.904 538.711 225.827 537.902L225.945 524.42ZM195.144 523.051C196.119 522.801 197.122 522.674 198.13 522.673C198.862 522.59 199.605 522.668 200.304 522.9C201.004 523.133 201.645 523.515 202.181 524.019C202.982 525.181 203.367 526.579 203.271 527.985V543.544H206.943V527.608C206.943 522.272 204.1 519.604 198.414 519.604C196.957 519.594 195.506 519.785 194.102 520.171C192.985 520.442 191.898 520.822 190.856 521.304L192.064 524.09C192.954 523.678 193.883 523.354 194.836 523.122M168.774 524.019C168.783 523.601 168.916 523.195 169.156 522.852C169.396 522.508 169.732 522.243 170.123 522.09C170.513 521.936 170.94 521.901 171.351 521.988C171.761 522.075 172.137 522.281 172.43 522.58C172.724 522.879 172.922 523.258 173.001 523.669C173.079 524.08 173.034 524.504 172.871 524.89C172.709 525.275 172.436 525.605 172.086 525.836C171.736 526.067 171.326 526.191 170.906 526.191C170.614 526.227 170.316 526.195 170.038 526.097C169.76 526 169.508 525.84 169.301 525.63C169.095 525.42 168.94 525.165 168.849 524.886C168.757 524.607 168.732 524.31 168.774 524.019ZM175.384 543.615V535.493C175.376 533.905 175.551 532.32 175.906 530.771C176.223 529.348 176.733 527.974 177.422 526.687C178.008 525.584 178.814 524.612 179.791 523.83C180.615 523.16 181.642 522.786 182.705 522.768C183.213 522.721 183.725 522.795 184.199 522.984C184.673 523.172 185.095 523.471 185.43 523.854C186.028 524.718 186.32 525.757 186.259 526.805V543.639H189.932V526.309C189.992 524.58 189.391 522.892 188.25 521.587C187.611 520.951 186.843 520.459 185.996 520.145C185.15 519.831 184.246 519.703 183.345 519.769C181.642 519.738 179.976 520.27 178.607 521.28C177.177 522.395 176.073 523.871 175.408 525.554V524.586C175.449 523.956 175.364 523.325 175.156 522.728C174.949 522.132 174.624 521.584 174.2 521.115C173.766 520.702 173.253 520.382 172.69 520.175C172.128 519.968 171.529 519.878 170.93 519.911C169.745 519.847 168.58 520.245 167.684 521.021C167.271 521.428 166.949 521.92 166.741 522.461C166.532 523.002 166.442 523.582 166.476 524.161C166.448 524.729 166.545 525.297 166.763 525.823C166.98 526.35 167.31 526.822 167.731 527.206C168.624 527.956 169.763 528.351 170.93 528.316H171.736V543.757L175.384 543.615ZM152.118 533.723C151.744 533.293 151.539 532.744 151.539 532.176C151.539 531.608 151.744 531.059 152.118 530.63C152.549 530.258 153.1 530.053 153.67 530.053C154.24 530.053 154.791 530.258 155.222 530.63C155.595 531.059 155.801 531.608 155.801 532.176C155.801 532.744 155.595 533.293 155.222 533.723C154.791 534.095 154.24 534.3 153.67 534.3C153.1 534.3 152.549 534.095 152.118 533.723ZM148.137 543.615L155.245 537.193C156.004 536.515 156.701 535.773 157.33 534.974C157.918 534.102 158.198 533.061 158.125 532.013C158.052 530.965 157.631 529.972 156.927 529.19C156.525 528.781 156.04 528.46 155.506 528.249C154.971 528.037 154.398 527.939 153.824 527.962C152.666 527.919 151.536 528.325 150.673 529.095C150.254 529.496 149.927 529.981 149.715 530.519C149.502 531.057 149.409 531.634 149.441 532.212C149.426 533.053 149.675 533.878 150.151 534.573C150.606 535.218 151.253 535.705 151.999 535.966L147.521 539.932V539.365C147.527 538.576 147.479 537.787 147.379 537.004C147.379 536.296 147.166 535.588 147.048 534.88C146.929 534.171 146.834 533.392 146.74 532.519C146.616 531.508 146.56 530.491 146.574 529.473C146.504 527.846 146.829 526.226 147.521 524.751C147.724 524.271 148.05 523.853 148.466 523.539C148.881 523.224 149.373 523.023 149.891 522.957L153.705 525.837H153.824L157.638 523.004C158.053 523.025 158.458 523.136 158.826 523.327C159.194 523.519 159.516 523.787 159.771 524.113C160.311 524.922 160.577 525.882 160.529 526.852V543.615H164.201V527.088C164.327 526.119 164.232 525.134 163.923 524.206C163.613 523.278 163.098 522.432 162.415 521.731C161.731 521.029 160.898 520.491 159.976 520.155C159.055 519.82 158.069 519.696 157.093 519.793L153.587 522.532L150.222 519.864C148.708 519.849 147.226 520.303 145.981 521.162C144.888 522.004 144.065 523.144 143.612 524.444C143.082 525.904 142.826 527.448 142.854 529.001C142.834 530.223 142.897 531.446 143.043 532.66C143.043 533.675 143.304 534.573 143.47 535.399C143.636 536.225 143.754 536.981 143.896 537.76C144.024 538.604 144.087 539.456 144.086 540.31V543.686L148.137 543.615ZM124.942 511.671C125.946 510.973 127.156 510.632 128.377 510.703C129.711 510.698 131.023 511.031 132.192 511.671C133.26 512.217 134.166 513.03 134.822 514.032H123.734C123.731 513.571 123.839 513.116 124.049 512.705C124.259 512.294 124.566 511.939 124.942 511.671ZM138.992 516.393L139.347 514.268C138.612 513.154 137.727 512.145 136.717 511.27C135.624 510.285 134.375 509.488 133.021 508.909C131.525 508.273 129.909 507.967 128.283 508.012C126.166 507.905 124.079 508.54 122.383 509.806C121.616 510.402 121.001 511.17 120.589 512.049C120.178 512.927 119.98 513.89 120.014 514.858L120.156 516.346L138.992 516.393ZM123.686 539.672C123.696 539.254 123.829 538.848 124.068 538.505C124.308 538.162 124.645 537.897 125.035 537.743C125.425 537.59 125.852 537.554 126.263 537.641C126.673 537.729 127.049 537.935 127.342 538.234C127.636 538.533 127.834 538.911 127.913 539.322C127.991 539.733 127.946 540.158 127.784 540.543C127.621 540.929 127.348 541.258 126.998 541.489C126.649 541.721 126.238 541.844 125.819 541.844C125.526 541.88 125.229 541.848 124.95 541.751C124.672 541.654 124.42 541.494 124.214 541.284C124.008 541.073 123.853 540.819 123.761 540.539C123.67 540.26 123.644 539.963 123.686 539.672ZM129.065 542.742C129.468 542.333 129.782 541.844 129.986 541.308C130.19 540.771 130.28 540.198 130.249 539.625C130.28 539.061 130.188 538.496 129.98 537.97C129.771 537.445 129.451 536.97 129.041 536.579C128.156 535.801 126.998 535.402 125.819 535.47C125.519 535.445 125.218 535.445 124.918 535.47V535.139C124.921 534.656 125.024 534.178 125.22 533.735C125.415 533.293 125.7 532.895 126.056 532.566C126.559 532.147 127.14 531.831 127.766 531.636C128.393 531.442 129.051 531.372 129.704 531.433C131.329 531.361 132.927 531.872 134.206 532.873C134.74 533.321 135.167 533.882 135.458 534.515C135.749 535.148 135.896 535.836 135.888 536.532V543.615H139.608V527.797C139.608 522.398 136.449 519.691 130.131 519.675C128.536 519.636 126.944 519.802 125.392 520.171C123.963 520.543 122.58 521.074 121.27 521.752L122.336 524.68C123.447 524.105 124.604 523.624 125.795 523.24C127.05 522.838 128.362 522.638 129.681 522.65C131.386 522.477 133.09 522.987 134.419 524.066C134.906 524.61 135.281 525.245 135.521 525.934C135.761 526.623 135.861 527.352 135.817 528.08V530.441C134.909 529.705 133.861 529.159 132.737 528.835C131.657 528.535 130.542 528.376 129.42 528.363C128.029 528.344 126.647 528.584 125.345 529.072C124.112 529.51 123.056 530.338 122.338 531.429C121.62 532.519 121.278 533.814 121.364 535.116V539.058C121.326 539.684 121.413 540.311 121.621 540.903C121.828 541.495 122.152 542.04 122.573 542.506C123 542.929 123.512 543.257 124.076 543.468C124.639 543.68 125.241 543.77 125.842 543.733C127.032 543.796 128.198 543.389 129.088 542.6M100.657 523.854C100.666 523.436 100.799 523.03 101.039 522.686C101.279 522.343 101.615 522.078 102.005 521.925C102.396 521.771 102.823 521.736 103.233 521.823C103.644 521.91 104.019 522.116 104.313 522.415C104.606 522.714 104.805 523.093 104.883 523.503C104.962 523.914 104.917 524.339 104.754 524.725C104.592 525.11 104.318 525.439 103.969 525.671C103.619 525.902 103.209 526.026 102.789 526.026C102.496 526.062 102.199 526.029 101.921 525.932C101.643 525.835 101.39 525.675 101.184 525.465C100.978 525.255 100.823 525 100.732 524.721C100.64 524.441 100.614 524.145 100.657 523.854ZM98.2874 543.45H102.41L108.167 535.824H108.333L114.091 543.45H118.284V520.171H114.517V539.058H114.351L109.139 532.259H107.267L102.031 539.058H101.889V528.127H102.718C103.887 528.179 105.032 527.782 105.917 527.017C106.335 526.632 106.662 526.159 106.875 525.632C107.088 525.106 107.181 524.539 107.149 523.972C107.182 523.393 107.092 522.813 106.884 522.272C106.675 521.731 106.354 521.24 105.94 520.832C105.051 520.06 103.896 519.662 102.718 519.722C102.116 519.689 101.513 519.778 100.947 519.985C100.38 520.192 99.8625 520.513 99.4247 520.926C99.005 521.397 98.684 521.946 98.4806 522.542C98.2771 523.138 98.1954 523.769 98.24 524.397L98.2874 543.45ZM78.409 539.531C78.4184 539.113 78.5513 538.706 78.7912 538.363C79.0311 538.02 79.3673 537.755 79.7577 537.602C80.148 537.448 80.5752 537.413 80.9857 537.5C81.3962 537.587 81.7717 537.793 82.0652 538.092C82.3587 538.391 82.5571 538.77 82.6356 539.18C82.7141 539.591 82.6692 540.016 82.5065 540.402C82.3438 540.787 82.0706 541.116 81.721 541.348C81.3714 541.579 80.9611 541.703 80.5414 541.703C80.2486 541.738 79.9515 541.706 79.6732 541.609C79.3949 541.512 79.1428 541.352 78.9365 541.142C78.7303 540.932 78.5754 540.677 78.4839 540.398C78.3924 540.118 78.3668 539.822 78.409 539.531ZM83.7873 542.6C84.1865 542.188 84.4973 541.699 84.7009 541.163C84.9046 540.627 84.9968 540.056 84.972 539.483C85.0029 538.919 84.9109 538.355 84.7024 537.829C84.4938 537.303 84.1736 536.829 83.7636 536.438C82.8733 535.668 81.7189 535.27 80.5414 535.328C80.2418 535.304 79.9407 535.304 79.6411 535.328V534.998C79.6443 534.514 79.7468 534.036 79.9424 533.594C80.138 533.151 80.4225 532.753 80.7783 532.424C81.2808 532.004 81.8622 531.687 82.4886 531.493C83.1149 531.298 83.7738 531.229 84.427 531.291C86.0456 531.214 87.637 531.726 88.905 532.731C89.4875 533.205 89.9436 533.815 90.2329 534.507C90.5222 535.199 90.6358 535.951 90.5635 536.697V543.78H94.2122V527.962C94.2122 522.555 91.0611 519.84 84.7351 519.84C83.1843 519.846 81.6402 520.044 80.1386 520.43C78.7172 520.803 77.3423 521.334 76.0397 522.012L77.1059 524.94C78.215 524.361 79.3724 523.879 80.5651 523.5C81.8122 523.097 83.1163 522.898 84.427 522.909C86.1323 522.74 87.8357 523.249 89.1656 524.326C89.6529 524.87 90.0273 525.505 90.2672 526.194C90.5072 526.882 90.6078 527.612 90.5635 528.34V530.701C89.6498 529.96 88.5935 529.413 87.4597 529.095C86.3875 528.794 85.2802 528.636 84.1664 528.623C82.7679 528.604 81.3779 528.844 80.0675 529.331C78.8412 529.777 77.793 530.607 77.0797 531.697C76.3664 532.787 76.0265 534.077 76.1108 535.375V539.318C76.0693 539.942 76.1527 540.568 76.3561 541.16C76.5594 541.752 76.8787 542.297 77.2955 542.765C77.7288 543.187 78.2454 543.513 78.8124 543.725C79.3794 543.936 79.9844 544.027 80.5888 543.993C81.7779 544.053 82.9433 543.646 83.8347 542.86M55.4032 524.113C55.4125 523.695 55.5454 523.289 55.7854 522.946C56.0253 522.603 56.3615 522.338 56.7518 522.184C57.1422 522.031 57.5694 521.995 57.9798 522.083C58.3903 522.17 58.7658 522.376 59.0593 522.675C59.3528 522.974 59.5512 523.352 59.6297 523.763C59.7083 524.174 59.6633 524.599 59.5007 524.984C59.338 525.37 59.0647 525.699 58.7151 525.93C58.3656 526.162 57.9552 526.285 57.5355 526.286C57.2428 526.321 56.9457 526.289 56.6673 526.192C56.389 526.095 56.1369 525.935 55.9307 525.725C55.7244 525.515 55.5695 525.26 55.478 524.98C55.3866 524.701 55.3609 524.404 55.4032 524.113ZM53.0339 543.71H57.1801L62.9375 536.084H63.1034L68.8608 543.71H73.007V520.171H69.1925V539.058H69.0266L63.7905 532.259H61.9187L56.6826 539.058V528.127H57.4882C58.6653 528.183 59.8188 527.785 60.7104 527.017C61.1203 526.627 61.4406 526.152 61.6491 525.626C61.8577 525.101 61.9497 524.536 61.9187 523.972C61.9556 523.395 61.8691 522.816 61.6649 522.275C61.4606 521.734 61.1434 521.242 60.7341 520.832C59.8292 520.071 58.6713 519.675 57.4882 519.722C56.8892 519.686 56.2894 519.775 55.7266 519.982C55.1638 520.189 54.6503 520.511 54.2185 520.926C53.7946 521.395 53.4693 521.943 53.2618 522.54C53.0542 523.136 52.9687 523.767 53.0102 524.397L53.0339 543.71Z" fill="white"/>
<path d="M408.209 471.833C409.19 471.582 410.198 471.454 411.21 471.452C411.937 471.367 412.674 471.445 413.369 471.68C414.063 471.914 414.697 472.3 415.227 472.81C416.045 473.973 416.437 475.387 416.337 476.81V492.5H420V476.429C420 471.048 417.165 468.357 411.494 468.357C410.147 468.352 408.805 468.52 407.5 468.857C406.387 469.131 405.303 469.514 404.263 470L405.444 472.81C406.336 472.402 407.261 472.076 408.209 471.833ZM402.727 465.071L402.94 460.524V457.262H399.206V460.524L399.419 465.071H402.727ZM394.622 479.81C394.995 480.242 395.2 480.796 395.2 481.369C395.2 481.942 394.995 482.496 394.622 482.929C394.432 483.145 394.194 483.314 393.927 483.421C393.661 483.529 393.373 483.572 393.087 483.548C392.797 483.572 392.505 483.529 392.235 483.422C391.964 483.314 391.722 483.146 391.527 482.929C391.191 482.479 391.01 481.932 391.01 481.369C391.01 480.806 391.191 480.259 391.527 479.81C391.726 479.598 391.969 479.433 392.239 479.326C392.508 479.219 392.797 479.173 393.087 479.19C393.372 479.171 393.658 479.217 393.924 479.324C394.19 479.431 394.429 479.597 394.622 479.81ZM385.171 470.81C384.211 471.717 383.465 472.83 382.987 474.066C382.508 475.302 382.31 476.629 382.406 477.952C382.384 479.34 382.487 480.726 382.713 482.095C382.902 483.238 383.091 484.357 383.28 485.405C383.483 486.624 383.578 487.859 383.564 489.095V492.571H387.203V489.786C387.18 488.327 387.379 486.874 387.794 485.476C388.043 484.506 388.503 483.603 389.14 482.833C389.375 483.713 389.932 484.471 390.7 484.952C391.408 485.405 392.225 485.652 393.063 485.667C394.23 485.726 395.375 485.325 396.253 484.548C396.998 483.682 397.408 482.574 397.408 481.429C397.408 480.283 396.998 479.175 396.253 478.31C395.324 477.505 394.121 477.095 392.897 477.167C391.467 477.188 390.098 477.759 389.07 478.762C387.89 479.812 386.982 481.136 386.423 482.619C386.423 482.048 386.258 481.429 386.187 480.738C386.116 480.048 386.187 479.19 386.187 478.167C386.123 477.256 386.255 476.343 386.573 475.488C386.891 474.634 387.388 473.858 388.03 473.214C389.451 472.026 391.266 471.422 393.11 471.524C394.795 471.437 396.459 471.923 397.836 472.905C398.455 473.417 398.944 474.071 399.26 474.813C399.577 475.554 399.712 476.361 399.655 477.167V492.571H403.294V476.714C403.372 475.022 402.899 473.35 401.947 471.952C401.008 470.699 399.728 469.747 398.261 469.214C396.615 468.594 394.868 468.287 393.11 468.31C390.309 468.116 387.536 468.963 385.313 470.69M363.503 488.452C363.512 488.031 363.645 487.621 363.884 487.275C364.123 486.929 364.459 486.662 364.848 486.507C365.237 486.352 365.663 486.316 366.073 486.404C366.482 486.492 366.857 486.7 367.149 487.001C367.442 487.303 367.64 487.685 367.718 488.099C367.796 488.513 367.752 488.942 367.589 489.331C367.427 489.719 367.155 490.051 366.806 490.285C366.457 490.518 366.048 490.643 365.63 490.643C365.338 490.679 365.041 490.647 364.764 490.548C364.486 490.45 364.235 490.289 364.029 490.077C363.823 489.865 363.669 489.609 363.578 489.327C363.486 489.045 363.461 488.746 363.503 488.452ZM368.867 491.548C369.265 491.132 369.575 490.639 369.778 490.098C369.981 489.558 370.073 488.982 370.048 488.405C370.079 487.836 369.987 487.266 369.779 486.736C369.571 486.206 369.252 485.727 368.843 485.333C367.955 484.557 366.804 484.156 365.63 484.214C365.331 484.19 365.03 484.19 364.732 484.214V483.881C364.735 483.393 364.837 482.911 365.032 482.465C365.227 482.019 365.511 481.617 365.866 481.286C366.363 480.864 366.939 480.545 367.56 480.349C368.18 480.153 368.833 480.083 369.481 480.143C371.103 480.062 372.699 480.578 373.971 481.595C374.513 482.039 374.947 482.602 375.238 483.243C375.529 483.883 375.67 484.582 375.648 485.286V492.429H379.311V476.476C379.311 471.024 376.168 468.286 369.859 468.286C368.313 468.292 366.773 468.491 365.275 468.881C363.856 469.253 362.485 469.788 361.187 470.476L362.251 473.429C363.357 472.845 364.511 472.359 365.7 471.976C366.944 471.571 368.245 471.37 369.552 471.381C371.253 471.21 372.951 471.723 374.278 472.81C374.76 473.36 375.129 474.001 375.364 474.696C375.599 475.39 375.696 476.125 375.648 476.857V479.238C374.734 478.495 373.682 477.945 372.553 477.619C371.484 477.316 370.379 477.156 369.268 477.143C367.874 477.123 366.487 477.366 365.181 477.857C363.958 478.307 362.912 479.144 362.201 480.243C361.49 481.342 361.15 482.643 361.235 483.952V487.929C361.193 488.558 361.276 489.189 361.479 489.786C361.682 490.383 362 490.933 362.416 491.405C362.848 491.83 363.363 492.159 363.929 492.372C364.494 492.585 365.098 492.678 365.7 492.643C366.886 492.703 368.049 492.293 368.938 491.5M345.309 498.167C345.309 496.976 345.876 496.381 347.01 496.381C347.249 496.349 347.492 496.373 347.721 496.452C347.949 496.531 348.156 496.662 348.326 496.835C348.495 497.008 348.622 497.218 348.697 497.45C348.773 497.681 348.793 497.926 348.758 498.167C348.794 498.406 348.774 498.651 348.699 498.882C348.624 499.112 348.496 499.321 348.326 499.493C348.156 499.664 347.948 499.793 347.719 499.869C347.491 499.944 347.248 499.965 347.01 499.929C346.775 499.962 346.535 499.939 346.31 499.861C346.085 499.784 345.882 499.654 345.716 499.482C345.55 499.311 345.427 499.102 345.356 498.873C345.285 498.645 345.269 498.403 345.309 498.167ZM356.84 504.024C357.566 503.167 357.968 502.079 357.974 500.952V494.929H354.5V500.833C354.529 501.087 354.505 501.344 354.428 501.587C354.352 501.83 354.225 502.054 354.057 502.245C353.888 502.435 353.682 502.587 353.451 502.692C353.22 502.796 352.969 502.85 352.716 502.85C352.463 502.85 352.213 502.796 351.982 502.692C351.751 502.587 351.544 502.435 351.376 502.245C351.207 502.054 351.081 501.83 351.004 501.587C350.928 501.344 350.903 501.087 350.932 500.833V498.857C350.966 498.329 350.889 497.799 350.706 497.302C350.523 496.806 350.238 496.354 349.869 495.976C349.096 495.287 348.088 494.929 347.057 494.976C346.099 494.948 345.165 495.279 344.434 495.905C344.089 496.234 343.818 496.634 343.638 497.077C343.459 497.521 343.376 497.998 343.395 498.476C343.376 498.951 343.46 499.425 343.639 499.864C343.818 500.304 344.09 500.699 344.434 501.024C345.137 501.67 346.059 502.019 347.01 502H347.53C347.616 502.994 348.082 503.916 348.829 504.571C349.936 505.42 351.319 505.82 352.704 505.69C353.45 505.774 354.204 505.696 354.917 505.462C355.631 505.228 356.286 504.843 356.84 504.333M340.299 490.048C339.94 489.545 339.746 488.941 339.746 488.321C339.746 487.702 339.94 487.098 340.299 486.595C340.516 486.378 340.774 486.209 341.059 486.098C341.344 485.988 341.648 485.938 341.953 485.952C342.375 485.943 342.796 485.991 343.206 486.095C343.206 486.452 343.206 486.833 343.395 487.214C343.432 487.594 343.432 487.977 343.395 488.357C343.395 489.905 342.78 490.738 341.575 490.738C341.303 490.759 341.03 490.713 340.78 490.606C340.529 490.498 340.307 490.331 340.134 490.119M339.449 473.095C339.458 472.674 339.59 472.264 339.83 471.918C340.069 471.572 340.404 471.305 340.794 471.15C341.183 470.995 341.609 470.959 342.018 471.047C342.428 471.135 342.802 471.343 343.095 471.644C343.388 471.946 343.585 472.328 343.664 472.742C343.742 473.156 343.697 473.585 343.535 473.974C343.373 474.362 343.1 474.694 342.752 474.928C342.403 475.161 341.994 475.286 341.575 475.286C341.283 475.322 340.987 475.289 340.709 475.191C340.432 475.093 340.18 474.932 339.975 474.72C339.769 474.508 339.615 474.251 339.523 473.97C339.432 473.688 339.406 473.389 339.449 473.095ZM346.797 487.5C348.097 488.054 349.32 488.774 350.436 489.643C351.669 490.57 352.78 491.65 353.744 492.857H357.808V469.048H354.169V488.714C353.031 487.649 351.779 486.715 350.436 485.929C349.107 485.164 347.706 484.534 346.254 484.048C346.171 483.448 346.132 482.843 346.136 482.238V473.429C346.18 472.795 346.099 472.159 345.896 471.558C345.693 470.957 345.373 470.403 344.954 469.929C344.518 469.512 344.001 469.189 343.436 468.98C342.872 468.771 342.27 468.681 341.67 468.714C340.49 468.667 339.335 469.066 338.433 469.833C338.024 470.247 337.708 470.743 337.504 471.289C337.301 471.835 337.214 472.418 337.251 473C337.218 473.572 337.312 474.143 337.524 474.674C337.736 475.205 338.063 475.682 338.48 476.071C339.37 476.828 340.506 477.226 341.67 477.19H342.473V481.786C342.432 482.372 342.432 482.961 342.473 483.548H342.166C340.853 483.494 339.569 483.945 338.574 484.81C338.094 485.255 337.718 485.802 337.473 486.411C337.228 487.021 337.12 487.677 337.157 488.333C337.118 488.979 337.221 489.625 337.457 490.225C337.694 490.826 338.059 491.367 338.527 491.81C339.525 492.666 340.809 493.108 342.119 493.048C342.791 493.11 343.469 493.021 344.102 492.786C344.736 492.551 345.309 492.177 345.781 491.69C346.557 490.768 346.969 489.59 346.939 488.381C346.94 488.05 346.892 487.721 346.797 487.405M316.079 490.024C315.715 489.539 315.531 488.941 315.56 488.333C315.539 488.013 315.583 487.692 315.688 487.389C315.794 487.086 315.959 486.808 316.174 486.571C316.388 486.351 316.646 486.179 316.931 486.068C317.217 485.957 317.523 485.91 317.828 485.929C318.242 485.922 318.655 485.97 319.057 486.071C319.057 486.429 319.175 486.81 319.246 487.19C319.323 487.567 319.362 487.949 319.364 488.333C319.364 489.881 318.75 490.714 317.521 490.714C317.249 490.733 316.977 490.687 316.726 490.579C316.476 490.472 316.254 490.306 316.079 490.095M315.394 473.071C315.404 472.65 315.536 472.24 315.775 471.894C316.015 471.548 316.35 471.281 316.739 471.126C317.129 470.971 317.555 470.935 317.964 471.023C318.373 471.111 318.748 471.319 319.04 471.621C319.333 471.922 319.531 472.304 319.609 472.718C319.688 473.133 319.643 473.561 319.481 473.95C319.318 474.339 319.046 474.67 318.697 474.904C318.349 475.137 317.939 475.262 317.521 475.262C317.229 475.298 316.933 475.266 316.655 475.167C316.377 475.069 316.126 474.908 315.92 474.696C315.715 474.484 315.56 474.228 315.469 473.946C315.378 473.664 315.352 473.365 315.394 473.071ZM322.767 487.476C324.063 488.035 325.285 488.755 326.405 489.619C327.625 490.552 328.728 491.632 329.69 492.833H333.612V469.024H329.95V488.69C328.808 487.619 327.547 486.685 326.193 485.905C324.87 485.145 323.477 484.515 322.034 484.024C321.93 483.427 321.882 482.821 321.892 482.214V473.405C321.937 472.771 321.855 472.136 321.652 471.535C321.449 470.933 321.129 470.379 320.711 469.905C320.274 469.488 319.758 469.165 319.193 468.956C318.628 468.747 318.027 468.657 317.426 468.69C316.246 468.643 315.092 469.042 314.189 469.81C313.785 470.226 313.471 470.722 313.267 471.267C313.064 471.813 312.975 472.395 313.008 472.976C312.975 473.548 313.068 474.12 313.281 474.651C313.493 475.182 313.819 475.659 314.236 476.048C315.127 476.804 316.263 477.202 317.426 477.167H318.23V481.762C318.23 482.452 318.23 483.024 318.23 483.524H317.923C316.61 483.472 315.327 483.923 314.331 484.786C313.427 485.723 312.922 486.979 312.922 488.286C312.922 489.593 313.427 490.848 314.331 491.786C315.328 492.644 316.613 493.087 317.923 493.024C318.591 493.085 319.265 492.994 319.894 492.759C320.524 492.525 321.093 492.151 321.561 491.667C322.337 490.744 322.749 489.566 322.719 488.357C322.716 488.028 322.677 487.701 322.601 487.381M306.061 449.833L306.25 454.19H309.369L309.581 449.833V447H306.061V449.833ZM295.144 460.524C296.143 459.817 297.351 459.472 298.57 459.548C299.9 459.546 301.208 459.882 302.375 460.524C303.434 461.082 304.336 461.901 304.997 462.905H293.939C293.936 462.44 294.044 461.981 294.254 461.566C294.463 461.152 294.769 460.794 295.144 460.524ZM309.156 465.286L309.487 463.143C308.762 462.02 307.887 461.002 306.888 460.119C305.797 459.126 304.552 458.322 303.202 457.738C301.709 457.099 300.097 456.79 298.476 456.833C296.358 456.726 294.269 457.366 292.569 458.643C291.828 459.257 291.241 460.039 290.855 460.924C290.469 461.809 290.295 462.773 290.347 463.738V465.238L309.156 465.286ZM285.976 472.667C285.985 472.245 286.118 471.835 286.357 471.489C286.596 471.143 286.932 470.876 287.321 470.721C287.71 470.566 288.136 470.531 288.546 470.619C288.955 470.707 289.33 470.914 289.622 471.216C289.915 471.517 290.113 471.899 290.191 472.313C290.27 472.728 290.225 473.156 290.062 473.545C289.9 473.934 289.628 474.266 289.279 474.499C288.93 474.732 288.521 474.857 288.103 474.857C287.811 474.893 287.514 474.861 287.237 474.763C286.959 474.665 286.708 474.503 286.502 474.291C286.296 474.08 286.142 473.823 286.051 473.541C285.96 473.259 285.934 472.96 285.976 472.667ZM293.065 492.429L298.807 475.5L305.446 492.429H309.392V468.619H305.824V481.524C305.824 482.262 305.824 483 305.824 483.714C305.824 484.429 305.824 485.143 306.014 485.857H305.895L299.516 469.476H298.169L292.498 485.857C292.498 485.143 292.639 484.429 292.687 483.714C292.734 483 292.687 482.262 292.687 481.524V473.048C292.731 472.414 292.65 471.778 292.447 471.177C292.244 470.576 291.924 470.022 291.505 469.548C291.069 469.131 290.552 468.808 289.987 468.599C289.423 468.39 288.822 468.3 288.221 468.333C287.046 468.272 285.894 468.674 285.007 469.452C284.595 469.864 284.274 470.359 284.066 470.905C283.858 471.451 283.768 472.035 283.802 472.619C283.769 473.191 283.863 473.762 284.075 474.293C284.288 474.824 284.614 475.302 285.031 475.69C285.921 476.447 287.057 476.845 288.221 476.81C288.519 476.847 288.821 476.847 289.119 476.81V492.429H293.065ZM281.014 488.476C281.005 488.898 280.872 489.307 280.633 489.653C280.394 490 280.058 490.267 279.669 490.422C279.28 490.577 278.854 490.612 278.444 490.524C278.035 490.436 277.66 490.229 277.368 489.927C277.075 489.626 276.877 489.244 276.799 488.829C276.721 488.415 276.765 487.987 276.928 487.598C277.09 487.209 277.362 486.877 277.711 486.644C278.06 486.41 278.469 486.286 278.887 486.286C279.179 486.25 279.476 486.282 279.753 486.38C280.031 486.478 280.282 486.639 280.488 486.851C280.694 487.063 280.848 487.32 280.939 487.602C281.031 487.884 281.056 488.183 281.014 488.476ZM274.421 468.714V488C274.383 488.631 274.47 489.263 274.677 489.86C274.884 490.457 275.207 491.006 275.627 491.476C276.054 491.9 276.565 492.23 277.127 492.443C277.689 492.656 278.288 492.749 278.887 492.714C280.074 492.777 281.237 492.367 282.125 491.571C282.53 491.16 282.847 490.668 283.054 490.127C283.262 489.586 283.356 489.008 283.33 488.429C283.357 487.858 283.262 487.287 283.05 486.757C282.838 486.227 282.514 485.749 282.101 485.357C280.956 484.478 279.511 484.093 278.084 484.286V468.714H274.421ZM258.401 471.762C259.374 471.509 260.374 471.381 261.378 471.381C262.109 471.294 262.85 471.371 263.549 471.605C264.247 471.84 264.886 472.227 265.419 472.738C266.226 473.907 266.618 475.317 266.529 476.738V492.429H270.168V476.357C270.168 470.976 267.333 468.286 261.662 468.286C260.315 468.282 258.973 468.45 257.668 468.786C256.555 469.06 255.471 469.442 254.431 469.929L255.636 472.738C256.526 472.327 257.451 472 258.401 471.762ZM249.635 488.429C249.625 488.85 249.493 489.26 249.253 489.606C249.014 489.952 248.679 490.219 248.29 490.374C247.9 490.529 247.474 490.565 247.065 490.477C246.656 490.389 246.281 490.181 245.988 489.879C245.696 489.578 245.498 489.196 245.419 488.782C245.341 488.367 245.386 487.939 245.548 487.55C245.71 487.162 245.983 486.83 246.332 486.596C246.68 486.363 247.089 486.238 247.508 486.238C247.8 486.202 248.096 486.234 248.374 486.333C248.651 486.431 248.903 486.592 249.109 486.804C249.314 487.016 249.469 487.272 249.56 487.554C249.651 487.836 249.677 488.135 249.635 488.429ZM250.934 477.524C249.983 476.696 248.765 476.247 247.508 476.262L240.419 475.667V475.048C240.393 474.571 240.461 474.094 240.619 473.645C240.777 473.195 241.022 472.782 241.341 472.429C242.151 471.746 243.195 471.413 244.247 471.5C245.205 471.514 246.161 471.602 247.106 471.762C248.081 471.944 249.069 472.039 250.06 472.048C250.753 472.048 251.367 472.048 251.903 472.048C252.446 472.019 252.985 471.931 253.51 471.786L253.037 468.69C252.501 468.812 251.955 468.891 251.407 468.929C250.816 468.929 250.249 468.929 249.635 468.929C249.024 468.938 248.414 468.882 247.815 468.762C247.272 468.762 246.705 468.571 246.067 468.5C245.283 468.395 244.494 468.347 243.704 468.357C241.837 468.269 240.011 468.928 238.623 470.19C238.013 470.818 237.535 471.563 237.218 472.381C236.901 473.2 236.752 474.074 236.78 474.952V478.429L246.043 479.119C246.725 479.078 247.395 479.309 247.91 479.762C248.304 480.249 248.491 480.874 248.43 481.5V484.262C248.162 484.237 247.893 484.237 247.626 484.262C246.451 484.199 245.298 484.6 244.413 485.381C244.004 485.775 243.684 486.254 243.476 486.784C243.268 487.314 243.177 487.883 243.208 488.452C243.183 489.03 243.275 489.606 243.478 490.146C243.681 490.686 243.991 491.179 244.389 491.595C245.277 492.391 246.44 492.801 247.626 492.738C248.226 492.775 248.826 492.684 249.388 492.471C249.95 492.258 250.461 491.927 250.887 491.5C251.307 491.03 251.63 490.481 251.836 489.884C252.043 489.287 252.13 488.655 252.092 488.024V480.571C252.146 479.48 251.773 478.412 251.052 477.595M227.683 498.31C227.683 497.095 228.25 496.476 229.432 496.476C229.676 496.443 229.925 496.469 230.158 496.55C230.392 496.631 230.603 496.766 230.775 496.944C230.947 497.123 231.075 497.339 231.15 497.576C231.224 497.813 231.243 498.064 231.204 498.31C231.239 498.553 231.217 498.802 231.141 499.036C231.065 499.27 230.936 499.483 230.764 499.658C230.592 499.833 230.383 499.966 230.152 500.046C229.92 500.126 229.674 500.151 229.432 500.119C228.25 500.119 227.683 499.524 227.683 498.31ZM233.283 506V498.857C233.321 498.326 233.243 497.793 233.055 497.296C232.867 496.798 232.574 496.348 232.196 495.976C231.402 495.375 230.436 495.051 229.444 495.051C228.451 495.051 227.485 495.375 226.691 495.976C226.341 496.311 226.069 496.719 225.893 497.172C225.717 497.624 225.643 498.11 225.675 498.595C225.643 499.07 225.711 499.547 225.874 499.994C226.037 500.441 226.291 500.849 226.62 501.19C226.975 501.512 227.389 501.76 227.839 501.919C228.289 502.078 228.766 502.146 229.243 502.119H229.763V506H233.283ZM217.239 488.595C217.244 488.167 217.375 487.749 217.615 487.396C217.855 487.042 218.194 486.768 218.588 486.608C218.983 486.449 219.416 486.411 219.832 486.499C220.248 486.587 220.629 486.798 220.926 487.104C221.224 487.41 221.424 487.799 221.503 488.22C221.581 488.641 221.534 489.076 221.367 489.47C221.2 489.864 220.92 490.2 220.564 490.434C220.208 490.668 219.791 490.79 219.366 490.786C219.074 490.822 218.778 490.789 218.5 490.691C218.222 490.593 217.971 490.432 217.765 490.22C217.56 490.008 217.405 489.751 217.314 489.47C217.223 489.188 217.197 488.889 217.239 488.595ZM222.556 491.714C222.961 491.303 223.278 490.811 223.486 490.27C223.693 489.729 223.787 489.151 223.761 488.571C223.794 488 223.7 487.428 223.488 486.897C223.275 486.366 222.949 485.889 222.532 485.5C221.649 484.715 220.494 484.312 219.319 484.381C219.028 484.356 218.735 484.356 218.444 484.381V484.048C218.448 483.562 218.549 483.083 218.74 482.637C218.93 482.191 219.207 481.789 219.555 481.452C220.057 481.03 220.637 480.711 221.261 480.515C221.886 480.319 222.542 480.249 223.194 480.31C224.815 480.233 226.409 480.748 227.683 481.762C228.226 482.205 228.66 482.769 228.951 483.409C229.242 484.049 229.382 484.749 229.361 485.452V492.595H233.023V476.643C233.029 475.839 232.925 475.038 232.716 474.262C232.512 473.522 232.201 472.816 231.795 472.167C232.145 472.251 232.5 472.315 232.858 472.357H233.661C234.603 472.382 235.541 472.228 236.426 471.905L235.504 467.905C233.893 468.775 232.087 469.217 230.259 469.19C229.624 469.187 228.991 469.123 228.368 469L226.336 468.595C225.429 468.461 224.513 468.398 223.595 468.405C222.049 468.411 220.509 468.611 219.011 469C217.586 469.376 216.207 469.911 214.9 470.595L215.963 473.548C217.073 472.972 218.227 472.487 219.413 472.095C220.665 471.692 221.973 471.491 223.288 471.5C224.989 471.329 226.688 471.843 228.014 472.929C228.496 473.479 228.865 474.12 229.1 474.815C229.335 475.509 229.432 476.244 229.385 476.976V479.357C228.47 478.615 227.418 478.064 226.289 477.738C225.22 477.435 224.115 477.275 223.005 477.262C221.61 477.243 220.224 477.485 218.917 477.976C217.753 478.422 216.743 479.199 216.01 480.214C215.271 481.359 214.9 482.706 214.947 484.071V488.048C214.909 488.679 214.996 489.311 215.203 489.908C215.41 490.505 215.732 491.054 216.152 491.524C216.581 491.947 217.092 492.275 217.653 492.488C218.215 492.702 218.814 492.795 219.413 492.762C220.555 492.831 221.68 492.456 222.556 491.714ZM194.012 489.833C193.656 489.345 193.48 488.747 193.516 488.143C193.492 487.824 193.532 487.504 193.633 487.201C193.735 486.899 193.896 486.62 194.106 486.381C194.321 486.161 194.579 485.991 194.865 485.88C195.15 485.769 195.455 485.721 195.76 485.738C196.182 485.729 196.604 485.777 197.013 485.881C197.013 486.238 197.131 486.619 197.202 487C197.239 487.38 197.239 487.763 197.202 488.143C197.202 489.69 196.587 490.524 195.382 490.524C195.107 490.543 194.831 490.496 194.577 490.389C194.323 490.281 194.097 490.116 193.917 489.905M193.397 472.667C193.407 472.245 193.539 471.835 193.779 471.489C194.018 471.143 194.353 470.876 194.742 470.721C195.132 470.566 195.558 470.531 195.967 470.619C196.377 470.707 196.751 470.914 197.044 471.216C197.336 471.517 197.534 471.899 197.613 472.313C197.691 472.728 197.646 473.156 197.484 473.545C197.322 473.934 197.049 474.266 196.701 474.499C196.352 474.732 195.943 474.857 195.524 474.857C195.232 474.893 194.936 474.861 194.658 474.763C194.381 474.665 194.129 474.503 193.924 474.291C193.718 474.08 193.563 473.823 193.472 473.541C193.381 473.259 193.355 472.96 193.397 472.667ZM200.746 487.071C202.046 487.625 203.269 488.345 204.385 489.214C205.612 490.147 206.723 491.227 207.693 492.429H211.757V468.619H208.118V488.286C206.976 487.215 205.716 486.28 204.361 485.5C203.043 484.731 201.649 484.101 200.203 483.619C200.147 483.017 200.147 482.411 200.203 481.81V473C200.244 472.365 200.159 471.728 199.952 471.127C199.745 470.526 199.42 469.973 198.998 469.5C198.565 469.084 198.053 468.761 197.492 468.552C196.931 468.343 196.334 468.253 195.737 468.286C194.557 468.238 193.402 468.637 192.5 469.405C192.087 469.816 191.766 470.311 191.559 470.857C191.351 471.403 191.261 471.988 191.294 472.571C191.266 473.145 191.364 473.717 191.581 474.248C191.797 474.779 192.127 475.255 192.547 475.643C193.437 476.399 194.573 476.798 195.737 476.762H196.54V481.357C196.54 482.048 196.54 482.619 196.54 483.119H196.257C194.944 483.065 193.66 483.516 192.665 484.381C192.182 484.825 191.803 485.371 191.553 485.981C191.304 486.59 191.192 487.247 191.224 487.905C191.188 488.552 191.294 489.199 191.535 489.8C191.776 490.401 192.146 490.941 192.618 491.381C193.616 492.237 194.9 492.68 196.209 492.619C196.881 492.678 197.558 492.587 198.191 492.353C198.824 492.118 199.398 491.746 199.872 491.262C200.63 490.33 201.032 489.157 201.006 487.952C201.054 487.629 201.054 487.3 201.006 486.976M184.726 488.381C184.716 488.803 184.584 489.212 184.344 489.558C184.105 489.904 183.77 490.172 183.381 490.326C182.991 490.481 182.565 490.517 182.156 490.429C181.747 490.341 181.372 490.133 181.079 489.832C180.787 489.53 180.589 489.148 180.51 488.734C180.432 488.32 180.477 487.891 180.639 487.503C180.801 487.114 181.074 486.782 181.423 486.549C181.771 486.315 182.18 486.191 182.599 486.19C182.891 486.154 183.187 486.187 183.465 486.285C183.742 486.383 183.994 486.544 184.2 486.756C184.405 486.968 184.56 487.225 184.651 487.507C184.742 487.788 184.768 488.088 184.726 488.381ZM186.025 477.476C185.074 476.649 183.856 476.2 182.599 476.214L175.51 475.619V475.048C175.487 474.57 175.559 474.092 175.721 473.642C175.883 473.192 176.133 472.78 176.455 472.429C177.265 471.746 178.31 471.413 179.362 471.5C180.32 471.514 181.276 471.602 182.221 471.762C183.195 471.944 184.184 472.039 185.175 472.048C185.86 472.048 186.474 472.048 186.994 472.048C187.545 472.019 188.092 471.931 188.624 471.786L188.152 468.69C187.615 468.81 187.07 468.889 186.521 468.929H184.749C184.139 468.94 183.528 468.884 182.93 468.762L181.181 468.5C180.398 468.396 179.608 468.348 178.818 468.357C176.951 468.269 175.125 468.928 173.738 470.19C173.128 470.818 172.649 471.563 172.333 472.381C172.016 473.2 171.867 474.074 171.895 474.952V478.429L181.158 479.119C181.839 479.083 182.508 479.313 183.024 479.762C183.419 480.249 183.605 480.874 183.544 481.5V484.262C182.117 484.069 180.673 484.454 179.527 485.333C179.114 485.725 178.79 486.203 178.578 486.733C178.366 487.263 178.271 487.834 178.299 488.405C178.273 488.984 178.366 489.563 178.574 490.104C178.781 490.645 179.098 491.136 179.504 491.548C179.942 491.944 180.453 492.249 181.009 492.445C181.565 492.641 182.153 492.724 182.741 492.69C183.34 492.728 183.941 492.637 184.503 492.423C185.065 492.21 185.576 491.879 186.002 491.452C186.421 490.983 186.744 490.433 186.951 489.836C187.158 489.24 187.245 488.607 187.207 487.976V480.524C187.261 479.433 186.887 478.364 186.167 477.548M166.366 488.452C166.357 488.874 166.224 489.284 165.985 489.63C165.745 489.976 165.41 490.243 165.021 490.398C164.632 490.553 164.206 490.588 163.796 490.5C163.387 490.413 163.012 490.205 162.72 489.903C162.427 489.602 162.229 489.22 162.151 488.806C162.072 488.391 162.117 487.963 162.279 487.574C162.442 487.185 162.714 486.853 163.063 486.62C163.411 486.387 163.821 486.262 164.239 486.262C164.531 486.226 164.828 486.258 165.105 486.356C165.383 486.454 165.634 486.616 165.84 486.828C166.045 487.039 166.2 487.296 166.291 487.578C166.382 487.86 166.408 488.159 166.366 488.452ZM167.665 477.548C166.714 476.72 165.496 476.271 164.239 476.286L157.032 475.69V475.048C157.009 474.57 157.081 474.092 157.243 473.642C157.405 473.192 157.655 472.78 157.978 472.429C158.374 472.09 158.832 471.834 159.327 471.675C159.822 471.515 160.343 471.456 160.86 471.5C161.826 471.514 162.79 471.601 163.743 471.762C164.717 471.944 165.706 472.039 166.697 472.048C167.382 472.048 167.996 472.048 168.516 472.048C169.067 472.019 169.614 471.931 170.146 471.786L169.674 468.69C169.137 468.81 168.592 468.889 168.044 468.929H166.271C165.661 468.939 165.051 468.883 164.452 468.762L162.703 468.5C161.92 468.395 161.13 468.347 160.34 468.357C158.473 468.269 156.648 468.928 155.26 470.19C154.65 470.818 154.171 471.563 153.855 472.381C153.538 473.2 153.389 474.074 153.417 474.952V478.429L162.68 479.119C163.362 479.078 164.032 479.309 164.546 479.762C164.941 480.249 165.128 480.874 165.066 481.5V484.262C163.639 484.069 162.195 484.454 161.049 485.333C160.641 485.727 160.321 486.206 160.113 486.736C159.905 487.266 159.813 487.836 159.844 488.405C159.814 488.983 159.903 489.56 160.107 490.102C160.31 490.643 160.623 491.135 161.026 491.548C161.913 492.343 163.077 492.754 164.263 492.69C164.862 492.728 165.463 492.637 166.025 492.423C166.587 492.21 167.098 491.879 167.524 491.452C167.943 490.983 168.266 490.433 168.473 489.836C168.68 489.24 168.767 488.607 168.729 487.976V480.524C168.783 479.433 168.409 478.364 167.689 477.548M136.428 469.286C135.069 469.884 133.9 470.848 133.049 472.071C132.252 473.196 131.83 474.547 131.844 475.929V477.357L136.782 479.071C135.634 479.33 134.609 479.977 133.876 480.905C133.05 481.986 132.631 483.327 132.694 484.69V492.333H136.357V484.738C136.305 484.148 136.37 483.554 136.548 482.99C136.727 482.425 137.015 481.903 137.397 481.452C137.765 481.111 138.197 480.847 138.668 480.675C139.138 480.504 139.638 480.428 140.138 480.452L140.563 477.929L135.128 476.238C135.251 474.873 135.895 473.61 136.924 472.714C138.13 471.817 139.609 471.37 141.106 471.452C142.622 471.396 144.113 471.858 145.336 472.762C145.931 473.268 146.396 473.91 146.692 474.636C146.988 475.361 147.107 476.147 147.037 476.929V492.5H150.676V476.548C150.771 474.863 150.323 473.193 149.4 471.786C148.525 470.575 147.318 469.648 145.927 469.119C144.418 468.54 142.815 468.249 141.201 468.262C139.431 468.225 137.674 468.574 136.05 469.286M122.794 471.19C123 470.998 123.241 470.848 123.505 470.75C123.769 470.652 124.049 470.607 124.33 470.619C124.896 470.601 125.447 470.806 125.866 471.19C126.057 471.369 126.209 471.587 126.311 471.829C126.413 472.071 126.462 472.332 126.456 472.595C126.459 472.865 126.408 473.132 126.306 473.381C126.205 473.631 126.055 473.857 125.866 474.048C125.445 474.51 124.917 474.862 124.33 475.071C123.733 474.868 123.196 474.516 122.77 474.048C122.405 473.654 122.202 473.134 122.203 472.595C122.193 472.332 122.24 472.069 122.342 471.826C122.444 471.583 122.599 471.366 122.794 471.19ZM108.073 472.643C108.082 472.221 108.215 471.812 108.454 471.466C108.693 471.12 109.029 470.852 109.418 470.697C109.807 470.542 110.233 470.507 110.643 470.595C111.052 470.683 111.427 470.89 111.719 471.192C112.012 471.493 112.21 471.875 112.288 472.29C112.366 472.704 112.322 473.132 112.159 473.521C111.997 473.91 111.725 474.242 111.376 474.475C111.027 474.709 110.618 474.833 110.2 474.833C109.908 474.869 109.611 474.837 109.334 474.739C109.056 474.641 108.805 474.48 108.599 474.268C108.393 474.056 108.239 473.799 108.148 473.517C108.056 473.235 108.031 472.936 108.073 472.643ZM114.666 473.119C114.71 472.486 114.629 471.85 114.426 471.249C114.223 470.648 113.903 470.094 113.484 469.619C113.047 469.202 112.531 468.879 111.966 468.67C111.401 468.462 110.8 468.371 110.2 468.405C109.02 468.357 107.865 468.756 106.962 469.524C106.558 469.94 106.244 470.436 106.04 470.982C105.837 471.527 105.749 472.109 105.781 472.69C105.748 473.262 105.841 473.834 106.054 474.365C106.266 474.896 106.593 475.373 107.01 475.762C107.9 476.518 109.036 476.917 110.2 476.881H111.003V492.452H114.453C115.155 489.713 116.195 487.074 117.548 484.595C118.458 482.928 119.604 481.404 120.951 480.071C121.651 479.287 122.591 478.76 123.621 478.571C124.472 478.571 124.897 479.048 124.897 480.024V492.5H128.536V479.81C128.536 479.133 128.383 478.465 128.087 477.857C127.784 477.212 127.288 476.679 126.669 476.333C127.347 475.933 127.916 475.368 128.323 474.69C128.702 474.074 128.914 473.368 128.937 472.643C128.963 472.058 128.854 471.474 128.621 470.938C128.387 470.401 128.035 469.926 127.591 469.548C126.618 468.837 125.448 468.454 124.247 468.454C123.046 468.454 121.876 468.837 120.904 469.548C120.466 469.93 120.12 470.407 119.891 470.943C119.662 471.479 119.556 472.06 119.58 472.643C119.596 473.331 119.766 474.006 120.077 474.619C120.404 475.272 120.892 475.829 121.494 476.238C120.494 476.678 119.587 477.309 118.824 478.095C117.928 479.012 117.136 480.026 116.461 481.119C115.748 482.263 115.117 483.456 114.571 484.69V483.167C114.571 482.667 114.571 482.167 114.571 481.643L114.666 473.119ZM91.6272 471.738C92.5998 471.486 93.6001 471.358 94.6045 471.357C95.3318 471.272 96.0688 471.35 96.7631 471.584C97.4574 471.819 98.0918 472.205 98.6214 472.714C99.4395 473.878 99.832 475.292 99.732 476.714V492.405H103.394V476.333C103.394 470.952 100.559 468.262 94.888 468.262C93.5412 468.256 92.1992 468.425 90.8947 468.762C89.7813 469.036 88.6971 469.419 87.6575 469.905L88.8626 472.714C89.7505 472.299 90.6764 471.972 91.6272 471.738ZM68.8961 488.405C68.9054 487.983 69.038 487.574 69.2772 487.228C69.5165 486.881 69.8518 486.614 70.2411 486.459C70.6304 486.304 71.0564 486.269 71.4658 486.357C71.8751 486.445 72.2496 486.652 72.5423 486.954C72.835 487.255 73.0329 487.637 73.1112 488.052C73.1895 488.466 73.1447 488.894 72.9825 489.283C72.8202 489.672 72.5477 490.004 72.1991 490.237C71.8505 490.471 71.4413 490.595 71.0227 490.595C70.7307 490.631 70.4344 490.599 70.1568 490.501C69.8792 490.403 69.6278 490.241 69.4221 490.03C69.2164 489.818 69.062 489.561 68.9707 489.279C68.8795 488.997 68.8539 488.698 68.8961 488.405ZM74.2599 491.5C74.6656 491.089 74.9823 490.597 75.1897 490.056C75.3971 489.515 75.4908 488.937 75.4649 488.357C75.4928 487.786 75.3974 487.216 75.1852 486.685C74.9731 486.155 74.6493 485.678 74.2362 485.286C73.3534 484.5 72.1984 484.098 71.0227 484.167C70.7318 484.142 70.4393 484.142 70.1484 484.167V483.833C70.1472 483.347 70.2451 482.866 70.4361 482.419C70.6272 481.973 70.9073 481.571 71.259 481.238C71.7608 480.815 72.3407 480.497 72.9652 480.301C73.5897 480.104 74.2465 480.035 74.8978 480.095C76.5191 480.018 78.1135 480.534 79.3874 481.548C79.9196 482 80.346 482.566 80.636 483.204C80.926 483.842 81.0725 484.536 81.065 485.238V492.381H84.7275V476.429C84.7252 475.623 84.6139 474.822 84.3967 474.048C84.2002 473.309 83.8977 472.603 83.4988 471.952C83.8488 472.039 84.204 472.103 84.5621 472.143H85.3655C86.3067 472.164 87.2438 472.01 88.1301 471.69L87.1141 467.905C85.5021 468.775 83.6969 469.217 81.8684 469.19C81.2337 469.187 80.6008 469.123 79.9781 469L77.946 468.595C77.0385 468.461 76.1222 468.398 75.205 468.405C73.6584 468.411 72.1185 468.611 70.621 469C69.1959 469.376 67.8169 469.911 66.5095 470.595L67.5728 473.548C68.6829 472.972 69.8365 472.487 71.0227 472.095C72.2746 471.69 73.5829 471.489 74.8978 471.5C76.5985 471.329 78.2972 471.843 79.6236 472.929C80.1054 473.479 80.4745 474.12 80.7097 474.815C80.9449 475.509 81.0415 476.244 80.9941 476.976V479.357C80.08 478.615 79.0275 478.064 77.8987 477.738C76.829 477.437 75.725 477.276 74.6143 477.262C73.2193 477.24 71.8327 477.483 70.5265 477.976C69.3016 478.428 68.2561 479.27 67.5484 480.374C66.8406 481.478 66.5091 482.784 66.604 484.095V488.071C66.5659 488.702 66.6527 489.335 66.8596 489.932C67.0666 490.528 67.3893 491.078 67.8091 491.548C68.2368 491.972 68.7479 492.301 69.3095 492.514C69.8711 492.728 70.4708 492.82 71.0699 492.786C71.6576 492.82 72.2462 492.736 72.8018 492.54C73.3573 492.344 73.8689 492.039 74.3071 491.643M51.576 482.524C51.2405 482.074 51.0591 481.527 51.0591 480.964C51.0591 480.402 51.2405 479.854 51.576 479.405C51.7712 479.188 52.0134 479.019 52.2839 478.912C52.5544 478.804 52.8458 478.761 53.1355 478.786C53.4217 478.761 53.7096 478.804 53.9762 478.912C54.2429 479.019 54.4809 479.188 54.6714 479.405C55.0438 479.838 55.2488 480.391 55.2488 480.964C55.2488 481.537 55.0438 482.091 54.6714 482.524C54.4809 482.74 54.2429 482.909 53.9762 483.017C53.7096 483.124 53.4217 483.167 53.1355 483.143C52.8458 483.167 52.5544 483.124 52.2839 483.017C52.0134 482.91 51.7712 482.741 51.576 482.524ZM47.6063 492.5L54.695 486.024C55.4504 485.346 56.1389 484.597 56.7507 483.786C57.3173 482.901 57.5865 481.857 57.5184 480.806C57.4503 479.756 57.0486 478.755 56.3727 477.952C55.9611 477.533 55.4663 477.206 54.9207 476.993C54.3751 476.779 53.7909 476.685 53.2064 476.714C52.0442 476.67 50.91 477.079 50.0401 477.857C49.3512 478.6 48.9265 479.553 48.8324 480.565C48.7383 481.578 48.9803 482.593 49.5203 483.452C49.9848 484.092 50.6257 484.581 51.3633 484.857L46.8974 488.857V488.286C46.9027 487.49 46.8554 486.694 46.7557 485.905C46.7557 485.19 46.543 484.476 46.4248 483.762C46.3067 483.048 46.2122 482.262 46.1177 481.381C46.0153 480.36 45.9679 479.335 45.9759 478.31C45.9 476.671 46.2161 475.038 46.8974 473.548C47.1018 473.065 47.4271 472.645 47.8413 472.328C48.2556 472.011 48.7446 471.807 49.2603 471.738L53.041 474.643H53.3009L57.0815 471.786C57.495 471.807 57.8989 471.919 58.2659 472.112C58.6328 472.305 58.9542 472.575 59.2082 472.905C59.7474 473.72 60.0125 474.688 59.9643 475.667V492.571H63.6268V475.905C63.7526 474.927 63.6577 473.934 63.3491 472.998C63.0406 472.062 62.5264 471.209 61.8449 470.502C61.1634 469.795 60.3322 469.252 59.4133 468.913C58.4944 468.575 57.5116 468.45 56.5381 468.548L53.1828 471.238L49.8274 468.548C48.3454 468.445 46.871 468.837 45.6324 469.663C44.3937 470.49 43.4598 471.704 42.975 473.119C42.4583 474.594 42.2024 476.15 42.2189 477.714C42.1989 478.947 42.2621 480.18 42.4079 481.405C42.5261 482.429 42.6678 483.333 42.8332 484.167L43.2586 486.548C43.3855 487.399 43.4487 488.258 43.4476 489.119V492.524L47.6063 492.5ZM33.5234 498.357C33.4852 498.114 33.5035 497.865 33.5768 497.63C33.65 497.395 33.7763 497.18 33.9457 497.003C34.115 496.825 34.3229 496.69 34.553 496.606C34.7831 496.523 35.0292 496.495 35.2719 496.524C35.5173 496.492 35.7667 496.518 36.0006 496.599C36.2345 496.68 36.4467 496.815 36.6205 496.992C36.7943 497.17 36.9251 497.385 37.0027 497.622C37.0802 497.859 37.1025 498.11 37.0677 498.357C37.1035 498.603 37.0817 498.854 37.0041 499.09C36.9265 499.326 36.7952 499.54 36.6208 499.716C36.4463 499.892 36.2335 500.024 35.9993 500.103C35.7651 500.181 35.516 500.203 35.2719 500.167C35.0304 500.2 34.7847 500.175 34.5543 500.095C34.3239 500.015 34.1153 499.882 33.9453 499.706C33.7753 499.53 33.6486 499.316 33.5753 499.082C33.5021 498.848 33.4843 498.599 33.5234 498.357ZM39.1944 505.952V498.81C39.2269 498.279 39.1467 497.748 38.9593 497.251C38.7718 496.754 38.4814 496.303 38.1074 495.929C37.3201 495.251 36.306 494.902 35.2719 494.952C34.3042 494.901 33.3523 495.216 32.6019 495.833C32.252 496.168 31.9797 496.576 31.804 497.029C31.6284 497.481 31.5539 497.967 31.5858 498.452C31.5545 498.928 31.6224 499.404 31.7852 499.851C31.948 500.298 32.2021 500.706 32.531 501.048C32.8857 501.369 33.3001 501.617 33.7503 501.776C34.2004 501.935 34.6774 502.003 35.1538 501.976H35.65V506L39.1944 505.952ZM23.3393 480.405C23.2972 480.111 23.3227 479.812 23.4139 479.53C23.5052 479.249 23.6596 478.992 23.8653 478.78C24.071 478.568 24.3225 478.407 24.6 478.309C24.8776 478.211 25.1739 478.178 25.4659 478.214C26.0424 478.214 26.5954 478.445 27.003 478.856C27.4107 479.267 27.6398 479.824 27.6398 480.405C27.6398 480.986 27.4107 481.543 27.003 481.954C26.5954 482.364 26.0424 482.595 25.4659 482.595C25.1739 482.631 24.8776 482.599 24.6 482.501C24.3225 482.403 24.071 482.241 23.8653 482.03C23.6596 481.818 23.5052 481.561 23.4139 481.279C23.3227 480.997 23.2972 480.698 23.3393 480.405ZM29.6955 468.357C28.1657 468.359 26.642 468.551 25.1587 468.929C23.7168 469.266 22.3205 469.778 21 470.452L22.0397 473.429C23.1563 472.839 24.3276 472.36 25.5368 472C26.7896 471.64 28.0856 471.456 29.3883 471.452C31.0877 471.294 32.7817 471.806 34.1141 472.881C34.6001 473.43 34.9735 474.07 35.2127 474.764C35.452 475.459 35.5524 476.195 35.5082 476.929V485.714C35.5877 486.712 35.3385 487.707 34.7994 488.548C34.4254 488.897 33.9795 489.16 33.4936 489.316C33.0076 489.472 32.4934 489.519 31.9875 489.452H24.6625V484.69C24.9297 484.715 25.1986 484.715 25.4659 484.69C26.6416 484.759 27.7966 484.357 28.6794 483.571C29.0925 483.179 29.4163 482.702 29.6284 482.172C29.8406 481.641 29.936 481.071 29.9081 480.5C29.9451 479.938 29.8655 479.375 29.6743 478.846C29.483 478.317 29.1845 477.835 28.7976 477.429C28.3594 477.032 27.8478 476.728 27.2922 476.531C26.7367 476.335 26.1481 476.252 25.5604 476.286C24.9634 476.253 24.3659 476.343 23.8051 476.552C23.2442 476.761 22.7318 477.084 22.2996 477.5C21.8769 477.973 21.5524 478.526 21.3454 479.127C21.1384 479.728 21.0531 480.365 21.0945 481V492.619H32.1529C34.1141 492.798 36.0726 492.248 37.6585 491.071C38.2649 490.386 38.7246 489.582 39.0092 488.709C39.2938 487.837 39.397 486.914 39.3125 486V476.667C39.3125 471.214 36.1226 468.476 29.8609 468.476" fill="white"/>
<path d="M0 422H447" stroke="white" stroke-width="2"/>
</svg>
