<svg width="1410" height="1024" viewBox="0 0 1410 1024" fill="none" xmlns="http://www.w3.org/2000/svg">
<g clip-path="url(#clip0_344_10627)">
<path d="M1055.73 691.934C1055.71 691.725 1055.73 691.513 1055.8 691.315C1055.87 691.117 1055.99 690.938 1056.14 690.791C1056.29 690.645 1056.47 690.535 1056.67 690.47C1056.87 690.405 1057.08 690.388 1057.29 690.418C1058.34 690.418 1058.89 690.923 1058.89 691.934C1058.92 692.149 1058.9 692.368 1058.83 692.573C1058.76 692.778 1058.64 692.964 1058.48 693.116C1058.33 693.267 1058.14 693.38 1057.93 693.445C1057.72 693.51 1057.5 693.526 1057.29 693.491C1057.08 693.524 1056.86 693.505 1056.66 693.438C1056.46 693.371 1056.27 693.258 1056.12 693.106C1055.97 692.955 1055.85 692.769 1055.79 692.566C1055.72 692.362 1055.7 692.146 1055.73 691.934ZM1059.81 694.207C1060.14 693.925 1060.39 693.574 1060.56 693.18C1060.72 692.787 1060.8 692.361 1060.78 691.934C1060.77 691.368 1060.63 690.813 1060.36 690.313C1060.07 689.744 1059.6 689.281 1059.04 688.987L1060.72 688.103C1061.35 687.77 1061.96 687.397 1062.55 686.987C1063.15 686.566 1063.66 686.038 1064.06 685.43L1061.54 683.788C1060.85 684.604 1060.04 685.313 1059.14 685.893C1058.26 686.482 1057.42 687.029 1056.6 687.535C1055.81 688.005 1055.1 688.594 1054.49 689.282C1053.94 689.948 1053.65 690.794 1053.67 691.66C1053.66 692.544 1053.99 693.398 1054.6 694.039C1054.94 694.379 1055.36 694.643 1055.81 694.813C1056.26 694.984 1056.74 695.057 1057.23 695.028C1058.14 695.07 1059.04 694.77 1059.75 694.186M1058.13 715.592C1058.13 715.966 1058.01 716.33 1057.8 716.639C1057.59 716.948 1057.3 717.187 1056.95 717.328C1056.6 717.468 1056.22 717.502 1055.86 717.427C1055.49 717.351 1055.16 717.169 1054.89 716.903C1054.63 716.638 1054.45 716.3 1054.38 715.933C1054.31 715.566 1054.35 715.187 1054.49 714.842C1054.64 714.497 1054.88 714.202 1055.19 713.995C1055.5 713.788 1055.87 713.677 1056.24 713.677C1056.5 713.641 1056.76 713.667 1057.01 713.751C1057.26 713.835 1057.48 713.975 1057.66 714.161C1057.85 714.347 1057.99 714.573 1058.07 714.822C1058.15 715.07 1058.17 715.334 1058.13 715.592ZM1059.29 705.952C1058.44 705.226 1057.36 704.829 1056.24 704.837L1049.93 704.31V703.658C1049.9 703.238 1049.97 702.818 1050.11 702.423C1050.26 702.028 1050.48 701.667 1050.77 701.364C1051.12 701.057 1051.53 700.824 1051.97 700.679C1052.41 700.534 1052.87 700.481 1053.34 700.522C1054.2 700.531 1055.06 700.616 1055.9 700.774C1056.77 700.919 1057.65 700.996 1058.53 701.006H1060.15C1060.63 700.964 1061.11 700.88 1061.58 700.753L1061.18 698.017C1060.7 698.122 1060.2 698.193 1059.71 698.227C1059.2 698.227 1058.68 698.227 1058.15 698.227C1057.6 698.232 1057.05 698.19 1056.51 698.101C1056.03 698.101 1055.52 697.933 1054.98 697.848C1054.28 697.765 1053.58 697.73 1052.87 697.743C1052.05 697.694 1051.23 697.81 1050.45 698.085C1049.67 698.36 1048.96 698.787 1048.35 699.343C1047.8 699.893 1047.37 700.551 1047.08 701.275C1046.8 701.999 1046.66 702.774 1046.69 703.553V706.626L1054.96 707.236C1055.56 707.208 1056.16 707.412 1056.62 707.804C1056.95 708.253 1057.11 708.806 1057.06 709.362V711.867H1056.34C1055.3 711.83 1054.28 712.183 1053.48 712.856C1053.12 713.208 1052.83 713.634 1052.65 714.107C1052.46 714.579 1052.38 715.086 1052.41 715.592C1052.39 716.102 1052.47 716.611 1052.65 717.086C1052.84 717.561 1053.12 717.992 1053.48 718.35C1054.26 719.059 1055.29 719.43 1056.34 719.381C1056.88 719.408 1057.42 719.322 1057.92 719.13C1058.43 718.938 1058.88 718.644 1059.27 718.266C1059.64 717.851 1059.92 717.368 1060.1 716.844C1060.28 716.321 1060.35 715.766 1060.32 715.214V708.604C1060.35 708.126 1060.28 707.648 1060.12 707.196C1059.96 706.744 1059.71 706.329 1059.39 705.973M1028.1 703.026C1027.78 702.637 1027.6 702.143 1027.61 701.637C1027.6 701.131 1027.78 700.638 1028.1 700.248C1028.27 700.06 1028.48 699.914 1028.72 699.819C1028.96 699.724 1029.21 699.684 1029.47 699.701C1029.72 699.685 1029.98 699.726 1030.22 699.821C1030.46 699.915 1030.68 700.061 1030.85 700.248C1031.18 700.638 1031.35 701.131 1031.34 701.637C1031.35 702.143 1031.18 702.637 1030.85 703.026C1030.68 703.213 1030.46 703.359 1030.22 703.454C1029.98 703.548 1029.72 703.589 1029.47 703.574C1029.21 703.591 1028.96 703.55 1028.72 703.455C1028.48 703.361 1028.27 703.214 1028.1 703.026ZM1035.46 719.108C1037.2 719.265 1038.93 718.778 1040.34 717.739C1040.88 717.139 1041.29 716.432 1041.55 715.664C1041.8 714.895 1041.89 714.082 1041.81 713.277V698.164H1038.59V713.088C1038.66 713.969 1038.44 714.848 1037.96 715.592C1037.63 715.899 1037.23 716.128 1036.8 716.262C1036.37 716.397 1035.91 716.434 1035.46 716.371H1028.79V713.509C1028.76 712.629 1029.02 711.764 1029.53 711.046C1029.85 710.683 1030.25 710.403 1030.7 710.231C1031.15 710.058 1031.64 709.998 1032.12 710.057H1033.97V707.51H1031.86C1030.97 707.559 1030.08 707.339 1029.32 706.878C1029.03 706.693 1028.79 706.446 1028.61 706.154C1028.43 705.863 1028.32 705.535 1028.29 705.194C1028.66 705.325 1029.05 705.389 1029.44 705.384C1030.48 705.445 1031.5 705.097 1032.28 704.416C1032.65 704.062 1032.93 703.635 1033.12 703.164C1033.3 702.692 1033.38 702.186 1033.36 701.679C1033.38 701.168 1033.31 700.657 1033.12 700.179C1032.94 699.7 1032.66 699.265 1032.3 698.901C1031.44 698.193 1030.34 697.834 1029.22 697.897C1028.1 697.959 1027.05 698.437 1026.27 699.238C1025.46 700.354 1025.08 701.717 1025.17 703.09C1025.15 704.402 1025.5 705.693 1026.18 706.815C1026.75 707.785 1027.63 708.529 1028.69 708.92C1028.21 708.994 1027.75 709.167 1027.35 709.428C1026.94 709.689 1026.6 710.032 1026.33 710.436C1025.76 711.426 1025.49 712.558 1025.55 713.698V719.044L1035.46 719.108ZM1006.31 690.629C1007.08 690.002 1008.07 689.7 1009.06 689.787C1010.31 689.774 1011.55 690.086 1012.64 690.692C1013.63 691.22 1014.53 691.894 1015.31 692.692H1005.45C1005.44 692.295 1005.52 691.901 1005.68 691.537C1005.84 691.174 1006.07 690.849 1006.37 690.587M1019.12 694.796V687.366H1016.21V690.481C1015.32 689.527 1014.24 688.762 1013.04 688.229C1011.72 687.633 1010.28 687.339 1008.83 687.366C1007.08 687.254 1005.35 687.836 1004.02 688.987C1003.44 689.576 1002.99 690.279 1002.7 691.051C1002.41 691.823 1002.29 692.647 1002.33 693.47V694.796H1019.12ZM1001.18 701.574C1001.18 701.201 1001.3 700.839 1001.52 700.533C1001.73 700.227 1002.03 699.991 1002.37 699.854C1002.72 699.717 1003.1 699.686 1003.46 699.763C1003.83 699.841 1004.16 700.025 1004.42 700.291C1004.68 700.558 1004.86 700.896 1004.93 701.262C1005 701.628 1004.96 702.007 1004.81 702.351C1004.67 702.694 1004.43 702.988 1004.12 703.194C1003.81 703.4 1003.44 703.51 1003.07 703.511C1002.81 703.542 1002.55 703.514 1002.3 703.427C1002.05 703.34 1001.83 703.198 1001.64 703.01C1001.46 702.823 1001.32 702.596 1001.24 702.347C1001.16 702.098 1001.14 701.833 1001.18 701.574ZM1007.04 701.995C1007.08 701.435 1007.01 700.873 1006.83 700.342C1006.65 699.81 1006.37 699.32 1005.99 698.901C1005.6 698.532 1005.14 698.247 1004.64 698.062C1004.14 697.878 1003.6 697.798 1003.07 697.827C1002.01 697.772 1000.98 698.135 1000.19 698.838C999.829 699.202 999.549 699.637 999.368 700.115C999.187 700.594 999.108 701.105 999.137 701.616C999.11 702.124 999.194 702.632 999.383 703.105C999.572 703.577 999.861 704.003 1000.23 704.352C1001.03 705.013 1002.04 705.358 1003.07 705.321H1003.78V719.065H1012.77C1014.5 719.223 1016.24 718.736 1017.64 717.697C1018.19 717.097 1018.6 716.39 1018.85 715.622C1019.11 714.853 1019.2 714.04 1019.12 713.235V698.122H1015.75V713.046C1015.83 713.925 1015.61 714.804 1015.14 715.55C1014.8 715.856 1014.4 716.084 1013.97 716.219C1013.53 716.353 1013.07 716.391 1012.62 716.329H1006.94L1007.04 701.995ZM993.984 715.55C993.979 715.924 993.865 716.288 993.654 716.597C993.444 716.906 993.147 717.145 992.801 717.285C992.454 717.426 992.075 717.46 991.709 717.385C991.343 717.309 991.008 717.127 990.745 716.861C990.482 716.596 990.304 716.258 990.233 715.891C990.161 715.524 990.2 715.144 990.344 714.8C990.488 714.455 990.731 714.16 991.041 713.953C991.352 713.746 991.717 713.635 992.091 713.635C992.349 713.599 992.613 713.625 992.86 713.709C993.108 713.793 993.332 713.933 993.516 714.119C993.699 714.305 993.837 714.531 993.918 714.779C994 715.028 994.022 715.292 993.984 715.55ZM988.116 698.101V715.15C988.082 715.703 988.157 716.258 988.338 716.781C988.518 717.305 988.8 717.788 989.167 718.202C989.551 718.581 990.009 718.875 990.512 719.067C991.015 719.259 991.553 719.345 992.091 719.318C993.15 719.368 994.185 718.997 994.972 718.287C995.328 717.924 995.605 717.492 995.786 717.018C995.967 716.543 996.048 716.037 996.024 715.529C996.053 715.023 995.972 714.516 995.787 714.044C995.602 713.571 995.317 713.145 994.951 712.793C994.153 712.119 993.134 711.767 992.091 711.804H991.376V698.059L988.116 698.101ZM975.896 691.786C975.867 691.579 975.888 691.368 975.955 691.169C976.022 690.971 976.135 690.791 976.284 690.644C976.433 690.497 976.615 690.386 976.814 690.322C977.013 690.257 977.224 690.24 977.431 690.271C978.504 690.271 979.03 690.776 979.03 691.786C979.03 692.797 978.504 693.344 977.431 693.344C977.221 693.372 977.007 693.352 976.806 693.283C976.606 693.215 976.424 693.1 976.275 692.949C976.126 692.798 976.014 692.614 975.948 692.412C975.883 692.211 975.865 691.996 975.896 691.786ZM979.955 694.06C980.279 693.78 980.535 693.43 980.703 693.036C980.871 692.642 980.946 692.214 980.923 691.786C980.92 691.22 980.776 690.662 980.502 690.166C980.208 689.597 979.745 689.134 979.177 688.84L980.859 687.956C981.502 687.627 982.12 687.255 982.71 686.84C983.297 686.407 983.809 685.881 984.225 685.282L981.68 683.641C981.001 684.461 980.199 685.171 979.303 685.746C978.42 686.335 977.557 686.882 976.737 687.387C975.954 687.864 975.246 688.452 974.634 689.134C974.08 689.801 973.788 690.646 973.814 691.513C973.798 692.396 974.131 693.251 974.739 693.891C975.086 694.228 975.498 694.49 975.951 694.66C976.403 694.831 976.885 694.906 977.368 694.881C978.286 694.931 979.188 694.63 979.892 694.039M970.806 710.12C970.507 709.722 970.346 709.238 970.346 708.741C970.346 708.244 970.507 707.76 970.806 707.362C971.19 707.025 971.683 706.839 972.194 706.839C972.705 706.839 973.199 707.025 973.582 707.362C973.881 707.76 974.042 708.244 974.042 708.741C974.042 709.238 973.881 709.722 973.582 710.12C973.212 710.485 972.714 710.69 972.194 710.69C971.675 710.69 971.176 710.485 970.806 710.12ZM967.273 718.939L973.582 713.214C974.259 712.627 974.872 711.971 975.412 711.256C975.918 710.471 976.159 709.544 976.098 708.612C976.038 707.68 975.679 706.791 975.076 706.078C974.705 705.715 974.264 705.432 973.779 705.247C973.294 705.062 972.776 704.98 972.257 705.005C971.226 704.96 970.216 705.314 969.439 705.994C969.069 706.357 968.78 706.794 968.592 707.277C968.403 707.759 968.319 708.276 968.345 708.794C968.328 709.544 968.549 710.281 968.976 710.899C969.382 711.477 969.954 711.917 970.617 712.161L966.642 715.677V715.192C966.646 714.489 966.604 713.786 966.516 713.088C966.516 712.456 966.326 711.846 966.221 711.214C966.116 710.583 966.032 709.888 965.948 709.109C965.856 708.2 965.814 707.287 965.821 706.373C965.751 704.924 966.032 703.48 966.642 702.163C966.824 701.736 967.113 701.362 967.482 701.078C967.85 700.794 968.285 700.61 968.745 700.543L972.11 703.132H972.341L975.707 700.585C976.076 700.608 976.436 700.71 976.763 700.884C977.089 701.059 977.375 701.301 977.6 701.595C978.082 702.315 978.318 703.171 978.273 704.037V718.96H981.533V704.226C981.644 703.361 981.559 702.482 981.285 701.654C981.01 700.826 980.553 700.071 979.947 699.444C979.341 698.817 978.601 698.335 977.783 698.033C976.966 697.732 976.091 697.618 975.223 697.701L972.236 700.08L969.25 697.701C967.901 697.681 966.582 698.094 965.485 698.88C964.526 699.632 963.797 700.638 963.382 701.785C962.922 703.089 962.694 704.464 962.709 705.847C962.702 706.944 962.758 708.04 962.877 709.13C962.877 710.015 963.108 710.835 963.255 711.551C963.403 712.267 963.529 712.961 963.634 713.656C963.749 714.408 963.805 715.168 963.802 715.929V718.918L967.273 718.939ZM935.724 701.469C935.732 701.096 935.85 700.734 936.063 700.428C936.276 700.122 936.575 699.886 936.921 699.749C937.268 699.612 937.647 699.58 938.012 699.658C938.376 699.736 938.709 699.92 938.97 700.186C939.23 700.453 939.406 700.79 939.476 701.157C939.546 701.523 939.506 701.902 939.362 702.245C939.217 702.589 938.975 702.882 938.664 703.089C938.354 703.295 937.99 703.405 937.617 703.405C937.357 703.437 937.094 703.409 936.846 703.322C936.599 703.235 936.376 703.093 936.192 702.905C936.009 702.718 935.872 702.491 935.791 702.242C935.709 701.993 935.687 701.728 935.724 701.469ZM942.034 718.939L947.145 703.974H947.25L953.16 718.939H956.672V690.818H953.496V709.488C953.496 710.162 953.496 710.793 953.496 711.425C953.496 712.056 953.497 712.688 953.665 713.319H953.539L947.86 698.859H946.556L941.529 713.319C941.529 712.688 941.655 712.056 941.697 711.425C941.739 710.793 941.697 710.162 941.697 709.488V701.995C941.737 701.435 941.664 700.873 941.484 700.342C941.303 699.81 941.018 699.32 940.646 698.901C940.257 698.532 939.797 698.247 939.295 698.062C938.792 697.878 938.257 697.798 937.722 697.827C936.667 697.774 935.632 698.137 934.841 698.838C934.481 699.202 934.202 699.637 934.021 700.115C933.84 700.594 933.761 701.105 933.789 701.616C933.763 702.124 933.847 702.632 934.036 703.105C934.225 703.577 934.514 704.003 934.883 704.352C935.678 705.013 936.689 705.358 937.722 705.321C937.988 705.342 938.256 705.342 938.521 705.321V719.108L942.034 718.939ZM918.183 700.669C919.051 700.456 919.94 700.343 920.833 700.332C921.486 700.255 922.147 700.325 922.769 700.536C923.392 700.747 923.959 701.095 924.43 701.553C925.152 702.577 925.501 703.818 925.418 705.068V718.939H928.657V704.731C928.657 699.974 926.134 697.617 921.086 697.617C919.888 697.605 918.693 697.747 917.531 698.038C916.54 698.28 915.575 698.618 914.65 699.048L915.722 701.553C916.508 701.17 917.333 700.873 918.183 700.669ZM907.541 715.403C907.537 715.777 907.422 716.141 907.212 716.45C907.001 716.758 906.704 716.998 906.358 717.138C906.012 717.278 905.632 717.313 905.266 717.237C904.9 717.162 904.565 716.98 904.302 716.714C904.04 716.448 903.861 716.111 903.79 715.744C903.719 715.377 903.757 714.997 903.901 714.652C904.045 714.307 904.288 714.013 904.599 713.805C904.909 713.598 905.275 713.488 905.648 713.488C905.907 713.452 906.17 713.477 906.418 713.561C906.665 713.645 906.889 713.786 907.073 713.972C907.257 714.158 907.394 714.384 907.476 714.632C907.557 714.88 907.579 715.144 907.541 715.403ZM908.698 705.763C907.846 705.039 906.765 704.644 905.648 704.647L899.338 704.121V703.468C899.314 703.05 899.374 702.632 899.515 702.238C899.656 701.844 899.875 701.482 900.159 701.174C900.512 700.868 900.922 700.635 901.367 700.491C901.811 700.346 902.28 700.292 902.746 700.332C903.6 700.342 904.451 700.427 905.29 700.585C906.16 700.729 907.039 700.806 907.92 700.816H909.56C910.043 700.771 910.521 700.687 910.99 700.564L910.57 697.827C910.092 697.934 909.607 698.005 909.118 698.038C908.6 698.038 908.074 698.038 907.541 698.038C906.998 698.043 906.457 698 905.921 697.912C905.438 697.912 904.912 697.743 904.365 697.659C903.667 697.575 902.965 697.539 902.262 697.554C901.44 697.506 900.616 697.622 899.84 697.897C899.063 698.172 898.349 698.599 897.74 699.153C897.196 699.708 896.771 700.367 896.489 701.09C896.207 701.814 896.074 702.587 896.099 703.363V706.436L904.344 707.047C904.951 707.01 905.548 707.214 906.006 707.615C906.182 707.831 906.314 708.08 906.393 708.347C906.473 708.615 906.498 708.895 906.468 709.173V711.867H905.753C904.708 711.817 903.684 712.172 902.893 712.856C902.527 713.208 902.242 713.634 902.057 714.107C901.872 714.579 901.791 715.086 901.82 715.592C901.796 716.1 901.877 716.607 902.058 717.081C902.239 717.556 902.516 717.988 902.872 718.35C903.659 719.061 904.694 719.431 905.753 719.381C906.301 719.405 906.848 719.311 907.357 719.104C907.865 718.897 908.322 718.582 908.698 718.181C909.069 717.769 909.355 717.286 909.539 716.763C909.723 716.239 909.802 715.684 909.77 715.129V708.52C909.816 707.556 909.484 706.612 908.845 705.889M883.711 707.783C884.012 708.184 884.174 708.672 884.174 709.173C884.174 709.674 884.012 710.161 883.711 710.562C883.328 710.899 882.834 711.085 882.323 711.085C881.812 711.085 881.319 710.899 880.935 710.562C880.635 710.161 880.472 709.674 880.472 709.173C880.472 708.672 880.635 708.184 880.935 707.783C881.319 707.446 881.812 707.26 882.323 707.26C882.834 707.26 883.328 707.446 883.711 707.783ZM875.298 699.827C874.444 700.63 873.78 701.613 873.354 702.706C872.928 703.798 872.752 704.972 872.838 706.142C872.817 707.375 872.909 708.608 873.111 709.825C873.279 710.835 873.448 711.804 873.616 712.73C873.795 713.808 873.88 714.9 873.868 715.992V719.065H877.128V716.603C877.103 715.315 877.273 714.03 877.633 712.793C877.855 711.935 878.265 711.137 878.832 710.457C879.035 711.237 879.532 711.909 880.22 712.33C880.883 712.741 881.648 712.96 882.428 712.961C882.94 712.992 883.453 712.92 883.937 712.75C884.421 712.58 884.866 712.316 885.247 711.972C885.601 711.618 885.876 711.193 886.053 710.725C886.231 710.257 886.307 709.757 886.277 709.257C886.309 708.739 886.227 708.22 886.038 707.737C885.849 707.253 885.558 706.817 885.184 706.457C884.347 705.765 883.281 705.412 882.197 705.468C880.926 705.479 879.707 705.976 878.79 706.857C877.755 707.8 876.95 708.966 876.434 710.267C876.434 709.762 876.308 709.215 876.245 708.604C876.171 707.849 876.136 707.09 876.14 706.331C876.086 705.526 876.204 704.72 876.487 703.965C876.77 703.21 877.211 702.524 877.78 701.953C879.046 700.904 880.661 700.37 882.302 700.458C883.804 700.388 885.286 700.825 886.509 701.7C887.063 702.151 887.499 702.729 887.781 703.385C888.063 704.041 888.182 704.756 888.128 705.468V719.065H891.388V705.131C891.457 703.632 891.028 702.152 890.168 700.922C889.334 699.807 888.194 698.959 886.887 698.48C885.42 697.938 883.866 697.674 882.302 697.701C879.809 697.53 877.34 698.279 875.362 699.806M854.014 690.629C854.906 690.011 855.981 689.714 857.063 689.787C858.245 689.778 859.41 690.068 860.45 690.629C861.398 691.115 862.202 691.841 862.784 692.734H852.941C852.938 692.323 853.034 691.917 853.221 691.55C853.408 691.184 853.68 690.868 854.014 690.629ZM866.486 694.839L866.78 692.944C866.136 691.951 865.357 691.051 864.467 690.271C863.496 689.393 862.388 688.682 861.186 688.166C859.853 687.614 858.421 687.341 856.979 687.366C855.098 687.279 853.246 687.852 851.742 688.987C851.063 689.515 850.518 690.197 850.152 690.976C849.787 691.755 849.611 692.61 849.639 693.47L849.744 694.796L866.486 694.839ZM856.369 710.267C856.038 709.884 855.855 709.395 855.855 708.888C855.855 708.382 856.038 707.892 856.369 707.51C856.542 707.322 856.754 707.175 856.991 707.081C857.227 706.986 857.482 706.946 857.736 706.962C857.994 706.947 858.251 706.988 858.491 707.082C858.731 707.177 858.947 707.323 859.125 707.51C859.423 707.907 859.585 708.391 859.585 708.888C859.585 709.386 859.423 709.87 859.125 710.267C858.952 710.462 858.737 710.614 858.496 710.712C858.256 710.811 857.996 710.853 857.736 710.835C857.48 710.853 857.223 710.811 856.986 710.712C856.749 710.613 856.538 710.461 856.369 710.267ZM852.815 719.086L859.125 713.361C859.801 712.775 860.414 712.118 860.954 711.404C861.449 710.72 861.7 709.89 861.669 709.046C861.69 708.53 861.608 708.014 861.427 707.53C861.246 707.046 860.971 706.603 860.618 706.226C860.247 705.862 859.806 705.579 859.321 705.394C858.836 705.21 858.318 705.127 857.8 705.152C856.774 705.106 855.771 705.461 855.002 706.142C854.628 706.501 854.336 706.937 854.147 707.421C853.959 707.904 853.877 708.423 853.909 708.941C853.894 709.688 854.107 710.422 854.518 711.046C854.928 711.629 855.509 712.071 856.18 712.309L852.205 715.824V715.34C852.213 714.635 852.164 713.931 852.058 713.235C852.058 712.604 851.889 711.993 851.784 711.362C851.679 710.73 851.595 710.036 851.49 709.257C851.398 708.348 851.356 707.434 851.364 706.52C851.288 705.069 851.577 703.622 852.205 702.311C852.384 701.881 852.672 701.505 853.041 701.22C853.41 700.936 853.847 700.753 854.308 700.69L857.673 703.279H857.905L861.27 700.732C861.64 700.75 862.003 700.849 862.33 701.024C862.657 701.199 862.942 701.444 863.163 701.742C863.662 702.455 863.906 703.315 863.857 704.184V719.108H867.096V704.374C867.211 703.508 867.129 702.627 866.856 701.797C866.583 700.967 866.126 700.21 865.519 699.583C864.912 698.955 864.171 698.473 863.351 698.172C862.532 697.872 861.655 697.761 860.786 697.848L857.8 700.227L854.792 697.848C853.444 697.836 852.127 698.248 851.027 699.027C850.06 699.772 849.33 700.781 848.924 701.932C848.447 703.232 848.211 704.609 848.23 705.994C848.223 707.091 848.279 708.187 848.398 709.278C848.524 710.162 848.65 710.983 848.777 711.698C848.903 712.414 849.05 713.109 849.155 713.803C849.28 714.554 849.337 715.315 849.324 716.077V719.065L852.815 719.086ZM829.175 690.608C830.067 689.991 831.142 689.695 832.224 689.766C833.406 689.754 834.571 690.044 835.61 690.608C836.558 691.094 837.363 691.82 837.945 692.713H828.102C828.099 692.301 828.195 691.896 828.382 691.529C828.569 691.163 828.84 690.847 829.175 690.608ZM841.647 694.817L841.962 692.923C841.304 691.934 840.519 691.035 839.628 690.25C838.657 689.372 837.549 688.661 836.347 688.145C835.014 687.593 833.582 687.32 832.14 687.345C830.259 687.258 828.407 687.831 826.903 688.966C826.224 689.494 825.679 690.176 825.313 690.955C824.948 691.734 824.772 692.589 824.8 693.449L824.926 694.775L841.647 694.817ZM838.828 716.876C838.493 716.484 838.313 715.982 838.324 715.466C838.328 715.109 838.385 714.754 838.492 714.414C838.608 714.071 838.795 713.755 839.039 713.488C839.326 713.465 839.614 713.465 839.901 713.488C840.2 713.458 840.501 713.498 840.782 713.604C841.063 713.71 841.315 713.879 841.521 714.098C841.845 714.535 842.008 715.07 841.983 715.613C841.995 716.11 841.831 716.594 841.521 716.982C841.355 717.174 841.148 717.325 840.914 717.424C840.681 717.523 840.427 717.566 840.174 717.55C839.922 717.56 839.671 717.514 839.438 717.415C839.206 717.317 838.998 717.169 838.828 716.982M824.947 701.7C824.955 701.328 825.073 700.966 825.286 700.66C825.499 700.354 825.798 700.117 826.144 699.98C826.491 699.844 826.87 699.812 827.234 699.89C827.599 699.968 827.932 700.151 828.193 700.418C828.453 700.684 828.629 701.022 828.699 701.388C828.769 701.754 828.729 702.133 828.584 702.477C828.44 702.82 828.197 703.114 827.887 703.32C827.577 703.527 827.213 703.637 826.84 703.637C826.58 703.669 826.316 703.64 826.069 703.553C825.822 703.467 825.598 703.324 825.415 703.137C825.232 702.949 825.095 702.722 825.014 702.473C824.932 702.224 824.91 701.96 824.947 701.7ZM843.035 718.413C843.398 718.055 843.681 717.624 843.866 717.149C844.05 716.674 844.133 716.165 844.107 715.656C844.132 714.79 843.873 713.94 843.371 713.235C842.906 712.548 842.201 712.06 841.394 711.867C841.774 711.232 841.964 710.501 841.941 709.762V698.185H838.681V708.857C838.702 709.328 838.638 709.798 838.492 710.246C838.366 710.555 838.008 710.786 837.419 710.941C836.189 711.267 834.987 711.69 833.823 712.204C832.703 712.689 831.7 713.406 830.878 714.308V701.995C830.918 701.435 830.845 700.873 830.665 700.342C830.484 699.81 830.199 699.32 829.827 698.901C829.013 698.228 827.99 697.861 826.935 697.861C825.879 697.861 824.857 698.228 824.043 698.901C823.345 699.649 822.957 700.635 822.957 701.658C822.957 702.682 823.345 703.667 824.043 704.416C824.838 705.077 825.849 705.421 826.882 705.384H827.618V719.129H830.878C831.289 717.75 832.093 716.521 833.192 715.592C834.213 714.737 835.403 714.106 836.683 713.74C836.405 714.326 836.262 714.965 836.262 715.613C836.237 716.123 836.32 716.632 836.504 717.107C836.689 717.582 836.972 718.013 837.335 718.371C838.138 719.069 839.175 719.438 840.238 719.402C841.289 719.444 842.315 719.074 843.098 718.371M802.232 716.729C801.912 716.285 801.74 715.751 801.74 715.203C801.74 714.655 801.912 714.121 802.232 713.677C802.427 713.482 802.661 713.331 802.918 713.233C803.176 713.135 803.451 713.093 803.725 713.109C804.089 713.072 804.456 713.072 804.819 713.109C804.819 713.445 804.819 713.761 804.987 714.098C805.02 714.441 805.02 714.786 804.987 715.129C804.987 716.476 804.462 717.234 803.368 717.234C803.127 717.246 802.886 717.203 802.664 717.108C802.441 717.013 802.244 716.869 802.085 716.687M801.475 701.616C801.483 701.243 801.601 700.881 801.814 700.575C802.027 700.269 802.326 700.033 802.672 699.896C803.019 699.759 803.398 699.728 803.762 699.806C804.127 699.883 804.46 700.067 804.721 700.334C804.981 700.6 805.157 700.938 805.227 701.304C805.297 701.67 805.257 702.049 805.112 702.393C804.968 702.736 804.725 703.03 804.415 703.236C804.105 703.442 803.741 703.553 803.368 703.553C803.108 703.584 802.844 703.556 802.597 703.469C802.35 703.382 802.126 703.24 801.943 703.053C801.76 702.865 801.623 702.638 801.541 702.389C801.46 702.14 801.438 701.876 801.475 701.616ZM808.016 714.351C809.167 714.852 810.254 715.487 811.255 716.245C812.352 717.064 813.342 718.019 814.2 719.086H817.838V698.143H814.578V715.529C813.58 714.57 812.463 713.742 811.255 713.067C810.072 712.384 808.826 711.82 807.532 711.383C807.459 710.86 807.423 710.332 807.427 709.804V701.995C807.467 701.435 807.394 700.873 807.214 700.342C807.033 699.81 806.748 699.32 806.376 698.901C805.987 698.532 805.527 698.247 805.025 698.062C804.522 697.878 803.987 697.798 803.452 697.827C802.396 697.772 801.361 698.135 800.571 698.838C800.211 699.202 799.932 699.637 799.751 700.115C799.57 700.594 799.491 701.105 799.519 701.616C799.493 702.124 799.577 702.632 799.766 703.105C799.954 703.577 800.243 704.003 800.613 704.352C801.408 705.013 802.419 705.358 803.452 705.321H804.167V709.362C804.13 709.881 804.13 710.401 804.167 710.92H803.894C802.727 710.88 801.587 711.278 800.697 712.035C800.268 712.432 799.933 712.919 799.714 713.462C799.496 714.004 799.401 714.588 799.435 715.171C799.401 715.739 799.492 716.307 799.703 716.834C799.914 717.362 800.239 717.836 800.655 718.223C801.541 718.986 802.683 719.385 803.852 719.339C804.452 719.39 805.055 719.307 805.619 719.096C806.183 718.885 806.693 718.551 807.112 718.118C807.806 717.305 808.173 716.262 808.142 715.192C808.143 714.9 808.101 714.609 808.016 714.329M793.02 694.86L793.209 690.839V687.956H789.865V690.818L790.055 694.839L793.02 694.86ZM789.339 724.328C789.339 723.233 789.865 722.686 790.896 722.686C791.116 722.657 791.34 722.68 791.55 722.753C791.76 722.826 791.951 722.947 792.106 723.106C792.261 723.265 792.377 723.459 792.444 723.671C792.512 723.883 792.529 724.108 792.494 724.328C792.522 724.543 792.5 724.763 792.43 724.969C792.359 725.175 792.242 725.361 792.087 725.514C791.932 725.667 791.744 725.782 791.537 725.85C791.331 725.918 791.111 725.937 790.896 725.906C790.683 725.935 790.466 725.913 790.263 725.843C790.06 725.774 789.876 725.658 789.725 725.505C789.574 725.352 789.461 725.166 789.394 724.962C789.327 724.757 789.308 724.54 789.339 724.328ZM794.387 731.021V724.706C794.416 724.238 794.345 723.768 794.178 723.329C794.011 722.889 793.753 722.491 793.42 722.16C792.715 721.568 791.815 721.26 790.896 721.297C790.031 721.255 789.183 721.541 788.519 722.096C788.203 722.389 787.956 722.749 787.796 723.15C787.635 723.55 787.567 723.981 787.594 724.412C787.57 724.83 787.635 725.249 787.783 725.64C787.932 726.032 788.161 726.388 788.456 726.685C788.772 726.969 789.141 727.188 789.541 727.329C789.942 727.47 790.367 727.53 790.791 727.506C790.937 727.527 791.086 727.527 791.232 727.506V731.147L794.387 731.021ZM790.055 716.94C789.712 716.55 789.524 716.048 789.529 715.529C789.533 715.172 789.59 714.818 789.697 714.477C789.822 714.138 790.007 713.824 790.244 713.551C790.538 713.527 790.833 713.527 791.127 713.551C791.423 713.521 791.721 713.561 791.998 713.667C792.276 713.773 792.525 713.942 792.726 714.161C793.056 714.596 793.227 715.131 793.209 715.677C793.215 716.176 793.044 716.661 792.726 717.045C792.56 717.237 792.353 717.389 792.119 717.487C791.886 717.586 791.633 717.629 791.38 717.613C791.13 717.623 790.882 717.576 790.653 717.478C790.424 717.38 790.219 717.232 790.055 717.045M776.173 701.763C776.181 701.391 776.299 701.029 776.512 700.723C776.725 700.417 777.024 700.181 777.37 700.044C777.717 699.907 778.096 699.875 778.46 699.953C778.825 700.031 779.158 700.214 779.419 700.481C779.679 700.747 779.855 701.085 779.925 701.451C779.995 701.818 779.955 702.196 779.811 702.54C779.666 702.884 779.424 703.177 779.113 703.383C778.803 703.59 778.439 703.7 778.066 703.7C777.806 703.732 777.542 703.703 777.295 703.616C777.048 703.53 776.825 703.387 776.641 703.2C776.458 703.013 776.321 702.786 776.24 702.536C776.158 702.287 776.136 702.023 776.173 701.763ZM794.24 718.476C794.61 718.122 794.899 717.693 795.088 717.217C795.276 716.741 795.36 716.23 795.334 715.719C795.342 714.855 795.085 714.01 794.597 713.298C794.128 712.625 793.435 712.14 792.641 711.93C793.015 711.293 793.197 710.563 793.167 709.825V698.248H789.907V708.92C789.928 709.391 789.864 709.861 789.718 710.309C789.609 710.499 789.457 710.66 789.274 710.781C789.092 710.901 788.883 710.978 788.666 711.004C787.434 711.324 786.231 711.746 785.07 712.267C783.944 712.752 782.934 713.469 782.104 714.372V702.058C782.141 701.497 782.065 700.934 781.881 700.402C781.697 699.871 781.408 699.382 781.032 698.964C780.648 698.594 780.193 698.307 779.693 698.123C779.193 697.938 778.661 697.859 778.129 697.891C777.073 697.835 776.038 698.198 775.248 698.901C774.884 699.262 774.602 699.696 774.42 700.176C774.239 700.655 774.162 701.168 774.196 701.679C774.17 702.187 774.254 702.695 774.443 703.168C774.631 703.64 774.921 704.066 775.29 704.416C776.085 705.077 777.096 705.421 778.129 705.384H778.844V719.129H782.104C782.507 717.746 783.312 716.515 784.418 715.592C785.429 714.733 786.612 714.102 787.888 713.74C787.611 714.326 787.467 714.965 787.468 715.613C787.445 716.124 787.531 716.634 787.719 717.109C787.908 717.585 788.195 718.015 788.561 718.371C789.35 719.078 790.384 719.448 791.443 719.402C792.495 719.449 793.523 719.078 794.303 718.371M764.269 700.374C764.453 700.207 764.669 700.077 764.904 699.994C765.138 699.911 765.387 699.876 765.636 699.89C766.138 699.866 766.629 700.04 767.003 700.374C767.172 700.534 767.305 700.727 767.396 700.94C767.486 701.154 767.532 701.384 767.529 701.616C767.531 702.099 767.351 702.565 767.024 702.921C766.632 703.32 766.159 703.628 765.636 703.826C765.108 703.639 764.632 703.329 764.248 702.921C763.921 702.565 763.741 702.099 763.743 701.616C763.735 701.383 763.778 701.152 763.869 700.937C763.96 700.723 764.096 700.53 764.269 700.374ZM751.166 701.658C751.174 701.285 751.292 700.923 751.505 700.618C751.718 700.312 752.016 700.075 752.363 699.938C752.71 699.801 753.089 699.77 753.453 699.848C753.817 699.925 754.151 700.109 754.411 700.376C754.672 700.642 754.848 700.98 754.918 701.346C754.987 701.712 754.948 702.091 754.803 702.435C754.659 702.778 754.416 703.072 754.106 703.278C753.796 703.485 753.431 703.595 753.059 703.595C752.799 703.627 752.535 703.598 752.288 703.511C752.041 703.425 751.817 703.282 751.634 703.095C751.451 702.907 751.313 702.68 751.232 702.431C751.151 702.182 751.128 701.918 751.166 701.658ZM757.034 702.079C757.073 701.519 757.001 700.957 756.82 700.426C756.64 699.894 756.355 699.405 755.982 698.985C755.594 698.616 755.134 698.331 754.631 698.146C754.128 697.962 753.593 697.882 753.059 697.912C752.003 697.858 750.969 698.221 750.177 698.922C749.818 699.286 749.538 699.721 749.357 700.2C749.176 700.678 749.097 701.189 749.126 701.7C749.099 702.208 749.183 702.716 749.372 703.189C749.561 703.661 749.85 704.087 750.219 704.437C751.015 705.098 752.026 705.442 753.059 705.405H753.774V719.15H756.845C757.466 716.731 758.4 714.403 759.621 712.225C760.428 710.719 761.464 709.349 762.691 708.162C763.315 707.469 764.151 707.003 765.068 706.836C765.825 706.836 766.204 707.257 766.204 708.12V719.15H769.464V707.973C769.457 707.373 769.313 706.783 769.043 706.247C768.768 705.68 768.328 705.211 767.781 704.9C768.385 704.546 768.891 704.047 769.254 703.447C769.591 702.902 769.78 702.278 769.8 701.637C769.826 701.122 769.731 700.609 769.523 700.137C769.315 699.666 768.999 699.25 768.602 698.922C767.761 698.251 766.71 697.901 765.636 697.933C764.561 697.893 763.507 698.245 762.67 698.922C762.273 699.25 761.957 699.666 761.749 700.137C761.541 700.609 761.446 701.122 761.472 701.637C761.483 702.246 761.634 702.843 761.913 703.384C762.205 703.967 762.639 704.466 763.175 704.837C762.282 705.21 761.473 705.762 760.799 706.457C759.995 707.262 759.289 708.159 758.695 709.13C758.049 710.135 757.486 711.191 757.013 712.288C757.013 711.846 757.013 711.383 757.013 710.941C757.013 710.499 757.013 710.057 757.013 709.594L757.034 702.079ZM736.001 707.489H726.831V710.457H736.001V707.489ZM709.354 715.634C709.349 716.008 709.235 716.372 709.024 716.681C708.814 716.99 708.517 717.229 708.171 717.37C707.824 717.51 707.444 717.544 707.079 717.469C706.713 717.393 706.378 717.211 706.115 716.946C705.852 716.68 705.674 716.342 705.603 715.975C705.531 715.608 705.57 715.229 705.714 714.884C705.858 714.539 706.1 714.244 706.411 714.037C706.722 713.83 707.087 713.719 707.461 713.719C707.719 713.684 707.983 713.709 708.23 713.793C708.478 713.877 708.702 714.017 708.886 714.203C709.069 714.389 709.207 714.615 709.288 714.864C709.37 715.112 709.392 715.376 709.354 715.634ZM710.51 705.994C709.659 705.271 708.578 704.875 707.461 704.879L701.151 704.352V703.7C701.127 703.282 701.187 702.863 701.328 702.469C701.469 702.075 701.688 701.713 701.971 701.406C702.325 701.1 702.736 700.868 703.18 700.724C703.624 700.579 704.093 700.525 704.558 700.564C705.412 700.574 706.264 700.658 707.103 700.816C707.972 700.96 708.851 701.038 709.732 701.048H711.373C711.855 701.003 712.334 700.918 712.803 700.795L712.382 698.059C711.905 698.166 711.419 698.236 710.931 698.269C710.412 698.269 709.886 698.269 709.354 698.269C708.811 698.274 708.269 698.232 707.734 698.143C707.25 698.143 706.725 697.975 706.178 697.891C705.48 697.806 704.777 697.771 704.074 697.785C703.252 697.737 702.429 697.854 701.652 698.129C700.876 698.403 700.162 698.83 699.553 699.385C699.009 699.939 698.583 700.598 698.301 701.322C698.02 702.045 697.887 702.819 697.912 703.595V706.668L706.157 707.278C706.764 707.242 707.361 707.446 707.818 707.847C707.995 708.063 708.126 708.311 708.206 708.579C708.285 708.846 708.311 709.127 708.281 709.404V711.867H707.566C706.521 711.817 705.497 712.172 704.705 712.856C704.34 713.208 704.055 713.634 703.87 714.107C703.684 714.579 703.604 715.086 703.633 715.592C703.603 716.1 703.682 716.609 703.863 717.084C704.044 717.559 704.324 717.991 704.684 718.35C705.471 719.061 706.507 719.431 707.566 719.381C708.101 719.41 708.636 719.326 709.136 719.133C709.636 718.941 710.09 718.645 710.468 718.266C710.839 717.853 711.125 717.371 711.309 716.847C711.493 716.323 711.572 715.768 711.541 715.214V708.604C711.587 707.64 711.255 706.696 710.616 705.973M679.95 698.69C678.743 699.212 677.702 700.057 676.943 701.132C676.233 702.134 675.858 703.335 675.87 704.563V705.805L680.266 707.32C679.246 707.542 678.333 708.107 677.679 708.92C676.944 709.884 676.571 711.076 676.627 712.288V719.023H679.887V712.309C679.841 711.791 679.9 711.269 680.058 710.773C680.217 710.278 680.474 709.82 680.813 709.425C681.138 709.119 681.522 708.881 681.941 708.725C682.36 708.57 682.806 708.5 683.253 708.52L683.631 706.289L679.172 704.668C679.283 703.456 679.855 702.333 680.771 701.532C681.851 700.735 683.175 700.341 684.514 700.416C685.857 700.37 687.176 700.778 688.258 701.574C688.788 702.025 689.202 702.597 689.466 703.242C689.729 703.887 689.834 704.585 689.773 705.279V719.023H693.033V704.921C693.106 703.43 692.701 701.955 691.876 700.711C691.089 699.653 690.016 698.842 688.784 698.375C687.442 697.861 686.015 697.604 684.578 697.617C683.001 697.576 681.435 697.885 679.992 698.522M667.373 715.361C667.369 715.735 667.254 716.099 667.044 716.408C666.833 716.716 666.536 716.956 666.19 717.096C665.844 717.236 665.464 717.271 665.098 717.195C664.732 717.12 664.397 716.938 664.134 716.672C663.872 716.406 663.694 716.069 663.622 715.702C663.551 715.335 663.59 714.955 663.734 714.61C663.877 714.265 664.12 713.971 664.431 713.763C664.742 713.556 665.107 713.445 665.48 713.445C665.739 713.41 666.002 713.435 666.25 713.519C666.497 713.603 666.721 713.744 666.905 713.93C667.089 714.116 667.227 714.342 667.308 714.59C667.389 714.838 667.411 715.102 667.373 715.361ZM668.53 705.721C667.68 704.994 666.598 704.598 665.48 704.605L659.171 704.079V703.426C659.146 703.008 659.206 702.59 659.347 702.196C659.488 701.801 659.707 701.44 659.991 701.132C660.344 700.827 660.755 700.595 661.2 700.45C661.644 700.306 662.112 700.251 662.578 700.29C663.432 700.3 664.283 700.385 665.123 700.543C665.992 700.687 666.871 700.764 667.752 700.774H669.392C669.875 700.731 670.354 700.647 670.822 700.522L670.402 697.785C669.924 697.892 669.439 697.963 668.951 697.996C668.446 697.996 667.92 697.996 667.373 697.996C666.831 698 666.289 697.958 665.754 697.87C665.27 697.87 664.765 697.701 664.197 697.617C663.5 697.532 662.797 697.497 662.094 697.512C660.435 697.428 658.81 698.003 657.572 699.111C657.029 699.666 656.603 700.325 656.321 701.048C656.039 701.772 655.907 702.545 655.932 703.321V706.394L664.176 707.005C664.789 706.974 665.39 707.177 665.859 707.573C666.19 708.021 666.347 708.575 666.3 709.13V711.867H665.585C664.542 711.83 663.523 712.183 662.725 712.856C662.359 713.208 662.074 713.634 661.889 714.107C661.704 714.579 661.623 715.086 661.652 715.592C661.628 716.1 661.709 716.607 661.89 717.081C662.071 717.556 662.348 717.988 662.704 718.35C663.491 719.061 664.527 719.431 665.585 719.381C666.123 719.408 666.661 719.322 667.164 719.13C667.667 718.938 668.125 718.644 668.509 718.266C668.876 717.851 669.158 717.368 669.339 716.844C669.519 716.321 669.594 715.766 669.56 715.214V708.604C669.606 707.64 669.274 706.696 668.635 705.973M640.431 710.288C640.099 709.905 639.917 709.416 639.917 708.909C639.917 708.403 640.099 707.914 640.431 707.531C640.813 707.199 641.302 707.016 641.808 707.016C642.314 707.016 642.804 707.199 643.186 707.531C643.517 707.914 643.7 708.403 643.7 708.909C643.7 709.416 643.517 709.905 643.186 710.288C642.82 710.652 642.324 710.856 641.808 710.856C641.292 710.856 640.797 710.652 640.431 710.288ZM636.897 719.108L643.207 713.382C643.89 712.795 644.51 712.139 645.058 711.425C645.564 710.64 645.804 709.713 645.744 708.78C645.683 707.848 645.325 706.96 644.721 706.247C644.348 705.881 643.903 705.596 643.415 705.411C642.926 705.226 642.404 705.145 641.882 705.173C640.857 705.127 639.853 705.482 639.085 706.163C638.472 706.82 638.093 707.662 638.01 708.557C637.926 709.452 638.141 710.35 638.622 711.109C639.028 711.687 639.6 712.128 640.262 712.372L636.287 715.887V715.403C636.292 714.699 636.25 713.996 636.161 713.298C636.161 712.667 635.972 712.056 635.867 711.425C635.762 710.793 635.677 710.099 635.593 709.32C635.493 708.411 635.444 707.498 635.446 706.584C635.381 705.133 635.67 703.688 636.287 702.374C636.457 701.957 636.729 701.59 637.079 701.307C637.428 701.024 637.843 700.833 638.285 700.753L641.672 703.342H641.882L645.268 700.795C645.638 700.818 645.998 700.921 646.324 701.095C646.651 701.269 646.936 701.511 647.161 701.806C647.644 702.525 647.88 703.382 647.834 704.247V719.171H651.094V704.437C651.205 703.572 651.121 702.692 650.846 701.865C650.572 701.037 650.114 700.281 649.508 699.655C648.902 699.028 648.163 698.546 647.345 698.244C646.527 697.942 645.652 697.829 644.784 697.912L641.588 700.269L638.601 697.891C637.252 697.871 635.933 698.284 634.836 699.069C633.877 699.821 633.148 700.828 632.733 701.974C632.273 703.278 632.045 704.653 632.06 706.036C632.043 707.133 632.099 708.23 632.228 709.32C632.333 710.204 632.46 711.025 632.607 711.741L632.985 713.845C633.105 714.583 633.168 715.329 633.175 716.077V719.065L636.897 719.108ZM613.972 690.629C614.864 690.011 615.939 689.714 617.022 689.787C618.203 689.778 619.368 690.068 620.408 690.629C621.355 691.109 622.154 691.836 622.722 692.734H612.878C612.88 692.321 612.98 691.915 613.17 691.548C613.36 691.182 613.635 690.867 613.972 690.629ZM626.444 694.839L626.739 692.944C626.094 691.951 625.316 691.051 624.425 690.271C623.455 689.393 622.346 688.682 621.144 688.166C619.812 687.614 618.38 687.341 616.938 687.366C615.05 687.276 613.19 687.849 611.68 688.987C611.022 689.527 610.5 690.214 610.157 690.993C609.814 691.772 609.658 692.62 609.703 693.47L609.808 694.796L626.444 694.839ZM612.878 708.773C612.883 708.394 612.999 708.025 613.213 707.712C613.426 707.4 613.728 707.157 614.079 707.016C614.431 706.875 614.816 706.841 615.186 706.919C615.557 706.997 615.896 707.184 616.16 707.454C616.425 707.725 616.604 708.068 616.673 708.441C616.743 708.813 616.701 709.198 616.552 709.546C616.404 709.895 616.155 710.191 615.838 710.398C615.521 710.605 615.15 710.713 614.771 710.709C614.511 710.745 614.245 710.72 613.996 710.635C613.747 710.55 613.521 710.407 613.337 710.219C613.153 710.031 613.015 709.802 612.936 709.55C612.856 709.299 612.836 709.033 612.878 708.773ZM619.441 719.086C621.171 719.19 622.88 718.667 624.257 717.613C625.467 716.583 626.34 715.211 626.76 713.677C627.272 711.956 627.52 710.168 627.496 708.373C627.644 705.594 626.81 702.852 625.14 700.627C624.236 699.63 623.116 698.854 621.865 698.358C620.615 697.862 619.267 697.659 617.926 697.764C616.587 697.75 615.248 697.862 613.93 698.101C612.793 698.312 611.675 698.615 610.586 699.006L611.49 701.658C612.412 701.296 613.362 701.007 614.33 700.795C615.41 700.578 616.509 700.472 617.611 700.48C618.529 700.414 619.449 700.557 620.305 700.895C621.16 701.234 621.929 701.761 622.553 702.437C623.808 704.149 624.406 706.256 624.236 708.373C624.317 710.365 623.905 712.346 623.037 714.14C622.638 714.838 622.048 715.408 621.336 715.781C620.624 716.154 619.82 716.315 619.02 716.245H618.746V709.088C618.786 708.529 618.714 707.966 618.533 707.435C618.352 706.904 618.067 706.414 617.695 705.994C616.881 705.322 615.858 704.954 614.803 704.954C613.747 704.954 612.725 705.322 611.911 705.994C611.547 706.356 611.263 706.79 611.078 707.269C610.893 707.748 610.811 708.26 610.838 708.773C610.813 709.283 610.9 709.792 611.092 710.265C611.285 710.737 611.579 711.162 611.953 711.509C612.732 712.187 613.74 712.541 614.771 712.498H615.508V719.086H619.441ZM589.575 716.687C589.245 716.261 589.081 715.73 589.112 715.192C589.091 714.911 589.126 714.628 589.217 714.36C589.307 714.093 589.45 713.846 589.638 713.635C589.829 713.441 590.059 713.29 590.313 713.192C590.567 713.094 590.838 713.051 591.11 713.067C591.481 713.029 591.854 713.029 592.225 713.067C592.225 713.403 592.225 713.719 592.393 714.056C592.425 714.399 592.425 714.744 592.393 715.087C592.393 716.434 591.846 717.192 590.774 717.192C590.532 717.204 590.291 717.161 590.069 717.066C589.847 716.971 589.649 716.827 589.491 716.645M588.881 701.574C588.889 701.201 589.007 700.839 589.22 700.533C589.433 700.227 589.731 699.991 590.078 699.854C590.424 699.717 590.804 699.686 591.168 699.763C591.532 699.841 591.866 700.025 592.126 700.291C592.387 700.558 592.563 700.896 592.633 701.262C592.702 701.628 592.662 702.007 592.518 702.351C592.374 702.694 592.131 702.988 591.821 703.194C591.51 703.4 591.146 703.51 590.774 703.511C590.514 703.542 590.25 703.514 590.003 703.427C589.756 703.34 589.532 703.198 589.349 703.01C589.166 702.823 589.028 702.596 588.947 702.347C588.866 702.098 588.843 701.833 588.881 701.574ZM595.422 714.308C596.57 714.814 597.657 715.45 598.661 716.203C599.758 717.022 600.747 717.977 601.605 719.044H605.223V698.101H601.984V715.487C600.981 714.533 599.865 713.706 598.661 713.024C597.478 712.342 596.231 711.778 594.938 711.341C594.899 710.815 594.899 710.287 594.938 709.762V701.953C594.978 701.393 594.905 700.831 594.724 700.3C594.544 699.768 594.259 699.278 593.886 698.859C593.498 698.49 593.038 698.205 592.535 698.02C592.033 697.836 591.497 697.756 590.963 697.785C589.907 697.729 588.872 698.092 588.081 698.796C587.717 699.156 587.435 699.591 587.254 700.07C587.072 700.55 586.996 701.063 587.03 701.574C587.003 702.082 587.087 702.59 587.276 703.062C587.465 703.535 587.754 703.961 588.123 704.31C588.919 704.971 589.93 705.316 590.963 705.279H591.678V709.32C591.641 709.838 591.641 710.359 591.678 710.878H591.404C590.237 710.838 589.097 711.236 588.208 711.993C587.779 712.39 587.443 712.877 587.225 713.42C587.007 713.962 586.911 714.546 586.946 715.129C586.911 715.697 587.003 716.264 587.214 716.792C587.425 717.32 587.75 717.794 588.166 718.181C589.052 718.944 590.194 719.343 591.362 719.297C591.962 719.348 592.566 719.265 593.13 719.054C593.694 718.843 594.204 718.509 594.622 718.076C595.316 717.262 595.684 716.22 595.653 715.15C595.654 714.858 595.611 714.567 595.527 714.287M574.116 680.462C573.969 680.336 573.854 680.177 573.781 679.997C573.708 679.818 573.679 679.624 573.695 679.431C573.68 679.235 573.71 679.038 573.783 678.856C573.856 678.673 573.97 678.51 574.116 678.379C574.432 678.112 574.839 677.976 575.252 678C576.303 678 576.829 678.463 576.829 679.431C576.829 680.399 576.303 680.841 575.252 680.841C574.839 680.865 574.432 680.729 574.116 680.462ZM581.414 684.104C582.573 683.414 583.524 682.426 584.169 681.241C584.889 679.931 585.38 678.507 585.621 677.031L582.739 676.589C582.621 678.328 581.959 679.985 580.846 681.325C580.355 681.872 579.75 682.304 579.075 682.591C578.399 682.878 577.668 683.014 576.934 682.988C577.445 682.57 577.886 682.073 578.238 681.515C578.584 680.952 578.76 680.302 578.743 679.641C578.766 679.206 578.699 678.77 578.547 678.361C578.395 677.952 578.161 677.578 577.86 677.263C577.155 676.737 576.299 676.453 575.42 676.453C574.541 676.453 573.685 676.737 572.98 677.263C572.689 677.529 572.459 677.854 572.307 678.218C572.154 678.581 572.083 678.974 572.097 679.368C572.073 679.761 572.137 680.155 572.287 680.519C572.436 680.884 572.666 681.21 572.959 681.473C573.557 681.96 574.293 682.247 575.062 682.294C574.747 682.988 573.864 683.367 572.454 683.43V684.904L574.747 685.051H577.081C578.601 685.1 580.106 684.737 581.435 683.998M567.975 690.629C568.867 690.013 569.942 689.716 571.024 689.787C572.206 689.775 573.371 690.065 574.41 690.629C575.358 691.115 576.163 691.841 576.745 692.734H566.902C566.899 692.323 566.995 691.917 567.182 691.55C567.369 691.184 567.64 690.868 567.975 690.629ZM580.447 694.839L580.762 692.944C580.104 691.955 579.319 691.056 578.428 690.271C577.457 689.393 576.349 688.682 575.147 688.166C573.815 687.61 572.383 687.337 570.94 687.366C569.059 687.279 567.207 687.852 565.703 688.987C565.024 689.515 564.479 690.197 564.113 690.976C563.748 691.755 563.572 692.61 563.6 693.47L563.726 694.796L580.447 694.839ZM566.86 715.592C566.868 715.22 566.986 714.858 567.199 714.552C567.412 714.246 567.71 714.01 568.057 713.873C568.404 713.736 568.783 713.704 569.147 713.782C569.511 713.86 569.845 714.043 570.105 714.31C570.366 714.576 570.542 714.914 570.612 715.28C570.681 715.646 570.642 716.025 570.497 716.369C570.353 716.713 570.11 717.006 569.8 717.212C569.49 717.419 569.125 717.529 568.753 717.529C568.492 717.565 568.226 717.54 567.977 717.455C567.728 717.369 567.502 717.227 567.318 717.039C567.134 716.85 566.997 716.621 566.917 716.37C566.837 716.119 566.818 715.853 566.86 715.592ZM571.634 718.329C571.994 717.97 572.274 717.538 572.455 717.063C572.637 716.588 572.715 716.079 572.686 715.571C572.715 715.065 572.634 714.558 572.449 714.086C572.264 713.613 571.979 713.187 571.613 712.835C570.822 712.151 569.798 711.796 568.753 711.846C568.487 711.814 568.219 711.814 567.953 711.846V711.53C567.958 711.099 568.049 710.673 568.223 710.279C568.396 709.885 568.648 709.53 568.963 709.236C569.874 708.499 571.035 708.144 572.202 708.246C573.642 708.174 575.06 708.623 576.198 709.509C576.675 709.912 577.056 710.415 577.314 710.983C577.572 711.551 577.701 712.169 577.691 712.793V719.002H580.951V704.9C580.951 700.073 578.147 697.666 572.539 697.68C571.168 697.675 569.803 697.852 568.479 698.206C567.215 698.542 565.988 699.007 564.82 699.595L565.766 702.227C566.752 701.707 567.779 701.271 568.837 700.922C569.953 700.572 571.116 700.394 572.286 700.395C573.8 700.242 575.313 700.696 576.493 701.658C577.365 702.647 577.812 703.941 577.734 705.258V707.362C576.932 706.705 576 706.224 574.999 705.952C574.043 705.667 573.052 705.519 572.055 705.51C570.811 705.491 569.576 705.713 568.416 706.163C567.387 706.548 566.494 707.229 565.85 708.12C565.183 709.128 564.852 710.322 564.904 711.53V715.066C564.85 715.624 564.908 716.186 565.074 716.721C565.24 717.256 565.511 717.753 565.871 718.181C566.255 718.56 566.713 718.854 567.216 719.046C567.719 719.238 568.257 719.324 568.795 719.297C569.854 719.347 570.889 718.976 571.676 718.266M528.329 701.553C528.337 701.18 528.455 700.818 528.668 700.512C528.881 700.206 529.179 699.97 529.526 699.833C529.872 699.696 530.252 699.665 530.616 699.742C530.98 699.82 531.314 700.004 531.574 700.27C531.835 700.537 532.011 700.874 532.081 701.241C532.15 701.607 532.11 701.986 531.966 702.329C531.822 702.673 531.579 702.967 531.269 703.173C530.958 703.379 530.594 703.489 530.222 703.489C529.962 703.521 529.698 703.493 529.451 703.406C529.204 703.319 528.98 703.177 528.797 702.989C528.614 702.802 528.476 702.575 528.395 702.326C528.314 702.077 528.291 701.812 528.329 701.553ZM534.638 719.023L539.749 704.058H539.875L545.764 719.023H549.298V698.08H546.101V709.467C546.101 710.141 546.101 710.772 546.101 711.404C546.101 712.035 546.101 712.667 546.29 713.298H546.164L540.485 698.838H538.971L533.944 713.298C533.944 712.667 534.07 712.035 534.113 711.404C534.155 710.772 534.113 710.141 534.113 709.467V701.974C534.149 701.413 534.073 700.85 533.889 700.318C533.705 699.787 533.416 699.298 533.04 698.88C532.657 698.51 532.201 698.223 531.701 698.038C531.202 697.854 530.669 697.775 530.137 697.806C529.082 697.751 528.046 698.114 527.256 698.817C526.896 699.181 526.617 699.616 526.436 700.094C526.255 700.573 526.176 701.084 526.204 701.595C526.178 702.103 526.262 702.611 526.451 703.084C526.64 703.556 526.929 703.982 527.298 704.331C528.093 704.992 529.104 705.337 530.137 705.3C530.403 705.321 530.671 705.321 530.937 705.3V719.086L534.638 719.023ZM503.405 715.529C503.414 715.157 503.532 714.794 503.745 714.489C503.958 714.183 504.256 713.946 504.603 713.809C504.949 713.672 505.328 713.641 505.693 713.719C506.057 713.796 506.39 713.98 506.651 714.247C506.911 714.513 507.088 714.851 507.157 715.217C507.227 715.583 507.187 715.962 507.043 716.306C506.898 716.649 506.656 716.943 506.345 717.149C506.035 717.356 505.671 717.466 505.298 717.466C505.037 717.502 504.772 717.477 504.523 717.391C504.273 717.306 504.048 717.164 503.864 716.975C503.68 716.787 503.542 716.558 503.463 716.307C503.383 716.056 503.363 715.789 503.405 715.529ZM508.201 718.181C508.568 717.767 508.85 717.284 509.031 716.76C509.211 716.237 509.286 715.682 509.252 715.129V711.488C509.211 710.581 509.414 709.679 509.841 708.878C510.062 708.532 510.378 708.258 510.752 708.09C511.125 707.922 511.54 707.866 511.944 707.931L512.323 705.826L507.864 704.184C507.924 703.651 508.091 703.136 508.355 702.67C508.619 702.203 508.974 701.795 509.4 701.469C510.48 700.774 511.742 700.416 513.026 700.438C514.31 700.461 515.558 700.863 516.614 701.595C517.133 702.053 517.537 702.627 517.793 703.271C518.049 703.915 518.149 704.61 518.086 705.3V719.044H521.346V704.942C521.427 703.453 521.029 701.978 520.21 700.732C519.448 699.676 518.396 698.864 517.182 698.396C514.406 697.329 511.334 697.329 508.558 698.396C507.383 698.872 506.353 699.648 505.572 700.648C504.89 701.558 504.527 702.668 504.541 703.805V705.047L509.084 706.647C507.086 707.131 506.076 708.752 506.076 711.235V711.867H505.361C504.325 711.835 503.314 712.188 502.522 712.856C502.149 713.203 501.858 713.628 501.669 714.102C501.48 714.575 501.398 715.084 501.428 715.592C501.404 716.1 501.485 716.607 501.666 717.081C501.847 717.556 502.124 717.988 502.48 718.35C503.269 719.057 504.303 719.427 505.361 719.381C505.899 719.408 506.437 719.322 506.94 719.13C507.443 718.938 507.901 718.644 508.285 718.266M484.056 690.629C484.95 690.016 486.023 689.719 487.105 689.787C488.287 689.773 489.453 690.063 490.492 690.629C491.44 691.115 492.244 691.841 492.826 692.734H482.983C482.98 692.323 483.076 691.917 483.263 691.55C483.45 691.184 483.722 690.868 484.056 690.629ZM496.528 694.839L496.843 692.944C496.185 691.955 495.4 691.056 494.509 690.271C493.538 689.393 492.43 688.682 491.228 688.166C489.896 687.61 488.464 687.337 487.021 687.366C485.14 687.279 483.288 687.852 481.784 688.987C481.105 689.515 480.56 690.197 480.194 690.976C479.829 691.755 479.653 692.61 479.681 693.47L479.807 694.796L496.528 694.839ZM475.832 701.616C475.84 701.243 475.958 700.881 476.171 700.575C476.384 700.269 476.683 700.033 477.029 699.896C477.376 699.759 477.755 699.728 478.119 699.806C478.484 699.883 478.817 700.067 479.078 700.334C479.338 700.6 479.514 700.938 479.584 701.304C479.654 701.67 479.614 702.049 479.469 702.393C479.325 702.736 479.082 703.03 478.772 703.236C478.462 703.442 478.098 703.553 477.725 703.553C477.465 703.584 477.201 703.556 476.954 703.469C476.707 703.382 476.483 703.24 476.3 703.053C476.117 702.865 475.98 702.638 475.898 702.389C475.817 702.14 475.795 701.876 475.832 701.616ZM482.142 719.086L487.253 704.121H487.379L493.268 719.086H496.801V698.143H493.667V709.53C493.667 710.204 493.667 710.835 493.667 711.467C493.667 712.098 493.667 712.73 493.857 713.361H493.731L488.052 698.922H486.58L481.553 713.382C481.553 712.751 481.679 712.119 481.721 711.488C481.763 710.857 481.721 710.225 481.721 709.551V702.058C481.758 701.497 481.682 700.934 481.498 700.402C481.314 699.871 481.025 699.382 480.648 698.964C480.265 698.594 479.809 698.307 479.31 698.123C478.81 697.938 478.278 697.859 477.746 697.891C476.69 697.835 475.655 698.198 474.865 698.901C474.501 699.262 474.218 699.696 474.037 700.176C473.856 700.655 473.779 701.168 473.813 701.679C473.786 702.187 473.871 702.695 474.059 703.168C474.248 703.64 474.537 704.066 474.907 704.416C475.702 705.077 476.713 705.421 477.746 705.384C478.012 705.406 478.279 705.406 478.545 705.384V719.171L482.142 719.086ZM458.291 700.816C459.159 700.605 460.048 700.492 460.941 700.48C461.594 700.399 462.256 700.468 462.879 700.679C463.501 700.89 464.068 701.239 464.538 701.7C465.26 702.724 465.609 703.965 465.526 705.215V719.086H468.786V704.879C468.786 700.122 466.262 697.764 461.215 697.764C460.017 697.753 458.822 697.894 457.66 698.185C456.669 698.427 455.704 698.766 454.779 699.196L455.83 701.7C456.619 701.324 457.443 701.027 458.291 700.816ZM450.719 694.839L450.909 690.818V687.935H447.628V690.818L447.817 694.839H450.719ZM432.316 701.616C432.32 701.237 432.437 700.868 432.65 700.556C432.864 700.243 433.166 700.001 433.517 699.86C433.868 699.719 434.254 699.685 434.624 699.763C434.994 699.841 435.333 700.027 435.598 700.298C435.863 700.569 436.041 700.912 436.111 701.284C436.181 701.657 436.139 702.041 435.99 702.39C435.841 702.738 435.593 703.034 435.276 703.241C434.959 703.448 434.588 703.557 434.209 703.553C433.949 703.584 433.686 703.556 433.438 703.469C433.191 703.382 432.968 703.24 432.784 703.053C432.601 702.865 432.464 702.638 432.383 702.389C432.301 702.14 432.279 701.876 432.316 701.616ZM438.184 719.086V711.867C438.186 710.45 438.348 709.038 438.668 707.657C438.95 706.395 439.403 705.176 440.014 704.037C440.534 703.047 441.25 702.174 442.117 701.469C442.849 700.871 443.76 700.538 444.704 700.522C445.155 700.48 445.61 700.546 446.03 700.714C446.451 700.883 446.825 701.148 447.123 701.49C447.654 702.261 447.913 703.186 447.859 704.121V719.129H451.119V703.7C451.173 702.158 450.639 700.653 449.626 699.49C449.057 698.928 448.373 698.494 447.622 698.218C446.871 697.942 446.07 697.83 445.272 697.891C443.763 697.86 442.285 698.326 441.066 699.217C439.803 700.212 438.83 701.527 438.247 703.026V702.163C438.287 701.604 438.214 701.041 438.034 700.51C437.853 699.979 437.568 699.489 437.196 699.069C436.382 698.397 435.359 698.029 434.304 698.029C433.248 698.029 432.226 698.397 431.412 699.069C431.045 699.429 430.76 699.863 430.575 700.342C430.39 700.821 430.309 701.335 430.339 701.848C430.315 702.357 430.403 702.866 430.595 703.339C430.788 703.811 431.081 704.236 431.454 704.584C432.235 705.256 433.243 705.603 434.272 705.552H435.008V719.297L438.184 719.086ZM425.123 715.592C425.123 716.897 424.513 717.529 423.23 717.529C421.947 717.529 421.358 716.897 421.358 715.592C421.33 715.328 421.358 715.061 421.44 714.809C421.522 714.556 421.656 714.323 421.834 714.126C422.011 713.928 422.228 713.771 422.471 713.663C422.713 713.554 422.975 713.499 423.241 713.499C423.506 713.499 423.769 713.554 424.011 713.663C424.253 713.771 424.47 713.928 424.648 714.126C424.825 714.323 424.959 714.556 425.041 714.809C425.123 715.061 425.151 715.328 425.123 715.592ZM419.255 698.143V715.192C419.224 715.747 419.303 716.302 419.487 716.826C419.671 717.35 419.957 717.832 420.328 718.245C420.707 718.623 421.161 718.918 421.661 719.111C422.161 719.303 422.695 719.388 423.23 719.36C423.755 719.386 424.279 719.308 424.774 719.131C425.268 718.954 425.723 718.682 426.112 718.329C426.474 717.971 426.757 717.54 426.942 717.065C427.127 716.59 427.21 716.081 427.184 715.571C427.215 715.063 427.133 714.554 426.944 714.081C426.755 713.607 426.463 713.182 426.091 712.835C425.307 712.168 424.3 711.822 423.272 711.867H422.557V698.122L419.255 698.143ZM398.917 703.005C398.594 702.616 398.422 702.122 398.433 701.616C398.422 701.11 398.594 700.617 398.917 700.227C399.299 699.895 399.788 699.713 400.295 699.713C400.801 699.713 401.29 699.895 401.672 700.227C401.995 700.617 402.167 701.11 402.156 701.616C402.167 702.122 401.995 702.616 401.672 703.005C401.29 703.337 400.801 703.52 400.295 703.52C399.788 703.52 399.299 703.337 398.917 703.005ZM406.278 719.086C408.017 719.244 409.753 718.757 411.158 717.718C411.704 717.12 412.119 716.414 412.376 715.645C412.633 714.877 412.727 714.063 412.651 713.256V698.143H409.454V713.067C409.528 713.946 409.314 714.825 408.844 715.571C408.505 715.877 408.104 716.105 407.668 716.24C407.232 716.374 406.772 716.412 406.32 716.35H399.716V713.488C399.686 712.608 399.944 711.743 400.452 711.025C400.777 710.664 401.183 710.386 401.637 710.214C402.09 710.042 402.578 709.981 403.06 710.036H404.911V707.489H402.808C401.909 707.537 401.016 707.318 400.242 706.857C399.955 706.672 399.713 706.425 399.534 706.133C399.356 705.842 399.246 705.514 399.211 705.173C399.59 705.305 399.989 705.369 400.389 705.363C401.425 705.417 402.441 705.07 403.229 704.395C403.892 703.629 404.256 702.65 404.256 701.637C404.256 700.624 403.892 699.645 403.229 698.88C402.359 698.17 401.255 697.811 400.135 697.873C399.014 697.936 397.957 698.415 397.171 699.217C396.377 700.337 395.991 701.697 396.078 703.069C396.054 704.384 396.412 705.678 397.108 706.794C397.669 707.769 398.555 708.514 399.611 708.899C399.131 708.972 398.672 709.145 398.263 709.406C397.854 709.667 397.504 710.01 397.234 710.414C396.677 711.408 396.407 712.538 396.456 713.677V719.023L406.278 719.086ZM379.399 700.816C380.267 700.603 381.156 700.49 382.049 700.48C382.702 700.399 383.364 700.468 383.987 700.679C384.609 700.89 385.176 701.239 385.646 701.7C386.367 702.724 386.716 703.965 386.634 705.215V719.086H389.894V704.879C389.894 700.122 387.37 697.764 382.322 697.764C381.118 697.753 379.916 697.894 378.747 698.185C377.763 698.427 376.805 698.766 375.887 699.196L376.938 701.7C377.727 701.324 378.551 701.027 379.399 700.816ZM368.168 716.918C367.825 716.529 367.637 716.027 367.642 715.508C367.643 715.149 367.708 714.793 367.831 714.456C367.948 714.113 368.134 713.797 368.378 713.53C368.665 713.505 368.953 713.505 369.24 713.53C369.539 713.5 369.84 713.54 370.121 713.646C370.402 713.752 370.655 713.921 370.86 714.14C371.184 714.577 371.348 715.112 371.323 715.656C371.334 716.152 371.171 716.637 370.86 717.024C370.693 717.214 370.485 717.363 370.252 717.462C370.019 717.56 369.766 717.605 369.514 717.592C369.261 717.603 369.01 717.558 368.777 717.46C368.544 717.361 368.336 717.212 368.168 717.024M354.286 701.742C354.249 701.483 354.272 701.219 354.353 700.97C354.434 700.72 354.572 700.493 354.755 700.306C354.938 700.119 355.162 699.976 355.409 699.889C355.656 699.803 355.919 699.774 356.179 699.806C356.692 699.806 357.185 700.01 357.548 700.373C357.91 700.736 358.114 701.229 358.114 701.742C358.114 702.256 357.91 702.749 357.548 703.112C357.185 703.475 356.692 703.679 356.179 703.679C355.919 703.711 355.656 703.682 355.409 703.595C355.162 703.509 354.938 703.366 354.755 703.179C354.572 702.992 354.434 702.765 354.353 702.515C354.272 702.266 354.249 702.002 354.286 701.742ZM372.374 718.455C372.737 718.097 373.02 717.666 373.205 717.191C373.39 716.716 373.472 716.207 373.447 715.698C373.455 714.834 373.198 713.989 372.711 713.277C372.241 712.604 371.548 712.119 370.755 711.909C371.128 711.272 371.31 710.542 371.28 709.804V698.227H367.999V708.899C368.02 709.37 367.956 709.84 367.81 710.288C367.684 710.604 367.347 710.835 366.759 710.983C365.527 711.303 364.324 711.725 363.162 712.246C362.043 712.731 361.039 713.448 360.217 714.351V702.037C360.257 701.477 360.185 700.915 360.004 700.384C359.823 699.852 359.538 699.363 359.166 698.943C358.777 698.574 358.318 698.289 357.815 698.104C357.312 697.92 356.777 697.84 356.242 697.87C355.187 697.816 354.152 698.179 353.361 698.88C353.001 699.244 352.722 699.679 352.541 700.158C352.36 700.636 352.281 701.147 352.309 701.658C352.283 702.166 352.367 702.674 352.556 703.147C352.745 703.619 353.034 704.045 353.403 704.395C354.198 705.056 355.209 705.4 356.242 705.363H356.957V719.108H360.217C360.62 717.725 361.426 716.494 362.531 715.571C363.542 714.712 364.725 714.081 366.001 713.719C365.73 714.306 365.594 714.946 365.602 715.592C365.576 716.102 365.659 716.611 365.844 717.086C366.029 717.561 366.312 717.992 366.674 718.35C367.487 719.017 368.505 719.381 369.556 719.381C370.607 719.381 371.625 719.017 372.437 718.35" fill="white"/>
<path d="M976.443 528.007L969.481 523.798L962.372 528.007L969.334 531.944L976.443 528.007ZM956.147 525.124L969.944 519.062L983.404 525.271V529.965L974.487 534.364H991.733L1005.68 526.345L1014.76 531.333L997.79 539.984H959.028V536.027H963.718V533.754L956.147 529.965V525.124ZM954.338 551.898L938.437 559.622H971.458L954.338 551.898ZM931.623 554.781L953.875 543.878L973.12 551.75V544.783H994.762V566.611H931.665L931.623 554.781ZM983.867 633.987L976.443 630.346L969.334 633.987L976.59 637.607L983.867 633.987ZM945.252 581.534L937.827 577.745L930.719 581.534L938.29 585.491L945.252 581.534ZM937.827 570.841L954.191 577.514V586.459L950.552 588.564V620.137L962.372 615.759L970.995 620.895V571.494H991.586V621.358L985.529 625.904L992.049 629.083V637.502L977.053 644.322L959.932 637.502V629.777L967.504 625.841L962.057 622.81L950.762 627.883V643.333H925.103V635.608H929.499V589.532L921.633 586.354V577.703L937.827 570.841ZM883.143 595.847L878.306 592.669L873.448 595.847L878.306 598.583L883.143 595.847ZM864.53 591.195L888.612 580.145L881.04 576.945L859.23 583.765V602.877L864.53 606.35V591.195ZM852.584 579.976L879.673 570.294L894.396 575.283C895.019 575.118 895.625 574.892 896.204 574.609C896.841 574.275 897.453 573.895 898.034 573.472C899.063 572.48 899.792 571.218 900.138 569.831H914.86C914.8 571.482 914.205 573.068 913.166 574.351C912.127 575.635 910.699 576.545 909.097 576.945L915.302 581.955V643.333H893.975V584.081L885.899 587.68L891.199 592.058V599.194L877.864 604.645V643.291H857.421V610.834L852.584 605.992V579.976ZM804.42 580.587L796.701 576.798L789.276 580.587L796.995 584.523L804.42 580.587ZM796.701 570.294L812.454 576.798V585.575L807.448 588.459V617.401L820.362 575.43L826.419 571.494H840.048L847.62 580.292V643.333H826.672V582.565L807.743 643.333H782.925V635.46H788.056V588.775L780.948 585.133V576.945L796.701 570.294ZM768.076 635.545L761.871 632.198L755.351 635.545L761.871 639.333L768.076 635.545ZM767.466 571.431V627.062L776.405 631.272V639.165L762.018 644.617L746.118 638.555V571.41L767.466 571.431ZM725.969 590.374L719.407 593.469L726.053 596.058L725.969 590.374ZM726.285 622.958L719.765 625.989L726.285 628.725V622.958ZM709.627 589.469L725.38 583.26L733.394 587.659V592.5L740.818 589.006V596.899L726.895 603.214L709.627 596.247V589.469ZM709.922 622.053L725.822 615.738L733.856 620.137V624.978L741.112 621.653V629.377L727.189 635.692L709.922 628.725V622.053ZM687.059 634.029L680.75 630.535L673.935 634.029L680.75 638.113L687.059 634.029ZM695.998 590.522V636.829L680.855 644.406L665.712 638.197V630.619L676.228 625.315V592.416L659.255 584.986V577.872L673.199 571.557H690.467C690.994 572.881 691.913 574.012 693.101 574.798C694.289 575.585 695.689 575.989 697.113 575.956C698.666 576.035 700.202 575.604 701.488 574.731C702.775 573.857 703.742 572.588 704.243 571.115V580.503C703.782 582.257 702.707 583.789 701.214 584.818C699.662 585.9 697.806 586.46 695.914 586.417C693.89 586.154 692.045 585.121 690.761 583.534C689.752 582.767 688.929 581.782 688.353 580.652C687.778 579.522 687.465 578.276 687.438 577.009H679.446L672.337 582.165L695.998 590.522ZM608.609 581.366L601.5 577.724L594.391 581.513L601.353 585.47L608.609 581.366ZM601.794 571.073L617.695 577.577V585.765L611.953 588.943V635.25H632.249V562.717H653.45V643.333H586.146V637.123H591.11V589.069L584.8 584.986V577.556L601.794 571.073ZM523.975 643.354V589.385L517.308 586.649V581.808L536.847 571.494H556.365L579.08 582.25V643.291H557.29V581.808L553.252 579.534H539.034L531.463 584.523L543.409 589.827V643.333L523.975 643.354ZM484.287 571.494H499.283L511.902 578.166V643.417H489.293V576.651H487.021L477.178 582.25L474.15 577.261L484.287 571.494ZM441.781 593.995L435.471 590.585L428.573 593.995L435.471 597.868L441.781 593.995ZM461.761 591.89L459.953 585.07L450.572 577.956H432.358L417.215 584.923V578.608L430.381 571.641H451.876L464.916 580.734L468.702 593.363L453.853 617.148V643.522H434.314V603.782L421.001 598.015V589.596L435.471 584.691L449.542 590.585V611.213L461.761 591.89Z" fill="white"/>
<path d="M1053.82 469.45L1048.98 466.272L1044.12 469.45L1048.98 472.187L1053.82 469.45ZM1035.19 464.904L1059.27 453.853L1051.72 450.654L1029.91 457.474V476.586L1035.21 480.059L1035.19 464.904ZM1023.24 453.685L1050.33 444.003L1065.05 448.991C1065.68 448.826 1066.28 448.6 1066.86 448.318C1067.5 447.984 1068.11 447.604 1068.69 447.181C1069.72 446.189 1070.45 444.927 1070.79 443.539H1085.52C1085.46 445.19 1084.86 446.777 1083.82 448.06C1082.78 449.343 1081.35 450.253 1079.75 450.654L1085.96 455.663V517.041H1064.65V457.789L1056.64 461.389L1061.94 465.767V472.902L1048.6 478.354V516.999H1028.16V484.542L1023.32 479.701L1023.24 453.685ZM979.471 453.853L974.108 450.864L968.808 453.895L974.108 457.074L979.471 453.853ZM958.271 509.464H962.351V476.88L969.923 472.481L959.785 467.177V450.338L974.024 443.224L989.167 450.338V457.453L979.471 462.315V467.156L987.338 471.555V476.396L981.89 479.133V508.98H996.129V445.202H1017.62V517.041H958.355L958.271 509.464ZM938.122 507.801L931.917 504.307L925.103 507.801L931.917 511.884L938.122 507.801ZM947.061 464.293V510.6L931.917 518.178L916.774 511.863V504.286L927.29 498.981V466.125L910.338 458.694V451.58L924.262 445.265H941.529C942.055 446.595 942.977 447.73 944.17 448.517C945.363 449.304 946.768 449.705 948.196 449.665C949.747 449.745 951.282 449.316 952.565 448.442C953.849 447.567 954.811 446.297 955.305 444.823V454.211C954.822 455.927 953.75 457.418 952.277 458.421C950.724 459.503 948.868 460.063 946.977 460.021C945.02 459.727 943.242 458.714 941.992 457.179C940.983 456.412 940.16 455.427 939.584 454.297C939.009 453.167 938.696 451.922 938.669 450.654H930.634L923.526 455.811L947.061 464.293ZM861.585 454.295L853.867 450.507L846.442 454.295L854.161 458.231L861.585 454.295ZM853.867 444.003L869.62 450.507V459.284L864.53 462.189V491.13L877.402 449.138L883.459 445.202H897.088L904.66 454.001V517.146H883.754V456.274L864.824 517.041H840.006V509.169H845.138V462.483L838.029 458.842V450.654L853.867 444.003ZM822.213 507.696L814.789 504.054L807.743 507.696L814.999 511.316L822.213 507.696ZM783.598 455.2L776.194 451.412L769.085 455.2L776.657 459.158L783.598 455.2ZM776.194 444.55L792.557 451.222V460.168L788.919 462.273V493.846L800.739 489.467L809.362 494.603V445.202H829.953V495.066L823.896 499.613L830.416 502.791V511.211L815.42 518.03L798.299 511.211V503.486L805.871 499.55L800.424 496.519L789.066 501.528V516.978H763.449V509.253H767.781V463.241L759.915 460.063V451.412L776.194 444.55ZM722.141 468.356L715.832 465.009L709.774 468.356L716.084 471.534L722.141 468.356ZM695.641 509.422V482.942L690.95 479.764V455.663L710.468 445.139H732.868L753.774 454.085V516.978H733.331V454.001L730.596 452.338H711.667L697.281 458.652V475.618L700.604 478.354L706.073 474.86L701.214 471.534V465.22L715.453 458.4L729.923 465.22V472.187L717.199 477.786V517.041H690.929V509.316L695.641 509.422ZM678.226 508.811L671.538 505.591L665.018 508.769L671.538 512.263L678.226 508.811ZM646.278 433.036L657.635 428.953H672.358C672.93 430.232 673.803 431.353 674.901 432.222C676 433.09 677.292 433.68 678.668 433.941C679.517 434.133 680.384 434.239 681.255 434.257C682.984 434.21 684.683 433.794 686.239 433.036V439.351C684.499 440.39 682.523 440.97 680.497 441.035C678.873 441.033 677.271 440.666 675.807 439.961C674.487 439.391 673.26 438.625 672.169 437.688C671.107 436.608 670.283 435.317 669.75 433.899H657.131L654.102 437.078L676.06 445.265V500.665L685.903 505.212V512.642L671.811 518.409L655.616 512.095V444.55L646.383 440.151L646.278 433.036ZM629.599 507.696L622.175 504.054L615.045 507.696L622.322 511.316L629.599 507.696ZM590.984 455.2L583.56 451.412L576.388 455.2L583.959 459.158L590.984 455.2ZM583.56 444.55L599.902 451.222V460.168L596.284 462.273V493.846L608.083 489.467L616.727 494.603V445.202H637.381V495.066L631.324 499.613L637.823 502.791V511.211L622.848 518.03L605.728 511.211V503.486L613.299 499.55L607.852 496.519L596.494 501.528V516.978H570.835V509.253H575.231V463.241L567.344 460.063V451.412L583.56 444.55ZM523.807 466.567L518.128 463.494L512.828 466.525L518.128 470.019L523.807 466.567ZM541.222 445.202L560.445 453.622V517.125H499.052V509.548H503.448V464.293L517.686 456.421L532.83 462.483V472.334L524.417 475.512V509.927H540.464V455.369L535.606 450.212H520.883L503.448 457.179V451.875L518.591 445.202H541.222ZM454.989 426.259L442.37 432.931H470.595L454.989 426.259ZM431.854 429.142L454.989 418.239L472.867 425.353V418.681H481.742V425.353H484.939V418.681H494.614V440.656H431.812L431.854 429.142ZM450.488 453.685L444.725 450.212L438.416 453.685L444.725 457.326L450.488 453.685ZM453.664 508.559L447.354 505.528L441.045 508.559L447.354 511.737L453.664 508.559ZM463.507 504.622V512.642L447.46 518.409L431.412 512.095V504.517L437.722 501.781L434.987 499.045V460.82L428.341 457.789V450.654L444.831 443.539L459.974 449.854V459.557L455.136 461.368V496.119L464.832 491.572L472.698 496.119V445.202H493.731V517.041H473.161V503.696L465.127 498.708L458.48 501.886L463.507 504.622ZM413.955 453.538L408.949 450.97L403.649 454.001L408.949 457.179L413.955 453.538ZM379.567 454.001L374.267 450.97L369.43 454.001L374.267 457.179L379.567 454.001ZM374.267 443.687L389.41 450.507V458.547L385.477 461.115V498.245L393.049 464.293L398.349 461.578L393.049 458.084V451.769L408.655 443.729L423.798 450.043V458.463L419.255 461.031L421.968 463.767V516.957H402.282V462.946L399.254 465.22L387.097 517.041H360.491V509.464H364.424V462.02L358.682 458.084V450.507L374.267 443.687ZM345.958 509.316L339.753 505.97L333.233 509.316L339.753 513.105L345.958 509.316ZM345.348 445.202V500.834L354.287 505.043V512.937L339.9 518.388L324 512.347V445.202H345.348Z" fill="white"/>
<path d="M963.382 390.75V336.802L956.714 334.066V329.225L976.253 318.911H995.792L1018.51 329.667V390.708H996.739V329.225L992.827 326.951H978.588L971.016 331.94L982.963 337.202V390.75H963.382ZM923.757 318.911H938.732L951.351 325.583V390.834H928.742V324.068H926.47L916.627 329.667L913.598 324.678L923.757 318.911ZM863.941 327.33L858.22 323.92L851.911 327.393L858.22 331.035L863.941 327.33ZM867.117 382.204L860.807 379.173L854.498 382.204L860.807 385.382L867.117 382.204ZM876.96 378.268V386.287L860.912 392.055L844.844 385.74V378.163L851.153 375.426L848.419 372.69V334.529L841.752 331.498V324.362L858.22 317.248L873.364 323.563V333.266L868.526 335.076V369.827L878.201 365.281L886.235 369.827V318.911H907.268V390.75H886.677V377.405L878.643 372.416L871.975 375.595L876.96 378.268ZM836.22 313.754H816.681V296.641H836.22V313.754ZM797.227 327.562L791.842 324.573L786.542 327.604L791.842 330.782L797.227 327.562ZM776.194 383.172H780.275V350.589L787.846 346.19L777.709 340.886V324.047L791.926 316.932L807.07 324.047V331.161L797.227 336.044V340.886L805.093 345.285V350.126L799.645 352.862V382.709H814.052V318.911H835.547V390.75H776.194V383.172ZM765.131 383.025L758.927 379.678L752.26 383.025L758.927 386.814L765.131 383.025ZM732.426 383.025L726.116 379.678L719.407 383.025L725.906 386.814L732.426 383.025ZM764.374 318.911V374.542L773.313 378.752V386.666L759.074 392.118L743.026 386.056V318.911H764.374ZM731.669 318.911V374.542L740.608 378.752V386.666L726.369 392.118L710.321 386.056V318.911H731.669ZM649.643 390.75V336.802L642.997 334.066V329.225L662.515 318.911H682.054L704.685 329.667V390.708H682.811V329.225L678.878 326.951H664.723L657.151 331.94L669.035 337.202V390.75H649.643ZM638.895 300.241L632.544 297.21L626.486 300.388L632.544 304.177L638.895 300.241ZM603.729 300.114L588.733 307.397H621.186L603.729 300.114ZM603.729 293L622.364 301.419V297.546L633.175 293L642.702 296.936V304.219L637.718 305.419V314.364H581.982V303.524L603.729 293ZM617.821 331.498L608.882 336.339L617.821 340.886V331.498ZM599.944 382.709L593.276 379.531L586.609 382.709L593.276 386.35L599.944 382.709ZM583.896 376.058V339.98L612.815 326.951L606.506 323.457H595.443L579.858 330.593V325.289L592.267 318.974H614.246L621.355 323.078V318.616H637.381V323.92L632.544 326.951L637.381 330.13V390.75H617.863V348.021L603.729 340.444V376.963L609.03 378.773V386.814L593.424 393.128L577.376 386.456V378.878L583.896 376.058ZM539.413 301.63L532.451 297.694L525.489 301.63L532.22 305.629L539.413 301.63ZM519.264 298.915L532.893 293L546.374 299.062V303.524L537.604 308.155H554.703L568.795 300.283L577.881 305.271L560.76 313.691H522.145V309.965H526.688V307.545L519.264 303.524V298.915ZM549.719 402.453L545.617 400.032L541.074 402.621L545.617 405.189L549.719 402.453ZM545.176 395.486L555.019 399.695V404.684L550.812 407.42V415.461H558.531V395.149H567.975V421.817H537.436V416.05H541.074V407.273L535.332 405V399.695L545.176 395.486ZM555.923 381.551L549.613 378.057L542.799 381.551L549.719 385.614L555.923 381.551ZM564.862 338.044V384.351L549.719 391.928L534.575 385.614V378.036L545.091 372.732V339.833L528.118 332.403V325.289L542.063 318.974H559.309C559.838 320.301 560.76 321.435 561.952 322.222C563.145 323.008 564.549 323.41 565.977 323.373C567.529 323.452 569.065 323.021 570.352 322.148C571.638 321.274 572.605 320.005 573.106 318.532V327.92C572.632 329.651 571.559 331.158 570.078 332.171C568.525 333.254 566.669 333.814 564.778 333.771C562.784 333.487 560.973 332.456 559.709 330.887C558.696 330.123 557.869 329.138 557.29 328.008C556.711 326.878 556.394 325.632 556.365 324.362H548.351L541.221 329.519L564.862 338.044ZM478.629 327.52L472.867 324.047L466.662 327.52L472.867 331.161L478.629 327.52ZM481.742 382.267L475.432 379.299L469.123 382.33L475.432 385.509L481.742 382.267ZM491.585 378.331V386.35L475.432 392.118L459.364 385.803V378.226L465.674 375.489L462.939 372.753V334.529L456.272 331.498V324.362L472.782 317.248L487.926 323.563V333.266L483.088 335.076V369.827L492.763 365.281L500.797 369.827V318.911H521.83V390.75H501.26V377.405L493.226 372.416L486.559 375.595L491.585 378.331ZM414.207 329.919L407.898 326.13L401.588 329.919L407.898 333.098L414.207 329.919ZM407.687 317.943L422.536 326.362V333.939L413.724 339.307V378.331L421.295 370.753L428.11 378.478V318.911H450.362V390.75H430.234L421.001 380.604L411.747 390.75H403.334L392.818 383.467V325.878L407.687 317.943Z" fill="white"/>
</g>
<defs>
<clipPath id="clip0_344_10627">
<rect width="762" height="438" fill="white" transform="translate(324 293)"/>
</clipPath>
</defs>
</svg>
