<svg width="558" height="71" viewBox="0 0 558 71" fill="none" xmlns="http://www.w3.org/2000/svg">
<path d="M12.1583 61.074V23.26L9.05031 24.814L5.86831 23.26V53.748C5.86831 55.1293 6.28765 56.0913 7.12631 56.634C7.96498 57.1273 8.87765 57.2507 9.86431 57.004V60.63C9.12431 61.1727 8.18698 61.4933 7.05231 61.592C5.96698 61.74 4.90631 61.6167 3.87031 61.222C2.88365 60.8767 2.02031 60.2353 1.28031 59.298C0.540313 58.3607 0.170313 57.1273 0.170313 55.598V25.776C0.170313 24.0493 0.466313 22.6927 1.05831 21.706C1.65031 20.67 2.29165 19.8807 2.98231 19.338C3.82098 18.746 4.78298 18.3513 5.86831 18.154L9.05031 19.782L12.1583 18.154C13.1943 18.3513 14.1563 18.746 15.0443 19.338C15.735 19.8807 16.3763 20.67 16.9683 21.706C17.6096 22.6927 17.9056 24.0493 17.8563 25.776V61.074H12.1583ZM11.7189 14.898C10.5843 14.898 9.69627 14.7747 9.05494 14.528C8.36427 14.232 7.8216 13.8867 7.42694 13.492C7.03227 13.048 6.7856 12.5793 6.68694 12.086C6.53894 11.5433 6.46494 11.05 6.46494 10.606V8.09H12.2369C12.1876 8.78066 12.3849 9.39733 12.8289 9.94C13.2236 10.4333 13.7416 10.68 14.3829 10.68H19.7109V14.898H11.7189ZM37.6929 53.748C37.6929 55.4253 37.4709 56.782 37.0269 57.818C36.6323 58.854 36.0649 59.668 35.3249 60.26C34.5849 60.8027 33.7216 61.1727 32.7349 61.37C31.7483 61.5673 30.7123 61.666 29.6269 61.666C28.5416 61.666 27.5056 61.5673 26.5189 61.37C25.5323 61.1727 24.6689 60.8027 23.9289 60.26C23.1889 59.668 22.5969 58.854 22.1529 57.818C21.7583 56.782 21.5609 55.4253 21.5609 53.748V50.27H27.2589V53.452C27.2589 54.8333 27.4316 55.7953 27.7769 56.338C28.1716 56.8807 28.7883 57.152 29.6269 57.152C30.4656 57.152 31.0576 56.9053 31.4029 56.412C31.7976 55.8693 31.9949 54.8827 31.9949 53.452V26.294C31.9949 24.8633 31.7976 23.9013 31.4029 23.408C31.0576 22.8653 30.4656 22.594 29.6269 22.594C28.7883 22.594 28.1716 22.8653 27.7769 23.408C27.4316 23.9013 27.2589 24.8633 27.2589 26.294V31.844H21.5609V25.998C21.5609 24.3207 21.7583 22.9887 22.1529 22.002C22.5969 20.966 23.1889 20.1767 23.9289 19.634C24.6689 19.042 25.5323 18.6473 26.5189 18.45C27.5056 18.2527 28.5416 18.154 29.6269 18.154C30.7123 18.154 31.7483 18.2527 32.7349 18.45C33.7216 18.6473 34.5849 19.042 35.3249 19.634C36.0649 20.1767 36.6323 20.966 37.0269 22.002C37.4709 22.9887 37.6929 24.3207 37.6929 25.998V53.748ZM59.0477 53.748C59.0477 55.4253 58.8011 56.782 58.3077 57.818C57.8144 58.854 57.1484 59.668 56.3097 60.26C55.5204 60.8027 54.5831 61.1727 53.4977 61.37C52.4617 61.5673 51.3764 61.666 50.2417 61.666C49.0577 61.666 47.9231 61.5673 46.8377 61.37C45.8017 61.1727 44.8644 60.8027 44.0257 60.26C43.2364 59.668 42.5951 58.854 42.1017 57.818C41.6084 56.782 41.3617 55.4253 41.3617 53.748V36.432H50.2417V41.02H47.0597V53.452C47.0597 54.8333 47.3311 55.7953 47.8737 56.338C48.4657 56.8807 49.2551 57.152 50.2417 57.152C51.1791 57.152 51.9191 56.9053 52.4617 56.412C53.0537 55.8693 53.3497 54.8827 53.3497 53.452V26.294C53.3497 24.8633 53.0537 23.9013 52.4617 23.408C51.9191 22.8653 51.1791 22.594 50.2417 22.594C49.2551 22.594 48.4657 22.8653 47.8737 23.408C47.3311 23.9013 47.0597 24.8633 47.0597 26.294V31.844H41.3617V25.998C41.3617 24.3207 41.6084 22.9887 42.1017 22.002C42.5951 20.966 43.2364 20.1767 44.0257 19.634C44.8644 19.042 45.8017 18.6473 46.8377 18.45C47.9231 18.2527 49.0577 18.154 50.2417 18.154C51.3271 18.154 52.3877 18.2527 53.4237 18.45C54.5091 18.6473 55.4711 19.042 56.3097 19.634C57.1484 20.1767 57.8144 20.966 58.3077 22.002C58.8011 22.9887 59.0477 24.3207 59.0477 25.998V53.748ZM80.4383 61C80.4383 61 80.1177 61 79.4763 61C78.8843 61.0493 78.1443 61.074 77.2563 61.074C76.3683 61.1233 75.4063 61.148 74.3703 61.148C73.3837 61.148 72.4463 61.148 71.5583 61.148C70.4237 61.148 69.3383 61.0493 68.3023 60.852C67.2663 60.6547 66.329 60.2847 65.4903 59.742C64.6517 59.15 63.9857 58.3607 63.4923 57.374C62.999 56.338 62.7523 54.9813 62.7523 53.304V46.348C62.703 44.9667 62.925 43.7827 63.4183 42.796C63.961 41.8093 64.5777 41.02 65.2683 40.428C66.0083 39.7373 66.8717 39.17 67.8583 38.726C67.9077 38.726 67.661 38.6273 67.1183 38.43C66.5757 38.1833 65.9837 37.7887 65.3423 37.246C64.701 36.654 64.109 35.914 63.5663 35.026C63.0237 34.0887 62.7523 32.954 62.7523 31.622V23.778C62.999 22.0513 63.591 20.8427 64.5283 20.152C65.4657 19.412 66.4523 18.9187 67.4883 18.672C68.7217 18.4253 70.0783 18.4007 71.5583 18.598V22.668C71.5583 22.668 71.3857 22.668 71.0403 22.668C70.695 22.6187 70.325 22.7173 69.9303 22.964C69.5357 23.1613 69.1657 23.5807 68.8203 24.222C68.5243 24.8633 68.3763 25.8253 68.3763 27.108V32.066C68.3763 33.4473 68.697 34.434 69.3383 35.026C70.029 35.618 70.769 36.0127 71.5583 36.21C72.4463 36.4073 73.507 36.432 74.7403 36.284V18.746H80.4383V61ZM74.7403 41.02C73.507 40.9213 72.4463 41.02 71.5583 41.316C70.769 41.5627 70.0537 42.056 69.4123 42.796C68.771 43.536 68.4503 44.6953 68.4503 46.274V53.008C68.4503 54.4387 68.6723 55.4253 69.1163 55.968C69.6097 56.4613 70.4237 56.708 71.5583 56.708H74.7403V41.02ZM75.189 14.898V8.756H80.443V14.898H75.189ZM85.993 61V24.74C86.0423 24.2467 85.9683 23.8027 85.771 23.408C85.5736 23.0627 85.2036 22.7913 84.661 22.594C84.1676 22.3967 83.3783 22.3473 82.293 22.446C82.2436 22.446 82.2436 22.2487 82.293 21.854C82.293 21.4593 82.293 20.9907 82.293 20.448V18.45C84.661 18.0553 86.4616 18.1787 87.695 18.82C88.9776 19.412 89.915 20.1273 90.507 20.966C91.1976 21.9527 91.5923 23.1613 91.691 24.592V61H85.993ZM112.14 55.228C112.14 56.3627 111.943 57.374 111.548 58.262C111.203 59.002 110.66 59.668 109.92 60.26C109.18 60.852 108.12 61.0987 106.738 61H102.002L94.5284 18.45H99.8564L106.516 56.042V25.702C106.516 24.37 106.097 23.4573 105.258 22.964C104.42 22.4213 103.507 22.2733 102.52 22.52V18.894C103.26 18.3513 104.173 18.0307 105.258 17.932C106.344 17.784 107.38 17.9073 108.366 18.302C109.402 18.6473 110.29 19.2887 111.03 20.226C111.77 21.1633 112.14 22.3967 112.14 23.926V55.228ZM127.856 61.148V39.096C126.573 39.0467 125.463 39.1207 124.526 39.318C123.687 39.5153 122.922 39.8853 122.232 40.428C121.59 40.9213 121.27 41.7353 121.27 42.87V53.748C121.27 55.1293 121.738 56.0913 122.676 56.634C123.613 57.1273 124.575 57.2507 125.562 57.004V60.63C124.822 61.1727 123.884 61.4933 122.75 61.592C121.615 61.74 120.505 61.6167 119.42 61.222C118.384 60.8767 117.471 60.2353 116.682 59.298C115.942 58.3607 115.572 57.1273 115.572 55.598V43.092C115.572 40.7733 116.238 38.8493 117.57 37.32C118.902 35.7413 120.85 34.952 123.416 34.952H127.856V26.072C127.856 24.6413 127.56 23.6793 126.968 23.186C126.425 22.6433 125.685 22.372 124.748 22.372C123.761 22.372 122.972 22.6433 122.38 23.186C121.837 23.6793 121.566 24.6413 121.566 26.072V29.698H116.164V25.776C116.164 22.372 117.175 20.1273 119.198 19.042C121.22 17.9073 124.106 17.6113 127.856 18.154V16.082H133.554V61.074L127.856 61.148ZM128.304 70.99V66.994H125.122V63.294H133.558V70.99H128.304ZM153.39 53.748C153.39 55.4253 153.168 56.782 152.724 57.818C152.33 58.854 151.762 59.668 151.022 60.26C150.282 60.8027 149.419 61.1727 148.432 61.37C147.446 61.5673 146.41 61.666 145.324 61.666C144.239 61.666 143.203 61.5673 142.216 61.37C141.23 61.1727 140.366 60.8027 139.626 60.26C138.886 59.668 138.294 58.854 137.85 57.818C137.456 56.782 137.258 55.4253 137.258 53.748V47.162H142.956V53.452C142.956 54.8333 143.129 55.7953 143.474 56.338C143.869 56.8807 144.486 57.152 145.324 57.152C146.163 57.152 146.755 56.9053 147.1 56.412C147.495 55.8693 147.692 54.8827 147.692 53.452V48.79C147.692 47.8033 147.495 47.0387 147.1 46.496C146.706 45.904 146.163 45.164 145.472 44.276L139.108 36.284C138.319 35.2973 137.801 34.4093 137.554 33.62C137.357 32.8307 137.258 31.8687 137.258 30.734V25.998C137.258 24.3207 137.456 22.9887 137.85 22.002C138.294 20.966 138.886 20.1767 139.626 19.634C140.366 19.042 141.205 18.6473 142.142 18.45C143.129 18.2527 144.19 18.154 145.324 18.154C146.41 18.154 147.446 18.2527 148.432 18.45C149.419 18.6473 150.282 19.042 151.022 19.634C151.762 20.1767 152.33 20.966 152.724 22.002C153.168 22.9887 153.39 24.3207 153.39 25.998V31.844H147.692V26.294C147.692 24.8633 147.495 23.9013 147.1 23.408C146.755 22.8653 146.163 22.594 145.324 22.594C144.486 22.594 143.869 22.8653 143.474 23.408C143.129 23.9013 142.956 24.8633 142.956 26.294V30.734C142.956 31.8193 143.203 32.732 143.696 33.472C144.239 34.1627 144.757 34.7793 145.25 35.322L151.54 43.018C152.379 44.054 152.897 45.016 153.094 45.904C153.292 46.7427 153.39 47.6553 153.39 48.642V53.748ZM158.909 61V24.74C158.958 24.2467 158.884 23.8027 158.687 23.408C158.49 23.0627 158.12 22.7913 157.577 22.594C157.084 22.3967 156.294 22.3473 155.209 22.446C155.16 22.446 155.16 22.2487 155.209 21.854C155.209 21.4593 155.209 20.9907 155.209 20.448V18.45C157.577 18.0553 159.378 18.1787 160.611 18.82C161.894 19.412 162.831 20.1273 163.423 20.966C164.114 21.9527 164.508 23.1613 164.607 24.592V61H158.909ZM180.32 61V25.702C180.32 24.8633 180.049 24.1727 179.506 23.63C178.964 23.038 178.273 22.7173 177.434 22.668C176.546 22.6187 175.757 22.89 175.066 23.482C174.376 24.074 174.03 24.814 174.03 25.702V61H168.332V18.746H173.586V21.484C174.474 20.0533 175.609 19.0913 176.99 18.598C178.421 18.1047 179.802 18.006 181.134 18.302C182.466 18.598 183.601 19.264 184.538 20.3C185.525 21.2867 186.018 22.594 186.018 24.222V61H180.32ZM179.585 14.898V11.864H176.847V7.646H178.697H180.547C181.386 7.646 182.027 7.84333 182.471 8.238C182.866 8.58333 183.137 8.95333 183.285 9.348C183.482 9.89066 183.556 10.458 183.507 11.05H187.651V14.898H179.585ZM207.409 53.748C207.409 55.4253 207.162 56.782 206.669 57.818C206.176 58.854 205.51 59.668 204.671 60.26C203.882 60.8027 202.944 61.1727 201.859 61.37C200.823 61.5673 199.738 61.666 198.603 61.666C197.419 61.666 196.284 61.5673 195.199 61.37C194.163 61.1727 193.226 60.8027 192.387 60.26C191.598 59.668 190.956 58.854 190.463 57.818C189.97 56.782 189.723 55.4253 189.723 53.748V36.432H198.603V41.02H195.421V53.452C195.421 54.8333 195.692 55.7953 196.235 56.338C196.827 56.8807 197.616 57.152 198.603 57.152C199.54 57.152 200.28 56.9053 200.823 56.412C201.415 55.8693 201.711 54.8827 201.711 53.452V26.294C201.711 24.8633 201.415 23.9013 200.823 23.408C200.28 22.8653 199.54 22.594 198.603 22.594C197.616 22.594 196.827 22.8653 196.235 23.408C195.692 23.9013 195.421 24.8633 195.421 26.294V31.844H189.723V25.998C189.723 24.3207 189.97 22.9887 190.463 22.002C190.956 20.966 191.598 20.1767 192.387 19.634C193.226 19.042 194.163 18.6473 195.199 18.45C196.284 18.2527 197.419 18.154 198.603 18.154C199.688 18.154 200.749 18.2527 201.785 18.45C202.87 18.6473 203.832 19.042 204.671 19.634C205.51 20.1767 206.176 20.966 206.669 22.002C207.162 22.9887 207.409 24.3207 207.409 25.998V53.748ZM227.838 55.228C227.838 56.3627 227.64 57.374 227.246 58.262C226.9 59.002 226.358 59.668 225.618 60.26C224.878 60.852 223.817 61.0987 222.436 61H217.7L210.226 18.45H215.554L222.214 56.042V25.702C222.214 24.37 221.794 23.4573 220.956 22.964C220.117 22.4213 219.204 22.2733 218.218 22.52V18.894C218.958 18.3513 219.87 18.0307 220.956 17.932C222.041 17.784 223.077 17.9073 224.064 18.302C225.1 18.6473 225.988 19.2887 226.728 20.226C227.468 21.1633 227.838 22.3967 227.838 23.926V55.228ZM243.553 61V26.59C243.553 25.1593 243.306 24.1973 242.813 23.704C242.369 23.1613 241.58 22.89 240.445 22.89H237.263V56.56H240.445V61H231.565V18.598C231.565 18.598 231.861 18.598 232.453 18.598C233.094 18.5487 233.859 18.524 234.747 18.524C235.635 18.524 236.572 18.524 237.559 18.524C238.595 18.4747 239.557 18.45 240.445 18.45C241.53 18.45 242.591 18.5487 243.627 18.746C244.712 18.9433 245.674 19.338 246.513 19.93C247.352 20.4727 248.018 21.262 248.511 22.298C249.004 23.2847 249.251 24.6167 249.251 26.294V61H243.553ZM231.569 14.898V10.31H249.107V14.898H231.569ZM244.667 6.758V0.763999H249.255V6.758H244.667ZM265.387 61V58.262C264.499 59.6927 263.34 60.6547 261.909 61.148C260.528 61.6907 259.171 61.814 257.839 61.518C256.507 61.222 255.348 60.556 254.361 59.52C253.424 58.484 252.955 57.152 252.955 55.524V18.746H258.653V54.044C258.653 54.8827 258.925 55.598 259.467 56.19C260.01 56.782 260.701 57.078 261.539 57.078C262.427 57.1273 263.217 56.856 263.907 56.264C264.598 55.672 264.943 54.932 264.943 54.044V18.746H270.641V61H265.387ZM310.532 53.748C310.532 55.4253 310.285 56.782 309.792 57.818C309.299 58.854 308.633 59.668 307.794 60.26C307.005 60.8027 306.067 61.1727 304.982 61.37C303.946 61.5673 302.861 61.666 301.726 61.666C300.542 61.666 299.407 61.5673 298.322 61.37C297.286 61.1727 296.349 60.8027 295.51 60.26C294.721 59.668 294.079 58.854 293.586 57.818C293.093 56.782 292.846 55.4253 292.846 53.748V36.21C292.846 34.138 293.117 32.5593 293.66 31.474C294.252 30.3393 294.893 29.4267 295.584 28.736C296.275 27.996 296.941 27.3547 297.582 26.812C298.273 26.2693 298.692 25.554 298.84 24.666C298.84 23.8273 298.643 23.26 298.248 22.964C297.903 22.7173 297.311 22.6927 296.472 22.89C295.633 23.038 294.425 23.6793 292.846 24.814V20.226C294.622 19.042 296.127 18.4007 297.36 18.302C298.643 18.154 299.703 18.2527 300.542 18.598C301.479 18.9927 302.244 19.634 302.836 20.522C303.823 22.1007 304.143 23.408 303.798 24.444C303.502 25.48 302.959 26.4913 302.17 27.478C301.381 28.4153 300.567 29.4513 299.728 30.586C298.939 31.7207 298.544 33.1513 298.544 34.878V53.452C298.544 54.8333 298.815 55.7953 299.358 56.338C299.95 56.8807 300.739 57.152 301.726 57.152C302.663 57.152 303.403 56.9053 303.946 56.412C304.538 55.8693 304.834 54.8827 304.834 53.452V18.672H310.532V53.748ZM331.923 53.748C331.923 55.4253 331.676 56.782 331.183 57.818C330.689 58.854 330.023 59.668 329.185 60.26C328.395 60.8027 327.458 61.1727 326.373 61.37C325.337 61.5673 324.251 61.666 323.117 61.666C321.933 61.666 320.798 61.5673 319.713 61.37C318.677 61.1727 317.739 60.8027 316.901 60.26C316.111 59.668 315.47 58.854 314.977 57.818C314.483 56.782 314.237 55.4253 314.237 53.748V36.432H323.117V41.02H319.935V53.452C319.935 54.8333 320.206 55.7953 320.749 56.338C321.341 56.8807 322.13 57.152 323.117 57.152C324.054 57.152 324.794 56.9053 325.337 56.412C325.929 55.8693 326.225 54.8827 326.225 53.452V26.294C326.225 24.8633 325.929 23.9013 325.337 23.408C324.794 22.8653 324.054 22.594 323.117 22.594C322.13 22.594 321.341 22.8653 320.749 23.408C320.206 23.9013 319.935 24.8633 319.935 26.294V31.844H314.237V25.998C314.237 24.3207 314.483 22.9887 314.977 22.002C315.47 20.966 316.111 20.1767 316.901 19.634C317.739 19.042 318.677 18.6473 319.713 18.45C320.798 18.2527 321.933 18.154 323.117 18.154C324.202 18.154 325.263 18.2527 326.299 18.45C327.384 18.6473 328.346 19.042 329.185 19.634C330.023 20.1767 330.689 20.966 331.183 22.002C331.676 22.9887 331.923 24.3207 331.923 25.998V53.748ZM352.351 55.228C352.351 56.3627 352.154 57.374 351.759 58.262C351.414 59.002 350.871 59.668 350.131 60.26C349.391 60.852 348.331 61.0987 346.949 61H342.213L334.739 18.45H340.067L346.727 56.042V25.702C346.727 24.37 346.308 23.4573 345.469 22.964C344.631 22.4213 343.718 22.2733 342.731 22.52V18.894C343.471 18.3513 344.384 18.0307 345.469 17.932C346.555 17.784 347.591 17.9073 348.577 18.302C349.613 18.6473 350.501 19.2887 351.241 20.226C351.981 21.1633 352.351 22.3967 352.351 23.926V55.228ZM373.765 53.748C373.765 55.4253 373.518 56.782 373.025 57.818C372.531 58.854 371.865 59.668 371.027 60.26C370.237 60.8027 369.3 61.1727 368.215 61.37C367.179 61.5673 366.093 61.666 364.959 61.666C363.775 61.666 362.64 61.5673 361.555 61.37C360.519 61.1727 359.581 60.8027 358.743 60.26C357.953 59.668 357.312 58.854 356.819 57.818C356.325 56.782 356.079 55.4253 356.079 53.748V18.746H361.777V53.452C361.777 54.8333 362.048 55.7953 362.591 56.338C363.183 56.8807 363.972 57.152 364.959 57.152C365.896 57.152 366.636 56.9053 367.179 56.412C367.771 55.8693 368.067 54.8827 368.067 53.452V8.016H373.765V53.748ZM393.601 53.748C393.601 55.4253 393.379 56.782 392.935 57.818C392.54 58.854 391.973 59.668 391.233 60.26C390.493 60.8027 389.63 61.1727 388.643 61.37C387.656 61.5673 386.62 61.666 385.535 61.666C384.45 61.666 383.414 61.5673 382.427 61.37C381.44 61.1727 380.577 60.8027 379.837 60.26C379.097 59.668 378.505 58.854 378.061 57.818C377.666 56.782 377.469 55.4253 377.469 53.748V47.162H383.167V53.452C383.167 54.8333 383.34 55.7953 383.685 56.338C384.08 56.8807 384.696 57.152 385.535 57.152C386.374 57.152 386.966 56.9053 387.311 56.412C387.706 55.8693 387.903 54.8827 387.903 53.452V48.79C387.903 47.8033 387.706 47.0387 387.311 46.496C386.916 45.904 386.374 45.164 385.683 44.276L379.319 36.284C378.53 35.2973 378.012 34.4093 377.765 33.62C377.568 32.8307 377.469 31.8687 377.469 30.734V25.998C377.469 24.3207 377.666 22.9887 378.061 22.002C378.505 20.966 379.097 20.1767 379.837 19.634C380.577 19.042 381.416 18.6473 382.353 18.45C383.34 18.2527 384.4 18.154 385.535 18.154C386.62 18.154 387.656 18.2527 388.643 18.45C389.63 18.6473 390.493 19.042 391.233 19.634C391.973 20.1767 392.54 20.966 392.935 22.002C393.379 22.9887 393.601 24.3207 393.601 25.998V31.844H387.903V26.294C387.903 24.8633 387.706 23.9013 387.311 23.408C386.966 22.8653 386.374 22.594 385.535 22.594C384.696 22.594 384.08 22.8653 383.685 23.408C383.34 23.9013 383.167 24.8633 383.167 26.294V30.734C383.167 31.8193 383.414 32.732 383.907 33.472C384.45 34.1627 384.968 34.7793 385.461 35.322L391.751 43.018C392.59 44.054 393.108 45.016 393.305 45.904C393.502 46.7427 393.601 47.6553 393.601 48.642V53.748ZM400.156 32.288C399.071 32.2387 398.207 31.9427 397.566 31.4C396.974 30.808 396.678 29.9447 396.678 28.81V24.888H402.154V27.626H406.002V32.288H400.156ZM400.156 54.858C399.071 54.8087 398.207 54.5127 397.566 53.97C396.974 53.378 396.678 52.5147 396.678 51.38V47.458H402.154V50.27H406.002V54.858H400.156ZM409.049 61V18.746H414.747V61H409.049ZM430.432 61V25.702C430.432 24.8633 430.16 24.1727 429.618 23.63C429.075 23.038 428.384 22.7173 427.546 22.668C426.658 22.6187 425.868 22.89 425.178 23.482C424.487 24.074 424.142 24.814 424.142 25.702V61H418.444V18.746H423.698V21.484C424.586 20.0533 425.72 19.0913 427.102 18.598C428.532 18.1047 429.914 18.006 431.246 18.302C432.578 18.598 433.712 19.264 434.65 20.3C435.636 21.2867 436.13 22.594 436.13 24.222V61H430.432ZM451.822 61V25.036C451.822 24.2467 451.477 23.6547 450.786 23.26C450.145 22.816 449.454 22.594 448.714 22.594C447.925 22.594 447.185 22.816 446.494 23.26C445.853 23.6547 445.532 24.2467 445.532 25.036V36.432H449.528V41.02H445.532V61H439.834V24.444C439.834 23.1613 440.229 22.076 441.018 21.188C441.808 20.2507 442.794 19.5353 443.978 19.042C445.162 18.5487 446.445 18.2527 447.826 18.154C449.257 18.0553 450.589 18.1787 451.822 18.524V16.008H457.52V61H451.822ZM473.213 61.074V23.26L470.105 24.814L466.923 23.26V53.748C466.923 55.1293 467.342 56.0913 468.181 56.634C469.02 57.1273 469.932 57.2507 470.919 57.004V60.63C470.179 61.1727 469.242 61.4933 468.107 61.592C467.022 61.74 465.961 61.6167 464.925 61.222C463.938 60.8767 463.075 60.2353 462.335 59.298C461.595 58.3607 461.225 57.1273 461.225 55.598V25.776C461.225 24.0493 461.521 22.6927 462.113 21.706C462.705 20.67 463.346 19.8807 464.037 19.338C464.876 18.746 465.838 18.3513 466.923 18.154L470.105 19.782L473.213 18.154C474.249 18.3513 475.211 18.746 476.099 19.338C476.79 19.8807 477.431 20.67 478.023 21.706C478.664 22.6927 478.96 24.0493 478.911 25.776V61.074H473.213ZM473.662 14.898V8.756H478.916V14.898H473.662ZM484.466 61V24.74C484.515 24.2467 484.441 23.8027 484.244 23.408C484.046 23.0627 483.676 22.7913 483.134 22.594C482.64 22.3967 481.851 22.3473 480.766 22.446C480.716 22.446 480.716 22.2487 480.766 21.854C480.766 21.4593 480.766 20.9907 480.766 20.448V18.45C483.134 18.0553 484.934 18.1787 486.168 18.82C487.45 19.412 488.388 20.1273 488.98 20.966C489.67 21.9527 490.065 23.1613 490.164 24.592V61H484.466ZM510.613 55.228C510.613 56.3627 510.416 57.374 510.021 58.262C509.676 59.002 509.133 59.668 508.393 60.26C507.653 60.852 506.592 61.0987 505.211 61H500.475L493.001 18.45H498.329L504.989 56.042V25.702C504.989 24.37 504.57 23.4573 503.731 22.964C502.892 22.4213 501.98 22.2733 500.993 22.52V18.894C501.733 18.3513 502.646 18.0307 503.731 17.932C504.816 17.784 505.852 17.9073 506.839 18.302C507.875 18.6473 508.763 19.2887 509.503 20.226C510.243 21.1633 510.613 22.3967 510.613 23.926V55.228ZM552.228 61V23.26L549.046 24.814L545.938 23.26L545.864 28.144H540.24C539.994 25.7267 540.142 23.852 540.684 22.52C541.227 21.1387 541.893 20.1273 542.682 19.486C543.472 18.8447 544.212 18.4747 544.902 18.376C545.593 18.228 545.938 18.154 545.938 18.154L549.046 19.782L552.228 18.154C553.314 18.3513 554.276 18.746 555.114 19.338C555.805 19.8807 556.446 20.67 557.038 21.706C557.63 22.6927 557.902 24.0493 557.852 25.776V61H552.228Z" fill="#3C87C9"/>
</svg>
