<svg width="666" height="438" viewBox="0 0 666 438" fill="none" xmlns="http://www.w3.org/2000/svg">
<g clip-path="url(#clip0_344_10635)">
<path d="M601.043 376.873V389.297H586.597V373.196L595.831 364.549H614.595L623.978 374.09V390.937L616.234 406.145V418.569H600.001V404.703L608.936 389.198V376.774L601.043 376.873ZM616.234 436.658H600.001V423.687H616.234V436.658ZM546.064 376.053H530.7V362.586H546.064V376.053ZM511.315 386.788L506.773 384.054L501.808 386.788L506.773 389.67L511.315 386.788ZM513.797 429.974L508.833 427.489L503.868 429.974L508.833 432.459L513.797 429.974ZM521.541 426.868V433.204L508.932 437.727L496.298 432.757V426.793L501.262 424.656L499.103 422.495V392.403L493.94 390.117V384.402L506.921 378.811L518.836 383.781V391.41L515.038 392.826V420.159L522.658 416.581L528.963 420.159V380.178H545.518V436.708H529.335V426.147L523.006 422.221L517.768 424.706L521.541 426.868ZM482.597 429.875L477.831 427.39L473.19 429.875L477.955 432.359L482.597 429.875ZM464.477 385.868L475.324 375.358V373.345L473.19 372.276L468.771 377.395L459.488 372.276V367.009L466.761 364.027V372.252L472.122 367.282H481.654L485.228 373.494L481.654 378.861V423.34L489.621 426.57V433.254L478.179 437.329L464.477 432.359V385.868ZM426.6 396.826L422.083 394.342L417.913 396.826L422.083 399.585L426.6 396.826ZM440.302 380.029L455.442 386.589V436.559H407.066V430.595H410.516V395.087L421.711 388.9L433.625 393.671V401.423L426.948 403.908V430.968H439.582V388.105L435.784 384.054H424.217L410.516 389.546V385.371L422.43 380.128L440.302 380.029ZM372.317 365.269L362.388 370.512H384.727L372.317 365.269ZM354.098 367.53L372.317 358.933L386.365 364.549V359.306H393.415V364.549H395.897V359.306H403.542V376.699H354.172L354.098 367.53ZM390.436 429.427L385.472 426.694L380.11 429.427L385.472 432.658L390.436 429.427ZM397.535 395.087V431.465L385.621 437.428L373.707 432.459V426.495L382.046 422.321V396.578L368.693 390.739V385.148L379.664 380.178H393.241C393.659 381.219 394.385 382.107 395.321 382.724C396.256 383.341 397.358 383.658 398.478 383.632C399.702 383.695 400.914 383.356 401.927 382.665C402.94 381.973 403.699 380.969 404.088 379.805V387.26C403.693 388.655 402.813 389.863 401.605 390.664C400.377 391.499 398.92 391.933 397.436 391.906C395.844 391.709 394.393 390.898 393.39 389.645C392.592 389.042 391.941 388.266 391.485 387.375C391.03 386.485 390.781 385.502 390.759 384.502H384.454L378.845 388.577L397.535 395.087ZM357.424 386.688L353.502 384.651L349.332 387.136L353.502 389.62L357.424 386.688ZM330.394 387.036L326.224 384.551L322.401 387.036L326.224 389.521L330.394 387.036ZM326.224 378.936L338.138 384.303V390.614L335.085 392.602V421.824L341.042 395.087L345.212 392.95L341.042 390.217V385.247L353.304 378.936L365.218 383.905V390.59L361.643 392.627L363.803 394.764V436.633H348.315V394.068L345.832 395.857L336.301 436.658H315.228V430.695H318.331V393.422L313.788 390.341V384.377L326.224 378.936ZM274.621 387.881L269.036 384.999L263.426 387.98L268.912 391.086L274.621 387.881ZM269.259 379.756L281.67 384.899V391.335L277.152 393.82V430.297H293.112V373.146H309.792V436.608H256.948V431.639H260.87V393.944L255.657 390.739V384.899L269.259 379.756ZM244.438 429.875L239.673 427.39L235.031 429.875L239.797 432.359L244.438 429.875ZM226.319 385.868L237.166 375.358V373.345L235.031 372.276L230.613 377.395L221.33 372.276V367.009L228.578 364.027V372.252L233.939 367.282H243.47L247.044 373.494L243.47 378.861V423.34L251.463 426.57V433.254L240.02 437.329L226.319 432.359V385.868ZM163.025 436.559V383.582L156.373 380.899V376.128L175.584 365.99H194.796L217.135 376.575V436.658H195.789V376.128L191.917 373.892H177.918L170.471 378.861L182.236 384.079V436.708L163.025 436.559ZM124.105 365.99H138.75L151.16 372.55V436.658H128.921V371.059H126.588L116.907 376.575L113.929 371.605L124.105 365.99ZM65.2794 374.339L59.5706 370.91L53.4646 374.339L59.5706 377.917L65.2794 374.339ZM68.4069 428.309L62.3009 425.327L56.1949 428.309L62.3009 431.44L68.4069 428.309ZM78.0871 424.433V432.359L62.3009 438.025L46.5147 431.912V424.458L52.6207 421.774L49.94 419.09V381.346L43.3872 378.364V371.357L59.5706 364.35L74.4632 370.462V380.004L69.6976 381.793V416.084L79.2289 411.611L87.122 416.084V365.99H107.823V436.658H87.5191V423.538L79.626 418.569L73.0733 421.7L78.0871 424.433Z" fill="white"/>
<path d="M657.958 308.118L650.661 304.54L643.661 308.118L650.809 311.696L657.958 308.118ZM619.982 256.533L612.684 252.806L605.685 256.533L613.131 260.41L619.982 256.533ZM612.684 245.998L628.768 252.557V261.354L625.194 263.441V294.601L636.81 290.277L645.299 295.247V246.718H665.553V295.694L659.596 300.167L666 303.298V311.498L651.256 318.207L634.427 311.498V304.043L641.874 300.167L636.513 297.185L625.343 302.155V317.362H600.174V309.758H604.493V264.46L596.749 261.329V252.831L612.684 245.998ZM580.665 329.935L575.155 326.804L569.644 329.935L575.155 333.066L580.665 329.935ZM574.857 321.437L587.516 327.102V346.981H571.729V337.29L563.439 332.966V327.152L574.857 321.437ZM548.546 255.664L540.951 251.936L533.654 255.664L541.249 259.54L548.546 255.664ZM541.1 245.525L556.589 251.936V260.583L551.624 263.416V291.892L564.283 250.594L570.24 246.718H583.643L591.09 255.365V317.486H570.538V257.602L551.922 317.387H527.498V309.634H532.462V263.714L525.463 260.136V252.085L541.1 245.525ZM477.36 255.067L471.601 251.638L465.495 255.067L471.601 258.645L477.36 255.067ZM480.487 309.038L474.381 306.056L468.275 309.038L474.381 312.168L480.487 309.038ZM490.167 305.161V313.088L474.381 318.753L458.595 312.641V305.186L464.701 302.502L462.02 299.819V262.074L455.467 259.093V252.085L471.601 245.078L486.494 251.191V260.733L481.728 262.522V296.812L491.259 292.34L499.152 296.812V246.718H519.853V317.387H499.649V304.267L491.756 299.297L485.203 302.428L490.167 305.161ZM450.056 241.649H430.845V224.802H450.056V241.649ZM439.483 329.91L433.972 326.779L428.462 329.91L433.972 333.041L439.483 329.91ZM433.674 321.412L446.333 327.077V346.956H430.547V337.265L422.356 332.942V327.127L433.674 321.412ZM411.782 308.59L405.676 305.459L399.123 308.59L405.676 312.019L411.782 308.59ZM410.442 246.718H432.781L449.014 254.173V317.387H429.405V276.536L416.746 271.765V301.881L420.618 303.67V312.019L405.279 319.027L389.94 312.467V304.118L396.046 301.136V270.423L415.406 262.522L429.405 268.783V254.173L425.831 252.384H412.725L396.046 257.602V252.384L410.442 246.718ZM330.766 317.387V264.311L324.213 261.627V256.856L343.425 246.718H362.636L384.975 257.304V317.387H363.53V256.856L359.658 254.62H345.659L338.212 259.59L349.978 264.808V317.436L330.766 317.387ZM306.541 250.122L302.818 248.333L299.467 250.222L302.917 252.259L306.541 250.122ZM302.966 243.065H317.983L320.465 239.86L324.759 242.121L321.657 247.24H310.016L311.083 248.557V253.204L302.818 256.782L294.105 253.576V247.836L302.966 243.065ZM312.15 309.982L306.317 307.124L300.708 309.982L306.441 312.839L312.15 309.982ZM281.769 268.709L275.936 265.727L270.327 268.709L276.284 271.815L281.769 268.709ZM275.936 260.26L288.794 265.503V272.535L285.939 274.2V299.049L295.222 295.595L302.023 299.645V260.906H318.231V300.142L313.466 303.72L318.579 306.205V312.765L306.789 318.057L293.336 312.69V306.727L299.293 303.621L294.999 301.136L286.063 305.062V317.237H265.933V311.15H269.383V275.045L263.178 272.56V265.752L275.936 260.26ZM241.981 311.299V277.555L237.935 274.672V278.499L233.318 281.481V311.299H241.981ZM230.538 267.292L225.574 264.659L220.61 267.417L225.872 269.902L230.538 267.292ZM225.574 259.54L238.456 265.628V269.678L241.435 268.013V260.906H258.14V267.218L247.516 271.517L258.239 276.163V317.436H213.462V311.224H217.036V281.829L233.318 274.2L232.723 272.535L225.698 275.02L215.05 270.846V264.286L225.574 259.54ZM178.414 267.64L174.145 265.156L169.975 267.64L174.145 270.125L178.414 267.64ZM161.734 311.423H164.961V285.755L170.918 282.301L162.926 278.126V264.882L174.145 259.267L186.059 264.882V270.473L178.464 274.325V278.151L184.669 281.605V285.407L180.375 287.569V311.05H191.569V260.906H208.497V317.436H161.784L161.734 311.423ZM153.171 310.827L147.934 308.342L142.796 310.827L147.934 313.56L153.171 310.827ZM128.027 251.191L136.963 247.961H148.53C148.974 248.973 149.658 249.862 150.523 250.551C151.388 251.239 152.408 251.706 153.494 251.911C154.164 252.048 154.845 252.123 155.529 252.135C156.887 252.092 158.222 251.771 159.451 251.191V256.16C158.084 256.983 156.527 257.436 154.933 257.477C153.716 257.459 152.516 257.188 151.409 256.682C150.383 256.213 149.424 255.612 148.554 254.893C147.719 254.042 147.068 253.026 146.643 251.911H136.516L134.034 254.396L151.409 260.857V304.49L159.178 308.118V313.982L148.083 318.505L135.35 313.535V260.36L128.077 256.881L128.027 251.191ZM111.149 275.815L105.912 278.3L111.149 280.313V275.815ZM111.397 301.459L106.284 303.944L111.397 306.081V301.459ZM98.2916 275.045L110.702 270.076L117.032 273.529V277.356L122.864 274.598V280.785L111.894 285.755L98.2916 280.288V275.045ZM98.5398 300.664L110.95 295.694L117.255 299.148V303.149L122.964 300.515V306.602L112.018 311.572L98.4405 306.081L98.5398 300.664ZM80.5445 310.081L75.5803 307.348L70.2189 310.081L75.5803 313.311L80.5445 310.081ZM87.5689 275.815V312.193L75.6547 318.157L63.7406 313.187V307.224L71.9812 303.149V277.306L58.6275 271.467V265.876L69.5984 260.906H83.1755C83.5942 261.947 84.3197 262.835 85.2554 263.452C86.1912 264.069 87.2926 264.386 88.4128 264.36C89.637 264.424 90.8483 264.084 91.8614 263.393C92.8744 262.702 93.6334 261.698 94.0224 260.534V267.988C93.6283 269.384 92.7476 270.591 91.5402 271.392C90.3116 272.227 88.855 272.661 87.3703 272.635C85.7806 272.432 84.3308 271.622 83.3245 270.374C82.5268 269.77 81.8758 268.994 81.4201 268.104C80.9645 267.213 80.7161 266.231 80.6934 265.23H74.5874L68.9779 269.305L87.5689 275.815ZM18.8144 268.609L13.2297 265.727L7.62008 268.709L13.1055 271.815L18.8144 268.609ZM13.453 260.484L25.8636 265.628V272.063L21.3462 274.548V311.025H37.3061V253.874H53.9859V317.337H1.19141V312.367H5.11315V274.672L0 271.467V265.628L13.453 260.484Z" fill="white"/>
<path d="M565.524 148.468L559.865 145.486L554.652 148.468L559.865 151.897L565.524 148.468ZM582.651 127.447L601.564 135.647V198.115H541.1V190.661H545.419V146.232L559.418 138.479L574.311 144.443V154.059L565.921 157.265V191.108H581.708V137.436L576.942 132.466H562.496L545.419 139.15V133.932L560.312 127.372L582.651 127.447ZM518.612 84.658L511.762 80.4835L504.762 84.658L511.613 88.5343L518.612 84.658ZM498.755 81.8253L512.308 75.8617L525.463 81.9992V86.621L516.676 90.9446H533.654L547.355 83.0428L556.291 88.0125L539.611 96.5106H501.386V92.5597H506.003V90.3234L498.557 86.5961L498.755 81.8253ZM497.862 108.81L485.451 115.37H513.152L497.862 108.81ZM475.076 111.643L497.862 100.909L515.435 107.916V101.356H524.222V107.916H527.349V101.356H536.881V122.974H475.076V111.643ZM499.5 148.468L493.841 145.486L488.628 148.468L493.841 151.897L499.5 148.468ZM516.627 127.447L535.54 135.647V198.115H474.977V190.661H479.296V146.232L493.295 138.479L508.187 144.443V154.059L499.848 157.19V191.108H515.634V137.436L510.868 132.466H496.422L479.296 139.15V133.932L494.188 127.372L516.627 127.447ZM462.765 190.511L456.708 187.232L450.305 190.511L456.708 194.239L462.765 190.511ZM462.169 127.447V182.113L470.956 186.362V194.114L456.708 199.457L441.071 193.493V127.447H462.169ZM398.577 135.945L393.216 132.963L388.004 135.945L393.216 139.076L398.577 135.945ZM377.728 190.611H381.749V158.606L389.195 154.283L379.267 149.065V132.516L393.266 125.508L408.158 132.516V139.523L398.627 144.294V149.089L406.371 153.413V158.184L401.01 160.868V190.213H415.009V127.447H436.157V198.115H377.728V190.611ZM346.006 127.447H360.75L373.161 134.007V198.115H350.97V132.516H348.737L339.056 138.032L336.078 133.062L346.006 127.447ZM287.18 135.796L281.521 132.367L275.514 135.796L281.62 139.374L287.18 135.796ZM290.407 189.766L284.301 186.784L277.996 189.766L284.102 192.897L290.407 189.766ZM300.087 185.89V193.816L284.301 199.482L268.515 193.369V185.915L274.621 183.231L271.94 180.547V142.803L265.387 139.821V132.814L281.62 125.807L296.513 131.919V141.461L291.747 143.25V177.541L301.279 173.068L309.172 177.541V127.447H329.873V198.115H309.519V184.995L301.626 180.026L295.073 183.156L300.087 185.89ZM251.289 135.647L246.325 133.162L241.112 136.144L246.374 139.15L251.289 135.647ZM217.483 136.094L212.27 133.112L207.504 136.094L212.27 139.15L217.483 136.094ZM212.27 125.956L227.163 132.665V140.567L223.291 143.051V179.578L230.737 146.182L235.949 143.499L230.836 140.119V133.857L246.176 125.956L261.068 132.218V140.567L256.601 143.051L259.281 145.735V198.115H239.921V144.89L236.942 147.126L225.028 198.115H198.718V190.661H202.59V144.12L196.931 140.243V132.789L212.27 125.956ZM152.997 165.912L147.04 162.334L140.934 166.061L147.338 169.192L152.997 165.912ZM150.019 189.319L144.36 186.362L138.998 189.766L144.509 192.45L150.019 189.319ZM169.876 137.883L166.301 136.094H151.806L142.275 139.821L157.316 144.791V160.296L162.678 162.532V169.54L147.338 175.503L130.956 169.39V162.681L136.764 160.197V144.741L131.105 142.057V136.839L152.699 127.447H169.528L191.718 137.137V198.264H170.273L157.614 190.81V193.493L143.962 199.755L130.857 193.046V186.039L144.509 178.907L150.763 182.038V178.584H157.763V185.592L169.975 192.45L169.876 137.883ZM71.6834 198.115V145.039L65.1306 142.356V137.585L84.3918 127.447H103.603L125.942 138.032V198.115H104.447V137.585L100.575 135.348H86.5761L79.1297 140.318L90.8949 145.536V198.115H71.6834Z" fill="white"/>
<path d="M501.56 37.8936C501.56 37.3005 501.796 36.7317 502.215 36.3123C502.633 35.8929 503.202 35.6573 503.794 35.6573C504.387 35.6573 504.955 35.8929 505.374 36.3123C505.793 36.7317 506.028 37.3005 506.028 37.8936C506.028 38.4867 505.793 39.0555 505.374 39.4749C504.955 39.8943 504.387 40.1299 503.794 40.1299C503.202 40.1299 502.633 39.8943 502.215 39.4749C501.796 39.0555 501.56 38.4867 501.56 37.8936ZM508.237 25.3204C506.632 25.3266 505.033 25.5184 503.471 25.8919C501.956 26.2526 500.489 26.7949 499.103 27.507L500.195 30.5882C501.364 29.9702 502.596 29.4787 503.869 29.1222C505.181 28.7279 506.544 28.527 507.914 28.5258C509.704 28.3543 511.489 28.8992 512.879 30.0416C513.389 30.6141 513.781 31.2821 514.033 32.0071C514.284 32.7321 514.39 33.4997 514.343 34.2658V43.4348C514.423 44.4753 514.161 45.5134 513.598 46.3917C513.203 46.7522 512.734 47.0214 512.224 47.1802C511.713 47.3391 511.174 47.3838 510.645 47.3111H502.901V42.242H503.744C504.978 42.3003 506.186 41.8823 507.12 41.0742C507.56 40.6645 507.904 40.1624 508.127 39.6039C508.35 39.0454 508.447 38.4443 508.411 37.8439C508.443 37.2388 508.346 36.6337 508.128 36.0684C507.91 35.5032 507.575 34.9904 507.145 34.5639C506.685 34.1506 506.147 33.8324 505.564 33.6277C504.98 33.423 504.362 33.3359 503.744 33.3712C503.115 33.3354 502.485 33.4319 501.895 33.6544C501.305 33.8769 500.768 34.2206 500.319 34.6633C499.878 35.1536 499.539 35.7269 499.322 36.3498C499.104 36.9727 499.013 37.6326 499.053 38.2912V50.4171H510.67C512.731 50.6162 514.792 50.0405 516.453 48.802C517.088 48.0902 517.57 47.2552 517.869 46.3489C518.168 45.4427 518.277 44.4846 518.19 43.5342V33.8682C518.19 28.1531 514.84 25.3204 508.262 25.3204M474.307 16.872C474.686 16.5145 475.136 16.2411 475.628 16.0698C476.12 15.8985 476.642 15.8332 477.161 15.8781C478.47 15.8542 479.756 16.2172 480.859 16.9217C481.884 17.6148 482.803 18.4516 483.59 19.4065H473.413C473.386 18.4949 473.705 17.6069 474.307 16.9217M491.681 21.8913V13.1447H488.405V19.332H486.816V13.1447H483.515V15.6296C482.641 14.8422 481.643 14.2042 480.562 13.7411C479.432 13.2575 478.216 13.0122 476.987 13.0205C476.01 12.9653 475.031 13.1036 474.106 13.4277C473.182 13.7517 472.331 14.2551 471.601 14.909C470.934 15.6115 470.418 16.4438 470.085 17.3542C469.751 18.2646 469.609 19.2338 469.665 20.2017V21.7671L491.681 21.8913ZM482.969 37.2724C483.336 37.7294 483.529 38.3015 483.515 38.8875C483.535 39.482 483.341 40.0639 482.969 40.5275C482.516 40.9259 481.934 41.1456 481.331 41.1456C480.728 41.1456 480.146 40.9259 479.693 40.5275C479.321 40.0639 479.127 39.482 479.147 38.8875C479.133 38.3015 479.326 37.7294 479.693 37.2724C480.129 36.8414 480.718 36.5998 481.331 36.5998C481.944 36.5998 482.533 36.8414 482.969 37.2724ZM473.041 27.8798C472.028 28.824 471.242 29.9846 470.739 31.2751C470.236 32.5657 470.03 33.9531 470.137 35.3342C470.125 36.7901 470.233 38.2445 470.459 39.6827C470.658 40.8754 470.857 42.0184 471.055 43.1366C471.267 44.4009 471.366 45.6814 471.353 46.9632V50.5911H475.2V47.5844C475.173 46.0638 475.373 44.5477 475.796 43.0869C476.051 42.079 476.535 41.1436 477.211 40.3536C477.466 41.2676 478.049 42.0551 478.849 42.5651C479.638 43.0328 480.538 43.2815 481.455 43.2857C482.67 43.3534 483.864 42.9433 484.781 42.1426C485.197 41.7185 485.52 41.2121 485.73 40.6559C485.939 40.0997 486.03 39.5059 485.997 38.9124C486.034 38.3045 485.938 37.6959 485.715 37.1293C485.492 36.5627 485.148 36.0518 484.707 35.6324C483.731 34.7925 482.467 34.3648 481.182 34.4397C479.677 34.4521 478.235 35.0489 477.161 36.1045C475.937 37.2142 474.986 38.5918 474.381 40.1299C474.381 39.5336 474.207 38.8627 474.133 38.1421C474.086 37.2482 474.086 36.3524 474.133 35.4585C474.069 34.5086 474.209 33.5562 474.543 32.6648C474.877 31.7735 475.397 30.9638 476.069 30.29C477.547 29.1973 479.324 28.5831 481.16 28.5298C482.997 28.4765 484.806 28.9867 486.345 29.9919C486.996 30.5262 487.509 31.209 487.841 31.9829C488.174 32.7569 488.316 33.5993 488.256 34.4397V50.4917H492.103V34.0421C492.196 32.2705 491.689 30.5195 490.664 29.0725C489.595 27.7296 488.139 26.7491 486.494 26.2646C484.758 25.6097 482.913 25.2893 481.058 25.3204C478.116 25.1186 475.202 26.0025 472.867 27.8052M444.596 47.6838C444.213 47.1779 444.02 46.5535 444.05 45.9196C444.028 45.5854 444.074 45.2502 444.185 44.9342C444.296 44.6182 444.469 44.3279 444.695 44.0808C444.919 43.8504 445.191 43.6713 445.491 43.5555C445.791 43.4397 446.112 43.39 446.433 43.4099C446.866 43.4068 447.298 43.4484 447.723 43.5342C447.723 43.9317 447.847 44.3293 447.922 44.702C448.001 45.1031 448.043 45.5107 448.046 45.9196C448.046 47.5347 447.401 48.4044 446.11 48.4044C445.825 48.4182 445.541 48.3673 445.279 48.2554C445.016 48.1435 444.783 47.9736 444.596 47.7584M443.975 29.8179C443.975 29.2248 444.211 28.656 444.63 28.2366C445.048 27.8172 445.617 27.5816 446.209 27.5816C446.802 27.5816 447.37 27.8172 447.789 28.2366C448.208 28.656 448.443 29.2248 448.443 29.8179C448.443 30.411 448.208 30.9799 447.789 31.3993C447.37 31.8186 446.802 32.0543 446.209 32.0543C445.617 32.0543 445.048 31.8186 444.63 31.3993C444.211 30.9799 443.975 30.411 443.975 29.8179ZM451.744 44.9008C454.575 46.1645 457.067 48.0802 459.017 50.4917H463.311V25.6434H459.439V46.1681C458.266 45.0296 456.947 44.052 455.517 43.2608C454.132 42.4576 452.668 41.7998 451.149 41.2978C451.04 40.6743 450.991 40.0421 451 39.4093V30.3646C451.043 29.7077 450.956 29.0488 450.743 28.426C450.53 27.8032 450.195 27.229 449.759 26.7367C449.305 26.2934 448.763 25.9495 448.169 25.727C447.575 25.5046 446.942 25.4084 446.308 25.4446C445.063 25.3814 443.842 25.8096 442.908 26.6373C442.486 27.0687 442.158 27.5828 441.945 28.1473C441.731 28.7118 441.636 29.3145 441.667 29.9173C441.632 30.5176 441.73 31.1181 441.953 31.6763C442.176 32.2345 442.519 32.7368 442.958 33.1476C443.893 33.9368 445.086 34.3527 446.308 34.3155H447.152V39.0863C447.121 39.6988 447.121 40.3126 447.152 40.9251H446.78C445.403 40.8785 444.057 41.3481 443.007 42.242C442.503 42.7118 442.108 43.2871 441.85 43.927C441.593 44.5669 441.479 45.2557 441.518 45.9444C441.479 46.6199 441.59 47.2957 441.843 47.9231C442.096 48.5505 442.485 49.1137 442.982 49.5723C444.035 50.4594 445.381 50.9203 446.755 50.8644C447.46 50.9282 448.169 50.8317 448.831 50.5821C449.493 50.3325 450.09 49.9364 450.578 49.4232C451.402 48.4752 451.836 47.25 451.794 45.9941C451.833 45.6474 451.833 45.2973 451.794 44.9505M422.331 28.9979C423.353 28.7298 424.403 28.588 425.459 28.5755C426.229 28.4881 427.008 28.572 427.742 28.8211C428.476 29.0702 429.145 29.4785 429.703 30.0167C430.566 31.22 430.979 32.6889 430.87 34.1664V50.5414H434.717V33.7191C434.717 28.1365 431.738 25.337 425.781 25.3204C424.367 25.3147 422.957 25.4901 421.587 25.8422C420.415 26.1094 419.275 26.5009 418.186 27.0101L419.427 29.967C420.354 29.5199 421.328 29.1782 422.331 28.9482M396.418 46.342C396.418 45.7489 396.653 45.1801 397.072 44.7607C397.491 44.3413 398.059 44.1057 398.652 44.1057C399.244 44.1057 399.813 44.3413 400.232 44.7607C400.65 45.1801 400.886 45.7489 400.886 46.342C400.886 46.9351 400.65 47.5039 400.232 47.9233C399.813 48.3427 399.244 48.5783 398.652 48.5783C398.059 48.5783 397.491 48.3427 397.072 47.9233C396.653 47.5039 396.418 46.9351 396.418 46.342ZM402.102 49.6965C402.53 49.2738 402.864 48.7653 403.082 48.2043C403.3 47.6434 403.398 47.0426 403.368 46.4414C403.396 45.8419 403.295 45.2434 403.072 44.6862C402.85 44.1289 402.51 43.626 402.077 43.2111C401.143 42.403 399.935 41.985 398.702 42.0433H397.858V41.1984C397.798 40.6625 397.874 40.1202 398.078 39.6211C398.282 39.122 398.607 38.6819 399.024 38.3409C399.898 37.7625 400.932 37.4755 401.978 37.5209L402.425 34.887L397.138 32.924C397.215 32.2844 397.42 31.6668 397.739 31.1077C398.059 30.5486 398.488 30.0593 398.999 29.6688C400.341 28.8285 401.912 28.4289 403.492 28.5258C405.123 28.4681 406.727 28.9482 408.059 29.8925C408.684 30.4254 409.173 31.1006 409.484 31.8615C409.795 32.6224 409.919 33.4469 409.846 34.2658V50.4917H413.669V33.8682C413.766 32.107 413.287 30.3621 412.304 28.8985C411.387 27.6379 410.117 26.678 408.655 26.1404C407.02 25.528 405.287 25.2246 403.542 25.2458C401.648 25.1933 399.764 25.5317 398.007 26.2398C396.616 26.8085 395.401 27.7341 394.482 28.9234C393.684 29.9916 393.257 31.2919 393.266 32.6258V34.0918L398.478 35.8809C397.27 36.0065 396.14 36.5412 395.276 37.3966C394.338 38.5174 393.883 39.9653 394.01 41.4221V45.7208C393.97 46.3793 394.062 47.0393 394.279 47.6622C394.496 48.285 394.835 48.8583 395.276 49.3486C396.186 50.2106 397.374 50.7192 398.625 50.783C399.876 50.8468 401.109 50.4615 402.102 49.6965ZM374.402 29.0476C375.422 28.7765 376.473 28.6346 377.529 28.6252C378.299 28.5378 379.079 28.6217 379.812 28.8708C380.546 29.1199 381.216 29.5282 381.774 30.0664C382.626 31.2751 383.037 32.7399 382.94 34.2161V50.5911H386.787V33.7191C386.787 28.1365 383.809 25.337 377.852 25.3204C376.437 25.3147 375.027 25.4901 373.657 25.8422C372.485 26.1094 371.345 26.5009 370.257 27.0101L371.498 29.967C372.425 29.5199 373.399 29.1782 374.402 28.9482M361.668 18.8598C361.211 18.3304 360.971 17.6464 360.998 16.9465C360.972 16.2544 361.212 15.5786 361.668 15.0581C362.194 14.5779 362.88 14.3117 363.592 14.3117C364.304 14.3117 364.99 14.5779 365.516 15.0581C365.972 15.5786 366.212 16.2544 366.186 16.9465C366.213 17.6464 365.974 18.3304 365.516 18.8598C364.982 19.3248 364.299 19.5809 363.592 19.5809C362.885 19.5809 362.202 19.3248 361.668 18.8598ZM367.65 20.5744C368.122 20.0983 368.493 19.5314 368.741 18.9079C368.988 18.2844 369.107 17.6172 369.09 16.9465C369.107 16.2759 368.988 15.6087 368.741 14.9852C368.493 14.3617 368.122 13.7948 367.65 13.3187C366.523 12.343 365.082 11.806 363.592 11.806C362.102 11.806 360.661 12.343 359.534 13.3187C359.062 13.7948 358.691 14.3617 358.443 14.9852C358.196 15.6087 358.077 16.2759 358.094 16.9465C358.077 17.6172 358.196 18.2844 358.443 18.9079C358.691 19.5314 359.062 20.0983 359.534 20.5744C360.661 21.5501 362.102 22.087 363.592 22.087C365.082 22.087 366.523 21.5501 367.65 20.5744ZM356.655 37.2724C357.03 37.726 357.232 38.2984 357.225 38.8875C357.238 39.4851 357.036 40.0674 356.655 40.5275C356.203 40.9191 355.626 41.1347 355.029 41.1347C354.432 41.1347 353.854 40.9191 353.403 40.5275C353.022 40.0674 352.819 39.4851 352.832 38.8875C352.825 38.2984 353.027 37.726 353.403 37.2724C353.835 36.843 354.42 36.602 355.029 36.602C355.638 36.602 356.222 36.843 356.655 37.2724ZM346.726 27.8798C345.714 28.824 344.927 29.9846 344.424 31.2751C343.921 32.5657 343.716 33.9531 343.822 35.3342C343.804 36.7894 343.903 38.2436 344.12 39.6827C344.343 40.8754 344.542 42.0184 344.74 43.1366C344.931 44.4031 345.022 45.6825 345.013 46.9632V50.5911H348.861V47.5844C348.833 46.0638 349.034 44.5477 349.456 43.0869C349.733 42.0872 350.215 41.1562 350.871 40.3536C351.126 41.2749 351.72 42.0652 352.534 42.5651C353.284 43.0204 354.14 43.2691 355.016 43.2857C356.232 43.3588 357.428 42.948 358.342 42.1426C358.763 41.7206 359.09 41.2152 359.304 40.6589C359.518 40.1026 359.613 39.5077 359.583 38.9124C359.614 38.3052 359.514 37.6986 359.292 37.133C359.069 36.5674 358.729 36.0558 358.293 35.6324C357.311 34.7863 356.037 34.3583 354.743 34.4397C353.24 34.4597 351.801 35.0555 350.722 36.1045C349.498 37.2089 348.554 38.5886 347.967 40.1299C347.967 39.5336 347.793 38.8627 347.719 38.1421C347.674 37.2481 347.674 36.3524 347.719 35.4585C347.655 34.5086 347.795 33.5562 348.129 32.6648C348.463 31.7735 348.983 30.9638 349.655 30.29C351.148 29.0494 353.054 28.4193 354.992 28.5258C356.764 28.442 358.513 28.9585 359.956 29.9919C360.604 30.5274 361.113 31.2111 361.441 31.9852C361.77 32.7594 361.907 33.6012 361.842 34.4397V50.4917H365.689V34.0421C365.778 32.2747 365.281 30.5276 364.275 29.0725C363.284 27.7681 361.94 26.7763 360.403 26.2149C358.667 25.5577 356.822 25.2372 354.967 25.2707C352.033 25.0727 349.128 25.9566 346.801 27.7555M328.532 4.72119C328.363 4.5637 328.231 4.37059 328.145 4.15576C328.059 3.94093 328.022 3.70973 328.036 3.47878C328.025 3.24821 328.064 3.01801 328.149 2.80369C328.235 2.58937 328.366 2.39592 328.532 2.23637C328.906 1.92137 329.385 1.76133 329.873 1.7891C331.114 1.7891 331.759 2.36061 331.759 3.47878C331.759 4.59695 331.114 5.14361 329.873 5.14361C329.39 5.16878 328.914 5.01881 328.532 4.72119ZM337.145 9.01994C338.514 8.20009 339.644 7.03478 340.422 5.64058C341.259 4.09075 341.83 2.41066 342.109 0.67093L338.709 0.223662C338.565 2.28234 337.784 4.24503 336.475 5.83936C335.896 6.4765 335.185 6.97987 334.392 7.31455C333.599 7.64923 332.743 7.80721 331.883 7.77753C332.497 7.30585 333.019 6.72457 333.422 6.063C333.843 5.40363 334.059 4.63393 334.043 3.85151C334.071 3.33102 333.991 2.81032 333.807 2.32261C333.623 1.83489 333.34 1.39085 332.975 1.01881C332.554 0.647547 332.062 0.365816 331.528 0.190693C330.995 0.0155696 330.432 -0.0492964 329.873 2.7677e-05C328.876 -0.0477054 327.896 0.270381 327.117 0.894565C326.775 1.20918 326.505 1.59408 326.325 2.02294C326.145 2.45179 326.06 2.91449 326.075 3.37939C326.046 3.8436 326.123 4.3083 326.299 4.73864C326.475 5.16897 326.747 5.55378 327.093 5.86421C327.789 6.45515 328.663 6.79623 329.575 6.83329C329.178 7.67813 328.16 8.1254 326.497 8.1751V9.93933C327.539 9.93933 328.433 10.0884 329.202 10.1133C329.972 10.1381 330.865 10.1133 331.933 10.1133C333.724 10.1791 335.499 9.75836 337.071 8.8957M321.409 16.7477C322.323 16.0076 323.489 15.6513 324.66 15.7538C326.135 15.7391 327.589 16.1072 328.88 16.8223C330.058 17.4739 331.123 18.3132 332.032 19.3071H320.316C320.311 18.8389 320.405 18.3749 320.594 17.9463C320.782 17.5177 321.06 17.1344 321.409 16.8223M336.45 21.7919V13.0951H333.099V16.7726C332.026 15.6606 330.755 14.7589 329.351 14.1138C327.792 13.4103 326.097 13.0623 324.387 13.0951C322.315 12.9621 320.274 13.6492 318.703 15.0084C318.018 15.7005 317.487 16.5298 317.145 17.442C316.802 18.3542 316.657 19.3285 316.717 20.301V21.8665L336.45 21.7919ZM332.851 47.9074C332.643 47.6847 332.481 47.4229 332.375 47.1371C332.268 46.8514 332.219 46.5474 332.231 46.2426C332.234 45.829 332.301 45.4183 332.429 45.025C332.58 44.6206 332.807 44.2492 333.099 43.9317C333.432 43.8421 333.773 43.792 334.117 43.7826C334.468 43.7602 334.821 43.8128 335.15 43.937C335.48 44.0613 335.779 44.2543 336.028 44.5032C336.399 45.0247 336.591 45.6525 336.574 46.2923C336.594 46.8868 336.4 47.4687 336.028 47.9323C335.824 48.1466 335.577 48.315 335.303 48.4264C335.03 48.5377 334.735 48.5896 334.44 48.5783C334.142 48.5914 333.845 48.5381 333.57 48.422C333.295 48.306 333.05 48.1302 332.851 47.9074ZM316.469 29.8179C316.469 29.2248 316.705 28.656 317.124 28.2366C317.542 27.8172 318.111 27.5816 318.703 27.5816C319.296 27.5816 319.864 27.8172 320.283 28.2366C320.702 28.656 320.937 29.2248 320.937 29.8179C320.937 30.411 320.702 30.9799 320.283 31.3993C319.864 31.8186 319.296 32.0543 318.703 32.0543C318.111 32.0543 317.542 31.8186 317.124 31.3993C316.705 30.9799 316.469 30.411 316.469 29.8179ZM337.791 49.6965C338.227 49.2789 338.568 48.7719 338.791 48.2101C339.014 47.6483 339.113 47.045 339.081 46.4414C339.098 45.429 338.794 44.4374 338.212 43.6087C337.653 42.8137 336.838 42.2348 335.904 41.9687C336.346 41.2176 336.561 40.3547 336.525 39.4839V25.7677H332.603V38.3657C332.628 38.9214 332.552 39.477 332.38 40.0057C332.231 40.3784 331.833 40.6518 331.139 40.8257C329.681 41.2011 328.26 41.7084 326.894 42.3414C325.569 42.9076 324.384 43.7555 323.419 44.8263V30.3646C323.463 29.7077 323.375 29.0488 323.162 28.426C322.949 27.8032 322.615 27.229 322.178 26.7367C321.724 26.2934 321.183 25.9495 320.589 25.727C319.995 25.5046 319.361 25.4084 318.728 25.4446C317.482 25.3787 316.26 25.8072 315.327 26.6373C314.906 27.0687 314.578 27.5828 314.364 28.1473C314.15 28.7118 314.056 29.3145 314.086 29.9173C314.052 30.5176 314.149 31.1181 314.373 31.6763C314.596 32.2345 314.939 32.7368 315.377 33.1476C316.312 33.9368 317.505 34.3527 318.728 34.3155H319.572V50.5414H323.419C323.894 48.909 324.845 47.4555 326.149 46.3669C327.344 45.3602 328.741 44.6229 330.245 44.2051C329.924 44.8886 329.762 45.6364 329.773 46.3917C329.743 46.9929 329.841 47.5937 330.059 48.1546C330.277 48.7156 330.611 49.2241 331.039 49.6468C331.501 50.0677 332.041 50.3921 332.629 50.6012C333.217 50.8103 333.841 50.8997 334.465 50.8644C335.076 50.8953 335.687 50.8035 336.263 50.5944C336.838 50.3853 337.366 50.0631 337.815 49.6468M292.666 16.872C293.58 16.1318 294.746 15.7755 295.917 15.8781C297.392 15.8633 298.846 16.2314 300.137 16.9465C301.315 17.5982 302.38 18.4374 303.289 19.4314H291.574C291.568 18.9631 291.663 18.4991 291.851 18.0705C292.039 17.6419 292.317 17.2587 292.666 16.9465M307.707 21.9162V13.0951H304.282V16.7726C303.209 15.6606 301.938 14.7589 300.534 14.1138C298.975 13.4103 297.28 13.0623 295.57 13.0951C293.52 12.9413 291.49 13.5918 289.911 14.909C289.226 15.6011 288.694 16.4305 288.352 17.3426C288.01 18.2548 287.864 19.2291 287.925 20.2017V21.7671L307.707 21.9162ZM278.493 46.3917C278.493 45.7986 278.728 45.2298 279.147 44.8104C279.566 44.391 280.134 44.1554 280.727 44.1554C281.319 44.1554 281.887 44.391 282.306 44.8104C282.725 45.2298 282.961 45.7986 282.961 46.3917C282.961 46.9848 282.725 47.5536 282.306 47.973C281.887 48.3924 281.319 48.628 280.727 48.628C280.134 48.628 279.566 48.3924 279.147 47.973C278.728 47.5536 278.493 46.9848 278.493 46.3917ZM304.034 47.9074C303.826 47.6847 303.664 47.4229 303.557 47.1371C303.451 46.8514 303.402 46.5474 303.413 46.2426C303.413 45.8265 303.489 45.4138 303.637 45.025C303.787 44.6206 304.015 44.2492 304.307 43.9317C304.631 43.8457 304.964 43.7957 305.3 43.7826C305.648 43.748 306 43.7951 306.328 43.9202C306.655 44.0452 306.949 44.2449 307.186 44.5032C307.576 45.0163 307.777 45.648 307.757 46.2923C307.77 46.8899 307.567 47.4722 307.186 47.9323C306.989 48.1486 306.747 48.3187 306.476 48.4304C306.206 48.542 305.914 48.5926 305.622 48.5783C305.324 48.5914 305.027 48.5381 304.753 48.422C304.478 48.306 304.232 48.1302 304.034 47.9074ZM284.177 49.5971C284.597 49.1695 284.924 48.6596 285.137 48.0994C285.351 47.5393 285.447 46.9409 285.418 46.342C285.451 45.7442 285.355 45.1463 285.136 44.589C284.918 44.0316 284.582 43.5278 284.152 43.1117C283.211 42.3167 282.007 41.9004 280.776 41.9439H279.933V41.099C279.869 40.5627 279.942 40.019 280.146 39.5191C280.35 39.0191 280.678 38.5794 281.099 38.2415C281.966 37.6681 282.99 37.3813 284.028 37.4215L284.475 34.7876L279.213 32.8743C279.268 32.2423 279.45 31.6281 279.749 31.0687C280.047 30.5092 280.456 30.0161 280.95 29.6191C282.22 28.783 283.727 28.382 285.244 28.4761C286.807 28.4123 288.343 28.8956 289.588 29.8428C290.184 30.3941 290.647 31.075 290.939 31.8331C291.232 32.5913 291.347 33.4065 291.276 34.2161V50.442H295.123C295.572 48.8646 296.428 47.4334 297.605 46.2923C298.685 45.3083 299.975 44.5857 301.378 44.1802C301.076 44.843 300.924 45.564 300.931 46.2923C300.901 46.8935 300.999 47.4943 301.217 48.0552C301.435 48.6162 301.769 49.1247 302.197 49.5474C302.658 49.9683 303.199 50.2927 303.787 50.5018C304.375 50.7109 304.999 50.8004 305.622 50.765C306.234 50.7959 306.845 50.7041 307.421 50.495C307.996 50.2859 308.524 49.9637 308.973 49.5474C309.41 49.1298 309.751 48.6228 309.974 48.061C310.197 47.4992 310.295 46.8959 310.264 46.2923C310.28 45.2799 309.976 44.2884 309.395 43.4596C308.836 42.6646 308.021 42.0858 307.087 41.8196C307.529 41.0685 307.744 40.2056 307.707 39.3348V25.7677H303.86V38.3657C303.885 38.9214 303.809 39.477 303.637 40.0057C303.488 40.3784 303.091 40.6518 302.396 40.8257C301.015 41.1713 299.676 41.6627 298.399 42.2917C297.171 42.8872 296.08 43.7336 295.198 44.7766H295.073V33.8682C295.157 32.1189 294.707 30.3854 293.783 28.8985C292.899 27.6472 291.663 26.6871 290.233 26.1404C288.651 25.5286 286.966 25.225 285.269 25.2458C283.432 25.1942 281.605 25.533 279.908 26.2398C278.546 26.81 277.363 27.737 276.482 28.9234C275.703 29.9996 275.285 31.2963 275.291 32.6258V34.0918L280.528 35.8809C279.312 36.0049 278.174 36.5394 277.302 37.3966C276.382 38.5264 275.937 39.9699 276.06 41.4221V45.7208C275.986 47.0457 276.432 48.3474 277.302 49.3486C278.26 50.158 279.473 50.602 280.727 50.602C281.981 50.602 283.194 50.158 284.152 49.3486M265.437 46.1432C265.437 46.7363 265.202 47.3052 264.783 47.7245C264.364 48.1439 263.796 48.3796 263.203 48.3796C262.611 48.3796 262.042 48.1439 261.624 47.7245C261.205 47.3052 260.969 46.7363 260.969 46.1432C260.969 45.5501 261.205 44.9813 261.624 44.5619C262.042 44.1425 262.611 43.9069 263.203 43.9069C263.796 43.9069 264.364 44.1425 264.783 44.5619C265.202 44.9813 265.437 45.5501 265.437 46.1432ZM266.777 34.7379C265.785 33.8798 264.515 33.4118 263.203 33.4209L255.757 32.7997V32.3027C255.731 31.8038 255.805 31.3047 255.976 30.8351C256.146 30.3656 256.41 29.9352 256.75 29.5694C257.161 29.2072 257.641 28.9323 258.162 28.7614C258.682 28.5906 259.232 28.5273 259.778 28.5755C260.794 28.5868 261.807 28.6866 262.806 28.8737C263.83 29.0634 264.868 29.1631 265.909 29.1719C266.628 29.1719 267.274 29.1719 267.82 29.1719C268.398 29.1208 268.971 29.0211 269.533 28.8737L269.036 25.6683C268.49 25.6683 267.919 25.8671 267.323 25.9167H265.462C264.822 25.9235 264.182 25.8736 263.551 25.7677L261.714 25.4695C260.889 25.3827 260.061 25.3413 259.232 25.3452C258.261 25.2884 257.29 25.4261 256.373 25.7504C255.457 26.0747 254.614 26.579 253.895 27.2337C253.239 27.9035 252.729 28.7017 252.396 29.5783C252.063 30.4548 251.914 31.3908 251.959 32.3276V35.9306L261.689 36.6512C262.401 36.637 263.095 36.8746 263.65 37.3221C263.858 37.5771 264.014 37.8709 264.107 38.1866C264.201 38.5023 264.231 38.8334 264.196 39.1609V41.9936H263.352C262.119 41.9353 260.91 42.3533 259.976 43.1614C259.538 43.5722 259.195 44.0745 258.972 44.6327C258.749 45.1909 258.651 45.7915 258.686 46.3917C258.656 46.9929 258.753 47.5937 258.971 48.1546C259.189 48.7156 259.523 49.2241 259.952 49.6468C260.904 50.459 262.114 50.9051 263.364 50.9051C264.615 50.9051 265.825 50.459 266.777 49.6468C267.218 49.1565 267.557 48.5832 267.775 47.9603C267.992 47.3375 268.083 46.6775 268.043 46.019V38.1172C268.073 37.5474 267.989 36.9774 267.797 36.44C267.606 35.9027 267.31 35.4086 266.926 34.9864M230.563 26.3889C229.146 27.0184 227.922 28.013 227.014 29.2713C226.197 30.4629 225.764 31.8763 225.773 33.3215V34.7876L230.961 36.5766C229.75 36.8368 228.664 37.503 227.883 38.4651C227.026 39.6074 226.595 41.014 226.666 42.4408V50.3923H230.514V42.5899C230.452 41.974 230.516 41.3518 230.704 40.7619C230.892 40.1721 231.199 39.6272 231.606 39.1609C231.993 38.8048 232.447 38.5292 232.941 38.3501C233.435 38.1709 233.96 38.0918 234.485 38.1172L234.932 35.4585L229.67 33.5452C229.781 32.1017 230.459 30.7613 231.556 29.8179C232.823 28.8811 234.377 28.4154 235.95 28.501C237.54 28.454 239.102 28.9344 240.393 29.8676C241.018 30.4005 241.506 31.0758 241.817 31.8367C242.128 32.5976 242.253 33.422 242.18 34.2409V50.4668H246.002V33.8682C246.1 32.107 245.62 30.3621 244.637 28.8985C243.724 27.6449 242.464 26.6861 241.013 26.1404C239.428 25.5361 237.745 25.2327 236.049 25.2458C234.181 25.1983 232.325 25.5631 230.613 26.3143M203.781 26.3143C202.356 26.93 201.128 27.9274 200.232 29.1967C199.397 30.3811 198.955 31.7976 198.966 33.247V34.7876L204.154 36.5766C202.95 36.8382 201.873 37.5047 201.101 38.4651C200.237 39.605 199.798 41.0113 199.86 42.4408V50.3923H203.707V42.5899C203.651 41.9743 203.718 41.3536 203.906 40.7646C204.093 40.1756 204.397 39.6303 204.799 39.1609C205.186 38.8048 205.64 38.5292 206.134 38.3501C206.628 38.1709 207.153 38.0918 207.678 38.1172L208.125 35.4585L202.863 33.5452C202.974 32.1126 203.632 30.7779 204.7 29.8179C205.974 28.8774 207.537 28.4117 209.118 28.501C210.67 28.4595 212.193 28.9215 213.462 29.8179C214.087 30.3508 214.576 31.0261 214.887 31.787C215.197 32.5479 215.322 33.3723 215.249 34.1912V50.4171H219.17V33.8682C219.256 32.1084 218.777 30.3673 217.805 28.8985C216.877 27.6491 215.611 26.692 214.157 26.1404C212.572 25.5338 210.888 25.2304 209.192 25.2458C207.332 25.1912 205.482 25.5564 203.781 26.3143ZM179.978 28.7991C180.999 28.528 182.049 28.3861 183.105 28.3767C183.875 28.2893 184.655 28.3732 185.389 28.6223C186.122 28.8715 186.792 29.2797 187.35 29.8179C188.202 31.0266 188.614 32.4914 188.516 33.9676V50.3426H192.364V33.7191C192.364 28.1365 189.385 25.337 183.428 25.3204C182.013 25.3147 180.604 25.4901 179.233 25.8422C178.062 26.1094 176.922 26.5009 175.833 27.0101L177.074 29.967C178.001 29.5199 178.975 29.1782 179.978 28.9482M155.157 38.3409C155.157 37.7478 155.392 37.1789 155.811 36.7595C156.23 36.3401 156.798 36.1045 157.391 36.1045C157.983 36.1045 158.551 36.3401 158.97 36.7595C159.389 37.1789 159.625 37.7478 159.625 38.3409C159.625 38.934 159.389 39.5028 158.97 39.9222C158.551 40.3416 157.983 40.5772 157.391 40.5772C156.798 40.5772 156.23 40.3416 155.811 39.9222C155.392 39.5028 155.157 38.934 155.157 38.3409ZM162.901 50.4917C164.943 50.612 166.96 49.9948 168.585 48.7523C169.999 47.5335 171.026 45.9268 171.539 44.1305C172.129 42.0878 172.422 39.9704 172.408 37.8439C172.578 34.5679 171.584 31.3374 169.603 28.7246C168.545 27.5412 167.229 26.6183 165.756 26.0278C164.284 25.4373 162.695 25.1952 161.114 25.3204C159.533 25.3031 157.954 25.4363 156.398 25.718C155.048 25.9706 153.721 26.3279 152.427 26.7864L153.494 29.8179C154.579 29.3869 155.7 29.0543 156.845 28.824C158.118 28.5587 159.416 28.4255 160.717 28.4264C161.8 28.3514 162.886 28.52 163.895 28.9199C164.904 29.3198 165.811 29.9408 166.55 30.7373C168.019 32.7644 168.722 35.2472 168.535 37.7445C168.664 40.1545 168.177 42.5574 167.121 44.7269C166.65 45.5511 165.953 46.2232 165.113 46.6635C164.273 47.1039 163.325 47.2941 162.38 47.2117H162.057V38.813C162.101 38.1561 162.013 37.4972 161.8 36.8744C161.587 36.2516 161.253 35.6774 160.816 35.1851C160.359 34.7467 159.817 34.406 159.224 34.1838C158.631 33.9617 157.998 33.8628 157.366 33.893C156.12 33.8298 154.899 34.258 153.965 35.0857C153.544 35.5171 153.216 36.0312 153.002 36.5957C152.788 37.1602 152.694 37.7629 152.724 38.3657C152.688 38.9661 152.785 39.5672 153.008 40.1257C153.231 40.6842 153.575 41.1863 154.015 41.596C154.95 42.3852 156.143 42.8011 157.366 42.7639H158.21V50.5414L162.901 50.4917Z" fill="white"/>
</g>
<defs>
<clipPath id="clip0_344_10635">
<rect width="666" height="438" fill="white"/>
</clipPath>
</defs>
</svg>
