<svg width="683" height="117" viewBox="0 0 683 117" fill="none" xmlns="http://www.w3.org/2000/svg">
<path d="M34.4629 48.48C33.0229 48.48 31.8069 48.256 30.8149 47.808C29.8229 47.36 29.0709 46.688 28.5589 45.792C28.0469 44.864 27.7909 43.712 27.7909 42.336V21.696H34.9909V41.472C34.9909 42.08 35.1189 42.528 35.3749 42.816C35.6629 43.104 36.0949 43.248 36.6709 43.248C36.9269 43.248 37.1989 43.216 37.4869 43.152C37.7749 43.088 38.0469 43.008 38.3029 42.912L38.9749 47.52C38.3669 47.84 37.6789 48.08 36.9109 48.24C36.1429 48.4 35.3269 48.48 34.4629 48.48ZM45.4621 48L40.9021 21.696H47.9101L49.2061 30.96C49.3021 31.728 49.4141 32.784 49.5421 34.128C49.7021 35.44 49.8461 36.976 49.9741 38.736H50.1181C50.4061 37.552 50.6621 36.48 50.8861 35.52C51.1101 34.528 51.3181 33.648 51.5101 32.88C51.7341 32.08 51.9261 31.392 52.0861 30.816L54.6781 21.696H59.0461L61.6381 30.816C61.7981 31.392 61.9741 32.08 62.1661 32.88C62.3901 33.648 62.6141 34.528 62.8381 35.52C63.0941 36.48 63.3501 37.552 63.6061 38.736H63.7501C63.9101 36.976 64.0381 35.44 64.1341 34.128C64.2621 32.784 64.3901 31.728 64.5181 30.96L65.8621 21.696H72.8221L68.3101 48H61.2541L58.2301 37.296C57.9101 36.048 57.6541 34.912 57.4621 33.888C57.3021 32.832 57.1421 31.76 56.9821 30.672H56.7901C56.6621 31.408 56.5341 32.112 56.4061 32.784C56.3101 33.456 56.1821 34.16 56.0221 34.896C55.8621 35.6 55.6541 36.4 55.3981 37.296L52.3261 48H45.4621ZM86.6731 48.624C84.7851 48.624 82.8811 48.416 80.9611 48C79.0731 47.584 77.3931 46.992 75.9211 46.224L77.9371 40.512C78.5771 40.864 79.3451 41.232 80.2411 41.616C81.1371 42 82.1131 42.32 83.1691 42.576C84.2251 42.832 85.2971 42.96 86.3851 42.96C87.6651 42.96 88.6251 42.784 89.2651 42.432C89.9371 42.048 90.2731 41.472 90.2731 40.704C90.2731 40.128 90.0491 39.664 89.6011 39.312C89.1851 38.928 88.5611 38.576 87.7291 38.256C86.8971 37.904 85.9051 37.536 84.7531 37.152C83.0571 36.544 81.6011 35.888 80.3851 35.184C79.1691 34.48 78.2251 33.616 77.5531 32.592C76.9131 31.568 76.5931 30.288 76.5931 28.752C76.5931 26.992 77.0411 25.552 77.9371 24.432C78.8331 23.312 80.0971 22.48 81.7291 21.936C83.3611 21.36 85.2651 21.072 87.4411 21.072C89.2331 21.072 90.8491 21.216 92.2891 21.504C93.7291 21.792 94.8491 22.16 95.6491 22.608V28.272C95.1051 28.016 94.3851 27.76 93.4891 27.504C92.6251 27.248 91.6811 27.04 90.6571 26.88C89.6651 26.688 88.7051 26.592 87.7771 26.592C86.4651 26.592 85.4731 26.768 84.8011 27.12C84.1291 27.472 83.7931 27.968 83.7931 28.608C83.7931 29.12 84.0171 29.552 84.4651 29.904C84.9451 30.256 85.6331 30.592 86.5291 30.912C87.4251 31.2 88.4971 31.568 89.7451 32.016C91.4091 32.592 92.8171 33.232 93.9691 33.936C95.1211 34.64 95.9851 35.504 96.5611 36.528C97.1691 37.552 97.4731 38.816 97.4731 40.32C97.4731 41.76 97.1371 43.12 96.4651 44.4C95.8251 45.648 94.7211 46.672 93.1531 47.472C91.5851 48.24 89.4251 48.624 86.6731 48.624ZM109.453 48V30.624C109.453 29.28 109.133 28.304 108.493 27.696C107.885 27.088 106.877 26.784 105.469 26.784C104.413 26.784 103.437 26.928 102.541 27.216C101.677 27.504 100.861 27.856 100.093 28.272V22.512C100.797 22.192 101.789 21.872 103.069 21.552C104.349 21.232 105.853 21.072 107.581 21.072C109.341 21.072 110.893 21.328 112.237 21.84C113.613 22.352 114.685 23.216 115.453 24.432C116.253 25.616 116.653 27.248 116.653 29.328V48H109.453ZM127.864 32.496C126.392 32.496 125.224 32.272 124.36 31.824C123.496 31.376 122.872 30.784 122.488 30.048C122.104 29.28 121.912 28.48 121.912 27.648C121.912 27.104 121.992 26.544 122.152 25.968C122.312 25.36 122.552 24.768 122.872 24.192L128.104 24.864C128.04 25.088 127.976 25.328 127.912 25.584C127.88 25.84 127.864 26.112 127.864 26.4C127.864 26.816 127.992 27.152 128.248 27.408C128.504 27.632 128.952 27.744 129.592 27.744H135.016V32.496H127.864ZM127.864 45.936C126.392 45.936 125.224 45.712 124.36 45.264C123.496 44.816 122.872 44.224 122.488 43.488C122.104 42.72 121.912 41.92 121.912 41.088C121.912 40.544 121.992 39.984 122.152 39.408C122.312 38.8 122.552 38.208 122.872 37.632L128.104 38.304C128.04 38.528 127.976 38.768 127.912 39.024C127.88 39.28 127.864 39.552 127.864 39.84C127.864 40.256 127.992 40.592 128.248 40.848C128.504 41.072 128.952 41.184 129.592 41.184H135.016V45.936H127.864ZM147.947 48.48C146.507 48.48 145.291 48.256 144.299 47.808C143.307 47.36 142.555 46.688 142.043 45.792C141.531 44.864 141.275 43.712 141.275 42.336V21.696H148.475V41.472C148.475 42.08 148.603 42.528 148.859 42.816C149.147 43.104 149.579 43.248 150.155 43.248C150.411 43.248 150.683 43.216 150.971 43.152C151.259 43.088 151.531 43.008 151.787 42.912L152.459 47.52C151.851 47.84 151.163 48.08 150.395 48.24C149.627 48.4 148.811 48.48 147.947 48.48ZM162.395 48.48C160.955 48.48 159.739 48.256 158.747 47.808C157.755 47.36 157.003 46.688 156.491 45.792C155.979 44.864 155.723 43.712 155.723 42.336V21.696H162.923V41.472C162.923 42.08 163.051 42.528 163.307 42.816C163.595 43.104 164.027 43.248 164.603 43.248C164.859 43.248 165.131 43.216 165.419 43.152C165.707 43.088 165.979 43.008 166.235 42.912L166.907 47.52C166.299 47.84 165.611 48.08 164.843 48.24C164.075 48.4 163.259 48.48 162.395 48.48ZM171.688 48V21.696H176.968L177.928 25.824H178.312C178.856 24.512 179.8 23.424 181.144 22.56C182.488 21.664 184.232 21.216 186.376 21.216C188.424 21.216 190.12 21.584 191.464 22.32C192.808 23.024 193.816 24.112 194.488 25.584C195.192 27.024 195.544 28.848 195.544 31.056V48H188.344V32.496C188.344 30.704 187.976 29.424 187.24 28.656C186.536 27.856 185.496 27.456 184.12 27.456C183 27.456 182.04 27.76 181.24 28.368C180.472 28.976 179.88 29.872 179.464 31.056C179.08 32.208 178.888 33.664 178.888 35.424V48H171.688ZM179.985 18.096V15.696C180.433 15.568 180.929 15.392 181.473 15.168C182.017 14.944 182.497 14.64 182.913 14.256C183.329 13.872 183.537 13.392 183.537 12.816C183.537 12.368 183.409 12.016 183.153 11.76C182.897 11.504 182.577 11.376 182.193 11.376C181.937 11.376 181.665 11.424 181.377 11.52C181.089 11.616 180.833 11.712 180.609 11.808L179.697 8.592C180.337 8.048 181.137 7.696 182.097 7.536C183.025 7.344 183.809 7.248 184.449 7.248C185.889 7.248 187.025 7.584 187.857 8.256C188.657 8.928 189.057 9.92 189.057 11.232C189.057 11.936 188.881 12.592 188.529 13.2C188.145 13.808 187.569 14.304 186.801 14.688L186.609 13.44H195.681V18.096H179.985ZM204.403 48V36.96H201.667V32.544H210.883V42.528H211.219C212.275 42.528 213.171 42.24 213.907 41.664C214.675 41.088 215.251 40.24 215.635 39.12C216.019 37.968 216.211 36.528 216.211 34.8C216.211 32.816 215.923 31.248 215.347 30.096C214.803 28.912 213.987 28.064 212.899 27.552C211.811 27.04 210.467 26.784 208.867 26.784C207.203 26.784 205.699 27.024 204.355 27.504C203.011 27.952 201.811 28.496 200.755 29.136V23.136C201.811 22.592 203.139 22.112 204.739 21.696C206.339 21.28 208.179 21.072 210.259 21.072C213.363 21.072 215.875 21.568 217.795 22.56C219.747 23.552 221.187 25.056 222.115 27.072C223.043 29.088 223.507 31.616 223.507 34.656C223.507 37.504 223.075 39.936 222.211 41.952C221.379 43.936 220.003 45.44 218.083 46.464C216.195 47.488 213.667 48 210.499 48H204.403ZM238.079 48.624C236.191 48.624 234.287 48.416 232.367 48C230.479 47.584 228.799 46.992 227.327 46.224L229.343 40.512C229.983 40.864 230.751 41.232 231.647 41.616C232.543 42 233.519 42.32 234.575 42.576C235.631 42.832 236.703 42.96 237.791 42.96C239.071 42.96 240.031 42.784 240.671 42.432C241.343 42.048 241.679 41.472 241.679 40.704C241.679 40.128 241.455 39.664 241.007 39.312C240.591 38.928 239.967 38.576 239.135 38.256C238.303 37.904 237.311 37.536 236.159 37.152C234.463 36.544 233.007 35.888 231.791 35.184C230.575 34.48 229.631 33.616 228.959 32.592C228.319 31.568 227.999 30.288 227.999 28.752C227.999 26.992 228.447 25.552 229.343 24.432C230.239 23.312 231.503 22.48 233.135 21.936C234.767 21.36 236.671 21.072 238.847 21.072C240.639 21.072 242.255 21.216 243.695 21.504C245.135 21.792 246.255 22.16 247.055 22.608V28.272C246.511 28.016 245.791 27.76 244.895 27.504C244.031 27.248 243.087 27.04 242.063 26.88C241.071 26.688 240.111 26.592 239.183 26.592C237.871 26.592 236.879 26.768 236.207 27.12C235.535 27.472 235.199 27.968 235.199 28.608C235.199 29.12 235.423 29.552 235.871 29.904C236.351 30.256 237.039 30.592 237.935 30.912C238.831 31.2 239.903 31.568 241.151 32.016C242.815 32.592 244.223 33.232 245.375 33.936C246.527 34.64 247.391 35.504 247.967 36.528C248.575 37.552 248.879 38.816 248.879 40.32C248.879 41.76 248.543 43.12 247.871 44.4C247.231 45.648 246.127 46.672 244.559 47.472C242.991 48.24 240.831 48.624 238.079 48.624ZM225.326 18.048V15.024L230.174 13.008H247.31V18.048H225.326ZM258.411 48L250.779 21.696H258.027L263.835 42.192H264.123C264.635 42.192 265.115 42.048 265.563 41.76C266.011 41.472 266.395 41.088 266.715 40.608C267.355 39.712 267.835 38.656 268.155 37.44C268.475 36.192 268.635 34.96 268.635 33.744C268.635 31.6 268.219 29.952 267.387 28.8C266.587 27.648 265.467 27.072 264.027 27.072C263.739 27.072 263.467 27.088 263.211 27.12C262.987 27.152 262.779 27.216 262.587 27.312L261.243 21.792C261.979 21.568 262.667 21.44 263.307 21.408C263.979 21.344 264.523 21.312 264.939 21.312C266.635 21.312 268.107 21.536 269.355 21.984C270.603 22.432 271.675 23.104 272.571 24C273.691 25.088 274.523 26.448 275.067 28.08C275.643 29.712 275.931 31.552 275.931 33.6C275.931 36.192 275.515 38.464 274.683 40.416C273.883 42.336 272.907 43.856 271.755 44.976C270.795 45.904 269.579 46.64 268.107 47.184C266.667 47.728 264.683 48 262.155 48H258.411ZM288.713 48.48C287.273 48.48 286.057 48.256 285.065 47.808C284.073 47.36 283.321 46.688 282.809 45.792C282.297 44.864 282.041 43.712 282.041 42.336V21.696H289.241V41.472C289.241 42.08 289.369 42.528 289.625 42.816C289.913 43.104 290.345 43.248 290.921 43.248C291.177 43.248 291.449 43.216 291.737 43.152C292.025 43.088 292.297 43.008 292.553 42.912L293.225 47.52C292.617 47.84 291.929 48.08 291.161 48.24C290.393 48.4 289.577 48.48 288.713 48.48ZM303.161 48.48C301.721 48.48 300.505 48.256 299.513 47.808C298.521 47.36 297.769 46.688 297.257 45.792C296.745 44.864 296.489 43.712 296.489 42.336V21.696H303.689V41.472C303.689 42.08 303.817 42.528 304.073 42.816C304.361 43.104 304.793 43.248 305.369 43.248C305.625 43.248 305.897 43.216 306.185 43.152C306.473 43.088 306.745 43.008 307.001 42.912L307.673 47.52C307.065 47.84 306.377 48.08 305.609 48.24C304.841 48.4 304.025 48.48 303.161 48.48ZM326.906 48V30.912C326.906 29.376 326.49 28.272 325.658 27.6C324.826 26.928 323.546 26.592 321.818 26.592C320.154 26.592 318.522 26.848 316.922 27.36C315.354 27.84 313.994 28.416 312.842 29.088V23.136C313.77 22.688 315.082 22.24 316.778 21.792C318.474 21.312 320.442 21.072 322.682 21.072C324.314 21.072 325.802 21.248 327.146 21.6C328.522 21.92 329.722 22.48 330.746 23.28C331.77 24.048 332.554 25.088 333.098 26.4C333.674 27.68 333.962 29.28 333.962 31.2V48H326.906ZM319.034 48.48C316.282 48.48 314.154 47.824 312.65 46.512C311.178 45.2 310.442 43.36 310.442 40.992C310.442 38.432 311.354 36.384 313.178 34.848C315.034 33.312 317.946 32.384 321.914 32.064L328.058 31.584V36.768L322.73 37.296C320.81 37.488 319.466 37.872 318.698 38.448C317.962 39.024 317.594 39.792 317.594 40.752C317.594 41.712 317.898 42.432 318.506 42.912C319.146 43.392 319.962 43.632 320.954 43.632C321.338 43.632 321.722 43.6 322.106 43.536C322.49 43.44 322.842 43.344 323.162 43.248L323.786 47.76C323.178 47.984 322.458 48.16 321.626 48.288C320.794 48.416 319.93 48.48 319.034 48.48ZM319.017 18.096V15.696C319.465 15.568 319.961 15.392 320.505 15.168C321.049 14.944 321.529 14.64 321.945 14.256C322.361 13.872 322.569 13.392 322.569 12.816C322.569 12.368 322.441 12.016 322.185 11.76C321.929 11.504 321.609 11.376 321.225 11.376C320.969 11.376 320.697 11.424 320.409 11.52C320.121 11.616 319.865 11.712 319.641 11.808L318.729 8.592C319.369 8.048 320.169 7.696 321.129 7.536C322.057 7.344 322.841 7.248 323.481 7.248C324.921 7.248 326.057 7.584 326.889 8.256C327.689 8.928 328.089 9.92 328.089 11.232C328.089 11.936 327.913 12.592 327.561 13.2C327.177 13.808 326.601 14.304 325.833 14.688L325.641 13.44H334.713V18.096H319.017ZM347.673 48.624C346.041 48.624 344.505 48.432 343.065 48.048C341.625 47.696 340.281 47.184 339.033 46.512L340.953 41.28C341.657 41.696 342.505 42.064 343.497 42.384C344.489 42.704 345.465 42.864 346.425 42.864C348.217 42.864 349.641 42.192 350.697 40.848C351.753 39.472 352.281 37.424 352.281 34.704C352.281 32.144 351.753 30.192 350.697 28.848C349.641 27.504 347.993 26.832 345.753 26.832C344.697 26.832 343.609 26.992 342.489 27.312C341.369 27.6 340.441 27.968 339.705 28.416V22.512C340.697 22.064 341.817 21.712 343.065 21.456C344.313 21.2 345.641 21.072 347.049 21.072C349.993 21.072 352.393 21.616 354.249 22.704C356.105 23.792 357.465 25.36 358.329 27.408C359.193 29.424 359.625 31.856 359.625 34.704C359.625 39.248 358.585 42.704 356.505 45.072C354.425 47.44 351.481 48.624 347.673 48.624ZM380.297 48V30.912C380.297 29.376 379.881 28.272 379.049 27.6C378.217 26.928 376.937 26.592 375.209 26.592C373.545 26.592 371.913 26.848 370.313 27.36C368.745 27.84 367.385 28.416 366.233 29.088V23.136C367.161 22.688 368.473 22.24 370.169 21.792C371.865 21.312 373.817 21.072 376.025 21.072C377.721 21.072 379.241 21.28 380.585 21.696C381.961 22.112 382.953 22.928 383.561 24.144C384.905 24.56 385.865 25.376 386.441 26.592C387.049 27.776 387.353 29.312 387.353 31.2V48H380.297ZM372.425 48.48C369.673 48.48 367.545 47.824 366.041 46.512C364.569 45.2 363.833 43.36 363.833 40.992C363.833 38.432 364.745 36.384 366.569 34.848C368.425 33.312 371.337 32.384 375.305 32.064L381.449 31.584V36.768L376.121 37.296C374.201 37.488 372.857 37.872 372.089 38.448C371.353 39.024 370.985 39.792 370.985 40.752C370.985 41.712 371.289 42.432 371.897 42.912C372.537 43.392 373.353 43.632 374.345 43.632C374.729 43.632 375.113 43.6 375.497 43.536C375.881 43.44 376.233 43.344 376.553 43.248L377.177 47.76C376.569 47.984 375.849 48.16 375.017 48.288C374.185 48.416 373.321 48.48 372.425 48.48ZM383.417 26.928L379.481 23.616C380.601 23.232 381.481 22.752 382.121 22.176C382.761 21.568 383.097 20.832 383.129 19.968H389.417C389.417 20.96 389.209 21.92 388.793 22.848C388.409 23.744 387.769 24.544 386.873 25.248C386.009 25.952 384.857 26.512 383.417 26.928ZM381.228 60.528V56.256C381.228 55.456 380.876 55.056 380.172 55.056C380.012 55.056 379.852 55.072 379.692 55.104C379.532 55.136 379.372 55.184 379.212 55.248L378.876 51.792C379.324 51.632 379.948 51.472 380.748 51.312C381.516 51.152 382.3 51.072 383.1 51.072C384.668 51.072 385.772 51.376 386.412 51.984C387.052 52.624 387.372 53.488 387.372 54.576V60.528H381.228ZM403.22 48.624C401.332 48.624 399.428 48.416 397.508 48C395.62 47.584 393.94 46.992 392.468 46.224L394.484 40.512C395.124 40.864 395.892 41.232 396.788 41.616C397.684 42 398.66 42.32 399.716 42.576C400.772 42.832 401.844 42.96 402.932 42.96C404.212 42.96 405.172 42.784 405.812 42.432C406.484 42.048 406.82 41.472 406.82 40.704C406.82 40.128 406.596 39.664 406.148 39.312C405.732 38.928 405.108 38.576 404.276 38.256C403.444 37.904 402.452 37.536 401.3 37.152C399.604 36.544 398.148 35.888 396.932 35.184C395.716 34.48 394.772 33.616 394.1 32.592C393.46 31.568 393.14 30.288 393.14 28.752C393.14 26.992 393.588 25.552 394.484 24.432C395.38 23.312 396.644 22.48 398.276 21.936C399.908 21.36 401.812 21.072 403.988 21.072C405.78 21.072 407.396 21.216 408.836 21.504C410.276 21.792 411.396 22.16 412.196 22.608V28.272C411.652 28.016 410.932 27.76 410.036 27.504C409.172 27.248 408.228 27.04 407.204 26.88C406.212 26.688 405.252 26.592 404.324 26.592C403.012 26.592 402.02 26.768 401.348 27.12C400.676 27.472 400.34 27.968 400.34 28.608C400.34 29.12 400.564 29.552 401.012 29.904C401.492 30.256 402.18 30.592 403.076 30.912C403.972 31.2 405.044 31.568 406.292 32.016C407.956 32.592 409.364 33.232 410.516 33.936C411.668 34.64 412.532 35.504 413.108 36.528C413.716 37.552 414.02 38.816 414.02 40.32C414.02 41.76 413.684 43.12 413.012 44.4C412.372 45.648 411.268 46.672 409.7 47.472C408.132 48.24 405.972 48.624 403.22 48.624ZM426 48V30.624C426 29.28 425.68 28.304 425.04 27.696C424.432 27.088 423.424 26.784 422.016 26.784C420.96 26.784 419.984 26.928 419.088 27.216C418.224 27.504 417.408 27.856 416.64 28.272V22.512C417.344 22.192 418.336 21.872 419.616 21.552C420.896 21.232 422.4 21.072 424.128 21.072C425.888 21.072 427.44 21.328 428.784 21.84C430.16 22.352 431.232 23.216 432 24.432C432.8 25.616 433.2 27.248 433.2 29.328V48H426ZM447.291 48.48C445.851 48.48 444.635 48.256 443.643 47.808C442.651 47.36 441.899 46.688 441.387 45.792C440.875 44.864 440.619 43.712 440.619 42.336V21.696H447.819V41.472C447.819 42.08 447.947 42.528 448.203 42.816C448.491 43.104 448.923 43.248 449.499 43.248C449.755 43.248 450.027 43.216 450.315 43.152C450.603 43.088 450.875 43.008 451.131 42.912L451.803 47.52C451.195 47.84 450.507 48.08 449.739 48.24C448.971 48.4 448.155 48.48 447.291 48.48ZM471.047 48V30.912C471.047 29.376 470.631 28.272 469.799 27.6C468.967 26.928 467.687 26.592 465.959 26.592C464.295 26.592 462.663 26.848 461.063 27.36C459.495 27.84 458.135 28.416 456.983 29.088V23.136C457.911 22.688 459.223 22.24 460.919 21.792C462.615 21.312 464.567 21.072 466.775 21.072C468.471 21.072 469.991 21.28 471.335 21.696C472.711 22.112 473.703 22.928 474.311 24.144C475.655 24.56 476.615 25.376 477.191 26.592C477.799 27.776 478.103 29.312 478.103 31.2V48H471.047ZM463.175 48.48C460.423 48.48 458.295 47.824 456.791 46.512C455.319 45.2 454.583 43.36 454.583 40.992C454.583 38.432 455.495 36.384 457.319 34.848C459.175 33.312 462.087 32.384 466.055 32.064L472.199 31.584V36.768L466.871 37.296C464.951 37.488 463.607 37.872 462.839 38.448C462.103 39.024 461.735 39.792 461.735 40.752C461.735 41.712 462.039 42.432 462.647 42.912C463.287 43.392 464.103 43.632 465.095 43.632C465.479 43.632 465.863 43.6 466.247 43.536C466.631 43.44 466.983 43.344 467.303 43.248L467.927 47.76C467.319 47.984 466.599 48.16 465.767 48.288C464.935 48.416 464.071 48.48 463.175 48.48ZM474.167 26.928L470.231 23.616C471.351 23.232 472.231 22.752 472.871 22.176C473.511 21.568 473.847 20.832 473.879 19.968H480.167C480.167 20.96 479.959 21.92 479.543 22.848C479.159 23.744 478.519 24.544 477.623 25.248C476.759 25.952 475.607 26.512 474.167 26.928ZM493.97 48.624C492.082 48.624 490.178 48.416 488.258 48C486.37 47.584 484.69 46.992 483.218 46.224L485.234 40.512C485.874 40.864 486.642 41.232 487.538 41.616C488.434 42 489.41 42.32 490.466 42.576C491.522 42.832 492.594 42.96 493.682 42.96C494.962 42.96 495.922 42.784 496.562 42.432C497.234 42.048 497.57 41.472 497.57 40.704C497.57 40.128 497.346 39.664 496.898 39.312C496.482 38.928 495.858 38.576 495.026 38.256C494.194 37.904 493.202 37.536 492.05 37.152C490.354 36.544 488.898 35.888 487.682 35.184C486.466 34.48 485.522 33.616 484.85 32.592C484.21 31.568 483.89 30.288 483.89 28.752C483.89 26.992 484.338 25.552 485.234 24.432C486.13 23.312 487.394 22.48 489.026 21.936C490.658 21.36 492.562 21.072 494.738 21.072C496.53 21.072 498.146 21.216 499.586 21.504C501.026 21.792 502.146 22.16 502.946 22.608V28.272C502.402 28.016 501.682 27.76 500.786 27.504C499.922 27.248 498.978 27.04 497.954 26.88C496.962 26.688 496.002 26.592 495.074 26.592C493.762 26.592 492.77 26.768 492.098 27.12C491.426 27.472 491.09 27.968 491.09 28.608C491.09 29.12 491.314 29.552 491.762 29.904C492.242 30.256 492.93 30.592 493.826 30.912C494.722 31.2 495.794 31.568 497.042 32.016C498.706 32.592 500.114 33.232 501.266 33.936C502.418 34.64 503.282 35.504 503.858 36.528C504.466 37.552 504.77 38.816 504.77 40.32C504.77 41.76 504.434 43.12 503.762 44.4C503.122 45.648 502.018 46.672 500.45 47.472C498.882 48.24 496.722 48.624 493.97 48.624ZM481.122 18.048V15.024L485.97 13.008H503.106V18.048H481.122ZM496.962 15.12V9.696H503.106V15.12H496.962ZM518.766 48.48C516.814 48.48 515.166 48.112 513.822 47.376C512.51 46.608 511.502 45.472 510.798 43.968C510.126 42.464 509.79 40.624 509.79 38.448V21.696H516.99V37.2C516.99 38.96 517.342 40.24 518.046 41.04C518.75 41.84 519.774 42.24 521.118 42.24C522.814 42.24 524.126 41.6 525.054 40.32C525.982 39.008 526.446 36.992 526.446 34.272V21.696H533.646V48H528.174L527.406 43.968H526.974C526.43 45.248 525.486 46.32 524.142 47.184C522.83 48.048 521.038 48.48 518.766 48.48ZM526.661 18.048C525.157 18.048 523.973 17.824 523.109 17.376C522.245 16.928 521.637 16.368 521.285 15.696C520.901 14.992 520.709 14.256 520.709 13.488C520.709 12.944 520.789 12.368 520.949 11.76C521.109 11.12 521.349 10.528 521.669 9.984L526.901 10.656C526.837 10.88 526.789 11.12 526.757 11.376C526.693 11.6 526.661 11.808 526.661 12C526.661 12.448 526.805 12.8 527.093 13.056C527.349 13.28 527.797 13.392 528.437 13.392H538.757V18.048H526.661ZM525.254 9.152V7.184C525.574 7.088 525.974 6.944 526.454 6.752C526.902 6.56 527.302 6.304 527.654 5.984C528.006 5.664 528.182 5.264 528.182 4.784C528.182 4.432 528.086 4.16 527.894 3.968C527.67 3.744 527.398 3.632 527.078 3.632C526.854 3.632 526.614 3.68 526.358 3.776C526.07 3.84 525.846 3.952 525.686 4.112L524.822 1.328C525.398 0.879999 526.118 0.591999 526.982 0.463997C527.814 0.303997 528.534 0.223997 529.142 0.223997C530.358 0.223997 531.35 0.479998 532.118 0.991999C532.854 1.472 533.222 2.272 533.222 3.392C533.222 3.872 533.126 4.368 532.934 4.88C532.71 5.392 532.278 5.808 531.638 6.128L531.302 5.12H538.454V9.152H525.254ZM549.797 48.48C547.845 48.48 546.197 48.112 544.853 47.376C543.541 46.608 542.533 45.472 541.829 43.968C541.157 42.464 540.821 40.624 540.821 38.448V21.696H548.021V37.2C548.021 38.96 548.373 40.24 549.077 41.04C549.781 41.84 550.805 42.24 552.149 42.24C553.845 42.24 555.157 41.6 556.085 40.32C557.013 39.008 557.477 36.992 557.477 34.272V21.696H564.677V48H559.205L558.437 43.968H558.005C557.461 45.248 556.517 46.32 555.173 47.184C553.861 48.048 552.069 48.48 549.797 48.48ZM581.308 48.48C578.716 48.48 576.652 47.92 575.116 46.8C573.58 45.648 572.476 44.08 571.804 42.096C571.132 40.08 570.796 37.776 570.796 35.184C570.796 32.4 571.1 30.096 571.708 28.272C572.348 26.416 573.244 24.976 574.396 23.952C575.548 22.896 576.908 22.16 578.476 21.744C580.076 21.296 581.82 21.072 583.708 21.072C586.588 21.072 588.892 21.472 590.62 22.272C592.348 23.072 593.596 24.208 594.364 25.68C595.164 27.152 595.564 28.88 595.564 30.864V48H588.364V31.44C588.364 29.936 587.996 28.8 587.26 28.032C586.556 27.232 585.372 26.832 583.708 26.832C582.588 26.832 581.596 27.072 580.732 27.552C579.9 28 579.244 28.816 578.764 30C578.316 31.184 578.092 32.88 578.092 35.088C578.092 36.592 578.236 37.92 578.524 39.072C578.812 40.224 579.276 41.12 579.916 41.76C580.588 42.4 581.484 42.72 582.604 42.72C582.956 42.72 583.292 42.704 583.612 42.672C583.964 42.608 584.268 42.544 584.524 42.48L585.196 47.856C584.684 48.08 584.06 48.24 583.324 48.336C582.62 48.432 581.948 48.48 581.308 48.48ZM572.482 18.048V15.024L577.33 13.008H594.466V18.048H572.482ZM588.322 15.12V9.696H594.466V15.12H588.322ZM602.034 48V39.984C602.034 37.968 602.434 36.416 603.234 35.328C604.034 34.24 605.17 33.472 606.642 33.024L606.69 32.832L601.554 30.96V29.712C601.554 28.144 602.018 26.704 602.946 25.392C603.874 24.08 605.234 23.04 607.026 22.272C608.85 21.472 611.058 21.072 613.65 21.072C616.082 21.072 618.178 21.456 619.938 22.224C621.698 22.96 623.058 24.08 624.018 25.584C625.01 27.056 625.506 28.928 625.506 31.2V48H618.306V31.632C618.306 30.032 617.874 28.832 617.01 28.032C616.178 27.232 614.994 26.832 613.458 26.832C611.986 26.832 610.882 27.152 610.146 27.792C609.41 28.4 609.01 29.152 608.946 30.048L613.218 32.016L612.69 35.136C611.538 35.2 610.674 35.616 610.098 36.384C609.522 37.152 609.234 38.192 609.234 39.504V48H602.034ZM617.739 18.048C616.235 18.048 615.051 17.824 614.187 17.376C613.323 16.928 612.715 16.368 612.363 15.696C611.979 14.992 611.787 14.256 611.787 13.488C611.787 12.944 611.867 12.368 612.027 11.76C612.187 11.12 612.427 10.528 612.747 9.984L617.979 10.656C617.915 10.88 617.867 11.12 617.835 11.376C617.771 11.6 617.739 11.808 617.739 12C617.739 12.448 617.883 12.8 618.171 13.056C618.427 13.28 618.875 13.392 619.515 13.392H629.835V18.048H617.739ZM644.083 48.624C639.923 48.624 636.899 47.664 635.011 45.744C633.155 43.792 632.227 40.976 632.227 37.296V21.696H639.427V37.68C639.427 39.376 639.795 40.672 640.531 41.568C641.299 42.432 642.483 42.864 644.083 42.864C645.683 42.864 646.851 42.432 647.587 41.568C648.355 40.672 648.739 39.376 648.739 37.68V21.696H655.939V37.296C655.939 40.976 654.995 43.792 653.107 45.744C651.251 47.664 648.243 48.624 644.083 48.624ZM11.5559 106.624C9.66788 106.624 7.76388 106.416 5.84388 106C3.95588 105.584 2.27588 104.992 0.803875 104.224L2.81988 98.512C3.45988 98.864 4.22788 99.232 5.12388 99.616C6.01988 100 6.99588 100.32 8.05188 100.576C9.10788 100.832 10.1799 100.96 11.2679 100.96C12.5479 100.96 13.5079 100.784 14.1479 100.432C14.8199 100.048 15.1559 99.472 15.1559 98.704C15.1559 98.128 14.9319 97.664 14.4839 97.312C14.0679 96.928 13.4439 96.576 12.6119 96.256C11.7799 95.904 10.7879 95.536 9.63588 95.152C7.93988 94.544 6.48388 93.888 5.26788 93.184C4.05188 92.48 3.10788 91.616 2.43588 90.592C1.79588 89.568 1.47588 88.288 1.47588 86.752C1.47588 84.992 1.92388 83.552 2.81988 82.432C3.71588 81.312 4.97988 80.48 6.61188 79.936C8.24388 79.36 10.1479 79.072 12.3239 79.072C14.1159 79.072 15.7319 79.216 17.1719 79.504C18.6119 79.792 19.7319 80.16 20.5319 80.608V86.272C19.9879 86.016 19.2679 85.76 18.3719 85.504C17.5079 85.248 16.5639 85.04 15.5399 84.88C14.5479 84.688 13.5879 84.592 12.6599 84.592C11.3479 84.592 10.3559 84.768 9.68388 85.12C9.01188 85.472 8.67588 85.968 8.67588 86.608C8.67588 87.12 8.89988 87.552 9.34788 87.904C9.82788 88.256 10.5159 88.592 11.4119 88.912C12.3079 89.2 13.3799 89.568 14.6279 90.016C16.2919 90.592 17.6999 91.232 18.8519 91.936C20.0039 92.64 20.8679 93.504 21.4439 94.528C22.0519 95.552 22.3559 96.816 22.3559 98.32C22.3559 99.76 22.0199 101.12 21.3479 102.4C20.7079 103.648 19.6039 104.672 18.0359 105.472C16.4679 106.24 14.3079 106.624 11.5559 106.624ZM31.8876 90.496C30.4156 90.496 29.2476 90.272 28.3836 89.824C27.5196 89.376 26.8956 88.784 26.5116 88.048C26.1276 87.28 25.9356 86.48 25.9356 85.648C25.9356 85.104 26.0156 84.544 26.1756 83.968C26.3356 83.36 26.5756 82.768 26.8956 82.192L32.1276 82.864C32.0636 83.088 31.9996 83.328 31.9356 83.584C31.9036 83.84 31.8876 84.112 31.8876 84.4C31.8876 84.816 32.0156 85.152 32.2716 85.408C32.5276 85.632 32.9756 85.744 33.6156 85.744H39.0396V90.496H31.8876ZM31.8876 103.936C30.4156 103.936 29.2476 103.712 28.3836 103.264C27.5196 102.816 26.8956 102.224 26.5116 101.488C26.1276 100.72 25.9356 99.92 25.9356 99.088C25.9356 98.544 26.0156 97.984 26.1756 97.408C26.3356 96.8 26.5756 96.208 26.8956 95.632L32.1276 96.304C32.0636 96.528 31.9996 96.768 31.9356 97.024C31.9036 97.28 31.8876 97.552 31.8876 97.84C31.8876 98.256 32.0156 98.592 32.2716 98.848C32.5276 99.072 32.9756 99.184 33.6156 99.184H39.0396V103.936H31.8876ZM56.4348 106.624C52.2748 106.624 49.2508 105.664 47.3628 103.744C45.5068 101.792 44.5788 98.976 44.5788 95.296V79.696H51.7788V95.68C51.7788 97.376 52.1468 98.672 52.8828 99.568C53.6508 100.432 54.8348 100.864 56.4348 100.864C58.0348 100.864 59.2028 100.432 59.9388 99.568C60.7068 98.672 61.0908 97.376 61.0908 95.68V79.696H68.2908V95.296C68.2908 98.976 67.3468 101.792 65.4587 103.744C63.6028 105.664 60.5948 106.624 56.4348 106.624ZM86.8566 106.624C82.6966 106.624 79.6726 105.664 77.7846 103.744C75.9286 101.792 75.0006 98.976 75.0006 95.296V79.696H82.2006V95.68C82.2006 97.376 82.5686 98.672 83.3046 99.568C84.0726 100.432 85.2566 100.864 86.8566 100.864C88.4566 100.864 89.6246 100.432 90.3606 99.568C91.1286 98.672 91.5126 97.376 91.5126 95.68V79.696H98.7126V95.296C98.7126 98.976 97.7686 101.792 95.8806 103.744C94.0246 105.664 91.0166 106.624 86.8566 106.624ZM112.815 106.48C111.375 106.48 110.159 106.256 109.167 105.808C108.175 105.36 107.423 104.688 106.911 103.792C106.399 102.864 106.143 101.712 106.143 100.336V79.696H113.343V99.472C113.343 100.08 113.471 100.528 113.727 100.816C114.015 101.104 114.447 101.248 115.023 101.248C115.279 101.248 115.551 101.216 115.839 101.152C116.127 101.088 116.399 101.008 116.655 100.912L117.327 105.52C116.719 105.84 116.031 106.08 115.263 106.24C114.495 106.4 113.679 106.48 112.815 106.48ZM121.313 106V90.4C121.313 86.72 122.289 83.92 124.241 82C126.193 80.048 129.297 79.072 133.553 79.072C135.377 79.072 136.993 79.328 138.401 79.84C139.809 80.32 140.881 81.184 141.617 82.432C143.121 83.008 144.161 84 144.737 85.408C145.345 86.816 145.649 88.496 145.649 90.448V106H138.497V90.304C138.497 88.608 138.097 87.28 137.297 86.32C136.529 85.328 135.265 84.832 133.505 84.832C131.745 84.832 130.465 85.328 129.665 86.32C128.865 87.28 128.465 88.608 128.465 90.304V94.48L128.609 94.528C129.249 93.28 129.985 92.464 130.817 92.08C131.649 91.664 132.801 91.456 134.273 91.456H135.425V96.832H134.273C132.705 96.832 131.489 97.104 130.625 97.648C129.793 98.192 129.217 98.912 128.897 99.808C128.609 100.672 128.465 101.648 128.465 102.736V106H121.313ZM141.857 84.928L137.921 81.616C139.041 81.232 139.921 80.752 140.561 80.176C141.201 79.568 141.537 78.832 141.569 77.968H147.857C147.857 78.96 147.649 79.92 147.233 80.848C146.849 81.744 146.209 82.544 145.313 83.248C144.449 83.952 143.297 84.512 141.857 84.928ZM161.978 106.624C160.09 106.624 158.186 106.416 156.266 106C154.378 105.584 152.698 104.992 151.226 104.224L153.242 98.512C153.882 98.864 154.65 99.232 155.546 99.616C156.442 100 157.418 100.32 158.474 100.576C159.53 100.832 160.602 100.96 161.69 100.96C162.97 100.96 163.93 100.784 164.57 100.432C165.242 100.048 165.578 99.472 165.578 98.704C165.578 98.128 165.354 97.664 164.906 97.312C164.49 96.928 163.866 96.576 163.034 96.256C162.202 95.904 161.21 95.536 160.058 95.152C158.362 94.544 156.906 93.888 155.69 93.184C154.474 92.48 153.53 91.616 152.858 90.592C152.218 89.568 151.898 88.288 151.898 86.752C151.898 84.992 152.346 83.552 153.242 82.432C154.138 81.312 155.402 80.48 157.034 79.936C158.666 79.36 160.57 79.072 162.746 79.072C164.538 79.072 166.154 79.216 167.594 79.504C169.034 79.792 170.154 80.16 170.954 80.608V86.272C170.41 86.016 169.69 85.76 168.794 85.504C167.93 85.248 166.986 85.04 165.962 84.88C164.97 84.688 164.01 84.592 163.082 84.592C161.77 84.592 160.778 84.768 160.106 85.12C159.434 85.472 159.098 85.968 159.098 86.608C159.098 87.12 159.322 87.552 159.77 87.904C160.25 88.256 160.938 88.592 161.834 88.912C162.73 89.2 163.802 89.568 165.05 90.016C166.714 90.592 168.122 91.232 169.274 91.936C170.426 92.64 171.29 93.504 171.866 94.528C172.474 95.552 172.778 96.816 172.778 98.32C172.778 99.76 172.442 101.12 171.77 102.4C171.13 103.648 170.026 104.672 168.458 105.472C166.89 106.24 164.73 106.624 161.978 106.624ZM190.086 106.624C187.174 106.624 184.806 106.192 182.982 105.328C181.19 104.432 179.878 103.136 179.046 101.44C178.214 99.744 177.798 97.664 177.798 95.2V79.696H184.95V95.584C184.95 97.344 185.35 98.672 186.15 99.568C186.982 100.464 188.326 100.912 190.182 100.912C191.974 100.912 193.254 100.496 194.022 99.664C194.79 98.8 195.174 97.44 195.174 95.584V79.696H202.326V95.2C202.326 97.664 201.91 99.744 201.078 101.44C200.246 103.136 198.934 104.432 197.142 105.328C195.35 106.192 192.998 106.624 190.086 106.624ZM193.158 95.536C191.654 95.536 190.454 95.296 189.558 94.816C188.694 94.304 188.086 93.664 187.734 92.896C187.382 92.096 187.206 91.296 187.206 90.496C187.206 89.92 187.286 89.312 187.446 88.672C187.606 88.032 187.846 87.52 188.166 87.136L192.438 88C192.342 88.192 192.262 88.416 192.198 88.672C192.166 88.896 192.15 89.12 192.15 89.344C192.15 89.76 192.278 90.128 192.534 90.448C192.79 90.736 193.142 90.88 193.59 90.88H205.11V95.536H193.158ZM212.444 106V94.96H209.708V90.544H218.924V100.528H219.26C220.316 100.528 221.212 100.24 221.948 99.664C222.716 99.088 223.292 98.24 223.676 97.12C224.06 95.968 224.252 94.528 224.252 92.8C224.252 90.816 223.98 89.248 223.436 88.096C222.892 86.912 222.076 86.064 220.988 85.552C219.9 85.04 218.556 84.784 216.956 84.784C215.26 84.784 213.74 85.024 212.396 85.504C211.052 85.952 209.852 86.496 208.796 87.136V81.136C209.852 80.592 211.18 80.112 212.78 79.696C214.38 79.28 216.252 79.072 218.396 79.072C220.54 79.072 222.38 79.36 223.916 79.936C225.452 80.512 226.492 81.552 227.036 83.056C228.412 83.664 229.5 84.784 230.3 86.416C231.132 88.016 231.548 90.208 231.548 92.992C231.548 95.744 231.1 98.096 230.204 100.048C229.34 101.968 227.948 103.44 226.028 104.464C224.14 105.488 221.644 106 218.54 106H212.444ZM208.796 116.176V114.688C208.796 112.448 209.324 110.816 210.38 109.792C211.468 108.768 212.812 108.256 214.412 108.256C215.724 108.256 216.78 108.528 217.58 109.072C218.412 109.648 219.148 110.416 219.788 111.376L222.284 108.784L225.98 111.52L225.356 111.76V107.536H231.308V116.176H225.116L222.332 113.728L220.268 116.176H218.972C218.652 115.504 218.236 114.896 217.724 114.352C217.244 113.84 216.636 113.584 215.9 113.584C215.196 113.584 214.716 113.84 214.46 114.352C214.236 114.864 214.124 115.392 214.124 115.936V116.176H208.796ZM227.132 84.928L223.196 81.616C224.316 81.232 225.196 80.752 225.836 80.176C226.476 79.568 226.812 78.832 226.844 77.968H233.132C233.132 78.96 232.924 79.92 232.508 80.848C232.124 81.744 231.484 82.544 230.588 83.248C229.724 83.952 228.572 84.512 227.132 84.928ZM237.417 106V97.984C237.417 95.968 237.817 94.416 238.617 93.328C239.417 92.24 240.553 91.472 242.025 91.024L242.073 90.832L236.937 88.96V87.712C236.937 86.144 237.401 84.704 238.329 83.392C239.257 82.08 240.617 81.04 242.409 80.272C244.233 79.472 246.441 79.072 249.033 79.072C251.465 79.072 253.561 79.456 255.321 80.224C257.081 80.96 258.441 82.08 259.401 83.584C260.393 85.056 260.889 86.928 260.889 89.2V106H253.689V89.632C253.689 88.032 253.257 86.832 252.393 86.032C251.561 85.232 250.377 84.832 248.841 84.832C247.369 84.832 246.265 85.152 245.529 85.792C244.793 86.4 244.393 87.152 244.329 88.048L248.601 90.016L248.073 93.136C246.921 93.2 246.057 93.616 245.481 94.384C244.905 95.152 244.617 96.192 244.617 97.504V106H237.417ZM238.146 76.048V73.024L242.994 71.008H260.13V76.048H238.146ZM269.77 106V94.96H267.034V90.544H276.25V100.528H276.586C277.642 100.528 278.538 100.24 279.274 99.664C280.042 99.088 280.618 98.24 281.002 97.12C281.386 95.968 281.578 94.528 281.578 92.8C281.578 90.816 281.29 89.248 280.714 88.096C280.17 86.912 279.354 86.064 278.266 85.552C277.178 85.04 275.834 84.784 274.234 84.784C272.57 84.784 271.066 85.024 269.722 85.504C268.378 85.952 267.178 86.496 266.122 87.136V81.136C267.178 80.592 268.506 80.112 270.106 79.696C271.706 79.28 273.546 79.072 275.626 79.072C278.73 79.072 281.242 79.568 283.162 80.56C285.114 81.552 286.554 83.056 287.482 85.072C288.41 87.088 288.874 89.616 288.874 92.656C288.874 95.504 288.442 97.936 287.578 99.952C286.746 101.936 285.37 103.44 283.45 104.464C281.562 105.488 279.034 106 275.866 106H269.77ZM296.055 84.496V76.672C296.055 74.752 295.703 73.376 294.999 72.544C294.295 71.712 293.239 71.296 291.831 71.296V68.416L296.679 66.112H308.919V71.296H300.855L300.807 71.488C301.639 72 302.247 72.736 302.631 73.696C303.047 74.656 303.255 75.92 303.255 77.488V84.496H296.055ZM302.727 106.48C301.287 106.48 300.071 106.256 299.079 105.808C298.087 105.36 297.335 104.688 296.823 103.792C296.311 102.864 296.055 101.712 296.055 100.336V79.696H303.255V99.472C303.255 100.08 303.383 100.528 303.639 100.816C303.927 101.104 304.359 101.248 304.935 101.248C305.191 101.248 305.463 101.216 305.751 101.152C306.039 101.088 306.311 101.008 306.567 100.912L307.239 105.52C306.631 105.84 305.943 106.08 305.174 106.24C304.407 106.4 303.591 106.48 302.727 106.48ZM320.144 106.48C317.552 106.48 315.488 105.92 313.952 104.8C312.416 103.648 311.312 102.08 310.64 100.096C309.968 98.08 309.632 95.776 309.632 93.184C309.632 90.4 309.936 88.096 310.544 86.272C311.184 84.416 312.08 82.976 313.232 81.952C314.384 80.896 315.744 80.16 317.312 79.744C318.912 79.296 320.656 79.072 322.544 79.072C325.424 79.072 327.728 79.472 329.456 80.272C331.184 81.072 332.432 82.208 333.2 83.68C334 85.152 334.4 86.88 334.4 88.864V106H327.2V89.44C327.2 87.936 326.832 86.8 326.096 86.032C325.392 85.232 324.208 84.832 322.544 84.832C321.424 84.832 320.432 85.072 319.568 85.552C318.736 86 318.08 86.816 317.6 88C317.152 89.184 316.928 90.88 316.928 93.088C316.928 94.592 317.072 95.92 317.36 97.072C317.648 98.224 318.112 99.12 318.752 99.76C319.424 100.4 320.32 100.72 321.44 100.72C321.792 100.72 322.128 100.704 322.448 100.672C322.8 100.608 323.104 100.544 323.36 100.48L324.032 105.856C323.52 106.08 322.896 106.24 322.16 106.336C321.456 106.432 320.784 106.48 320.144 106.48ZM352.246 106.624C349.366 106.624 347.062 106.288 345.334 105.616C343.606 104.912 342.342 103.936 341.542 102.688C340.774 101.44 340.39 100 340.39 98.368C340.39 96.96 340.598 95.824 341.014 94.96C341.462 94.096 342.022 93.44 342.694 92.992C343.398 92.512 344.102 92.192 344.806 92.032V91.744C344.07 91.488 343.366 91.136 342.694 90.688C342.022 90.24 341.462 89.632 341.014 88.864C340.598 88.096 340.39 87.136 340.39 85.984C340.39 84.8 340.662 83.696 341.206 82.672C341.782 81.648 342.694 80.832 343.942 80.224C345.19 79.584 346.838 79.264 348.886 79.264C349.878 79.264 350.838 79.344 351.766 79.504C352.694 79.632 353.414 79.824 353.926 80.08L352.822 84.928C352.566 84.864 352.214 84.8 351.766 84.736C351.35 84.64 350.918 84.592 350.47 84.592C349.478 84.592 348.742 84.832 348.262 85.312C347.782 85.76 347.542 86.352 347.542 87.088C347.542 87.856 347.75 88.448 348.166 88.864C348.582 89.28 349.11 89.568 349.75 89.728C350.422 89.888 351.11 89.968 351.814 89.968H352.822V94.432H351.814C350.438 94.432 349.398 94.672 348.694 95.152C348.022 95.632 347.686 96.416 347.686 97.504C347.686 98.08 347.814 98.656 348.07 99.232C348.358 99.776 348.838 100.24 349.51 100.624C350.182 100.976 351.142 101.152 352.39 101.152C353.574 101.152 354.502 100.976 355.174 100.624C355.846 100.272 356.326 99.808 356.614 99.232C356.902 98.624 357.046 97.952 357.046 97.216V79.696H364.246V96.976C364.246 100.272 363.27 102.704 361.318 104.272C359.398 105.84 356.374 106.624 352.246 106.624ZM379.993 106.624C378.105 106.624 376.201 106.416 374.281 106C372.393 105.584 370.713 104.992 369.241 104.224L371.257 98.512C371.897 98.864 372.665 99.232 373.561 99.616C374.457 100 375.433 100.32 376.489 100.576C377.545 100.832 378.617 100.96 379.705 100.96C380.985 100.96 381.945 100.784 382.585 100.432C383.257 100.048 383.593 99.472 383.593 98.704C383.593 98.128 383.369 97.664 382.921 97.312C382.505 96.928 381.881 96.576 381.049 96.256C380.217 95.904 379.225 95.536 378.073 95.152C376.377 94.544 374.921 93.888 373.705 93.184C372.489 92.48 371.545 91.616 370.873 90.592C370.233 89.568 369.913 88.288 369.913 86.752C369.913 84.992 370.361 83.552 371.257 82.432C372.153 81.312 373.417 80.48 375.049 79.936C376.681 79.36 378.585 79.072 380.761 79.072C382.553 79.072 384.169 79.216 385.609 79.504C387.049 79.792 388.169 80.16 388.969 80.608V86.272C388.425 86.016 387.705 85.76 386.809 85.504C385.945 85.248 385.001 85.04 383.977 84.88C382.985 84.688 382.025 84.592 381.097 84.592C379.785 84.592 378.793 84.768 378.121 85.12C377.449 85.472 377.113 85.968 377.113 86.608C377.113 87.12 377.337 87.552 377.785 87.904C378.265 88.256 378.953 88.592 379.849 88.912C380.745 89.2 381.817 89.568 383.065 90.016C384.729 90.592 386.137 91.232 387.289 91.936C388.441 92.64 389.305 93.504 389.881 94.528C390.489 95.552 390.793 96.816 390.793 98.32C390.793 99.76 390.457 101.12 389.785 102.4C389.145 103.648 388.041 104.672 386.473 105.472C384.905 106.24 382.745 106.624 379.993 106.624ZM402.821 106.624C401.189 106.624 399.653 106.432 398.213 106.048C396.773 105.696 395.429 105.184 394.181 104.512L396.101 99.28C396.805 99.696 397.653 100.064 398.645 100.384C399.637 100.704 400.613 100.864 401.573 100.864C403.365 100.864 404.789 100.192 405.845 98.848C406.901 97.472 407.429 95.424 407.429 92.704C407.429 90.144 406.901 88.192 405.845 86.848C404.789 85.504 403.141 84.832 400.901 84.832C399.845 84.832 398.757 84.992 397.637 85.312C396.517 85.6 395.589 85.968 394.853 86.416V80.512C395.845 80.064 396.965 79.712 398.213 79.456C399.461 79.2 400.789 79.072 402.197 79.072C405.141 79.072 407.541 79.616 409.397 80.704C411.253 81.792 412.613 83.36 413.477 85.408C414.341 87.424 414.773 89.856 414.773 92.704C414.773 97.248 413.733 100.704 411.653 103.072C409.573 105.44 406.629 106.624 402.821 106.624ZM435.973 106.48C433.701 106.48 431.861 106.048 430.453 105.184C429.077 104.32 428.101 103.216 427.525 101.872H427.141L426.373 106H420.901V79.696H428.101V92.272C428.101 94.096 428.309 95.6 428.725 96.784C429.141 97.936 429.749 98.8 430.549 99.376C431.349 99.952 432.309 100.24 433.429 100.24C434.773 100.24 435.797 99.84 436.501 99.04C437.205 98.24 437.557 96.96 437.557 95.2V79.696H444.757V96.784C444.757 98.864 444.421 100.624 443.749 102.064C443.109 103.504 442.133 104.608 440.821 105.376C439.509 106.112 437.893 106.48 435.973 106.48ZM462.301 106.624C458.717 106.624 456.013 105.824 454.189 104.224C452.365 102.624 451.453 100.288 451.453 97.216V95.296C451.453 93.984 451.629 92.912 451.981 92.08C452.333 91.216 452.765 90.432 453.277 89.728C453.789 89.024 454.205 88.4 454.525 87.856C454.877 87.28 455.053 86.688 455.053 86.08C455.053 85.504 454.909 85.104 454.621 84.88C454.365 84.624 454.013 84.496 453.565 84.496C453.245 84.496 452.909 84.544 452.557 84.64C452.237 84.736 451.869 84.88 451.453 85.072L450.301 80.56C451.197 80.08 452.157 79.76 453.181 79.6C454.237 79.408 455.165 79.312 455.965 79.312C457.373 79.312 458.493 79.536 459.325 79.984C460.189 80.432 460.813 81.072 461.197 81.904C461.581 82.736 461.773 83.728 461.773 84.88C461.773 85.872 461.629 86.752 461.341 87.52C461.053 88.256 460.685 89.024 460.237 89.824C459.821 90.56 459.437 91.248 459.085 91.888C458.765 92.528 458.605 93.456 458.605 94.672V96.592C458.605 97.616 458.749 98.464 459.037 99.136C459.357 99.776 459.789 100.256 460.333 100.576C460.909 100.864 461.581 101.008 462.349 101.008C463.597 101.008 464.525 100.656 465.133 99.952C465.741 99.216 466.045 98.176 466.045 96.832V79.696H473.197V97.024C473.197 100.192 472.269 102.592 470.413 104.224C468.557 105.824 465.853 106.624 462.301 106.624ZM490.371 106.624C486.467 106.624 483.571 105.68 481.683 103.792C479.795 101.872 478.851 99.04 478.851 95.296C478.851 94.656 478.867 93.888 478.899 92.992C478.963 92.064 479.043 91.248 479.139 90.544H490.659V95.104H485.907V95.776C485.907 97.056 486.067 98.112 486.387 98.944C486.707 99.744 487.187 100.336 487.827 100.72C488.499 101.104 489.331 101.296 490.323 101.296C491.411 101.296 492.323 101.056 493.059 100.576C493.827 100.096 494.403 99.28 494.787 98.128C495.203 96.976 495.411 95.392 495.411 93.376C495.411 91.488 495.187 89.92 494.739 88.672C494.323 87.392 493.603 86.432 492.579 85.792C491.587 85.152 490.211 84.832 488.451 84.832C487.491 84.832 486.499 84.944 485.475 85.168C484.451 85.36 483.475 85.616 482.547 85.936C481.651 86.256 480.867 86.608 480.195 86.992V80.992C480.899 80.608 481.763 80.272 482.787 79.984C483.843 79.696 484.979 79.472 486.195 79.312C487.411 79.152 488.611 79.072 489.795 79.072C492.899 79.072 495.395 79.648 497.283 80.8C499.203 81.92 500.595 83.52 501.459 85.6C502.355 87.68 502.803 90.144 502.803 92.992C502.803 95.904 502.371 98.384 501.507 100.432C500.675 102.448 499.347 103.984 497.523 105.04C495.699 106.096 493.315 106.624 490.371 106.624ZM512.872 106L505.24 79.696H512.488L518.296 100.192H518.584C519.096 100.192 519.576 100.048 520.024 99.76C520.472 99.472 520.856 99.088 521.176 98.608C521.816 97.712 522.296 96.656 522.616 95.44C522.936 94.192 523.096 92.96 523.096 91.744C523.096 89.6 522.68 87.952 521.848 86.8C521.048 85.648 519.928 85.072 518.488 85.072C518.2 85.072 517.928 85.088 517.672 85.12C517.448 85.152 517.24 85.216 517.048 85.312L515.704 79.792C516.44 79.568 517.128 79.44 517.768 79.408C518.44 79.344 518.984 79.312 519.4 79.312C521.096 79.312 522.568 79.536 523.816 79.984C525.064 80.432 526.136 81.104 527.032 82C528.152 83.088 528.984 84.448 529.528 86.08C530.104 87.712 530.392 89.552 530.392 91.6C530.392 94.192 529.976 96.464 529.144 98.416C528.344 100.336 527.368 101.856 526.216 102.976C525.256 103.904 524.04 104.64 522.568 105.184C521.128 105.728 519.144 106 516.616 106H512.872ZM547.638 106.624C543.478 106.624 540.454 105.664 538.566 103.744C536.71 101.792 535.782 98.976 535.782 95.296V79.696H542.982V95.68C542.982 97.376 543.35 98.672 544.086 99.568C544.854 100.432 546.038 100.864 547.638 100.864C549.238 100.864 550.406 100.432 551.142 99.568C551.91 98.672 552.294 97.376 552.294 95.68V70.24H559.494V95.296C559.494 98.976 558.55 101.792 556.662 103.744C554.806 105.664 551.798 106.624 547.638 106.624ZM575.275 106.624C573.387 106.624 571.483 106.416 569.563 106C567.675 105.584 565.995 104.992 564.523 104.224L566.539 98.512C567.179 98.864 567.947 99.232 568.843 99.616C569.739 100 570.715 100.32 571.771 100.576C572.827 100.832 573.899 100.96 574.987 100.96C576.267 100.96 577.227 100.784 577.867 100.432C578.539 100.048 578.875 99.472 578.875 98.704C578.875 98.128 578.651 97.664 578.203 97.312C577.787 96.928 577.163 96.576 576.331 96.256C575.499 95.904 574.507 95.536 573.355 95.152C571.659 94.544 570.203 93.888 568.987 93.184C567.771 92.48 566.827 91.616 566.155 90.592C565.515 89.568 565.195 88.288 565.195 86.752C565.195 84.992 565.643 83.552 566.539 82.432C567.435 81.312 568.699 80.48 570.331 79.936C571.963 79.36 573.867 79.072 576.043 79.072C577.835 79.072 579.451 79.216 580.891 79.504C582.331 79.792 583.451 80.16 584.251 80.608V86.272C583.707 86.016 582.987 85.76 582.091 85.504C581.227 85.248 580.283 85.04 579.259 84.88C578.267 84.688 577.307 84.592 576.379 84.592C575.067 84.592 574.075 84.768 573.403 85.12C572.731 85.472 572.395 85.968 572.395 86.608C572.395 87.12 572.619 87.552 573.067 87.904C573.547 88.256 574.235 88.592 575.131 88.912C576.027 89.2 577.099 89.568 578.347 90.016C580.011 90.592 581.419 91.232 582.571 91.936C583.723 92.64 584.587 93.504 585.163 94.528C585.771 95.552 586.075 96.816 586.075 98.32C586.075 99.76 585.739 101.12 585.067 102.4C584.427 103.648 583.323 104.672 581.755 105.472C580.187 106.24 578.027 106.624 575.275 106.624ZM595.606 90.496C594.134 90.496 592.966 90.272 592.102 89.824C591.238 89.376 590.614 88.784 590.23 88.048C589.846 87.28 589.654 86.48 589.654 85.648C589.654 85.104 589.734 84.544 589.894 83.968C590.054 83.36 590.294 82.768 590.614 82.192L595.846 82.864C595.782 83.088 595.718 83.328 595.654 83.584C595.622 83.84 595.606 84.112 595.606 84.4C595.606 84.816 595.734 85.152 595.99 85.408C596.246 85.632 596.694 85.744 597.334 85.744H602.758V90.496H595.606ZM595.606 103.936C594.134 103.936 592.966 103.712 592.102 103.264C591.238 102.816 590.614 102.224 590.23 101.488C589.846 100.72 589.654 99.92 589.654 99.088C589.654 98.544 589.734 97.984 589.894 97.408C590.054 96.8 590.294 96.208 590.614 95.632L595.846 96.304C595.782 96.528 595.718 96.768 595.654 97.024C595.622 97.28 595.606 97.552 595.606 97.84C595.606 98.256 595.734 98.592 595.99 98.848C596.246 99.072 596.694 99.184 597.334 99.184H602.758V103.936H595.606ZM615.69 106.48C614.25 106.48 613.034 106.256 612.042 105.808C611.05 105.36 610.298 104.688 609.786 103.792C609.274 102.864 609.018 101.712 609.018 100.336V79.696H616.218V99.472C616.218 100.08 616.346 100.528 616.602 100.816C616.89 101.104 617.322 101.248 617.898 101.248C618.154 101.248 618.426 101.216 618.714 101.152C619.002 101.088 619.274 101.008 619.53 100.912L620.202 105.52C619.594 105.84 618.906 106.08 618.138 106.24C617.37 106.4 616.554 106.48 615.69 106.48ZM624.993 106V79.696H630.273L631.233 83.824H631.617C632.161 82.512 633.105 81.424 634.449 80.56C635.793 79.664 637.537 79.216 639.681 79.216C641.729 79.216 643.425 79.584 644.769 80.32C646.113 81.024 647.121 82.112 647.793 83.584C648.497 85.024 648.849 86.848 648.849 89.056V106H641.649V90.496C641.649 88.704 641.281 87.424 640.545 86.656C639.841 85.856 638.801 85.456 637.425 85.456C636.305 85.456 635.345 85.76 634.545 86.368C633.777 86.976 633.185 87.872 632.769 89.056C632.385 90.208 632.193 91.664 632.193 93.424V106H624.993ZM655.548 106V90.4C655.548 86.72 656.524 83.92 658.476 82C660.428 80.048 663.532 79.072 667.788 79.072C669.612 79.072 671.228 79.328 672.636 79.84C674.044 80.32 675.116 81.184 675.852 82.432C677.356 83.008 678.396 84 678.972 85.408C679.58 86.816 679.884 88.496 679.884 90.448V106H672.732V90.304C672.732 88.608 672.332 87.28 671.532 86.32C670.764 85.328 669.5 84.832 667.74 84.832C665.98 84.832 664.7 85.328 663.9 86.32C663.1 87.28 662.7 88.608 662.7 90.304V94.48L662.844 94.528C663.484 93.28 664.22 92.464 665.052 92.08C665.884 91.664 667.036 91.456 668.508 91.456H669.66V96.832H668.508C666.94 96.832 665.724 97.104 664.859 97.648C664.028 98.192 663.452 98.912 663.132 99.808C662.844 100.672 662.7 101.648 662.7 102.736V106H655.548ZM676.092 84.928L672.156 81.616C673.276 81.232 674.156 80.752 674.796 80.176C675.436 79.568 675.772 78.832 675.804 77.968H682.092C682.092 78.96 681.884 79.92 681.468 80.848C681.084 81.744 680.444 82.544 679.548 83.248C678.684 83.952 677.532 84.512 676.092 84.928Z" fill="white"/>
</svg>
