<svg width="710" height="485" viewBox="0 0 710 485" fill="none" xmlns="http://www.w3.org/2000/svg">
<path d="M368.269 14.656L361.869 0.0639954H371.469L374.797 14.656H368.269ZM355.981 14.656L349.581 0.0639954H359.181L362.509 14.656H355.981ZM32.4175 205.456C31.8202 208.357 30.8815 210.704 29.6015 212.496C28.4068 214.288 26.9988 215.696 25.3775 216.72C23.7562 217.659 21.9642 218.299 20.0015 218.64C18.1242 218.981 16.2042 219.152 14.2415 219.152C12.1935 219.152 10.2735 218.981 8.4815 218.64C6.77483 218.299 5.32417 217.659 4.1295 216.72C2.93483 215.696 2.0815 214.288 1.5695 212.496C1.14283 210.704 1.22817 208.357 1.8255 205.456L14.6255 144.912H24.4815L11.8095 204.944C11.2975 207.333 11.4255 208.997 12.1935 209.936C12.9615 210.875 14.1988 211.344 15.9055 211.344C17.5268 211.344 18.9348 210.917 20.1295 210.064C21.3242 209.125 22.1775 207.419 22.6895 204.944L39.3295 126.352H49.1855L32.4175 205.456ZM74.7935 167.568H64.9375L66.9855 157.968C67.4975 155.493 67.4975 153.829 66.9855 152.976C66.5588 152.037 65.6202 151.568 64.1695 151.568C62.7188 151.568 61.5668 152.037 60.7135 152.976C59.9455 153.829 59.3055 155.493 58.7935 157.968L57.1295 165.648C56.7028 167.525 56.7882 169.104 57.3855 170.384C58.0682 171.579 58.7508 172.645 59.4335 173.584L67.4975 186.896C68.6068 188.688 69.1615 190.352 69.1615 191.888C69.1615 193.339 68.9482 194.917 68.5215 196.624L66.7295 205.456C66.1322 208.357 65.2362 210.704 64.0415 212.496C62.9322 214.288 61.6522 215.696 60.2015 216.72C58.7508 217.659 57.1295 218.299 55.3375 218.64C53.5455 218.981 51.7108 219.152 49.8335 219.152C47.9562 219.152 46.2068 218.981 44.5855 218.64C42.9642 218.299 41.5988 217.659 40.4895 216.72C39.4655 215.696 38.7828 214.288 38.4415 212.496C38.1002 210.704 38.2282 208.357 38.8255 205.456L41.2575 194.064H51.1135L48.8095 204.944C48.2975 207.333 48.2548 208.997 48.6815 209.936C49.1082 210.875 50.0468 211.344 51.4975 211.344C52.9482 211.344 54.1002 210.917 54.9535 210.064C55.8068 209.125 56.4895 207.419 57.0015 204.944L58.6655 196.88C59.0922 195.173 59.0495 193.851 58.5375 192.912C58.1108 191.888 57.4282 190.608 56.4895 189.072L48.4255 175.248C47.4868 173.541 46.9322 172.005 46.7615 170.64C46.6762 169.275 46.8468 167.611 47.2735 165.648L49.0655 157.456C49.6628 154.555 50.5162 152.251 51.6255 150.544C52.7348 148.752 54.0148 147.387 55.4655 146.448C56.9162 145.424 58.4948 144.741 60.2015 144.4C61.9935 144.059 63.8708 143.888 65.8335 143.888C67.7108 143.888 69.4602 144.059 71.0815 144.4C72.7028 144.741 74.0255 145.424 75.0495 146.448C76.1588 147.387 76.8842 148.752 77.2255 150.544C77.6522 152.251 77.5668 154.555 76.9695 157.456L74.7935 167.568ZM95.9875 168.336H85.8755C84.0835 168.251 82.7182 167.739 81.7795 166.8C80.9262 165.776 80.7128 164.283 81.1395 162.32C81.1395 162.235 81.2248 161.851 81.3955 161.168C81.5662 160.485 81.7368 159.717 81.9075 158.864C82.1635 158.011 82.3342 157.243 82.4195 156.56C82.5902 155.877 82.6755 155.536 82.6755 155.536H92.1475L91.1235 160.272H97.7795L95.9875 168.336ZM87.7955 207.376H77.6835C75.8062 207.291 74.4408 206.779 73.5875 205.84C72.7342 204.816 72.5208 203.323 72.9475 201.36C72.9475 201.275 72.9902 200.891 73.0755 200.208C73.2462 199.525 73.4168 198.757 73.5875 197.904C73.8435 197.051 74.0142 196.283 74.0995 195.6C74.2702 194.917 74.3555 194.576 74.3555 194.576H83.8275L82.8035 199.44H89.4595L87.7955 207.376ZM100.619 218H90.7625L106.251 144.912H116.107L100.619 218ZM137.604 218H127.749L140.677 156.944C141.018 155.493 140.805 154.299 140.037 153.36C139.354 152.336 138.287 151.781 136.837 151.696C135.301 151.611 133.807 152.08 132.357 153.104C130.991 154.128 130.138 155.408 129.797 156.944L116.869 218H107.013L122.501 144.912H131.589L130.693 149.648C132.741 147.173 135.045 145.509 137.604 144.656C140.25 143.803 142.639 143.632 144.773 144.144C146.991 144.656 148.741 145.808 150.021 147.6C151.386 149.307 151.77 151.568 151.173 154.384L137.604 218ZM174.604 218H164.749L177.933 155.792C178.274 154.427 177.933 153.403 176.909 152.72C175.885 151.952 174.733 151.568 173.453 151.568C172.087 151.568 170.765 151.952 169.485 152.72C168.205 153.403 167.394 154.427 167.053 155.792L162.957 175.504H169.869L168.077 183.44H161.165L153.869 218H144.013L157.453 154.768C157.965 152.549 159.074 150.672 160.781 149.136C162.487 147.515 164.45 146.277 166.669 145.424C168.887 144.571 171.234 144.059 173.708 143.888C176.183 143.717 178.402 143.931 180.365 144.528L181.261 140.176H191.117L174.604 218ZM211.604 218H201.749L214.677 156.944C215.018 155.493 214.805 154.299 214.037 153.36C213.354 152.336 212.287 151.781 210.837 151.696C209.301 151.611 207.807 152.08 206.357 153.104C204.991 154.128 204.138 155.408 203.797 156.944L190.869 218H181.013L196.501 144.912H205.589L204.693 149.648C206.741 147.173 209.045 145.509 211.604 144.656C214.25 143.803 216.639 143.632 218.773 144.144C220.991 144.656 222.741 145.808 224.021 147.6C225.386 149.307 225.77 151.568 225.173 154.384L211.604 218ZM228.509 138.256H198.172L199.964 130.32H222.877L223.645 126.352H231.069L228.509 138.256ZM231.581 124.176H223.645L225.821 113.808H233.757L231.581 124.176ZM227.869 218H218.013L233.501 144.912H243.357L227.869 218ZM263.191 218H253.463L260.759 183.44H252.823L254.615 175.504H262.551L266.263 157.968C266.775 155.493 266.604 153.829 265.751 152.976C264.983 152.037 263.745 151.568 262.039 151.568C260.332 151.568 258.881 152.037 257.687 152.976C256.577 153.829 255.767 155.493 255.255 157.968L253.207 167.568H243.479L245.655 157.456C246.252 154.555 247.148 152.251 248.343 150.544C249.623 148.752 251.031 147.387 252.567 146.448C254.188 145.424 255.937 144.741 257.815 144.4C259.777 144.059 261.74 143.888 263.703 143.888C265.58 143.888 267.415 144.059 269.207 144.4C270.999 144.741 272.492 145.424 273.687 146.448C274.881 147.387 275.735 148.752 276.247 150.544C276.759 152.251 276.716 154.555 276.119 157.456L263.191 218ZM308.294 167.568H298.438L300.486 157.968C300.998 155.493 300.998 153.829 300.486 152.976C300.059 152.037 299.12 151.568 297.67 151.568C296.219 151.568 295.067 152.037 294.214 152.976C293.446 153.829 292.806 155.493 292.294 157.968L290.63 165.648C290.203 167.525 290.288 169.104 290.886 170.384C291.568 171.579 292.251 172.645 292.934 173.584L300.998 186.896C302.107 188.688 302.662 190.352 302.662 191.888C302.662 193.339 302.448 194.917 302.022 196.624L300.229 205.456C299.632 208.357 298.736 210.704 297.542 212.496C296.432 214.288 295.152 215.696 293.702 216.72C292.251 217.659 290.63 218.299 288.838 218.64C287.046 218.981 285.211 219.152 283.333 219.152C281.456 219.152 279.707 218.981 278.086 218.64C276.464 218.299 275.099 217.659 273.99 216.72C272.966 215.696 272.283 214.288 271.942 212.496C271.6 210.704 271.728 208.357 272.326 205.456L274.758 194.064H284.614L282.31 204.944C281.798 207.333 281.755 208.997 282.182 209.936C282.608 210.875 283.547 211.344 284.998 211.344C286.448 211.344 287.6 210.917 288.454 210.064C289.307 209.125 289.99 207.419 290.502 204.944L292.166 196.88C292.592 195.173 292.55 193.851 292.038 192.912C291.611 191.888 290.928 190.608 289.99 189.072L281.926 175.248C280.987 173.541 280.432 172.005 280.262 170.64C280.176 169.275 280.347 167.611 280.774 165.648L282.566 157.456C283.163 154.555 284.016 152.251 285.126 150.544C286.235 148.752 287.515 147.387 288.966 146.448C290.416 145.424 291.995 144.741 293.702 144.4C295.494 144.059 297.371 143.888 299.333 143.888C301.211 143.888 302.96 144.059 304.582 144.4C306.203 144.741 307.526 145.424 308.55 146.448C309.659 147.387 310.384 148.752 310.726 150.544C311.152 152.251 311.067 154.555 310.47 157.456L308.294 167.568ZM315.024 138.256H284.688L286.479 130.32H316.816L315.024 138.256ZM370.704 144.912C370.704 144.912 370.49 145.979 370.064 148.112C369.637 150.16 369.039 152.933 368.271 156.432C367.589 159.845 366.778 163.728 365.84 168.08C364.901 172.432 363.92 176.912 362.896 181.52C361.957 186.043 361.018 190.48 360.08 194.832C359.141 199.184 358.288 203.109 357.52 206.608C356.837 210.021 356.282 212.795 355.856 214.928C355.429 216.976 355.216 218 355.216 218C354.533 221.328 353.253 223.888 351.376 225.68C349.584 227.472 347.749 228.752 345.872 229.52C343.994 230.373 342.288 230.885 340.752 231.056C339.301 231.227 338.576 231.312 338.576 231.312H321.808L323.472 223.376H340.24C341.093 223.291 341.946 223.077 342.8 222.736C343.482 222.395 344.165 221.883 344.848 221.2C345.53 220.517 346 219.451 346.256 218C346.256 217.829 346.298 217.573 346.384 217.232C346.554 216.549 346.682 215.995 346.768 215.568L347.28 213.264C345.232 215.739 342.885 217.403 340.24 218.256C337.594 219.195 335.162 219.408 332.944 218.896C330.81 218.384 329.104 217.232 327.824 215.44C326.544 213.648 326.202 211.344 326.8 208.528L337.424 158.48C337.936 156.005 337.85 154.341 337.168 153.488C336.57 152.549 335.29 152.08 333.328 152.08H327.824L313.872 218H303.888L319.503 144.656C319.503 144.656 320.016 144.656 321.04 144.656C322.149 144.571 323.472 144.528 325.008 144.528C326.544 144.528 328.208 144.528 330 144.528C331.792 144.443 333.456 144.4 334.992 144.4C336.869 144.4 338.704 144.571 340.496 144.912C342.288 145.253 343.781 145.936 344.976 146.96C346.17 147.899 347.024 149.264 347.536 151.056C348.048 152.763 348.005 155.067 347.408 157.968L337.168 205.968C336.826 207.419 337.04 208.613 337.808 209.552C338.576 210.491 339.642 211.045 341.008 211.216C342.544 211.387 343.994 210.96 345.36 209.936C346.81 208.827 347.706 207.504 348.048 205.968L360.976 144.912H370.704ZM386.598 218H376.742L392.229 144.912H402.086L386.598 218ZM371.494 218H361.638L377.126 144.912H386.982L371.494 218ZM423.604 218.128H413.749L421.812 180.112C419.679 180.027 417.759 180.155 416.053 180.496C414.602 180.837 413.151 181.477 411.701 182.416C410.335 183.269 409.439 184.677 409.013 186.64L405.045 205.456C404.533 207.845 404.959 209.509 406.325 210.448C407.775 211.301 409.397 211.515 411.189 211.088L409.909 217.36C408.458 218.299 406.709 218.853 404.661 219.024C402.698 219.28 400.863 219.067 399.157 218.384C397.45 217.787 396.085 216.677 395.061 215.056C394.122 213.435 393.951 211.301 394.549 208.656L399.029 187.024C399.967 183.013 401.845 179.643 404.661 176.912C407.562 174.181 411.231 172.816 415.669 172.816H423.349L426.677 157.456C427.189 154.981 427.018 153.317 426.165 152.464C425.397 151.525 424.202 151.056 422.581 151.056C420.874 151.056 419.423 151.525 418.229 152.464C417.119 153.317 416.309 154.981 415.797 157.456L414.389 163.728H405.045L406.453 156.944C407.05 154.043 407.946 151.696 409.141 149.904C410.421 148.112 411.829 146.747 413.365 145.808C414.986 144.869 416.693 144.229 418.485 143.888C420.362 143.547 422.282 143.376 424.245 143.376C426.122 143.376 427.957 143.547 429.749 143.888C431.541 144.229 433.034 144.869 434.229 145.808C435.423 146.747 436.234 148.112 436.661 149.904C437.173 151.696 437.13 154.043 436.533 156.944L423.604 218.128ZM443.325 138.256H429.373L430.525 133.008H425.788L427.325 125.712H430.525H433.725C435.175 125.712 436.157 126.053 436.669 126.736C437.266 127.333 437.65 127.973 437.821 128.656C437.991 129.595 437.906 130.576 437.565 131.6H444.733L443.325 138.256ZM460.604 205.456C460.007 208.357 459.111 210.704 457.917 212.496C456.807 214.288 455.527 215.696 454.077 216.72C452.626 217.659 451.005 218.299 449.213 218.64C447.421 218.981 445.586 219.152 443.708 219.152C441.831 219.152 440.082 218.981 438.461 218.64C436.839 218.299 435.474 217.659 434.365 216.72C433.341 215.696 432.658 214.288 432.317 212.496C431.975 210.704 432.103 208.357 432.701 205.456L433.981 199.44H443.837L442.685 204.944C442.173 207.333 442.13 208.997 442.557 209.936C442.983 210.875 443.922 211.344 445.373 211.344C446.823 211.344 447.975 210.917 448.829 210.064C449.682 209.125 450.365 207.419 450.877 204.944L460.861 157.968C461.373 155.493 461.373 153.829 460.861 152.976C460.434 152.037 459.495 151.568 458.045 151.568C456.594 151.568 455.442 152.037 454.589 152.976C453.821 153.829 453.181 155.493 452.669 157.968L450.621 167.568H440.765L442.941 157.456C443.538 154.555 444.391 152.251 445.501 150.544C446.61 148.752 447.89 147.387 449.341 146.448C450.877 145.424 452.498 144.741 454.205 144.4C455.997 144.059 457.831 143.888 459.708 143.888C461.586 143.888 463.335 144.059 464.957 144.4C466.663 144.741 468.029 145.424 469.053 146.448C470.162 147.387 470.887 148.752 471.229 150.544C471.57 152.251 471.442 154.555 470.845 157.456L460.604 205.456ZM494.854 218H484.999L497.927 156.944C498.268 155.493 498.055 154.299 497.287 153.36C496.604 152.336 495.537 151.781 494.087 151.696C492.551 151.611 491.057 152.08 489.607 153.104C488.241 154.128 487.388 155.408 487.047 156.944L474.119 218H464.263L479.751 144.912H488.839L487.943 149.648C489.991 147.173 492.295 145.509 494.854 144.656C497.5 143.803 499.889 143.632 502.023 144.144C504.241 144.656 505.991 145.808 507.271 147.6C508.636 149.307 509.02 151.568 508.423 154.384L494.854 218ZM514.958 138.256H501.135C499.172 138.256 497.678 138.043 496.654 137.616C495.545 137.104 494.734 136.507 494.222 135.824C493.71 135.056 493.454 134.245 493.454 133.392C493.454 132.453 493.54 131.6 493.71 130.832L494.606 126.48H504.591C504.249 127.675 504.335 128.741 504.847 129.68C505.444 130.533 506.297 130.96 507.407 130.96H516.623L514.958 138.256ZM514.831 124.176H506.895L509.071 113.808H517.007L514.831 124.176ZM531.854 205.456C531.257 208.357 530.361 210.704 529.167 212.496C528.057 214.288 526.777 215.696 525.327 216.72C523.876 217.659 522.255 218.299 520.463 218.64C518.671 218.981 516.836 219.152 514.958 219.152C513.081 219.152 511.332 218.981 509.711 218.64C508.089 218.299 506.724 217.659 505.615 216.72C504.591 215.696 503.908 214.288 503.567 212.496C503.225 210.704 503.353 208.357 503.951 205.456L505.231 199.44H515.087L513.935 204.944C513.423 207.333 513.38 208.997 513.807 209.936C514.233 210.875 515.172 211.344 516.623 211.344C518.073 211.344 519.225 210.917 520.079 210.064C520.932 209.125 521.615 207.419 522.127 204.944L532.111 157.968C532.623 155.493 532.623 153.829 532.111 152.976C531.684 152.037 530.745 151.568 529.295 151.568C527.844 151.568 526.692 152.037 525.839 152.976C525.071 153.829 524.431 155.493 523.919 157.968L521.871 167.568H512.015L514.191 157.456C514.788 154.555 515.641 152.251 516.751 150.544C517.86 148.752 519.14 147.387 520.591 146.448C522.127 145.424 523.748 144.741 525.455 144.4C527.247 144.059 529.081 143.888 530.958 143.888C532.836 143.888 534.585 144.059 536.207 144.4C537.913 144.741 539.279 145.424 540.303 146.448C541.412 147.387 542.137 148.752 542.479 150.544C542.82 152.251 542.692 154.555 542.095 157.456L531.854 205.456ZM571.353 130.576C569.561 130.405 568.11 130.491 567.001 130.832C565.977 131.173 565.166 131.643 564.569 132.24C563.886 132.923 563.417 133.691 563.161 134.544L545.369 218H535.513L553.305 134.16C553.305 134.16 553.561 133.52 554.073 132.24C554.67 130.875 555.694 129.467 557.145 128.016C558.595 126.565 560.558 125.328 563.033 124.304C565.593 123.28 568.878 123.067 572.889 123.664L571.353 130.576ZM582.854 218.128H572.999L581.062 180.112C578.929 180.027 577.009 180.155 575.303 180.496C573.852 180.837 572.401 181.477 570.951 182.416C569.585 183.269 568.689 184.677 568.263 186.64L564.295 205.456C563.783 207.845 564.209 209.509 565.575 210.448C567.025 211.301 568.647 211.515 570.439 211.088L569.159 217.36C567.708 218.299 565.959 218.853 563.911 219.024C561.948 219.28 560.113 219.067 558.407 218.384C556.7 217.787 555.335 216.677 554.311 215.056C553.372 213.435 553.201 211.301 553.799 208.656L558.279 187.024C559.217 183.013 561.095 179.643 563.911 176.912C566.812 174.181 570.481 172.816 574.919 172.816H582.599L585.927 157.456C586.439 154.981 586.268 153.317 585.415 152.464C584.647 151.525 583.452 151.056 581.831 151.056C580.124 151.056 578.673 151.525 577.479 152.464C576.369 153.317 575.559 154.981 575.047 157.456L573.639 163.728H564.295L565.703 156.944C566.3 154.043 567.196 151.696 568.391 149.904C569.671 148.112 571.079 146.747 572.615 145.808C574.236 144.869 575.943 144.229 577.735 143.888C579.612 143.547 581.532 143.376 583.495 143.376C585.372 143.376 587.207 143.547 588.999 143.888C590.791 144.229 592.284 144.869 593.479 145.808C594.673 146.747 595.484 148.112 595.911 149.904C596.423 151.696 596.38 154.043 595.783 156.944L582.854 218.128ZM619.854 218H609.999L622.671 158.48C623.183 156.005 623.097 154.341 622.415 153.488C621.817 152.549 620.537 152.08 618.575 152.08H613.071L599.119 218H589.263L604.878 144.656C604.878 144.656 605.391 144.656 606.415 144.656C607.524 144.571 608.847 144.528 610.383 144.528C611.919 144.528 613.54 144.528 615.247 144.528C617.039 144.443 618.703 144.4 620.239 144.4C622.116 144.4 623.951 144.571 625.743 144.912C627.535 145.253 629.028 145.936 630.223 146.96C631.417 147.899 632.271 149.264 632.783 151.056C633.295 152.763 633.252 155.067 632.655 157.968L619.854 218ZM656.854 218H647.767L648.791 213.264C646.743 215.739 644.396 217.403 641.751 218.256C639.105 219.195 636.673 219.408 634.455 218.896C632.321 218.384 630.615 217.232 629.335 215.44C628.055 213.648 627.713 211.344 628.311 208.528L641.751 144.912H651.607L638.679 205.968C638.337 207.419 638.508 208.656 639.191 209.68C639.959 210.704 641.068 211.216 642.519 211.216C644.055 211.301 645.505 210.832 646.871 209.808C648.321 208.784 649.217 207.504 649.559 205.968L662.487 144.912H672.343L656.854 218ZM676.958 138.256H663.135C661.172 138.256 659.678 138.043 658.654 137.616C657.545 137.104 656.734 136.507 656.222 135.824C655.71 135.056 655.454 134.245 655.454 133.392C655.454 132.453 655.54 131.6 655.71 130.832L656.606 126.48H666.591C666.249 127.675 666.335 128.741 666.847 129.68C667.444 130.533 668.297 130.96 669.407 130.96H678.623L676.958 138.256ZM676.575 124.176H662.623L663.775 118.8H659.038L660.575 111.504H665.951C667.316 111.504 668.297 111.803 668.895 112.4C669.492 112.997 669.833 113.637 669.919 114.32C670.089 115.003 670.089 115.685 669.919 116.368C669.748 117.051 669.663 117.435 669.663 117.52H677.983L676.575 124.176ZM693.854 218H684.767L685.791 213.264C683.743 215.739 681.396 217.403 678.751 218.256C676.105 219.195 673.673 219.408 671.455 218.896C669.321 218.384 667.615 217.232 666.335 215.44C665.055 213.648 664.713 211.344 665.311 208.528L678.751 144.912H688.607L675.679 205.968C675.337 207.419 675.508 208.656 676.191 209.68C676.959 210.704 678.068 211.216 679.519 211.216C681.055 211.301 682.505 210.832 683.871 209.808C685.321 208.784 686.217 207.504 686.559 205.968L699.487 144.912H709.343L693.854 218ZM163.854 348.128H153.999L162.062 310.112C159.929 310.027 158.009 310.155 156.303 310.496C154.852 310.837 153.401 311.477 151.951 312.416C150.585 313.269 149.689 314.677 149.263 316.64L145.295 335.456C144.783 337.845 145.209 339.509 146.575 340.448C148.025 341.301 149.647 341.515 151.439 341.088L150.159 347.36C148.708 348.299 146.959 348.853 144.911 349.024C142.948 349.28 141.113 349.067 139.407 348.384C137.7 347.787 136.335 346.677 135.311 345.056C134.372 343.435 134.201 341.301 134.799 338.656L139.279 317.024C140.217 313.013 142.095 309.643 144.911 306.912C147.812 304.181 151.481 302.816 155.919 302.816H163.599L166.927 287.456C167.439 284.981 167.268 283.317 166.415 282.464C165.647 281.525 164.452 281.056 162.831 281.056C161.124 281.056 159.673 281.525 158.479 282.464C157.369 283.317 156.559 284.981 156.047 287.456L154.639 293.728H145.295L146.703 286.944C147.3 284.043 148.196 281.696 149.391 279.904C150.671 278.112 152.079 276.747 153.615 275.808C155.236 274.869 156.943 274.229 158.735 273.888C160.612 273.547 162.532 273.376 164.495 273.376C166.372 273.376 168.207 273.547 169.999 273.888C171.791 274.229 173.284 274.869 174.479 275.808C175.673 276.747 176.484 278.112 176.911 279.904C177.423 281.696 177.38 284.043 176.783 286.944L163.854 348.128ZM183.575 268.256H169.623L170.775 263.008H166.038L167.575 255.712H170.775H173.975C175.425 255.712 176.407 256.053 176.919 256.736C177.516 257.333 177.9 257.973 178.071 258.656C178.241 259.595 178.156 260.576 177.815 261.6H184.983L183.575 268.256ZM200.854 335.456C200.257 338.357 199.361 340.704 198.167 342.496C197.057 344.288 195.777 345.696 194.327 346.72C192.876 347.659 191.255 348.299 189.463 348.64C187.671 348.981 185.836 349.152 183.958 349.152C182.081 349.152 180.332 348.981 178.711 348.64C177.089 348.299 175.724 347.659 174.615 346.72C173.591 345.696 172.908 344.288 172.567 342.496C172.225 340.704 172.353 338.357 172.951 335.456L174.231 329.44H184.087L182.935 334.944C182.423 337.333 182.38 338.997 182.807 339.936C183.233 340.875 184.172 341.344 185.623 341.344C187.073 341.344 188.225 340.917 189.079 340.064C189.932 339.125 190.615 337.419 191.127 334.944L201.111 287.968C201.623 285.493 201.623 283.829 201.111 282.976C200.684 282.037 199.745 281.568 198.295 281.568C196.844 281.568 195.692 282.037 194.839 282.976C194.071 283.829 193.431 285.493 192.919 287.968L190.871 297.568H181.015L183.191 287.456C183.788 284.555 184.641 282.251 185.751 280.544C186.86 278.752 188.14 277.387 189.591 276.448C191.127 275.424 192.748 274.741 194.455 274.4C196.247 274.059 198.081 273.888 199.958 273.888C201.836 273.888 203.585 274.059 205.207 274.4C206.913 274.741 208.279 275.424 209.303 276.448C210.412 277.387 211.137 278.752 211.479 280.544C211.82 282.251 211.692 284.555 211.095 287.456L200.854 335.456ZM235.104 348H226.017L227.041 343.264C224.993 345.739 222.646 347.403 220.001 348.256C217.355 349.195 214.923 349.408 212.705 348.896C210.571 348.384 208.865 347.232 207.585 345.44C206.305 343.648 205.963 341.344 206.561 338.528L220.001 274.912H229.857L216.929 335.968C216.587 337.419 216.758 338.656 217.441 339.68C218.209 340.704 219.318 341.216 220.769 341.216C222.305 341.301 223.755 340.832 225.121 339.808C226.571 338.784 227.467 337.504 227.809 335.968L240.737 274.912H250.593L235.104 348ZM272.104 348.128L262.249 348.256L270.312 310.112C268.179 310.027 266.259 310.155 264.553 310.496C263.102 310.837 261.651 311.477 260.201 312.416C258.835 313.269 257.939 314.677 257.513 316.64L253.545 335.456C253.033 337.845 253.459 339.509 254.825 340.448C256.275 341.301 257.897 341.515 259.689 341.088L258.409 347.36C256.958 348.299 255.209 348.853 253.161 349.024C251.198 349.28 249.363 349.067 247.657 348.384C245.95 347.787 244.585 346.677 243.561 345.056C242.622 343.435 242.451 341.301 243.049 338.656L247.529 317.024C248.467 313.013 250.345 309.685 253.161 307.04C256.062 304.309 259.731 302.944 264.169 302.944H271.849L275.049 287.584C275.561 285.109 275.433 283.445 274.665 282.592C273.897 281.653 272.702 281.184 271.081 281.184C269.374 281.184 267.923 281.653 266.729 282.592C265.534 283.445 264.681 285.109 264.169 287.584L262.889 293.856H253.545L254.953 287.072C256.233 281.184 258.793 277.301 262.633 275.424C266.558 273.461 271.678 272.949 277.993 273.888L278.761 270.304H288.617L272.104 348.128ZM268.4 365.28H259.312L260.848 358.368H255.344L256.624 351.968H271.216L268.4 365.28ZM317.169 297.568H307.312L309.361 287.968C309.873 285.493 309.873 283.829 309.361 282.976C308.934 282.037 307.995 281.568 306.545 281.568C305.094 281.568 303.942 282.037 303.089 282.976C302.321 283.829 301.681 285.493 301.169 287.968L299.505 295.648C299.078 297.525 299.163 299.104 299.761 300.384C300.443 301.579 301.126 302.645 301.809 303.584L309.873 316.896C310.982 318.688 311.537 320.352 311.537 321.888C311.537 323.339 311.323 324.917 310.897 326.624L309.104 335.456C308.507 338.357 307.611 340.704 306.417 342.496C305.307 344.288 304.027 345.696 302.577 346.72C301.126 347.659 299.505 348.299 297.713 348.64C295.921 348.981 294.086 349.152 292.208 349.152C290.331 349.152 288.582 348.981 286.961 348.64C285.339 348.299 283.974 347.659 282.865 346.72C281.841 345.696 281.158 344.288 280.817 342.496C280.475 340.704 280.603 338.357 281.201 335.456L283.633 324.064H293.489L291.185 334.944C290.673 337.333 290.63 338.997 291.057 339.936C291.483 340.875 292.422 341.344 293.873 341.344C295.323 341.344 296.475 340.917 297.329 340.064C298.182 339.125 298.865 337.419 299.377 334.944L301.041 326.88C301.467 325.173 301.425 323.851 300.913 322.912C300.486 321.888 299.803 320.608 298.865 319.072L290.801 305.248C289.862 303.541 289.307 302.005 289.137 300.64C289.051 299.275 289.222 297.611 289.649 295.648L291.441 287.456C292.038 284.555 292.891 282.251 294.001 280.544C295.11 278.752 296.39 277.387 297.841 276.448C299.291 275.424 300.87 274.741 302.577 274.4C304.369 274.059 306.246 273.888 308.208 273.888C310.086 273.888 311.835 274.059 313.457 274.4C315.078 274.741 316.401 275.424 317.425 276.448C318.534 277.387 319.259 278.752 319.601 280.544C320.027 282.251 319.942 284.555 319.345 287.456L317.169 297.568ZM339.259 285.024C338.576 288.181 337.851 291.467 337.083 294.88C336.4 297.867 335.675 301.237 334.907 304.992C334.139 308.747 333.328 312.587 332.475 316.512L325.819 348H315.963L329.275 285.28C329.616 284.427 329.659 283.659 329.403 282.976C329.232 282.379 328.72 281.909 327.867 281.568C327.013 281.227 325.648 281.141 323.771 281.312C323.685 281.312 323.728 280.971 323.899 280.288C324.069 279.605 324.24 278.795 324.411 277.856C324.667 276.917 324.923 275.765 325.179 274.4C329.36 273.803 332.432 274.016 334.395 275.04C336.443 276.064 337.808 277.301 338.491 278.752C339.344 280.459 339.6 282.549 339.259 285.024ZM342.119 348H332.263L347.751 274.912H357.607L342.119 348ZM379.104 348.128L369.249 348.256L377.312 310.112C375.179 310.027 373.259 310.155 371.553 310.496C370.102 310.837 368.651 311.477 367.201 312.416C365.835 313.269 364.939 314.677 364.513 316.64L360.545 335.456C360.033 337.845 360.459 339.509 361.825 340.448C363.275 341.301 364.897 341.515 366.689 341.088L365.409 347.36C363.958 348.299 362.209 348.853 360.161 349.024C358.198 349.28 356.363 349.067 354.657 348.384C352.95 347.787 351.585 346.677 350.561 345.056C349.622 343.435 349.451 341.301 350.049 338.656L354.529 317.024C355.467 313.013 357.345 309.685 360.161 307.04C363.062 304.309 366.731 302.944 371.169 302.944H378.849L382.049 287.584C382.561 285.109 382.433 283.445 381.665 282.592C380.897 281.653 379.702 281.184 378.081 281.184C376.374 281.184 374.923 281.653 373.729 282.592C372.534 283.445 371.681 285.109 371.169 287.584L369.889 293.856H360.545L361.953 287.072C363.233 281.184 365.793 277.301 369.633 275.424C373.558 273.461 378.678 272.949 384.993 273.888L385.761 270.304H395.617L379.104 348.128ZM424.169 297.568H414.312L416.361 287.968C416.873 285.493 416.873 283.829 416.361 282.976C415.934 282.037 414.995 281.568 413.545 281.568C412.094 281.568 410.942 282.037 410.089 282.976C409.321 283.829 408.681 285.493 408.169 287.968L406.505 295.648C406.078 297.525 406.163 299.104 406.761 300.384C407.443 301.579 408.126 302.645 408.809 303.584L416.873 316.896C417.982 318.688 418.537 320.352 418.537 321.888C418.537 323.339 418.323 324.917 417.897 326.624L416.104 335.456C415.507 338.357 414.611 340.704 413.417 342.496C412.307 344.288 411.027 345.696 409.577 346.72C408.126 347.659 406.505 348.299 404.713 348.64C402.921 348.981 401.086 349.152 399.208 349.152C397.331 349.152 395.582 348.981 393.961 348.64C392.339 348.299 390.974 347.659 389.865 346.72C388.841 345.696 388.158 344.288 387.817 342.496C387.475 340.704 387.603 338.357 388.201 335.456L390.633 324.064H400.489L398.185 334.944C397.673 337.333 397.63 338.997 398.057 339.936C398.483 340.875 399.422 341.344 400.873 341.344C402.323 341.344 403.475 340.917 404.329 340.064C405.182 339.125 405.865 337.419 406.377 334.944L408.041 326.88C408.467 325.173 408.425 323.851 407.913 322.912C407.486 321.888 406.803 320.608 405.865 319.072L397.801 305.248C396.862 303.541 396.307 302.005 396.137 300.64C396.051 299.275 396.222 297.611 396.649 295.648L398.441 287.456C399.038 284.555 399.891 282.251 401.001 280.544C402.11 278.752 403.39 277.387 404.841 276.448C406.291 275.424 407.87 274.741 409.577 274.4C411.369 274.059 413.246 273.888 415.208 273.888C417.086 273.888 418.835 274.059 420.457 274.4C422.078 274.741 423.401 275.424 424.425 276.448C425.534 277.387 426.259 278.752 426.601 280.544C427.027 282.251 426.942 284.555 426.345 287.456L424.169 297.568ZM430.259 268.256H399.922L401.714 260.32H424.627L425.395 256.352H432.819L430.259 268.256ZM450.354 348H440.499L453.427 286.944C453.768 285.493 453.555 284.299 452.787 283.36C452.104 282.336 451.037 281.781 449.587 281.696C448.051 281.611 446.557 282.08 445.107 283.104C443.741 284.128 442.888 285.408 442.547 286.944L429.619 348H419.763L435.251 274.912H444.339L443.443 279.648C445.491 277.173 447.795 275.509 450.354 274.656C453 273.803 455.389 273.632 457.523 274.144C459.741 274.656 461.491 275.808 462.771 277.6C464.136 279.307 464.52 281.568 463.923 284.384L450.354 348ZM470.458 268.256H456.635C454.672 268.256 453.178 268.043 452.154 267.616C451.045 267.104 450.234 266.507 449.722 265.824C449.21 265.056 448.954 264.245 448.954 263.392C448.954 262.453 449.04 261.6 449.21 260.832L450.106 256.48H460.091C459.749 257.675 459.835 258.741 460.347 259.68C460.944 260.533 461.797 260.96 462.907 260.96H472.123L470.458 268.256ZM470.075 254.176H456.123L457.275 248.8H452.538L454.075 241.504H459.451C460.816 241.504 461.797 241.803 462.395 242.4C462.992 242.997 463.333 243.637 463.419 244.32C463.589 245.003 463.589 245.685 463.419 246.368C463.248 247.051 463.163 247.435 463.163 247.52H471.483L470.075 254.176ZM487.867 338.016C487.355 339.979 486.629 341.728 485.691 343.264C484.837 344.544 483.643 345.696 482.107 346.72C480.656 347.744 478.736 348.171 476.347 348H468.155L470.843 274.4H480.059L477.755 339.424L488.891 286.944C489.403 284.64 489.019 283.061 487.739 282.208C486.459 281.269 484.965 281.013 483.259 281.44L484.539 275.168C485.989 274.229 487.653 273.675 489.531 273.504C491.493 273.248 493.285 273.461 494.907 274.144C496.528 274.741 497.808 275.851 498.747 277.472C499.685 279.093 499.856 281.227 499.259 283.872L487.867 338.016ZM522.729 348.128L512.874 348.256L520.938 310.112C518.804 310.027 516.884 310.155 515.178 310.496C513.727 310.837 512.276 311.477 510.826 312.416C509.46 313.269 508.564 314.677 508.138 316.64L504.17 335.456C503.658 337.845 504.084 339.509 505.45 340.448C506.9 341.301 508.522 341.515 510.314 341.088L509.034 347.36C507.583 348.299 505.834 348.853 503.786 349.024C501.823 349.28 499.988 349.067 498.282 348.384C496.575 347.787 495.21 346.677 494.186 345.056C493.247 343.435 493.076 341.301 493.674 338.656L498.154 317.024C499.092 313.013 500.97 309.685 503.786 307.04C506.687 304.309 510.356 302.944 514.794 302.944H522.474L525.674 287.584C526.186 285.109 526.058 283.445 525.29 282.592C524.522 281.653 523.327 281.184 521.706 281.184C519.999 281.184 518.548 281.653 517.354 282.592C516.159 283.445 515.306 285.109 514.794 287.584L513.514 293.856H504.17L505.578 287.072C506.858 281.184 509.418 277.301 513.258 275.424C517.183 273.461 522.303 272.949 528.618 273.888L529.386 270.304H539.242L522.729 348.128ZM540.274 268.256H509.938L511.729 260.32H542.066L540.274 268.256ZM542.45 254.176H528.498L529.65 248.8H524.913L526.45 241.504H531.826C533.191 241.504 534.172 241.803 534.77 242.4C535.367 242.997 535.708 243.637 535.794 244.32C535.964 245.003 535.964 245.685 535.794 246.368C535.623 247.051 535.538 247.435 535.538 247.52H543.858L542.45 254.176ZM559.729 348H550.642L551.666 343.264C549.618 345.739 547.271 347.403 544.626 348.256C541.98 349.195 539.548 349.408 537.33 348.896C535.196 348.384 533.49 347.232 532.21 345.44C530.93 343.648 530.588 341.344 531.186 338.528L544.626 274.912H554.482L541.554 335.968C541.212 337.419 541.383 338.656 542.066 339.68C542.834 340.704 543.943 341.216 545.394 341.216C546.93 341.301 548.38 340.832 549.746 339.808C551.196 338.784 552.092 337.504 552.434 335.968L565.362 274.912H575.218L559.729 348ZM368.269 484.656L361.869 470.064H371.469L374.797 484.656H368.269ZM355.981 484.656L349.581 470.064H359.181L362.509 484.656H355.981Z" fill="white"/>
</svg>
